<?xml version="1.0" standalone="no"?>
 <!DOCTYPE svg PUBLIC "-//W3C//DTD SVG 1.1//EN" 
 "http://www.w3.org/Graphics/SVG/1.1/DTD/svg11.dtd"> 
<svg
  xmlns:svg="http://www.w3.org/2000/svg"
  xmlns="http://www.w3.org/2000/svg"
  xmlns:xlink="http://www.w3.org/1999/xlink"
  version="1.1"
  width="297.0022mm" height="210.0072mm" viewBox="0.0000 0.0000 297.0022 210.0072">
<title>SVG Image created as GreenBean-B_Fab.svg date 2023/08/08 15:31:05 </title>
  <desc>Image generated by PCBNEW </desc>
<g style="fill:#000000; fill-opacity:1.0000;stroke:#000000; stroke-opacity:1.0000;
stroke-linecap:round; stroke-linejoin:round;"
 transform="translate(0 0) scale(1 1)">
</g>
<g style="fill:#000000; fill-opacity:0.0; 
stroke:#000000; stroke-width:0.0000; stroke-opacity:1; 
stroke-linecap:round; stroke-linejoin:round;">
</g>
<g style="fill:#000000; fill-opacity:0.0; 
stroke:#000000; stroke-width:0.1500; stroke-opacity:1; 
stroke-linecap:round; stroke-linejoin:round;">
<g transform="rotate(-180.000000 136.4922 94.6542)">
<text x="136.4922" y="95.1542"
transform="scale(-1 1) translate(-272.984400 0)"
textLength="4.0798" font-size="1.3333" lengthAdjust="spacingAndGlyphs"
text-anchor="middle" opacity="0">20KB</text>
</g>
<g class="stroked-text"><desc>20KB</desc>
<path d="M138.2541 95.1041
L138.2065 95.1517
" />
<path d="M138.2065 95.1517
L138.1112 95.1993
" />
<path d="M138.1112 95.1993
L137.8732 95.1993
" />
<path d="M137.8732 95.1993
L137.7779 95.1517
" />
<path d="M137.7779 95.1517
L137.7303 95.1041
" />
<path d="M137.7303 95.1041
L137.6827 95.0089
" />
<path d="M137.6827 95.0089
L137.6827 94.9136
" />
<path d="M137.6827 94.9136
L137.7303 94.7708
" />
<path d="M137.7303 94.7708
L138.3017 94.1993
" />
<path d="M138.3017 94.1993
L137.6827 94.1993
" />
<path d="M137.0636 95.1993
L136.9684 95.1993
" />
<path d="M136.9684 95.1993
L136.8732 95.1517
" />
<path d="M136.8732 95.1517
L136.8255 95.1041
" />
<path d="M136.8255 95.1041
L136.7779 95.0089
" />
<path d="M136.7779 95.0089
L136.7303 94.8184
" />
<path d="M136.7303 94.8184
L136.7303 94.5803
" />
<path d="M136.7303 94.5803
L136.7779 94.3898
" />
<path d="M136.7779 94.3898
L136.8255 94.2946
" />
<path d="M136.8255 94.2946
L136.8732 94.2470
" />
<path d="M136.8732 94.2470
L136.9684 94.1993
" />
<path d="M136.9684 94.1993
L137.0636 94.1993
" />
<path d="M137.0636 94.1993
L137.1589 94.2470
" />
<path d="M137.1589 94.2470
L137.2065 94.2946
" />
<path d="M137.2065 94.2946
L137.2541 94.3898
" />
<path d="M137.2541 94.3898
L137.3017 94.5803
" />
<path d="M137.3017 94.5803
L137.3017 94.8184
" />
<path d="M137.3017 94.8184
L137.2541 95.0089
" />
<path d="M137.2541 95.0089
L137.2065 95.1041
" />
<path d="M137.2065 95.1041
L137.1589 95.1517
" />
<path d="M137.1589 95.1517
L137.0636 95.1993
" />
<path d="M136.3017 94.1993
L136.3017 95.1993
" />
<path d="M135.7303 94.1993
L136.1589 94.7708
" />
<path d="M135.7303 95.1993
L136.3017 94.6279
" />
<path d="M134.9684 94.7232
L134.8255 94.6755
" />
<path d="M134.8255 94.6755
L134.7779 94.6279
" />
<path d="M134.7779 94.6279
L134.7303 94.5327
" />
<path d="M134.7303 94.5327
L134.7303 94.3898
" />
<path d="M134.7303 94.3898
L134.7779 94.2946
" />
<path d="M134.7779 94.2946
L134.8255 94.2470
" />
<path d="M134.8255 94.2470
L134.9208 94.1993
" />
<path d="M134.9208 94.1993
L135.3017 94.1993
" />
<path d="M135.3017 94.1993
L135.3017 95.1993
" />
<path d="M135.3017 95.1993
L134.9684 95.1993
" />
<path d="M134.9684 95.1993
L134.8732 95.1517
" />
<path d="M134.8732 95.1517
L134.8255 95.1041
" />
<path d="M134.8255 95.1041
L134.7779 95.0089
" />
<path d="M134.7779 95.0089
L134.7779 94.9136
" />
<path d="M134.7779 94.9136
L134.8255 94.8184
" />
<path d="M134.8255 94.8184
L134.8732 94.7708
" />
<path d="M134.8732 94.7708
L134.9684 94.7232
" />
<path d="M134.9684 94.7232
L135.3017 94.7232
" />
</g><text x="128.8722" y="93.6142"
transform="scale(-1 1) translate(-257.744400 0)"
textLength="4.1274" font-size="1.3333" lengthAdjust="spacingAndGlyphs"
text-anchor="middle" opacity="0">LOW1</text>
<g class="stroked-text"><desc>LOW1</desc>
<path d="M127.6103 93.5690
L127.1341 93.5690
" />
<path d="M127.1341 93.5690
L127.1341 92.5690
" />
<path d="M128.1341 92.5690
L128.3246 92.5690
" />
<path d="M128.3246 92.5690
L128.4198 92.6166
" />
<path d="M128.4198 92.6166
L128.5151 92.7118
" />
<path d="M128.5151 92.7118
L128.5627 92.9023
" />
<path d="M128.5627 92.9023
L128.5627 93.2357
" />
<path d="M128.5627 93.2357
L128.5151 93.4261
" />
<path d="M128.5151 93.4261
L128.4198 93.5214
" />
<path d="M128.4198 93.5214
L128.3246 93.5690
" />
<path d="M128.3246 93.5690
L128.1341 93.5690
" />
<path d="M128.1341 93.5690
L128.0389 93.5214
" />
<path d="M128.0389 93.5214
L127.9436 93.4261
" />
<path d="M127.9436 93.4261
L127.8960 93.2357
" />
<path d="M127.8960 93.2357
L127.8960 92.9023
" />
<path d="M127.8960 92.9023
L127.9436 92.7118
" />
<path d="M127.9436 92.7118
L128.0389 92.6166
" />
<path d="M128.0389 92.6166
L128.1341 92.5690
" />
<path d="M128.8960 92.5690
L129.1341 93.5690
" />
<path d="M129.1341 93.5690
L129.3246 92.8547
" />
<path d="M129.3246 92.8547
L129.5151 93.5690
" />
<path d="M129.5151 93.5690
L129.7532 92.5690
" />
<path d="M130.6579 93.5690
L130.0865 93.5690
" />
<path d="M130.3722 93.5690
L130.3722 92.5690
" />
<path d="M130.3722 92.5690
L130.2770 92.7118
" />
<path d="M130.2770 92.7118
L130.1817 92.8071
" />
<path d="M130.1817 92.8071
L130.0865 92.8547
" />
</g><g transform="rotate(-180.000000 136.4922 93.1542)">
<text x="136.4922" y="93.6542"
transform="scale(-1 1) translate(-272.984400 0)"
textLength="5.2226" font-size="1.3333" lengthAdjust="spacingAndGlyphs"
text-anchor="middle" opacity="0">${REF}</text>
</g>
<g class="stroked-text"><desc>${REF}</desc>
<path d="M138.8255 92.7470
L138.6827 92.6993
" />
<path d="M138.6827 92.6993
L138.4446 92.6993
" />
<path d="M138.4446 92.6993
L138.3493 92.7470
" />
<path d="M138.3493 92.7470
L138.3017 92.7946
" />
<path d="M138.3017 92.7946
L138.2541 92.8898
" />
<path d="M138.2541 92.8898
L138.2541 92.9851
" />
<path d="M138.2541 92.9851
L138.3017 93.0803
" />
<path d="M138.3017 93.0803
L138.3493 93.1279
" />
<path d="M138.3493 93.1279
L138.4446 93.1755
" />
<path d="M138.4446 93.1755
L138.6351 93.2232
" />
<path d="M138.6351 93.2232
L138.7303 93.2708
" />
<path d="M138.7303 93.2708
L138.7779 93.3184
" />
<path d="M138.7779 93.3184
L138.8255 93.4136
" />
<path d="M138.8255 93.4136
L138.8255 93.5089
" />
<path d="M138.8255 93.5089
L138.7779 93.6041
" />
<path d="M138.7779 93.6041
L138.7303 93.6517
" />
<path d="M138.7303 93.6517
L138.6351 93.6993
" />
<path d="M138.6351 93.6993
L138.3970 93.6993
" />
<path d="M138.3970 93.6993
L138.2541 93.6517
" />
<path d="M138.5398 93.8422
L138.5398 92.5565
" />
<path d="M137.5398 92.3184
L137.5874 92.3184
" />
<path d="M137.5874 92.3184
L137.6827 92.3660
" />
<path d="M137.6827 92.3660
L137.7303 92.4613
" />
<path d="M137.7303 92.4613
L137.7303 92.9374
" />
<path d="M137.7303 92.9374
L137.7779 93.0327
" />
<path d="M137.7779 93.0327
L137.8732 93.0803
" />
<path d="M137.8732 93.0803
L137.7779 93.1279
" />
<path d="M137.7779 93.1279
L137.7303 93.2232
" />
<path d="M137.7303 93.2232
L137.7303 93.6993
" />
<path d="M137.7303 93.6993
L137.6827 93.7946
" />
<path d="M137.6827 93.7946
L137.5874 93.8422
" />
<path d="M137.5874 93.8422
L137.5398 93.8422
" />
<path d="M136.5874 92.6993
L136.9208 93.1755
" />
<path d="M137.1589 92.6993
L137.1589 93.6993
" />
<path d="M137.1589 93.6993
L136.7779 93.6993
" />
<path d="M136.7779 93.6993
L136.6827 93.6517
" />
<path d="M136.6827 93.6517
L136.6351 93.6041
" />
<path d="M136.6351 93.6041
L136.5874 93.5089
" />
<path d="M136.5874 93.5089
L136.5874 93.3660
" />
<path d="M136.5874 93.3660
L136.6351 93.2708
" />
<path d="M136.6351 93.2708
L136.6827 93.2232
" />
<path d="M136.6827 93.2232
L136.7779 93.1755
" />
<path d="M136.7779 93.1755
L137.1589 93.1755
" />
<path d="M136.1589 93.2232
L135.8255 93.2232
" />
<path d="M135.6827 92.6993
L136.1589 92.6993
" />
<path d="M136.1589 92.6993
L136.1589 93.6993
" />
<path d="M136.1589 93.6993
L135.6827 93.6993
" />
<path d="M134.9208 93.2232
L135.2541 93.2232
" />
<path d="M135.2541 92.6993
L135.2541 93.6993
" />
<path d="M135.2541 93.6993
L134.7779 93.6993
" />
<path d="M134.4922 92.3184
L134.4446 92.3184
" />
<path d="M134.4446 92.3184
L134.3493 92.3660
" />
<path d="M134.3493 92.3660
L134.3017 92.4613
" />
<path d="M134.3017 92.4613
L134.3017 92.9374
" />
<path d="M134.3017 92.9374
L134.2541 93.0327
" />
<path d="M134.2541 93.0327
L134.1589 93.0803
" />
<path d="M134.1589 93.0803
L134.2541 93.1279
" />
<path d="M134.2541 93.1279
L134.3017 93.2232
" />
<path d="M134.3017 93.2232
L134.3017 93.6993
" />
<path d="M134.3017 93.6993
L134.3493 93.7946
" />
<path d="M134.3493 93.7946
L134.4446 93.8422
" />
<path d="M134.4446 93.8422
L134.4922 93.8422
" />
</g><text x="171.9922" y="61.4458"
transform="scale(-1 1) translate(-343.984400 0)"
textLength="4.0798" font-size="1.3333" lengthAdjust="spacingAndGlyphs"
text-anchor="middle" opacity="0">20KB</text>
<g class="stroked-text"><desc>20KB</desc>
<path d="M170.2303 60.4959
L170.2779 60.4483
" />
<path d="M170.2779 60.4483
L170.3732 60.4007
" />
<path d="M170.3732 60.4007
L170.6112 60.4007
" />
<path d="M170.6112 60.4007
L170.7065 60.4483
" />
<path d="M170.7065 60.4483
L170.7541 60.4959
" />
<path d="M170.7541 60.4959
L170.8017 60.5911
" />
<path d="M170.8017 60.5911
L170.8017 60.6864
" />
<path d="M170.8017 60.6864
L170.7541 60.8292
" />
<path d="M170.7541 60.8292
L170.1827 61.4007
" />
<path d="M170.1827 61.4007
L170.8017 61.4007
" />
<path d="M171.4208 60.4007
L171.5160 60.4007
" />
<path d="M171.5160 60.4007
L171.6112 60.4483
" />
<path d="M171.6112 60.4483
L171.6589 60.4959
" />
<path d="M171.6589 60.4959
L171.7065 60.5911
" />
<path d="M171.7065 60.5911
L171.7541 60.7816
" />
<path d="M171.7541 60.7816
L171.7541 61.0197
" />
<path d="M171.7541 61.0197
L171.7065 61.2102
" />
<path d="M171.7065 61.2102
L171.6589 61.3054
" />
<path d="M171.6589 61.3054
L171.6112 61.3530
" />
<path d="M171.6112 61.3530
L171.5160 61.4007
" />
<path d="M171.5160 61.4007
L171.4208 61.4007
" />
<path d="M171.4208 61.4007
L171.3255 61.3530
" />
<path d="M171.3255 61.3530
L171.2779 61.3054
" />
<path d="M171.2779 61.3054
L171.2303 61.2102
" />
<path d="M171.2303 61.2102
L171.1827 61.0197
" />
<path d="M171.1827 61.0197
L171.1827 60.7816
" />
<path d="M171.1827 60.7816
L171.2303 60.5911
" />
<path d="M171.2303 60.5911
L171.2779 60.4959
" />
<path d="M171.2779 60.4959
L171.3255 60.4483
" />
<path d="M171.3255 60.4483
L171.4208 60.4007
" />
<path d="M172.1827 61.4007
L172.1827 60.4007
" />
<path d="M172.7541 61.4007
L172.3255 60.8292
" />
<path d="M172.7541 60.4007
L172.1827 60.9721
" />
<path d="M173.5160 60.8768
L173.6589 60.9245
" />
<path d="M173.6589 60.9245
L173.7065 60.9721
" />
<path d="M173.7065 60.9721
L173.7541 61.0673
" />
<path d="M173.7541 61.0673
L173.7541 61.2102
" />
<path d="M173.7541 61.2102
L173.7065 61.3054
" />
<path d="M173.7065 61.3054
L173.6589 61.3530
" />
<path d="M173.6589 61.3530
L173.5636 61.4007
" />
<path d="M173.5636 61.4007
L173.1827 61.4007
" />
<path d="M173.1827 61.4007
L173.1827 60.4007
" />
<path d="M173.1827 60.4007
L173.5160 60.4007
" />
<path d="M173.5160 60.4007
L173.6112 60.4483
" />
<path d="M173.6112 60.4483
L173.6589 60.4959
" />
<path d="M173.6589 60.4959
L173.7065 60.5911
" />
<path d="M173.7065 60.5911
L173.7065 60.6864
" />
<path d="M173.7065 60.6864
L173.6589 60.7816
" />
<path d="M173.6589 60.7816
L173.6112 60.8292
" />
<path d="M173.6112 60.8292
L173.5160 60.8768
" />
<path d="M173.5160 60.8768
L173.1827 60.8768
" />
</g><text x="179.6122" y="62.9858"
transform="scale(-1 1) translate(-359.224400 0)"
textLength="4.8893" font-size="1.3333" lengthAdjust="spacingAndGlyphs"
text-anchor="middle" opacity="0">TONE1</text>
<g class="stroked-text"><desc>TONE1</desc>
<path d="M177.3503 61.9407
L177.9217 61.9407
" />
<path d="M177.6360 62.9407
L177.6360 61.9407
" />
<path d="M178.4455 61.9407
L178.6360 61.9407
" />
<path d="M178.6360 61.9407
L178.7312 61.9883
" />
<path d="M178.7312 61.9883
L178.8265 62.0835
" />
<path d="M178.8265 62.0835
L178.8741 62.2740
" />
<path d="M178.8741 62.2740
L178.8741 62.6073
" />
<path d="M178.8741 62.6073
L178.8265 62.7978
" />
<path d="M178.8265 62.7978
L178.7312 62.8930
" />
<path d="M178.7312 62.8930
L178.6360 62.9407
" />
<path d="M178.6360 62.9407
L178.4455 62.9407
" />
<path d="M178.4455 62.9407
L178.3503 62.8930
" />
<path d="M178.3503 62.8930
L178.2551 62.7978
" />
<path d="M178.2551 62.7978
L178.2074 62.6073
" />
<path d="M178.2074 62.6073
L178.2074 62.2740
" />
<path d="M178.2074 62.2740
L178.2551 62.0835
" />
<path d="M178.2551 62.0835
L178.3503 61.9883
" />
<path d="M178.3503 61.9883
L178.4455 61.9407
" />
<path d="M179.3027 62.9407
L179.3027 61.9407
" />
<path d="M179.3027 61.9407
L179.8741 62.9407
" />
<path d="M179.8741 62.9407
L179.8741 61.9407
" />
<path d="M180.3503 62.4168
L180.6836 62.4168
" />
<path d="M180.8265 62.9407
L180.3503 62.9407
" />
<path d="M180.3503 62.9407
L180.3503 61.9407
" />
<path d="M180.3503 61.9407
L180.8265 61.9407
" />
<path d="M181.7789 62.9407
L181.2074 62.9407
" />
<path d="M181.4932 62.9407
L181.4932 61.9407
" />
<path d="M181.4932 61.9407
L181.3979 62.0835
" />
<path d="M181.3979 62.0835
L181.3027 62.1787
" />
<path d="M181.3027 62.1787
L181.2074 62.2264
" />
</g><text x="171.9922" y="62.9458"
transform="scale(-1 1) translate(-343.984400 0)"
textLength="5.2226" font-size="1.3333" lengthAdjust="spacingAndGlyphs"
text-anchor="middle" opacity="0">${REF}</text>
<g class="stroked-text"><desc>${REF}</desc>
<path d="M169.6589 62.8530
L169.8017 62.9007
" />
<path d="M169.8017 62.9007
L170.0398 62.9007
" />
<path d="M170.0398 62.9007
L170.1351 62.8530
" />
<path d="M170.1351 62.8530
L170.1827 62.8054
" />
<path d="M170.1827 62.8054
L170.2303 62.7102
" />
<path d="M170.2303 62.7102
L170.2303 62.6149
" />
<path d="M170.2303 62.6149
L170.1827 62.5197
" />
<path d="M170.1827 62.5197
L170.1351 62.4721
" />
<path d="M170.1351 62.4721
L170.0398 62.4245
" />
<path d="M170.0398 62.4245
L169.8493 62.3768
" />
<path d="M169.8493 62.3768
L169.7541 62.3292
" />
<path d="M169.7541 62.3292
L169.7065 62.2816
" />
<path d="M169.7065 62.2816
L169.6589 62.1864
" />
<path d="M169.6589 62.1864
L169.6589 62.0911
" />
<path d="M169.6589 62.0911
L169.7065 61.9959
" />
<path d="M169.7065 61.9959
L169.7541 61.9483
" />
<path d="M169.7541 61.9483
L169.8493 61.9007
" />
<path d="M169.8493 61.9007
L170.0874 61.9007
" />
<path d="M170.0874 61.9007
L170.2303 61.9483
" />
<path d="M169.9446 61.7578
L169.9446 63.0435
" />
<path d="M170.9446 63.2816
L170.8970 63.2816
" />
<path d="M170.8970 63.2816
L170.8017 63.2340
" />
<path d="M170.8017 63.2340
L170.7541 63.1387
" />
<path d="M170.7541 63.1387
L170.7541 62.6626
" />
<path d="M170.7541 62.6626
L170.7065 62.5673
" />
<path d="M170.7065 62.5673
L170.6112 62.5197
" />
<path d="M170.6112 62.5197
L170.7065 62.4721
" />
<path d="M170.7065 62.4721
L170.7541 62.3768
" />
<path d="M170.7541 62.3768
L170.7541 61.9007
" />
<path d="M170.7541 61.9007
L170.8017 61.8054
" />
<path d="M170.8017 61.8054
L170.8970 61.7578
" />
<path d="M170.8970 61.7578
L170.9446 61.7578
" />
<path d="M171.8970 62.9007
L171.5636 62.4245
" />
<path d="M171.3255 62.9007
L171.3255 61.9007
" />
<path d="M171.3255 61.9007
L171.7065 61.9007
" />
<path d="M171.7065 61.9007
L171.8017 61.9483
" />
<path d="M171.8017 61.9483
L171.8493 61.9959
" />
<path d="M171.8493 61.9959
L171.8970 62.0911
" />
<path d="M171.8970 62.0911
L171.8970 62.2340
" />
<path d="M171.8970 62.2340
L171.8493 62.3292
" />
<path d="M171.8493 62.3292
L171.8017 62.3768
" />
<path d="M171.8017 62.3768
L171.7065 62.4245
" />
<path d="M171.7065 62.4245
L171.3255 62.4245
" />
<path d="M172.3255 62.3768
L172.6589 62.3768
" />
<path d="M172.8017 62.9007
L172.3255 62.9007
" />
<path d="M172.3255 62.9007
L172.3255 61.9007
" />
<path d="M172.3255 61.9007
L172.8017 61.9007
" />
<path d="M173.5636 62.3768
L173.2303 62.3768
" />
<path d="M173.2303 62.9007
L173.2303 61.9007
" />
<path d="M173.2303 61.9007
L173.7065 61.9007
" />
<path d="M173.9922 63.2816
L174.0398 63.2816
" />
<path d="M174.0398 63.2816
L174.1351 63.2340
" />
<path d="M174.1351 63.2340
L174.1827 63.1387
" />
<path d="M174.1827 63.1387
L174.1827 62.6626
" />
<path d="M174.1827 62.6626
L174.2303 62.5673
" />
<path d="M174.2303 62.5673
L174.3255 62.5197
" />
<path d="M174.3255 62.5197
L174.2303 62.4721
" />
<path d="M174.2303 62.4721
L174.1827 62.3768
" />
<path d="M174.1827 62.3768
L174.1827 61.9007
" />
<path d="M174.1827 61.9007
L174.1351 61.8054
" />
<path d="M174.1351 61.8054
L174.0398 61.7578
" />
<path d="M174.0398 61.7578
L173.9922 61.7578
" />
</g><text x="136.4922" y="61.5500"
transform="scale(-1 1) translate(-272.984400 0)"
textLength="4.8893" font-size="1.3333" lengthAdjust="spacingAndGlyphs"
text-anchor="middle" opacity="0">500KA</text>
<g class="stroked-text"><desc>500KA</desc>
<path d="M134.8493 60.5048
L134.3732 60.5048
" />
<path d="M134.3732 60.5048
L134.3255 60.9810
" />
<path d="M134.3255 60.9810
L134.3732 60.9334
" />
<path d="M134.3732 60.9334
L134.4684 60.8858
" />
<path d="M134.4684 60.8858
L134.7065 60.8858
" />
<path d="M134.7065 60.8858
L134.8017 60.9334
" />
<path d="M134.8017 60.9334
L134.8493 60.9810
" />
<path d="M134.8493 60.9810
L134.8970 61.0762
" />
<path d="M134.8970 61.0762
L134.8970 61.3143
" />
<path d="M134.8970 61.3143
L134.8493 61.4096
" />
<path d="M134.8493 61.4096
L134.8017 61.4572
" />
<path d="M134.8017 61.4572
L134.7065 61.5048
" />
<path d="M134.7065 61.5048
L134.4684 61.5048
" />
<path d="M134.4684 61.5048
L134.3732 61.4572
" />
<path d="M134.3732 61.4572
L134.3255 61.4096
" />
<path d="M135.5160 60.5048
L135.6112 60.5048
" />
<path d="M135.6112 60.5048
L135.7065 60.5524
" />
<path d="M135.7065 60.5524
L135.7541 60.6001
" />
<path d="M135.7541 60.6001
L135.8017 60.6953
" />
<path d="M135.8017 60.6953
L135.8493 60.8858
" />
<path d="M135.8493 60.8858
L135.8493 61.1239
" />
<path d="M135.8493 61.1239
L135.8017 61.3143
" />
<path d="M135.8017 61.3143
L135.7541 61.4096
" />
<path d="M135.7541 61.4096
L135.7065 61.4572
" />
<path d="M135.7065 61.4572
L135.6112 61.5048
" />
<path d="M135.6112 61.5048
L135.5160 61.5048
" />
<path d="M135.5160 61.5048
L135.4208 61.4572
" />
<path d="M135.4208 61.4572
L135.3732 61.4096
" />
<path d="M135.3732 61.4096
L135.3255 61.3143
" />
<path d="M135.3255 61.3143
L135.2779 61.1239
" />
<path d="M135.2779 61.1239
L135.2779 60.8858
" />
<path d="M135.2779 60.8858
L135.3255 60.6953
" />
<path d="M135.3255 60.6953
L135.3732 60.6001
" />
<path d="M135.3732 60.6001
L135.4208 60.5524
" />
<path d="M135.4208 60.5524
L135.5160 60.5048
" />
<path d="M136.4684 60.5048
L136.5636 60.5048
" />
<path d="M136.5636 60.5048
L136.6589 60.5524
" />
<path d="M136.6589 60.5524
L136.7065 60.6001
" />
<path d="M136.7065 60.6001
L136.7541 60.6953
" />
<path d="M136.7541 60.6953
L136.8017 60.8858
" />
<path d="M136.8017 60.8858
L136.8017 61.1239
" />
<path d="M136.8017 61.1239
L136.7541 61.3143
" />
<path d="M136.7541 61.3143
L136.7065 61.4096
" />
<path d="M136.7065 61.4096
L136.6589 61.4572
" />
<path d="M136.6589 61.4572
L136.5636 61.5048
" />
<path d="M136.5636 61.5048
L136.4684 61.5048
" />
<path d="M136.4684 61.5048
L136.3732 61.4572
" />
<path d="M136.3732 61.4572
L136.3255 61.4096
" />
<path d="M136.3255 61.4096
L136.2779 61.3143
" />
<path d="M136.2779 61.3143
L136.2303 61.1239
" />
<path d="M136.2303 61.1239
L136.2303 60.8858
" />
<path d="M136.2303 60.8858
L136.2779 60.6953
" />
<path d="M136.2779 60.6953
L136.3255 60.6001
" />
<path d="M136.3255 60.6001
L136.3732 60.5524
" />
<path d="M136.3732 60.5524
L136.4684 60.5048
" />
<path d="M137.2303 61.5048
L137.2303 60.5048
" />
<path d="M137.8017 61.5048
L137.3732 60.9334
" />
<path d="M137.8017 60.5048
L137.2303 61.0762
" />
<path d="M138.1827 61.2191
L138.6589 61.2191
" />
<path d="M138.0874 61.5048
L138.4208 60.5048
" />
<path d="M138.4208 60.5048
L138.7541 61.5048
" />
</g><text x="136.4922" y="63.0500"
transform="scale(-1 1) translate(-272.984400 0)"
textLength="5.2226" font-size="1.3333" lengthAdjust="spacingAndGlyphs"
text-anchor="middle" opacity="0">${REF}</text>
<g class="stroked-text"><desc>${REF}</desc>
<path d="M134.1589 62.9572
L134.3017 63.0048
" />
<path d="M134.3017 63.0048
L134.5398 63.0048
" />
<path d="M134.5398 63.0048
L134.6351 62.9572
" />
<path d="M134.6351 62.9572
L134.6827 62.9096
" />
<path d="M134.6827 62.9096
L134.7303 62.8143
" />
<path d="M134.7303 62.8143
L134.7303 62.7191
" />
<path d="M134.7303 62.7191
L134.6827 62.6239
" />
<path d="M134.6827 62.6239
L134.6351 62.5762
" />
<path d="M134.6351 62.5762
L134.5398 62.5286
" />
<path d="M134.5398 62.5286
L134.3493 62.4810
" />
<path d="M134.3493 62.4810
L134.2541 62.4334
" />
<path d="M134.2541 62.4334
L134.2065 62.3858
" />
<path d="M134.2065 62.3858
L134.1589 62.2905
" />
<path d="M134.1589 62.2905
L134.1589 62.1953
" />
<path d="M134.1589 62.1953
L134.2065 62.1001
" />
<path d="M134.2065 62.1001
L134.2541 62.0524
" />
<path d="M134.2541 62.0524
L134.3493 62.0048
" />
<path d="M134.3493 62.0048
L134.5874 62.0048
" />
<path d="M134.5874 62.0048
L134.7303 62.0524
" />
<path d="M134.4446 61.8620
L134.4446 63.1477
" />
<path d="M135.4446 63.3858
L135.3970 63.3858
" />
<path d="M135.3970 63.3858
L135.3017 63.3382
" />
<path d="M135.3017 63.3382
L135.2541 63.2429
" />
<path d="M135.2541 63.2429
L135.2541 62.7667
" />
<path d="M135.2541 62.7667
L135.2065 62.6715
" />
<path d="M135.2065 62.6715
L135.1112 62.6239
" />
<path d="M135.1112 62.6239
L135.2065 62.5762
" />
<path d="M135.2065 62.5762
L135.2541 62.4810
" />
<path d="M135.2541 62.4810
L135.2541 62.0048
" />
<path d="M135.2541 62.0048
L135.3017 61.9096
" />
<path d="M135.3017 61.9096
L135.3970 61.8620
" />
<path d="M135.3970 61.8620
L135.4446 61.8620
" />
<path d="M136.3970 63.0048
L136.0636 62.5286
" />
<path d="M135.8255 63.0048
L135.8255 62.0048
" />
<path d="M135.8255 62.0048
L136.2065 62.0048
" />
<path d="M136.2065 62.0048
L136.3017 62.0524
" />
<path d="M136.3017 62.0524
L136.3493 62.1001
" />
<path d="M136.3493 62.1001
L136.3970 62.1953
" />
<path d="M136.3970 62.1953
L136.3970 62.3382
" />
<path d="M136.3970 62.3382
L136.3493 62.4334
" />
<path d="M136.3493 62.4334
L136.3017 62.4810
" />
<path d="M136.3017 62.4810
L136.2065 62.5286
" />
<path d="M136.2065 62.5286
L135.8255 62.5286
" />
<path d="M136.8255 62.4810
L137.1589 62.4810
" />
<path d="M137.3017 63.0048
L136.8255 63.0048
" />
<path d="M136.8255 63.0048
L136.8255 62.0048
" />
<path d="M136.8255 62.0048
L137.3017 62.0048
" />
<path d="M138.0636 62.4810
L137.7303 62.4810
" />
<path d="M137.7303 63.0048
L137.7303 62.0048
" />
<path d="M137.7303 62.0048
L138.2065 62.0048
" />
<path d="M138.4922 63.3858
L138.5398 63.3858
" />
<path d="M138.5398 63.3858
L138.6351 63.3382
" />
<path d="M138.6351 63.3382
L138.6827 63.2429
" />
<path d="M138.6827 63.2429
L138.6827 62.7667
" />
<path d="M138.6827 62.7667
L138.7303 62.6715
" />
<path d="M138.7303 62.6715
L138.8255 62.6239
" />
<path d="M138.8255 62.6239
L138.7303 62.5762
" />
<path d="M138.7303 62.5762
L138.6827 62.4810
" />
<path d="M138.6827 62.4810
L138.6827 62.0048
" />
<path d="M138.6827 62.0048
L138.6351 61.9096
" />
<path d="M138.6351 61.9096
L138.5398 61.8620
" />
<path d="M138.5398 61.8620
L138.4922 61.8620
" />
</g><text x="144.1122" y="63.0900"
transform="scale(-1 1) translate(-288.224400 0)"
textLength="5.3655" font-size="1.3333" lengthAdjust="spacingAndGlyphs"
text-anchor="middle" opacity="0">DRIVE1</text>
<g class="stroked-text"><desc>DRIVE1</desc>
<path d="M141.7551 63.0448
L141.7551 62.0448
" />
<path d="M141.7551 62.0448
L141.9932 62.0448
" />
<path d="M141.9932 62.0448
L142.1360 62.0924
" />
<path d="M142.1360 62.0924
L142.2312 62.1877
" />
<path d="M142.2312 62.1877
L142.2789 62.2829
" />
<path d="M142.2789 62.2829
L142.3265 62.4734
" />
<path d="M142.3265 62.4734
L142.3265 62.6162
" />
<path d="M142.3265 62.6162
L142.2789 62.8067
" />
<path d="M142.2789 62.8067
L142.2312 62.9020
" />
<path d="M142.2312 62.9020
L142.1360 62.9972
" />
<path d="M142.1360 62.9972
L141.9932 63.0448
" />
<path d="M141.9932 63.0448
L141.7551 63.0448
" />
<path d="M143.3265 63.0448
L142.9932 62.5686
" />
<path d="M142.7551 63.0448
L142.7551 62.0448
" />
<path d="M142.7551 62.0448
L143.1360 62.0448
" />
<path d="M143.1360 62.0448
L143.2312 62.0924
" />
<path d="M143.2312 62.0924
L143.2789 62.1401
" />
<path d="M143.2789 62.1401
L143.3265 62.2353
" />
<path d="M143.3265 62.2353
L143.3265 62.3782
" />
<path d="M143.3265 62.3782
L143.2789 62.4734
" />
<path d="M143.2789 62.4734
L143.2312 62.5210
" />
<path d="M143.2312 62.5210
L143.1360 62.5686
" />
<path d="M143.1360 62.5686
L142.7551 62.5686
" />
<path d="M143.7551 63.0448
L143.7551 62.0448
" />
<path d="M144.0884 62.0448
L144.4217 63.0448
" />
<path d="M144.4217 63.0448
L144.7551 62.0448
" />
<path d="M145.0884 62.5210
L145.4217 62.5210
" />
<path d="M145.5646 63.0448
L145.0884 63.0448
" />
<path d="M145.0884 63.0448
L145.0884 62.0448
" />
<path d="M145.0884 62.0448
L145.5646 62.0448
" />
<path d="M146.5170 63.0448
L145.9455 63.0448
" />
<path d="M146.2312 63.0448
L146.2312 62.0448
" />
<path d="M146.2312 62.0448
L146.1360 62.1877
" />
<path d="M146.1360 62.1877
L146.0408 62.2829
" />
<path d="M146.0408 62.2829
L145.9455 62.3305
" />
</g><g transform="rotate(-180.000000 171.9922 94.9042)">
<text x="171.9922" y="95.4042"
transform="scale(-1 1) translate(-343.984400 0)"
textLength="5.0321" font-size="1.3333" lengthAdjust="spacingAndGlyphs"
text-anchor="middle" opacity="0">100KB</text>
</g>
<g class="stroked-text"><desc>100KB</desc>
<path d="M173.6589 94.4493
L174.2303 94.4493
" />
<path d="M173.9446 94.4493
L173.9446 95.4493
" />
<path d="M173.9446 95.4493
L174.0398 95.3065
" />
<path d="M174.0398 95.3065
L174.1351 95.2113
" />
<path d="M174.1351 95.2113
L174.2303 95.1636
" />
<path d="M173.0398 95.4493
L172.9446 95.4493
" />
<path d="M172.9446 95.4493
L172.8493 95.4017
" />
<path d="M172.8493 95.4017
L172.8017 95.3541
" />
<path d="M172.8017 95.3541
L172.7541 95.2589
" />
<path d="M172.7541 95.2589
L172.7065 95.0684
" />
<path d="M172.7065 95.0684
L172.7065 94.8303
" />
<path d="M172.7065 94.8303
L172.7541 94.6398
" />
<path d="M172.7541 94.6398
L172.8017 94.5446
" />
<path d="M172.8017 94.5446
L172.8493 94.4970
" />
<path d="M172.8493 94.4970
L172.9446 94.4493
" />
<path d="M172.9446 94.4493
L173.0398 94.4493
" />
<path d="M173.0398 94.4493
L173.1351 94.4970
" />
<path d="M173.1351 94.4970
L173.1827 94.5446
" />
<path d="M173.1827 94.5446
L173.2303 94.6398
" />
<path d="M173.2303 94.6398
L173.2779 94.8303
" />
<path d="M173.2779 94.8303
L173.2779 95.0684
" />
<path d="M173.2779 95.0684
L173.2303 95.2589
" />
<path d="M173.2303 95.2589
L173.1827 95.3541
" />
<path d="M173.1827 95.3541
L173.1351 95.4017
" />
<path d="M173.1351 95.4017
L173.0398 95.4493
" />
<path d="M172.0874 95.4493
L171.9922 95.4493
" />
<path d="M171.9922 95.4493
L171.8970 95.4017
" />
<path d="M171.8970 95.4017
L171.8493 95.3541
" />
<path d="M171.8493 95.3541
L171.8017 95.2589
" />
<path d="M171.8017 95.2589
L171.7541 95.0684
" />
<path d="M171.7541 95.0684
L171.7541 94.8303
" />
<path d="M171.7541 94.8303
L171.8017 94.6398
" />
<path d="M171.8017 94.6398
L171.8493 94.5446
" />
<path d="M171.8493 94.5446
L171.8970 94.4970
" />
<path d="M171.8970 94.4970
L171.9922 94.4493
" />
<path d="M171.9922 94.4493
L172.0874 94.4493
" />
<path d="M172.0874 94.4493
L172.1827 94.4970
" />
<path d="M172.1827 94.4970
L172.2303 94.5446
" />
<path d="M172.2303 94.5446
L172.2779 94.6398
" />
<path d="M172.2779 94.6398
L172.3255 94.8303
" />
<path d="M172.3255 94.8303
L172.3255 95.0684
" />
<path d="M172.3255 95.0684
L172.2779 95.2589
" />
<path d="M172.2779 95.2589
L172.2303 95.3541
" />
<path d="M172.2303 95.3541
L172.1827 95.4017
" />
<path d="M172.1827 95.4017
L172.0874 95.4493
" />
<path d="M171.3255 94.4493
L171.3255 95.4493
" />
<path d="M170.7541 94.4493
L171.1827 95.0208
" />
<path d="M170.7541 95.4493
L171.3255 94.8779
" />
<path d="M169.9922 94.9732
L169.8493 94.9255
" />
<path d="M169.8493 94.9255
L169.8017 94.8779
" />
<path d="M169.8017 94.8779
L169.7541 94.7827
" />
<path d="M169.7541 94.7827
L169.7541 94.6398
" />
<path d="M169.7541 94.6398
L169.8017 94.5446
" />
<path d="M169.8017 94.5446
L169.8493 94.4970
" />
<path d="M169.8493 94.4970
L169.9446 94.4493
" />
<path d="M169.9446 94.4493
L170.3255 94.4493
" />
<path d="M170.3255 94.4493
L170.3255 95.4493
" />
<path d="M170.3255 95.4493
L169.9922 95.4493
" />
<path d="M169.9922 95.4493
L169.8970 95.4017
" />
<path d="M169.8970 95.4017
L169.8493 95.3541
" />
<path d="M169.8493 95.3541
L169.8017 95.2589
" />
<path d="M169.8017 95.2589
L169.8017 95.1636
" />
<path d="M169.8017 95.1636
L169.8493 95.0684
" />
<path d="M169.8493 95.0684
L169.8970 95.0208
" />
<path d="M169.8970 95.0208
L169.9922 94.9732
" />
<path d="M169.9922 94.9732
L170.3255 94.9732
" />
</g><text x="164.3722" y="93.8642"
transform="scale(-1 1) translate(-328.744400 0)"
textLength="3.8417" font-size="1.3333" lengthAdjust="spacingAndGlyphs"
text-anchor="middle" opacity="0">VOL1</text>
<g class="stroked-text"><desc>VOL1</desc>
<path d="M162.6341 92.8190
L162.9674 93.8190
" />
<path d="M162.9674 93.8190
L163.3008 92.8190
" />
<path d="M163.8246 92.8190
L164.0151 92.8190
" />
<path d="M164.0151 92.8190
L164.1103 92.8666
" />
<path d="M164.1103 92.8666
L164.2055 92.9618
" />
<path d="M164.2055 92.9618
L164.2532 93.1523
" />
<path d="M164.2532 93.1523
L164.2532 93.4857
" />
<path d="M164.2532 93.4857
L164.2055 93.6761
" />
<path d="M164.2055 93.6761
L164.1103 93.7714
" />
<path d="M164.1103 93.7714
L164.0151 93.8190
" />
<path d="M164.0151 93.8190
L163.8246 93.8190
" />
<path d="M163.8246 93.8190
L163.7293 93.7714
" />
<path d="M163.7293 93.7714
L163.6341 93.6761
" />
<path d="M163.6341 93.6761
L163.5865 93.4857
" />
<path d="M163.5865 93.4857
L163.5865 93.1523
" />
<path d="M163.5865 93.1523
L163.6341 92.9618
" />
<path d="M163.6341 92.9618
L163.7293 92.8666
" />
<path d="M163.7293 92.8666
L163.8246 92.8190
" />
<path d="M165.1579 93.8190
L164.6817 93.8190
" />
<path d="M164.6817 93.8190
L164.6817 92.8190
" />
<path d="M166.0151 93.8190
L165.4436 93.8190
" />
<path d="M165.7293 93.8190
L165.7293 92.8190
" />
<path d="M165.7293 92.8190
L165.6341 92.9618
" />
<path d="M165.6341 92.9618
L165.5389 93.0571
" />
<path d="M165.5389 93.0571
L165.4436 93.1047
" />
</g><g transform="rotate(-180.000000 171.9922 93.4042)">
<text x="171.9922" y="93.9042"
transform="scale(-1 1) translate(-343.984400 0)"
textLength="5.2226" font-size="1.3333" lengthAdjust="spacingAndGlyphs"
text-anchor="middle" opacity="0">${REF}</text>
</g>
<g class="stroked-text"><desc>${REF}</desc>
<path d="M174.3255 92.9970
L174.1827 92.9493
" />
<path d="M174.1827 92.9493
L173.9446 92.9493
" />
<path d="M173.9446 92.9493
L173.8493 92.9970
" />
<path d="M173.8493 92.9970
L173.8017 93.0446
" />
<path d="M173.8017 93.0446
L173.7541 93.1398
" />
<path d="M173.7541 93.1398
L173.7541 93.2351
" />
<path d="M173.7541 93.2351
L173.8017 93.3303
" />
<path d="M173.8017 93.3303
L173.8493 93.3779
" />
<path d="M173.8493 93.3779
L173.9446 93.4255
" />
<path d="M173.9446 93.4255
L174.1351 93.4732
" />
<path d="M174.1351 93.4732
L174.2303 93.5208
" />
<path d="M174.2303 93.5208
L174.2779 93.5684
" />
<path d="M174.2779 93.5684
L174.3255 93.6636
" />
<path d="M174.3255 93.6636
L174.3255 93.7589
" />
<path d="M174.3255 93.7589
L174.2779 93.8541
" />
<path d="M174.2779 93.8541
L174.2303 93.9017
" />
<path d="M174.2303 93.9017
L174.1351 93.9493
" />
<path d="M174.1351 93.9493
L173.8970 93.9493
" />
<path d="M173.8970 93.9493
L173.7541 93.9017
" />
<path d="M174.0398 94.0922
L174.0398 92.8065
" />
<path d="M173.0398 92.5684
L173.0874 92.5684
" />
<path d="M173.0874 92.5684
L173.1827 92.6160
" />
<path d="M173.1827 92.6160
L173.2303 92.7113
" />
<path d="M173.2303 92.7113
L173.2303 93.1874
" />
<path d="M173.2303 93.1874
L173.2779 93.2827
" />
<path d="M173.2779 93.2827
L173.3732 93.3303
" />
<path d="M173.3732 93.3303
L173.2779 93.3779
" />
<path d="M173.2779 93.3779
L173.2303 93.4732
" />
<path d="M173.2303 93.4732
L173.2303 93.9493
" />
<path d="M173.2303 93.9493
L173.1827 94.0446
" />
<path d="M173.1827 94.0446
L173.0874 94.0922
" />
<path d="M173.0874 94.0922
L173.0398 94.0922
" />
<path d="M172.0874 92.9493
L172.4208 93.4255
" />
<path d="M172.6589 92.9493
L172.6589 93.9493
" />
<path d="M172.6589 93.9493
L172.2779 93.9493
" />
<path d="M172.2779 93.9493
L172.1827 93.9017
" />
<path d="M172.1827 93.9017
L172.1351 93.8541
" />
<path d="M172.1351 93.8541
L172.0874 93.7589
" />
<path d="M172.0874 93.7589
L172.0874 93.6160
" />
<path d="M172.0874 93.6160
L172.1351 93.5208
" />
<path d="M172.1351 93.5208
L172.1827 93.4732
" />
<path d="M172.1827 93.4732
L172.2779 93.4255
" />
<path d="M172.2779 93.4255
L172.6589 93.4255
" />
<path d="M171.6589 93.4732
L171.3255 93.4732
" />
<path d="M171.1827 92.9493
L171.6589 92.9493
" />
<path d="M171.6589 92.9493
L171.6589 93.9493
" />
<path d="M171.6589 93.9493
L171.1827 93.9493
" />
<path d="M170.4208 93.4732
L170.7541 93.4732
" />
<path d="M170.7541 92.9493
L170.7541 93.9493
" />
<path d="M170.7541 93.9493
L170.2779 93.9493
" />
<path d="M169.9922 92.5684
L169.9446 92.5684
" />
<path d="M169.9446 92.5684
L169.8493 92.6160
" />
<path d="M169.8493 92.6160
L169.8017 92.7113
" />
<path d="M169.8017 92.7113
L169.8017 93.1874
" />
<path d="M169.8017 93.1874
L169.7541 93.2827
" />
<path d="M169.7541 93.2827
L169.6589 93.3303
" />
<path d="M169.6589 93.3303
L169.7541 93.3779
" />
<path d="M169.7541 93.3779
L169.8017 93.4732
" />
<path d="M169.8017 93.4732
L169.8017 93.9493
" />
<path d="M169.8017 93.9493
L169.8493 94.0446
" />
<path d="M169.8493 94.0446
L169.9446 94.0922
" />
<path d="M169.9446 94.0922
L169.9922 94.0922
" />
</g><g >
</g>
<g >
</g>
<g >
</g>
<g >
</g>
<g >
</g>
<g >
</g>
<g >
</g>
<g >
</g>
<g >
</g>
<g >
</g>
<g >
</g>
<g >
</g>
<g >
</g>
<g >
</g>
<g >
</g>
<g >
</g>
<g >
</g>
<g >
</g>
<g >
</g>
<g >
</g>
<g >
</g>
<g >
</g>
<g >
</g>
<g >
</g>
<g >
</g>
<g >
</g>
<g >
</g>
<g >
</g>
<g >
</g>
<g >
</g>
<g >
</g>
<g >
</g>
<g >
</g>
<g >
</g>
<g >
</g>
<g >
</g>
<g >
</g>
<g >
</g>
<g >
</g>
<g >
</g>
<g >
</g>
<g >
</g>
<g >
</g>
<g >
</g>
<g >
</g>
<g >
</g>
<g >
</g>
<g >
</g>
<g >
</g>
<g >
</g>
<g >
</g>
<g >
</g>
<g >
</g>
<g >
</g>
<g >
</g>
<g >
</g>
<g >
</g>
<g >
</g>
<g >
</g>
<g >
</g>
<g >
</g>
<g >
</g>
<g >
</g>
<g >
</g>
<g >
</g>
<g >
</g>
</g> 
</svg>
