  0
SECTION
  2
HEADER
  9
$ANGBASE
  50
0.0
  9
$ANGDIR
  70
1
  9
$MEASUREMENT
  70
0
  0
ENDSEC
  0
SECTION
  2
TABLES
  0
TABLE
  2
LTYPE
  70
4
  0
LTYPE
  5
40F
  2
CONTINUOUS
  70
0
  3
Solid line
  72
65
  73
0
  40
0.0
  0
LTYPE
  5
410
  2
DASHDOT
 70
0
  3
Dash Dot ____ _ ____ _
 72
65
 73
4
 40
2.0
 49
1.25
 49
-0.25
 49
0.25
 49
-0.25
  0
LTYPE
  5
411
  2
DASHED
 70
0
  3
Dashed __ __ __ __ __
 72
65
 73
2
 40
0.75
 49
0.5
 49
-0.25
  0
LTYPE
  5
43B
  2
DOTTED
 70
0
  3
Dotted .  .  .  .
 72
65
 73
2
 40
0.2
 49
0.0
 49
-0.2
  0
ENDTAB
  0
TABLE
  2
STYLE
  70
4
  0
STYLE
  2
KICAD
  70
0
  40
0
  41
1
  42
1
  50
0
  71
0
  3
isocp.shx
  0
STYLE
  2
KICADB
  70
0
  40
0
  41
1
  42
1
  50
0
  71
0
  3
isocp.shx
  0
STYLE
  2
KICADI
  70
0
  40
0
  41
1
  42
1
  50
15
  71
0
  3
isocp.shx
  0
STYLE
  2
KICADBI
  70
0
  40
0
  41
1
  42
1
  50
15
  71
0
  3
isocp.shx
  0
ENDTAB
  0
TABLE
  2
LAYER
  70
1
  0
LAYER
  2
BLACK
  70
0
  62
7
  6
CONTINUOUS
  0
ENDTAB
  0
ENDSEC
  0
SECTION
  2
ENTITIES
0
LINE
8
BLACK
6
CONTINUOUS
10
6.72303
20
-1.76791
11
6.72366
21
-1.76791
0
LINE
8
BLACK
6
CONTINUOUS
10
6.72366
20
-1.76791
11
6.72416
21
-1.76828
0
LINE
8
BLACK
6
CONTINUOUS
10
6.72416
20
-1.76828
11
6.72476
21
-1.76847
0
LINE
8
BLACK
6
CONTINUOUS
10
6.72476
20
-1.76847
11
6.72512
21
-1.76897
0
LINE
8
BLACK
6
CONTINUOUS
10
6.72512
20
-1.76897
11
6.72563
21
-1.76934
0
LINE
8
BLACK
6
CONTINUOUS
10
6.72563
20
-1.76934
11
6.72582
21
-1.76993
0
LINE
8
BLACK
6
CONTINUOUS
10
6.72582
20
-1.76993
11
6.72619
21
-1.77044
0
LINE
8
BLACK
6
CONTINUOUS
10
6.72619
20
-1.77044
11
6.72619
21
-1.77106
0
LINE
8
BLACK
6
CONTINUOUS
10
6.72619
20
-1.77106
11
6.72638
21
-1.77165
0
LINE
8
BLACK
6
CONTINUOUS
10
6.72638
20
-1.77165
11
6.72638
21
-5.98425
0
LINE
8
BLACK
6
CONTINUOUS
10
6.72638
20
-5.98425
11
6.72619
21
-5.98484
0
LINE
8
BLACK
6
CONTINUOUS
10
6.72619
20
-5.98484
11
6.72619
21
-5.98547
0
LINE
8
BLACK
6
CONTINUOUS
10
6.72619
20
-5.98547
11
6.72582
21
-5.98597
0
LINE
8
BLACK
6
CONTINUOUS
10
6.72582
20
-5.98597
11
6.72563
21
-5.98657
0
LINE
8
BLACK
6
CONTINUOUS
10
6.72563
20
-5.98657
11
6.72512
21
-5.98693
0
LINE
8
BLACK
6
CONTINUOUS
10
6.72512
20
-5.98693
11
6.72476
21
-5.98744
0
LINE
8
BLACK
6
CONTINUOUS
10
6.72476
20
-5.98744
11
6.72416
21
-5.98763
0
LINE
8
BLACK
6
CONTINUOUS
10
6.72416
20
-5.98763
11
6.72366
21
-5.988
0
LINE
8
BLACK
6
CONTINUOUS
10
6.72366
20
-5.988
11
6.72303
21
-5.988
0
LINE
8
BLACK
6
CONTINUOUS
10
6.72303
20
-5.988
11
6.72244
21
-5.98819
0
LINE
8
BLACK
6
CONTINUOUS
10
6.72244
20
-5.98819
11
4.51772
21
-5.98819
0
LINE
8
BLACK
6
CONTINUOUS
10
4.51772
20
-5.98819
11
4.51712
21
-5.988
0
LINE
8
BLACK
6
CONTINUOUS
10
4.51712
20
-5.988
11
4.5165
21
-5.988
0
LINE
8
BLACK
6
CONTINUOUS
10
4.5165
20
-5.988
11
4.516
21
-5.98763
0
LINE
8
BLACK
6
CONTINUOUS
10
4.516
20
-5.98763
11
4.5154
21
-5.98744
0
LINE
8
BLACK
6
CONTINUOUS
10
4.5154
20
-5.98744
11
4.51504
21
-5.98693
0
LINE
8
BLACK
6
CONTINUOUS
10
4.51504
20
-5.98693
11
4.51453
21
-5.98657
0
LINE
8
BLACK
6
CONTINUOUS
10
4.51453
20
-5.98657
11
4.51434
21
-5.98597
0
LINE
8
BLACK
6
CONTINUOUS
10
4.51434
20
-5.98597
11
4.51397
21
-5.98547
0
LINE
8
BLACK
6
CONTINUOUS
10
4.51397
20
-5.98547
11
4.51397
21
-5.98484
0
LINE
8
BLACK
6
CONTINUOUS
10
4.51397
20
-5.98484
11
4.51378
21
-5.98425
0
LINE
8
BLACK
6
CONTINUOUS
10
4.51378
20
-5.98425
11
4.51378
21
-1.77165
0
LINE
8
BLACK
6
CONTINUOUS
10
4.51378
20
-1.77165
11
4.51397
21
-1.77106
0
LINE
8
BLACK
6
CONTINUOUS
10
4.51397
20
-1.77106
11
4.51397
21
-1.77044
0
LINE
8
BLACK
6
CONTINUOUS
10
4.51397
20
-1.77044
11
4.51434
21
-1.76993
0
LINE
8
BLACK
6
CONTINUOUS
10
4.51434
20
-1.76993
11
4.51453
21
-1.76934
0
LINE
8
BLACK
6
CONTINUOUS
10
4.51453
20
-1.76934
11
4.51504
21
-1.76897
0
LINE
8
BLACK
6
CONTINUOUS
10
4.51504
20
-1.76897
11
4.5154
21
-1.76847
0
LINE
8
BLACK
6
CONTINUOUS
10
4.5154
20
-1.76847
11
4.516
21
-1.76828
0
LINE
8
BLACK
6
CONTINUOUS
10
4.516
20
-1.76828
11
4.5165
21
-1.76791
0
LINE
8
BLACK
6
CONTINUOUS
10
4.5165
20
-1.76791
11
4.51712
21
-1.76791
0
LINE
8
BLACK
6
CONTINUOUS
10
4.51712
20
-1.76791
11
4.51772
21
-1.76772
0
LINE
8
BLACK
6
CONTINUOUS
10
4.51772
20
-1.76772
11
6.72244
21
-1.76772
0
LINE
8
BLACK
6
CONTINUOUS
10
6.72244
20
-1.76772
11
6.72303
21
-1.76791
0
LINE
8
BLACK
6
CONTINUOUS
10
4.52165
20
-1.77559
11
4.52165
21
-5.98031
0
LINE
8
BLACK
6
CONTINUOUS
10
4.52165
20
-5.98031
11
6.7185
21
-5.98031
0
LINE
8
BLACK
6
CONTINUOUS
10
6.7185
20
-5.98031
11
6.7185
21
-1.77559
0
LINE
8
BLACK
6
CONTINUOUS
10
6.7185
20
-1.77559
11
4.52165
21
-1.77559
  0
ENDSEC
  0
EOF
