  0
SECTION
  2
HEADER
  9
$ANGBASE
  50
0.0
  9
$ANGDIR
  70
1
  9
$MEASUREMENT
  70
0
  0
ENDSEC
  0
SECTION
  2
TABLES
  0
TABLE
  2
LTYPE
  70
4
  0
LTYPE
  5
40F
  2
CONTINUOUS
  70
0
  3
Solid line
  72
65
  73
0
  40
0.0
  0
LTYPE
  5
410
  2
DASHDOT
 70
0
  3
Dash Dot ____ _ ____ _
 72
65
 73
4
 40
2.0
 49
1.25
 49
-0.25
 49
0.25
 49
-0.25
  0
LTYPE
  5
411
  2
DASHED
 70
0
  3
Dashed __ __ __ __ __
 72
65
 73
2
 40
0.75
 49
0.5
 49
-0.25
  0
LTYPE
  5
43B
  2
DOTTED
 70
0
  3
Dotted .  .  .  .
 72
65
 73
2
 40
0.2
 49
0.0
 49
-0.2
  0
ENDTAB
  0
TABLE
  2
STYLE
  70
4
  0
STYLE
  2
KICAD
  70
0
  40
0
  41
1
  42
1
  50
0
  71
0
  3
isocp.shx
  0
STYLE
  2
KICADB
  70
0
  40
0
  41
1
  42
1
  50
0
  71
0
  3
isocp.shx
  0
STYLE
  2
KICADI
  70
0
  40
0
  41
1
  42
1
  50
15
  71
0
  3
isocp.shx
  0
STYLE
  2
KICADBI
  70
0
  40
0
  41
1
  42
1
  50
15
  71
0
  3
isocp.shx
  0
ENDTAB
  0
TABLE
  2
LAYER
  70
1
  0
LAYER
  2
BLACK
  70
0
  62
7
  6
CONTINUOUS
  0
ENDTAB
  0
ENDSEC
  0
SECTION
  2
ENTITIES
0
LINE
8
BLACK
6
CONTINUOUS
10
5.68109
20
-4.23963
11
5.68122
21
-4.23961
0
LINE
8
BLACK
6
CONTINUOUS
10
5.68122
20
-4.23961
11
5.68133
21
-4.23968
0
LINE
8
BLACK
6
CONTINUOUS
10
5.68133
20
-4.23968
11
5.68172
21
-4.23975
0
LINE
8
BLACK
6
CONTINUOUS
10
5.68172
20
-4.23975
11
5.68231
21
-4.24024
0
LINE
8
BLACK
6
CONTINUOUS
10
5.68231
20
-4.24024
11
5.68297
21
-4.24062
0
LINE
8
BLACK
6
CONTINUOUS
10
5.68297
20
-4.24062
11
5.68306
21
-4.24087
0
LINE
8
BLACK
6
CONTINUOUS
10
5.68306
20
-4.24087
11
5.68327
21
-4.24104
0
LINE
8
BLACK
6
CONTINUOUS
10
5.68327
20
-4.24104
11
5.6834
21
-4.2418
0
LINE
8
BLACK
6
CONTINUOUS
10
5.6834
20
-4.2418
11
5.68366
21
-4.24252
0
LINE
8
BLACK
6
CONTINUOUS
10
5.68366
20
-4.24252
11
5.68366
21
-4.31063
0
LINE
8
BLACK
6
CONTINUOUS
10
5.68366
20
-4.31063
11
5.68359
21
-4.31101
0
LINE
8
BLACK
6
CONTINUOUS
10
5.68359
20
-4.31101
11
5.68362
21
-4.31114
0
LINE
8
BLACK
6
CONTINUOUS
10
5.68362
20
-4.31114
11
5.68355
21
-4.31126
0
LINE
8
BLACK
6
CONTINUOUS
10
5.68355
20
-4.31126
11
5.68348
21
-4.31164
0
LINE
8
BLACK
6
CONTINUOUS
10
5.68348
20
-4.31164
11
5.68299
21
-4.31223
0
LINE
8
BLACK
6
CONTINUOUS
10
5.68299
20
-4.31223
11
5.68261
21
-4.31289
0
LINE
8
BLACK
6
CONTINUOUS
10
5.68261
20
-4.31289
11
5.68236
21
-4.31298
0
LINE
8
BLACK
6
CONTINUOUS
10
5.68236
20
-4.31298
11
5.68219
21
-4.31319
0
LINE
8
BLACK
6
CONTINUOUS
10
5.68219
20
-4.31319
11
5.68143
21
-4.31332
0
LINE
8
BLACK
6
CONTINUOUS
10
5.68143
20
-4.31332
11
5.68071
21
-4.31358
0
LINE
8
BLACK
6
CONTINUOUS
10
5.68071
20
-4.31358
11
5.57756
21
-4.31358
0
LINE
8
BLACK
6
CONTINUOUS
10
5.57756
20
-4.31358
11
5.57718
21
-4.31352
0
LINE
8
BLACK
6
CONTINUOUS
10
5.57718
20
-4.31352
11
5.57705
21
-4.31354
0
LINE
8
BLACK
6
CONTINUOUS
10
5.57705
20
-4.31354
11
5.57693
21
-4.31347
0
LINE
8
BLACK
6
CONTINUOUS
10
5.57693
20
-4.31347
11
5.57655
21
-4.3134
0
LINE
8
BLACK
6
CONTINUOUS
10
5.57655
20
-4.3134
11
5.57596
21
-4.31291
0
LINE
8
BLACK
6
CONTINUOUS
10
5.57596
20
-4.31291
11
5.5753
21
-4.31253
0
LINE
8
BLACK
6
CONTINUOUS
10
5.5753
20
-4.31253
11
5.57521
21
-4.31228
0
LINE
8
BLACK
6
CONTINUOUS
10
5.57521
20
-4.31228
11
5.575
21
-4.31211
0
LINE
8
BLACK
6
CONTINUOUS
10
5.575
20
-4.31211
11
5.57487
21
-4.31135
0
LINE
8
BLACK
6
CONTINUOUS
10
5.57487
20
-4.31135
11
5.57461
21
-4.31063
0
LINE
8
BLACK
6
CONTINUOUS
10
5.57461
20
-4.31063
11
5.57461
21
-4.24252
0
LINE
8
BLACK
6
CONTINUOUS
10
5.57461
20
-4.24252
11
5.57467
21
-4.24214
0
LINE
8
BLACK
6
CONTINUOUS
10
5.57467
20
-4.24214
11
5.57465
21
-4.24201
0
LINE
8
BLACK
6
CONTINUOUS
10
5.57465
20
-4.24201
11
5.57472
21
-4.24189
0
LINE
8
BLACK
6
CONTINUOUS
10
5.57472
20
-4.24189
11
5.57478
21
-4.24151
0
LINE
8
BLACK
6
CONTINUOUS
10
5.57478
20
-4.24151
11
5.57528
21
-4.24092
0
LINE
8
BLACK
6
CONTINUOUS
10
5.57528
20
-4.24092
11
5.57566
21
-4.24026
0
LINE
8
BLACK
6
CONTINUOUS
10
5.57566
20
-4.24026
11
5.57591
21
-4.24017
0
LINE
8
BLACK
6
CONTINUOUS
10
5.57591
20
-4.24017
11
5.57608
21
-4.23996
0
LINE
8
BLACK
6
CONTINUOUS
10
5.57608
20
-4.23996
11
5.57684
21
-4.23983
0
LINE
8
BLACK
6
CONTINUOUS
10
5.57684
20
-4.23983
11
5.57756
21
-4.23957
0
LINE
8
BLACK
6
CONTINUOUS
10
5.57756
20
-4.23957
11
5.68071
21
-4.23957
0
LINE
8
BLACK
6
CONTINUOUS
10
5.68071
20
-4.23957
11
5.68109
21
-4.23963
0
LINE
8
BLACK
6
CONTINUOUS
10
5.58051
20
-4.24547
11
5.58051
21
-4.30768
0
LINE
8
BLACK
6
CONTINUOUS
10
5.58051
20
-4.30768
11
5.67776
21
-4.30768
0
LINE
8
BLACK
6
CONTINUOUS
10
5.67776
20
-4.30768
11
5.67776
21
-4.24547
0
LINE
8
BLACK
6
CONTINUOUS
10
5.67776
20
-4.24547
11
5.58051
21
-4.24547
0
LINE
8
BLACK
6
CONTINUOUS
10
5.38424
20
-2.04436
11
5.38437
21
-2.04434
0
LINE
8
BLACK
6
CONTINUOUS
10
5.38437
20
-2.04434
11
5.38448
21
-2.0444
0
LINE
8
BLACK
6
CONTINUOUS
10
5.38448
20
-2.0444
11
5.38487
21
-2.04447
0
LINE
8
BLACK
6
CONTINUOUS
10
5.38487
20
-2.04447
11
5.38546
21
-2.04496
0
LINE
8
BLACK
6
CONTINUOUS
10
5.38546
20
-2.04496
11
5.38612
21
-2.04535
0
LINE
8
BLACK
6
CONTINUOUS
10
5.38612
20
-2.04535
11
5.38621
21
-2.0456
0
LINE
8
BLACK
6
CONTINUOUS
10
5.38621
20
-2.0456
11
5.38642
21
-2.04577
0
LINE
8
BLACK
6
CONTINUOUS
10
5.38642
20
-2.04577
11
5.38655
21
-2.04652
0
LINE
8
BLACK
6
CONTINUOUS
10
5.38655
20
-2.04652
11
5.38681
21
-2.04724
0
LINE
8
BLACK
6
CONTINUOUS
10
5.38681
20
-2.04724
11
5.38681
21
-2.45768
0
LINE
8
BLACK
6
CONTINUOUS
10
5.38681
20
-2.45768
11
5.85335
21
-2.45768
0
LINE
8
BLACK
6
CONTINUOUS
10
5.85335
20
-2.45768
11
5.85335
21
-2.04724
0
LINE
8
BLACK
6
CONTINUOUS
10
5.85335
20
-2.04724
11
5.85341
21
-2.04686
0
LINE
8
BLACK
6
CONTINUOUS
10
5.85341
20
-2.04686
11
5.85339
21
-2.04673
0
LINE
8
BLACK
6
CONTINUOUS
10
5.85339
20
-2.04673
11
5.85346
21
-2.04662
0
LINE
8
BLACK
6
CONTINUOUS
10
5.85346
20
-2.04662
11
5.85352
21
-2.04623
0
LINE
8
BLACK
6
CONTINUOUS
10
5.85352
20
-2.04623
11
5.85402
21
-2.04565
0
LINE
8
BLACK
6
CONTINUOUS
10
5.85402
20
-2.04565
11
5.8544
21
-2.04498
0
LINE
8
BLACK
6
CONTINUOUS
10
5.8544
20
-2.04498
11
5.85465
21
-2.04489
0
LINE
8
BLACK
6
CONTINUOUS
10
5.85465
20
-2.04489
11
5.85482
21
-2.04469
0
LINE
8
BLACK
6
CONTINUOUS
10
5.85482
20
-2.04469
11
5.85558
21
-2.04455
0
LINE
8
BLACK
6
CONTINUOUS
10
5.85558
20
-2.04455
11
5.8563
21
-2.04429
0
LINE
8
BLACK
6
CONTINUOUS
10
5.8563
20
-2.04429
11
6.51575
21
-2.04429
0
LINE
8
BLACK
6
CONTINUOUS
10
6.51575
20
-2.04429
11
6.51593
21
-2.04432
0
LINE
8
BLACK
6
CONTINUOUS
10
6.51593
20
-2.04432
11
6.51601
21
-2.0443
0
LINE
8
BLACK
6
CONTINUOUS
10
6.51601
20
-2.0443
11
6.51612
21
-2.04436
0
LINE
8
BLACK
6
CONTINUOUS
10
6.51612
20
-2.04436
11
6.51676
21
-2.04447
0
LINE
8
BLACK
6
CONTINUOUS
10
6.51676
20
-2.04447
11
6.51725
21
-2.04488
0
LINE
8
BLACK
6
CONTINUOUS
10
6.51725
20
-2.04488
11
6.51784
21
-2.04516
0
LINE
8
BLACK
6
CONTINUOUS
10
6.51784
20
-2.04516
11
6.71469
21
-2.24201
0
LINE
8
BLACK
6
CONTINUOUS
10
6.71469
20
-2.24201
11
6.71479
21
-2.24216
0
LINE
8
BLACK
6
CONTINUOUS
10
6.71479
20
-2.24216
11
6.71486
21
-2.2422
0
LINE
8
BLACK
6
CONTINUOUS
10
6.71486
20
-2.2422
11
6.7149
21
-2.24232
0
LINE
8
BLACK
6
CONTINUOUS
10
6.7149
20
-2.24232
11
6.71527
21
-2.24285
0
LINE
8
BLACK
6
CONTINUOUS
10
6.71527
20
-2.24285
11
6.71533
21
-2.24349
0
LINE
8
BLACK
6
CONTINUOUS
10
6.71533
20
-2.24349
11
6.71555
21
-2.24409
0
LINE
8
BLACK
6
CONTINUOUS
10
6.71555
20
-2.24409
11
6.71555
21
-3.34646
0
LINE
8
BLACK
6
CONTINUOUS
10
6.71555
20
-3.34646
11
6.71555
21
-4.26181
0
LINE
8
BLACK
6
CONTINUOUS
10
6.71555
20
-4.26181
11
6.71552
21
-4.26199
0
LINE
8
BLACK
6
CONTINUOUS
10
6.71552
20
-4.26199
11
6.71554
21
-4.26207
0
LINE
8
BLACK
6
CONTINUOUS
10
6.71554
20
-4.26207
11
6.71549
21
-4.26219
0
LINE
8
BLACK
6
CONTINUOUS
10
6.71549
20
-4.26219
11
6.71537
21
-4.26282
0
LINE
8
BLACK
6
CONTINUOUS
10
6.71537
20
-4.26282
11
6.71496
21
-4.26331
0
LINE
8
BLACK
6
CONTINUOUS
10
6.71496
20
-4.26331
11
6.71469
21
-4.2639
0
LINE
8
BLACK
6
CONTINUOUS
10
6.71469
20
-4.2639
11
6.65563
21
-4.32295
0
LINE
8
BLACK
6
CONTINUOUS
10
6.65563
20
-4.32295
11
6.65548
21
-4.32306
0
LINE
8
BLACK
6
CONTINUOUS
10
6.65548
20
-4.32306
11
6.65544
21
-4.32313
0
LINE
8
BLACK
6
CONTINUOUS
10
6.65544
20
-4.32313
11
6.65532
21
-4.32317
0
LINE
8
BLACK
6
CONTINUOUS
10
6.65532
20
-4.32317
11
6.65479
21
-4.32354
0
LINE
8
BLACK
6
CONTINUOUS
10
6.65479
20
-4.32354
11
6.65415
21
-4.3236
0
LINE
8
BLACK
6
CONTINUOUS
10
6.65415
20
-4.3236
11
6.65354
21
-4.32382
0
LINE
8
BLACK
6
CONTINUOUS
10
6.65354
20
-4.32382
11
5.9252
21
-4.32382
0
LINE
8
BLACK
6
CONTINUOUS
10
5.9252
20
-4.32382
11
5.92502
21
-4.32379
0
LINE
8
BLACK
6
CONTINUOUS
10
5.92502
20
-4.32379
11
5.92494
21
-4.32381
0
LINE
8
BLACK
6
CONTINUOUS
10
5.92494
20
-4.32381
11
5.92482
21
-4.32375
0
LINE
8
BLACK
6
CONTINUOUS
10
5.92482
20
-4.32375
11
5.92419
21
-4.32364
0
LINE
8
BLACK
6
CONTINUOUS
10
5.92419
20
-4.32364
11
5.92369
21
-4.32323
0
LINE
8
BLACK
6
CONTINUOUS
10
5.92369
20
-4.32323
11
5.92311
21
-4.32295
0
LINE
8
BLACK
6
CONTINUOUS
10
5.92311
20
-4.32295
11
5.84523
21
-4.24508
0
LINE
8
BLACK
6
CONTINUOUS
10
5.84523
20
-4.24508
11
5.72736
21
-4.24508
0
LINE
8
BLACK
6
CONTINUOUS
10
5.72736
20
-4.24508
11
5.72736
21
-4.30807
0
LINE
8
BLACK
6
CONTINUOUS
10
5.72736
20
-4.30807
11
5.82677
21
-4.30807
0
LINE
8
BLACK
6
CONTINUOUS
10
5.82677
20
-4.30807
11
5.82695
21
-4.3081
0
LINE
8
BLACK
6
CONTINUOUS
10
5.82695
20
-4.3081
11
5.82703
21
-4.30808
0
LINE
8
BLACK
6
CONTINUOUS
10
5.82703
20
-4.30808
11
5.82715
21
-4.30814
0
LINE
8
BLACK
6
CONTINUOUS
10
5.82715
20
-4.30814
11
5.82778
21
-4.30825
0
LINE
8
BLACK
6
CONTINUOUS
10
5.82778
20
-4.30825
11
5.82828
21
-4.30866
0
LINE
8
BLACK
6
CONTINUOUS
10
5.82828
20
-4.30866
11
5.82886
21
-4.30894
0
LINE
8
BLACK
6
CONTINUOUS
10
5.82886
20
-4.30894
11
5.89689
21
-4.37697
0
LINE
8
BLACK
6
CONTINUOUS
10
5.89689
20
-4.37697
11
6.48622
21
-4.37697
0
LINE
8
BLACK
6
CONTINUOUS
10
6.48622
20
-4.37697
11
6.65354
21
-4.37697
0
LINE
8
BLACK
6
CONTINUOUS
10
6.65354
20
-4.37697
11
6.65372
21
-4.377
0
LINE
8
BLACK
6
CONTINUOUS
10
6.65372
20
-4.377
11
6.6538
21
-4.37698
0
LINE
8
BLACK
6
CONTINUOUS
10
6.6538
20
-4.37698
11
6.65392
21
-4.37703
0
LINE
8
BLACK
6
CONTINUOUS
10
6.65392
20
-4.37703
11
6.65455
21
-4.37715
0
LINE
8
BLACK
6
CONTINUOUS
10
6.65455
20
-4.37715
11
6.65505
21
-4.37756
0
LINE
8
BLACK
6
CONTINUOUS
10
6.65505
20
-4.37756
11
6.65563
21
-4.37783
0
LINE
8
BLACK
6
CONTINUOUS
10
6.65563
20
-4.37783
11
6.71469
21
-4.43689
0
LINE
8
BLACK
6
CONTINUOUS
10
6.71469
20
-4.43689
11
6.71479
21
-4.43704
0
LINE
8
BLACK
6
CONTINUOUS
10
6.71479
20
-4.43704
11
6.71486
21
-4.43708
0
LINE
8
BLACK
6
CONTINUOUS
10
6.71486
20
-4.43708
11
6.7149
21
-4.4372
0
LINE
8
BLACK
6
CONTINUOUS
10
6.7149
20
-4.4372
11
6.71527
21
-4.43773
0
LINE
8
BLACK
6
CONTINUOUS
10
6.71527
20
-4.43773
11
6.71533
21
-4.43837
0
LINE
8
BLACK
6
CONTINUOUS
10
6.71533
20
-4.43837
11
6.71555
21
-4.43898
0
LINE
8
BLACK
6
CONTINUOUS
10
6.71555
20
-4.43898
11
6.71555
21
-5.19685
0
LINE
8
BLACK
6
CONTINUOUS
10
6.71555
20
-5.19685
11
6.71552
21
-5.19703
0
LINE
8
BLACK
6
CONTINUOUS
10
6.71552
20
-5.19703
11
6.71554
21
-5.19711
0
LINE
8
BLACK
6
CONTINUOUS
10
6.71554
20
-5.19711
11
6.71549
21
-5.19723
0
LINE
8
BLACK
6
CONTINUOUS
10
6.71549
20
-5.19723
11
6.71537
21
-5.19786
0
LINE
8
BLACK
6
CONTINUOUS
10
6.71537
20
-5.19786
11
6.71496
21
-5.19835
0
LINE
8
BLACK
6
CONTINUOUS
10
6.71496
20
-5.19835
11
6.71469
21
-5.19894
0
LINE
8
BLACK
6
CONTINUOUS
10
6.71469
20
-5.19894
11
6.6565
21
-5.25713
0
LINE
8
BLACK
6
CONTINUOUS
10
6.6565
20
-5.25713
11
6.6565
21
-5.55118
0
LINE
8
BLACK
6
CONTINUOUS
10
6.6565
20
-5.55118
11
6.65646
21
-5.55136
0
LINE
8
BLACK
6
CONTINUOUS
10
6.65646
20
-5.55136
11
6.65648
21
-5.55144
0
LINE
8
BLACK
6
CONTINUOUS
10
6.65648
20
-5.55144
11
6.65643
21
-5.55156
0
LINE
8
BLACK
6
CONTINUOUS
10
6.65643
20
-5.55156
11
6.65632
21
-5.55219
0
LINE
8
BLACK
6
CONTINUOUS
10
6.65632
20
-5.55219
11
6.6559
21
-5.55268
0
LINE
8
BLACK
6
CONTINUOUS
10
6.6559
20
-5.55268
11
6.65563
21
-5.55327
0
LINE
8
BLACK
6
CONTINUOUS
10
6.65563
20
-5.55327
11
6.22256
21
-5.98634
0
LINE
8
BLACK
6
CONTINUOUS
10
6.22256
20
-5.98634
11
6.22241
21
-5.98644
0
LINE
8
BLACK
6
CONTINUOUS
10
6.22241
20
-5.98644
11
6.22237
21
-5.98651
0
LINE
8
BLACK
6
CONTINUOUS
10
6.22237
20
-5.98651
11
6.22225
21
-5.98656
0
LINE
8
BLACK
6
CONTINUOUS
10
6.22225
20
-5.98656
11
6.22172
21
-5.98693
0
LINE
8
BLACK
6
CONTINUOUS
10
6.22172
20
-5.98693
11
6.22108
21
-5.98698
0
LINE
8
BLACK
6
CONTINUOUS
10
6.22108
20
-5.98698
11
6.22047
21
-5.9872
0
LINE
8
BLACK
6
CONTINUOUS
10
6.22047
20
-5.9872
11
5.29528
21
-5.9872
0
LINE
8
BLACK
6
CONTINUOUS
10
5.29528
20
-5.9872
11
5.2951
21
-5.98717
0
LINE
8
BLACK
6
CONTINUOUS
10
5.2951
20
-5.98717
11
5.29502
21
-5.98719
0
LINE
8
BLACK
6
CONTINUOUS
10
5.29502
20
-5.98719
11
5.2949
21
-5.98714
0
LINE
8
BLACK
6
CONTINUOUS
10
5.2949
20
-5.98714
11
5.29427
21
-5.98703
0
LINE
8
BLACK
6
CONTINUOUS
10
5.29427
20
-5.98703
11
5.29377
21
-5.98661
0
LINE
8
BLACK
6
CONTINUOUS
10
5.29377
20
-5.98661
11
5.29319
21
-5.98634
0
LINE
8
BLACK
6
CONTINUOUS
10
5.29319
20
-5.98634
11
5.25382
21
-5.94697
0
LINE
8
BLACK
6
CONTINUOUS
10
5.25382
20
-5.94697
11
5.25371
21
-5.94682
0
LINE
8
BLACK
6
CONTINUOUS
10
5.25371
20
-5.94682
11
5.25364
21
-5.94678
0
LINE
8
BLACK
6
CONTINUOUS
10
5.25364
20
-5.94678
11
5.2536
21
-5.94666
0
LINE
8
BLACK
6
CONTINUOUS
10
5.2536
20
-5.94666
11
5.25323
21
-5.94613
0
LINE
8
BLACK
6
CONTINUOUS
10
5.25323
20
-5.94613
11
5.25317
21
-5.94549
0
LINE
8
BLACK
6
CONTINUOUS
10
5.25317
20
-5.94549
11
5.25295
21
-5.94488
0
LINE
8
BLACK
6
CONTINUOUS
10
5.25295
20
-5.94488
11
5.25295
21
-5.84768
0
LINE
8
BLACK
6
CONTINUOUS
10
5.25295
20
-5.84768
11
5.21531
21
-5.81004
0
LINE
8
BLACK
6
CONTINUOUS
10
5.21531
20
-5.81004
11
5.05906
21
-5.81004
0
LINE
8
BLACK
6
CONTINUOUS
10
5.05906
20
-5.81004
11
5.03937
21
-5.81004
0
LINE
8
BLACK
6
CONTINUOUS
10
5.03937
20
-5.81004
11
5.03919
21
-5.81001
0
LINE
8
BLACK
6
CONTINUOUS
10
5.03919
20
-5.81001
11
5.03911
21
-5.81003
0
LINE
8
BLACK
6
CONTINUOUS
10
5.03911
20
-5.81003
11
5.03899
21
-5.80997
0
LINE
8
BLACK
6
CONTINUOUS
10
5.03899
20
-5.80997
11
5.03836
21
-5.80986
0
LINE
8
BLACK
6
CONTINUOUS
10
5.03836
20
-5.80986
11
5.03787
21
-5.80945
0
LINE
8
BLACK
6
CONTINUOUS
10
5.03787
20
-5.80945
11
5.03728
21
-5.80917
0
LINE
8
BLACK
6
CONTINUOUS
10
5.03728
20
-5.80917
11
4.99791
21
-5.7698
0
LINE
8
BLACK
6
CONTINUOUS
10
4.99791
20
-5.7698
11
4.52547
21
-5.29736
0
LINE
8
BLACK
6
CONTINUOUS
10
4.52547
20
-5.29736
11
4.52537
21
-5.29721
0
LINE
8
BLACK
6
CONTINUOUS
10
4.52537
20
-5.29721
11
4.5253
21
-5.29717
0
LINE
8
BLACK
6
CONTINUOUS
10
4.5253
20
-5.29717
11
4.52525
21
-5.29705
0
LINE
8
BLACK
6
CONTINUOUS
10
4.52525
20
-5.29705
11
4.52488
21
-5.29652
0
LINE
8
BLACK
6
CONTINUOUS
10
4.52488
20
-5.29652
11
4.52483
21
-5.29588
0
LINE
8
BLACK
6
CONTINUOUS
10
4.52483
20
-5.29588
11
4.52461
21
-5.29528
0
LINE
8
BLACK
6
CONTINUOUS
10
4.52461
20
-5.29528
11
4.52461
21
-4.76378
0
LINE
8
BLACK
6
CONTINUOUS
10
4.52461
20
-4.76378
11
4.52461
21
-4.76378
0
LINE
8
BLACK
6
CONTINUOUS
10
4.52461
20
-4.76378
11
4.52461
21
-4.43898
0
LINE
8
BLACK
6
CONTINUOUS
10
4.52461
20
-4.43898
11
4.52464
21
-4.4388
0
LINE
8
BLACK
6
CONTINUOUS
10
4.52464
20
-4.4388
11
4.52462
21
-4.43872
0
LINE
8
BLACK
6
CONTINUOUS
10
4.52462
20
-4.43872
11
4.52467
21
-4.4386
0
LINE
8
BLACK
6
CONTINUOUS
10
4.52467
20
-4.4386
11
4.52478
21
-4.43797
0
LINE
8
BLACK
6
CONTINUOUS
10
4.52478
20
-4.43797
11
4.5252
21
-4.43747
0
LINE
8
BLACK
6
CONTINUOUS
10
4.5252
20
-4.43747
11
4.52547
21
-4.43689
0
LINE
8
BLACK
6
CONTINUOUS
10
4.52547
20
-4.43689
11
4.58453
21
-4.37783
0
LINE
8
BLACK
6
CONTINUOUS
10
4.58453
20
-4.37783
11
4.58468
21
-4.37773
0
LINE
8
BLACK
6
CONTINUOUS
10
4.58468
20
-4.37773
11
4.58472
21
-4.37766
0
LINE
8
BLACK
6
CONTINUOUS
10
4.58472
20
-4.37766
11
4.58484
21
-4.37761
0
LINE
8
BLACK
6
CONTINUOUS
10
4.58484
20
-4.37761
11
4.58537
21
-4.37725
0
LINE
8
BLACK
6
CONTINUOUS
10
4.58537
20
-4.37725
11
4.58601
21
-4.37719
0
LINE
8
BLACK
6
CONTINUOUS
10
4.58601
20
-4.37719
11
4.58661
21
-4.37697
0
LINE
8
BLACK
6
CONTINUOUS
10
4.58661
20
-4.37697
11
4.6063
21
-4.37697
0
LINE
8
BLACK
6
CONTINUOUS
10
4.6063
20
-4.37697
11
5.35114
21
-4.37697
0
LINE
8
BLACK
6
CONTINUOUS
10
5.35114
20
-4.37697
11
5.41917
21
-4.30894
0
LINE
8
BLACK
6
CONTINUOUS
10
5.41917
20
-4.30894
11
5.41932
21
-4.30883
0
LINE
8
BLACK
6
CONTINUOUS
10
5.41932
20
-4.30883
11
5.41936
21
-4.30876
0
LINE
8
BLACK
6
CONTINUOUS
10
5.41936
20
-4.30876
11
5.41948
21
-4.30872
0
LINE
8
BLACK
6
CONTINUOUS
10
5.41948
20
-4.30872
11
5.42001
21
-4.30835
0
LINE
8
BLACK
6
CONTINUOUS
10
5.42001
20
-4.30835
11
5.42065
21
-4.30829
0
LINE
8
BLACK
6
CONTINUOUS
10
5.42065
20
-4.30829
11
5.42126
21
-4.30807
0
LINE
8
BLACK
6
CONTINUOUS
10
5.42126
20
-4.30807
11
5.53248
21
-4.30807
0
LINE
8
BLACK
6
CONTINUOUS
10
5.53248
20
-4.30807
11
5.53248
21
-4.24508
0
LINE
8
BLACK
6
CONTINUOUS
10
5.53248
20
-4.24508
11
5.4087
21
-4.24508
0
LINE
8
BLACK
6
CONTINUOUS
10
5.4087
20
-4.24508
11
5.33083
21
-4.32295
0
LINE
8
BLACK
6
CONTINUOUS
10
5.33083
20
-4.32295
11
5.33068
21
-4.32306
0
LINE
8
BLACK
6
CONTINUOUS
10
5.33068
20
-4.32306
11
5.33064
21
-4.32313
0
LINE
8
BLACK
6
CONTINUOUS
10
5.33064
20
-4.32313
11
5.33052
21
-4.32317
0
LINE
8
BLACK
6
CONTINUOUS
10
5.33052
20
-4.32317
11
5.32999
21
-4.32354
0
LINE
8
BLACK
6
CONTINUOUS
10
5.32999
20
-4.32354
11
5.32935
21
-4.3236
0
LINE
8
BLACK
6
CONTINUOUS
10
5.32935
20
-4.3236
11
5.32874
21
-4.32382
0
LINE
8
BLACK
6
CONTINUOUS
10
5.32874
20
-4.32382
11
4.58661
21
-4.32382
0
LINE
8
BLACK
6
CONTINUOUS
10
4.58661
20
-4.32382
11
4.58643
21
-4.32379
0
LINE
8
BLACK
6
CONTINUOUS
10
4.58643
20
-4.32379
11
4.58636
21
-4.32381
0
LINE
8
BLACK
6
CONTINUOUS
10
4.58636
20
-4.32381
11
4.58624
21
-4.32375
0
LINE
8
BLACK
6
CONTINUOUS
10
4.58624
20
-4.32375
11
4.5856
21
-4.32364
0
LINE
8
BLACK
6
CONTINUOUS
10
4.5856
20
-4.32364
11
4.58511
21
-4.32323
0
LINE
8
BLACK
6
CONTINUOUS
10
4.58511
20
-4.32323
11
4.58453
21
-4.32295
0
LINE
8
BLACK
6
CONTINUOUS
10
4.58453
20
-4.32295
11
4.52547
21
-4.2639
0
LINE
8
BLACK
6
CONTINUOUS
10
4.52547
20
-4.2639
11
4.52537
21
-4.26375
0
LINE
8
BLACK
6
CONTINUOUS
10
4.52537
20
-4.26375
11
4.5253
21
-4.26371
0
LINE
8
BLACK
6
CONTINUOUS
10
4.5253
20
-4.26371
11
4.52525
21
-4.26359
0
LINE
8
BLACK
6
CONTINUOUS
10
4.52525
20
-4.26359
11
4.52488
21
-4.26306
0
LINE
8
BLACK
6
CONTINUOUS
10
4.52488
20
-4.26306
11
4.52483
21
-4.26242
0
LINE
8
BLACK
6
CONTINUOUS
10
4.52483
20
-4.26242
11
4.52461
21
-4.26181
0
LINE
8
BLACK
6
CONTINUOUS
10
4.52461
20
-4.26181
11
4.52461
21
-2.24409
0
LINE
8
BLACK
6
CONTINUOUS
10
4.52461
20
-2.24409
11
4.52464
21
-2.24391
0
LINE
8
BLACK
6
CONTINUOUS
10
4.52464
20
-2.24391
11
4.52462
21
-2.24384
0
LINE
8
BLACK
6
CONTINUOUS
10
4.52462
20
-2.24384
11
4.52467
21
-2.24372
0
LINE
8
BLACK
6
CONTINUOUS
10
4.52467
20
-2.24372
11
4.52478
21
-2.24308
0
LINE
8
BLACK
6
CONTINUOUS
10
4.52478
20
-2.24308
11
4.5252
21
-2.24259
0
LINE
8
BLACK
6
CONTINUOUS
10
4.5252
20
-2.24259
11
4.52547
21
-2.24201
0
LINE
8
BLACK
6
CONTINUOUS
10
4.52547
20
-2.24201
11
4.72232
21
-2.04516
0
LINE
8
BLACK
6
CONTINUOUS
10
4.72232
20
-2.04516
11
4.72247
21
-2.04505
0
LINE
8
BLACK
6
CONTINUOUS
10
4.72247
20
-2.04505
11
4.72251
21
-2.04498
0
LINE
8
BLACK
6
CONTINUOUS
10
4.72251
20
-2.04498
11
4.72263
21
-2.04494
0
LINE
8
BLACK
6
CONTINUOUS
10
4.72263
20
-2.04494
11
4.72316
21
-2.04457
0
LINE
8
BLACK
6
CONTINUOUS
10
4.72316
20
-2.04457
11
4.7238
21
-2.04451
0
LINE
8
BLACK
6
CONTINUOUS
10
4.7238
20
-2.04451
11
4.72441
21
-2.04429
0
LINE
8
BLACK
6
CONTINUOUS
10
4.72441
20
-2.04429
11
5.38386
21
-2.04429
0
LINE
8
BLACK
6
CONTINUOUS
10
5.38386
20
-2.04429
11
5.38424
21
-2.04436
0
LINE
8
BLACK
6
CONTINUOUS
10
4.72563
20
-2.0502
11
4.53051
21
-2.24532
0
LINE
8
BLACK
6
CONTINUOUS
10
4.53051
20
-2.24532
11
4.53051
21
-4.26059
0
LINE
8
BLACK
6
CONTINUOUS
10
4.53051
20
-4.26059
11
4.58784
21
-4.31791
0
LINE
8
BLACK
6
CONTINUOUS
10
4.58784
20
-4.31791
11
5.32752
21
-4.31791
0
LINE
8
BLACK
6
CONTINUOUS
10
5.32752
20
-4.31791
11
5.40539
21
-4.24004
0
LINE
8
BLACK
6
CONTINUOUS
10
5.40539
20
-4.24004
11
5.40554
21
-4.23993
0
LINE
8
BLACK
6
CONTINUOUS
10
5.40554
20
-4.23993
11
5.40558
21
-4.23986
0
LINE
8
BLACK
6
CONTINUOUS
10
5.40558
20
-4.23986
11
5.4057
21
-4.23982
0
LINE
8
BLACK
6
CONTINUOUS
10
5.4057
20
-4.23982
11
5.40623
21
-4.23945
0
LINE
8
BLACK
6
CONTINUOUS
10
5.40623
20
-4.23945
11
5.40687
21
-4.23939
0
LINE
8
BLACK
6
CONTINUOUS
10
5.40687
20
-4.23939
11
5.40748
21
-4.23917
0
LINE
8
BLACK
6
CONTINUOUS
10
5.40748
20
-4.23917
11
5.53543
21
-4.23917
0
LINE
8
BLACK
6
CONTINUOUS
10
5.53543
20
-4.23917
11
5.53582
21
-4.23924
0
LINE
8
BLACK
6
CONTINUOUS
10
5.53582
20
-4.23924
11
5.53595
21
-4.23922
0
LINE
8
BLACK
6
CONTINUOUS
10
5.53595
20
-4.23922
11
5.53606
21
-4.23928
0
LINE
8
BLACK
6
CONTINUOUS
10
5.53606
20
-4.23928
11
5.53644
21
-4.23935
0
LINE
8
BLACK
6
CONTINUOUS
10
5.53644
20
-4.23935
11
5.53703
21
-4.23984
0
LINE
8
BLACK
6
CONTINUOUS
10
5.53703
20
-4.23984
11
5.5377
21
-4.24023
0
LINE
8
BLACK
6
CONTINUOUS
10
5.5377
20
-4.24023
11
5.53779
21
-4.24048
0
LINE
8
BLACK
6
CONTINUOUS
10
5.53779
20
-4.24048
11
5.53799
21
-4.24065
0
LINE
8
BLACK
6
CONTINUOUS
10
5.53799
20
-4.24065
11
5.53812
21
-4.24141
0
LINE
8
BLACK
6
CONTINUOUS
10
5.53812
20
-4.24141
11
5.53839
21
-4.24213
0
LINE
8
BLACK
6
CONTINUOUS
10
5.53839
20
-4.24213
11
5.53839
21
-4.31102
0
LINE
8
BLACK
6
CONTINUOUS
10
5.53839
20
-4.31102
11
5.53832
21
-4.31141
0
LINE
8
BLACK
6
CONTINUOUS
10
5.53832
20
-4.31141
11
5.53834
21
-4.31154
0
LINE
8
BLACK
6
CONTINUOUS
10
5.53834
20
-4.31154
11
5.53828
21
-4.31165
0
LINE
8
BLACK
6
CONTINUOUS
10
5.53828
20
-4.31165
11
5.53821
21
-4.31203
0
LINE
8
BLACK
6
CONTINUOUS
10
5.53821
20
-4.31203
11
5.53771
21
-4.31262
0
LINE
8
BLACK
6
CONTINUOUS
10
5.53771
20
-4.31262
11
5.53733
21
-4.31329
0
LINE
8
BLACK
6
CONTINUOUS
10
5.53733
20
-4.31329
11
5.53708
21
-4.31338
0
LINE
8
BLACK
6
CONTINUOUS
10
5.53708
20
-4.31338
11
5.53691
21
-4.31358
0
LINE
8
BLACK
6
CONTINUOUS
10
5.53691
20
-4.31358
11
5.53615
21
-4.31371
0
LINE
8
BLACK
6
CONTINUOUS
10
5.53615
20
-4.31371
11
5.53543
21
-4.31398
0
LINE
8
BLACK
6
CONTINUOUS
10
5.53543
20
-4.31398
11
5.42248
21
-4.31398
0
LINE
8
BLACK
6
CONTINUOUS
10
5.42248
20
-4.31398
11
5.35445
21
-4.38201
0
LINE
8
BLACK
6
CONTINUOUS
10
5.35445
20
-4.38201
11
5.3543
21
-4.38211
0
LINE
8
BLACK
6
CONTINUOUS
10
5.3543
20
-4.38211
11
5.35426
21
-4.38218
0
LINE
8
BLACK
6
CONTINUOUS
10
5.35426
20
-4.38218
11
5.35414
21
-4.38223
0
LINE
8
BLACK
6
CONTINUOUS
10
5.35414
20
-4.38223
11
5.35361
21
-4.3826
0
LINE
8
BLACK
6
CONTINUOUS
10
5.35361
20
-4.3826
11
5.35297
21
-4.38265
0
LINE
8
BLACK
6
CONTINUOUS
10
5.35297
20
-4.38265
11
5.35236
21
-4.38287
0
LINE
8
BLACK
6
CONTINUOUS
10
5.35236
20
-4.38287
11
4.6063
21
-4.38287
0
LINE
8
BLACK
6
CONTINUOUS
10
4.6063
20
-4.38287
11
4.58784
21
-4.38287
0
LINE
8
BLACK
6
CONTINUOUS
10
4.58784
20
-4.38287
11
4.53051
21
-4.4402
0
LINE
8
BLACK
6
CONTINUOUS
10
4.53051
20
-4.4402
11
4.53051
21
-4.76378
0
LINE
8
BLACK
6
CONTINUOUS
10
4.53051
20
-4.76378
11
4.53051
21
-5.29405
0
LINE
8
BLACK
6
CONTINUOUS
10
4.53051
20
-5.29405
11
5.00209
21
-5.76563
0
LINE
8
BLACK
6
CONTINUOUS
10
5.00209
20
-5.76563
11
5.00209
21
-5.76563
0
LINE
8
BLACK
6
CONTINUOUS
10
5.00209
20
-5.76563
11
5.04059
21
-5.80413
0
LINE
8
BLACK
6
CONTINUOUS
10
5.04059
20
-5.80413
11
5.05906
21
-5.80413
0
LINE
8
BLACK
6
CONTINUOUS
10
5.05906
20
-5.80413
11
5.21654
21
-5.80413
0
LINE
8
BLACK
6
CONTINUOUS
10
5.21654
20
-5.80413
11
5.21672
21
-5.80417
0
LINE
8
BLACK
6
CONTINUOUS
10
5.21672
20
-5.80417
11
5.21679
21
-5.80415
0
LINE
8
BLACK
6
CONTINUOUS
10
5.21679
20
-5.80415
11
5.21691
21
-5.8042
0
LINE
8
BLACK
6
CONTINUOUS
10
5.21691
20
-5.8042
11
5.21755
21
-5.80431
0
LINE
8
BLACK
6
CONTINUOUS
10
5.21755
20
-5.80431
11
5.21804
21
-5.80473
0
LINE
8
BLACK
6
CONTINUOUS
10
5.21804
20
-5.80473
11
5.21862
21
-5.805
0
LINE
8
BLACK
6
CONTINUOUS
10
5.21862
20
-5.805
11
5.25799
21
-5.84437
0
LINE
8
BLACK
6
CONTINUOUS
10
5.25799
20
-5.84437
11
5.2581
21
-5.84452
0
LINE
8
BLACK
6
CONTINUOUS
10
5.2581
20
-5.84452
11
5.25817
21
-5.84456
0
LINE
8
BLACK
6
CONTINUOUS
10
5.25817
20
-5.84456
11
5.25821
21
-5.84468
0
LINE
8
BLACK
6
CONTINUOUS
10
5.25821
20
-5.84468
11
5.25858
21
-5.84521
0
LINE
8
BLACK
6
CONTINUOUS
10
5.25858
20
-5.84521
11
5.25864
21
-5.84585
0
LINE
8
BLACK
6
CONTINUOUS
10
5.25864
20
-5.84585
11
5.25886
21
-5.84646
0
LINE
8
BLACK
6
CONTINUOUS
10
5.25886
20
-5.84646
11
5.25886
21
-5.94366
0
LINE
8
BLACK
6
CONTINUOUS
10
5.25886
20
-5.94366
11
5.2965
21
-5.9813
0
LINE
8
BLACK
6
CONTINUOUS
10
5.2965
20
-5.9813
11
6.21925
21
-5.9813
0
LINE
8
BLACK
6
CONTINUOUS
10
6.21925
20
-5.9813
11
6.65059
21
-5.54996
0
LINE
8
BLACK
6
CONTINUOUS
10
6.65059
20
-5.54996
11
6.65059
21
-5.25591
0
LINE
8
BLACK
6
CONTINUOUS
10
6.65059
20
-5.25591
11
6.65062
21
-5.25572
0
LINE
8
BLACK
6
CONTINUOUS
10
6.65062
20
-5.25572
11
6.6506
21
-5.25565
0
LINE
8
BLACK
6
CONTINUOUS
10
6.6506
20
-5.25565
11
6.65066
21
-5.25553
0
LINE
8
BLACK
6
CONTINUOUS
10
6.65066
20
-5.25553
11
6.65077
21
-5.2549
0
LINE
8
BLACK
6
CONTINUOUS
10
6.65077
20
-5.2549
11
6.65118
21
-5.2544
0
LINE
8
BLACK
6
CONTINUOUS
10
6.65118
20
-5.2544
11
6.65146
21
-5.25382
0
LINE
8
BLACK
6
CONTINUOUS
10
6.65146
20
-5.25382
11
6.70965
21
-5.19563
0
LINE
8
BLACK
6
CONTINUOUS
10
6.70965
20
-5.19563
11
6.70965
21
-4.4402
0
LINE
8
BLACK
6
CONTINUOUS
10
6.70965
20
-4.4402
11
6.65232
21
-4.38287
0
LINE
8
BLACK
6
CONTINUOUS
10
6.65232
20
-4.38287
11
6.48622
21
-4.38287
0
LINE
8
BLACK
6
CONTINUOUS
10
6.48622
20
-4.38287
11
5.89567
21
-4.38287
0
LINE
8
BLACK
6
CONTINUOUS
10
5.89567
20
-4.38287
11
5.89549
21
-4.38284
0
LINE
8
BLACK
6
CONTINUOUS
10
5.89549
20
-4.38284
11
5.89541
21
-4.38286
0
LINE
8
BLACK
6
CONTINUOUS
10
5.89541
20
-4.38286
11
5.89529
21
-4.38281
0
LINE
8
BLACK
6
CONTINUOUS
10
5.89529
20
-4.38281
11
5.89466
21
-4.3827
0
LINE
8
BLACK
6
CONTINUOUS
10
5.89466
20
-4.3827
11
5.89417
21
-4.38228
0
LINE
8
BLACK
6
CONTINUOUS
10
5.89417
20
-4.38228
11
5.89358
21
-4.38201
0
LINE
8
BLACK
6
CONTINUOUS
10
5.89358
20
-4.38201
11
5.82555
21
-4.31398
0
LINE
8
BLACK
6
CONTINUOUS
10
5.82555
20
-4.31398
11
5.72441
21
-4.31398
0
LINE
8
BLACK
6
CONTINUOUS
10
5.72441
20
-4.31398
11
5.72403
21
-4.31391
0
LINE
8
BLACK
6
CONTINUOUS
10
5.72403
20
-4.31391
11
5.7239
21
-4.31393
0
LINE
8
BLACK
6
CONTINUOUS
10
5.7239
20
-4.31393
11
5.72378
21
-4.31387
0
LINE
8
BLACK
6
CONTINUOUS
10
5.72378
20
-4.31387
11
5.7234
21
-4.3138
0
LINE
8
BLACK
6
CONTINUOUS
10
5.7234
20
-4.3138
11
5.72281
21
-4.31331
0
LINE
8
BLACK
6
CONTINUOUS
10
5.72281
20
-4.31331
11
5.72215
21
-4.31292
0
LINE
8
BLACK
6
CONTINUOUS
10
5.72215
20
-4.31292
11
5.72206
21
-4.31267
0
LINE
8
BLACK
6
CONTINUOUS
10
5.72206
20
-4.31267
11
5.72185
21
-4.3125
0
LINE
8
BLACK
6
CONTINUOUS
10
5.72185
20
-4.3125
11
5.72172
21
-4.31174
0
LINE
8
BLACK
6
CONTINUOUS
10
5.72172
20
-4.31174
11
5.72146
21
-4.31102
0
LINE
8
BLACK
6
CONTINUOUS
10
5.72146
20
-4.31102
11
5.72146
21
-4.24213
0
LINE
8
BLACK
6
CONTINUOUS
10
5.72146
20
-4.24213
11
5.72152
21
-4.24174
0
LINE
8
BLACK
6
CONTINUOUS
10
5.72152
20
-4.24174
11
5.7215
21
-4.24161
0
LINE
8
BLACK
6
CONTINUOUS
10
5.7215
20
-4.24161
11
5.72157
21
-4.2415
0
LINE
8
BLACK
6
CONTINUOUS
10
5.72157
20
-4.2415
11
5.72163
21
-4.24112
0
LINE
8
BLACK
6
CONTINUOUS
10
5.72163
20
-4.24112
11
5.72213
21
-4.24053
0
LINE
8
BLACK
6
CONTINUOUS
10
5.72213
20
-4.24053
11
5.72251
21
-4.23986
0
LINE
8
BLACK
6
CONTINUOUS
10
5.72251
20
-4.23986
11
5.72276
21
-4.23977
0
LINE
8
BLACK
6
CONTINUOUS
10
5.72276
20
-4.23977
11
5.72293
21
-4.23957
0
LINE
8
BLACK
6
CONTINUOUS
10
5.72293
20
-4.23957
11
5.72369
21
-4.23944
0
LINE
8
BLACK
6
CONTINUOUS
10
5.72369
20
-4.23944
11
5.72441
21
-4.23917
0
LINE
8
BLACK
6
CONTINUOUS
10
5.72441
20
-4.23917
11
5.84646
21
-4.23917
0
LINE
8
BLACK
6
CONTINUOUS
10
5.84646
20
-4.23917
11
5.84664
21
-4.23921
0
LINE
8
BLACK
6
CONTINUOUS
10
5.84664
20
-4.23921
11
5.84671
21
-4.23918
0
LINE
8
BLACK
6
CONTINUOUS
10
5.84671
20
-4.23918
11
5.84683
21
-4.23924
0
LINE
8
BLACK
6
CONTINUOUS
10
5.84683
20
-4.23924
11
5.84747
21
-4.23935
0
LINE
8
BLACK
6
CONTINUOUS
10
5.84747
20
-4.23935
11
5.84796
21
-4.23977
0
LINE
8
BLACK
6
CONTINUOUS
10
5.84796
20
-4.23977
11
5.84854
21
-4.24004
0
LINE
8
BLACK
6
CONTINUOUS
10
5.84854
20
-4.24004
11
5.92642
21
-4.31791
0
LINE
8
BLACK
6
CONTINUOUS
10
5.92642
20
-4.31791
11
6.65232
21
-4.31791
0
LINE
8
BLACK
6
CONTINUOUS
10
6.65232
20
-4.31791
11
6.70965
21
-4.26059
0
LINE
8
BLACK
6
CONTINUOUS
10
6.70965
20
-4.26059
11
6.70965
21
-3.34646
0
LINE
8
BLACK
6
CONTINUOUS
10
6.70965
20
-3.34646
11
6.70965
21
-3.34646
0
LINE
8
BLACK
6
CONTINUOUS
10
6.70965
20
-3.34646
11
6.70965
21
-2.24532
0
LINE
8
BLACK
6
CONTINUOUS
10
6.70965
20
-2.24532
11
6.51452
21
-2.0502
0
LINE
8
BLACK
6
CONTINUOUS
10
6.51452
20
-2.0502
11
5.85925
21
-2.0502
0
LINE
8
BLACK
6
CONTINUOUS
10
5.85925
20
-2.0502
11
5.85925
21
-2.46063
0
LINE
8
BLACK
6
CONTINUOUS
10
5.85925
20
-2.46063
11
5.85918
21
-2.46101
0
LINE
8
BLACK
6
CONTINUOUS
10
5.85918
20
-2.46101
11
5.85921
21
-2.46114
0
LINE
8
BLACK
6
CONTINUOUS
10
5.85921
20
-2.46114
11
5.85914
21
-2.46126
0
LINE
8
BLACK
6
CONTINUOUS
10
5.85914
20
-2.46126
11
5.85907
21
-2.46164
0
LINE
8
BLACK
6
CONTINUOUS
10
5.85907
20
-2.46164
11
5.85858
21
-2.46223
0
LINE
8
BLACK
6
CONTINUOUS
10
5.85858
20
-2.46223
11
5.8582
21
-2.46289
0
LINE
8
BLACK
6
CONTINUOUS
10
5.8582
20
-2.46289
11
5.85795
21
-2.46298
0
LINE
8
BLACK
6
CONTINUOUS
10
5.85795
20
-2.46298
11
5.85778
21
-2.46319
0
LINE
8
BLACK
6
CONTINUOUS
10
5.85778
20
-2.46319
11
5.85702
21
-2.46332
0
LINE
8
BLACK
6
CONTINUOUS
10
5.85702
20
-2.46332
11
5.8563
21
-2.46358
0
LINE
8
BLACK
6
CONTINUOUS
10
5.8563
20
-2.46358
11
5.38386
21
-2.46358
0
LINE
8
BLACK
6
CONTINUOUS
10
5.38386
20
-2.46358
11
5.38347
21
-2.46352
0
LINE
8
BLACK
6
CONTINUOUS
10
5.38347
20
-2.46352
11
5.38335
21
-2.46354
0
LINE
8
BLACK
6
CONTINUOUS
10
5.38335
20
-2.46354
11
5.38323
21
-2.46347
0
LINE
8
BLACK
6
CONTINUOUS
10
5.38323
20
-2.46347
11
5.38285
21
-2.4634
0
LINE
8
BLACK
6
CONTINUOUS
10
5.38285
20
-2.4634
11
5.38226
21
-2.46291
0
LINE
8
BLACK
6
CONTINUOUS
10
5.38226
20
-2.46291
11
5.3816
21
-2.46253
0
LINE
8
BLACK
6
CONTINUOUS
10
5.3816
20
-2.46253
11
5.38151
21
-2.46228
0
LINE
8
BLACK
6
CONTINUOUS
10
5.38151
20
-2.46228
11
5.3813
21
-2.46211
0
LINE
8
BLACK
6
CONTINUOUS
10
5.3813
20
-2.46211
11
5.38117
21
-2.46135
0
LINE
8
BLACK
6
CONTINUOUS
10
5.38117
20
-2.46135
11
5.38091
21
-2.46063
0
LINE
8
BLACK
6
CONTINUOUS
10
5.38091
20
-2.46063
11
5.38091
21
-2.0502
0
LINE
8
BLACK
6
CONTINUOUS
10
5.38091
20
-2.0502
11
4.72563
21
-2.0502
  0
ENDSEC
  0
EOF
