  0
SECTION
  2
HEADER
  9
$ANGBASE
  50
0.0
  9
$ANGDIR
  70
1
  9
$MEASUREMENT
  70
0
  0
ENDSEC
  0
SECTION
  2
TABLES
  0
TABLE
  2
LTYPE
  70
4
  0
LTYPE
  5
40F
  2
CONTINUOUS
  70
0
  3
Solid line
  72
65
  73
0
  40
0.0
  0
LTYPE
  5
410
  2
DASHDOT
 70
0
  3
Dash Dot ____ _ ____ _
 72
65
 73
4
 40
2.0
 49
1.25
 49
-0.25
 49
0.25
 49
-0.25
  0
LTYPE
  5
411
  2
DASHED
 70
0
  3
Dashed __ __ __ __ __
 72
65
 73
2
 40
0.75
 49
0.5
 49
-0.25
  0
LTYPE
  5
43B
  2
DOTTED
 70
0
  3
Dotted .  .  .  .
 72
65
 73
2
 40
0.2
 49
0.0
 49
-0.2
  0
ENDTAB
  0
TABLE
  2
STYLE
  70
4
  0
STYLE
  2
KICAD
  70
0
  40
0
  41
1
  42
1
  50
0
  71
0
  3
isocp.shx
  0
STYLE
  2
KICADB
  70
0
  40
0
  41
1
  42
1
  50
0
  71
0
  3
isocp.shx
  0
STYLE
  2
KICADI
  70
0
  40
0
  41
1
  42
1
  50
15
  71
0
  3
isocp.shx
  0
STYLE
  2
KICADBI
  70
0
  40
0
  41
1
  42
1
  50
15
  71
0
  3
isocp.shx
  0
ENDTAB
  0
TABLE
  2
LAYER
  70
1
  0
LAYER
  2
BLACK
  70
0
  62
7
  6
CONTINUOUS
  0
ENDTAB
  0
ENDSEC
  0
SECTION
  2
ENTITIES
0
LINE
8
BLACK
6
CONTINUOUS
10
5.16555
20
-5.57637
11
5.17293
21
-5.57861
0
LINE
8
BLACK
6
CONTINUOUS
10
5.17293
20
-5.57861
11
5.17974
21
-5.58224
0
LINE
8
BLACK
6
CONTINUOUS
10
5.17974
20
-5.58224
11
5.1857
21
-5.58714
0
LINE
8
BLACK
6
CONTINUOUS
10
5.1857
20
-5.58714
11
5.19059
21
-5.5931
0
LINE
8
BLACK
6
CONTINUOUS
10
5.19059
20
-5.5931
11
5.19423
21
-5.5999
0
LINE
8
BLACK
6
CONTINUOUS
10
5.19423
20
-5.5999
11
5.19647
21
-5.60728
0
LINE
8
BLACK
6
CONTINUOUS
10
5.19647
20
-5.60728
11
5.19722
21
-5.61496
0
LINE
8
BLACK
6
CONTINUOUS
10
5.19722
20
-5.61496
11
5.19647
21
-5.62264
0
LINE
8
BLACK
6
CONTINUOUS
10
5.19647
20
-5.62264
11
5.19423
21
-5.63002
0
LINE
8
BLACK
6
CONTINUOUS
10
5.19423
20
-5.63002
11
5.19059
21
-5.63682
0
LINE
8
BLACK
6
CONTINUOUS
10
5.19059
20
-5.63682
11
5.1857
21
-5.64279
0
LINE
8
BLACK
6
CONTINUOUS
10
5.1857
20
-5.64279
11
5.17974
21
-5.64768
0
LINE
8
BLACK
6
CONTINUOUS
10
5.17974
20
-5.64768
11
5.17293
21
-5.65132
0
LINE
8
BLACK
6
CONTINUOUS
10
5.17293
20
-5.65132
11
5.16555
21
-5.65355
0
LINE
8
BLACK
6
CONTINUOUS
10
5.16555
20
-5.65355
11
5.15787
21
-5.65431
0
LINE
8
BLACK
6
CONTINUOUS
10
5.15787
20
-5.65431
11
5.1502
21
-5.65355
0
LINE
8
BLACK
6
CONTINUOUS
10
5.1502
20
-5.65355
11
5.14282
21
-5.65132
0
LINE
8
BLACK
6
CONTINUOUS
10
5.14282
20
-5.65132
11
5.13601
21
-5.64768
0
LINE
8
BLACK
6
CONTINUOUS
10
5.13601
20
-5.64768
11
5.13005
21
-5.64279
0
LINE
8
BLACK
6
CONTINUOUS
10
5.13005
20
-5.64279
11
5.12516
21
-5.63682
0
LINE
8
BLACK
6
CONTINUOUS
10
5.12516
20
-5.63682
11
5.12152
21
-5.63002
0
LINE
8
BLACK
6
CONTINUOUS
10
5.12152
20
-5.63002
11
5.11928
21
-5.62264
0
LINE
8
BLACK
6
CONTINUOUS
10
5.11928
20
-5.62264
11
5.11852
21
-5.61496
0
LINE
8
BLACK
6
CONTINUOUS
10
5.11852
20
-5.61496
11
5.11928
21
-5.60728
0
LINE
8
BLACK
6
CONTINUOUS
10
5.11928
20
-5.60728
11
5.12152
21
-5.5999
0
LINE
8
BLACK
6
CONTINUOUS
10
5.12152
20
-5.5999
11
5.12516
21
-5.5931
0
LINE
8
BLACK
6
CONTINUOUS
10
5.12516
20
-5.5931
11
5.13005
21
-5.58714
0
LINE
8
BLACK
6
CONTINUOUS
10
5.13005
20
-5.58714
11
5.13601
21
-5.58224
0
LINE
8
BLACK
6
CONTINUOUS
10
5.13601
20
-5.58224
11
5.14282
21
-5.57861
0
LINE
8
BLACK
6
CONTINUOUS
10
5.14282
20
-5.57861
11
5.1502
21
-5.57637
0
LINE
8
BLACK
6
CONTINUOUS
10
5.1502
20
-5.57637
11
5.15787
21
-5.57561
0
LINE
8
BLACK
6
CONTINUOUS
10
5.15787
20
-5.57561
11
5.16555
21
-5.57637
0
LINE
8
BLACK
6
CONTINUOUS
10
6.12972
20
-5.57637
11
6.13711
21
-5.57861
0
LINE
8
BLACK
6
CONTINUOUS
10
6.13711
20
-5.57861
11
6.14391
21
-5.58224
0
LINE
8
BLACK
6
CONTINUOUS
10
6.14391
20
-5.58224
11
6.14987
21
-5.58714
0
LINE
8
BLACK
6
CONTINUOUS
10
6.14987
20
-5.58714
11
6.15477
21
-5.5931
0
LINE
8
BLACK
6
CONTINUOUS
10
6.15477
20
-5.5931
11
6.1584
21
-5.5999
0
LINE
8
BLACK
6
CONTINUOUS
10
6.1584
20
-5.5999
11
6.16064
21
-5.60728
0
LINE
8
BLACK
6
CONTINUOUS
10
6.16064
20
-5.60728
11
6.1614
21
-5.61496
0
LINE
8
BLACK
6
CONTINUOUS
10
6.1614
20
-5.61496
11
6.16064
21
-5.62264
0
LINE
8
BLACK
6
CONTINUOUS
10
6.16064
20
-5.62264
11
6.1584
21
-5.63002
0
LINE
8
BLACK
6
CONTINUOUS
10
6.1584
20
-5.63002
11
6.15477
21
-5.63682
0
LINE
8
BLACK
6
CONTINUOUS
10
6.15477
20
-5.63682
11
6.14987
21
-5.64279
0
LINE
8
BLACK
6
CONTINUOUS
10
6.14987
20
-5.64279
11
6.14391
21
-5.64768
0
LINE
8
BLACK
6
CONTINUOUS
10
6.14391
20
-5.64768
11
6.13711
21
-5.65132
0
LINE
8
BLACK
6
CONTINUOUS
10
6.13711
20
-5.65132
11
6.12972
21
-5.65355
0
LINE
8
BLACK
6
CONTINUOUS
10
6.12972
20
-5.65355
11
6.12205
21
-5.65431
0
LINE
8
BLACK
6
CONTINUOUS
10
6.12205
20
-5.65431
11
6.11437
21
-5.65355
0
LINE
8
BLACK
6
CONTINUOUS
10
6.11437
20
-5.65355
11
6.10699
21
-5.65132
0
LINE
8
BLACK
6
CONTINUOUS
10
6.10699
20
-5.65132
11
6.10019
21
-5.64768
0
LINE
8
BLACK
6
CONTINUOUS
10
6.10019
20
-5.64768
11
6.09422
21
-5.64279
0
LINE
8
BLACK
6
CONTINUOUS
10
6.09422
20
-5.64279
11
6.08933
21
-5.63682
0
LINE
8
BLACK
6
CONTINUOUS
10
6.08933
20
-5.63682
11
6.08569
21
-5.63002
0
LINE
8
BLACK
6
CONTINUOUS
10
6.08569
20
-5.63002
11
6.08345
21
-5.62264
0
LINE
8
BLACK
6
CONTINUOUS
10
6.08345
20
-5.62264
11
6.0827
21
-5.61496
0
LINE
8
BLACK
6
CONTINUOUS
10
6.0827
20
-5.61496
11
6.08345
21
-5.60728
0
LINE
8
BLACK
6
CONTINUOUS
10
6.08345
20
-5.60728
11
6.08569
21
-5.5999
0
LINE
8
BLACK
6
CONTINUOUS
10
6.08569
20
-5.5999
11
6.08933
21
-5.5931
0
LINE
8
BLACK
6
CONTINUOUS
10
6.08933
20
-5.5931
11
6.09422
21
-5.58714
0
LINE
8
BLACK
6
CONTINUOUS
10
6.09422
20
-5.58714
11
6.10019
21
-5.58224
0
LINE
8
BLACK
6
CONTINUOUS
10
6.10019
20
-5.58224
11
6.10699
21
-5.57861
0
LINE
8
BLACK
6
CONTINUOUS
10
6.10699
20
-5.57861
11
6.11437
21
-5.57637
0
LINE
8
BLACK
6
CONTINUOUS
10
6.11437
20
-5.57637
11
6.12205
21
-5.57561
0
LINE
8
BLACK
6
CONTINUOUS
10
6.12205
20
-5.57561
11
6.12972
21
-5.57637
0
LINE
8
BLACK
6
CONTINUOUS
10
5.0376
20
-5.57558
11
5.04498
21
-5.57782
0
LINE
8
BLACK
6
CONTINUOUS
10
5.04498
20
-5.57782
11
5.05178
21
-5.58145
0
LINE
8
BLACK
6
CONTINUOUS
10
5.05178
20
-5.58145
11
5.05775
21
-5.58635
0
LINE
8
BLACK
6
CONTINUOUS
10
5.05775
20
-5.58635
11
5.06264
21
-5.59231
0
LINE
8
BLACK
6
CONTINUOUS
10
5.06264
20
-5.59231
11
5.06628
21
-5.59911
0
LINE
8
BLACK
6
CONTINUOUS
10
5.06628
20
-5.59911
11
5.06852
21
-5.6065
0
LINE
8
BLACK
6
CONTINUOUS
10
5.06852
20
-5.6065
11
5.06927
21
-5.61417
0
LINE
8
BLACK
6
CONTINUOUS
10
5.06927
20
-5.61417
11
5.06852
21
-5.62185
0
LINE
8
BLACK
6
CONTINUOUS
10
5.06852
20
-5.62185
11
5.06628
21
-5.62923
0
LINE
8
BLACK
6
CONTINUOUS
10
5.06628
20
-5.62923
11
5.06264
21
-5.63603
0
LINE
8
BLACK
6
CONTINUOUS
10
5.06264
20
-5.63603
11
5.05775
21
-5.642
0
LINE
8
BLACK
6
CONTINUOUS
10
5.05775
20
-5.642
11
5.05178
21
-5.64689
0
LINE
8
BLACK
6
CONTINUOUS
10
5.05178
20
-5.64689
11
5.04498
21
-5.65053
0
LINE
8
BLACK
6
CONTINUOUS
10
5.04498
20
-5.65053
11
5.0376
21
-5.65277
0
LINE
8
BLACK
6
CONTINUOUS
10
5.0376
20
-5.65277
11
5.02992
21
-5.65352
0
LINE
8
BLACK
6
CONTINUOUS
10
5.02992
20
-5.65352
11
5.02224
21
-5.65277
0
LINE
8
BLACK
6
CONTINUOUS
10
5.02224
20
-5.65277
11
5.01486
21
-5.65053
0
LINE
8
BLACK
6
CONTINUOUS
10
5.01486
20
-5.65053
11
5.00806
21
-5.64689
0
LINE
8
BLACK
6
CONTINUOUS
10
5.00806
20
-5.64689
11
5.0021
21
-5.642
0
LINE
8
BLACK
6
CONTINUOUS
10
5.0021
20
-5.642
11
4.9972
21
-5.63603
0
LINE
8
BLACK
6
CONTINUOUS
10
4.9972
20
-5.63603
11
4.99357
21
-5.62923
0
LINE
8
BLACK
6
CONTINUOUS
10
4.99357
20
-5.62923
11
4.99133
21
-5.62185
0
LINE
8
BLACK
6
CONTINUOUS
10
4.99133
20
-5.62185
11
4.99057
21
-5.61417
0
LINE
8
BLACK
6
CONTINUOUS
10
4.99057
20
-5.61417
11
4.99133
21
-5.6065
0
LINE
8
BLACK
6
CONTINUOUS
10
4.99133
20
-5.6065
11
4.99357
21
-5.59911
0
LINE
8
BLACK
6
CONTINUOUS
10
4.99357
20
-5.59911
11
4.9972
21
-5.59231
0
LINE
8
BLACK
6
CONTINUOUS
10
4.9972
20
-5.59231
11
5.0021
21
-5.58635
0
LINE
8
BLACK
6
CONTINUOUS
10
5.0021
20
-5.58635
11
5.00806
21
-5.58145
0
LINE
8
BLACK
6
CONTINUOUS
10
5.00806
20
-5.58145
11
5.01486
21
-5.57782
0
LINE
8
BLACK
6
CONTINUOUS
10
5.01486
20
-5.57782
11
5.02224
21
-5.57558
0
LINE
8
BLACK
6
CONTINUOUS
10
5.02224
20
-5.57558
11
5.02992
21
-5.57482
0
LINE
8
BLACK
6
CONTINUOUS
10
5.02992
20
-5.57482
11
5.0376
21
-5.57558
0
LINE
8
BLACK
6
CONTINUOUS
10
5.16555
20
-5.27637
11
5.17293
21
-5.27861
0
LINE
8
BLACK
6
CONTINUOUS
10
5.17293
20
-5.27861
11
5.17974
21
-5.28224
0
LINE
8
BLACK
6
CONTINUOUS
10
5.17974
20
-5.28224
11
5.1857
21
-5.28714
0
LINE
8
BLACK
6
CONTINUOUS
10
5.1857
20
-5.28714
11
5.19059
21
-5.2931
0
LINE
8
BLACK
6
CONTINUOUS
10
5.19059
20
-5.2931
11
5.19423
21
-5.2999
0
LINE
8
BLACK
6
CONTINUOUS
10
5.19423
20
-5.2999
11
5.19647
21
-5.30728
0
LINE
8
BLACK
6
CONTINUOUS
10
5.19647
20
-5.30728
11
5.19722
21
-5.31496
0
LINE
8
BLACK
6
CONTINUOUS
10
5.19722
20
-5.31496
11
5.19647
21
-5.32264
0
LINE
8
BLACK
6
CONTINUOUS
10
5.19647
20
-5.32264
11
5.19423
21
-5.33002
0
LINE
8
BLACK
6
CONTINUOUS
10
5.19423
20
-5.33002
11
5.19059
21
-5.33682
0
LINE
8
BLACK
6
CONTINUOUS
10
5.19059
20
-5.33682
11
5.1857
21
-5.34279
0
LINE
8
BLACK
6
CONTINUOUS
10
5.1857
20
-5.34279
11
5.17974
21
-5.34768
0
LINE
8
BLACK
6
CONTINUOUS
10
5.17974
20
-5.34768
11
5.17293
21
-5.35132
0
LINE
8
BLACK
6
CONTINUOUS
10
5.17293
20
-5.35132
11
5.16555
21
-5.35355
0
LINE
8
BLACK
6
CONTINUOUS
10
5.16555
20
-5.35355
11
5.15787
21
-5.35431
0
LINE
8
BLACK
6
CONTINUOUS
10
5.15787
20
-5.35431
11
5.1502
21
-5.35355
0
LINE
8
BLACK
6
CONTINUOUS
10
5.1502
20
-5.35355
11
5.14282
21
-5.35132
0
LINE
8
BLACK
6
CONTINUOUS
10
5.14282
20
-5.35132
11
5.13601
21
-5.34768
0
LINE
8
BLACK
6
CONTINUOUS
10
5.13601
20
-5.34768
11
5.13005
21
-5.34279
0
LINE
8
BLACK
6
CONTINUOUS
10
5.13005
20
-5.34279
11
5.12516
21
-5.33682
0
LINE
8
BLACK
6
CONTINUOUS
10
5.12516
20
-5.33682
11
5.12152
21
-5.33002
0
LINE
8
BLACK
6
CONTINUOUS
10
5.12152
20
-5.33002
11
5.11928
21
-5.32264
0
LINE
8
BLACK
6
CONTINUOUS
10
5.11928
20
-5.32264
11
5.11852
21
-5.31496
0
LINE
8
BLACK
6
CONTINUOUS
10
5.11852
20
-5.31496
11
5.11928
21
-5.30728
0
LINE
8
BLACK
6
CONTINUOUS
10
5.11928
20
-5.30728
11
5.12152
21
-5.2999
0
LINE
8
BLACK
6
CONTINUOUS
10
5.12152
20
-5.2999
11
5.12516
21
-5.2931
0
LINE
8
BLACK
6
CONTINUOUS
10
5.12516
20
-5.2931
11
5.13005
21
-5.28714
0
LINE
8
BLACK
6
CONTINUOUS
10
5.13005
20
-5.28714
11
5.13601
21
-5.28224
0
LINE
8
BLACK
6
CONTINUOUS
10
5.13601
20
-5.28224
11
5.14282
21
-5.27861
0
LINE
8
BLACK
6
CONTINUOUS
10
5.14282
20
-5.27861
11
5.1502
21
-5.27637
0
LINE
8
BLACK
6
CONTINUOUS
10
5.1502
20
-5.27637
11
5.15787
21
-5.27561
0
LINE
8
BLACK
6
CONTINUOUS
10
5.15787
20
-5.27561
11
5.16555
21
-5.27637
0
LINE
8
BLACK
6
CONTINUOUS
10
6.12972
20
-5.27637
11
6.13711
21
-5.27861
0
LINE
8
BLACK
6
CONTINUOUS
10
6.13711
20
-5.27861
11
6.14391
21
-5.28224
0
LINE
8
BLACK
6
CONTINUOUS
10
6.14391
20
-5.28224
11
6.14987
21
-5.28714
0
LINE
8
BLACK
6
CONTINUOUS
10
6.14987
20
-5.28714
11
6.15477
21
-5.2931
0
LINE
8
BLACK
6
CONTINUOUS
10
6.15477
20
-5.2931
11
6.1584
21
-5.2999
0
LINE
8
BLACK
6
CONTINUOUS
10
6.1584
20
-5.2999
11
6.16064
21
-5.30728
0
LINE
8
BLACK
6
CONTINUOUS
10
6.16064
20
-5.30728
11
6.1614
21
-5.31496
0
LINE
8
BLACK
6
CONTINUOUS
10
6.1614
20
-5.31496
11
6.16064
21
-5.32264
0
LINE
8
BLACK
6
CONTINUOUS
10
6.16064
20
-5.32264
11
6.1584
21
-5.33002
0
LINE
8
BLACK
6
CONTINUOUS
10
6.1584
20
-5.33002
11
6.15477
21
-5.33682
0
LINE
8
BLACK
6
CONTINUOUS
10
6.15477
20
-5.33682
11
6.14987
21
-5.34279
0
LINE
8
BLACK
6
CONTINUOUS
10
6.14987
20
-5.34279
11
6.14391
21
-5.34768
0
LINE
8
BLACK
6
CONTINUOUS
10
6.14391
20
-5.34768
11
6.13711
21
-5.35132
0
LINE
8
BLACK
6
CONTINUOUS
10
6.13711
20
-5.35132
11
6.12972
21
-5.35355
0
LINE
8
BLACK
6
CONTINUOUS
10
6.12972
20
-5.35355
11
6.12205
21
-5.35431
0
LINE
8
BLACK
6
CONTINUOUS
10
6.12205
20
-5.35431
11
6.11437
21
-5.35355
0
LINE
8
BLACK
6
CONTINUOUS
10
6.11437
20
-5.35355
11
6.10699
21
-5.35132
0
LINE
8
BLACK
6
CONTINUOUS
10
6.10699
20
-5.35132
11
6.10019
21
-5.34768
0
LINE
8
BLACK
6
CONTINUOUS
10
6.10019
20
-5.34768
11
6.09422
21
-5.34279
0
LINE
8
BLACK
6
CONTINUOUS
10
6.09422
20
-5.34279
11
6.08933
21
-5.33682
0
LINE
8
BLACK
6
CONTINUOUS
10
6.08933
20
-5.33682
11
6.08569
21
-5.33002
0
LINE
8
BLACK
6
CONTINUOUS
10
6.08569
20
-5.33002
11
6.08345
21
-5.32264
0
LINE
8
BLACK
6
CONTINUOUS
10
6.08345
20
-5.32264
11
6.0827
21
-5.31496
0
LINE
8
BLACK
6
CONTINUOUS
10
6.0827
20
-5.31496
11
6.08345
21
-5.30728
0
LINE
8
BLACK
6
CONTINUOUS
10
6.08345
20
-5.30728
11
6.08569
21
-5.2999
0
LINE
8
BLACK
6
CONTINUOUS
10
6.08569
20
-5.2999
11
6.08933
21
-5.2931
0
LINE
8
BLACK
6
CONTINUOUS
10
6.08933
20
-5.2931
11
6.09422
21
-5.28714
0
LINE
8
BLACK
6
CONTINUOUS
10
6.09422
20
-5.28714
11
6.10019
21
-5.28224
0
LINE
8
BLACK
6
CONTINUOUS
10
6.10019
20
-5.28224
11
6.10699
21
-5.27861
0
LINE
8
BLACK
6
CONTINUOUS
10
6.10699
20
-5.27861
11
6.11437
21
-5.27637
0
LINE
8
BLACK
6
CONTINUOUS
10
6.11437
20
-5.27637
11
6.12205
21
-5.27561
0
LINE
8
BLACK
6
CONTINUOUS
10
6.12205
20
-5.27561
11
6.12972
21
-5.27637
0
LINE
8
BLACK
6
CONTINUOUS
10
5.0376
20
-5.27558
11
5.04498
21
-5.27782
0
LINE
8
BLACK
6
CONTINUOUS
10
5.04498
20
-5.27782
11
5.05178
21
-5.28145
0
LINE
8
BLACK
6
CONTINUOUS
10
5.05178
20
-5.28145
11
5.05775
21
-5.28635
0
LINE
8
BLACK
6
CONTINUOUS
10
5.05775
20
-5.28635
11
5.06264
21
-5.29231
0
LINE
8
BLACK
6
CONTINUOUS
10
5.06264
20
-5.29231
11
5.06628
21
-5.29911
0
LINE
8
BLACK
6
CONTINUOUS
10
5.06628
20
-5.29911
11
5.06852
21
-5.3065
0
LINE
8
BLACK
6
CONTINUOUS
10
5.06852
20
-5.3065
11
5.06927
21
-5.31417
0
LINE
8
BLACK
6
CONTINUOUS
10
5.06927
20
-5.31417
11
5.06852
21
-5.32185
0
LINE
8
BLACK
6
CONTINUOUS
10
5.06852
20
-5.32185
11
5.06628
21
-5.32923
0
LINE
8
BLACK
6
CONTINUOUS
10
5.06628
20
-5.32923
11
5.06264
21
-5.33603
0
LINE
8
BLACK
6
CONTINUOUS
10
5.06264
20
-5.33603
11
5.05775
21
-5.342
0
LINE
8
BLACK
6
CONTINUOUS
10
5.05775
20
-5.342
11
5.05178
21
-5.34689
0
LINE
8
BLACK
6
CONTINUOUS
10
5.05178
20
-5.34689
11
5.04498
21
-5.35053
0
LINE
8
BLACK
6
CONTINUOUS
10
5.04498
20
-5.35053
11
5.0376
21
-5.35277
0
LINE
8
BLACK
6
CONTINUOUS
10
5.0376
20
-5.35277
11
5.02992
21
-5.35352
0
LINE
8
BLACK
6
CONTINUOUS
10
5.02992
20
-5.35352
11
5.02224
21
-5.35277
0
LINE
8
BLACK
6
CONTINUOUS
10
5.02224
20
-5.35277
11
5.01486
21
-5.35053
0
LINE
8
BLACK
6
CONTINUOUS
10
5.01486
20
-5.35053
11
5.00806
21
-5.34689
0
LINE
8
BLACK
6
CONTINUOUS
10
5.00806
20
-5.34689
11
5.0021
21
-5.342
0
LINE
8
BLACK
6
CONTINUOUS
10
5.0021
20
-5.342
11
4.9972
21
-5.33603
0
LINE
8
BLACK
6
CONTINUOUS
10
4.9972
20
-5.33603
11
4.99357
21
-5.32923
0
LINE
8
BLACK
6
CONTINUOUS
10
4.99357
20
-5.32923
11
4.99133
21
-5.32185
0
LINE
8
BLACK
6
CONTINUOUS
10
4.99133
20
-5.32185
11
4.99057
21
-5.31417
0
LINE
8
BLACK
6
CONTINUOUS
10
4.99057
20
-5.31417
11
4.99133
21
-5.3065
0
LINE
8
BLACK
6
CONTINUOUS
10
4.99133
20
-5.3065
11
4.99357
21
-5.29911
0
LINE
8
BLACK
6
CONTINUOUS
10
4.99357
20
-5.29911
11
4.9972
21
-5.29231
0
LINE
8
BLACK
6
CONTINUOUS
10
4.9972
20
-5.29231
11
5.0021
21
-5.28635
0
LINE
8
BLACK
6
CONTINUOUS
10
5.0021
20
-5.28635
11
5.00806
21
-5.28145
0
LINE
8
BLACK
6
CONTINUOUS
10
5.00806
20
-5.28145
11
5.01486
21
-5.27782
0
LINE
8
BLACK
6
CONTINUOUS
10
5.01486
20
-5.27782
11
5.02224
21
-5.27558
0
LINE
8
BLACK
6
CONTINUOUS
10
5.02224
20
-5.27558
11
5.02992
21
-5.27482
0
LINE
8
BLACK
6
CONTINUOUS
10
5.02992
20
-5.27482
11
5.0376
21
-5.27558
0
LINE
8
BLACK
6
CONTINUOUS
10
4.9086
20
-3.77476
11
4.90874
21
-3.77487
0
LINE
8
BLACK
6
CONTINUOUS
10
4.90874
20
-3.77487
11
4.90891
21
-3.77489
0
LINE
8
BLACK
6
CONTINUOUS
10
4.90891
20
-3.77489
11
4.91266
21
-3.77677
0
LINE
8
BLACK
6
CONTINUOUS
10
4.91266
20
-3.77677
11
4.91337
21
-3.77729
0
LINE
8
BLACK
6
CONTINUOUS
10
4.91337
20
-3.77729
11
4.91343
21
-3.77732
0
LINE
8
BLACK
6
CONTINUOUS
10
4.91343
20
-3.77732
11
4.91718
21
-3.78107
0
LINE
8
BLACK
6
CONTINUOUS
10
4.91718
20
-3.78107
11
4.91777
21
-3.78191
0
LINE
8
BLACK
6
CONTINUOUS
10
4.91777
20
-3.78191
11
4.91779
21
-3.7822
0
LINE
8
BLACK
6
CONTINUOUS
10
4.91779
20
-3.7822
11
4.91796
21
-3.78244
0
LINE
8
BLACK
6
CONTINUOUS
10
4.91796
20
-3.78244
11
4.91983
21
-3.78994
0
LINE
8
BLACK
6
CONTINUOUS
10
4.91983
20
-3.78994
11
4.91987
21
-3.79053
0
LINE
8
BLACK
6
CONTINUOUS
10
4.91987
20
-3.79053
11
4.91992
21
-3.79066
0
LINE
8
BLACK
6
CONTINUOUS
10
4.91992
20
-3.79066
11
4.91992
21
-3.80378
0
LINE
8
BLACK
6
CONTINUOUS
10
4.91992
20
-3.80378
11
4.91982
21
-3.80436
0
LINE
8
BLACK
6
CONTINUOUS
10
4.91982
20
-3.80436
11
4.91983
21
-3.8045
0
LINE
8
BLACK
6
CONTINUOUS
10
4.91983
20
-3.8045
11
4.91796
21
-3.812
0
LINE
8
BLACK
6
CONTINUOUS
10
4.91796
20
-3.812
11
4.91754
21
-3.81293
0
LINE
8
BLACK
6
CONTINUOUS
10
4.91754
20
-3.81293
11
4.9173
21
-3.8131
0
LINE
8
BLACK
6
CONTINUOUS
10
4.9173
20
-3.8131
11
4.91718
21
-3.81337
0
LINE
8
BLACK
6
CONTINUOUS
10
4.91718
20
-3.81337
11
4.91343
21
-3.81712
0
LINE
8
BLACK
6
CONTINUOUS
10
4.91343
20
-3.81712
11
4.91271
21
-3.81762
0
LINE
8
BLACK
6
CONTINUOUS
10
4.91271
20
-3.81762
11
4.91266
21
-3.81767
0
LINE
8
BLACK
6
CONTINUOUS
10
4.91266
20
-3.81767
11
4.90891
21
-3.81954
0
LINE
8
BLACK
6
CONTINUOUS
10
4.90891
20
-3.81954
11
4.90793
21
-3.81984
0
LINE
8
BLACK
6
CONTINUOUS
10
4.90793
20
-3.81984
11
4.90776
21
-3.8198
0
LINE
8
BLACK
6
CONTINUOUS
10
4.90776
20
-3.8198
11
4.90759
21
-3.81986
0
LINE
8
BLACK
6
CONTINUOUS
10
4.90759
20
-3.81986
11
4.90009
21
-3.81986
0
LINE
8
BLACK
6
CONTINUOUS
10
4.90009
20
-3.81986
11
4.89908
21
-3.81968
0
LINE
8
BLACK
6
CONTINUOUS
10
4.89908
20
-3.81968
11
4.89895
21
-3.81956
0
LINE
8
BLACK
6
CONTINUOUS
10
4.89895
20
-3.81956
11
4.89877
21
-3.81954
0
LINE
8
BLACK
6
CONTINUOUS
10
4.89877
20
-3.81954
11
4.89502
21
-3.81767
0
LINE
8
BLACK
6
CONTINUOUS
10
4.89502
20
-3.81767
11
4.89431
21
-3.81714
0
LINE
8
BLACK
6
CONTINUOUS
10
4.89431
20
-3.81714
11
4.89426
21
-3.81712
0
LINE
8
BLACK
6
CONTINUOUS
10
4.89426
20
-3.81712
11
4.89051
21
-3.81337
0
LINE
8
BLACK
6
CONTINUOUS
10
4.89051
20
-3.81337
11
4.88992
21
-3.81253
0
LINE
8
BLACK
6
CONTINUOUS
10
4.88992
20
-3.81253
11
4.88989
21
-3.81224
0
LINE
8
BLACK
6
CONTINUOUS
10
4.88989
20
-3.81224
11
4.88973
21
-3.812
0
LINE
8
BLACK
6
CONTINUOUS
10
4.88973
20
-3.812
11
4.88786
21
-3.8045
0
LINE
8
BLACK
6
CONTINUOUS
10
4.88786
20
-3.8045
11
4.88781
21
-3.80391
0
LINE
8
BLACK
6
CONTINUOUS
10
4.88781
20
-3.80391
11
4.88777
21
-3.80378
0
LINE
8
BLACK
6
CONTINUOUS
10
4.88777
20
-3.80378
11
4.88777
21
-3.79066
0
LINE
8
BLACK
6
CONTINUOUS
10
4.88777
20
-3.79066
11
4.88787
21
-3.79008
0
LINE
8
BLACK
6
CONTINUOUS
10
4.88787
20
-3.79008
11
4.88786
21
-3.78994
0
LINE
8
BLACK
6
CONTINUOUS
10
4.88786
20
-3.78994
11
4.88973
21
-3.78244
0
LINE
8
BLACK
6
CONTINUOUS
10
4.88973
20
-3.78244
11
4.89015
21
-3.78151
0
LINE
8
BLACK
6
CONTINUOUS
10
4.89015
20
-3.78151
11
4.89038
21
-3.78133
0
LINE
8
BLACK
6
CONTINUOUS
10
4.89038
20
-3.78133
11
4.89051
21
-3.78107
0
LINE
8
BLACK
6
CONTINUOUS
10
4.89051
20
-3.78107
11
4.89426
21
-3.77732
0
LINE
8
BLACK
6
CONTINUOUS
10
4.89426
20
-3.77732
11
4.89498
21
-3.77681
0
LINE
8
BLACK
6
CONTINUOUS
10
4.89498
20
-3.77681
11
4.89502
21
-3.77677
0
LINE
8
BLACK
6
CONTINUOUS
10
4.89502
20
-3.77677
11
4.89877
21
-3.77489
0
LINE
8
BLACK
6
CONTINUOUS
10
4.89877
20
-3.77489
11
4.89976
21
-3.7746
0
LINE
8
BLACK
6
CONTINUOUS
10
4.89976
20
-3.7746
11
4.89993
21
-3.77464
0
LINE
8
BLACK
6
CONTINUOUS
10
4.89993
20
-3.77464
11
4.90009
21
-3.77458
0
LINE
8
BLACK
6
CONTINUOUS
10
4.90009
20
-3.77458
11
4.90759
21
-3.77458
0
LINE
8
BLACK
6
CONTINUOUS
10
4.90759
20
-3.77458
11
4.9086
21
-3.77476
0
LINE
8
BLACK
6
CONTINUOUS
10
4.89809
20
-3.78183
11
4.89526
21
-3.78467
0
LINE
8
BLACK
6
CONTINUOUS
10
4.89526
20
-3.78467
11
4.89367
21
-3.79102
0
LINE
8
BLACK
6
CONTINUOUS
10
4.89367
20
-3.79102
11
4.89367
21
-3.80342
0
LINE
8
BLACK
6
CONTINUOUS
10
4.89367
20
-3.80342
11
4.89526
21
-3.80977
0
LINE
8
BLACK
6
CONTINUOUS
10
4.89526
20
-3.80977
11
4.89809
21
-3.8126
0
LINE
8
BLACK
6
CONTINUOUS
10
4.89809
20
-3.8126
11
4.90079
21
-3.81395
0
LINE
8
BLACK
6
CONTINUOUS
10
4.90079
20
-3.81395
11
4.9069
21
-3.81395
0
LINE
8
BLACK
6
CONTINUOUS
10
4.9069
20
-3.81395
11
4.90959
21
-3.8126
0
LINE
8
BLACK
6
CONTINUOUS
10
4.90959
20
-3.8126
11
4.91243
21
-3.80977
0
LINE
8
BLACK
6
CONTINUOUS
10
4.91243
20
-3.80977
11
4.91401
21
-3.80342
0
LINE
8
BLACK
6
CONTINUOUS
10
4.91401
20
-3.80342
11
4.91401
21
-3.79102
0
LINE
8
BLACK
6
CONTINUOUS
10
4.91401
20
-3.79102
11
4.91243
21
-3.78467
0
LINE
8
BLACK
6
CONTINUOUS
10
4.91243
20
-3.78467
11
4.90959
21
-3.78183
0
LINE
8
BLACK
6
CONTINUOUS
10
4.90959
20
-3.78183
11
4.9069
21
-3.78049
0
LINE
8
BLACK
6
CONTINUOUS
10
4.9069
20
-3.78049
11
4.90079
21
-3.78049
0
LINE
8
BLACK
6
CONTINUOUS
10
4.90079
20
-3.78049
11
4.89809
21
-3.78183
0
LINE
8
BLACK
6
CONTINUOUS
10
4.86683
20
-3.7748
11
4.86775
21
-3.77494
0
LINE
8
BLACK
6
CONTINUOUS
10
4.86775
20
-3.77494
11
4.86781
21
-3.775
0
LINE
8
BLACK
6
CONTINUOUS
10
4.86781
20
-3.775
11
4.86789
21
-3.77502
0
LINE
8
BLACK
6
CONTINUOUS
10
4.86789
20
-3.77502
11
4.86847
21
-3.77575
0
LINE
8
BLACK
6
CONTINUOUS
10
4.86847
20
-3.77575
11
4.86909
21
-3.77645
0
LINE
8
BLACK
6
CONTINUOUS
10
4.86909
20
-3.77645
11
4.8691
21
-3.77653
0
LINE
8
BLACK
6
CONTINUOUS
10
4.8691
20
-3.77653
11
4.86915
21
-3.7766
0
LINE
8
BLACK
6
CONTINUOUS
10
4.86915
20
-3.7766
11
4.88227
21
-3.81597
0
LINE
8
BLACK
6
CONTINUOUS
10
4.88227
20
-3.81597
11
4.88242
21
-3.81698
0
LINE
8
BLACK
6
CONTINUOUS
10
4.88242
20
-3.81698
11
4.88168
21
-3.81886
0
LINE
8
BLACK
6
CONTINUOUS
10
4.88168
20
-3.81886
11
4.8799
21
-3.81982
0
LINE
8
BLACK
6
CONTINUOUS
10
4.8799
20
-3.81982
11
4.87793
21
-3.81942
0
LINE
8
BLACK
6
CONTINUOUS
10
4.87793
20
-3.81942
11
4.87667
21
-3.81784
0
LINE
8
BLACK
6
CONTINUOUS
10
4.87667
20
-3.81784
11
4.86635
21
-3.78687
0
LINE
8
BLACK
6
CONTINUOUS
10
4.86635
20
-3.78687
11
4.85603
21
-3.81784
0
LINE
8
BLACK
6
CONTINUOUS
10
4.85603
20
-3.81784
11
4.85554
21
-3.81874
0
LINE
8
BLACK
6
CONTINUOUS
10
4.85554
20
-3.81874
11
4.85382
21
-3.8198
0
LINE
8
BLACK
6
CONTINUOUS
10
4.85382
20
-3.8198
11
4.85182
21
-3.8195
0
LINE
8
BLACK
6
CONTINUOUS
10
4.85182
20
-3.8195
11
4.85048
21
-3.81799
0
LINE
8
BLACK
6
CONTINUOUS
10
4.85048
20
-3.81799
11
4.85042
21
-3.81597
0
LINE
8
BLACK
6
CONTINUOUS
10
4.85042
20
-3.81597
11
4.86355
21
-3.7766
0
LINE
8
BLACK
6
CONTINUOUS
10
4.86355
20
-3.7766
11
4.86404
21
-3.7757
0
LINE
8
BLACK
6
CONTINUOUS
10
4.86404
20
-3.7757
11
4.86411
21
-3.77565
0
LINE
8
BLACK
6
CONTINUOUS
10
4.86411
20
-3.77565
11
4.86414
21
-3.77557
0
LINE
8
BLACK
6
CONTINUOUS
10
4.86414
20
-3.77557
11
4.86496
21
-3.77513
0
LINE
8
BLACK
6
CONTINUOUS
10
4.86496
20
-3.77513
11
4.86576
21
-3.77464
0
LINE
8
BLACK
6
CONTINUOUS
10
4.86576
20
-3.77464
11
4.86584
21
-3.77465
0
LINE
8
BLACK
6
CONTINUOUS
10
4.86584
20
-3.77465
11
4.86591
21
-3.77461
0
LINE
8
BLACK
6
CONTINUOUS
10
4.86591
20
-3.77461
11
4.86683
21
-3.7748
0
LINE
8
BLACK
6
CONTINUOUS
10
4.9536
20
-3.77476
11
4.95514
21
-3.77606
0
LINE
8
BLACK
6
CONTINUOUS
10
4.95514
20
-3.77606
11
4.9555
21
-3.77805
0
LINE
8
BLACK
6
CONTINUOUS
10
4.9555
20
-3.77805
11
4.95449
21
-3.7798
0
LINE
8
BLACK
6
CONTINUOUS
10
4.95449
20
-3.7798
11
4.95259
21
-3.78049
0
LINE
8
BLACK
6
CONTINUOUS
10
4.95259
20
-3.78049
11
4.93679
21
-3.78049
0
LINE
8
BLACK
6
CONTINUOUS
10
4.93679
20
-3.78049
11
4.93679
21
-3.8169
0
LINE
8
BLACK
6
CONTINUOUS
10
4.93679
20
-3.8169
11
4.93661
21
-3.81791
0
LINE
8
BLACK
6
CONTINUOUS
10
4.93661
20
-3.81791
11
4.93532
21
-3.81946
0
LINE
8
BLACK
6
CONTINUOUS
10
4.93532
20
-3.81946
11
4.93333
21
-3.81981
0
LINE
8
BLACK
6
CONTINUOUS
10
4.93333
20
-3.81981
11
4.93158
21
-3.8188
0
LINE
8
BLACK
6
CONTINUOUS
10
4.93158
20
-3.8188
11
4.93089
21
-3.8169
0
LINE
8
BLACK
6
CONTINUOUS
10
4.93089
20
-3.8169
11
4.93089
21
-3.77753
0
LINE
8
BLACK
6
CONTINUOUS
10
4.93089
20
-3.77753
11
4.93095
21
-3.77715
0
LINE
8
BLACK
6
CONTINUOUS
10
4.93095
20
-3.77715
11
4.93093
21
-3.77702
0
LINE
8
BLACK
6
CONTINUOUS
10
4.93093
20
-3.77702
11
4.931
21
-3.77691
0
LINE
8
BLACK
6
CONTINUOUS
10
4.931
20
-3.77691
11
4.93106
21
-3.77652
0
LINE
8
BLACK
6
CONTINUOUS
10
4.93106
20
-3.77652
11
4.93156
21
-3.77594
0
LINE
8
BLACK
6
CONTINUOUS
10
4.93156
20
-3.77594
11
4.93194
21
-3.77527
0
LINE
8
BLACK
6
CONTINUOUS
10
4.93194
20
-3.77527
11
4.93219
21
-3.77518
0
LINE
8
BLACK
6
CONTINUOUS
10
4.93219
20
-3.77518
11
4.93236
21
-3.77498
0
LINE
8
BLACK
6
CONTINUOUS
10
4.93236
20
-3.77498
11
4.93312
21
-3.77484
0
LINE
8
BLACK
6
CONTINUOUS
10
4.93312
20
-3.77484
11
4.93384
21
-3.77458
0
LINE
8
BLACK
6
CONTINUOUS
10
4.93384
20
-3.77458
11
4.95259
21
-3.77458
0
LINE
8
BLACK
6
CONTINUOUS
10
4.95259
20
-3.77458
11
4.9536
21
-3.77476
0
LINE
8
BLACK
6
CONTINUOUS
10
4.98734
20
-3.77476
11
4.98889
21
-3.77606
0
LINE
8
BLACK
6
CONTINUOUS
10
4.98889
20
-3.77606
11
4.98924
21
-3.77805
0
LINE
8
BLACK
6
CONTINUOUS
10
4.98924
20
-3.77805
11
4.98823
21
-3.7798
0
LINE
8
BLACK
6
CONTINUOUS
10
4.98823
20
-3.7798
11
4.98633
21
-3.78049
0
LINE
8
BLACK
6
CONTINUOUS
10
4.98633
20
-3.78049
11
4.97804
21
-3.78049
0
LINE
8
BLACK
6
CONTINUOUS
10
4.97804
20
-3.78049
11
4.97804
21
-3.8169
0
LINE
8
BLACK
6
CONTINUOUS
10
4.97804
20
-3.8169
11
4.97786
21
-3.81791
0
LINE
8
BLACK
6
CONTINUOUS
10
4.97786
20
-3.81791
11
4.97775
21
-3.81804
0
LINE
8
BLACK
6
CONTINUOUS
10
4.97775
20
-3.81804
11
4.97773
21
-3.81821
0
LINE
8
BLACK
6
CONTINUOUS
10
4.97773
20
-3.81821
11
4.97711
21
-3.8188
0
LINE
8
BLACK
6
CONTINUOUS
10
4.97711
20
-3.8188
11
4.97656
21
-3.81946
0
LINE
8
BLACK
6
CONTINUOUS
10
4.97656
20
-3.81946
11
4.97639
21
-3.81949
0
LINE
8
BLACK
6
CONTINUOUS
10
4.97639
20
-3.81949
11
4.97627
21
-3.81961
0
LINE
8
BLACK
6
CONTINUOUS
10
4.97627
20
-3.81961
11
4.97542
21
-3.81966
0
LINE
8
BLACK
6
CONTINUOUS
10
4.97542
20
-3.81966
11
4.97457
21
-3.81981
0
LINE
8
BLACK
6
CONTINUOUS
10
4.97457
20
-3.81981
11
4.97442
21
-3.81973
0
LINE
8
BLACK
6
CONTINUOUS
10
4.97442
20
-3.81973
11
4.97426
21
-3.81974
0
LINE
8
BLACK
6
CONTINUOUS
10
4.97426
20
-3.81974
11
4.97356
21
-3.81923
0
LINE
8
BLACK
6
CONTINUOUS
10
4.97356
20
-3.81923
11
4.97282
21
-3.8188
0
LINE
8
BLACK
6
CONTINUOUS
10
4.97282
20
-3.8188
11
4.97276
21
-3.81864
0
LINE
8
BLACK
6
CONTINUOUS
10
4.97276
20
-3.81864
11
4.97263
21
-3.81854
0
LINE
8
BLACK
6
CONTINUOUS
10
4.97263
20
-3.81854
11
4.96904
21
-3.81316
0
LINE
8
BLACK
6
CONTINUOUS
10
4.96904
20
-3.81316
11
4.96584
21
-3.80996
0
LINE
8
BLACK
6
CONTINUOUS
10
4.96584
20
-3.80996
11
4.96252
21
-3.8083
0
LINE
8
BLACK
6
CONTINUOUS
10
4.96252
20
-3.8083
11
4.96169
21
-3.80768
0
LINE
8
BLACK
6
CONTINUOUS
10
4.96169
20
-3.80768
11
4.96089
21
-3.80583
0
LINE
8
BLACK
6
CONTINUOUS
10
4.96089
20
-3.80583
11
4.96146
21
-3.8039
0
LINE
8
BLACK
6
CONTINUOUS
10
4.96146
20
-3.8039
11
4.96315
21
-3.80278
0
LINE
8
BLACK
6
CONTINUOUS
10
4.96315
20
-3.80278
11
4.96516
21
-3.80301
0
LINE
8
BLACK
6
CONTINUOUS
10
4.96516
20
-3.80301
11
4.96891
21
-3.80489
0
LINE
8
BLACK
6
CONTINUOUS
10
4.96891
20
-3.80489
11
4.96961
21
-3.80541
0
LINE
8
BLACK
6
CONTINUOUS
10
4.96961
20
-3.80541
11
4.96967
21
-3.80544
0
LINE
8
BLACK
6
CONTINUOUS
10
4.96967
20
-3.80544
11
4.97213
21
-3.8079
0
LINE
8
BLACK
6
CONTINUOUS
10
4.97213
20
-3.8079
11
4.97213
21
-3.78049
0
LINE
8
BLACK
6
CONTINUOUS
10
4.97213
20
-3.78049
11
4.96384
21
-3.78049
0
LINE
8
BLACK
6
CONTINUOUS
10
4.96384
20
-3.78049
11
4.96283
21
-3.78031
0
LINE
8
BLACK
6
CONTINUOUS
10
4.96283
20
-3.78031
11
4.96128
21
-3.77901
0
LINE
8
BLACK
6
CONTINUOUS
10
4.96128
20
-3.77901
11
4.96093
21
-3.77702
0
LINE
8
BLACK
6
CONTINUOUS
10
4.96093
20
-3.77702
11
4.96194
21
-3.77527
0
LINE
8
BLACK
6
CONTINUOUS
10
4.96194
20
-3.77527
11
4.96384
21
-3.77458
0
LINE
8
BLACK
6
CONTINUOUS
10
4.96384
20
-3.77458
11
4.98633
21
-3.77458
0
LINE
8
BLACK
6
CONTINUOUS
10
4.98633
20
-3.77458
11
4.98734
21
-3.77476
0
LINE
8
BLACK
6
CONTINUOUS
10
6.29874
20
-3.76492
11
6.29888
21
-3.76503
0
LINE
8
BLACK
6
CONTINUOUS
10
6.29888
20
-3.76503
11
6.29905
21
-3.76505
0
LINE
8
BLACK
6
CONTINUOUS
10
6.29905
20
-3.76505
11
6.3028
21
-3.76692
0
LINE
8
BLACK
6
CONTINUOUS
10
6.3028
20
-3.76692
11
6.30351
21
-3.76745
0
LINE
8
BLACK
6
CONTINUOUS
10
6.30351
20
-3.76745
11
6.30357
21
-3.76748
0
LINE
8
BLACK
6
CONTINUOUS
10
6.30357
20
-3.76748
11
6.30732
21
-3.77123
0
LINE
8
BLACK
6
CONTINUOUS
10
6.30732
20
-3.77123
11
6.30791
21
-3.77207
0
LINE
8
BLACK
6
CONTINUOUS
10
6.30791
20
-3.77207
11
6.30793
21
-3.77236
0
LINE
8
BLACK
6
CONTINUOUS
10
6.30793
20
-3.77236
11
6.3081
21
-3.7726
0
LINE
8
BLACK
6
CONTINUOUS
10
6.3081
20
-3.7726
11
6.30997
21
-3.7801
0
LINE
8
BLACK
6
CONTINUOUS
10
6.30997
20
-3.7801
11
6.31001
21
-3.78069
0
LINE
8
BLACK
6
CONTINUOUS
10
6.31001
20
-3.78069
11
6.31006
21
-3.78081
0
LINE
8
BLACK
6
CONTINUOUS
10
6.31006
20
-3.78081
11
6.31006
21
-3.79394
0
LINE
8
BLACK
6
CONTINUOUS
10
6.31006
20
-3.79394
11
6.30996
21
-3.79452
0
LINE
8
BLACK
6
CONTINUOUS
10
6.30996
20
-3.79452
11
6.30997
21
-3.79465
0
LINE
8
BLACK
6
CONTINUOUS
10
6.30997
20
-3.79465
11
6.3081
21
-3.80215
0
LINE
8
BLACK
6
CONTINUOUS
10
6.3081
20
-3.80215
11
6.30768
21
-3.80309
0
LINE
8
BLACK
6
CONTINUOUS
10
6.30768
20
-3.80309
11
6.30744
21
-3.80326
0
LINE
8
BLACK
6
CONTINUOUS
10
6.30744
20
-3.80326
11
6.30732
21
-3.80352
0
LINE
8
BLACK
6
CONTINUOUS
10
6.30732
20
-3.80352
11
6.30357
21
-3.80727
0
LINE
8
BLACK
6
CONTINUOUS
10
6.30357
20
-3.80727
11
6.30285
21
-3.80778
0
LINE
8
BLACK
6
CONTINUOUS
10
6.30285
20
-3.80778
11
6.3028
21
-3.80783
0
LINE
8
BLACK
6
CONTINUOUS
10
6.3028
20
-3.80783
11
6.29905
21
-3.8097
0
LINE
8
BLACK
6
CONTINUOUS
10
6.29905
20
-3.8097
11
6.29807
21
-3.80999
0
LINE
8
BLACK
6
CONTINUOUS
10
6.29807
20
-3.80999
11
6.2979
21
-3.80995
0
LINE
8
BLACK
6
CONTINUOUS
10
6.2979
20
-3.80995
11
6.29773
21
-3.81001
0
LINE
8
BLACK
6
CONTINUOUS
10
6.29773
20
-3.81001
11
6.29023
21
-3.81001
0
LINE
8
BLACK
6
CONTINUOUS
10
6.29023
20
-3.81001
11
6.28922
21
-3.80984
0
LINE
8
BLACK
6
CONTINUOUS
10
6.28922
20
-3.80984
11
6.28909
21
-3.80972
0
LINE
8
BLACK
6
CONTINUOUS
10
6.28909
20
-3.80972
11
6.28891
21
-3.8097
0
LINE
8
BLACK
6
CONTINUOUS
10
6.28891
20
-3.8097
11
6.28516
21
-3.80783
0
LINE
8
BLACK
6
CONTINUOUS
10
6.28516
20
-3.80783
11
6.28445
21
-3.8073
0
LINE
8
BLACK
6
CONTINUOUS
10
6.28445
20
-3.8073
11
6.2844
21
-3.80727
0
LINE
8
BLACK
6
CONTINUOUS
10
6.2844
20
-3.80727
11
6.28065
21
-3.80352
0
LINE
8
BLACK
6
CONTINUOUS
10
6.28065
20
-3.80352
11
6.28006
21
-3.80268
0
LINE
8
BLACK
6
CONTINUOUS
10
6.28006
20
-3.80268
11
6.28003
21
-3.80239
0
LINE
8
BLACK
6
CONTINUOUS
10
6.28003
20
-3.80239
11
6.27987
21
-3.80215
0
LINE
8
BLACK
6
CONTINUOUS
10
6.27987
20
-3.80215
11
6.27799
21
-3.79465
0
LINE
8
BLACK
6
CONTINUOUS
10
6.27799
20
-3.79465
11
6.27795
21
-3.79407
0
LINE
8
BLACK
6
CONTINUOUS
10
6.27795
20
-3.79407
11
6.27791
21
-3.79394
0
LINE
8
BLACK
6
CONTINUOUS
10
6.27791
20
-3.79394
11
6.27791
21
-3.78081
0
LINE
8
BLACK
6
CONTINUOUS
10
6.27791
20
-3.78081
11
6.27801
21
-3.78023
0
LINE
8
BLACK
6
CONTINUOUS
10
6.27801
20
-3.78023
11
6.27799
21
-3.7801
0
LINE
8
BLACK
6
CONTINUOUS
10
6.27799
20
-3.7801
11
6.27987
21
-3.7726
0
LINE
8
BLACK
6
CONTINUOUS
10
6.27987
20
-3.7726
11
6.28029
21
-3.77166
0
LINE
8
BLACK
6
CONTINUOUS
10
6.28029
20
-3.77166
11
6.28052
21
-3.77149
0
LINE
8
BLACK
6
CONTINUOUS
10
6.28052
20
-3.77149
11
6.28065
21
-3.77123
0
LINE
8
BLACK
6
CONTINUOUS
10
6.28065
20
-3.77123
11
6.2844
21
-3.76748
0
LINE
8
BLACK
6
CONTINUOUS
10
6.2844
20
-3.76748
11
6.28512
21
-3.76697
0
LINE
8
BLACK
6
CONTINUOUS
10
6.28512
20
-3.76697
11
6.28516
21
-3.76692
0
LINE
8
BLACK
6
CONTINUOUS
10
6.28516
20
-3.76692
11
6.28891
21
-3.76505
0
LINE
8
BLACK
6
CONTINUOUS
10
6.28891
20
-3.76505
11
6.28989
21
-3.76476
0
LINE
8
BLACK
6
CONTINUOUS
10
6.28989
20
-3.76476
11
6.29007
21
-3.7648
0
LINE
8
BLACK
6
CONTINUOUS
10
6.29007
20
-3.7648
11
6.29023
21
-3.76474
0
LINE
8
BLACK
6
CONTINUOUS
10
6.29023
20
-3.76474
11
6.29773
21
-3.76474
0
LINE
8
BLACK
6
CONTINUOUS
10
6.29773
20
-3.76474
11
6.29874
21
-3.76492
0
LINE
8
BLACK
6
CONTINUOUS
10
6.28823
20
-3.77199
11
6.2854
21
-3.77482
0
LINE
8
BLACK
6
CONTINUOUS
10
6.2854
20
-3.77482
11
6.28381
21
-3.78118
0
LINE
8
BLACK
6
CONTINUOUS
10
6.28381
20
-3.78118
11
6.28381
21
-3.79357
0
LINE
8
BLACK
6
CONTINUOUS
10
6.28381
20
-3.79357
11
6.2854
21
-3.79993
0
LINE
8
BLACK
6
CONTINUOUS
10
6.2854
20
-3.79993
11
6.28823
21
-3.80276
0
LINE
8
BLACK
6
CONTINUOUS
10
6.28823
20
-3.80276
11
6.29093
21
-3.80411
0
LINE
8
BLACK
6
CONTINUOUS
10
6.29093
20
-3.80411
11
6.29703
21
-3.80411
0
LINE
8
BLACK
6
CONTINUOUS
10
6.29703
20
-3.80411
11
6.29973
21
-3.80276
0
LINE
8
BLACK
6
CONTINUOUS
10
6.29973
20
-3.80276
11
6.30256
21
-3.79993
0
LINE
8
BLACK
6
CONTINUOUS
10
6.30256
20
-3.79993
11
6.30415
21
-3.79357
0
LINE
8
BLACK
6
CONTINUOUS
10
6.30415
20
-3.79357
11
6.30415
21
-3.78118
0
LINE
8
BLACK
6
CONTINUOUS
10
6.30415
20
-3.78118
11
6.30256
21
-3.77482
0
LINE
8
BLACK
6
CONTINUOUS
10
6.30256
20
-3.77482
11
6.29973
21
-3.77199
0
LINE
8
BLACK
6
CONTINUOUS
10
6.29973
20
-3.77199
11
6.29703
21
-3.77064
0
LINE
8
BLACK
6
CONTINUOUS
10
6.29703
20
-3.77064
11
6.29093
21
-3.77064
0
LINE
8
BLACK
6
CONTINUOUS
10
6.29093
20
-3.77064
11
6.28823
21
-3.77199
0
LINE
8
BLACK
6
CONTINUOUS
10
6.34512
20
-3.76495
11
6.34585
21
-3.76501
0
LINE
8
BLACK
6
CONTINUOUS
10
6.34585
20
-3.76501
11
6.34606
21
-3.76523
0
LINE
8
BLACK
6
CONTINUOUS
10
6.34606
20
-3.76523
11
6.34636
21
-3.76532
0
LINE
8
BLACK
6
CONTINUOUS
10
6.34636
20
-3.76532
11
6.34676
21
-3.76593
0
LINE
8
BLACK
6
CONTINUOUS
10
6.34676
20
-3.76593
11
6.34728
21
-3.76644
0
LINE
8
BLACK
6
CONTINUOUS
10
6.34728
20
-3.76644
11
6.3473
21
-3.76675
0
LINE
8
BLACK
6
CONTINUOUS
10
6.3473
20
-3.76675
11
6.34747
21
-3.76701
0
LINE
8
BLACK
6
CONTINUOUS
10
6.34747
20
-3.76701
11
6.35685
21
-3.80638
0
LINE
8
BLACK
6
CONTINUOUS
10
6.35685
20
-3.80638
11
6.35691
21
-3.8074
0
LINE
8
BLACK
6
CONTINUOUS
10
6.35691
20
-3.8074
11
6.356
21
-3.80921
0
LINE
8
BLACK
6
CONTINUOUS
10
6.356
20
-3.80921
11
6.35415
21
-3.81001
0
LINE
8
BLACK
6
CONTINUOUS
10
6.35415
20
-3.81001
11
6.35221
21
-3.80943
0
LINE
8
BLACK
6
CONTINUOUS
10
6.35221
20
-3.80943
11
6.3511
21
-3.80774
0
LINE
8
BLACK
6
CONTINUOUS
10
6.3511
20
-3.80774
11
6.34444
21
-3.77976
0
LINE
8
BLACK
6
CONTINUOUS
10
6.34444
20
-3.77976
11
6.33995
21
-3.79657
0
LINE
8
BLACK
6
CONTINUOUS
10
6.33995
20
-3.79657
11
6.33952
21
-3.7975
0
LINE
8
BLACK
6
CONTINUOUS
10
6.33952
20
-3.7975
11
6.3393
21
-3.79766
0
LINE
8
BLACK
6
CONTINUOUS
10
6.3393
20
-3.79766
11
6.33919
21
-3.7979
0
LINE
8
BLACK
6
CONTINUOUS
10
6.33919
20
-3.7979
11
6.33849
21
-3.79822
0
LINE
8
BLACK
6
CONTINUOUS
10
6.33849
20
-3.79822
11
6.33787
21
-3.79866
0
LINE
8
BLACK
6
CONTINUOUS
10
6.33787
20
-3.79866
11
6.3376
21
-3.79864
0
LINE
8
BLACK
6
CONTINUOUS
10
6.3376
20
-3.79864
11
6.33736
21
-3.79875
0
LINE
8
BLACK
6
CONTINUOUS
10
6.33736
20
-3.79875
11
6.33662
21
-3.79856
0
LINE
8
BLACK
6
CONTINUOUS
10
6.33662
20
-3.79856
11
6.33586
21
-3.79849
0
LINE
8
BLACK
6
CONTINUOUS
10
6.33586
20
-3.79849
11
6.33567
21
-3.7983
0
LINE
8
BLACK
6
CONTINUOUS
10
6.33567
20
-3.7983
11
6.33541
21
-3.79823
0
LINE
8
BLACK
6
CONTINUOUS
10
6.33541
20
-3.79823
11
6.33497
21
-3.7976
0
LINE
8
BLACK
6
CONTINUOUS
10
6.33497
20
-3.7976
11
6.33443
21
-3.79706
0
LINE
8
BLACK
6
CONTINUOUS
10
6.33443
20
-3.79706
11
6.3344
21
-3.79679
0
LINE
8
BLACK
6
CONTINUOUS
10
6.3344
20
-3.79679
11
6.33425
21
-3.79657
0
LINE
8
BLACK
6
CONTINUOUS
10
6.33425
20
-3.79657
11
6.32976
21
-3.77976
0
LINE
8
BLACK
6
CONTINUOUS
10
6.32976
20
-3.77976
11
6.3231
21
-3.80774
0
LINE
8
BLACK
6
CONTINUOUS
10
6.3231
20
-3.80774
11
6.32269
21
-3.80869
0
LINE
8
BLACK
6
CONTINUOUS
10
6.32269
20
-3.80869
11
6.32107
21
-3.80989
0
LINE
8
BLACK
6
CONTINUOUS
10
6.32107
20
-3.80989
11
6.31906
21
-3.80977
0
LINE
8
BLACK
6
CONTINUOUS
10
6.31906
20
-3.80977
11
6.31759
21
-3.80838
0
LINE
8
BLACK
6
CONTINUOUS
10
6.31759
20
-3.80838
11
6.31736
21
-3.80638
0
LINE
8
BLACK
6
CONTINUOUS
10
6.31736
20
-3.80638
11
6.32673
21
-3.76701
0
LINE
8
BLACK
6
CONTINUOUS
10
6.32673
20
-3.76701
11
6.32714
21
-3.76607
0
LINE
8
BLACK
6
CONTINUOUS
10
6.32714
20
-3.76607
11
6.32739
21
-3.76588
0
LINE
8
BLACK
6
CONTINUOUS
10
6.32739
20
-3.76588
11
6.32752
21
-3.7656
0
LINE
8
BLACK
6
CONTINUOUS
10
6.32752
20
-3.7656
11
6.32818
21
-3.76529
0
LINE
8
BLACK
6
CONTINUOUS
10
6.32818
20
-3.76529
11
6.32876
21
-3.76486
0
LINE
8
BLACK
6
CONTINUOUS
10
6.32876
20
-3.76486
11
6.32907
21
-3.76488
0
LINE
8
BLACK
6
CONTINUOUS
10
6.32907
20
-3.76488
11
6.32935
21
-3.76475
0
LINE
8
BLACK
6
CONTINUOUS
10
6.32935
20
-3.76475
11
6.33005
21
-3.76494
0
LINE
8
BLACK
6
CONTINUOUS
10
6.33005
20
-3.76494
11
6.33077
21
-3.76498
0
LINE
8
BLACK
6
CONTINUOUS
10
6.33077
20
-3.76498
11
6.331
21
-3.76519
0
LINE
8
BLACK
6
CONTINUOUS
10
6.331
20
-3.76519
11
6.3313
21
-3.76527
0
LINE
8
BLACK
6
CONTINUOUS
10
6.3313
20
-3.76527
11
6.33171
21
-3.76587
0
LINE
8
BLACK
6
CONTINUOUS
10
6.33171
20
-3.76587
11
6.33224
21
-3.76637
0
LINE
8
BLACK
6
CONTINUOUS
10
6.33224
20
-3.76637
11
6.33228
21
-3.76668
0
LINE
8
BLACK
6
CONTINUOUS
10
6.33228
20
-3.76668
11
6.33246
21
-3.76693
0
LINE
8
BLACK
6
CONTINUOUS
10
6.33246
20
-3.76693
11
6.3371
21
-3.78435
0
LINE
8
BLACK
6
CONTINUOUS
10
6.3371
20
-3.78435
11
6.34175
21
-3.76693
0
LINE
8
BLACK
6
CONTINUOUS
10
6.34175
20
-3.76693
11
6.34218
21
-3.766
0
LINE
8
BLACK
6
CONTINUOUS
10
6.34218
20
-3.766
11
6.34243
21
-3.76582
0
LINE
8
BLACK
6
CONTINUOUS
10
6.34243
20
-3.76582
11
6.34257
21
-3.76555
0
LINE
8
BLACK
6
CONTINUOUS
10
6.34257
20
-3.76555
11
6.34324
21
-3.76526
0
LINE
8
BLACK
6
CONTINUOUS
10
6.34324
20
-3.76526
11
6.34383
21
-3.76484
0
LINE
8
BLACK
6
CONTINUOUS
10
6.34383
20
-3.76484
11
6.34414
21
-3.76487
0
LINE
8
BLACK
6
CONTINUOUS
10
6.34414
20
-3.76487
11
6.34443
21
-3.76474
0
LINE
8
BLACK
6
CONTINUOUS
10
6.34443
20
-3.76474
11
6.34512
21
-3.76495
0
LINE
8
BLACK
6
CONTINUOUS
10
6.27062
20
-3.76492
11
6.27217
21
-3.76621
0
LINE
8
BLACK
6
CONTINUOUS
10
6.27217
20
-3.76621
11
6.27252
21
-3.7682
0
LINE
8
BLACK
6
CONTINUOUS
10
6.27252
20
-3.7682
11
6.27151
21
-3.76995
0
LINE
8
BLACK
6
CONTINUOUS
10
6.27151
20
-3.76995
11
6.26961
21
-3.77064
0
LINE
8
BLACK
6
CONTINUOUS
10
6.26961
20
-3.77064
11
6.25382
21
-3.77064
0
LINE
8
BLACK
6
CONTINUOUS
10
6.25382
20
-3.77064
11
6.25382
21
-3.80706
0
LINE
8
BLACK
6
CONTINUOUS
10
6.25382
20
-3.80706
11
6.25364
21
-3.80807
0
LINE
8
BLACK
6
CONTINUOUS
10
6.25364
20
-3.80807
11
6.25234
21
-3.80962
0
LINE
8
BLACK
6
CONTINUOUS
10
6.25234
20
-3.80962
11
6.25035
21
-3.80997
0
LINE
8
BLACK
6
CONTINUOUS
10
6.25035
20
-3.80997
11
6.2486
21
-3.80896
0
LINE
8
BLACK
6
CONTINUOUS
10
6.2486
20
-3.80896
11
6.24791
21
-3.80706
0
LINE
8
BLACK
6
CONTINUOUS
10
6.24791
20
-3.80706
11
6.24791
21
-3.76769
0
LINE
8
BLACK
6
CONTINUOUS
10
6.24791
20
-3.76769
11
6.24798
21
-3.76731
0
LINE
8
BLACK
6
CONTINUOUS
10
6.24798
20
-3.76731
11
6.24795
21
-3.76718
0
LINE
8
BLACK
6
CONTINUOUS
10
6.24795
20
-3.76718
11
6.24802
21
-3.76706
0
LINE
8
BLACK
6
CONTINUOUS
10
6.24802
20
-3.76706
11
6.24809
21
-3.76668
0
LINE
8
BLACK
6
CONTINUOUS
10
6.24809
20
-3.76668
11
6.24858
21
-3.76609
0
LINE
8
BLACK
6
CONTINUOUS
10
6.24858
20
-3.76609
11
6.24896
21
-3.76543
0
LINE
8
BLACK
6
CONTINUOUS
10
6.24896
20
-3.76543
11
6.24921
21
-3.76534
0
LINE
8
BLACK
6
CONTINUOUS
10
6.24921
20
-3.76534
11
6.24939
21
-3.76513
0
LINE
8
BLACK
6
CONTINUOUS
10
6.24939
20
-3.76513
11
6.25014
21
-3.765
0
LINE
8
BLACK
6
CONTINUOUS
10
6.25014
20
-3.765
11
6.25086
21
-3.76474
0
LINE
8
BLACK
6
CONTINUOUS
10
6.25086
20
-3.76474
11
6.26961
21
-3.76474
0
LINE
8
BLACK
6
CONTINUOUS
10
6.26961
20
-3.76474
11
6.27062
21
-3.76492
0
LINE
8
BLACK
6
CONTINUOUS
10
6.3906
20
-3.76492
11
6.39215
21
-3.76621
0
LINE
8
BLACK
6
CONTINUOUS
10
6.39215
20
-3.76621
11
6.3925
21
-3.7682
0
LINE
8
BLACK
6
CONTINUOUS
10
6.3925
20
-3.7682
11
6.39149
21
-3.76995
0
LINE
8
BLACK
6
CONTINUOUS
10
6.39149
20
-3.76995
11
6.3896
21
-3.77064
0
LINE
8
BLACK
6
CONTINUOUS
10
6.3896
20
-3.77064
11
6.3813
21
-3.77064
0
LINE
8
BLACK
6
CONTINUOUS
10
6.3813
20
-3.77064
11
6.3813
21
-3.80706
0
LINE
8
BLACK
6
CONTINUOUS
10
6.3813
20
-3.80706
11
6.38112
21
-3.80807
0
LINE
8
BLACK
6
CONTINUOUS
10
6.38112
20
-3.80807
11
6.38101
21
-3.8082
0
LINE
8
BLACK
6
CONTINUOUS
10
6.38101
20
-3.8082
11
6.38099
21
-3.80837
0
LINE
8
BLACK
6
CONTINUOUS
10
6.38099
20
-3.80837
11
6.38037
21
-3.80896
0
LINE
8
BLACK
6
CONTINUOUS
10
6.38037
20
-3.80896
11
6.37982
21
-3.80962
0
LINE
8
BLACK
6
CONTINUOUS
10
6.37982
20
-3.80962
11
6.37966
21
-3.80965
0
LINE
8
BLACK
6
CONTINUOUS
10
6.37966
20
-3.80965
11
6.37953
21
-3.80976
0
LINE
8
BLACK
6
CONTINUOUS
10
6.37953
20
-3.80976
11
6.37868
21
-3.80982
0
LINE
8
BLACK
6
CONTINUOUS
10
6.37868
20
-3.80982
11
6.37783
21
-3.80997
0
LINE
8
BLACK
6
CONTINUOUS
10
6.37783
20
-3.80997
11
6.37769
21
-3.80988
0
LINE
8
BLACK
6
CONTINUOUS
10
6.37769
20
-3.80988
11
6.37752
21
-3.80989
0
LINE
8
BLACK
6
CONTINUOUS
10
6.37752
20
-3.80989
11
6.37683
21
-3.80939
0
LINE
8
BLACK
6
CONTINUOUS
10
6.37683
20
-3.80939
11
6.37608
21
-3.80896
0
LINE
8
BLACK
6
CONTINUOUS
10
6.37608
20
-3.80896
11
6.37603
21
-3.8088
0
LINE
8
BLACK
6
CONTINUOUS
10
6.37603
20
-3.8088
11
6.37589
21
-3.8087
0
LINE
8
BLACK
6
CONTINUOUS
10
6.37589
20
-3.8087
11
6.3723
21
-3.80332
0
LINE
8
BLACK
6
CONTINUOUS
10
6.3723
20
-3.80332
11
6.3691
21
-3.80011
0
LINE
8
BLACK
6
CONTINUOUS
10
6.3691
20
-3.80011
11
6.36578
21
-3.79845
0
LINE
8
BLACK
6
CONTINUOUS
10
6.36578
20
-3.79845
11
6.36495
21
-3.79784
0
LINE
8
BLACK
6
CONTINUOUS
10
6.36495
20
-3.79784
11
6.36415
21
-3.79599
0
LINE
8
BLACK
6
CONTINUOUS
10
6.36415
20
-3.79599
11
6.36473
21
-3.79405
0
LINE
8
BLACK
6
CONTINUOUS
10
6.36473
20
-3.79405
11
6.36641
21
-3.79294
0
LINE
8
BLACK
6
CONTINUOUS
10
6.36641
20
-3.79294
11
6.36842
21
-3.79317
0
LINE
8
BLACK
6
CONTINUOUS
10
6.36842
20
-3.79317
11
6.37217
21
-3.79505
0
LINE
8
BLACK
6
CONTINUOUS
10
6.37217
20
-3.79505
11
6.37288
21
-3.79557
0
LINE
8
BLACK
6
CONTINUOUS
10
6.37288
20
-3.79557
11
6.37294
21
-3.7956
0
LINE
8
BLACK
6
CONTINUOUS
10
6.37294
20
-3.7956
11
6.37539
21
-3.79806
0
LINE
8
BLACK
6
CONTINUOUS
10
6.37539
20
-3.79806
11
6.37539
21
-3.77064
0
LINE
8
BLACK
6
CONTINUOUS
10
6.37539
20
-3.77064
11
6.3671
21
-3.77064
0
LINE
8
BLACK
6
CONTINUOUS
10
6.3671
20
-3.77064
11
6.36609
21
-3.77047
0
LINE
8
BLACK
6
CONTINUOUS
10
6.36609
20
-3.77047
11
6.36454
21
-3.76917
0
LINE
8
BLACK
6
CONTINUOUS
10
6.36454
20
-3.76917
11
6.36419
21
-3.76718
0
LINE
8
BLACK
6
CONTINUOUS
10
6.36419
20
-3.76718
11
6.3652
21
-3.76543
0
LINE
8
BLACK
6
CONTINUOUS
10
6.3652
20
-3.76543
11
6.3671
21
-3.76474
0
LINE
8
BLACK
6
CONTINUOUS
10
6.3671
20
-3.76474
11
6.3896
21
-3.76474
0
LINE
8
BLACK
6
CONTINUOUS
10
6.3896
20
-3.76474
11
6.3906
21
-3.76492
0
LINE
8
BLACK
6
CONTINUOUS
10
6.23652
20
-2.3202
11
6.23669
21
-2.32019
0
LINE
8
BLACK
6
CONTINUOUS
10
6.23669
20
-2.32019
11
6.23738
21
-2.3207
0
LINE
8
BLACK
6
CONTINUOUS
10
6.23738
20
-2.3207
11
6.23813
21
-2.32113
0
LINE
8
BLACK
6
CONTINUOUS
10
6.23813
20
-2.32113
11
6.23818
21
-2.32129
0
LINE
8
BLACK
6
CONTINUOUS
10
6.23818
20
-2.32129
11
6.23832
21
-2.32139
0
LINE
8
BLACK
6
CONTINUOUS
10
6.23832
20
-2.32139
11
6.24191
21
-2.32677
0
LINE
8
BLACK
6
CONTINUOUS
10
6.24191
20
-2.32677
11
6.24511
21
-2.32997
0
LINE
8
BLACK
6
CONTINUOUS
10
6.24511
20
-2.32997
11
6.24843
21
-2.33163
0
LINE
8
BLACK
6
CONTINUOUS
10
6.24843
20
-2.33163
11
6.24926
21
-2.33224
0
LINE
8
BLACK
6
CONTINUOUS
10
6.24926
20
-2.33224
11
6.25006
21
-2.3341
0
LINE
8
BLACK
6
CONTINUOUS
10
6.25006
20
-2.3341
11
6.24948
21
-2.33603
0
LINE
8
BLACK
6
CONTINUOUS
10
6.24948
20
-2.33603
11
6.2478
21
-2.33714
0
LINE
8
BLACK
6
CONTINUOUS
10
6.2478
20
-2.33714
11
6.24579
21
-2.33691
0
LINE
8
BLACK
6
CONTINUOUS
10
6.24579
20
-2.33691
11
6.24204
21
-2.33504
0
LINE
8
BLACK
6
CONTINUOUS
10
6.24204
20
-2.33504
11
6.24133
21
-2.33451
0
LINE
8
BLACK
6
CONTINUOUS
10
6.24133
20
-2.33451
11
6.24128
21
-2.33449
0
LINE
8
BLACK
6
CONTINUOUS
10
6.24128
20
-2.33449
11
6.23882
21
-2.33203
0
LINE
8
BLACK
6
CONTINUOUS
10
6.23882
20
-2.33203
11
6.23882
21
-2.35944
0
LINE
8
BLACK
6
CONTINUOUS
10
6.23882
20
-2.35944
11
6.24711
21
-2.35944
0
LINE
8
BLACK
6
CONTINUOUS
10
6.24711
20
-2.35944
11
6.24812
21
-2.35962
0
LINE
8
BLACK
6
CONTINUOUS
10
6.24812
20
-2.35962
11
6.24967
21
-2.36092
0
LINE
8
BLACK
6
CONTINUOUS
10
6.24967
20
-2.36092
11
6.25002
21
-2.36291
0
LINE
8
BLACK
6
CONTINUOUS
10
6.25002
20
-2.36291
11
6.24901
21
-2.36466
0
LINE
8
BLACK
6
CONTINUOUS
10
6.24901
20
-2.36466
11
6.24711
21
-2.36535
0
LINE
8
BLACK
6
CONTINUOUS
10
6.24711
20
-2.36535
11
6.22462
21
-2.36535
0
LINE
8
BLACK
6
CONTINUOUS
10
6.22462
20
-2.36535
11
6.22361
21
-2.36517
0
LINE
8
BLACK
6
CONTINUOUS
10
6.22361
20
-2.36517
11
6.22206
21
-2.36387
0
LINE
8
BLACK
6
CONTINUOUS
10
6.22206
20
-2.36387
11
6.22171
21
-2.36188
0
LINE
8
BLACK
6
CONTINUOUS
10
6.22171
20
-2.36188
11
6.22272
21
-2.36013
0
LINE
8
BLACK
6
CONTINUOUS
10
6.22272
20
-2.36013
11
6.22462
21
-2.35944
0
LINE
8
BLACK
6
CONTINUOUS
10
6.22462
20
-2.35944
11
6.23291
21
-2.35944
0
LINE
8
BLACK
6
CONTINUOUS
10
6.23291
20
-2.35944
11
6.23291
21
-2.32302
0
LINE
8
BLACK
6
CONTINUOUS
10
6.23291
20
-2.32302
11
6.23309
21
-2.32201
0
LINE
8
BLACK
6
CONTINUOUS
10
6.23309
20
-2.32201
11
6.2332
21
-2.32188
0
LINE
8
BLACK
6
CONTINUOUS
10
6.2332
20
-2.32188
11
6.23322
21
-2.32172
0
LINE
8
BLACK
6
CONTINUOUS
10
6.23322
20
-2.32172
11
6.23384
21
-2.32112
0
LINE
8
BLACK
6
CONTINUOUS
10
6.23384
20
-2.32112
11
6.23439
21
-2.32047
0
LINE
8
BLACK
6
CONTINUOUS
10
6.23439
20
-2.32047
11
6.23456
21
-2.32044
0
LINE
8
BLACK
6
CONTINUOUS
10
6.23456
20
-2.32044
11
6.23468
21
-2.32032
0
LINE
8
BLACK
6
CONTINUOUS
10
6.23468
20
-2.32032
11
6.23553
21
-2.32027
0
LINE
8
BLACK
6
CONTINUOUS
10
6.23553
20
-2.32027
11
6.23638
21
-2.32012
0
LINE
8
BLACK
6
CONTINUOUS
10
6.23638
20
-2.32012
11
6.23652
21
-2.3202
0
LINE
8
BLACK
6
CONTINUOUS
10
6.28124
20
-2.32014
11
6.28137
21
-2.32012
0
LINE
8
BLACK
6
CONTINUOUS
10
6.28137
20
-2.32012
11
6.28148
21
-2.32018
0
LINE
8
BLACK
6
CONTINUOUS
10
6.28148
20
-2.32018
11
6.28187
21
-2.32025
0
LINE
8
BLACK
6
CONTINUOUS
10
6.28187
20
-2.32025
11
6.28246
21
-2.32074
0
LINE
8
BLACK
6
CONTINUOUS
10
6.28246
20
-2.32074
11
6.28312
21
-2.32113
0
LINE
8
BLACK
6
CONTINUOUS
10
6.28312
20
-2.32113
11
6.28321
21
-2.32138
0
LINE
8
BLACK
6
CONTINUOUS
10
6.28321
20
-2.32138
11
6.28342
21
-2.32155
0
LINE
8
BLACK
6
CONTINUOUS
10
6.28342
20
-2.32155
11
6.28355
21
-2.3223
0
LINE
8
BLACK
6
CONTINUOUS
10
6.28355
20
-2.3223
11
6.28381
21
-2.32302
0
LINE
8
BLACK
6
CONTINUOUS
10
6.28381
20
-2.32302
11
6.28381
21
-2.36239
0
LINE
8
BLACK
6
CONTINUOUS
10
6.28381
20
-2.36239
11
6.28374
21
-2.36278
0
LINE
8
BLACK
6
CONTINUOUS
10
6.28374
20
-2.36278
11
6.28377
21
-2.36291
0
LINE
8
BLACK
6
CONTINUOUS
10
6.28377
20
-2.36291
11
6.2837
21
-2.36302
0
LINE
8
BLACK
6
CONTINUOUS
10
6.2837
20
-2.36302
11
6.28363
21
-2.3634
0
LINE
8
BLACK
6
CONTINUOUS
10
6.28363
20
-2.3634
11
6.28314
21
-2.36399
0
LINE
8
BLACK
6
CONTINUOUS
10
6.28314
20
-2.36399
11
6.28276
21
-2.36466
0
LINE
8
BLACK
6
CONTINUOUS
10
6.28276
20
-2.36466
11
6.28251
21
-2.36475
0
LINE
8
BLACK
6
CONTINUOUS
10
6.28251
20
-2.36475
11
6.28233
21
-2.36495
0
LINE
8
BLACK
6
CONTINUOUS
10
6.28233
20
-2.36495
11
6.28158
21
-2.36508
0
LINE
8
BLACK
6
CONTINUOUS
10
6.28158
20
-2.36508
11
6.28086
21
-2.36535
0
LINE
8
BLACK
6
CONTINUOUS
10
6.28086
20
-2.36535
11
6.26211
21
-2.36535
0
LINE
8
BLACK
6
CONTINUOUS
10
6.26211
20
-2.36535
11
6.2611
21
-2.36517
0
LINE
8
BLACK
6
CONTINUOUS
10
6.2611
20
-2.36517
11
6.25955
21
-2.36387
0
LINE
8
BLACK
6
CONTINUOUS
10
6.25955
20
-2.36387
11
6.2592
21
-2.36188
0
LINE
8
BLACK
6
CONTINUOUS
10
6.2592
20
-2.36188
11
6.26021
21
-2.36013
0
LINE
8
BLACK
6
CONTINUOUS
10
6.26021
20
-2.36013
11
6.26211
21
-2.35944
0
LINE
8
BLACK
6
CONTINUOUS
10
6.26211
20
-2.35944
11
6.27791
21
-2.35944
0
LINE
8
BLACK
6
CONTINUOUS
10
6.27791
20
-2.35944
11
6.27791
21
-2.34472
0
LINE
8
BLACK
6
CONTINUOUS
10
6.27791
20
-2.34472
11
6.26774
21
-2.34472
0
LINE
8
BLACK
6
CONTINUOUS
10
6.26774
20
-2.34472
11
6.26673
21
-2.34455
0
LINE
8
BLACK
6
CONTINUOUS
10
6.26673
20
-2.34455
11
6.26518
21
-2.34325
0
LINE
8
BLACK
6
CONTINUOUS
10
6.26518
20
-2.34325
11
6.26483
21
-2.34126
0
LINE
8
BLACK
6
CONTINUOUS
10
6.26483
20
-2.34126
11
6.26584
21
-2.33951
0
LINE
8
BLACK
6
CONTINUOUS
10
6.26584
20
-2.33951
11
6.26774
21
-2.33882
0
LINE
8
BLACK
6
CONTINUOUS
10
6.26774
20
-2.33882
11
6.27791
21
-2.33882
0
LINE
8
BLACK
6
CONTINUOUS
10
6.27791
20
-2.33882
11
6.27791
21
-2.32598
0
LINE
8
BLACK
6
CONTINUOUS
10
6.27791
20
-2.32598
11
6.26211
21
-2.32598
0
LINE
8
BLACK
6
CONTINUOUS
10
6.26211
20
-2.32598
11
6.2611
21
-2.3258
0
LINE
8
BLACK
6
CONTINUOUS
10
6.2611
20
-2.3258
11
6.25955
21
-2.3245
0
LINE
8
BLACK
6
CONTINUOUS
10
6.25955
20
-2.3245
11
6.2592
21
-2.32251
0
LINE
8
BLACK
6
CONTINUOUS
10
6.2592
20
-2.32251
11
6.26021
21
-2.32076
0
LINE
8
BLACK
6
CONTINUOUS
10
6.26021
20
-2.32076
11
6.26211
21
-2.32007
0
LINE
8
BLACK
6
CONTINUOUS
10
6.26211
20
-2.32007
11
6.28086
21
-2.32007
0
LINE
8
BLACK
6
CONTINUOUS
10
6.28086
20
-2.32007
11
6.28124
21
-2.32014
0
LINE
8
BLACK
6
CONTINUOUS
10
6.41248
20
-2.32014
11
6.4126
21
-2.32012
0
LINE
8
BLACK
6
CONTINUOUS
10
6.4126
20
-2.32012
11
6.41272
21
-2.32018
0
LINE
8
BLACK
6
CONTINUOUS
10
6.41272
20
-2.32018
11
6.4131
21
-2.32025
0
LINE
8
BLACK
6
CONTINUOUS
10
6.4131
20
-2.32025
11
6.41369
21
-2.32074
0
LINE
8
BLACK
6
CONTINUOUS
10
6.41369
20
-2.32074
11
6.41435
21
-2.32113
0
LINE
8
BLACK
6
CONTINUOUS
10
6.41435
20
-2.32113
11
6.41445
21
-2.32138
0
LINE
8
BLACK
6
CONTINUOUS
10
6.41445
20
-2.32138
11
6.41465
21
-2.32155
0
LINE
8
BLACK
6
CONTINUOUS
10
6.41465
20
-2.32155
11
6.41478
21
-2.3223
0
LINE
8
BLACK
6
CONTINUOUS
10
6.41478
20
-2.3223
11
6.41504
21
-2.32302
0
LINE
8
BLACK
6
CONTINUOUS
10
6.41504
20
-2.32302
11
6.41504
21
-2.36239
0
LINE
8
BLACK
6
CONTINUOUS
10
6.41504
20
-2.36239
11
6.41498
21
-2.36278
0
LINE
8
BLACK
6
CONTINUOUS
10
6.41498
20
-2.36278
11
6.415
21
-2.36291
0
LINE
8
BLACK
6
CONTINUOUS
10
6.415
20
-2.36291
11
6.41493
21
-2.36302
0
LINE
8
BLACK
6
CONTINUOUS
10
6.41493
20
-2.36302
11
6.41487
21
-2.3634
0
LINE
8
BLACK
6
CONTINUOUS
10
6.41487
20
-2.3634
11
6.41437
21
-2.36399
0
LINE
8
BLACK
6
CONTINUOUS
10
6.41437
20
-2.36399
11
6.41399
21
-2.36466
0
LINE
8
BLACK
6
CONTINUOUS
10
6.41399
20
-2.36466
11
6.41374
21
-2.36475
0
LINE
8
BLACK
6
CONTINUOUS
10
6.41374
20
-2.36475
11
6.41357
21
-2.36495
0
LINE
8
BLACK
6
CONTINUOUS
10
6.41357
20
-2.36495
11
6.41281
21
-2.36508
0
LINE
8
BLACK
6
CONTINUOUS
10
6.41281
20
-2.36508
11
6.41209
21
-2.36535
0
LINE
8
BLACK
6
CONTINUOUS
10
6.41209
20
-2.36535
11
6.40272
21
-2.36535
0
LINE
8
BLACK
6
CONTINUOUS
10
6.40272
20
-2.36535
11
6.40185
21
-2.36519
0
LINE
8
BLACK
6
CONTINUOUS
10
6.40185
20
-2.36519
11
6.40178
21
-2.3652
0
LINE
8
BLACK
6
CONTINUOUS
10
6.40178
20
-2.3652
11
6.39616
21
-2.36332
0
LINE
8
BLACK
6
CONTINUOUS
10
6.39616
20
-2.36332
11
6.39526
21
-2.36283
0
LINE
8
BLACK
6
CONTINUOUS
10
6.39526
20
-2.36283
11
6.39517
21
-2.36268
0
LINE
8
BLACK
6
CONTINUOUS
10
6.39517
20
-2.36268
11
6.39501
21
-2.36261
0
LINE
8
BLACK
6
CONTINUOUS
10
6.39501
20
-2.36261
11
6.39126
21
-2.35886
0
LINE
8
BLACK
6
CONTINUOUS
10
6.39126
20
-2.35886
11
6.39075
21
-2.35813
0
LINE
8
BLACK
6
CONTINUOUS
10
6.39075
20
-2.35813
11
6.3907
21
-2.35809
0
LINE
8
BLACK
6
CONTINUOUS
10
6.3907
20
-2.35809
11
6.38883
21
-2.35434
0
LINE
8
BLACK
6
CONTINUOUS
10
6.38883
20
-2.35434
11
6.38868
21
-2.35385
0
LINE
8
BLACK
6
CONTINUOUS
10
6.38868
20
-2.35385
11
6.38861
21
-2.35374
0
LINE
8
BLACK
6
CONTINUOUS
10
6.38861
20
-2.35374
11
6.38673
21
-2.34624
0
LINE
8
BLACK
6
CONTINUOUS
10
6.38673
20
-2.34624
11
6.38669
21
-2.34565
0
LINE
8
BLACK
6
CONTINUOUS
10
6.38669
20
-2.34565
11
6.38664
21
-2.34552
0
LINE
8
BLACK
6
CONTINUOUS
10
6.38664
20
-2.34552
11
6.38664
21
-2.3399
0
LINE
8
BLACK
6
CONTINUOUS
10
6.38664
20
-2.3399
11
6.38674
21
-2.33932
0
LINE
8
BLACK
6
CONTINUOUS
10
6.38674
20
-2.33932
11
6.38673
21
-2.33918
0
LINE
8
BLACK
6
CONTINUOUS
10
6.38673
20
-2.33918
11
6.38861
21
-2.33168
0
LINE
8
BLACK
6
CONTINUOUS
10
6.38861
20
-2.33168
11
6.38881
21
-2.33122
0
LINE
8
BLACK
6
CONTINUOUS
10
6.38881
20
-2.33122
11
6.38883
21
-2.33108
0
LINE
8
BLACK
6
CONTINUOUS
10
6.38883
20
-2.33108
11
6.3907
21
-2.32733
0
LINE
8
BLACK
6
CONTINUOUS
10
6.3907
20
-2.32733
11
6.39123
21
-2.32662
0
LINE
8
BLACK
6
CONTINUOUS
10
6.39123
20
-2.32662
11
6.39126
21
-2.32656
0
LINE
8
BLACK
6
CONTINUOUS
10
6.39126
20
-2.32656
11
6.39501
21
-2.32281
0
LINE
8
BLACK
6
CONTINUOUS
10
6.39501
20
-2.32281
11
6.39585
21
-2.32222
0
LINE
8
BLACK
6
CONTINUOUS
10
6.39585
20
-2.32222
11
6.39602
21
-2.32221
0
LINE
8
BLACK
6
CONTINUOUS
10
6.39602
20
-2.32221
11
6.39616
21
-2.3221
0
LINE
8
BLACK
6
CONTINUOUS
10
6.39616
20
-2.3221
11
6.40178
21
-2.32022
0
LINE
8
BLACK
6
CONTINUOUS
10
6.40178
20
-2.32022
11
6.40266
21
-2.32009
0
LINE
8
BLACK
6
CONTINUOUS
10
6.40266
20
-2.32009
11
6.40272
21
-2.32007
0
LINE
8
BLACK
6
CONTINUOUS
10
6.40272
20
-2.32007
11
6.41209
21
-2.32007
0
LINE
8
BLACK
6
CONTINUOUS
10
6.41209
20
-2.32007
11
6.41248
21
-2.32014
0
LINE
8
BLACK
6
CONTINUOUS
10
6.39869
20
-2.32748
11
6.39577
21
-2.3304
0
LINE
8
BLACK
6
CONTINUOUS
10
6.39577
20
-2.3304
11
6.39426
21
-2.33343
0
LINE
8
BLACK
6
CONTINUOUS
10
6.39426
20
-2.33343
11
6.39255
21
-2.34026
0
LINE
8
BLACK
6
CONTINUOUS
10
6.39255
20
-2.34026
11
6.39255
21
-2.34516
0
LINE
8
BLACK
6
CONTINUOUS
10
6.39255
20
-2.34516
11
6.39426
21
-2.35199
0
LINE
8
BLACK
6
CONTINUOUS
10
6.39426
20
-2.35199
11
6.39577
21
-2.35502
0
LINE
8
BLACK
6
CONTINUOUS
10
6.39577
20
-2.35502
11
6.39869
21
-2.35794
0
LINE
8
BLACK
6
CONTINUOUS
10
6.39869
20
-2.35794
11
6.4032
21
-2.35944
0
LINE
8
BLACK
6
CONTINUOUS
10
6.4032
20
-2.35944
11
6.40914
21
-2.35944
0
LINE
8
BLACK
6
CONTINUOUS
10
6.40914
20
-2.35944
11
6.40914
21
-2.32598
0
LINE
8
BLACK
6
CONTINUOUS
10
6.40914
20
-2.32598
11
6.4032
21
-2.32598
0
LINE
8
BLACK
6
CONTINUOUS
10
6.4032
20
-2.32598
11
6.39869
21
-2.32748
0
LINE
8
BLACK
6
CONTINUOUS
10
6.37311
20
-2.32014
11
6.37323
21
-2.32012
0
LINE
8
BLACK
6
CONTINUOUS
10
6.37323
20
-2.32012
11
6.37335
21
-2.32018
0
LINE
8
BLACK
6
CONTINUOUS
10
6.37335
20
-2.32018
11
6.37373
21
-2.32025
0
LINE
8
BLACK
6
CONTINUOUS
10
6.37373
20
-2.32025
11
6.37432
21
-2.32074
0
LINE
8
BLACK
6
CONTINUOUS
10
6.37432
20
-2.32074
11
6.37498
21
-2.32113
0
LINE
8
BLACK
6
CONTINUOUS
10
6.37498
20
-2.32113
11
6.37508
21
-2.32138
0
LINE
8
BLACK
6
CONTINUOUS
10
6.37508
20
-2.32138
11
6.37528
21
-2.32155
0
LINE
8
BLACK
6
CONTINUOUS
10
6.37528
20
-2.32155
11
6.37541
21
-2.3223
0
LINE
8
BLACK
6
CONTINUOUS
10
6.37541
20
-2.3223
11
6.37567
21
-2.32302
0
LINE
8
BLACK
6
CONTINUOUS
10
6.37567
20
-2.32302
11
6.37567
21
-2.36239
0
LINE
8
BLACK
6
CONTINUOUS
10
6.37567
20
-2.36239
11
6.3755
21
-2.3634
0
LINE
8
BLACK
6
CONTINUOUS
10
6.3755
20
-2.3634
11
6.3742
21
-2.36495
0
LINE
8
BLACK
6
CONTINUOUS
10
6.3742
20
-2.36495
11
6.37221
21
-2.3653
0
LINE
8
BLACK
6
CONTINUOUS
10
6.37221
20
-2.3653
11
6.37046
21
-2.36429
0
LINE
8
BLACK
6
CONTINUOUS
10
6.37046
20
-2.36429
11
6.36977
21
-2.36239
0
LINE
8
BLACK
6
CONTINUOUS
10
6.36977
20
-2.36239
11
6.36977
21
-2.3466
0
LINE
8
BLACK
6
CONTINUOUS
10
6.36977
20
-2.3466
11
6.36489
21
-2.3466
0
LINE
8
BLACK
6
CONTINUOUS
10
6.36489
20
-2.3466
11
6.35264
21
-2.36409
0
LINE
8
BLACK
6
CONTINUOUS
10
6.35264
20
-2.36409
11
6.35192
21
-2.36481
0
LINE
8
BLACK
6
CONTINUOUS
10
6.35192
20
-2.36481
11
6.34997
21
-2.36534
0
LINE
8
BLACK
6
CONTINUOUS
10
6.34997
20
-2.36534
11
6.34814
21
-2.36448
0
LINE
8
BLACK
6
CONTINUOUS
10
6.34814
20
-2.36448
11
6.34728
21
-2.36265
0
LINE
8
BLACK
6
CONTINUOUS
10
6.34728
20
-2.36265
11
6.34781
21
-2.3607
0
LINE
8
BLACK
6
CONTINUOUS
10
6.34781
20
-2.3607
11
6.35768
21
-2.34659
0
LINE
8
BLACK
6
CONTINUOUS
10
6.35768
20
-2.34659
11
6.35671
21
-2.34642
0
LINE
8
BLACK
6
CONTINUOUS
10
6.35671
20
-2.34642
11
6.35658
21
-2.34631
0
LINE
8
BLACK
6
CONTINUOUS
10
6.35658
20
-2.34631
11
6.3564
21
-2.34629
0
LINE
8
BLACK
6
CONTINUOUS
10
6.3564
20
-2.34629
11
6.35265
21
-2.34441
0
LINE
8
BLACK
6
CONTINUOUS
10
6.35265
20
-2.34441
11
6.35194
21
-2.34389
0
LINE
8
BLACK
6
CONTINUOUS
10
6.35194
20
-2.34389
11
6.35189
21
-2.34386
0
LINE
8
BLACK
6
CONTINUOUS
10
6.35189
20
-2.34386
11
6.35001
21
-2.34199
0
LINE
8
BLACK
6
CONTINUOUS
10
6.35001
20
-2.34199
11
6.34951
21
-2.34126
0
LINE
8
BLACK
6
CONTINUOUS
10
6.34951
20
-2.34126
11
6.34946
21
-2.34122
0
LINE
8
BLACK
6
CONTINUOUS
10
6.34946
20
-2.34122
11
6.34758
21
-2.33747
0
LINE
8
BLACK
6
CONTINUOUS
10
6.34758
20
-2.33747
11
6.34729
21
-2.33649
0
LINE
8
BLACK
6
CONTINUOUS
10
6.34729
20
-2.33649
11
6.34733
21
-2.33631
0
LINE
8
BLACK
6
CONTINUOUS
10
6.34733
20
-2.33631
11
6.34727
21
-2.33615
0
LINE
8
BLACK
6
CONTINUOUS
10
6.34727
20
-2.33615
11
6.34727
21
-2.33052
0
LINE
8
BLACK
6
CONTINUOUS
10
6.34727
20
-2.33052
11
6.34745
21
-2.32951
0
LINE
8
BLACK
6
CONTINUOUS
10
6.34745
20
-2.32951
11
6.34756
21
-2.32938
0
LINE
8
BLACK
6
CONTINUOUS
10
6.34756
20
-2.32938
11
6.34758
21
-2.3292
0
LINE
8
BLACK
6
CONTINUOUS
10
6.34758
20
-2.3292
11
6.34946
21
-2.32545
0
LINE
8
BLACK
6
CONTINUOUS
10
6.34946
20
-2.32545
11
6.34998
21
-2.32474
0
LINE
8
BLACK
6
CONTINUOUS
10
6.34998
20
-2.32474
11
6.35001
21
-2.32469
0
LINE
8
BLACK
6
CONTINUOUS
10
6.35001
20
-2.32469
11
6.35189
21
-2.32281
0
LINE
8
BLACK
6
CONTINUOUS
10
6.35189
20
-2.32281
11
6.35261
21
-2.3223
0
LINE
8
BLACK
6
CONTINUOUS
10
6.35261
20
-2.3223
11
6.35265
21
-2.32226
0
LINE
8
BLACK
6
CONTINUOUS
10
6.35265
20
-2.32226
11
6.3564
21
-2.32038
0
LINE
8
BLACK
6
CONTINUOUS
10
6.3564
20
-2.32038
11
6.35739
21
-2.32009
0
LINE
8
BLACK
6
CONTINUOUS
10
6.35739
20
-2.32009
11
6.35756
21
-2.32013
0
LINE
8
BLACK
6
CONTINUOUS
10
6.35756
20
-2.32013
11
6.35772
21
-2.32007
0
LINE
8
BLACK
6
CONTINUOUS
10
6.35772
20
-2.32007
11
6.37272
21
-2.32007
0
LINE
8
BLACK
6
CONTINUOUS
10
6.37272
20
-2.32007
11
6.37311
21
-2.32014
0
LINE
8
BLACK
6
CONTINUOUS
10
6.35572
20
-2.32733
11
6.35453
21
-2.32852
0
LINE
8
BLACK
6
CONTINUOUS
10
6.35453
20
-2.32852
11
6.35318
21
-2.33122
0
LINE
8
BLACK
6
CONTINUOUS
10
6.35318
20
-2.33122
11
6.35318
21
-2.33545
0
LINE
8
BLACK
6
CONTINUOUS
10
6.35318
20
-2.33545
11
6.35453
21
-2.33815
0
LINE
8
BLACK
6
CONTINUOUS
10
6.35453
20
-2.33815
11
6.35572
21
-2.33935
0
LINE
8
BLACK
6
CONTINUOUS
10
6.35572
20
-2.33935
11
6.35842
21
-2.34069
0
LINE
8
BLACK
6
CONTINUOUS
10
6.35842
20
-2.34069
11
6.36977
21
-2.34069
0
LINE
8
BLACK
6
CONTINUOUS
10
6.36977
20
-2.34069
11
6.36977
21
-2.32598
0
LINE
8
BLACK
6
CONTINUOUS
10
6.36977
20
-2.32598
11
6.35842
21
-2.32598
0
LINE
8
BLACK
6
CONTINUOUS
10
6.35842
20
-2.32598
11
6.35572
21
-2.32733
0
LINE
8
BLACK
6
CONTINUOUS
10
6.29553
20
-2.32051
11
6.29678
21
-2.32209
0
LINE
8
BLACK
6
CONTINUOUS
10
6.29678
20
-2.32209
11
6.30711
21
-2.35306
0
LINE
8
BLACK
6
CONTINUOUS
10
6.30711
20
-2.35306
11
6.31743
21
-2.32209
0
LINE
8
BLACK
6
CONTINUOUS
10
6.31743
20
-2.32209
11
6.31792
21
-2.32119
0
LINE
8
BLACK
6
CONTINUOUS
10
6.31792
20
-2.32119
11
6.31964
21
-2.32013
0
LINE
8
BLACK
6
CONTINUOUS
10
6.31964
20
-2.32013
11
6.32163
21
-2.32043
0
LINE
8
BLACK
6
CONTINUOUS
10
6.32163
20
-2.32043
11
6.32297
21
-2.32194
0
LINE
8
BLACK
6
CONTINUOUS
10
6.32297
20
-2.32194
11
6.32303
21
-2.32396
0
LINE
8
BLACK
6
CONTINUOUS
10
6.32303
20
-2.32396
11
6.30991
21
-2.36333
0
LINE
8
BLACK
6
CONTINUOUS
10
6.30991
20
-2.36333
11
6.30942
21
-2.36423
0
LINE
8
BLACK
6
CONTINUOUS
10
6.30942
20
-2.36423
11
6.30935
21
-2.36427
0
LINE
8
BLACK
6
CONTINUOUS
10
6.30935
20
-2.36427
11
6.30931
21
-2.36435
0
LINE
8
BLACK
6
CONTINUOUS
10
6.30931
20
-2.36435
11
6.30849
21
-2.3648
0
LINE
8
BLACK
6
CONTINUOUS
10
6.30849
20
-2.3648
11
6.3077
21
-2.36529
0
LINE
8
BLACK
6
CONTINUOUS
10
6.3077
20
-2.36529
11
6.30761
21
-2.36527
0
LINE
8
BLACK
6
CONTINUOUS
10
6.30761
20
-2.36527
11
6.30754
21
-2.36532
0
LINE
8
BLACK
6
CONTINUOUS
10
6.30754
20
-2.36532
11
6.30662
21
-2.36513
0
LINE
8
BLACK
6
CONTINUOUS
10
6.30662
20
-2.36513
11
6.3057
21
-2.36499
0
LINE
8
BLACK
6
CONTINUOUS
10
6.3057
20
-2.36499
11
6.30564
21
-2.36493
0
LINE
8
BLACK
6
CONTINUOUS
10
6.30564
20
-2.36493
11
6.30556
21
-2.36491
0
LINE
8
BLACK
6
CONTINUOUS
10
6.30556
20
-2.36491
11
6.30498
21
-2.36418
0
LINE
8
BLACK
6
CONTINUOUS
10
6.30498
20
-2.36418
11
6.30436
21
-2.36348
0
LINE
8
BLACK
6
CONTINUOUS
10
6.30436
20
-2.36348
11
6.30436
21
-2.36339
0
LINE
8
BLACK
6
CONTINUOUS
10
6.30436
20
-2.36339
11
6.3043
21
-2.36333
0
LINE
8
BLACK
6
CONTINUOUS
10
6.3043
20
-2.36333
11
6.29118
21
-2.32396
0
LINE
8
BLACK
6
CONTINUOUS
10
6.29118
20
-2.32396
11
6.29103
21
-2.32294
0
LINE
8
BLACK
6
CONTINUOUS
10
6.29103
20
-2.32294
11
6.29177
21
-2.32107
0
LINE
8
BLACK
6
CONTINUOUS
10
6.29177
20
-2.32107
11
6.29355
21
-2.3201
0
LINE
8
BLACK
6
CONTINUOUS
10
6.29355
20
-2.3201
11
6.29553
21
-2.32051
0
LINE
8
BLACK
6
CONTINUOUS
10
6.33561
20
-2.32113
11
6.3363
21
-2.32302
0
LINE
8
BLACK
6
CONTINUOUS
10
6.3363
20
-2.32302
11
6.3363
21
-2.36239
0
LINE
8
BLACK
6
CONTINUOUS
10
6.3363
20
-2.36239
11
6.33613
21
-2.3634
0
LINE
8
BLACK
6
CONTINUOUS
10
6.33613
20
-2.3634
11
6.33483
21
-2.36495
0
LINE
8
BLACK
6
CONTINUOUS
10
6.33483
20
-2.36495
11
6.33284
21
-2.3653
0
LINE
8
BLACK
6
CONTINUOUS
10
6.33284
20
-2.3653
11
6.33109
21
-2.36429
0
LINE
8
BLACK
6
CONTINUOUS
10
6.33109
20
-2.36429
11
6.3304
21
-2.36239
0
LINE
8
BLACK
6
CONTINUOUS
10
6.3304
20
-2.36239
11
6.3304
21
-2.32302
0
LINE
8
BLACK
6
CONTINUOUS
10
6.3304
20
-2.32302
11
6.33058
21
-2.32201
0
LINE
8
BLACK
6
CONTINUOUS
10
6.33058
20
-2.32201
11
6.33188
21
-2.32047
0
LINE
8
BLACK
6
CONTINUOUS
10
6.33188
20
-2.32047
11
6.33386
21
-2.32012
0
LINE
8
BLACK
6
CONTINUOUS
10
6.33386
20
-2.32012
11
6.33561
21
-2.32113
0
LINE
8
BLACK
6
CONTINUOUS
10
4.84826
20
-2.3161
11
4.84843
21
-2.31609
0
LINE
8
BLACK
6
CONTINUOUS
10
4.84843
20
-2.31609
11
4.84912
21
-2.3166
0
LINE
8
BLACK
6
CONTINUOUS
10
4.84912
20
-2.3166
11
4.84986
21
-2.31703
0
LINE
8
BLACK
6
CONTINUOUS
10
4.84986
20
-2.31703
11
4.84992
21
-2.31718
0
LINE
8
BLACK
6
CONTINUOUS
10
4.84992
20
-2.31718
11
4.85006
21
-2.31729
0
LINE
8
BLACK
6
CONTINUOUS
10
4.85006
20
-2.31729
11
4.85364
21
-2.32267
0
LINE
8
BLACK
6
CONTINUOUS
10
4.85364
20
-2.32267
11
4.85685
21
-2.32587
0
LINE
8
BLACK
6
CONTINUOUS
10
4.85685
20
-2.32587
11
4.86017
21
-2.32753
0
LINE
8
BLACK
6
CONTINUOUS
10
4.86017
20
-2.32753
11
4.86099
21
-2.32814
0
LINE
8
BLACK
6
CONTINUOUS
10
4.86099
20
-2.32814
11
4.8618
21
-2.32999
0
LINE
8
BLACK
6
CONTINUOUS
10
4.8618
20
-2.32999
11
4.86122
21
-2.33193
0
LINE
8
BLACK
6
CONTINUOUS
10
4.86122
20
-2.33193
11
4.85953
21
-2.33304
0
LINE
8
BLACK
6
CONTINUOUS
10
4.85953
20
-2.33304
11
4.85753
21
-2.33281
0
LINE
8
BLACK
6
CONTINUOUS
10
4.85753
20
-2.33281
11
4.85378
21
-2.33094
0
LINE
8
BLACK
6
CONTINUOUS
10
4.85378
20
-2.33094
11
4.85307
21
-2.33041
0
LINE
8
BLACK
6
CONTINUOUS
10
4.85307
20
-2.33041
11
4.85301
21
-2.33039
0
LINE
8
BLACK
6
CONTINUOUS
10
4.85301
20
-2.33039
11
4.85055
21
-2.32793
0
LINE
8
BLACK
6
CONTINUOUS
10
4.85055
20
-2.32793
11
4.85055
21
-2.35534
0
LINE
8
BLACK
6
CONTINUOUS
10
4.85055
20
-2.35534
11
4.85885
21
-2.35534
0
LINE
8
BLACK
6
CONTINUOUS
10
4.85885
20
-2.35534
11
4.85986
21
-2.35552
0
LINE
8
BLACK
6
CONTINUOUS
10
4.85986
20
-2.35552
11
4.86141
21
-2.35682
0
LINE
8
BLACK
6
CONTINUOUS
10
4.86141
20
-2.35682
11
4.86176
21
-2.35881
0
LINE
8
BLACK
6
CONTINUOUS
10
4.86176
20
-2.35881
11
4.86075
21
-2.36056
0
LINE
8
BLACK
6
CONTINUOUS
10
4.86075
20
-2.36056
11
4.85885
21
-2.36125
0
LINE
8
BLACK
6
CONTINUOUS
10
4.85885
20
-2.36125
11
4.83635
21
-2.36125
0
LINE
8
BLACK
6
CONTINUOUS
10
4.83635
20
-2.36125
11
4.83534
21
-2.36107
0
LINE
8
BLACK
6
CONTINUOUS
10
4.83534
20
-2.36107
11
4.83379
21
-2.35977
0
LINE
8
BLACK
6
CONTINUOUS
10
4.83379
20
-2.35977
11
4.83344
21
-2.35778
0
LINE
8
BLACK
6
CONTINUOUS
10
4.83344
20
-2.35778
11
4.83445
21
-2.35603
0
LINE
8
BLACK
6
CONTINUOUS
10
4.83445
20
-2.35603
11
4.83635
21
-2.35534
0
LINE
8
BLACK
6
CONTINUOUS
10
4.83635
20
-2.35534
11
4.84465
21
-2.35534
0
LINE
8
BLACK
6
CONTINUOUS
10
4.84465
20
-2.35534
11
4.84465
21
-2.31892
0
LINE
8
BLACK
6
CONTINUOUS
10
4.84465
20
-2.31892
11
4.84483
21
-2.31791
0
LINE
8
BLACK
6
CONTINUOUS
10
4.84483
20
-2.31791
11
4.84493
21
-2.31778
0
LINE
8
BLACK
6
CONTINUOUS
10
4.84493
20
-2.31778
11
4.84495
21
-2.31761
0
LINE
8
BLACK
6
CONTINUOUS
10
4.84495
20
-2.31761
11
4.84557
21
-2.31702
0
LINE
8
BLACK
6
CONTINUOUS
10
4.84557
20
-2.31702
11
4.84612
21
-2.31637
0
LINE
8
BLACK
6
CONTINUOUS
10
4.84612
20
-2.31637
11
4.84629
21
-2.31634
0
LINE
8
BLACK
6
CONTINUOUS
10
4.84629
20
-2.31634
11
4.84641
21
-2.31622
0
LINE
8
BLACK
6
CONTINUOUS
10
4.84641
20
-2.31622
11
4.84727
21
-2.31616
0
LINE
8
BLACK
6
CONTINUOUS
10
4.84727
20
-2.31616
11
4.84811
21
-2.31602
0
LINE
8
BLACK
6
CONTINUOUS
10
4.84811
20
-2.31602
11
4.84826
21
-2.3161
0
LINE
8
BLACK
6
CONTINUOUS
10
4.89298
20
-2.31604
11
4.89311
21
-2.31602
0
LINE
8
BLACK
6
CONTINUOUS
10
4.89311
20
-2.31602
11
4.89322
21
-2.31608
0
LINE
8
BLACK
6
CONTINUOUS
10
4.89322
20
-2.31608
11
4.8936
21
-2.31615
0
LINE
8
BLACK
6
CONTINUOUS
10
4.8936
20
-2.31615
11
4.89419
21
-2.31664
0
LINE
8
BLACK
6
CONTINUOUS
10
4.89419
20
-2.31664
11
4.89486
21
-2.31703
0
LINE
8
BLACK
6
CONTINUOUS
10
4.89486
20
-2.31703
11
4.89495
21
-2.31728
0
LINE
8
BLACK
6
CONTINUOUS
10
4.89495
20
-2.31728
11
4.89515
21
-2.31745
0
LINE
8
BLACK
6
CONTINUOUS
10
4.89515
20
-2.31745
11
4.89529
21
-2.3182
0
LINE
8
BLACK
6
CONTINUOUS
10
4.89529
20
-2.3182
11
4.89555
21
-2.31892
0
LINE
8
BLACK
6
CONTINUOUS
10
4.89555
20
-2.31892
11
4.89555
21
-2.35829
0
LINE
8
BLACK
6
CONTINUOUS
10
4.89555
20
-2.35829
11
4.89548
21
-2.35868
0
LINE
8
BLACK
6
CONTINUOUS
10
4.89548
20
-2.35868
11
4.8955
21
-2.35881
0
LINE
8
BLACK
6
CONTINUOUS
10
4.8955
20
-2.35881
11
4.89544
21
-2.35892
0
LINE
8
BLACK
6
CONTINUOUS
10
4.89544
20
-2.35892
11
4.89537
21
-2.3593
0
LINE
8
BLACK
6
CONTINUOUS
10
4.89537
20
-2.3593
11
4.89488
21
-2.35989
0
LINE
8
BLACK
6
CONTINUOUS
10
4.89488
20
-2.35989
11
4.89449
21
-2.36056
0
LINE
8
BLACK
6
CONTINUOUS
10
4.89449
20
-2.36056
11
4.89424
21
-2.36065
0
LINE
8
BLACK
6
CONTINUOUS
10
4.89424
20
-2.36065
11
4.89407
21
-2.36085
0
LINE
8
BLACK
6
CONTINUOUS
10
4.89407
20
-2.36085
11
4.89332
21
-2.36098
0
LINE
8
BLACK
6
CONTINUOUS
10
4.89332
20
-2.36098
11
4.89259
21
-2.36125
0
LINE
8
BLACK
6
CONTINUOUS
10
4.89259
20
-2.36125
11
4.87385
21
-2.36125
0
LINE
8
BLACK
6
CONTINUOUS
10
4.87385
20
-2.36125
11
4.87284
21
-2.36107
0
LINE
8
BLACK
6
CONTINUOUS
10
4.87284
20
-2.36107
11
4.87129
21
-2.35977
0
LINE
8
BLACK
6
CONTINUOUS
10
4.87129
20
-2.35977
11
4.87094
21
-2.35778
0
LINE
8
BLACK
6
CONTINUOUS
10
4.87094
20
-2.35778
11
4.87195
21
-2.35603
0
LINE
8
BLACK
6
CONTINUOUS
10
4.87195
20
-2.35603
11
4.87385
21
-2.35534
0
LINE
8
BLACK
6
CONTINUOUS
10
4.87385
20
-2.35534
11
4.88964
21
-2.35534
0
LINE
8
BLACK
6
CONTINUOUS
10
4.88964
20
-2.35534
11
4.88964
21
-2.34062
0
LINE
8
BLACK
6
CONTINUOUS
10
4.88964
20
-2.34062
11
4.87947
21
-2.34062
0
LINE
8
BLACK
6
CONTINUOUS
10
4.87947
20
-2.34062
11
4.87846
21
-2.34045
0
LINE
8
BLACK
6
CONTINUOUS
10
4.87846
20
-2.34045
11
4.87691
21
-2.33915
0
LINE
8
BLACK
6
CONTINUOUS
10
4.87691
20
-2.33915
11
4.87656
21
-2.33716
0
LINE
8
BLACK
6
CONTINUOUS
10
4.87656
20
-2.33716
11
4.87757
21
-2.33541
0
LINE
8
BLACK
6
CONTINUOUS
10
4.87757
20
-2.33541
11
4.87947
21
-2.33472
0
LINE
8
BLACK
6
CONTINUOUS
10
4.87947
20
-2.33472
11
4.88964
21
-2.33472
0
LINE
8
BLACK
6
CONTINUOUS
10
4.88964
20
-2.33472
11
4.88964
21
-2.32188
0
LINE
8
BLACK
6
CONTINUOUS
10
4.88964
20
-2.32188
11
4.87385
21
-2.32188
0
LINE
8
BLACK
6
CONTINUOUS
10
4.87385
20
-2.32188
11
4.87284
21
-2.3217
0
LINE
8
BLACK
6
CONTINUOUS
10
4.87284
20
-2.3217
11
4.87129
21
-2.3204
0
LINE
8
BLACK
6
CONTINUOUS
10
4.87129
20
-2.3204
11
4.87094
21
-2.31841
0
LINE
8
BLACK
6
CONTINUOUS
10
4.87094
20
-2.31841
11
4.87195
21
-2.31666
0
LINE
8
BLACK
6
CONTINUOUS
10
4.87195
20
-2.31666
11
4.87385
21
-2.31597
0
LINE
8
BLACK
6
CONTINUOUS
10
4.87385
20
-2.31597
11
4.89259
21
-2.31597
0
LINE
8
BLACK
6
CONTINUOUS
10
4.89259
20
-2.31597
11
4.89298
21
-2.31604
0
LINE
8
BLACK
6
CONTINUOUS
10
4.9686
20
-2.31615
11
4.96873
21
-2.31626
0
LINE
8
BLACK
6
CONTINUOUS
10
4.96873
20
-2.31626
11
4.96891
21
-2.31628
0
LINE
8
BLACK
6
CONTINUOUS
10
4.96891
20
-2.31628
11
4.97266
21
-2.31816
0
LINE
8
BLACK
6
CONTINUOUS
10
4.97266
20
-2.31816
11
4.97336
21
-2.31868
0
LINE
8
BLACK
6
CONTINUOUS
10
4.97336
20
-2.31868
11
4.97342
21
-2.31871
0
LINE
8
BLACK
6
CONTINUOUS
10
4.97342
20
-2.31871
11
4.97717
21
-2.32246
0
LINE
8
BLACK
6
CONTINUOUS
10
4.97717
20
-2.32246
11
4.97776
21
-2.3233
0
LINE
8
BLACK
6
CONTINUOUS
10
4.97776
20
-2.3233
11
4.97779
21
-2.32359
0
LINE
8
BLACK
6
CONTINUOUS
10
4.97779
20
-2.32359
11
4.97795
21
-2.32383
0
LINE
8
BLACK
6
CONTINUOUS
10
4.97795
20
-2.32383
11
4.97982
21
-2.33133
0
LINE
8
BLACK
6
CONTINUOUS
10
4.97982
20
-2.33133
11
4.97987
21
-2.33192
0
LINE
8
BLACK
6
CONTINUOUS
10
4.97987
20
-2.33192
11
4.97991
21
-2.33205
0
LINE
8
BLACK
6
CONTINUOUS
10
4.97991
20
-2.33205
11
4.97991
21
-2.34517
0
LINE
8
BLACK
6
CONTINUOUS
10
4.97991
20
-2.34517
11
4.97981
21
-2.34575
0
LINE
8
BLACK
6
CONTINUOUS
10
4.97981
20
-2.34575
11
4.97982
21
-2.34589
0
LINE
8
BLACK
6
CONTINUOUS
10
4.97982
20
-2.34589
11
4.97795
21
-2.35339
0
LINE
8
BLACK
6
CONTINUOUS
10
4.97795
20
-2.35339
11
4.97753
21
-2.35432
0
LINE
8
BLACK
6
CONTINUOUS
10
4.97753
20
-2.35432
11
4.9773
21
-2.35449
0
LINE
8
BLACK
6
CONTINUOUS
10
4.9773
20
-2.35449
11
4.97717
21
-2.35476
0
LINE
8
BLACK
6
CONTINUOUS
10
4.97717
20
-2.35476
11
4.97342
21
-2.35851
0
LINE
8
BLACK
6
CONTINUOUS
10
4.97342
20
-2.35851
11
4.9727
21
-2.35901
0
LINE
8
BLACK
6
CONTINUOUS
10
4.9727
20
-2.35901
11
4.97266
21
-2.35906
0
LINE
8
BLACK
6
CONTINUOUS
10
4.97266
20
-2.35906
11
4.96891
21
-2.36093
0
LINE
8
BLACK
6
CONTINUOUS
10
4.96891
20
-2.36093
11
4.96792
21
-2.36123
0
LINE
8
BLACK
6
CONTINUOUS
10
4.96792
20
-2.36123
11
4.96775
21
-2.36119
0
LINE
8
BLACK
6
CONTINUOUS
10
4.96775
20
-2.36119
11
4.96759
21
-2.36125
0
LINE
8
BLACK
6
CONTINUOUS
10
4.96759
20
-2.36125
11
4.96009
21
-2.36125
0
LINE
8
BLACK
6
CONTINUOUS
10
4.96009
20
-2.36125
11
4.95908
21
-2.36107
0
LINE
8
BLACK
6
CONTINUOUS
10
4.95908
20
-2.36107
11
4.95894
21
-2.36095
0
LINE
8
BLACK
6
CONTINUOUS
10
4.95894
20
-2.36095
11
4.95877
21
-2.36093
0
LINE
8
BLACK
6
CONTINUOUS
10
4.95877
20
-2.36093
11
4.95502
21
-2.35906
0
LINE
8
BLACK
6
CONTINUOUS
10
4.95502
20
-2.35906
11
4.95431
21
-2.35853
0
LINE
8
BLACK
6
CONTINUOUS
10
4.95431
20
-2.35853
11
4.95425
21
-2.35851
0
LINE
8
BLACK
6
CONTINUOUS
10
4.95425
20
-2.35851
11
4.9505
21
-2.35476
0
LINE
8
BLACK
6
CONTINUOUS
10
4.9505
20
-2.35476
11
4.94991
21
-2.35392
0
LINE
8
BLACK
6
CONTINUOUS
10
4.94991
20
-2.35392
11
4.94989
21
-2.35363
0
LINE
8
BLACK
6
CONTINUOUS
10
4.94989
20
-2.35363
11
4.94972
21
-2.35339
0
LINE
8
BLACK
6
CONTINUOUS
10
4.94972
20
-2.35339
11
4.94785
21
-2.34589
0
LINE
8
BLACK
6
CONTINUOUS
10
4.94785
20
-2.34589
11
4.94781
21
-2.3453
0
LINE
8
BLACK
6
CONTINUOUS
10
4.94781
20
-2.3453
11
4.94776
21
-2.34517
0
LINE
8
BLACK
6
CONTINUOUS
10
4.94776
20
-2.34517
11
4.94776
21
-2.33205
0
LINE
8
BLACK
6
CONTINUOUS
10
4.94776
20
-2.33205
11
4.94786
21
-2.33147
0
LINE
8
BLACK
6
CONTINUOUS
10
4.94786
20
-2.33147
11
4.94785
21
-2.33133
0
LINE
8
BLACK
6
CONTINUOUS
10
4.94785
20
-2.33133
11
4.94972
21
-2.32383
0
LINE
8
BLACK
6
CONTINUOUS
10
4.94972
20
-2.32383
11
4.95014
21
-2.32289
0
LINE
8
BLACK
6
CONTINUOUS
10
4.95014
20
-2.32289
11
4.95038
21
-2.32272
0
LINE
8
BLACK
6
CONTINUOUS
10
4.95038
20
-2.32272
11
4.9505
21
-2.32246
0
LINE
8
BLACK
6
CONTINUOUS
10
4.9505
20
-2.32246
11
4.95425
21
-2.31871
0
LINE
8
BLACK
6
CONTINUOUS
10
4.95425
20
-2.31871
11
4.95497
21
-2.3182
0
LINE
8
BLACK
6
CONTINUOUS
10
4.95497
20
-2.3182
11
4.95502
21
-2.31816
0
LINE
8
BLACK
6
CONTINUOUS
10
4.95502
20
-2.31816
11
4.95877
21
-2.31628
0
LINE
8
BLACK
6
CONTINUOUS
10
4.95877
20
-2.31628
11
4.95975
21
-2.31599
0
LINE
8
BLACK
6
CONTINUOUS
10
4.95975
20
-2.31599
11
4.95992
21
-2.31603
0
LINE
8
BLACK
6
CONTINUOUS
10
4.95992
20
-2.31603
11
4.96009
21
-2.31597
0
LINE
8
BLACK
6
CONTINUOUS
10
4.96009
20
-2.31597
11
4.96759
21
-2.31597
0
LINE
8
BLACK
6
CONTINUOUS
10
4.96759
20
-2.31597
11
4.9686
21
-2.31615
0
LINE
8
BLACK
6
CONTINUOUS
10
4.95809
20
-2.32322
11
4.95525
21
-2.32606
0
LINE
8
BLACK
6
CONTINUOUS
10
4.95525
20
-2.32606
11
4.95367
21
-2.33241
0
LINE
8
BLACK
6
CONTINUOUS
10
4.95367
20
-2.33241
11
4.95367
21
-2.34481
0
LINE
8
BLACK
6
CONTINUOUS
10
4.95367
20
-2.34481
11
4.95525
21
-2.35116
0
LINE
8
BLACK
6
CONTINUOUS
10
4.95525
20
-2.35116
11
4.95809
21
-2.35399
0
LINE
8
BLACK
6
CONTINUOUS
10
4.95809
20
-2.35399
11
4.96078
21
-2.35534
0
LINE
8
BLACK
6
CONTINUOUS
10
4.96078
20
-2.35534
11
4.96689
21
-2.35534
0
LINE
8
BLACK
6
CONTINUOUS
10
4.96689
20
-2.35534
11
4.96959
21
-2.35399
0
LINE
8
BLACK
6
CONTINUOUS
10
4.96959
20
-2.35399
11
4.97242
21
-2.35116
0
LINE
8
BLACK
6
CONTINUOUS
10
4.97242
20
-2.35116
11
4.97401
21
-2.34481
0
LINE
8
BLACK
6
CONTINUOUS
10
4.97401
20
-2.34481
11
4.97401
21
-2.33241
0
LINE
8
BLACK
6
CONTINUOUS
10
4.97401
20
-2.33241
11
4.97242
21
-2.32606
0
LINE
8
BLACK
6
CONTINUOUS
10
4.97242
20
-2.32606
11
4.96959
21
-2.32322
0
LINE
8
BLACK
6
CONTINUOUS
10
4.96959
20
-2.32322
11
4.96689
21
-2.32188
0
LINE
8
BLACK
6
CONTINUOUS
10
4.96689
20
-2.32188
11
4.96078
21
-2.32188
0
LINE
8
BLACK
6
CONTINUOUS
10
4.96078
20
-2.32188
11
4.95809
21
-2.32322
0
LINE
8
BLACK
6
CONTINUOUS
10
4.93408
20
-2.31606
11
4.93435
21
-2.31602
0
LINE
8
BLACK
6
CONTINUOUS
10
4.93435
20
-2.31602
11
4.93501
21
-2.3164
0
LINE
8
BLACK
6
CONTINUOUS
10
4.93501
20
-2.3164
11
4.93573
21
-2.31665
0
LINE
8
BLACK
6
CONTINUOUS
10
4.93573
20
-2.31665
11
4.93586
21
-2.31689
0
LINE
8
BLACK
6
CONTINUOUS
10
4.93586
20
-2.31689
11
4.9361
21
-2.31703
0
LINE
8
BLACK
6
CONTINUOUS
10
4.9361
20
-2.31703
11
4.93636
21
-2.31774
0
LINE
8
BLACK
6
CONTINUOUS
10
4.93636
20
-2.31774
11
4.93675
21
-2.3184
0
LINE
8
BLACK
6
CONTINUOUS
10
4.93675
20
-2.3184
11
4.9367
21
-2.31867
0
LINE
8
BLACK
6
CONTINUOUS
10
4.9367
20
-2.31867
11
4.93679
21
-2.31892
0
LINE
8
BLACK
6
CONTINUOUS
10
4.93679
20
-2.31892
11
4.93679
21
-2.35829
0
LINE
8
BLACK
6
CONTINUOUS
10
4.93679
20
-2.35829
11
4.93661
21
-2.3593
0
LINE
8
BLACK
6
CONTINUOUS
10
4.93661
20
-2.3593
11
4.93532
21
-2.36085
0
LINE
8
BLACK
6
CONTINUOUS
10
4.93532
20
-2.36085
11
4.93333
21
-2.3612
0
LINE
8
BLACK
6
CONTINUOUS
10
4.93333
20
-2.3612
11
4.93158
21
-2.36019
0
LINE
8
BLACK
6
CONTINUOUS
10
4.93158
20
-2.36019
11
4.93089
21
-2.35829
0
LINE
8
BLACK
6
CONTINUOUS
10
4.93089
20
-2.35829
11
4.93089
21
-2.33004
0
LINE
8
BLACK
6
CONTINUOUS
10
4.93089
20
-2.33004
11
4.91391
21
-2.35976
0
LINE
8
BLACK
6
CONTINUOUS
10
4.91391
20
-2.35976
11
4.91325
21
-2.36055
0
LINE
8
BLACK
6
CONTINUOUS
10
4.91325
20
-2.36055
11
4.91299
21
-2.36064
0
LINE
8
BLACK
6
CONTINUOUS
10
4.91299
20
-2.36064
11
4.91282
21
-2.36085
0
LINE
8
BLACK
6
CONTINUOUS
10
4.91282
20
-2.36085
11
4.91207
21
-2.36098
0
LINE
8
BLACK
6
CONTINUOUS
10
4.91207
20
-2.36098
11
4.91136
21
-2.36125
0
LINE
8
BLACK
6
CONTINUOUS
10
4.91136
20
-2.36125
11
4.9111
21
-2.36115
0
LINE
8
BLACK
6
CONTINUOUS
10
4.9111
20
-2.36115
11
4.91083
21
-2.3612
0
LINE
8
BLACK
6
CONTINUOUS
10
4.91083
20
-2.3612
11
4.91017
21
-2.36082
0
LINE
8
BLACK
6
CONTINUOUS
10
4.91017
20
-2.36082
11
4.90945
21
-2.36056
0
LINE
8
BLACK
6
CONTINUOUS
10
4.90945
20
-2.36056
11
4.90932
21
-2.36033
0
LINE
8
BLACK
6
CONTINUOUS
10
4.90932
20
-2.36033
11
4.90908
21
-2.36019
0
LINE
8
BLACK
6
CONTINUOUS
10
4.90908
20
-2.36019
11
4.90882
21
-2.35948
0
LINE
8
BLACK
6
CONTINUOUS
10
4.90882
20
-2.35948
11
4.90844
21
-2.35882
0
LINE
8
BLACK
6
CONTINUOUS
10
4.90844
20
-2.35882
11
4.90848
21
-2.35855
0
LINE
8
BLACK
6
CONTINUOUS
10
4.90848
20
-2.35855
11
4.90839
21
-2.35829
0
LINE
8
BLACK
6
CONTINUOUS
10
4.90839
20
-2.35829
11
4.90839
21
-2.31892
0
LINE
8
BLACK
6
CONTINUOUS
10
4.90839
20
-2.31892
11
4.90857
21
-2.31791
0
LINE
8
BLACK
6
CONTINUOUS
10
4.90857
20
-2.31791
11
4.90987
21
-2.31637
0
LINE
8
BLACK
6
CONTINUOUS
10
4.90987
20
-2.31637
11
4.91186
21
-2.31602
0
LINE
8
BLACK
6
CONTINUOUS
10
4.91186
20
-2.31602
11
4.9136
21
-2.31703
0
LINE
8
BLACK
6
CONTINUOUS
10
4.9136
20
-2.31703
11
4.9143
21
-2.31892
0
LINE
8
BLACK
6
CONTINUOUS
10
4.9143
20
-2.31892
11
4.9143
21
-2.34717
0
LINE
8
BLACK
6
CONTINUOUS
10
4.9143
20
-2.34717
11
4.93128
21
-2.31746
0
LINE
8
BLACK
6
CONTINUOUS
10
4.93128
20
-2.31746
11
4.93193
21
-2.31667
0
LINE
8
BLACK
6
CONTINUOUS
10
4.93193
20
-2.31667
11
4.93219
21
-2.31658
0
LINE
8
BLACK
6
CONTINUOUS
10
4.93219
20
-2.31658
11
4.93236
21
-2.31637
0
LINE
8
BLACK
6
CONTINUOUS
10
4.93236
20
-2.31637
11
4.93311
21
-2.31623
0
LINE
8
BLACK
6
CONTINUOUS
10
4.93311
20
-2.31623
11
4.93383
21
-2.31597
0
LINE
8
BLACK
6
CONTINUOUS
10
4.93383
20
-2.31597
11
4.93408
21
-2.31606
0
LINE
8
BLACK
6
CONTINUOUS
10
5.01171
20
-2.31615
11
5.01326
21
-2.31745
0
LINE
8
BLACK
6
CONTINUOUS
10
5.01326
20
-2.31745
11
5.01361
21
-2.31944
0
LINE
8
BLACK
6
CONTINUOUS
10
5.01361
20
-2.31944
11
5.0126
21
-2.32119
0
LINE
8
BLACK
6
CONTINUOUS
10
5.0126
20
-2.32119
11
5.0107
21
-2.32188
0
LINE
8
BLACK
6
CONTINUOUS
10
5.0107
20
-2.32188
11
5.00241
21
-2.32188
0
LINE
8
BLACK
6
CONTINUOUS
10
5.00241
20
-2.32188
11
5.00241
21
-2.35829
0
LINE
8
BLACK
6
CONTINUOUS
10
5.00241
20
-2.35829
11
5.00223
21
-2.3593
0
LINE
8
BLACK
6
CONTINUOUS
10
5.00223
20
-2.3593
11
5.00093
21
-2.36085
0
LINE
8
BLACK
6
CONTINUOUS
10
5.00093
20
-2.36085
11
4.99894
21
-2.3612
0
LINE
8
BLACK
6
CONTINUOUS
10
4.99894
20
-2.3612
11
4.99719
21
-2.36019
0
LINE
8
BLACK
6
CONTINUOUS
10
4.99719
20
-2.36019
11
4.9965
21
-2.35829
0
LINE
8
BLACK
6
CONTINUOUS
10
4.9965
20
-2.35829
11
4.9965
21
-2.32188
0
LINE
8
BLACK
6
CONTINUOUS
10
4.9965
20
-2.32188
11
4.98821
21
-2.32188
0
LINE
8
BLACK
6
CONTINUOUS
10
4.98821
20
-2.32188
11
4.9872
21
-2.3217
0
LINE
8
BLACK
6
CONTINUOUS
10
4.9872
20
-2.3217
11
4.98565
21
-2.3204
0
LINE
8
BLACK
6
CONTINUOUS
10
4.98565
20
-2.3204
11
4.9853
21
-2.31841
0
LINE
8
BLACK
6
CONTINUOUS
10
4.9853
20
-2.31841
11
4.98631
21
-2.31666
0
LINE
8
BLACK
6
CONTINUOUS
10
4.98631
20
-2.31666
11
4.98821
21
-2.31597
0
LINE
8
BLACK
6
CONTINUOUS
10
4.98821
20
-2.31597
11
5.0107
21
-2.31597
0
LINE
8
BLACK
6
CONTINUOUS
10
5.0107
20
-2.31597
11
5.01171
21
-2.31615
0
LINE
8
BLACK
6
CONTINUOUS
10
5.87858
20
-5.40729
11
5.88367
21
-5.40962
0
LINE
8
BLACK
6
CONTINUOUS
10
5.88367
20
-5.40962
11
5.88791
21
-5.41329
0
LINE
8
BLACK
6
CONTINUOUS
10
5.88791
20
-5.41329
11
5.89094
21
-5.418
0
LINE
8
BLACK
6
CONTINUOUS
10
5.89094
20
-5.418
11
5.89252
21
-5.42338
0
LINE
8
BLACK
6
CONTINUOUS
10
5.89252
20
-5.42338
11
5.89252
21
-5.42898
0
LINE
8
BLACK
6
CONTINUOUS
10
5.89252
20
-5.42898
11
5.89094
21
-5.43436
0
LINE
8
BLACK
6
CONTINUOUS
10
5.89094
20
-5.43436
11
5.88791
21
-5.43907
0
LINE
8
BLACK
6
CONTINUOUS
10
5.88791
20
-5.43907
11
5.88367
21
-5.44274
0
LINE
8
BLACK
6
CONTINUOUS
10
5.88367
20
-5.44274
11
5.87858
21
-5.44507
0
LINE
8
BLACK
6
CONTINUOUS
10
5.87858
20
-5.44507
11
5.87303
21
-5.44587
0
LINE
8
BLACK
6
CONTINUOUS
10
5.87303
20
-5.44587
11
5.82382
21
-5.44587
0
LINE
8
BLACK
6
CONTINUOUS
10
5.82382
20
-5.44587
11
5.81827
21
-5.44507
0
LINE
8
BLACK
6
CONTINUOUS
10
5.81827
20
-5.44507
11
5.81318
21
-5.44274
0
LINE
8
BLACK
6
CONTINUOUS
10
5.81318
20
-5.44274
11
5.80894
21
-5.43907
0
LINE
8
BLACK
6
CONTINUOUS
10
5.80894
20
-5.43907
11
5.80591
21
-5.43436
0
LINE
8
BLACK
6
CONTINUOUS
10
5.80591
20
-5.43436
11
5.80433
21
-5.42898
0
LINE
8
BLACK
6
CONTINUOUS
10
5.80433
20
-5.42898
11
5.80433
21
-5.42338
0
LINE
8
BLACK
6
CONTINUOUS
10
5.80433
20
-5.42338
11
5.80591
21
-5.418
0
LINE
8
BLACK
6
CONTINUOUS
10
5.80591
20
-5.418
11
5.80894
21
-5.41329
0
LINE
8
BLACK
6
CONTINUOUS
10
5.80894
20
-5.41329
11
5.81318
21
-5.40962
0
LINE
8
BLACK
6
CONTINUOUS
10
5.81318
20
-5.40962
11
5.81827
21
-5.40729
0
LINE
8
BLACK
6
CONTINUOUS
10
5.81827
20
-5.40729
11
5.82382
21
-5.4065
0
LINE
8
BLACK
6
CONTINUOUS
10
5.82382
20
-5.4065
11
5.87303
21
-5.4065
0
LINE
8
BLACK
6
CONTINUOUS
10
5.87303
20
-5.4065
11
5.87858
21
-5.40729
0
LINE
8
BLACK
6
CONTINUOUS
10
5.66992
20
-5.40729
11
5.67501
21
-5.40962
0
LINE
8
BLACK
6
CONTINUOUS
10
5.67501
20
-5.40962
11
5.67925
21
-5.41329
0
LINE
8
BLACK
6
CONTINUOUS
10
5.67925
20
-5.41329
11
5.68228
21
-5.418
0
LINE
8
BLACK
6
CONTINUOUS
10
5.68228
20
-5.418
11
5.68385
21
-5.42338
0
LINE
8
BLACK
6
CONTINUOUS
10
5.68385
20
-5.42338
11
5.68385
21
-5.42898
0
LINE
8
BLACK
6
CONTINUOUS
10
5.68385
20
-5.42898
11
5.68228
21
-5.43436
0
LINE
8
BLACK
6
CONTINUOUS
10
5.68228
20
-5.43436
11
5.67925
21
-5.43907
0
LINE
8
BLACK
6
CONTINUOUS
10
5.67925
20
-5.43907
11
5.67501
21
-5.44274
0
LINE
8
BLACK
6
CONTINUOUS
10
5.67501
20
-5.44274
11
5.66992
21
-5.44507
0
LINE
8
BLACK
6
CONTINUOUS
10
5.66992
20
-5.44507
11
5.66437
21
-5.44587
0
LINE
8
BLACK
6
CONTINUOUS
10
5.66437
20
-5.44587
11
5.61516
21
-5.44587
0
LINE
8
BLACK
6
CONTINUOUS
10
5.61516
20
-5.44587
11
5.60961
21
-5.44507
0
LINE
8
BLACK
6
CONTINUOUS
10
5.60961
20
-5.44507
11
5.60451
21
-5.44274
0
LINE
8
BLACK
6
CONTINUOUS
10
5.60451
20
-5.44274
11
5.60028
21
-5.43907
0
LINE
8
BLACK
6
CONTINUOUS
10
5.60028
20
-5.43907
11
5.59725
21
-5.43436
0
LINE
8
BLACK
6
CONTINUOUS
10
5.59725
20
-5.43436
11
5.59567
21
-5.42898
0
LINE
8
BLACK
6
CONTINUOUS
10
5.59567
20
-5.42898
11
5.59567
21
-5.42338
0
LINE
8
BLACK
6
CONTINUOUS
10
5.59567
20
-5.42338
11
5.59725
21
-5.418
0
LINE
8
BLACK
6
CONTINUOUS
10
5.59725
20
-5.418
11
5.60028
21
-5.41329
0
LINE
8
BLACK
6
CONTINUOUS
10
5.60028
20
-5.41329
11
5.60451
21
-5.40962
0
LINE
8
BLACK
6
CONTINUOUS
10
5.60451
20
-5.40962
11
5.60961
21
-5.40729
0
LINE
8
BLACK
6
CONTINUOUS
10
5.60961
20
-5.40729
11
5.61516
21
-5.4065
0
LINE
8
BLACK
6
CONTINUOUS
10
5.61516
20
-5.4065
11
5.66437
21
-5.4065
0
LINE
8
BLACK
6
CONTINUOUS
10
5.66437
20
-5.4065
11
5.66992
21
-5.40729
0
LINE
8
BLACK
6
CONTINUOUS
10
5.46125
20
-5.40729
11
5.46635
21
-5.40962
0
LINE
8
BLACK
6
CONTINUOUS
10
5.46635
20
-5.40962
11
5.47059
21
-5.41329
0
LINE
8
BLACK
6
CONTINUOUS
10
5.47059
20
-5.41329
11
5.47361
21
-5.418
0
LINE
8
BLACK
6
CONTINUOUS
10
5.47361
20
-5.418
11
5.47519
21
-5.42338
0
LINE
8
BLACK
6
CONTINUOUS
10
5.47519
20
-5.42338
11
5.47519
21
-5.42898
0
LINE
8
BLACK
6
CONTINUOUS
10
5.47519
20
-5.42898
11
5.47361
21
-5.43436
0
LINE
8
BLACK
6
CONTINUOUS
10
5.47361
20
-5.43436
11
5.47059
21
-5.43907
0
LINE
8
BLACK
6
CONTINUOUS
10
5.47059
20
-5.43907
11
5.46635
21
-5.44274
0
LINE
8
BLACK
6
CONTINUOUS
10
5.46635
20
-5.44274
11
5.46125
21
-5.44507
0
LINE
8
BLACK
6
CONTINUOUS
10
5.46125
20
-5.44507
11
5.45571
21
-5.44587
0
LINE
8
BLACK
6
CONTINUOUS
10
5.45571
20
-5.44587
11
5.4065
21
-5.44587
0
LINE
8
BLACK
6
CONTINUOUS
10
5.4065
20
-5.44587
11
5.40095
21
-5.44507
0
LINE
8
BLACK
6
CONTINUOUS
10
5.40095
20
-5.44507
11
5.39585
21
-5.44274
0
LINE
8
BLACK
6
CONTINUOUS
10
5.39585
20
-5.44274
11
5.39162
21
-5.43907
0
LINE
8
BLACK
6
CONTINUOUS
10
5.39162
20
-5.43907
11
5.38859
21
-5.43436
0
LINE
8
BLACK
6
CONTINUOUS
10
5.38859
20
-5.43436
11
5.38701
21
-5.42898
0
LINE
8
BLACK
6
CONTINUOUS
10
5.38701
20
-5.42898
11
5.38701
21
-5.42338
0
LINE
8
BLACK
6
CONTINUOUS
10
5.38701
20
-5.42338
11
5.38859
21
-5.418
0
LINE
8
BLACK
6
CONTINUOUS
10
5.38859
20
-5.418
11
5.39162
21
-5.41329
0
LINE
8
BLACK
6
CONTINUOUS
10
5.39162
20
-5.41329
11
5.39585
21
-5.40962
0
LINE
8
BLACK
6
CONTINUOUS
10
5.39585
20
-5.40962
11
5.40095
21
-5.40729
0
LINE
8
BLACK
6
CONTINUOUS
10
5.40095
20
-5.40729
11
5.4065
21
-5.4065
0
LINE
8
BLACK
6
CONTINUOUS
10
5.4065
20
-5.4065
11
5.45571
21
-5.4065
0
LINE
8
BLACK
6
CONTINUOUS
10
5.45571
20
-5.4065
11
5.46125
21
-5.40729
0
LINE
8
BLACK
6
CONTINUOUS
10
5.87858
20
-5.59233
11
5.88367
21
-5.59466
0
LINE
8
BLACK
6
CONTINUOUS
10
5.88367
20
-5.59466
11
5.88791
21
-5.59833
0
LINE
8
BLACK
6
CONTINUOUS
10
5.88791
20
-5.59833
11
5.89094
21
-5.60304
0
LINE
8
BLACK
6
CONTINUOUS
10
5.89094
20
-5.60304
11
5.89252
21
-5.60842
0
LINE
8
BLACK
6
CONTINUOUS
10
5.89252
20
-5.60842
11
5.89252
21
-5.61402
0
LINE
8
BLACK
6
CONTINUOUS
10
5.89252
20
-5.61402
11
5.89094
21
-5.6194
0
LINE
8
BLACK
6
CONTINUOUS
10
5.89094
20
-5.6194
11
5.88791
21
-5.62411
0
LINE
8
BLACK
6
CONTINUOUS
10
5.88791
20
-5.62411
11
5.88367
21
-5.62778
0
LINE
8
BLACK
6
CONTINUOUS
10
5.88367
20
-5.62778
11
5.87858
21
-5.63011
0
LINE
8
BLACK
6
CONTINUOUS
10
5.87858
20
-5.63011
11
5.87303
21
-5.63091
0
LINE
8
BLACK
6
CONTINUOUS
10
5.87303
20
-5.63091
11
5.82382
21
-5.63091
0
LINE
8
BLACK
6
CONTINUOUS
10
5.82382
20
-5.63091
11
5.81827
21
-5.63011
0
LINE
8
BLACK
6
CONTINUOUS
10
5.81827
20
-5.63011
11
5.81318
21
-5.62778
0
LINE
8
BLACK
6
CONTINUOUS
10
5.81318
20
-5.62778
11
5.80894
21
-5.62411
0
LINE
8
BLACK
6
CONTINUOUS
10
5.80894
20
-5.62411
11
5.80591
21
-5.6194
0
LINE
8
BLACK
6
CONTINUOUS
10
5.80591
20
-5.6194
11
5.80433
21
-5.61402
0
LINE
8
BLACK
6
CONTINUOUS
10
5.80433
20
-5.61402
11
5.80433
21
-5.60842
0
LINE
8
BLACK
6
CONTINUOUS
10
5.80433
20
-5.60842
11
5.80591
21
-5.60304
0
LINE
8
BLACK
6
CONTINUOUS
10
5.80591
20
-5.60304
11
5.80894
21
-5.59833
0
LINE
8
BLACK
6
CONTINUOUS
10
5.80894
20
-5.59833
11
5.81318
21
-5.59466
0
LINE
8
BLACK
6
CONTINUOUS
10
5.81318
20
-5.59466
11
5.81827
21
-5.59233
0
LINE
8
BLACK
6
CONTINUOUS
10
5.81827
20
-5.59233
11
5.82382
21
-5.59154
0
LINE
8
BLACK
6
CONTINUOUS
10
5.82382
20
-5.59154
11
5.87303
21
-5.59154
0
LINE
8
BLACK
6
CONTINUOUS
10
5.87303
20
-5.59154
11
5.87858
21
-5.59233
0
LINE
8
BLACK
6
CONTINUOUS
10
5.66992
20
-5.59332
11
5.67501
21
-5.59564
0
LINE
8
BLACK
6
CONTINUOUS
10
5.67501
20
-5.59564
11
5.67925
21
-5.59931
0
LINE
8
BLACK
6
CONTINUOUS
10
5.67925
20
-5.59931
11
5.68228
21
-5.60403
0
LINE
8
BLACK
6
CONTINUOUS
10
5.68228
20
-5.60403
11
5.68385
21
-5.6094
0
LINE
8
BLACK
6
CONTINUOUS
10
5.68385
20
-5.6094
11
5.68385
21
-5.61501
0
LINE
8
BLACK
6
CONTINUOUS
10
5.68385
20
-5.61501
11
5.68228
21
-5.62038
0
LINE
8
BLACK
6
CONTINUOUS
10
5.68228
20
-5.62038
11
5.67925
21
-5.6251
0
LINE
8
BLACK
6
CONTINUOUS
10
5.67925
20
-5.6251
11
5.67501
21
-5.62876
0
LINE
8
BLACK
6
CONTINUOUS
10
5.67501
20
-5.62876
11
5.66992
21
-5.63109
0
LINE
8
BLACK
6
CONTINUOUS
10
5.66992
20
-5.63109
11
5.66437
21
-5.63189
0
LINE
8
BLACK
6
CONTINUOUS
10
5.66437
20
-5.63189
11
5.61516
21
-5.63189
0
LINE
8
BLACK
6
CONTINUOUS
10
5.61516
20
-5.63189
11
5.60961
21
-5.63109
0
LINE
8
BLACK
6
CONTINUOUS
10
5.60961
20
-5.63109
11
5.60451
21
-5.62876
0
LINE
8
BLACK
6
CONTINUOUS
10
5.60451
20
-5.62876
11
5.60028
21
-5.6251
0
LINE
8
BLACK
6
CONTINUOUS
10
5.60028
20
-5.6251
11
5.59725
21
-5.62038
0
LINE
8
BLACK
6
CONTINUOUS
10
5.59725
20
-5.62038
11
5.59567
21
-5.61501
0
LINE
8
BLACK
6
CONTINUOUS
10
5.59567
20
-5.61501
11
5.59567
21
-5.6094
0
LINE
8
BLACK
6
CONTINUOUS
10
5.59567
20
-5.6094
11
5.59725
21
-5.60403
0
LINE
8
BLACK
6
CONTINUOUS
10
5.59725
20
-5.60403
11
5.60028
21
-5.59931
0
LINE
8
BLACK
6
CONTINUOUS
10
5.60028
20
-5.59931
11
5.60451
21
-5.59564
0
LINE
8
BLACK
6
CONTINUOUS
10
5.60451
20
-5.59564
11
5.60961
21
-5.59332
0
LINE
8
BLACK
6
CONTINUOUS
10
5.60961
20
-5.59332
11
5.61516
21
-5.59252
0
LINE
8
BLACK
6
CONTINUOUS
10
5.61516
20
-5.59252
11
5.66437
21
-5.59252
0
LINE
8
BLACK
6
CONTINUOUS
10
5.66437
20
-5.59252
11
5.66992
21
-5.59332
0
LINE
8
BLACK
6
CONTINUOUS
10
5.46125
20
-5.59233
11
5.46635
21
-5.59466
0
LINE
8
BLACK
6
CONTINUOUS
10
5.46635
20
-5.59466
11
5.47059
21
-5.59833
0
LINE
8
BLACK
6
CONTINUOUS
10
5.47059
20
-5.59833
11
5.47361
21
-5.60304
0
LINE
8
BLACK
6
CONTINUOUS
10
5.47361
20
-5.60304
11
5.47519
21
-5.60842
0
LINE
8
BLACK
6
CONTINUOUS
10
5.47519
20
-5.60842
11
5.47519
21
-5.61402
0
LINE
8
BLACK
6
CONTINUOUS
10
5.47519
20
-5.61402
11
5.47361
21
-5.6194
0
LINE
8
BLACK
6
CONTINUOUS
10
5.47361
20
-5.6194
11
5.47059
21
-5.62411
0
LINE
8
BLACK
6
CONTINUOUS
10
5.47059
20
-5.62411
11
5.46635
21
-5.62778
0
LINE
8
BLACK
6
CONTINUOUS
10
5.46635
20
-5.62778
11
5.46125
21
-5.63011
0
LINE
8
BLACK
6
CONTINUOUS
10
5.46125
20
-5.63011
11
5.45571
21
-5.63091
0
LINE
8
BLACK
6
CONTINUOUS
10
5.45571
20
-5.63091
11
5.4065
21
-5.63091
0
LINE
8
BLACK
6
CONTINUOUS
10
5.4065
20
-5.63091
11
5.40095
21
-5.63011
0
LINE
8
BLACK
6
CONTINUOUS
10
5.40095
20
-5.63011
11
5.39585
21
-5.62778
0
LINE
8
BLACK
6
CONTINUOUS
10
5.39585
20
-5.62778
11
5.39162
21
-5.62411
0
LINE
8
BLACK
6
CONTINUOUS
10
5.39162
20
-5.62411
11
5.38859
21
-5.6194
0
LINE
8
BLACK
6
CONTINUOUS
10
5.38859
20
-5.6194
11
5.38701
21
-5.61402
0
LINE
8
BLACK
6
CONTINUOUS
10
5.38701
20
-5.61402
11
5.38701
21
-5.60842
0
LINE
8
BLACK
6
CONTINUOUS
10
5.38701
20
-5.60842
11
5.38859
21
-5.60304
0
LINE
8
BLACK
6
CONTINUOUS
10
5.38859
20
-5.60304
11
5.39162
21
-5.59833
0
LINE
8
BLACK
6
CONTINUOUS
10
5.39162
20
-5.59833
11
5.39585
21
-5.59466
0
LINE
8
BLACK
6
CONTINUOUS
10
5.39585
20
-5.59466
11
5.40095
21
-5.59233
0
LINE
8
BLACK
6
CONTINUOUS
10
5.40095
20
-5.59233
11
5.4065
21
-5.59154
0
LINE
8
BLACK
6
CONTINUOUS
10
5.4065
20
-5.59154
11
5.45571
21
-5.59154
0
LINE
8
BLACK
6
CONTINUOUS
10
5.45571
20
-5.59154
11
5.46125
21
-5.59233
0
LINE
8
BLACK
6
CONTINUOUS
10
5.87858
20
-5.77737
11
5.88367
21
-5.7797
0
LINE
8
BLACK
6
CONTINUOUS
10
5.88367
20
-5.7797
11
5.88791
21
-5.78337
0
LINE
8
BLACK
6
CONTINUOUS
10
5.88791
20
-5.78337
11
5.89094
21
-5.78808
0
LINE
8
BLACK
6
CONTINUOUS
10
5.89094
20
-5.78808
11
5.89252
21
-5.79346
0
LINE
8
BLACK
6
CONTINUOUS
10
5.89252
20
-5.79346
11
5.89252
21
-5.79906
0
LINE
8
BLACK
6
CONTINUOUS
10
5.89252
20
-5.79906
11
5.89094
21
-5.80444
0
LINE
8
BLACK
6
CONTINUOUS
10
5.89094
20
-5.80444
11
5.88791
21
-5.80915
0
LINE
8
BLACK
6
CONTINUOUS
10
5.88791
20
-5.80915
11
5.88367
21
-5.81282
0
LINE
8
BLACK
6
CONTINUOUS
10
5.88367
20
-5.81282
11
5.87858
21
-5.81515
0
LINE
8
BLACK
6
CONTINUOUS
10
5.87858
20
-5.81515
11
5.87303
21
-5.81594
0
LINE
8
BLACK
6
CONTINUOUS
10
5.87303
20
-5.81594
11
5.82382
21
-5.81594
0
LINE
8
BLACK
6
CONTINUOUS
10
5.82382
20
-5.81594
11
5.81827
21
-5.81515
0
LINE
8
BLACK
6
CONTINUOUS
10
5.81827
20
-5.81515
11
5.81318
21
-5.81282
0
LINE
8
BLACK
6
CONTINUOUS
10
5.81318
20
-5.81282
11
5.80894
21
-5.80915
0
LINE
8
BLACK
6
CONTINUOUS
10
5.80894
20
-5.80915
11
5.80591
21
-5.80444
0
LINE
8
BLACK
6
CONTINUOUS
10
5.80591
20
-5.80444
11
5.80433
21
-5.79906
0
LINE
8
BLACK
6
CONTINUOUS
10
5.80433
20
-5.79906
11
5.80433
21
-5.79346
0
LINE
8
BLACK
6
CONTINUOUS
10
5.80433
20
-5.79346
11
5.80591
21
-5.78808
0
LINE
8
BLACK
6
CONTINUOUS
10
5.80591
20
-5.78808
11
5.80894
21
-5.78337
0
LINE
8
BLACK
6
CONTINUOUS
10
5.80894
20
-5.78337
11
5.81318
21
-5.7797
0
LINE
8
BLACK
6
CONTINUOUS
10
5.81318
20
-5.7797
11
5.81827
21
-5.77737
0
LINE
8
BLACK
6
CONTINUOUS
10
5.81827
20
-5.77737
11
5.82382
21
-5.77657
0
LINE
8
BLACK
6
CONTINUOUS
10
5.82382
20
-5.77657
11
5.87303
21
-5.77657
0
LINE
8
BLACK
6
CONTINUOUS
10
5.87303
20
-5.77657
11
5.87858
21
-5.77737
0
LINE
8
BLACK
6
CONTINUOUS
10
5.66992
20
-5.77737
11
5.67501
21
-5.7797
0
LINE
8
BLACK
6
CONTINUOUS
10
5.67501
20
-5.7797
11
5.67925
21
-5.78337
0
LINE
8
BLACK
6
CONTINUOUS
10
5.67925
20
-5.78337
11
5.68228
21
-5.78808
0
LINE
8
BLACK
6
CONTINUOUS
10
5.68228
20
-5.78808
11
5.68385
21
-5.79346
0
LINE
8
BLACK
6
CONTINUOUS
10
5.68385
20
-5.79346
11
5.68385
21
-5.79906
0
LINE
8
BLACK
6
CONTINUOUS
10
5.68385
20
-5.79906
11
5.68228
21
-5.80444
0
LINE
8
BLACK
6
CONTINUOUS
10
5.68228
20
-5.80444
11
5.67925
21
-5.80915
0
LINE
8
BLACK
6
CONTINUOUS
10
5.67925
20
-5.80915
11
5.67501
21
-5.81282
0
LINE
8
BLACK
6
CONTINUOUS
10
5.67501
20
-5.81282
11
5.66992
21
-5.81515
0
LINE
8
BLACK
6
CONTINUOUS
10
5.66992
20
-5.81515
11
5.66437
21
-5.81594
0
LINE
8
BLACK
6
CONTINUOUS
10
5.66437
20
-5.81594
11
5.61516
21
-5.81594
0
LINE
8
BLACK
6
CONTINUOUS
10
5.61516
20
-5.81594
11
5.60961
21
-5.81515
0
LINE
8
BLACK
6
CONTINUOUS
10
5.60961
20
-5.81515
11
5.60451
21
-5.81282
0
LINE
8
BLACK
6
CONTINUOUS
10
5.60451
20
-5.81282
11
5.60028
21
-5.80915
0
LINE
8
BLACK
6
CONTINUOUS
10
5.60028
20
-5.80915
11
5.59725
21
-5.80444
0
LINE
8
BLACK
6
CONTINUOUS
10
5.59725
20
-5.80444
11
5.59567
21
-5.79906
0
LINE
8
BLACK
6
CONTINUOUS
10
5.59567
20
-5.79906
11
5.59567
21
-5.79346
0
LINE
8
BLACK
6
CONTINUOUS
10
5.59567
20
-5.79346
11
5.59725
21
-5.78808
0
LINE
8
BLACK
6
CONTINUOUS
10
5.59725
20
-5.78808
11
5.60028
21
-5.78337
0
LINE
8
BLACK
6
CONTINUOUS
10
5.60028
20
-5.78337
11
5.60451
21
-5.7797
0
LINE
8
BLACK
6
CONTINUOUS
10
5.60451
20
-5.7797
11
5.60961
21
-5.77737
0
LINE
8
BLACK
6
CONTINUOUS
10
5.60961
20
-5.77737
11
5.61516
21
-5.77657
0
LINE
8
BLACK
6
CONTINUOUS
10
5.61516
20
-5.77657
11
5.66437
21
-5.77657
0
LINE
8
BLACK
6
CONTINUOUS
10
5.66437
20
-5.77657
11
5.66992
21
-5.77737
0
LINE
8
BLACK
6
CONTINUOUS
10
5.46125
20
-5.77737
11
5.46635
21
-5.7797
0
LINE
8
BLACK
6
CONTINUOUS
10
5.46635
20
-5.7797
11
5.47059
21
-5.78337
0
LINE
8
BLACK
6
CONTINUOUS
10
5.47059
20
-5.78337
11
5.47361
21
-5.78808
0
LINE
8
BLACK
6
CONTINUOUS
10
5.47361
20
-5.78808
11
5.47519
21
-5.79346
0
LINE
8
BLACK
6
CONTINUOUS
10
5.47519
20
-5.79346
11
5.47519
21
-5.79906
0
LINE
8
BLACK
6
CONTINUOUS
10
5.47519
20
-5.79906
11
5.47361
21
-5.80444
0
LINE
8
BLACK
6
CONTINUOUS
10
5.47361
20
-5.80444
11
5.47059
21
-5.80915
0
LINE
8
BLACK
6
CONTINUOUS
10
5.47059
20
-5.80915
11
5.46635
21
-5.81282
0
LINE
8
BLACK
6
CONTINUOUS
10
5.46635
20
-5.81282
11
5.46125
21
-5.81515
0
LINE
8
BLACK
6
CONTINUOUS
10
5.46125
20
-5.81515
11
5.45571
21
-5.81594
0
LINE
8
BLACK
6
CONTINUOUS
10
5.45571
20
-5.81594
11
5.4065
21
-5.81594
0
LINE
8
BLACK
6
CONTINUOUS
10
5.4065
20
-5.81594
11
5.40095
21
-5.81515
0
LINE
8
BLACK
6
CONTINUOUS
10
5.40095
20
-5.81515
11
5.39585
21
-5.81282
0
LINE
8
BLACK
6
CONTINUOUS
10
5.39585
20
-5.81282
11
5.39162
21
-5.80915
0
LINE
8
BLACK
6
CONTINUOUS
10
5.39162
20
-5.80915
11
5.38859
21
-5.80444
0
LINE
8
BLACK
6
CONTINUOUS
10
5.38859
20
-5.80444
11
5.38701
21
-5.79906
0
LINE
8
BLACK
6
CONTINUOUS
10
5.38701
20
-5.79906
11
5.38701
21
-5.79346
0
LINE
8
BLACK
6
CONTINUOUS
10
5.38701
20
-5.79346
11
5.38859
21
-5.78808
0
LINE
8
BLACK
6
CONTINUOUS
10
5.38859
20
-5.78808
11
5.39162
21
-5.78337
0
LINE
8
BLACK
6
CONTINUOUS
10
5.39162
20
-5.78337
11
5.39585
21
-5.7797
0
LINE
8
BLACK
6
CONTINUOUS
10
5.39585
20
-5.7797
11
5.40095
21
-5.77737
0
LINE
8
BLACK
6
CONTINUOUS
10
5.40095
20
-5.77737
11
5.4065
21
-5.77657
0
LINE
8
BLACK
6
CONTINUOUS
10
5.4065
20
-5.77657
11
5.45571
21
-5.77657
0
LINE
8
BLACK
6
CONTINUOUS
10
5.45571
20
-5.77657
11
5.46125
21
-5.77737
0
CIRCLE
8
BLACK
10
5.06535
20
-5.14685
40
0.0275591
0
CIRCLE
8
BLACK
10
5.06535
20
-4.50787
40
0.0275591
0
CIRCLE
8
BLACK
10
4.81535
20
-5.14685
40
0.0275591
0
CIRCLE
8
BLACK
10
4.81535
20
-4.50787
40
0.0275591
0
CIRCLE
8
BLACK
10
5.31535
20
-5.14685
40
0.0275591
0
CIRCLE
8
BLACK
10
5.31535
20
-4.50787
40
0.0275591
0
CIRCLE
8
BLACK
10
5.29567
20
-2.16535
40
0.019685
0
CIRCLE
8
BLACK
10
5.29567
20
-2.26535
40
0.019685
0
CIRCLE
8
BLACK
10
5.77559
20
-4.38386
40
0.019685
0
CIRCLE
8
BLACK
10
5.67559
20
-4.38386
40
0.019685
0
CIRCLE
8
BLACK
10
5.57559
20
-4.38386
40
0.019685
0
CIRCLE
8
BLACK
10
5.47559
20
-4.38386
40
0.019685
0
CIRCLE
8
BLACK
10
5.77559
20
-4.16535
40
0.019685
0
CIRCLE
8
BLACK
10
5.67559
20
-4.16535
40
0.019685
0
CIRCLE
8
BLACK
10
5.57559
20
-4.16535
40
0.019685
0
CIRCLE
8
BLACK
10
5.47559
20
-4.16535
40
0.019685
0
CIRCLE
8
BLACK
10
6.37795
20
-5.51969
40
0.015748
0
CIRCLE
8
BLACK
10
6.37795
20
-5.61811
40
0.015748
0
CIRCLE
8
BLACK
10
4.82283
20
-5.41496
40
0.0197
0
CIRCLE
8
BLACK
10
4.82283
20
-5.31496
40
0.0197
0
CIRCLE
8
BLACK
10
6.12205
20
-5.31496
40
0.0197
0
CIRCLE
8
BLACK
10
6.12205
20
-5.61496
40
0.0197
0
CIRCLE
8
BLACK
10
5.02992
20
-5.61417
40
0.0197
0
CIRCLE
8
BLACK
10
5.02992
20
-5.31417
40
0.0197
0
CIRCLE
8
BLACK
10
5.15787
20
-5.31496
40
0.0197
0
CIRCLE
8
BLACK
10
5.15787
20
-5.61496
40
0.0197
0
CIRCLE
8
BLACK
10
6.34055
20
-5.31496
40
0.015748
0
CIRCLE
8
BLACK
10
6.5374
20
-5.31496
40
0.015748
0
CIRCLE
8
BLACK
10
5.6748
20
-4.59882
40
0.019685
0
CIRCLE
8
BLACK
10
5.5748
20
-4.59882
40
0.019685
0
CIRCLE
8
BLACK
10
6.17815
20
-4.50787
40
0.0275591
0
CIRCLE
8
BLACK
10
6.17815
20
-5.14685
40
0.0275591
0
CIRCLE
8
BLACK
10
6.42815
20
-4.50787
40
0.0275591
0
CIRCLE
8
BLACK
10
6.42815
20
-5.14685
40
0.0275591
0
CIRCLE
8
BLACK
10
5.92815
20
-4.50787
40
0.0275591
0
CIRCLE
8
BLACK
10
5.92815
20
-5.14685
40
0.0275591
0
LINE
8
BLACK
6
CONTINUOUS
10
5.64619
20
-3.21968
11
5.65217
21
-3.22122
0
LINE
8
BLACK
6
CONTINUOUS
10
5.65217
20
-3.22122
11
5.65757
21
-3.22419
0
LINE
8
BLACK
6
CONTINUOUS
10
5.65757
20
-3.22419
11
5.66207
21
-3.22841
0
LINE
8
BLACK
6
CONTINUOUS
10
5.66207
20
-3.22841
11
5.66537
21
-3.23362
0
LINE
8
BLACK
6
CONTINUOUS
10
5.66537
20
-3.23362
11
5.66728
21
-3.23948
0
LINE
8
BLACK
6
CONTINUOUS
10
5.66728
20
-3.23948
11
5.66767
21
-3.24564
0
LINE
8
BLACK
6
CONTINUOUS
10
5.66767
20
-3.24564
11
5.66651
21
-3.2517
0
LINE
8
BLACK
6
CONTINUOUS
10
5.66651
20
-3.2517
11
5.66389
21
-3.25728
0
LINE
8
BLACK
6
CONTINUOUS
10
5.66389
20
-3.25728
11
5.65995
21
-3.26203
0
LINE
8
BLACK
6
CONTINUOUS
10
5.65995
20
-3.26203
11
5.65496
21
-3.26566
0
LINE
8
BLACK
6
CONTINUOUS
10
5.65496
20
-3.26566
11
5.64923
21
-3.26793
0
LINE
8
BLACK
6
CONTINUOUS
10
5.64923
20
-3.26793
11
5.64311
21
-3.2687
0
LINE
8
BLACK
6
CONTINUOUS
10
5.64311
20
-3.2687
11
5.5939
21
-3.2687
0
LINE
8
BLACK
6
CONTINUOUS
10
5.5939
20
-3.2687
11
5.59081
21
-3.26851
0
LINE
8
BLACK
6
CONTINUOUS
10
5.59081
20
-3.26851
11
5.58484
21
-3.26697
0
LINE
8
BLACK
6
CONTINUOUS
10
5.58484
20
-3.26697
11
5.57943
21
-3.264
0
LINE
8
BLACK
6
CONTINUOUS
10
5.57943
20
-3.264
11
5.57494
21
-3.25978
0
LINE
8
BLACK
6
CONTINUOUS
10
5.57494
20
-3.25978
11
5.57163
21
-3.25457
0
LINE
8
BLACK
6
CONTINUOUS
10
5.57163
20
-3.25457
11
5.56973
21
-3.24871
0
LINE
8
BLACK
6
CONTINUOUS
10
5.56973
20
-3.24871
11
5.56934
21
-3.24255
0
LINE
8
BLACK
6
CONTINUOUS
10
5.56934
20
-3.24255
11
5.5705
21
-3.23649
0
LINE
8
BLACK
6
CONTINUOUS
10
5.5705
20
-3.23649
11
5.57312
21
-3.23091
0
LINE
8
BLACK
6
CONTINUOUS
10
5.57312
20
-3.23091
11
5.57705
21
-3.22616
0
LINE
8
BLACK
6
CONTINUOUS
10
5.57705
20
-3.22616
11
5.58204
21
-3.22253
0
LINE
8
BLACK
6
CONTINUOUS
10
5.58204
20
-3.22253
11
5.58778
21
-3.22026
0
LINE
8
BLACK
6
CONTINUOUS
10
5.58778
20
-3.22026
11
5.5939
21
-3.21949
0
LINE
8
BLACK
6
CONTINUOUS
10
5.5939
20
-3.21949
11
5.64311
21
-3.21949
0
LINE
8
BLACK
6
CONTINUOUS
10
5.64311
20
-3.21949
11
5.64619
21
-3.21968
0
LINE
8
BLACK
6
CONTINUOUS
10
5.64619
20
-3.04449
11
5.65217
21
-3.04602
0
LINE
8
BLACK
6
CONTINUOUS
10
5.65217
20
-3.04602
11
5.65757
21
-3.04899
0
LINE
8
BLACK
6
CONTINUOUS
10
5.65757
20
-3.04899
11
5.66207
21
-3.05321
0
LINE
8
BLACK
6
CONTINUOUS
10
5.66207
20
-3.05321
11
5.66537
21
-3.05842
0
LINE
8
BLACK
6
CONTINUOUS
10
5.66537
20
-3.05842
11
5.66728
21
-3.06429
0
LINE
8
BLACK
6
CONTINUOUS
10
5.66728
20
-3.06429
11
5.66767
21
-3.07044
0
LINE
8
BLACK
6
CONTINUOUS
10
5.66767
20
-3.07044
11
5.66651
21
-3.0765
0
LINE
8
BLACK
6
CONTINUOUS
10
5.66651
20
-3.0765
11
5.66389
21
-3.08208
0
LINE
8
BLACK
6
CONTINUOUS
10
5.66389
20
-3.08208
11
5.65995
21
-3.08683
0
LINE
8
BLACK
6
CONTINUOUS
10
5.65995
20
-3.08683
11
5.65496
21
-3.09046
0
LINE
8
BLACK
6
CONTINUOUS
10
5.65496
20
-3.09046
11
5.64923
21
-3.09273
0
LINE
8
BLACK
6
CONTINUOUS
10
5.64923
20
-3.09273
11
5.64311
21
-3.0935
0
LINE
8
BLACK
6
CONTINUOUS
10
5.64311
20
-3.0935
11
5.5939
21
-3.0935
0
LINE
8
BLACK
6
CONTINUOUS
10
5.5939
20
-3.0935
11
5.59081
21
-3.09331
0
LINE
8
BLACK
6
CONTINUOUS
10
5.59081
20
-3.09331
11
5.58484
21
-3.09178
0
LINE
8
BLACK
6
CONTINUOUS
10
5.58484
20
-3.09178
11
5.57943
21
-3.0888
0
LINE
8
BLACK
6
CONTINUOUS
10
5.57943
20
-3.0888
11
5.57494
21
-3.08458
0
LINE
8
BLACK
6
CONTINUOUS
10
5.57494
20
-3.08458
11
5.57163
21
-3.07937
0
LINE
8
BLACK
6
CONTINUOUS
10
5.57163
20
-3.07937
11
5.56973
21
-3.07351
0
LINE
8
BLACK
6
CONTINUOUS
10
5.56973
20
-3.07351
11
5.56934
21
-3.06735
0
LINE
8
BLACK
6
CONTINUOUS
10
5.56934
20
-3.06735
11
5.5705
21
-3.06129
0
LINE
8
BLACK
6
CONTINUOUS
10
5.5705
20
-3.06129
11
5.57312
21
-3.05571
0
LINE
8
BLACK
6
CONTINUOUS
10
5.57312
20
-3.05571
11
5.57705
21
-3.05096
0
LINE
8
BLACK
6
CONTINUOUS
10
5.57705
20
-3.05096
11
5.58204
21
-3.04733
0
LINE
8
BLACK
6
CONTINUOUS
10
5.58204
20
-3.04733
11
5.58778
21
-3.04506
0
LINE
8
BLACK
6
CONTINUOUS
10
5.58778
20
-3.04506
11
5.5939
21
-3.04429
0
LINE
8
BLACK
6
CONTINUOUS
10
5.5939
20
-3.04429
11
5.64311
21
-3.04429
0
LINE
8
BLACK
6
CONTINUOUS
10
5.64311
20
-3.04429
11
5.64619
21
-3.04449
0
LINE
8
BLACK
6
CONTINUOUS
10
5.64619
20
-2.86929
11
5.65217
21
-2.87082
0
LINE
8
BLACK
6
CONTINUOUS
10
5.65217
20
-2.87082
11
5.65757
21
-2.87379
0
LINE
8
BLACK
6
CONTINUOUS
10
5.65757
20
-2.87379
11
5.66207
21
-2.87802
0
LINE
8
BLACK
6
CONTINUOUS
10
5.66207
20
-2.87802
11
5.66537
21
-2.88322
0
LINE
8
BLACK
6
CONTINUOUS
10
5.66537
20
-2.88322
11
5.66728
21
-2.88909
0
LINE
8
BLACK
6
CONTINUOUS
10
5.66728
20
-2.88909
11
5.66767
21
-2.89525
0
LINE
8
BLACK
6
CONTINUOUS
10
5.66767
20
-2.89525
11
5.66651
21
-2.9013
0
LINE
8
BLACK
6
CONTINUOUS
10
5.66651
20
-2.9013
11
5.66389
21
-2.90689
0
LINE
8
BLACK
6
CONTINUOUS
10
5.66389
20
-2.90689
11
5.65995
21
-2.91164
0
LINE
8
BLACK
6
CONTINUOUS
10
5.65995
20
-2.91164
11
5.65496
21
-2.91526
0
LINE
8
BLACK
6
CONTINUOUS
10
5.65496
20
-2.91526
11
5.64923
21
-2.91753
0
LINE
8
BLACK
6
CONTINUOUS
10
5.64923
20
-2.91753
11
5.64311
21
-2.91831
0
LINE
8
BLACK
6
CONTINUOUS
10
5.64311
20
-2.91831
11
5.5939
21
-2.91831
0
LINE
8
BLACK
6
CONTINUOUS
10
5.5939
20
-2.91831
11
5.59081
21
-2.91811
0
LINE
8
BLACK
6
CONTINUOUS
10
5.59081
20
-2.91811
11
5.58484
21
-2.91658
0
LINE
8
BLACK
6
CONTINUOUS
10
5.58484
20
-2.91658
11
5.57943
21
-2.91361
0
LINE
8
BLACK
6
CONTINUOUS
10
5.57943
20
-2.91361
11
5.57494
21
-2.90939
0
LINE
8
BLACK
6
CONTINUOUS
10
5.57494
20
-2.90939
11
5.57163
21
-2.90418
0
LINE
8
BLACK
6
CONTINUOUS
10
5.57163
20
-2.90418
11
5.56973
21
-2.89831
0
LINE
8
BLACK
6
CONTINUOUS
10
5.56973
20
-2.89831
11
5.56934
21
-2.89216
0
LINE
8
BLACK
6
CONTINUOUS
10
5.56934
20
-2.89216
11
5.5705
21
-2.8861
0
LINE
8
BLACK
6
CONTINUOUS
10
5.5705
20
-2.8861
11
5.57312
21
-2.88052
0
LINE
8
BLACK
6
CONTINUOUS
10
5.57312
20
-2.88052
11
5.57705
21
-2.87576
0
LINE
8
BLACK
6
CONTINUOUS
10
5.57705
20
-2.87576
11
5.58204
21
-2.87214
0
LINE
8
BLACK
6
CONTINUOUS
10
5.58204
20
-2.87214
11
5.58778
21
-2.86987
0
LINE
8
BLACK
6
CONTINUOUS
10
5.58778
20
-2.86987
11
5.5939
21
-2.86909
0
LINE
8
BLACK
6
CONTINUOUS
10
5.5939
20
-2.86909
11
5.64311
21
-2.86909
0
LINE
8
BLACK
6
CONTINUOUS
10
5.64311
20
-2.86909
11
5.64619
21
-2.86929
0
CIRCLE
8
BLACK
10
5.92559
20
-3.66043
40
0.0177165
0
CIRCLE
8
BLACK
10
5.92559
20
-3.56043
40
0.0177165
0
CIRCLE
8
BLACK
10
6.10669
20
-3.56004
40
0.0177165
0
CIRCLE
8
BLACK
10
6.10669
20
-3.66004
40
0.0177165
0
CIRCLE
8
BLACK
10
5.0122
20
-3.68318
40
0.015748
0
CIRCLE
8
BLACK
10
5.0122
20
-3.58475
40
0.015748
0
CIRCLE
8
BLACK
10
6.17165
20
-4.13583
40
0.0147638
0
CIRCLE
8
BLACK
10
6.12165
20
-4.18583
40
0.0147638
0
CIRCLE
8
BLACK
10
6.07165
20
-4.13583
40
0.0147638
0
CIRCLE
8
BLACK
10
6.40591
20
-4.18898
40
0.015748
0
CIRCLE
8
BLACK
10
6.40591
20
-4.09055
40
0.015748
0
CIRCLE
8
BLACK
10
5.01102
20
-4.11693
40
0.0147638
0
CIRCLE
8
BLACK
10
4.96102
20
-4.06693
40
0.0147638
0
CIRCLE
8
BLACK
10
5.01102
20
-4.01693
40
0.0147638
0
CIRCLE
8
BLACK
10
4.75236
20
-3.99528
40
0.0216535
0
CIRCLE
8
BLACK
10
4.75236
20
-3.59528
40
0.0216535
0
CIRCLE
8
BLACK
10
6.12244
20
-3.11631
40
0.0216535
0
CIRCLE
8
BLACK
10
6.31929
20
-3.11631
40
0.0216535
0
CIRCLE
8
BLACK
10
6.51614
20
-3.11631
40
0.0216535
0
CIRCLE
8
BLACK
10
5.1185
20
-3.00968
40
0.0216535
0
CIRCLE
8
BLACK
10
4.92165
20
-3.00968
40
0.0216535
0
CIRCLE
8
BLACK
10
4.7248
20
-3.00968
40
0.0216535
0
CIRCLE
8
BLACK
10
6.51614
20
-3.01378
40
0.0216535
0
CIRCLE
8
BLACK
10
6.31929
20
-3.01378
40
0.0216535
0
CIRCLE
8
BLACK
10
6.12244
20
-3.01378
40
0.0216535
0
CIRCLE
8
BLACK
10
4.7248
20
-3.12615
40
0.0216535
0
CIRCLE
8
BLACK
10
4.92165
20
-3.12615
40
0.0216535
0
CIRCLE
8
BLACK
10
5.1185
20
-3.12615
40
0.0216535
  0
ENDSEC
  0
EOF
