  0
SECTION
  2
HEADER
  9
$ANGBASE
  50
0.0
  9
$ANGDIR
  70
1
  9
$MEASUREMENT
  70
0
  0
ENDSEC
  0
SECTION
  2
TABLES
  0
TABLE
  2
LTYPE
  70
4
  0
LTYPE
  5
40F
  2
CONTINUOUS
  70
0
  3
Solid line
  72
65
  73
0
  40
0.0
  0
LTYPE
  5
410
  2
DASHDOT
 70
0
  3
Dash Dot ____ _ ____ _
 72
65
 73
4
 40
2.0
 49
1.25
 49
-0.25
 49
0.25
 49
-0.25
  0
LTYPE
  5
411
  2
DASHED
 70
0
  3
Dashed __ __ __ __ __
 72
65
 73
2
 40
0.75
 49
0.5
 49
-0.25
  0
LTYPE
  5
43B
  2
DOTTED
 70
0
  3
Dotted .  .  .  .
 72
65
 73
2
 40
0.2
 49
0.0
 49
-0.2
  0
ENDTAB
  0
TABLE
  2
STYLE
  70
4
  0
STYLE
  2
KICAD
  70
0
  40
0
  41
1
  42
1
  50
0
  71
0
  3
isocp.shx
  0
STYLE
  2
KICADB
  70
0
  40
0
  41
1
  42
1
  50
0
  71
0
  3
isocp.shx
  0
STYLE
  2
KICADI
  70
0
  40
0
  41
1
  42
1
  50
15
  71
0
  3
isocp.shx
  0
STYLE
  2
KICADBI
  70
0
  40
0
  41
1
  42
1
  50
15
  71
0
  3
isocp.shx
  0
ENDTAB
  0
TABLE
  2
LAYER
  70
1
  0
LAYER
  2
BLACK
  70
0
  62
7
  6
CONTINUOUS
  0
ENDTAB
  0
ENDSEC
  0
SECTION
  2
ENTITIES
0
LINE
8
BLACK
6
CONTINUOUS
10
6.54921
20
-5.39665
11
6.54991
21
-5.39694
0
LINE
8
BLACK
6
CONTINUOUS
10
6.54991
20
-5.39694
11
6.5502
21
-5.39764
0
LINE
8
BLACK
6
CONTINUOUS
10
6.5502
20
-5.39764
11
6.5502
21
-5.74016
0
LINE
8
BLACK
6
CONTINUOUS
10
6.5502
20
-5.74016
11
6.54991
21
-5.74085
0
LINE
8
BLACK
6
CONTINUOUS
10
6.54991
20
-5.74085
11
6.54921
21
-5.74114
0
LINE
8
BLACK
6
CONTINUOUS
10
6.54921
20
-5.74114
11
6.20669
21
-5.74114
0
LINE
8
BLACK
6
CONTINUOUS
10
6.20669
20
-5.74114
11
6.206
21
-5.74085
0
LINE
8
BLACK
6
CONTINUOUS
10
6.206
20
-5.74085
11
6.20571
21
-5.74016
0
LINE
8
BLACK
6
CONTINUOUS
10
6.20571
20
-5.74016
11
6.20571
21
-5.39764
0
LINE
8
BLACK
6
CONTINUOUS
10
6.20571
20
-5.39764
11
6.206
21
-5.39694
0
LINE
8
BLACK
6
CONTINUOUS
10
6.206
20
-5.39694
11
6.20669
21
-5.39665
0
LINE
8
BLACK
6
CONTINUOUS
10
6.20669
20
-5.39665
11
6.54921
21
-5.39665
0
LINE
8
BLACK
6
CONTINUOUS
10
6.20768
20
-5.39862
11
6.20768
21
-5.73917
0
LINE
8
BLACK
6
CONTINUOUS
10
6.20768
20
-5.73917
11
6.54823
21
-5.73917
0
LINE
8
BLACK
6
CONTINUOUS
10
6.54823
20
-5.73917
11
6.54823
21
-5.39862
0
LINE
8
BLACK
6
CONTINUOUS
10
6.54823
20
-5.39862
11
6.20768
21
-5.39862
0
LINE
8
BLACK
6
CONTINUOUS
10
5.08898
20
-5.26476
11
5.08967
21
-5.26505
0
LINE
8
BLACK
6
CONTINUOUS
10
5.08967
20
-5.26505
11
5.08996
21
-5.26575
0
LINE
8
BLACK
6
CONTINUOUS
10
5.08996
20
-5.26575
11
5.08996
21
-5.66339
0
LINE
8
BLACK
6
CONTINUOUS
10
5.08996
20
-5.66339
11
5.08967
21
-5.66408
0
LINE
8
BLACK
6
CONTINUOUS
10
5.08967
20
-5.66408
11
5.08898
21
-5.66437
0
LINE
8
BLACK
6
CONTINUOUS
10
5.08898
20
-5.66437
11
4.97087
21
-5.66437
0
LINE
8
BLACK
6
CONTINUOUS
10
4.97087
20
-5.66437
11
4.97017
21
-5.66408
0
LINE
8
BLACK
6
CONTINUOUS
10
4.97017
20
-5.66408
11
4.96988
21
-5.66339
0
LINE
8
BLACK
6
CONTINUOUS
10
4.96988
20
-5.66339
11
4.96988
21
-5.26575
0
LINE
8
BLACK
6
CONTINUOUS
10
4.96988
20
-5.26575
11
4.97017
21
-5.26505
0
LINE
8
BLACK
6
CONTINUOUS
10
4.97017
20
-5.26505
11
4.97087
21
-5.26476
0
LINE
8
BLACK
6
CONTINUOUS
10
4.97087
20
-5.26476
11
5.08898
21
-5.26476
0
LINE
8
BLACK
6
CONTINUOUS
10
4.97185
20
-5.26673
11
4.97185
21
-5.6624
0
LINE
8
BLACK
6
CONTINUOUS
10
4.97185
20
-5.6624
11
5.08799
21
-5.6624
0
LINE
8
BLACK
6
CONTINUOUS
10
5.08799
20
-5.6624
11
5.08799
21
-5.26673
0
LINE
8
BLACK
6
CONTINUOUS
10
5.08799
20
-5.26673
11
4.97185
21
-5.26673
0
LINE
8
BLACK
6
CONTINUOUS
10
5.21693
20
-5.26476
11
5.21763
21
-5.26505
0
LINE
8
BLACK
6
CONTINUOUS
10
5.21763
20
-5.26505
11
5.21791
21
-5.26575
0
LINE
8
BLACK
6
CONTINUOUS
10
5.21791
20
-5.26575
11
5.21791
21
-5.66339
0
LINE
8
BLACK
6
CONTINUOUS
10
5.21791
20
-5.66339
11
5.21763
21
-5.66408
0
LINE
8
BLACK
6
CONTINUOUS
10
5.21763
20
-5.66408
11
5.21693
21
-5.66437
0
LINE
8
BLACK
6
CONTINUOUS
10
5.21693
20
-5.66437
11
5.09882
21
-5.66437
0
LINE
8
BLACK
6
CONTINUOUS
10
5.09882
20
-5.66437
11
5.09812
21
-5.66408
0
LINE
8
BLACK
6
CONTINUOUS
10
5.09812
20
-5.66408
11
5.09783
21
-5.66339
0
LINE
8
BLACK
6
CONTINUOUS
10
5.09783
20
-5.66339
11
5.09783
21
-5.26575
0
LINE
8
BLACK
6
CONTINUOUS
10
5.09783
20
-5.26575
11
5.09812
21
-5.26505
0
LINE
8
BLACK
6
CONTINUOUS
10
5.09812
20
-5.26505
11
5.09882
21
-5.26476
0
LINE
8
BLACK
6
CONTINUOUS
10
5.09882
20
-5.26476
11
5.21693
21
-5.26476
0
LINE
8
BLACK
6
CONTINUOUS
10
5.0998
20
-5.26673
11
5.0998
21
-5.6624
0
LINE
8
BLACK
6
CONTINUOUS
10
5.0998
20
-5.6624
11
5.21594
21
-5.6624
0
LINE
8
BLACK
6
CONTINUOUS
10
5.21594
20
-5.6624
11
5.21594
21
-5.26673
0
LINE
8
BLACK
6
CONTINUOUS
10
5.21594
20
-5.26673
11
5.0998
21
-5.26673
0
LINE
8
BLACK
6
CONTINUOUS
10
6.1811
20
-5.26476
11
6.1818
21
-5.26505
0
LINE
8
BLACK
6
CONTINUOUS
10
6.1818
20
-5.26505
11
6.18209
21
-5.26575
0
LINE
8
BLACK
6
CONTINUOUS
10
6.18209
20
-5.26575
11
6.18209
21
-5.66339
0
LINE
8
BLACK
6
CONTINUOUS
10
6.18209
20
-5.66339
11
6.1818
21
-5.66408
0
LINE
8
BLACK
6
CONTINUOUS
10
6.1818
20
-5.66408
11
6.1811
21
-5.66437
0
LINE
8
BLACK
6
CONTINUOUS
10
6.1811
20
-5.66437
11
6.06299
21
-5.66437
0
LINE
8
BLACK
6
CONTINUOUS
10
6.06299
20
-5.66437
11
6.0623
21
-5.66408
0
LINE
8
BLACK
6
CONTINUOUS
10
6.0623
20
-5.66408
11
6.06201
21
-5.66339
0
LINE
8
BLACK
6
CONTINUOUS
10
6.06201
20
-5.66339
11
6.06201
21
-5.26575
0
LINE
8
BLACK
6
CONTINUOUS
10
6.06201
20
-5.26575
11
6.0623
21
-5.26505
0
LINE
8
BLACK
6
CONTINUOUS
10
6.0623
20
-5.26505
11
6.06299
21
-5.26476
0
LINE
8
BLACK
6
CONTINUOUS
10
6.06299
20
-5.26476
11
6.1811
21
-5.26476
0
LINE
8
BLACK
6
CONTINUOUS
10
6.06398
20
-5.26673
11
6.06398
21
-5.6624
0
LINE
8
BLACK
6
CONTINUOUS
10
6.06398
20
-5.6624
11
6.18012
21
-5.6624
0
LINE
8
BLACK
6
CONTINUOUS
10
6.18012
20
-5.6624
11
6.18012
21
-5.26673
0
LINE
8
BLACK
6
CONTINUOUS
10
6.18012
20
-5.26673
11
6.06398
21
-5.26673
0
LINE
8
BLACK
6
CONTINUOUS
10
4.83682
20
-5.23757
11
4.85057
21
-5.23986
0
LINE
8
BLACK
6
CONTINUOUS
10
4.85057
20
-5.23986
11
4.86398
21
-5.24365
0
LINE
8
BLACK
6
CONTINUOUS
10
4.86398
20
-5.24365
11
4.8769
21
-5.24888
0
LINE
8
BLACK
6
CONTINUOUS
10
4.8769
20
-5.24888
11
4.88917
21
-5.2555
0
LINE
8
BLACK
6
CONTINUOUS
10
4.88917
20
-5.2555
11
4.90063
21
-5.26342
0
LINE
8
BLACK
6
CONTINUOUS
10
4.90063
20
-5.26342
11
4.91116
21
-5.27255
0
LINE
8
BLACK
6
CONTINUOUS
10
4.91116
20
-5.27255
11
4.92063
21
-5.28278
0
LINE
8
BLACK
6
CONTINUOUS
10
4.92063
20
-5.28278
11
4.92892
21
-5.29398
0
LINE
8
BLACK
6
CONTINUOUS
10
4.92892
20
-5.29398
11
4.93593
21
-5.30603
0
LINE
8
BLACK
6
CONTINUOUS
10
4.93593
20
-5.30603
11
4.94157
21
-5.31877
0
LINE
8
BLACK
6
CONTINUOUS
10
4.94157
20
-5.31877
11
4.94579
21
-5.33205
0
LINE
8
BLACK
6
CONTINUOUS
10
4.94579
20
-5.33205
11
4.94853
21
-5.34572
0
LINE
8
BLACK
6
CONTINUOUS
10
4.94853
20
-5.34572
11
4.94975
21
-5.3596
0
LINE
8
BLACK
6
CONTINUOUS
10
4.94975
20
-5.3596
11
4.94944
21
-5.37354
0
LINE
8
BLACK
6
CONTINUOUS
10
4.94944
20
-5.37354
11
4.94761
21
-5.38735
0
LINE
8
BLACK
6
CONTINUOUS
10
4.94761
20
-5.38735
11
4.94428
21
-5.40089
0
LINE
8
BLACK
6
CONTINUOUS
10
4.94428
20
-5.40089
11
4.93948
21
-5.41397
0
LINE
8
BLACK
6
CONTINUOUS
10
4.93948
20
-5.41397
11
4.93327
21
-5.42645
0
LINE
8
BLACK
6
CONTINUOUS
10
4.93327
20
-5.42645
11
4.92574
21
-5.43818
0
LINE
8
BLACK
6
CONTINUOUS
10
4.92574
20
-5.43818
11
4.91697
21
-5.44901
0
LINE
8
BLACK
6
CONTINUOUS
10
4.91697
20
-5.44901
11
4.90706
21
-5.45881
0
LINE
8
BLACK
6
CONTINUOUS
10
4.90706
20
-5.45881
11
4.89614
21
-5.46747
0
LINE
8
BLACK
6
CONTINUOUS
10
4.89614
20
-5.46747
11
4.88433
21
-5.47488
0
LINE
8
BLACK
6
CONTINUOUS
10
4.88433
20
-5.47488
11
4.884
21
-5.47494
0
LINE
8
BLACK
6
CONTINUOUS
10
4.884
20
-5.47494
11
4.88386
21
-5.475
0
LINE
8
BLACK
6
CONTINUOUS
10
4.88386
20
-5.475
11
4.76181
21
-5.475
0
LINE
8
BLACK
6
CONTINUOUS
10
4.76181
20
-5.475
11
4.76147
21
-5.47486
0
LINE
8
BLACK
6
CONTINUOUS
10
4.76147
20
-5.47486
11
4.76121
21
-5.47481
0
LINE
8
BLACK
6
CONTINUOUS
10
4.76121
20
-5.47481
11
4.76121
21
-5.47481
0
LINE
8
BLACK
6
CONTINUOUS
10
4.76121
20
-5.47481
11
4.74941
21
-5.46739
0
LINE
8
BLACK
6
CONTINUOUS
10
4.74941
20
-5.46739
11
4.7385
21
-5.45871
0
LINE
8
BLACK
6
CONTINUOUS
10
4.7385
20
-5.45871
11
4.7286
21
-5.4489
0
LINE
8
BLACK
6
CONTINUOUS
10
4.7286
20
-5.4489
11
4.71984
21
-5.43806
0
LINE
8
BLACK
6
CONTINUOUS
10
4.71984
20
-5.43806
11
4.71232
21
-5.42633
0
LINE
8
BLACK
6
CONTINUOUS
10
4.71232
20
-5.42633
11
4.70613
21
-5.41384
0
LINE
8
BLACK
6
CONTINUOUS
10
4.70613
20
-5.41384
11
4.70135
21
-5.40075
0
LINE
8
BLACK
6
CONTINUOUS
10
4.70135
20
-5.40075
11
4.69803
21
-5.38721
0
LINE
8
BLACK
6
CONTINUOUS
10
4.69803
20
-5.38721
11
4.69622
21
-5.37339
0
LINE
8
BLACK
6
CONTINUOUS
10
4.69622
20
-5.37339
11
4.69592
21
-5.35946
0
LINE
8
BLACK
6
CONTINUOUS
10
4.69592
20
-5.35946
11
4.69716
21
-5.34558
0
LINE
8
BLACK
6
CONTINUOUS
10
4.69716
20
-5.34558
11
4.69991
21
-5.33192
0
LINE
8
BLACK
6
CONTINUOUS
10
4.69991
20
-5.33192
11
4.70415
21
-5.31864
0
LINE
8
BLACK
6
CONTINUOUS
10
4.70415
20
-5.31864
11
4.70981
21
-5.3059
0
LINE
8
BLACK
6
CONTINUOUS
10
4.70981
20
-5.3059
11
4.71683
21
-5.29386
0
LINE
8
BLACK
6
CONTINUOUS
10
4.71683
20
-5.29386
11
4.72513
21
-5.28267
0
LINE
8
BLACK
6
CONTINUOUS
10
4.72513
20
-5.28267
11
4.73461
21
-5.27245
0
LINE
8
BLACK
6
CONTINUOUS
10
4.73461
20
-5.27245
11
4.74515
21
-5.26333
0
LINE
8
BLACK
6
CONTINUOUS
10
4.74515
20
-5.26333
11
4.75663
21
-5.25542
0
LINE
8
BLACK
6
CONTINUOUS
10
4.75663
20
-5.25542
11
4.7689
21
-5.24882
0
LINE
8
BLACK
6
CONTINUOUS
10
4.7689
20
-5.24882
11
4.78182
21
-5.2436
0
LINE
8
BLACK
6
CONTINUOUS
10
4.78182
20
-5.2436
11
4.79524
21
-5.23983
0
LINE
8
BLACK
6
CONTINUOUS
10
4.79524
20
-5.23983
11
4.80899
21
-5.23755
0
LINE
8
BLACK
6
CONTINUOUS
10
4.80899
20
-5.23755
11
4.82291
21
-5.2368
0
LINE
8
BLACK
6
CONTINUOUS
10
4.82291
20
-5.2368
11
4.83682
21
-5.23757
0
LINE
8
BLACK
6
CONTINUOUS
10
4.80237
20
-5.24026
11
4.78896
21
-5.24324
0
LINE
8
BLACK
6
CONTINUOUS
10
4.78896
20
-5.24324
11
4.77596
21
-5.24768
0
LINE
8
BLACK
6
CONTINUOUS
10
4.77596
20
-5.24768
11
4.76351
21
-5.25352
0
LINE
8
BLACK
6
CONTINUOUS
10
4.76351
20
-5.25352
11
4.75179
21
-5.26068
0
LINE
8
BLACK
6
CONTINUOUS
10
4.75179
20
-5.26068
11
4.74092
21
-5.26909
0
LINE
8
BLACK
6
CONTINUOUS
10
4.74092
20
-5.26909
11
4.73103
21
-5.27864
0
LINE
8
BLACK
6
CONTINUOUS
10
4.73103
20
-5.27864
11
4.72226
21
-5.28921
0
LINE
8
BLACK
6
CONTINUOUS
10
4.72226
20
-5.28921
11
4.71469
21
-5.30068
0
LINE
8
BLACK
6
CONTINUOUS
10
4.71469
20
-5.30068
11
4.70843
21
-5.31291
0
LINE
8
BLACK
6
CONTINUOUS
10
4.70843
20
-5.31291
11
4.70354
21
-5.32576
0
LINE
8
BLACK
6
CONTINUOUS
10
4.70354
20
-5.32576
11
4.70009
21
-5.33906
0
LINE
8
BLACK
6
CONTINUOUS
10
4.70009
20
-5.33906
11
4.69812
21
-5.35266
0
LINE
8
BLACK
6
CONTINUOUS
10
4.69812
20
-5.35266
11
4.69766
21
-5.36639
0
LINE
8
BLACK
6
CONTINUOUS
10
4.69766
20
-5.36639
11
4.6987
21
-5.3801
0
LINE
8
BLACK
6
CONTINUOUS
10
4.6987
20
-5.3801
11
4.70123
21
-5.3936
0
LINE
8
BLACK
6
CONTINUOUS
10
4.70123
20
-5.3936
11
4.70523
21
-5.40675
0
LINE
8
BLACK
6
CONTINUOUS
10
4.70523
20
-5.40675
11
4.71065
21
-5.41938
0
LINE
8
BLACK
6
CONTINUOUS
10
4.71065
20
-5.41938
11
4.71742
21
-5.43134
0
LINE
8
BLACK
6
CONTINUOUS
10
4.71742
20
-5.43134
11
4.72546
21
-5.44248
0
LINE
8
BLACK
6
CONTINUOUS
10
4.72546
20
-5.44248
11
4.73467
21
-5.45268
0
LINE
8
BLACK
6
CONTINUOUS
10
4.73467
20
-5.45268
11
4.74494
21
-5.46181
0
LINE
8
BLACK
6
CONTINUOUS
10
4.74494
20
-5.46181
11
4.75616
21
-5.46975
0
LINE
8
BLACK
6
CONTINUOUS
10
4.75616
20
-5.46975
11
4.76207
21
-5.47303
0
LINE
8
BLACK
6
CONTINUOUS
10
4.76207
20
-5.47303
11
4.8836
21
-5.47303
0
LINE
8
BLACK
6
CONTINUOUS
10
4.8836
20
-5.47303
11
4.88939
21
-5.46983
0
LINE
8
BLACK
6
CONTINUOUS
10
4.88939
20
-5.46983
11
4.90061
21
-5.4619
0
LINE
8
BLACK
6
CONTINUOUS
10
4.90061
20
-5.4619
11
4.9109
21
-5.45278
0
LINE
8
BLACK
6
CONTINUOUS
10
4.9109
20
-5.45278
11
4.92012
21
-5.44259
0
LINE
8
BLACK
6
CONTINUOUS
10
4.92012
20
-5.44259
11
4.92817
21
-5.43146
0
LINE
8
BLACK
6
CONTINUOUS
10
4.92817
20
-5.43146
11
4.93496
21
-5.41951
0
LINE
8
BLACK
6
CONTINUOUS
10
4.93496
20
-5.41951
11
4.94039
21
-5.40688
0
LINE
8
BLACK
6
CONTINUOUS
10
4.94039
20
-5.40688
11
4.9444
21
-5.39374
0
LINE
8
BLACK
6
CONTINUOUS
10
4.9444
20
-5.39374
11
4.94695
21
-5.38024
0
LINE
8
BLACK
6
CONTINUOUS
10
4.94695
20
-5.38024
11
4.94801
21
-5.36654
0
LINE
8
BLACK
6
CONTINUOUS
10
4.94801
20
-5.36654
11
4.94756
21
-5.3528
0
LINE
8
BLACK
6
CONTINUOUS
10
4.94756
20
-5.3528
11
4.9456
21
-5.3392
0
LINE
8
BLACK
6
CONTINUOUS
10
4.9456
20
-5.3392
11
4.94217
21
-5.32589
0
LINE
8
BLACK
6
CONTINUOUS
10
4.94217
20
-5.32589
11
4.9373
21
-5.31304
0
LINE
8
BLACK
6
CONTINUOUS
10
4.9373
20
-5.31304
11
4.93105
21
-5.3008
0
LINE
8
BLACK
6
CONTINUOUS
10
4.93105
20
-5.3008
11
4.9235
21
-5.28932
0
LINE
8
BLACK
6
CONTINUOUS
10
4.9235
20
-5.28932
11
4.91473
21
-5.27874
0
LINE
8
BLACK
6
CONTINUOUS
10
4.91473
20
-5.27874
11
4.90486
21
-5.26918
0
LINE
8
BLACK
6
CONTINUOUS
10
4.90486
20
-5.26918
11
4.894
21
-5.26076
0
LINE
8
BLACK
6
CONTINUOUS
10
4.894
20
-5.26076
11
4.88228
21
-5.25359
0
LINE
8
BLACK
6
CONTINUOUS
10
4.88228
20
-5.25359
11
4.86985
21
-5.24773
0
LINE
8
BLACK
6
CONTINUOUS
10
4.86985
20
-5.24773
11
4.85684
21
-5.24328
0
LINE
8
BLACK
6
CONTINUOUS
10
4.85684
20
-5.24328
11
4.84343
21
-5.24028
0
LINE
8
BLACK
6
CONTINUOUS
10
4.84343
20
-5.24028
11
4.82978
21
-5.23877
0
LINE
8
BLACK
6
CONTINUOUS
10
4.82978
20
-5.23877
11
4.81603
21
-5.23876
0
LINE
8
BLACK
6
CONTINUOUS
10
4.81603
20
-5.23876
11
4.80237
21
-5.24026
0
LINE
8
BLACK
6
CONTINUOUS
10
6.58661
20
-5.23524
11
6.58731
21
-5.23552
0
LINE
8
BLACK
6
CONTINUOUS
10
6.58731
20
-5.23552
11
6.5876
21
-5.23622
0
LINE
8
BLACK
6
CONTINUOUS
10
6.5876
20
-5.23622
11
6.5876
21
-5.3937
0
LINE
8
BLACK
6
CONTINUOUS
10
6.5876
20
-5.3937
11
6.58731
21
-5.3944
0
LINE
8
BLACK
6
CONTINUOUS
10
6.58731
20
-5.3944
11
6.58661
21
-5.39469
0
LINE
8
BLACK
6
CONTINUOUS
10
6.58661
20
-5.39469
11
6.29134
21
-5.39469
0
LINE
8
BLACK
6
CONTINUOUS
10
6.29134
20
-5.39469
11
6.29064
21
-5.3944
0
LINE
8
BLACK
6
CONTINUOUS
10
6.29064
20
-5.3944
11
6.29035
21
-5.3937
0
LINE
8
BLACK
6
CONTINUOUS
10
6.29035
20
-5.3937
11
6.29035
21
-5.23622
0
LINE
8
BLACK
6
CONTINUOUS
10
6.29035
20
-5.23622
11
6.29064
21
-5.23552
0
LINE
8
BLACK
6
CONTINUOUS
10
6.29064
20
-5.23552
11
6.29134
21
-5.23524
0
LINE
8
BLACK
6
CONTINUOUS
10
6.29134
20
-5.23524
11
6.58661
21
-5.23524
0
LINE
8
BLACK
6
CONTINUOUS
10
6.29232
20
-5.2372
11
6.29232
21
-5.39272
0
LINE
8
BLACK
6
CONTINUOUS
10
6.29232
20
-5.39272
11
6.58563
21
-5.39272
0
LINE
8
BLACK
6
CONTINUOUS
10
6.58563
20
-5.39272
11
6.58563
21
-5.2372
0
LINE
8
BLACK
6
CONTINUOUS
10
6.58563
20
-5.2372
11
6.29232
21
-5.2372
0
LINE
8
BLACK
6
CONTINUOUS
10
5.84646
20
-4.31201
11
5.84715
21
-4.3123
0
LINE
8
BLACK
6
CONTINUOUS
10
5.84715
20
-4.3123
11
5.84744
21
-4.31299
0
LINE
8
BLACK
6
CONTINUOUS
10
5.84744
20
-4.31299
11
5.84744
21
-4.42815
0
LINE
8
BLACK
6
CONTINUOUS
10
5.84744
20
-4.42815
11
6.72343
21
-4.42815
0
LINE
8
BLACK
6
CONTINUOUS
10
6.72343
20
-4.42815
11
6.72412
21
-4.42844
0
LINE
8
BLACK
6
CONTINUOUS
10
6.72412
20
-4.42844
11
6.72441
21
-4.42913
0
LINE
8
BLACK
6
CONTINUOUS
10
6.72441
20
-4.42913
11
6.72441
21
-5.22559
0
LINE
8
BLACK
6
CONTINUOUS
10
6.72441
20
-5.22559
11
6.72412
21
-5.22629
0
LINE
8
BLACK
6
CONTINUOUS
10
6.72412
20
-5.22629
11
6.72343
21
-5.22657
0
LINE
8
BLACK
6
CONTINUOUS
10
6.72343
20
-5.22657
11
5.63957
21
-5.22657
0
LINE
8
BLACK
6
CONTINUOUS
10
5.63957
20
-5.22657
11
5.63887
21
-5.22629
0
LINE
8
BLACK
6
CONTINUOUS
10
5.63887
20
-5.22629
11
5.63858
21
-5.22559
0
LINE
8
BLACK
6
CONTINUOUS
10
5.63858
20
-5.22559
11
5.63858
21
-5.22559
0
LINE
8
BLACK
6
CONTINUOUS
10
5.63858
20
-5.22559
11
5.63858
21
-4.67067
0
LINE
8
BLACK
6
CONTINUOUS
10
5.63858
20
-4.67067
11
5.60492
21
-4.67067
0
LINE
8
BLACK
6
CONTINUOUS
10
5.60492
20
-4.67067
11
5.60492
21
-5.22559
0
LINE
8
BLACK
6
CONTINUOUS
10
5.60492
20
-5.22559
11
5.60463
21
-5.22629
0
LINE
8
BLACK
6
CONTINUOUS
10
5.60463
20
-5.22629
11
5.60394
21
-5.22657
0
LINE
8
BLACK
6
CONTINUOUS
10
5.60394
20
-5.22657
11
4.52008
21
-5.22657
0
LINE
8
BLACK
6
CONTINUOUS
10
4.52008
20
-5.22657
11
4.51938
21
-5.22629
0
LINE
8
BLACK
6
CONTINUOUS
10
4.51938
20
-5.22629
11
4.51909
21
-5.22559
0
LINE
8
BLACK
6
CONTINUOUS
10
4.51909
20
-5.22559
11
4.51909
21
-5.22559
0
LINE
8
BLACK
6
CONTINUOUS
10
4.51909
20
-5.22559
11
4.51909
21
-4.42913
0
LINE
8
BLACK
6
CONTINUOUS
10
4.51909
20
-4.42913
11
4.51938
21
-4.42844
0
LINE
8
BLACK
6
CONTINUOUS
10
4.51938
20
-4.42844
11
4.52008
21
-4.42815
0
LINE
8
BLACK
6
CONTINUOUS
10
4.52008
20
-4.42815
11
5.40453
21
-4.42815
0
LINE
8
BLACK
6
CONTINUOUS
10
5.40453
20
-4.42815
11
5.40453
21
-4.31299
0
LINE
8
BLACK
6
CONTINUOUS
10
5.40453
20
-4.31299
11
5.40482
21
-4.3123
0
LINE
8
BLACK
6
CONTINUOUS
10
5.40482
20
-4.3123
11
5.40551
21
-4.31201
0
LINE
8
BLACK
6
CONTINUOUS
10
5.40551
20
-4.31201
11
5.84646
21
-4.31201
0
LINE
8
BLACK
6
CONTINUOUS
10
5.84744
20
-4.43012
11
5.84744
21
-4.45472
0
LINE
8
BLACK
6
CONTINUOUS
10
5.84744
20
-4.45472
11
5.84715
21
-4.45542
0
LINE
8
BLACK
6
CONTINUOUS
10
5.84715
20
-4.45542
11
5.84646
21
-4.45571
0
LINE
8
BLACK
6
CONTINUOUS
10
5.84646
20
-4.45571
11
5.64055
21
-4.45571
0
LINE
8
BLACK
6
CONTINUOUS
10
5.64055
20
-4.45571
11
5.64055
21
-4.52697
0
LINE
8
BLACK
6
CONTINUOUS
10
5.64055
20
-4.52697
11
5.74567
21
-4.52697
0
LINE
8
BLACK
6
CONTINUOUS
10
5.74567
20
-4.52697
11
5.74637
21
-4.52726
0
LINE
8
BLACK
6
CONTINUOUS
10
5.74637
20
-4.52726
11
5.74665
21
-4.52795
0
LINE
8
BLACK
6
CONTINUOUS
10
5.74665
20
-4.52795
11
5.74665
21
-4.66969
0
LINE
8
BLACK
6
CONTINUOUS
10
5.74665
20
-4.66969
11
5.74637
21
-4.67038
0
LINE
8
BLACK
6
CONTINUOUS
10
5.74637
20
-4.67038
11
5.74567
21
-4.67067
0
LINE
8
BLACK
6
CONTINUOUS
10
5.74567
20
-4.67067
11
5.64055
21
-4.67067
0
LINE
8
BLACK
6
CONTINUOUS
10
5.64055
20
-4.67067
11
5.64055
21
-5.22461
0
LINE
8
BLACK
6
CONTINUOUS
10
5.64055
20
-5.22461
11
6.72244
21
-5.22461
0
LINE
8
BLACK
6
CONTINUOUS
10
6.72244
20
-5.22461
11
6.72244
21
-4.43012
0
LINE
8
BLACK
6
CONTINUOUS
10
6.72244
20
-4.43012
11
5.84744
21
-4.43012
0
LINE
8
BLACK
6
CONTINUOUS
10
4.52106
20
-4.43012
11
4.52106
21
-5.22461
0
LINE
8
BLACK
6
CONTINUOUS
10
4.52106
20
-5.22461
11
5.60295
21
-5.22461
0
LINE
8
BLACK
6
CONTINUOUS
10
5.60295
20
-5.22461
11
5.60295
21
-4.67067
0
LINE
8
BLACK
6
CONTINUOUS
10
5.60295
20
-4.67067
11
5.50354
21
-4.67067
0
LINE
8
BLACK
6
CONTINUOUS
10
5.50354
20
-4.67067
11
5.50285
21
-4.67038
0
LINE
8
BLACK
6
CONTINUOUS
10
5.50285
20
-4.67038
11
5.50256
21
-4.66969
0
LINE
8
BLACK
6
CONTINUOUS
10
5.50256
20
-4.66969
11
5.50256
21
-4.52795
0
LINE
8
BLACK
6
CONTINUOUS
10
5.50256
20
-4.52795
11
5.50285
21
-4.52726
0
LINE
8
BLACK
6
CONTINUOUS
10
5.50285
20
-4.52726
11
5.50354
21
-4.52697
0
LINE
8
BLACK
6
CONTINUOUS
10
5.50354
20
-4.52697
11
5.60295
21
-4.52697
0
LINE
8
BLACK
6
CONTINUOUS
10
5.60295
20
-4.52697
11
5.60295
21
-4.45571
0
LINE
8
BLACK
6
CONTINUOUS
10
5.60295
20
-4.45571
11
5.40551
21
-4.45571
0
LINE
8
BLACK
6
CONTINUOUS
10
5.40551
20
-4.45571
11
5.40482
21
-4.45542
0
LINE
8
BLACK
6
CONTINUOUS
10
5.40482
20
-4.45542
11
5.40453
21
-4.45472
0
LINE
8
BLACK
6
CONTINUOUS
10
5.40453
20
-4.45472
11
5.40453
21
-4.43012
0
LINE
8
BLACK
6
CONTINUOUS
10
5.40453
20
-4.43012
11
4.52106
21
-4.43012
0
LINE
8
BLACK
6
CONTINUOUS
10
5.50453
20
-4.52894
11
5.50453
21
-4.6687
0
LINE
8
BLACK
6
CONTINUOUS
10
5.50453
20
-4.6687
11
5.60295
21
-4.6687
0
LINE
8
BLACK
6
CONTINUOUS
10
5.60295
20
-4.6687
11
5.60295
21
-4.52894
0
LINE
8
BLACK
6
CONTINUOUS
10
5.60295
20
-4.52894
11
5.50453
21
-4.52894
0
LINE
8
BLACK
6
CONTINUOUS
10
5.60492
20
-4.52894
11
5.60492
21
-4.6687
0
LINE
8
BLACK
6
CONTINUOUS
10
5.60492
20
-4.6687
11
5.63858
21
-4.6687
0
LINE
8
BLACK
6
CONTINUOUS
10
5.63858
20
-4.6687
11
5.63858
21
-4.52894
0
LINE
8
BLACK
6
CONTINUOUS
10
5.63858
20
-4.52894
11
5.60492
21
-4.52894
0
LINE
8
BLACK
6
CONTINUOUS
10
5.64055
20
-4.52894
11
5.64055
21
-4.6687
0
LINE
8
BLACK
6
CONTINUOUS
10
5.64055
20
-4.6687
11
5.74469
21
-4.6687
0
LINE
8
BLACK
6
CONTINUOUS
10
5.74469
20
-4.6687
11
5.74469
21
-4.52894
0
LINE
8
BLACK
6
CONTINUOUS
10
5.74469
20
-4.52894
11
5.64055
21
-4.52894
0
LINE
8
BLACK
6
CONTINUOUS
10
5.60492
20
-4.45571
11
5.60492
21
-4.52697
0
LINE
8
BLACK
6
CONTINUOUS
10
5.60492
20
-4.52697
11
5.63858
21
-4.52697
0
LINE
8
BLACK
6
CONTINUOUS
10
5.63858
20
-4.52697
11
5.63858
21
-4.45571
0
LINE
8
BLACK
6
CONTINUOUS
10
5.63858
20
-4.45571
11
5.60492
21
-4.45571
0
LINE
8
BLACK
6
CONTINUOUS
10
5.4065
20
-4.43012
11
5.4065
21
-4.45374
0
LINE
8
BLACK
6
CONTINUOUS
10
5.4065
20
-4.45374
11
5.60295
21
-4.45374
0
LINE
8
BLACK
6
CONTINUOUS
10
5.60295
20
-4.45374
11
5.60295
21
-4.43012
0
LINE
8
BLACK
6
CONTINUOUS
10
5.60295
20
-4.43012
11
5.4065
21
-4.43012
0
LINE
8
BLACK
6
CONTINUOUS
10
5.4065
20
-4.31398
11
5.4065
21
-4.42815
0
LINE
8
BLACK
6
CONTINUOUS
10
5.4065
20
-4.42815
11
5.60394
21
-4.42815
0
LINE
8
BLACK
6
CONTINUOUS
10
5.60394
20
-4.42815
11
5.60463
21
-4.42844
0
LINE
8
BLACK
6
CONTINUOUS
10
5.60463
20
-4.42844
11
5.60492
21
-4.42913
0
LINE
8
BLACK
6
CONTINUOUS
10
5.60492
20
-4.42913
11
5.60492
21
-4.45374
0
LINE
8
BLACK
6
CONTINUOUS
10
5.60492
20
-4.45374
11
5.63858
21
-4.45374
0
LINE
8
BLACK
6
CONTINUOUS
10
5.63858
20
-4.45374
11
5.63858
21
-4.42913
0
LINE
8
BLACK
6
CONTINUOUS
10
5.63858
20
-4.42913
11
5.63887
21
-4.42844
0
LINE
8
BLACK
6
CONTINUOUS
10
5.63887
20
-4.42844
11
5.63957
21
-4.42815
0
LINE
8
BLACK
6
CONTINUOUS
10
5.63957
20
-4.42815
11
5.84547
21
-4.42815
0
LINE
8
BLACK
6
CONTINUOUS
10
5.84547
20
-4.42815
11
5.84547
21
-4.31398
0
LINE
8
BLACK
6
CONTINUOUS
10
5.84547
20
-4.31398
11
5.4065
21
-4.31398
0
LINE
8
BLACK
6
CONTINUOUS
10
5.64055
20
-4.43012
11
5.64055
21
-4.45374
0
LINE
8
BLACK
6
CONTINUOUS
10
5.64055
20
-4.45374
11
5.84547
21
-4.45374
0
LINE
8
BLACK
6
CONTINUOUS
10
5.84547
20
-4.45374
11
5.84547
21
-4.43012
0
LINE
8
BLACK
6
CONTINUOUS
10
5.84547
20
-4.43012
11
5.64055
21
-4.43012
0
LINE
8
BLACK
6
CONTINUOUS
10
6.22913
20
-4.05571
11
6.22914
21
-4.05571
0
LINE
8
BLACK
6
CONTINUOUS
10
6.22914
20
-4.05571
11
6.22948
21
-4.05585
0
LINE
8
BLACK
6
CONTINUOUS
10
6.22948
20
-4.05585
11
6.22983
21
-4.056
0
LINE
8
BLACK
6
CONTINUOUS
10
6.22983
20
-4.056
11
6.22983
21
-4.056
0
LINE
8
BLACK
6
CONTINUOUS
10
6.22983
20
-4.056
11
6.22983
21
-4.056
0
LINE
8
BLACK
6
CONTINUOUS
10
6.22983
20
-4.056
11
6.22998
21
-4.05635
0
LINE
8
BLACK
6
CONTINUOUS
10
6.22998
20
-4.05635
11
6.23012
21
-4.05669
0
LINE
8
BLACK
6
CONTINUOUS
10
6.23012
20
-4.05669
11
6.23012
21
-4.05669
0
LINE
8
BLACK
6
CONTINUOUS
10
6.23012
20
-4.05669
11
6.23012
21
-4.05669
0
LINE
8
BLACK
6
CONTINUOUS
10
6.23012
20
-4.05669
11
6.22973
21
-4.25517
0
LINE
8
BLACK
6
CONTINUOUS
10
6.22973
20
-4.25517
11
6.22983
21
-4.25521
0
LINE
8
BLACK
6
CONTINUOUS
10
6.22983
20
-4.25521
11
6.23012
21
-4.25591
0
LINE
8
BLACK
6
CONTINUOUS
10
6.23012
20
-4.25591
11
6.22983
21
-4.2566
0
LINE
8
BLACK
6
CONTINUOUS
10
6.22983
20
-4.2566
11
6.22913
21
-4.25689
0
LINE
8
BLACK
6
CONTINUOUS
10
6.22913
20
-4.25689
11
6.22874
21
-4.25689
0
LINE
8
BLACK
6
CONTINUOUS
10
6.22874
20
-4.25689
11
6.07815
21
-4.25689
0
LINE
8
BLACK
6
CONTINUOUS
10
6.07815
20
-4.25689
11
6.07815
21
-4.31693
0
LINE
8
BLACK
6
CONTINUOUS
10
6.07815
20
-4.31693
11
6.07786
21
-4.31763
0
LINE
8
BLACK
6
CONTINUOUS
10
6.07786
20
-4.31763
11
6.07717
21
-4.31791
0
LINE
8
BLACK
6
CONTINUOUS
10
6.07717
20
-4.31791
11
5.9315
21
-4.31791
0
LINE
8
BLACK
6
CONTINUOUS
10
5.9315
20
-4.31791
11
5.9308
21
-4.31763
0
LINE
8
BLACK
6
CONTINUOUS
10
5.9308
20
-4.31763
11
5.93051
21
-4.31693
0
LINE
8
BLACK
6
CONTINUOUS
10
5.93051
20
-4.31693
11
5.93051
21
-4.31693
0
LINE
8
BLACK
6
CONTINUOUS
10
5.93051
20
-4.31693
11
5.93051
21
-4.24213
0
LINE
8
BLACK
6
CONTINUOUS
10
5.93051
20
-4.24213
11
5.9308
21
-4.24143
0
LINE
8
BLACK
6
CONTINUOUS
10
5.9308
20
-4.24143
11
5.9315
21
-4.24114
0
LINE
8
BLACK
6
CONTINUOUS
10
5.9315
20
-4.24114
11
6.01319
21
-4.24114
0
LINE
8
BLACK
6
CONTINUOUS
10
6.01319
20
-4.24114
11
6.01319
21
-4.05669
0
LINE
8
BLACK
6
CONTINUOUS
10
6.01319
20
-4.05669
11
6.01348
21
-4.056
0
LINE
8
BLACK
6
CONTINUOUS
10
6.01348
20
-4.056
11
6.01417
21
-4.05571
0
LINE
8
BLACK
6
CONTINUOUS
10
6.01417
20
-4.05571
11
6.22913
21
-4.05571
0
LINE
8
BLACK
6
CONTINUOUS
10
6.22913
20
-4.05571
11
6.22913
21
-4.05571
0
LINE
8
BLACK
6
CONTINUOUS
10
5.93248
20
-4.24311
11
5.93248
21
-4.31594
0
LINE
8
BLACK
6
CONTINUOUS
10
5.93248
20
-4.31594
11
6.07618
21
-4.31594
0
LINE
8
BLACK
6
CONTINUOUS
10
6.07618
20
-4.31594
11
6.07618
21
-4.25689
0
LINE
8
BLACK
6
CONTINUOUS
10
6.07618
20
-4.25689
11
6.01417
21
-4.25689
0
LINE
8
BLACK
6
CONTINUOUS
10
6.01417
20
-4.25689
11
6.01348
21
-4.2566
0
LINE
8
BLACK
6
CONTINUOUS
10
6.01348
20
-4.2566
11
6.01319
21
-4.25591
0
LINE
8
BLACK
6
CONTINUOUS
10
6.01319
20
-4.25591
11
6.01319
21
-4.24311
0
LINE
8
BLACK
6
CONTINUOUS
10
6.01319
20
-4.24311
11
5.93248
21
-4.24311
0
LINE
8
BLACK
6
CONTINUOUS
10
6.01516
20
-4.24311
11
6.01516
21
-4.25492
0
LINE
8
BLACK
6
CONTINUOUS
10
6.01516
20
-4.25492
11
6.07618
21
-4.25492
0
LINE
8
BLACK
6
CONTINUOUS
10
6.07618
20
-4.25492
11
6.07618
21
-4.24311
0
LINE
8
BLACK
6
CONTINUOUS
10
6.07618
20
-4.24311
11
6.01516
21
-4.24311
0
LINE
8
BLACK
6
CONTINUOUS
10
6.01516
20
-4.05768
11
6.01516
21
-4.24114
0
LINE
8
BLACK
6
CONTINUOUS
10
6.01516
20
-4.24114
11
6.07717
21
-4.24114
0
LINE
8
BLACK
6
CONTINUOUS
10
6.07717
20
-4.24114
11
6.07786
21
-4.24143
0
LINE
8
BLACK
6
CONTINUOUS
10
6.07786
20
-4.24143
11
6.07815
21
-4.24213
0
LINE
8
BLACK
6
CONTINUOUS
10
6.07815
20
-4.24213
11
6.07815
21
-4.25492
0
LINE
8
BLACK
6
CONTINUOUS
10
6.07815
20
-4.25492
11
6.22776
21
-4.25492
0
LINE
8
BLACK
6
CONTINUOUS
10
6.22776
20
-4.25492
11
6.22815
21
-4.05768
0
LINE
8
BLACK
6
CONTINUOUS
10
6.22815
20
-4.05768
11
6.01516
21
-4.05768
0
LINE
8
BLACK
6
CONTINUOUS
10
6.42986
20
-3.97317
11
6.44559
21
-3.9762
0
LINE
8
BLACK
6
CONTINUOUS
10
6.44559
20
-3.9762
11
6.46095
21
-3.98071
0
LINE
8
BLACK
6
CONTINUOUS
10
6.46095
20
-3.98071
11
6.47582
21
-3.98667
0
LINE
8
BLACK
6
CONTINUOUS
10
6.47582
20
-3.98667
11
6.49006
21
-3.99401
0
LINE
8
BLACK
6
CONTINUOUS
10
6.49006
20
-3.99401
11
6.50353
21
-4.00266
0
LINE
8
BLACK
6
CONTINUOUS
10
6.50353
20
-4.00266
11
6.51612
21
-4.01257
0
LINE
8
BLACK
6
CONTINUOUS
10
6.51612
20
-4.01257
11
6.52772
21
-4.02362
0
LINE
8
BLACK
6
CONTINUOUS
10
6.52772
20
-4.02362
11
6.5382
21
-4.03572
0
LINE
8
BLACK
6
CONTINUOUS
10
6.5382
20
-4.03572
11
6.54749
21
-4.04877
0
LINE
8
BLACK
6
CONTINUOUS
10
6.54749
20
-4.04877
11
6.5555
21
-4.06264
0
LINE
8
BLACK
6
CONTINUOUS
10
6.5555
20
-4.06264
11
6.56216
21
-4.07721
0
LINE
8
BLACK
6
CONTINUOUS
10
6.56216
20
-4.07721
11
6.56739
21
-4.09235
0
LINE
8
BLACK
6
CONTINUOUS
10
6.56739
20
-4.09235
11
6.57117
21
-4.10791
0
LINE
8
BLACK
6
CONTINUOUS
10
6.57117
20
-4.10791
11
6.57345
21
-4.12377
0
LINE
8
BLACK
6
CONTINUOUS
10
6.57345
20
-4.12377
11
6.57421
21
-4.13976
0
LINE
8
BLACK
6
CONTINUOUS
10
6.57421
20
-4.13976
11
6.57345
21
-4.15576
0
LINE
8
BLACK
6
CONTINUOUS
10
6.57345
20
-4.15576
11
6.57117
21
-4.17162
0
LINE
8
BLACK
6
CONTINUOUS
10
6.57117
20
-4.17162
11
6.56739
21
-4.18718
0
LINE
8
BLACK
6
CONTINUOUS
10
6.56739
20
-4.18718
11
6.56216
21
-4.20232
0
LINE
8
BLACK
6
CONTINUOUS
10
6.56216
20
-4.20232
11
6.5555
21
-4.21689
0
LINE
8
BLACK
6
CONTINUOUS
10
6.5555
20
-4.21689
11
6.54749
21
-4.23076
0
LINE
8
BLACK
6
CONTINUOUS
10
6.54749
20
-4.23076
11
6.5382
21
-4.2438
0
LINE
8
BLACK
6
CONTINUOUS
10
6.5382
20
-4.2438
11
6.52772
21
-4.25591
0
LINE
8
BLACK
6
CONTINUOUS
10
6.52772
20
-4.25591
11
6.51612
21
-4.26696
0
LINE
8
BLACK
6
CONTINUOUS
10
6.51612
20
-4.26696
11
6.50353
21
-4.27686
0
LINE
8
BLACK
6
CONTINUOUS
10
6.50353
20
-4.27686
11
6.49006
21
-4.28552
0
LINE
8
BLACK
6
CONTINUOUS
10
6.49006
20
-4.28552
11
6.47582
21
-4.29286
0
LINE
8
BLACK
6
CONTINUOUS
10
6.47582
20
-4.29286
11
6.46095
21
-4.29881
0
LINE
8
BLACK
6
CONTINUOUS
10
6.46095
20
-4.29881
11
6.44559
21
-4.30333
0
LINE
8
BLACK
6
CONTINUOUS
10
6.44559
20
-4.30333
11
6.42986
21
-4.30636
0
LINE
8
BLACK
6
CONTINUOUS
10
6.42986
20
-4.30636
11
6.41391
21
-4.30788
0
LINE
8
BLACK
6
CONTINUOUS
10
6.41391
20
-4.30788
11
6.3979
21
-4.30788
0
LINE
8
BLACK
6
CONTINUOUS
10
6.3979
20
-4.30788
11
6.38195
21
-4.30636
0
LINE
8
BLACK
6
CONTINUOUS
10
6.38195
20
-4.30636
11
6.36623
21
-4.30333
0
LINE
8
BLACK
6
CONTINUOUS
10
6.36623
20
-4.30333
11
6.35086
21
-4.29881
0
LINE
8
BLACK
6
CONTINUOUS
10
6.35086
20
-4.29881
11
6.33599
21
-4.29286
0
LINE
8
BLACK
6
CONTINUOUS
10
6.33599
20
-4.29286
11
6.32175
21
-4.28552
0
LINE
8
BLACK
6
CONTINUOUS
10
6.32175
20
-4.28552
11
6.30828
21
-4.27686
0
LINE
8
BLACK
6
CONTINUOUS
10
6.30828
20
-4.27686
11
6.29569
21
-4.26696
0
LINE
8
BLACK
6
CONTINUOUS
10
6.29569
20
-4.26696
11
6.2841
21
-4.25591
0
LINE
8
BLACK
6
CONTINUOUS
10
6.2841
20
-4.25591
11
6.27361
21
-4.2438
0
LINE
8
BLACK
6
CONTINUOUS
10
6.27361
20
-4.2438
11
6.26432
21
-4.23076
0
LINE
8
BLACK
6
CONTINUOUS
10
6.26432
20
-4.23076
11
6.25631
21
-4.21689
0
LINE
8
BLACK
6
CONTINUOUS
10
6.25631
20
-4.21689
11
6.24965
21
-4.20232
0
LINE
8
BLACK
6
CONTINUOUS
10
6.24965
20
-4.20232
11
6.24442
21
-4.18718
0
LINE
8
BLACK
6
CONTINUOUS
10
6.24442
20
-4.18718
11
6.24064
21
-4.17162
0
LINE
8
BLACK
6
CONTINUOUS
10
6.24064
20
-4.17162
11
6.23836
21
-4.15576
0
LINE
8
BLACK
6
CONTINUOUS
10
6.23836
20
-4.15576
11
6.2376
21
-4.13976
0
LINE
8
BLACK
6
CONTINUOUS
10
6.2376
20
-4.13976
11
6.23836
21
-4.12377
0
LINE
8
BLACK
6
CONTINUOUS
10
6.23836
20
-4.12377
11
6.24064
21
-4.10791
0
LINE
8
BLACK
6
CONTINUOUS
10
6.24064
20
-4.10791
11
6.24442
21
-4.09235
0
LINE
8
BLACK
6
CONTINUOUS
10
6.24442
20
-4.09235
11
6.24965
21
-4.07721
0
LINE
8
BLACK
6
CONTINUOUS
10
6.24965
20
-4.07721
11
6.25631
21
-4.06264
0
LINE
8
BLACK
6
CONTINUOUS
10
6.25631
20
-4.06264
11
6.26432
21
-4.04877
0
LINE
8
BLACK
6
CONTINUOUS
10
6.26432
20
-4.04877
11
6.27361
21
-4.03572
0
LINE
8
BLACK
6
CONTINUOUS
10
6.27361
20
-4.03572
11
6.2841
21
-4.02362
0
LINE
8
BLACK
6
CONTINUOUS
10
6.2841
20
-4.02362
11
6.29569
21
-4.01257
0
LINE
8
BLACK
6
CONTINUOUS
10
6.29569
20
-4.01257
11
6.30828
21
-4.00266
0
LINE
8
BLACK
6
CONTINUOUS
10
6.30828
20
-4.00266
11
6.32175
21
-3.99401
0
LINE
8
BLACK
6
CONTINUOUS
10
6.32175
20
-3.99401
11
6.33599
21
-3.98667
0
LINE
8
BLACK
6
CONTINUOUS
10
6.33599
20
-3.98667
11
6.35086
21
-3.98071
0
LINE
8
BLACK
6
CONTINUOUS
10
6.35086
20
-3.98071
11
6.36623
21
-3.9762
0
LINE
8
BLACK
6
CONTINUOUS
10
6.36623
20
-3.9762
11
6.38195
21
-3.97317
0
LINE
8
BLACK
6
CONTINUOUS
10
6.38195
20
-3.97317
11
6.3979
21
-3.97165
0
LINE
8
BLACK
6
CONTINUOUS
10
6.3979
20
-3.97165
11
6.41391
21
-3.97165
0
LINE
8
BLACK
6
CONTINUOUS
10
6.41391
20
-3.97165
11
6.42986
21
-3.97317
0
LINE
8
BLACK
6
CONTINUOUS
10
6.24013
20
-4.15559
11
6.24239
21
-4.17128
0
LINE
8
BLACK
6
CONTINUOUS
10
6.24239
20
-4.17128
11
6.24612
21
-4.18668
0
LINE
8
BLACK
6
CONTINUOUS
10
6.24612
20
-4.18668
11
6.25131
21
-4.20166
0
LINE
8
BLACK
6
CONTINUOUS
10
6.25131
20
-4.20166
11
6.25789
21
-4.21607
0
LINE
8
BLACK
6
CONTINUOUS
10
6.25789
20
-4.21607
11
6.26581
21
-4.2298
0
LINE
8
BLACK
6
CONTINUOUS
10
6.26581
20
-4.2298
11
6.27501
21
-4.2427
0
LINE
8
BLACK
6
CONTINUOUS
10
6.27501
20
-4.2427
11
6.28538
21
-4.25468
0
LINE
8
BLACK
6
CONTINUOUS
10
6.28538
20
-4.25468
11
6.29685
21
-4.26562
0
LINE
8
BLACK
6
CONTINUOUS
10
6.29685
20
-4.26562
11
6.30931
21
-4.27541
0
LINE
8
BLACK
6
CONTINUOUS
10
6.30931
20
-4.27541
11
6.32264
21
-4.28398
0
LINE
8
BLACK
6
CONTINUOUS
10
6.32264
20
-4.28398
11
6.33673
21
-4.29124
0
LINE
8
BLACK
6
CONTINUOUS
10
6.33673
20
-4.29124
11
6.35144
21
-4.29713
0
LINE
8
BLACK
6
CONTINUOUS
10
6.35144
20
-4.29713
11
6.36665
21
-4.3016
0
LINE
8
BLACK
6
CONTINUOUS
10
6.36665
20
-4.3016
11
6.38221
21
-4.3046
0
LINE
8
BLACK
6
CONTINUOUS
10
6.38221
20
-4.3046
11
6.39798
21
-4.3061
0
LINE
8
BLACK
6
CONTINUOUS
10
6.39798
20
-4.3061
11
6.41383
21
-4.3061
0
LINE
8
BLACK
6
CONTINUOUS
10
6.41383
20
-4.3061
11
6.4296
21
-4.3046
0
LINE
8
BLACK
6
CONTINUOUS
10
6.4296
20
-4.3046
11
6.44517
21
-4.3016
0
LINE
8
BLACK
6
CONTINUOUS
10
6.44517
20
-4.3016
11
6.46037
21
-4.29713
0
LINE
8
BLACK
6
CONTINUOUS
10
6.46037
20
-4.29713
11
6.47508
21
-4.29124
0
LINE
8
BLACK
6
CONTINUOUS
10
6.47508
20
-4.29124
11
6.48917
21
-4.28398
0
LINE
8
BLACK
6
CONTINUOUS
10
6.48917
20
-4.28398
11
6.5025
21
-4.27541
0
LINE
8
BLACK
6
CONTINUOUS
10
6.5025
20
-4.27541
11
6.51496
21
-4.26562
0
LINE
8
BLACK
6
CONTINUOUS
10
6.51496
20
-4.26562
11
6.52643
21
-4.25468
0
LINE
8
BLACK
6
CONTINUOUS
10
6.52643
20
-4.25468
11
6.5368
21
-4.2427
0
LINE
8
BLACK
6
CONTINUOUS
10
6.5368
20
-4.2427
11
6.546
21
-4.2298
0
LINE
8
BLACK
6
CONTINUOUS
10
6.546
20
-4.2298
11
6.55392
21
-4.21607
0
LINE
8
BLACK
6
CONTINUOUS
10
6.55392
20
-4.21607
11
6.5605
21
-4.20166
0
LINE
8
BLACK
6
CONTINUOUS
10
6.5605
20
-4.20166
11
6.56569
21
-4.18668
0
LINE
8
BLACK
6
CONTINUOUS
10
6.56569
20
-4.18668
11
6.56942
21
-4.17128
0
LINE
8
BLACK
6
CONTINUOUS
10
6.56942
20
-4.17128
11
6.57168
21
-4.15559
0
LINE
8
BLACK
6
CONTINUOUS
10
6.57168
20
-4.15559
11
6.57243
21
-4.13976
0
LINE
8
BLACK
6
CONTINUOUS
10
6.57243
20
-4.13976
11
6.57168
21
-4.12393
0
LINE
8
BLACK
6
CONTINUOUS
10
6.57168
20
-4.12393
11
6.56942
21
-4.10825
0
LINE
8
BLACK
6
CONTINUOUS
10
6.56942
20
-4.10825
11
6.56569
21
-4.09285
0
LINE
8
BLACK
6
CONTINUOUS
10
6.56569
20
-4.09285
11
6.5605
21
-4.07787
0
LINE
8
BLACK
6
CONTINUOUS
10
6.5605
20
-4.07787
11
6.55392
21
-4.06346
0
LINE
8
BLACK
6
CONTINUOUS
10
6.55392
20
-4.06346
11
6.546
21
-4.04973
0
LINE
8
BLACK
6
CONTINUOUS
10
6.546
20
-4.04973
11
6.5368
21
-4.03682
0
LINE
8
BLACK
6
CONTINUOUS
10
6.5368
20
-4.03682
11
6.52643
21
-4.02485
0
LINE
8
BLACK
6
CONTINUOUS
10
6.52643
20
-4.02485
11
6.51496
21
-4.01391
0
LINE
8
BLACK
6
CONTINUOUS
10
6.51496
20
-4.01391
11
6.5025
21
-4.00411
0
LINE
8
BLACK
6
CONTINUOUS
10
6.5025
20
-4.00411
11
6.48917
21
-3.99555
0
LINE
8
BLACK
6
CONTINUOUS
10
6.48917
20
-3.99555
11
6.47508
21
-3.98829
0
LINE
8
BLACK
6
CONTINUOUS
10
6.47508
20
-3.98829
11
6.46037
21
-3.9824
0
LINE
8
BLACK
6
CONTINUOUS
10
6.46037
20
-3.9824
11
6.44517
21
-3.97793
0
LINE
8
BLACK
6
CONTINUOUS
10
6.44517
20
-3.97793
11
6.4296
21
-3.97493
0
LINE
8
BLACK
6
CONTINUOUS
10
6.4296
20
-3.97493
11
6.41383
21
-3.97343
0
LINE
8
BLACK
6
CONTINUOUS
10
6.41383
20
-3.97343
11
6.39798
21
-3.97343
0
LINE
8
BLACK
6
CONTINUOUS
10
6.39798
20
-3.97343
11
6.38221
21
-3.97493
0
LINE
8
BLACK
6
CONTINUOUS
10
6.38221
20
-3.97493
11
6.36665
21
-3.97793
0
LINE
8
BLACK
6
CONTINUOUS
10
6.36665
20
-3.97793
11
6.35144
21
-3.9824
0
LINE
8
BLACK
6
CONTINUOUS
10
6.35144
20
-3.9824
11
6.33673
21
-3.98829
0
LINE
8
BLACK
6
CONTINUOUS
10
6.33673
20
-3.98829
11
6.32264
21
-3.99555
0
LINE
8
BLACK
6
CONTINUOUS
10
6.32264
20
-3.99555
11
6.30931
21
-4.00411
0
LINE
8
BLACK
6
CONTINUOUS
10
6.30931
20
-4.00411
11
6.29685
21
-4.01391
0
LINE
8
BLACK
6
CONTINUOUS
10
6.29685
20
-4.01391
11
6.28538
21
-4.02485
0
LINE
8
BLACK
6
CONTINUOUS
10
6.28538
20
-4.02485
11
6.27501
21
-4.03682
0
LINE
8
BLACK
6
CONTINUOUS
10
6.27501
20
-4.03682
11
6.26581
21
-4.04973
0
LINE
8
BLACK
6
CONTINUOUS
10
6.26581
20
-4.04973
11
6.25789
21
-4.06346
0
LINE
8
BLACK
6
CONTINUOUS
10
6.25789
20
-4.06346
11
6.25131
21
-4.07787
0
LINE
8
BLACK
6
CONTINUOUS
10
6.25131
20
-4.07787
11
6.24612
21
-4.09285
0
LINE
8
BLACK
6
CONTINUOUS
10
6.24612
20
-4.09285
11
6.24239
21
-4.10825
0
LINE
8
BLACK
6
CONTINUOUS
10
6.24239
20
-4.10825
11
6.24013
21
-4.12393
0
LINE
8
BLACK
6
CONTINUOUS
10
6.24013
20
-4.12393
11
6.23938
21
-4.13976
0
LINE
8
BLACK
6
CONTINUOUS
10
6.23938
20
-4.13976
11
6.24013
21
-4.15559
0
LINE
8
BLACK
6
CONTINUOUS
10
5.24252
20
-4.17028
11
5.24322
21
-4.17056
0
LINE
8
BLACK
6
CONTINUOUS
10
5.24322
20
-4.17056
11
5.2435
21
-4.17126
0
LINE
8
BLACK
6
CONTINUOUS
10
5.2435
20
-4.17126
11
5.2435
21
-4.24606
0
LINE
8
BLACK
6
CONTINUOUS
10
5.2435
20
-4.24606
11
5.24322
21
-4.24676
0
LINE
8
BLACK
6
CONTINUOUS
10
5.24322
20
-4.24676
11
5.24252
21
-4.24705
0
LINE
8
BLACK
6
CONTINUOUS
10
5.24252
20
-4.24705
11
5.09685
21
-4.24705
0
LINE
8
BLACK
6
CONTINUOUS
10
5.09685
20
-4.24705
11
5.09615
21
-4.24676
0
LINE
8
BLACK
6
CONTINUOUS
10
5.09615
20
-4.24676
11
5.09587
21
-4.24606
0
LINE
8
BLACK
6
CONTINUOUS
10
5.09587
20
-4.24606
11
5.09587
21
-4.24606
0
LINE
8
BLACK
6
CONTINUOUS
10
5.09587
20
-4.24606
11
5.09587
21
-4.17126
0
LINE
8
BLACK
6
CONTINUOUS
10
5.09587
20
-4.17126
11
5.09615
21
-4.17056
0
LINE
8
BLACK
6
CONTINUOUS
10
5.09615
20
-4.17056
11
5.09685
21
-4.17028
0
LINE
8
BLACK
6
CONTINUOUS
10
5.09685
20
-4.17028
11
5.24252
21
-4.17028
0
LINE
8
BLACK
6
CONTINUOUS
10
5.09783
20
-4.17224
11
5.09783
21
-4.24508
0
LINE
8
BLACK
6
CONTINUOUS
10
5.09783
20
-4.24508
11
5.24154
21
-4.24508
0
LINE
8
BLACK
6
CONTINUOUS
10
5.24154
20
-4.24508
11
5.24154
21
-4.17224
0
LINE
8
BLACK
6
CONTINUOUS
10
5.24154
20
-4.17224
11
5.09783
21
-4.17224
0
LINE
8
BLACK
6
CONTINUOUS
10
5.39606
20
-4.17028
11
5.39676
21
-4.17056
0
LINE
8
BLACK
6
CONTINUOUS
10
5.39676
20
-4.17056
11
5.39705
21
-4.17126
0
LINE
8
BLACK
6
CONTINUOUS
10
5.39705
20
-4.17126
11
5.39705
21
-4.24606
0
LINE
8
BLACK
6
CONTINUOUS
10
5.39705
20
-4.24606
11
5.39676
21
-4.24676
0
LINE
8
BLACK
6
CONTINUOUS
10
5.39676
20
-4.24676
11
5.39606
21
-4.24705
0
LINE
8
BLACK
6
CONTINUOUS
10
5.39606
20
-4.24705
11
5.25039
21
-4.24705
0
LINE
8
BLACK
6
CONTINUOUS
10
5.25039
20
-4.24705
11
5.2497
21
-4.24676
0
LINE
8
BLACK
6
CONTINUOUS
10
5.2497
20
-4.24676
11
5.24941
21
-4.24606
0
LINE
8
BLACK
6
CONTINUOUS
10
5.24941
20
-4.24606
11
5.24941
21
-4.24606
0
LINE
8
BLACK
6
CONTINUOUS
10
5.24941
20
-4.24606
11
5.24941
21
-4.17126
0
LINE
8
BLACK
6
CONTINUOUS
10
5.24941
20
-4.17126
11
5.2497
21
-4.17056
0
LINE
8
BLACK
6
CONTINUOUS
10
5.2497
20
-4.17056
11
5.25039
21
-4.17028
0
LINE
8
BLACK
6
CONTINUOUS
10
5.25039
20
-4.17028
11
5.39606
21
-4.17028
0
LINE
8
BLACK
6
CONTINUOUS
10
5.25138
20
-4.17224
11
5.25138
21
-4.24508
0
LINE
8
BLACK
6
CONTINUOUS
10
5.25138
20
-4.24508
11
5.39508
21
-4.24508
0
LINE
8
BLACK
6
CONTINUOUS
10
5.39508
20
-4.24508
11
5.39508
21
-4.17224
0
LINE
8
BLACK
6
CONTINUOUS
10
5.39508
20
-4.17224
11
5.25138
21
-4.17224
0
LINE
8
BLACK
6
CONTINUOUS
10
5.92756
20
-4.09154
11
5.92826
21
-4.09182
0
LINE
8
BLACK
6
CONTINUOUS
10
5.92826
20
-4.09182
11
5.92854
21
-4.09252
0
LINE
8
BLACK
6
CONTINUOUS
10
5.92854
20
-4.09252
11
5.92854
21
-4.23819
0
LINE
8
BLACK
6
CONTINUOUS
10
5.92854
20
-4.23819
11
5.92826
21
-4.23888
0
LINE
8
BLACK
6
CONTINUOUS
10
5.92826
20
-4.23888
11
5.92756
21
-4.23917
0
LINE
8
BLACK
6
CONTINUOUS
10
5.92756
20
-4.23917
11
5.85276
21
-4.23917
0
LINE
8
BLACK
6
CONTINUOUS
10
5.85276
20
-4.23917
11
5.85206
21
-4.23888
0
LINE
8
BLACK
6
CONTINUOUS
10
5.85206
20
-4.23888
11
5.85177
21
-4.23819
0
LINE
8
BLACK
6
CONTINUOUS
10
5.85177
20
-4.23819
11
5.85177
21
-4.09252
0
LINE
8
BLACK
6
CONTINUOUS
10
5.85177
20
-4.09252
11
5.85206
21
-4.09182
0
LINE
8
BLACK
6
CONTINUOUS
10
5.85206
20
-4.09182
11
5.85276
21
-4.09154
0
LINE
8
BLACK
6
CONTINUOUS
10
5.85276
20
-4.09154
11
5.92756
21
-4.09154
0
LINE
8
BLACK
6
CONTINUOUS
10
5.85374
20
-4.0935
11
5.85374
21
-4.2372
0
LINE
8
BLACK
6
CONTINUOUS
10
5.85374
20
-4.2372
11
5.92657
21
-4.2372
0
LINE
8
BLACK
6
CONTINUOUS
10
5.92657
20
-4.2372
11
5.92657
21
-4.0935
0
LINE
8
BLACK
6
CONTINUOUS
10
5.92657
20
-4.0935
11
5.85374
21
-4.0935
0
LINE
8
BLACK
6
CONTINUOUS
10
6.0063
20
-4.09154
11
6.007
21
-4.09182
0
LINE
8
BLACK
6
CONTINUOUS
10
6.007
20
-4.09182
11
6.00728
21
-4.09252
0
LINE
8
BLACK
6
CONTINUOUS
10
6.00728
20
-4.09252
11
6.00728
21
-4.23819
0
LINE
8
BLACK
6
CONTINUOUS
10
6.00728
20
-4.23819
11
6.007
21
-4.23888
0
LINE
8
BLACK
6
CONTINUOUS
10
6.007
20
-4.23888
11
6.0063
21
-4.23917
0
LINE
8
BLACK
6
CONTINUOUS
10
6.0063
20
-4.23917
11
5.9315
21
-4.23917
0
LINE
8
BLACK
6
CONTINUOUS
10
5.9315
20
-4.23917
11
5.9308
21
-4.23888
0
LINE
8
BLACK
6
CONTINUOUS
10
5.9308
20
-4.23888
11
5.93051
21
-4.23819
0
LINE
8
BLACK
6
CONTINUOUS
10
5.93051
20
-4.23819
11
5.93051
21
-4.09252
0
LINE
8
BLACK
6
CONTINUOUS
10
5.93051
20
-4.09252
11
5.9308
21
-4.09182
0
LINE
8
BLACK
6
CONTINUOUS
10
5.9308
20
-4.09182
11
5.9315
21
-4.09154
0
LINE
8
BLACK
6
CONTINUOUS
10
5.9315
20
-4.09154
11
6.0063
21
-4.09154
0
LINE
8
BLACK
6
CONTINUOUS
10
5.93248
20
-4.0935
11
5.93248
21
-4.2372
0
LINE
8
BLACK
6
CONTINUOUS
10
5.93248
20
-4.2372
11
6.00531
21
-4.2372
0
LINE
8
BLACK
6
CONTINUOUS
10
6.00531
20
-4.2372
11
6.00531
21
-4.0935
0
LINE
8
BLACK
6
CONTINUOUS
10
6.00531
20
-4.0935
11
5.93248
21
-4.0935
0
LINE
8
BLACK
6
CONTINUOUS
10
5.84646
20
-4.0935
11
5.84715
21
-4.09379
0
LINE
8
BLACK
6
CONTINUOUS
10
5.84715
20
-4.09379
11
5.84744
21
-4.09449
0
LINE
8
BLACK
6
CONTINUOUS
10
5.84744
20
-4.09449
11
5.84744
21
-4.23622
0
LINE
8
BLACK
6
CONTINUOUS
10
5.84744
20
-4.23622
11
5.84715
21
-4.23692
0
LINE
8
BLACK
6
CONTINUOUS
10
5.84715
20
-4.23692
11
5.84646
21
-4.2372
0
LINE
8
BLACK
6
CONTINUOUS
10
5.84646
20
-4.2372
11
5.40551
21
-4.2372
0
LINE
8
BLACK
6
CONTINUOUS
10
5.40551
20
-4.2372
11
5.40482
21
-4.23692
0
LINE
8
BLACK
6
CONTINUOUS
10
5.40482
20
-4.23692
11
5.40453
21
-4.23622
0
LINE
8
BLACK
6
CONTINUOUS
10
5.40453
20
-4.23622
11
5.40453
21
-4.09449
0
LINE
8
BLACK
6
CONTINUOUS
10
5.40453
20
-4.09449
11
5.40482
21
-4.09379
0
LINE
8
BLACK
6
CONTINUOUS
10
5.40482
20
-4.09379
11
5.40551
21
-4.0935
0
LINE
8
BLACK
6
CONTINUOUS
10
5.40551
20
-4.0935
11
5.84646
21
-4.0935
0
LINE
8
BLACK
6
CONTINUOUS
10
5.4065
20
-4.09547
11
5.4065
21
-4.23524
0
LINE
8
BLACK
6
CONTINUOUS
10
5.4065
20
-4.23524
11
5.84547
21
-4.23524
0
LINE
8
BLACK
6
CONTINUOUS
10
5.84547
20
-4.23524
11
5.84547
21
-4.09547
0
LINE
8
BLACK
6
CONTINUOUS
10
5.84547
20
-4.09547
11
5.4065
21
-4.09547
0
LINE
8
BLACK
6
CONTINUOUS
10
4.80157
20
-4.15453
11
4.80227
21
-4.15482
0
LINE
8
BLACK
6
CONTINUOUS
10
4.80227
20
-4.15482
11
4.80256
21
-4.15551
0
LINE
8
BLACK
6
CONTINUOUS
10
4.80256
20
-4.15551
11
4.80256
21
-4.23031
0
LINE
8
BLACK
6
CONTINUOUS
10
4.80256
20
-4.23031
11
4.80227
21
-4.23101
0
LINE
8
BLACK
6
CONTINUOUS
10
4.80227
20
-4.23101
11
4.80157
21
-4.2313
0
LINE
8
BLACK
6
CONTINUOUS
10
4.80157
20
-4.2313
11
4.65591
21
-4.2313
0
LINE
8
BLACK
6
CONTINUOUS
10
4.65591
20
-4.2313
11
4.65521
21
-4.23101
0
LINE
8
BLACK
6
CONTINUOUS
10
4.65521
20
-4.23101
11
4.65492
21
-4.23031
0
LINE
8
BLACK
6
CONTINUOUS
10
4.65492
20
-4.23031
11
4.65492
21
-4.23031
0
LINE
8
BLACK
6
CONTINUOUS
10
4.65492
20
-4.23031
11
4.65492
21
-4.15551
0
LINE
8
BLACK
6
CONTINUOUS
10
4.65492
20
-4.15551
11
4.65521
21
-4.15482
0
LINE
8
BLACK
6
CONTINUOUS
10
4.65521
20
-4.15482
11
4.65591
21
-4.15453
0
LINE
8
BLACK
6
CONTINUOUS
10
4.65591
20
-4.15453
11
4.80157
21
-4.15453
0
LINE
8
BLACK
6
CONTINUOUS
10
4.65689
20
-4.1565
11
4.65689
21
-4.22933
0
LINE
8
BLACK
6
CONTINUOUS
10
4.65689
20
-4.22933
11
4.80059
21
-4.22933
0
LINE
8
BLACK
6
CONTINUOUS
10
4.80059
20
-4.22933
11
4.80059
21
-4.1565
0
LINE
8
BLACK
6
CONTINUOUS
10
4.80059
20
-4.1565
11
4.65689
21
-4.1565
0
LINE
8
BLACK
6
CONTINUOUS
10
4.88031
20
-4.07972
11
4.88101
21
-4.08001
0
LINE
8
BLACK
6
CONTINUOUS
10
4.88101
20
-4.08001
11
4.8813
21
-4.08071
0
LINE
8
BLACK
6
CONTINUOUS
10
4.8813
20
-4.08071
11
4.8813
21
-4.22638
0
LINE
8
BLACK
6
CONTINUOUS
10
4.8813
20
-4.22638
11
4.88101
21
-4.22707
0
LINE
8
BLACK
6
CONTINUOUS
10
4.88101
20
-4.22707
11
4.88031
21
-4.22736
0
LINE
8
BLACK
6
CONTINUOUS
10
4.88031
20
-4.22736
11
4.80551
21
-4.22736
0
LINE
8
BLACK
6
CONTINUOUS
10
4.80551
20
-4.22736
11
4.80482
21
-4.22707
0
LINE
8
BLACK
6
CONTINUOUS
10
4.80482
20
-4.22707
11
4.80453
21
-4.22638
0
LINE
8
BLACK
6
CONTINUOUS
10
4.80453
20
-4.22638
11
4.80453
21
-4.08071
0
LINE
8
BLACK
6
CONTINUOUS
10
4.80453
20
-4.08071
11
4.80482
21
-4.08001
0
LINE
8
BLACK
6
CONTINUOUS
10
4.80482
20
-4.08001
11
4.80551
21
-4.07972
0
LINE
8
BLACK
6
CONTINUOUS
10
4.80551
20
-4.07972
11
4.88031
21
-4.07972
0
LINE
8
BLACK
6
CONTINUOUS
10
4.8065
20
-4.08169
11
4.8065
21
-4.22539
0
LINE
8
BLACK
6
CONTINUOUS
10
4.8065
20
-4.22539
11
4.87933
21
-4.22539
0
LINE
8
BLACK
6
CONTINUOUS
10
4.87933
20
-4.22539
11
4.87933
21
-4.08169
0
LINE
8
BLACK
6
CONTINUOUS
10
4.87933
20
-4.08169
11
4.8065
21
-4.08169
0
LINE
8
BLACK
6
CONTINUOUS
10
5.09016
20
-3.95846
11
5.09085
21
-3.95875
0
LINE
8
BLACK
6
CONTINUOUS
10
5.09085
20
-3.95875
11
5.09114
21
-3.95945
0
LINE
8
BLACK
6
CONTINUOUS
10
5.09114
20
-3.95945
11
5.09114
21
-4.17441
0
LINE
8
BLACK
6
CONTINUOUS
10
5.09114
20
-4.17441
11
5.09114
21
-4.17441
0
LINE
8
BLACK
6
CONTINUOUS
10
5.09114
20
-4.17441
11
5.09114
21
-4.17441
0
LINE
8
BLACK
6
CONTINUOUS
10
5.09114
20
-4.17441
11
5.091
21
-4.17476
0
LINE
8
BLACK
6
CONTINUOUS
10
5.091
20
-4.17476
11
5.09085
21
-4.17511
0
LINE
8
BLACK
6
CONTINUOUS
10
5.09085
20
-4.17511
11
5.09085
21
-4.17511
0
LINE
8
BLACK
6
CONTINUOUS
10
5.09085
20
-4.17511
11
5.09085
21
-4.17511
0
LINE
8
BLACK
6
CONTINUOUS
10
5.09085
20
-4.17511
11
5.0905
21
-4.17525
0
LINE
8
BLACK
6
CONTINUOUS
10
5.0905
20
-4.17525
11
5.09016
21
-4.17539
0
LINE
8
BLACK
6
CONTINUOUS
10
5.09016
20
-4.17539
11
5.09016
21
-4.17539
0
LINE
8
BLACK
6
CONTINUOUS
10
5.09016
20
-4.17539
11
5.09016
21
-4.17539
0
LINE
8
BLACK
6
CONTINUOUS
10
5.09016
20
-4.17539
11
4.89168
21
-4.175
0
LINE
8
BLACK
6
CONTINUOUS
10
4.89168
20
-4.175
11
4.89164
21
-4.17511
0
LINE
8
BLACK
6
CONTINUOUS
10
4.89164
20
-4.17511
11
4.89094
21
-4.17539
0
LINE
8
BLACK
6
CONTINUOUS
10
4.89094
20
-4.17539
11
4.89025
21
-4.17511
0
LINE
8
BLACK
6
CONTINUOUS
10
4.89025
20
-4.17511
11
4.88996
21
-4.17441
0
LINE
8
BLACK
6
CONTINUOUS
10
4.88996
20
-4.17441
11
4.88996
21
-3.95945
0
LINE
8
BLACK
6
CONTINUOUS
10
4.88996
20
-3.95945
11
4.89025
21
-3.95875
0
LINE
8
BLACK
6
CONTINUOUS
10
4.89025
20
-3.95875
11
4.89094
21
-3.95846
0
LINE
8
BLACK
6
CONTINUOUS
10
4.89094
20
-3.95846
11
5.09016
21
-3.95846
0
LINE
8
BLACK
6
CONTINUOUS
10
4.89193
20
-3.96043
11
4.89193
21
-4.17303
0
LINE
8
BLACK
6
CONTINUOUS
10
4.89193
20
-4.17303
11
5.08917
21
-4.17342
0
LINE
8
BLACK
6
CONTINUOUS
10
5.08917
20
-4.17342
11
5.08917
21
-3.96043
0
LINE
8
BLACK
6
CONTINUOUS
10
5.08917
20
-3.96043
11
4.89193
21
-3.96043
0
LINE
8
BLACK
6
CONTINUOUS
10
5.39724
20
-4.08642
11
5.39794
21
-4.08671
0
LINE
8
BLACK
6
CONTINUOUS
10
5.39794
20
-4.08671
11
5.39823
21
-4.0874
0
LINE
8
BLACK
6
CONTINUOUS
10
5.39823
20
-4.0874
11
5.39823
21
-4.16457
0
LINE
8
BLACK
6
CONTINUOUS
10
5.39823
20
-4.16457
11
5.39794
21
-4.16526
0
LINE
8
BLACK
6
CONTINUOUS
10
5.39794
20
-4.16526
11
5.39724
21
-4.16555
0
LINE
8
BLACK
6
CONTINUOUS
10
5.39724
20
-4.16555
11
5.24921
21
-4.16555
0
LINE
8
BLACK
6
CONTINUOUS
10
5.24921
20
-4.16555
11
5.24852
21
-4.16526
0
LINE
8
BLACK
6
CONTINUOUS
10
5.24852
20
-4.16526
11
5.24823
21
-4.16457
0
LINE
8
BLACK
6
CONTINUOUS
10
5.24823
20
-4.16457
11
5.24823
21
-4.0874
0
LINE
8
BLACK
6
CONTINUOUS
10
5.24823
20
-4.0874
11
5.24852
21
-4.08671
0
LINE
8
BLACK
6
CONTINUOUS
10
5.24852
20
-4.08671
11
5.24921
21
-4.08642
0
LINE
8
BLACK
6
CONTINUOUS
10
5.24921
20
-4.08642
11
5.39724
21
-4.08642
0
LINE
8
BLACK
6
CONTINUOUS
10
5.2502
20
-4.08839
11
5.2502
21
-4.16358
0
LINE
8
BLACK
6
CONTINUOUS
10
5.2502
20
-4.16358
11
5.39626
21
-4.16358
0
LINE
8
BLACK
6
CONTINUOUS
10
5.39626
20
-4.16358
11
5.39626
21
-4.08839
0
LINE
8
BLACK
6
CONTINUOUS
10
5.39626
20
-4.08839
11
5.2502
21
-4.08839
0
LINE
8
BLACK
6
CONTINUOUS
10
5.24252
20
-4.0876
11
5.24322
21
-4.08789
0
LINE
8
BLACK
6
CONTINUOUS
10
5.24322
20
-4.08789
11
5.2435
21
-4.08858
0
LINE
8
BLACK
6
CONTINUOUS
10
5.2435
20
-4.08858
11
5.2435
21
-4.16339
0
LINE
8
BLACK
6
CONTINUOUS
10
5.2435
20
-4.16339
11
5.24322
21
-4.16408
0
LINE
8
BLACK
6
CONTINUOUS
10
5.24322
20
-4.16408
11
5.24252
21
-4.16437
0
LINE
8
BLACK
6
CONTINUOUS
10
5.24252
20
-4.16437
11
5.09685
21
-4.16437
0
LINE
8
BLACK
6
CONTINUOUS
10
5.09685
20
-4.16437
11
5.09615
21
-4.16408
0
LINE
8
BLACK
6
CONTINUOUS
10
5.09615
20
-4.16408
11
5.09587
21
-4.16339
0
LINE
8
BLACK
6
CONTINUOUS
10
5.09587
20
-4.16339
11
5.09587
21
-4.16339
0
LINE
8
BLACK
6
CONTINUOUS
10
5.09587
20
-4.16339
11
5.09587
21
-4.08858
0
LINE
8
BLACK
6
CONTINUOUS
10
5.09587
20
-4.08858
11
5.09615
21
-4.08789
0
LINE
8
BLACK
6
CONTINUOUS
10
5.09615
20
-4.08789
11
5.09685
21
-4.0876
0
LINE
8
BLACK
6
CONTINUOUS
10
5.09685
20
-4.0876
11
5.24252
21
-4.0876
0
LINE
8
BLACK
6
CONTINUOUS
10
5.09783
20
-4.08957
11
5.09783
21
-4.1624
0
LINE
8
BLACK
6
CONTINUOUS
10
5.09783
20
-4.1624
11
5.24154
21
-4.1624
0
LINE
8
BLACK
6
CONTINUOUS
10
5.24154
20
-4.1624
11
5.24154
21
-4.08957
0
LINE
8
BLACK
6
CONTINUOUS
10
5.24154
20
-4.08957
11
5.09783
21
-4.08957
0
LINE
8
BLACK
6
CONTINUOUS
10
4.80157
20
-4.07579
11
4.80227
21
-4.07608
0
LINE
8
BLACK
6
CONTINUOUS
10
4.80227
20
-4.07608
11
4.80256
21
-4.07677
0
LINE
8
BLACK
6
CONTINUOUS
10
4.80256
20
-4.07677
11
4.80256
21
-4.15157
0
LINE
8
BLACK
6
CONTINUOUS
10
4.80256
20
-4.15157
11
4.80227
21
-4.15227
0
LINE
8
BLACK
6
CONTINUOUS
10
4.80227
20
-4.15227
11
4.80157
21
-4.15256
0
LINE
8
BLACK
6
CONTINUOUS
10
4.80157
20
-4.15256
11
4.65591
21
-4.15256
0
LINE
8
BLACK
6
CONTINUOUS
10
4.65591
20
-4.15256
11
4.65521
21
-4.15227
0
LINE
8
BLACK
6
CONTINUOUS
10
4.65521
20
-4.15227
11
4.65492
21
-4.15157
0
LINE
8
BLACK
6
CONTINUOUS
10
4.65492
20
-4.15157
11
4.65492
21
-4.15157
0
LINE
8
BLACK
6
CONTINUOUS
10
4.65492
20
-4.15157
11
4.65492
21
-4.07677
0
LINE
8
BLACK
6
CONTINUOUS
10
4.65492
20
-4.07677
11
4.65521
21
-4.07608
0
LINE
8
BLACK
6
CONTINUOUS
10
4.65521
20
-4.07608
11
4.65591
21
-4.07579
0
LINE
8
BLACK
6
CONTINUOUS
10
4.65591
20
-4.07579
11
4.80157
21
-4.07579
0
LINE
8
BLACK
6
CONTINUOUS
10
4.65689
20
-4.07776
11
4.65689
21
-4.15059
0
LINE
8
BLACK
6
CONTINUOUS
10
4.65689
20
-4.15059
11
4.80059
21
-4.15059
0
LINE
8
BLACK
6
CONTINUOUS
10
4.80059
20
-4.15059
11
4.80059
21
-4.07776
0
LINE
8
BLACK
6
CONTINUOUS
10
4.80059
20
-4.07776
11
4.65689
21
-4.07776
0
LINE
8
BLACK
6
CONTINUOUS
10
5.99961
20
-4.00768
11
6.0003
21
-4.00797
0
LINE
8
BLACK
6
CONTINUOUS
10
6.0003
20
-4.00797
11
6.00059
21
-4.00866
0
LINE
8
BLACK
6
CONTINUOUS
10
6.00059
20
-4.00866
11
6.00059
21
-4.08583
0
LINE
8
BLACK
6
CONTINUOUS
10
6.00059
20
-4.08583
11
6.0003
21
-4.08652
0
LINE
8
BLACK
6
CONTINUOUS
10
6.0003
20
-4.08652
11
5.99961
21
-4.08681
0
LINE
8
BLACK
6
CONTINUOUS
10
5.99961
20
-4.08681
11
5.85157
21
-4.08681
0
LINE
8
BLACK
6
CONTINUOUS
10
5.85157
20
-4.08681
11
5.85088
21
-4.08652
0
LINE
8
BLACK
6
CONTINUOUS
10
5.85088
20
-4.08652
11
5.85059
21
-4.08583
0
LINE
8
BLACK
6
CONTINUOUS
10
5.85059
20
-4.08583
11
5.85059
21
-4.00866
0
LINE
8
BLACK
6
CONTINUOUS
10
5.85059
20
-4.00866
11
5.85088
21
-4.00797
0
LINE
8
BLACK
6
CONTINUOUS
10
5.85088
20
-4.00797
11
5.85157
21
-4.00768
0
LINE
8
BLACK
6
CONTINUOUS
10
5.85157
20
-4.00768
11
5.99961
21
-4.00768
0
LINE
8
BLACK
6
CONTINUOUS
10
5.85256
20
-4.00965
11
5.85256
21
-4.08484
0
LINE
8
BLACK
6
CONTINUOUS
10
5.85256
20
-4.08484
11
5.99862
21
-4.08484
0
LINE
8
BLACK
6
CONTINUOUS
10
5.99862
20
-4.08484
11
5.99862
21
-4.00965
0
LINE
8
BLACK
6
CONTINUOUS
10
5.99862
20
-4.00965
11
5.85256
21
-4.00965
0
LINE
8
BLACK
6
CONTINUOUS
10
5.24252
20
-4.00886
11
5.24322
21
-4.00915
0
LINE
8
BLACK
6
CONTINUOUS
10
5.24322
20
-4.00915
11
5.2435
21
-4.00984
0
LINE
8
BLACK
6
CONTINUOUS
10
5.2435
20
-4.00984
11
5.2435
21
-4.08465
0
LINE
8
BLACK
6
CONTINUOUS
10
5.2435
20
-4.08465
11
5.24322
21
-4.08534
0
LINE
8
BLACK
6
CONTINUOUS
10
5.24322
20
-4.08534
11
5.24252
21
-4.08563
0
LINE
8
BLACK
6
CONTINUOUS
10
5.24252
20
-4.08563
11
5.09685
21
-4.08563
0
LINE
8
BLACK
6
CONTINUOUS
10
5.09685
20
-4.08563
11
5.09615
21
-4.08534
0
LINE
8
BLACK
6
CONTINUOUS
10
5.09615
20
-4.08534
11
5.09587
21
-4.08465
0
LINE
8
BLACK
6
CONTINUOUS
10
5.09587
20
-4.08465
11
5.09587
21
-4.08465
0
LINE
8
BLACK
6
CONTINUOUS
10
5.09587
20
-4.08465
11
5.09587
21
-4.00984
0
LINE
8
BLACK
6
CONTINUOUS
10
5.09587
20
-4.00984
11
5.09615
21
-4.00915
0
LINE
8
BLACK
6
CONTINUOUS
10
5.09615
20
-4.00915
11
5.09685
21
-4.00886
0
LINE
8
BLACK
6
CONTINUOUS
10
5.09685
20
-4.00886
11
5.24252
21
-4.00886
0
LINE
8
BLACK
6
CONTINUOUS
10
5.09783
20
-4.01083
11
5.09783
21
-4.08366
0
LINE
8
BLACK
6
CONTINUOUS
10
5.09783
20
-4.08366
11
5.24154
21
-4.08366
0
LINE
8
BLACK
6
CONTINUOUS
10
5.24154
20
-4.08366
11
5.24154
21
-4.01083
0
LINE
8
BLACK
6
CONTINUOUS
10
5.24154
20
-4.01083
11
5.09783
21
-4.01083
0
LINE
8
BLACK
6
CONTINUOUS
10
5.46299
20
-3.90256
11
5.46369
21
-3.90285
0
LINE
8
BLACK
6
CONTINUOUS
10
5.46369
20
-3.90285
11
5.46398
21
-3.90354
0
LINE
8
BLACK
6
CONTINUOUS
10
5.46398
20
-3.90354
11
5.46398
21
-4.04921
0
LINE
8
BLACK
6
CONTINUOUS
10
5.46398
20
-4.04921
11
5.46369
21
-4.04991
0
LINE
8
BLACK
6
CONTINUOUS
10
5.46369
20
-4.04991
11
5.46299
21
-4.0502
0
LINE
8
BLACK
6
CONTINUOUS
10
5.46299
20
-4.0502
11
5.38819
21
-4.0502
0
LINE
8
BLACK
6
CONTINUOUS
10
5.38819
20
-4.0502
11
5.38749
21
-4.04991
0
LINE
8
BLACK
6
CONTINUOUS
10
5.38749
20
-4.04991
11
5.3872
21
-4.04921
0
LINE
8
BLACK
6
CONTINUOUS
10
5.3872
20
-4.04921
11
5.3872
21
-3.90354
0
LINE
8
BLACK
6
CONTINUOUS
10
5.3872
20
-3.90354
11
5.38749
21
-3.90285
0
LINE
8
BLACK
6
CONTINUOUS
10
5.38749
20
-3.90285
11
5.38819
21
-3.90256
0
LINE
8
BLACK
6
CONTINUOUS
10
5.38819
20
-3.90256
11
5.46299
21
-3.90256
0
LINE
8
BLACK
6
CONTINUOUS
10
5.38917
20
-3.90453
11
5.38917
21
-4.04823
0
LINE
8
BLACK
6
CONTINUOUS
10
5.38917
20
-4.04823
11
5.46201
21
-4.04823
0
LINE
8
BLACK
6
CONTINUOUS
10
5.46201
20
-4.04823
11
5.46201
21
-3.90453
0
LINE
8
BLACK
6
CONTINUOUS
10
5.46201
20
-3.90453
11
5.38917
21
-3.90453
0
LINE
8
BLACK
6
CONTINUOUS
10
6.23858
20
-3.97343
11
6.23928
21
-3.97371
0
LINE
8
BLACK
6
CONTINUOUS
10
6.23928
20
-3.97371
11
6.23957
21
-3.97441
0
LINE
8
BLACK
6
CONTINUOUS
10
6.23957
20
-3.97441
11
6.23957
21
-4.04921
0
LINE
8
BLACK
6
CONTINUOUS
10
6.23957
20
-4.04921
11
6.23928
21
-4.04991
0
LINE
8
BLACK
6
CONTINUOUS
10
6.23928
20
-4.04991
11
6.23858
21
-4.0502
0
LINE
8
BLACK
6
CONTINUOUS
10
6.23858
20
-4.0502
11
6.09291
21
-4.0502
0
LINE
8
BLACK
6
CONTINUOUS
10
6.09291
20
-4.0502
11
6.09222
21
-4.04991
0
LINE
8
BLACK
6
CONTINUOUS
10
6.09222
20
-4.04991
11
6.09193
21
-4.04921
0
LINE
8
BLACK
6
CONTINUOUS
10
6.09193
20
-4.04921
11
6.09193
21
-4.04921
0
LINE
8
BLACK
6
CONTINUOUS
10
6.09193
20
-4.04921
11
6.09193
21
-3.97441
0
LINE
8
BLACK
6
CONTINUOUS
10
6.09193
20
-3.97441
11
6.09222
21
-3.97371
0
LINE
8
BLACK
6
CONTINUOUS
10
6.09222
20
-3.97371
11
6.09291
21
-3.97343
0
LINE
8
BLACK
6
CONTINUOUS
10
6.09291
20
-3.97343
11
6.23858
21
-3.97343
0
LINE
8
BLACK
6
CONTINUOUS
10
6.0939
20
-3.97539
11
6.0939
21
-4.04823
0
LINE
8
BLACK
6
CONTINUOUS
10
6.0939
20
-4.04823
11
6.2376
21
-4.04823
0
LINE
8
BLACK
6
CONTINUOUS
10
6.2376
20
-4.04823
11
6.2376
21
-3.97539
0
LINE
8
BLACK
6
CONTINUOUS
10
6.2376
20
-3.97539
11
6.0939
21
-3.97539
0
LINE
8
BLACK
6
CONTINUOUS
10
4.81535
20
-3.54114
11
4.81605
21
-3.54143
0
LINE
8
BLACK
6
CONTINUOUS
10
4.81605
20
-3.54143
11
4.81634
21
-3.54213
0
LINE
8
BLACK
6
CONTINUOUS
10
4.81634
20
-3.54213
11
4.81634
21
-4.04843
0
LINE
8
BLACK
6
CONTINUOUS
10
4.81634
20
-4.04843
11
4.81605
21
-4.04912
0
LINE
8
BLACK
6
CONTINUOUS
10
4.81605
20
-4.04912
11
4.81535
21
-4.04941
0
LINE
8
BLACK
6
CONTINUOUS
10
4.81535
20
-4.04941
11
4.68937
21
-4.04941
0
LINE
8
BLACK
6
CONTINUOUS
10
4.68937
20
-4.04941
11
4.68867
21
-4.04912
0
LINE
8
BLACK
6
CONTINUOUS
10
4.68867
20
-4.04912
11
4.68839
21
-4.04843
0
LINE
8
BLACK
6
CONTINUOUS
10
4.68839
20
-4.04843
11
4.68839
21
-4.04843
0
LINE
8
BLACK
6
CONTINUOUS
10
4.68839
20
-4.04843
11
4.68839
21
-3.54213
0
LINE
8
BLACK
6
CONTINUOUS
10
4.68839
20
-3.54213
11
4.68867
21
-3.54143
0
LINE
8
BLACK
6
CONTINUOUS
10
4.68867
20
-3.54143
11
4.68937
21
-3.54114
0
LINE
8
BLACK
6
CONTINUOUS
10
4.68937
20
-3.54114
11
4.81535
21
-3.54114
0
LINE
8
BLACK
6
CONTINUOUS
10
4.69035
20
-3.54311
11
4.69035
21
-4.04744
0
LINE
8
BLACK
6
CONTINUOUS
10
4.69035
20
-4.04744
11
4.81437
21
-4.04744
0
LINE
8
BLACK
6
CONTINUOUS
10
4.81437
20
-4.04744
11
4.81437
21
-3.54311
0
LINE
8
BLACK
6
CONTINUOUS
10
4.81437
20
-3.54311
11
4.69035
21
-3.54311
0
LINE
8
BLACK
6
CONTINUOUS
10
5.2437
20
-3.92894
11
5.2444
21
-3.92923
0
LINE
8
BLACK
6
CONTINUOUS
10
5.2444
20
-3.92923
11
5.24469
21
-3.92992
0
LINE
8
BLACK
6
CONTINUOUS
10
5.24469
20
-3.92992
11
5.24469
21
-4.00709
0
LINE
8
BLACK
6
CONTINUOUS
10
5.24469
20
-4.00709
11
5.2444
21
-4.00778
0
LINE
8
BLACK
6
CONTINUOUS
10
5.2444
20
-4.00778
11
5.2437
21
-4.00807
0
LINE
8
BLACK
6
CONTINUOUS
10
5.2437
20
-4.00807
11
5.09567
21
-4.00807
0
LINE
8
BLACK
6
CONTINUOUS
10
5.09567
20
-4.00807
11
5.09497
21
-4.00778
0
LINE
8
BLACK
6
CONTINUOUS
10
5.09497
20
-4.00778
11
5.09469
21
-4.00709
0
LINE
8
BLACK
6
CONTINUOUS
10
5.09469
20
-4.00709
11
5.09469
21
-3.92992
0
LINE
8
BLACK
6
CONTINUOUS
10
5.09469
20
-3.92992
11
5.09497
21
-3.92923
0
LINE
8
BLACK
6
CONTINUOUS
10
5.09497
20
-3.92923
11
5.09567
21
-3.92894
0
LINE
8
BLACK
6
CONTINUOUS
10
5.09567
20
-3.92894
11
5.2437
21
-3.92894
0
LINE
8
BLACK
6
CONTINUOUS
10
5.09665
20
-3.93091
11
5.09665
21
-4.0061
0
LINE
8
BLACK
6
CONTINUOUS
10
5.09665
20
-4.0061
11
5.24272
21
-4.0061
0
LINE
8
BLACK
6
CONTINUOUS
10
5.24272
20
-4.0061
11
5.24272
21
-3.93091
0
LINE
8
BLACK
6
CONTINUOUS
10
5.24272
20
-3.93091
11
5.09665
21
-3.93091
0
LINE
8
BLACK
6
CONTINUOUS
10
5.99843
20
-3.92618
11
5.99912
21
-3.92647
0
LINE
8
BLACK
6
CONTINUOUS
10
5.99912
20
-3.92647
11
5.99941
21
-3.92717
0
LINE
8
BLACK
6
CONTINUOUS
10
5.99941
20
-3.92717
11
5.99941
21
-4.00197
0
LINE
8
BLACK
6
CONTINUOUS
10
5.99941
20
-4.00197
11
5.99912
21
-4.00266
0
LINE
8
BLACK
6
CONTINUOUS
10
5.99912
20
-4.00266
11
5.99843
21
-4.00295
0
LINE
8
BLACK
6
CONTINUOUS
10
5.99843
20
-4.00295
11
5.85276
21
-4.00295
0
LINE
8
BLACK
6
CONTINUOUS
10
5.85276
20
-4.00295
11
5.85206
21
-4.00266
0
LINE
8
BLACK
6
CONTINUOUS
10
5.85206
20
-4.00266
11
5.85177
21
-4.00197
0
LINE
8
BLACK
6
CONTINUOUS
10
5.85177
20
-4.00197
11
5.85177
21
-4.00197
0
LINE
8
BLACK
6
CONTINUOUS
10
5.85177
20
-4.00197
11
5.85177
21
-3.92717
0
LINE
8
BLACK
6
CONTINUOUS
10
5.85177
20
-3.92717
11
5.85206
21
-3.92647
0
LINE
8
BLACK
6
CONTINUOUS
10
5.85206
20
-3.92647
11
5.85276
21
-3.92618
0
LINE
8
BLACK
6
CONTINUOUS
10
5.85276
20
-3.92618
11
5.99843
21
-3.92618
0
LINE
8
BLACK
6
CONTINUOUS
10
5.85374
20
-3.92815
11
5.85374
21
-4.00098
0
LINE
8
BLACK
6
CONTINUOUS
10
5.85374
20
-4.00098
11
5.99744
21
-4.00098
0
LINE
8
BLACK
6
CONTINUOUS
10
5.99744
20
-4.00098
11
5.99744
21
-3.92815
0
LINE
8
BLACK
6
CONTINUOUS
10
5.99744
20
-3.92815
11
5.85374
21
-3.92815
0
LINE
8
BLACK
6
CONTINUOUS
10
6.15709
20
-3.8935
11
6.15778
21
-3.89379
0
LINE
8
BLACK
6
CONTINUOUS
10
6.15778
20
-3.89379
11
6.15807
21
-3.89449
0
LINE
8
BLACK
6
CONTINUOUS
10
6.15807
20
-3.89449
11
6.15807
21
-3.97165
0
LINE
8
BLACK
6
CONTINUOUS
10
6.15807
20
-3.97165
11
6.15778
21
-3.97235
0
LINE
8
BLACK
6
CONTINUOUS
10
6.15778
20
-3.97235
11
6.15709
21
-3.97264
0
LINE
8
BLACK
6
CONTINUOUS
10
6.15709
20
-3.97264
11
6.00906
21
-3.97264
0
LINE
8
BLACK
6
CONTINUOUS
10
6.00906
20
-3.97264
11
6.00836
21
-3.97235
0
LINE
8
BLACK
6
CONTINUOUS
10
6.00836
20
-3.97235
11
6.00807
21
-3.97165
0
LINE
8
BLACK
6
CONTINUOUS
10
6.00807
20
-3.97165
11
6.00807
21
-3.89449
0
LINE
8
BLACK
6
CONTINUOUS
10
6.00807
20
-3.89449
11
6.00836
21
-3.89379
0
LINE
8
BLACK
6
CONTINUOUS
10
6.00836
20
-3.89379
11
6.00906
21
-3.8935
0
LINE
8
BLACK
6
CONTINUOUS
10
6.00906
20
-3.8935
11
6.15709
21
-3.8935
0
LINE
8
BLACK
6
CONTINUOUS
10
6.01004
20
-3.89547
11
6.01004
21
-3.97067
0
LINE
8
BLACK
6
CONTINUOUS
10
6.01004
20
-3.97067
11
6.1561
21
-3.97067
0
LINE
8
BLACK
6
CONTINUOUS
10
6.1561
20
-3.97067
11
6.1561
21
-3.89547
0
LINE
8
BLACK
6
CONTINUOUS
10
6.1561
20
-3.89547
11
6.01004
21
-3.89547
0
LINE
8
BLACK
6
CONTINUOUS
10
5.71496
20
-3.85925
11
5.71566
21
-3.85954
0
LINE
8
BLACK
6
CONTINUOUS
10
5.71566
20
-3.85954
11
5.71594
21
-3.86024
0
LINE
8
BLACK
6
CONTINUOUS
10
5.71594
20
-3.86024
11
5.71594
21
-3.93504
0
LINE
8
BLACK
6
CONTINUOUS
10
5.71594
20
-3.93504
11
5.71566
21
-3.93574
0
LINE
8
BLACK
6
CONTINUOUS
10
5.71566
20
-3.93574
11
5.71496
21
-3.93602
0
LINE
8
BLACK
6
CONTINUOUS
10
5.71496
20
-3.93602
11
5.56929
21
-3.93602
0
LINE
8
BLACK
6
CONTINUOUS
10
5.56929
20
-3.93602
11
5.5686
21
-3.93574
0
LINE
8
BLACK
6
CONTINUOUS
10
5.5686
20
-3.93574
11
5.56831
21
-3.93504
0
LINE
8
BLACK
6
CONTINUOUS
10
5.56831
20
-3.93504
11
5.56831
21
-3.93504
0
LINE
8
BLACK
6
CONTINUOUS
10
5.56831
20
-3.93504
11
5.56831
21
-3.86024
0
LINE
8
BLACK
6
CONTINUOUS
10
5.56831
20
-3.86024
11
5.5686
21
-3.85954
0
LINE
8
BLACK
6
CONTINUOUS
10
5.5686
20
-3.85954
11
5.56929
21
-3.85925
0
LINE
8
BLACK
6
CONTINUOUS
10
5.56929
20
-3.85925
11
5.71496
21
-3.85925
0
LINE
8
BLACK
6
CONTINUOUS
10
5.57028
20
-3.86122
11
5.57028
21
-3.93406
0
LINE
8
BLACK
6
CONTINUOUS
10
5.57028
20
-3.93406
11
5.71398
21
-3.93406
0
LINE
8
BLACK
6
CONTINUOUS
10
5.71398
20
-3.93406
11
5.71398
21
-3.86122
0
LINE
8
BLACK
6
CONTINUOUS
10
5.71398
20
-3.86122
11
5.57028
21
-3.86122
0
LINE
8
BLACK
6
CONTINUOUS
10
5.26732
20
-3.75571
11
5.26802
21
-3.756
0
LINE
8
BLACK
6
CONTINUOUS
10
5.26802
20
-3.756
11
5.26831
21
-3.75669
0
LINE
8
BLACK
6
CONTINUOUS
10
5.26831
20
-3.75669
11
5.26831
21
-3.90472
0
LINE
8
BLACK
6
CONTINUOUS
10
5.26831
20
-3.90472
11
5.26802
21
-3.90542
0
LINE
8
BLACK
6
CONTINUOUS
10
5.26802
20
-3.90542
11
5.26732
21
-3.90571
0
LINE
8
BLACK
6
CONTINUOUS
10
5.26732
20
-3.90571
11
5.19016
21
-3.90571
0
LINE
8
BLACK
6
CONTINUOUS
10
5.19016
20
-3.90571
11
5.18946
21
-3.90542
0
LINE
8
BLACK
6
CONTINUOUS
10
5.18946
20
-3.90542
11
5.18917
21
-3.90472
0
LINE
8
BLACK
6
CONTINUOUS
10
5.18917
20
-3.90472
11
5.18917
21
-3.75669
0
LINE
8
BLACK
6
CONTINUOUS
10
5.18917
20
-3.75669
11
5.18946
21
-3.756
0
LINE
8
BLACK
6
CONTINUOUS
10
5.18946
20
-3.756
11
5.19016
21
-3.75571
0
LINE
8
BLACK
6
CONTINUOUS
10
5.19016
20
-3.75571
11
5.26732
21
-3.75571
0
LINE
8
BLACK
6
CONTINUOUS
10
5.19114
20
-3.75768
11
5.19114
21
-3.90374
0
LINE
8
BLACK
6
CONTINUOUS
10
5.19114
20
-3.90374
11
5.26634
21
-3.90374
0
LINE
8
BLACK
6
CONTINUOUS
10
5.26634
20
-3.90374
11
5.26634
21
-3.75768
0
LINE
8
BLACK
6
CONTINUOUS
10
5.26634
20
-3.75768
11
5.19114
21
-3.75768
0
LINE
8
BLACK
6
CONTINUOUS
10
6.3185
20
-3.80295
11
6.3192
21
-3.80324
0
LINE
8
BLACK
6
CONTINUOUS
10
6.3192
20
-3.80324
11
6.31949
21
-3.80394
0
LINE
8
BLACK
6
CONTINUOUS
10
6.31949
20
-3.80394
11
6.31949
21
-3.8811
0
LINE
8
BLACK
6
CONTINUOUS
10
6.31949
20
-3.8811
11
6.3192
21
-3.8818
0
LINE
8
BLACK
6
CONTINUOUS
10
6.3192
20
-3.8818
11
6.3185
21
-3.88209
0
LINE
8
BLACK
6
CONTINUOUS
10
6.3185
20
-3.88209
11
6.17047
21
-3.88209
0
LINE
8
BLACK
6
CONTINUOUS
10
6.17047
20
-3.88209
11
6.16978
21
-3.8818
0
LINE
8
BLACK
6
CONTINUOUS
10
6.16978
20
-3.8818
11
6.16949
21
-3.8811
0
LINE
8
BLACK
6
CONTINUOUS
10
6.16949
20
-3.8811
11
6.16949
21
-3.80394
0
LINE
8
BLACK
6
CONTINUOUS
10
6.16949
20
-3.80394
11
6.16978
21
-3.80324
0
LINE
8
BLACK
6
CONTINUOUS
10
6.16978
20
-3.80324
11
6.17047
21
-3.80295
0
LINE
8
BLACK
6
CONTINUOUS
10
6.17047
20
-3.80295
11
6.3185
21
-3.80295
0
LINE
8
BLACK
6
CONTINUOUS
10
6.17146
20
-3.80492
11
6.17146
21
-3.88012
0
LINE
8
BLACK
6
CONTINUOUS
10
6.17146
20
-3.88012
11
6.31752
21
-3.88012
0
LINE
8
BLACK
6
CONTINUOUS
10
6.31752
20
-3.88012
11
6.31752
21
-3.80492
0
LINE
8
BLACK
6
CONTINUOUS
10
6.31752
20
-3.80492
11
6.17146
21
-3.80492
0
LINE
8
BLACK
6
CONTINUOUS
10
5.45236
20
-3.79114
11
5.45306
21
-3.79143
0
LINE
8
BLACK
6
CONTINUOUS
10
5.45306
20
-3.79143
11
5.45335
21
-3.79213
0
LINE
8
BLACK
6
CONTINUOUS
10
5.45335
20
-3.79213
11
5.45335
21
-3.86929
0
LINE
8
BLACK
6
CONTINUOUS
10
5.45335
20
-3.86929
11
5.45306
21
-3.86999
0
LINE
8
BLACK
6
CONTINUOUS
10
5.45306
20
-3.86999
11
5.45236
21
-3.87028
0
LINE
8
BLACK
6
CONTINUOUS
10
5.45236
20
-3.87028
11
5.30433
21
-3.87028
0
LINE
8
BLACK
6
CONTINUOUS
10
5.30433
20
-3.87028
11
5.30363
21
-3.86999
0
LINE
8
BLACK
6
CONTINUOUS
10
5.30363
20
-3.86999
11
5.30335
21
-3.86929
0
LINE
8
BLACK
6
CONTINUOUS
10
5.30335
20
-3.86929
11
5.30335
21
-3.79213
0
LINE
8
BLACK
6
CONTINUOUS
10
5.30335
20
-3.79213
11
5.30363
21
-3.79143
0
LINE
8
BLACK
6
CONTINUOUS
10
5.30363
20
-3.79143
11
5.30433
21
-3.79114
0
LINE
8
BLACK
6
CONTINUOUS
10
5.30433
20
-3.79114
11
5.45236
21
-3.79114
0
LINE
8
BLACK
6
CONTINUOUS
10
5.30531
20
-3.79311
11
5.30531
21
-3.86831
0
LINE
8
BLACK
6
CONTINUOUS
10
5.30531
20
-3.86831
11
5.45138
21
-3.86831
0
LINE
8
BLACK
6
CONTINUOUS
10
5.45138
20
-3.86831
11
5.45138
21
-3.79311
0
LINE
8
BLACK
6
CONTINUOUS
10
5.45138
20
-3.79311
11
5.30531
21
-3.79311
0
LINE
8
BLACK
6
CONTINUOUS
10
5.76811
20
-3.5502
11
5.76881
21
-3.55049
0
LINE
8
BLACK
6
CONTINUOUS
10
5.76881
20
-3.55049
11
5.76909
21
-3.55118
0
LINE
8
BLACK
6
CONTINUOUS
10
5.76909
20
-3.55118
11
5.76909
21
-3.84252
0
LINE
8
BLACK
6
CONTINUOUS
10
5.76909
20
-3.84252
11
5.76881
21
-3.84322
0
LINE
8
BLACK
6
CONTINUOUS
10
5.76881
20
-3.84322
11
5.76811
21
-3.8435
0
LINE
8
BLACK
6
CONTINUOUS
10
5.76811
20
-3.8435
11
5.55551
21
-3.8435
0
LINE
8
BLACK
6
CONTINUOUS
10
5.55551
20
-3.8435
11
5.55482
21
-3.84322
0
LINE
8
BLACK
6
CONTINUOUS
10
5.55482
20
-3.84322
11
5.55453
21
-3.84252
0
LINE
8
BLACK
6
CONTINUOUS
10
5.55453
20
-3.84252
11
5.55453
21
-3.55118
0
LINE
8
BLACK
6
CONTINUOUS
10
5.55453
20
-3.55118
11
5.55482
21
-3.55049
0
LINE
8
BLACK
6
CONTINUOUS
10
5.55482
20
-3.55049
11
5.55551
21
-3.5502
0
LINE
8
BLACK
6
CONTINUOUS
10
5.55551
20
-3.5502
11
5.76811
21
-3.5502
0
LINE
8
BLACK
6
CONTINUOUS
10
5.5565
20
-3.55217
11
5.5565
21
-3.84154
0
LINE
8
BLACK
6
CONTINUOUS
10
5.5565
20
-3.84154
11
5.76713
21
-3.84154
0
LINE
8
BLACK
6
CONTINUOUS
10
5.76713
20
-3.84154
11
5.76713
21
-3.55217
0
LINE
8
BLACK
6
CONTINUOUS
10
5.76713
20
-3.55217
11
5.5565
21
-3.55217
0
LINE
8
BLACK
6
CONTINUOUS
10
5.03616
20
-3.46737
11
5.05188
21
-3.4704
0
LINE
8
BLACK
6
CONTINUOUS
10
5.05188
20
-3.4704
11
5.06725
21
-3.47491
0
LINE
8
BLACK
6
CONTINUOUS
10
5.06725
20
-3.47491
11
5.08212
21
-3.48087
0
LINE
8
BLACK
6
CONTINUOUS
10
5.08212
20
-3.48087
11
5.09636
21
-3.4882
0
LINE
8
BLACK
6
CONTINUOUS
10
5.09636
20
-3.4882
11
5.10983
21
-3.49686
0
LINE
8
BLACK
6
CONTINUOUS
10
5.10983
20
-3.49686
11
5.12242
21
-3.50676
0
LINE
8
BLACK
6
CONTINUOUS
10
5.12242
20
-3.50676
11
5.13401
21
-3.51782
0
LINE
8
BLACK
6
CONTINUOUS
10
5.13401
20
-3.51782
11
5.1445
21
-3.52992
0
LINE
8
BLACK
6
CONTINUOUS
10
5.1445
20
-3.52992
11
5.15379
21
-3.54297
0
LINE
8
BLACK
6
CONTINUOUS
10
5.15379
20
-3.54297
11
5.1618
21
-3.55684
0
LINE
8
BLACK
6
CONTINUOUS
10
5.1618
20
-3.55684
11
5.16846
21
-3.57141
0
LINE
8
BLACK
6
CONTINUOUS
10
5.16846
20
-3.57141
11
5.17369
21
-3.58655
0
LINE
8
BLACK
6
CONTINUOUS
10
5.17369
20
-3.58655
11
5.17747
21
-3.60211
0
LINE
8
BLACK
6
CONTINUOUS
10
5.17747
20
-3.60211
11
5.17975
21
-3.61796
0
LINE
8
BLACK
6
CONTINUOUS
10
5.17975
20
-3.61796
11
5.18051
21
-3.63396
0
LINE
8
BLACK
6
CONTINUOUS
10
5.18051
20
-3.63396
11
5.17975
21
-3.64996
0
LINE
8
BLACK
6
CONTINUOUS
10
5.17975
20
-3.64996
11
5.17747
21
-3.66581
0
LINE
8
BLACK
6
CONTINUOUS
10
5.17747
20
-3.66581
11
5.17369
21
-3.68138
0
LINE
8
BLACK
6
CONTINUOUS
10
5.17369
20
-3.68138
11
5.16846
21
-3.69652
0
LINE
8
BLACK
6
CONTINUOUS
10
5.16846
20
-3.69652
11
5.1618
21
-3.71109
0
LINE
8
BLACK
6
CONTINUOUS
10
5.1618
20
-3.71109
11
5.15379
21
-3.72496
0
LINE
8
BLACK
6
CONTINUOUS
10
5.15379
20
-3.72496
11
5.1445
21
-3.738
0
LINE
8
BLACK
6
CONTINUOUS
10
5.1445
20
-3.738
11
5.13401
21
-3.75011
0
LINE
8
BLACK
6
CONTINUOUS
10
5.13401
20
-3.75011
11
5.12242
21
-3.76116
0
LINE
8
BLACK
6
CONTINUOUS
10
5.12242
20
-3.76116
11
5.10983
21
-3.77106
0
LINE
8
BLACK
6
CONTINUOUS
10
5.10983
20
-3.77106
11
5.09636
21
-3.77972
0
LINE
8
BLACK
6
CONTINUOUS
10
5.09636
20
-3.77972
11
5.08212
21
-3.78706
0
LINE
8
BLACK
6
CONTINUOUS
10
5.08212
20
-3.78706
11
5.06725
21
-3.79301
0
LINE
8
BLACK
6
CONTINUOUS
10
5.06725
20
-3.79301
11
5.05188
21
-3.79753
0
LINE
8
BLACK
6
CONTINUOUS
10
5.05188
20
-3.79753
11
5.03616
21
-3.80056
0
LINE
8
BLACK
6
CONTINUOUS
10
5.03616
20
-3.80056
11
5.02021
21
-3.80208
0
LINE
8
BLACK
6
CONTINUOUS
10
5.02021
20
-3.80208
11
5.0042
21
-3.80208
0
LINE
8
BLACK
6
CONTINUOUS
10
5.0042
20
-3.80208
11
4.98825
21
-3.80056
0
LINE
8
BLACK
6
CONTINUOUS
10
4.98825
20
-3.80056
11
4.97252
21
-3.79753
0
LINE
8
BLACK
6
CONTINUOUS
10
4.97252
20
-3.79753
11
4.95716
21
-3.79301
0
LINE
8
BLACK
6
CONTINUOUS
10
4.95716
20
-3.79301
11
4.94229
21
-3.78706
0
LINE
8
BLACK
6
CONTINUOUS
10
4.94229
20
-3.78706
11
4.92805
21
-3.77972
0
LINE
8
BLACK
6
CONTINUOUS
10
4.92805
20
-3.77972
11
4.91458
21
-3.77106
0
LINE
8
BLACK
6
CONTINUOUS
10
4.91458
20
-3.77106
11
4.90199
21
-3.76116
0
LINE
8
BLACK
6
CONTINUOUS
10
4.90199
20
-3.76116
11
4.8904
21
-3.75011
0
LINE
8
BLACK
6
CONTINUOUS
10
4.8904
20
-3.75011
11
4.87991
21
-3.738
0
LINE
8
BLACK
6
CONTINUOUS
10
4.87991
20
-3.738
11
4.87062
21
-3.72496
0
LINE
8
BLACK
6
CONTINUOUS
10
4.87062
20
-3.72496
11
4.86261
21
-3.71109
0
LINE
8
BLACK
6
CONTINUOUS
10
4.86261
20
-3.71109
11
4.85595
21
-3.69652
0
LINE
8
BLACK
6
CONTINUOUS
10
4.85595
20
-3.69652
11
4.85072
21
-3.68138
0
LINE
8
BLACK
6
CONTINUOUS
10
4.85072
20
-3.68138
11
4.84694
21
-3.66581
0
LINE
8
BLACK
6
CONTINUOUS
10
4.84694
20
-3.66581
11
4.84466
21
-3.64996
0
LINE
8
BLACK
6
CONTINUOUS
10
4.84466
20
-3.64996
11
4.8439
21
-3.63396
0
LINE
8
BLACK
6
CONTINUOUS
10
4.8439
20
-3.63396
11
4.84466
21
-3.61796
0
LINE
8
BLACK
6
CONTINUOUS
10
4.84466
20
-3.61796
11
4.84694
21
-3.60211
0
LINE
8
BLACK
6
CONTINUOUS
10
4.84694
20
-3.60211
11
4.85072
21
-3.58655
0
LINE
8
BLACK
6
CONTINUOUS
10
4.85072
20
-3.58655
11
4.85595
21
-3.57141
0
LINE
8
BLACK
6
CONTINUOUS
10
4.85595
20
-3.57141
11
4.86261
21
-3.55684
0
LINE
8
BLACK
6
CONTINUOUS
10
4.86261
20
-3.55684
11
4.87062
21
-3.54297
0
LINE
8
BLACK
6
CONTINUOUS
10
4.87062
20
-3.54297
11
4.87991
21
-3.52992
0
LINE
8
BLACK
6
CONTINUOUS
10
4.87991
20
-3.52992
11
4.8904
21
-3.51782
0
LINE
8
BLACK
6
CONTINUOUS
10
4.8904
20
-3.51782
11
4.90199
21
-3.50676
0
LINE
8
BLACK
6
CONTINUOUS
10
4.90199
20
-3.50676
11
4.91458
21
-3.49686
0
LINE
8
BLACK
6
CONTINUOUS
10
4.91458
20
-3.49686
11
4.92805
21
-3.4882
0
LINE
8
BLACK
6
CONTINUOUS
10
4.92805
20
-3.4882
11
4.94229
21
-3.48087
0
LINE
8
BLACK
6
CONTINUOUS
10
4.94229
20
-3.48087
11
4.95716
21
-3.47491
0
LINE
8
BLACK
6
CONTINUOUS
10
4.95716
20
-3.47491
11
4.97252
21
-3.4704
0
LINE
8
BLACK
6
CONTINUOUS
10
4.97252
20
-3.4704
11
4.98825
21
-3.46737
0
LINE
8
BLACK
6
CONTINUOUS
10
4.98825
20
-3.46737
11
5.0042
21
-3.46585
0
LINE
8
BLACK
6
CONTINUOUS
10
5.0042
20
-3.46585
11
5.02021
21
-3.46585
0
LINE
8
BLACK
6
CONTINUOUS
10
5.02021
20
-3.46585
11
5.03616
21
-3.46737
0
LINE
8
BLACK
6
CONTINUOUS
10
4.84643
20
-3.64979
11
4.84869
21
-3.66548
0
LINE
8
BLACK
6
CONTINUOUS
10
4.84869
20
-3.66548
11
4.85242
21
-3.68088
0
LINE
8
BLACK
6
CONTINUOUS
10
4.85242
20
-3.68088
11
4.85761
21
-3.69585
0
LINE
8
BLACK
6
CONTINUOUS
10
4.85761
20
-3.69585
11
4.86419
21
-3.71027
0
LINE
8
BLACK
6
CONTINUOUS
10
4.86419
20
-3.71027
11
4.87211
21
-3.72399
0
LINE
8
BLACK
6
CONTINUOUS
10
4.87211
20
-3.72399
11
4.88131
21
-3.7369
0
LINE
8
BLACK
6
CONTINUOUS
10
4.88131
20
-3.7369
11
4.89168
21
-3.74888
0
LINE
8
BLACK
6
CONTINUOUS
10
4.89168
20
-3.74888
11
4.90315
21
-3.75982
0
LINE
8
BLACK
6
CONTINUOUS
10
4.90315
20
-3.75982
11
4.91561
21
-3.76961
0
LINE
8
BLACK
6
CONTINUOUS
10
4.91561
20
-3.76961
11
4.92894
21
-3.77818
0
LINE
8
BLACK
6
CONTINUOUS
10
4.92894
20
-3.77818
11
4.94303
21
-3.78544
0
LINE
8
BLACK
6
CONTINUOUS
10
4.94303
20
-3.78544
11
4.95774
21
-3.79133
0
LINE
8
BLACK
6
CONTINUOUS
10
4.95774
20
-3.79133
11
4.97294
21
-3.7958
0
LINE
8
BLACK
6
CONTINUOUS
10
4.97294
20
-3.7958
11
4.98851
21
-3.79879
0
LINE
8
BLACK
6
CONTINUOUS
10
4.98851
20
-3.79879
11
5.00428
21
-3.8003
0
LINE
8
BLACK
6
CONTINUOUS
10
5.00428
20
-3.8003
11
5.02013
21
-3.8003
0
LINE
8
BLACK
6
CONTINUOUS
10
5.02013
20
-3.8003
11
5.0359
21
-3.79879
0
LINE
8
BLACK
6
CONTINUOUS
10
5.0359
20
-3.79879
11
5.05147
21
-3.7958
0
LINE
8
BLACK
6
CONTINUOUS
10
5.05147
20
-3.7958
11
5.06667
21
-3.79133
0
LINE
8
BLACK
6
CONTINUOUS
10
5.06667
20
-3.79133
11
5.08138
21
-3.78544
0
LINE
8
BLACK
6
CONTINUOUS
10
5.08138
20
-3.78544
11
5.09547
21
-3.77818
0
LINE
8
BLACK
6
CONTINUOUS
10
5.09547
20
-3.77818
11
5.1088
21
-3.76961
0
LINE
8
BLACK
6
CONTINUOUS
10
5.1088
20
-3.76961
11
5.12126
21
-3.75982
0
LINE
8
BLACK
6
CONTINUOUS
10
5.12126
20
-3.75982
11
5.13273
21
-3.74888
0
LINE
8
BLACK
6
CONTINUOUS
10
5.13273
20
-3.74888
11
5.1431
21
-3.7369
0
LINE
8
BLACK
6
CONTINUOUS
10
5.1431
20
-3.7369
11
5.1523
21
-3.72399
0
LINE
8
BLACK
6
CONTINUOUS
10
5.1523
20
-3.72399
11
5.16022
21
-3.71027
0
LINE
8
BLACK
6
CONTINUOUS
10
5.16022
20
-3.71027
11
5.1668
21
-3.69585
0
LINE
8
BLACK
6
CONTINUOUS
10
5.1668
20
-3.69585
11
5.17199
21
-3.68088
0
LINE
8
BLACK
6
CONTINUOUS
10
5.17199
20
-3.68088
11
5.17572
21
-3.66548
0
LINE
8
BLACK
6
CONTINUOUS
10
5.17572
20
-3.66548
11
5.17798
21
-3.64979
0
LINE
8
BLACK
6
CONTINUOUS
10
5.17798
20
-3.64979
11
5.17873
21
-3.63396
0
LINE
8
BLACK
6
CONTINUOUS
10
5.17873
20
-3.63396
11
5.17798
21
-3.61813
0
LINE
8
BLACK
6
CONTINUOUS
10
5.17798
20
-3.61813
11
5.17572
21
-3.60245
0
LINE
8
BLACK
6
CONTINUOUS
10
5.17572
20
-3.60245
11
5.17199
21
-3.58705
0
LINE
8
BLACK
6
CONTINUOUS
10
5.17199
20
-3.58705
11
5.1668
21
-3.57207
0
LINE
8
BLACK
6
CONTINUOUS
10
5.1668
20
-3.57207
11
5.16022
21
-3.55766
0
LINE
8
BLACK
6
CONTINUOUS
10
5.16022
20
-3.55766
11
5.1523
21
-3.54393
0
LINE
8
BLACK
6
CONTINUOUS
10
5.1523
20
-3.54393
11
5.1431
21
-3.53102
0
LINE
8
BLACK
6
CONTINUOUS
10
5.1431
20
-3.53102
11
5.13273
21
-3.51905
0
LINE
8
BLACK
6
CONTINUOUS
10
5.13273
20
-3.51905
11
5.12126
21
-3.50811
0
LINE
8
BLACK
6
CONTINUOUS
10
5.12126
20
-3.50811
11
5.1088
21
-3.49831
0
LINE
8
BLACK
6
CONTINUOUS
10
5.1088
20
-3.49831
11
5.09547
21
-3.48975
0
LINE
8
BLACK
6
CONTINUOUS
10
5.09547
20
-3.48975
11
5.08138
21
-3.48248
0
LINE
8
BLACK
6
CONTINUOUS
10
5.08138
20
-3.48248
11
5.06667
21
-3.47659
0
LINE
8
BLACK
6
CONTINUOUS
10
5.06667
20
-3.47659
11
5.05147
21
-3.47213
0
LINE
8
BLACK
6
CONTINUOUS
10
5.05147
20
-3.47213
11
5.0359
21
-3.46913
0
LINE
8
BLACK
6
CONTINUOUS
10
5.0359
20
-3.46913
11
5.02013
21
-3.46762
0
LINE
8
BLACK
6
CONTINUOUS
10
5.02013
20
-3.46762
11
5.00428
21
-3.46762
0
LINE
8
BLACK
6
CONTINUOUS
10
5.00428
20
-3.46762
11
4.98851
21
-3.46913
0
LINE
8
BLACK
6
CONTINUOUS
10
4.98851
20
-3.46913
11
4.97294
21
-3.47213
0
LINE
8
BLACK
6
CONTINUOUS
10
4.97294
20
-3.47213
11
4.95774
21
-3.47659
0
LINE
8
BLACK
6
CONTINUOUS
10
4.95774
20
-3.47659
11
4.94303
21
-3.48248
0
LINE
8
BLACK
6
CONTINUOUS
10
4.94303
20
-3.48248
11
4.92894
21
-3.48975
0
LINE
8
BLACK
6
CONTINUOUS
10
4.92894
20
-3.48975
11
4.91561
21
-3.49831
0
LINE
8
BLACK
6
CONTINUOUS
10
4.91561
20
-3.49831
11
4.90315
21
-3.50811
0
LINE
8
BLACK
6
CONTINUOUS
10
4.90315
20
-3.50811
11
4.89168
21
-3.51905
0
LINE
8
BLACK
6
CONTINUOUS
10
4.89168
20
-3.51905
11
4.88131
21
-3.53102
0
LINE
8
BLACK
6
CONTINUOUS
10
4.88131
20
-3.53102
11
4.87211
21
-3.54393
0
LINE
8
BLACK
6
CONTINUOUS
10
4.87211
20
-3.54393
11
4.86419
21
-3.55766
0
LINE
8
BLACK
6
CONTINUOUS
10
4.86419
20
-3.55766
11
4.85761
21
-3.57207
0
LINE
8
BLACK
6
CONTINUOUS
10
4.85761
20
-3.57207
11
4.85242
21
-3.58705
0
LINE
8
BLACK
6
CONTINUOUS
10
4.85242
20
-3.58705
11
4.84869
21
-3.60245
0
LINE
8
BLACK
6
CONTINUOUS
10
4.84869
20
-3.60245
11
4.84643
21
-3.61813
0
LINE
8
BLACK
6
CONTINUOUS
10
4.84643
20
-3.61813
11
4.84568
21
-3.63396
0
LINE
8
BLACK
6
CONTINUOUS
10
4.84568
20
-3.63396
11
4.84643
21
-3.64979
0
LINE
8
BLACK
6
CONTINUOUS
10
6.19528
20
-3.51378
11
6.19597
21
-3.51407
0
LINE
8
BLACK
6
CONTINUOUS
10
6.19597
20
-3.51407
11
6.19626
21
-3.51476
0
LINE
8
BLACK
6
CONTINUOUS
10
6.19626
20
-3.51476
11
6.19626
21
-3.70571
0
LINE
8
BLACK
6
CONTINUOUS
10
6.19626
20
-3.70571
11
6.33504
21
-3.70571
0
LINE
8
BLACK
6
CONTINUOUS
10
6.33504
20
-3.70571
11
6.33574
21
-3.706
0
LINE
8
BLACK
6
CONTINUOUS
10
6.33574
20
-3.706
11
6.33602
21
-3.70669
0
LINE
8
BLACK
6
CONTINUOUS
10
6.33602
20
-3.70669
11
6.33602
21
-3.79724
0
LINE
8
BLACK
6
CONTINUOUS
10
6.33602
20
-3.79724
11
6.33574
21
-3.79794
0
LINE
8
BLACK
6
CONTINUOUS
10
6.33574
20
-3.79794
11
6.33504
21
-3.79823
0
LINE
8
BLACK
6
CONTINUOUS
10
6.33504
20
-3.79823
11
6.16181
21
-3.79823
0
LINE
8
BLACK
6
CONTINUOUS
10
6.16181
20
-3.79823
11
6.16112
21
-3.79794
0
LINE
8
BLACK
6
CONTINUOUS
10
6.16112
20
-3.79794
11
6.16083
21
-3.79724
0
LINE
8
BLACK
6
CONTINUOUS
10
6.16083
20
-3.79724
11
6.16083
21
-3.70669
0
LINE
8
BLACK
6
CONTINUOUS
10
6.16083
20
-3.70669
11
6.01811
21
-3.70669
0
LINE
8
BLACK
6
CONTINUOUS
10
6.01811
20
-3.70669
11
6.01741
21
-3.7064
0
LINE
8
BLACK
6
CONTINUOUS
10
6.01741
20
-3.7064
11
6.01713
21
-3.70571
0
LINE
8
BLACK
6
CONTINUOUS
10
6.01713
20
-3.70571
11
6.01713
21
-3.51476
0
LINE
8
BLACK
6
CONTINUOUS
10
6.01713
20
-3.51476
11
6.01741
21
-3.51407
0
LINE
8
BLACK
6
CONTINUOUS
10
6.01741
20
-3.51407
11
6.01811
21
-3.51378
0
LINE
8
BLACK
6
CONTINUOUS
10
6.01811
20
-3.51378
11
6.19528
21
-3.51378
0
LINE
8
BLACK
6
CONTINUOUS
10
6.1628
20
-3.70768
11
6.1628
21
-3.79626
0
LINE
8
BLACK
6
CONTINUOUS
10
6.1628
20
-3.79626
11
6.33406
21
-3.79626
0
LINE
8
BLACK
6
CONTINUOUS
10
6.33406
20
-3.79626
11
6.33406
21
-3.70768
0
LINE
8
BLACK
6
CONTINUOUS
10
6.33406
20
-3.70768
11
6.1628
21
-3.70768
0
LINE
8
BLACK
6
CONTINUOUS
10
6.01909
20
-3.51575
11
6.01909
21
-3.70472
0
LINE
8
BLACK
6
CONTINUOUS
10
6.01909
20
-3.70472
11
6.19429
21
-3.70472
0
LINE
8
BLACK
6
CONTINUOUS
10
6.19429
20
-3.70472
11
6.19429
21
-3.51575
0
LINE
8
BLACK
6
CONTINUOUS
10
6.19429
20
-3.51575
11
6.01909
21
-3.51575
0
LINE
8
BLACK
6
CONTINUOUS
10
6.47874
20
-3.6375
11
6.47944
21
-3.63779
0
LINE
8
BLACK
6
CONTINUOUS
10
6.47944
20
-3.63779
11
6.47972
21
-3.63848
0
LINE
8
BLACK
6
CONTINUOUS
10
6.47972
20
-3.63848
11
6.47972
21
-3.78967
0
LINE
8
BLACK
6
CONTINUOUS
10
6.47972
20
-3.78967
11
6.47944
21
-3.79036
0
LINE
8
BLACK
6
CONTINUOUS
10
6.47944
20
-3.79036
11
6.47874
21
-3.79065
0
LINE
8
BLACK
6
CONTINUOUS
10
6.47874
20
-3.79065
11
6.34488
21
-3.79065
0
LINE
8
BLACK
6
CONTINUOUS
10
6.34488
20
-3.79065
11
6.34419
21
-3.79036
0
LINE
8
BLACK
6
CONTINUOUS
10
6.34419
20
-3.79036
11
6.3439
21
-3.78967
0
LINE
8
BLACK
6
CONTINUOUS
10
6.3439
20
-3.78967
11
6.3439
21
-3.63848
0
LINE
8
BLACK
6
CONTINUOUS
10
6.3439
20
-3.63848
11
6.34419
21
-3.63779
0
LINE
8
BLACK
6
CONTINUOUS
10
6.34419
20
-3.63779
11
6.34488
21
-3.6375
0
LINE
8
BLACK
6
CONTINUOUS
10
6.34488
20
-3.6375
11
6.47874
21
-3.6375
0
LINE
8
BLACK
6
CONTINUOUS
10
6.34587
20
-3.63947
11
6.34587
21
-3.78868
0
LINE
8
BLACK
6
CONTINUOUS
10
6.34587
20
-3.78868
11
6.47776
21
-3.78868
0
LINE
8
BLACK
6
CONTINUOUS
10
6.47776
20
-3.78868
11
6.47776
21
-3.63947
0
LINE
8
BLACK
6
CONTINUOUS
10
6.47776
20
-3.63947
11
6.34587
21
-3.63947
0
LINE
8
BLACK
6
CONTINUOUS
10
5.49449
20
-3.64272
11
5.49518
21
-3.643
0
LINE
8
BLACK
6
CONTINUOUS
10
5.49518
20
-3.643
11
5.49547
21
-3.6437
0
LINE
8
BLACK
6
CONTINUOUS
10
5.49547
20
-3.6437
11
5.49547
21
-3.78937
0
LINE
8
BLACK
6
CONTINUOUS
10
5.49547
20
-3.78937
11
5.49518
21
-3.79007
0
LINE
8
BLACK
6
CONTINUOUS
10
5.49518
20
-3.79007
11
5.49449
21
-3.79035
0
LINE
8
BLACK
6
CONTINUOUS
10
5.49449
20
-3.79035
11
5.41969
21
-3.79035
0
LINE
8
BLACK
6
CONTINUOUS
10
5.41969
20
-3.79035
11
5.41899
21
-3.79007
0
LINE
8
BLACK
6
CONTINUOUS
10
5.41899
20
-3.79007
11
5.4187
21
-3.78937
0
LINE
8
BLACK
6
CONTINUOUS
10
5.4187
20
-3.78937
11
5.4187
21
-3.6437
0
LINE
8
BLACK
6
CONTINUOUS
10
5.4187
20
-3.6437
11
5.41899
21
-3.643
0
LINE
8
BLACK
6
CONTINUOUS
10
5.41899
20
-3.643
11
5.41969
21
-3.64272
0
LINE
8
BLACK
6
CONTINUOUS
10
5.41969
20
-3.64272
11
5.49449
21
-3.64272
0
LINE
8
BLACK
6
CONTINUOUS
10
5.42067
20
-3.64469
11
5.42067
21
-3.78839
0
LINE
8
BLACK
6
CONTINUOUS
10
5.42067
20
-3.78839
11
5.4935
21
-3.78839
0
LINE
8
BLACK
6
CONTINUOUS
10
5.4935
20
-3.78839
11
5.4935
21
-3.64469
0
LINE
8
BLACK
6
CONTINUOUS
10
5.4935
20
-3.64469
11
5.42067
21
-3.64469
0
LINE
8
BLACK
6
CONTINUOUS
10
5.26614
20
-3.60728
11
5.26684
21
-3.60757
0
LINE
8
BLACK
6
CONTINUOUS
10
5.26684
20
-3.60757
11
5.26713
21
-3.60827
0
LINE
8
BLACK
6
CONTINUOUS
10
5.26713
20
-3.60827
11
5.26713
21
-3.75394
0
LINE
8
BLACK
6
CONTINUOUS
10
5.26713
20
-3.75394
11
5.26684
21
-3.75463
0
LINE
8
BLACK
6
CONTINUOUS
10
5.26684
20
-3.75463
11
5.26614
21
-3.75492
0
LINE
8
BLACK
6
CONTINUOUS
10
5.26614
20
-3.75492
11
5.19134
21
-3.75492
0
LINE
8
BLACK
6
CONTINUOUS
10
5.19134
20
-3.75492
11
5.19064
21
-3.75463
0
LINE
8
BLACK
6
CONTINUOUS
10
5.19064
20
-3.75463
11
5.19035
21
-3.75394
0
LINE
8
BLACK
6
CONTINUOUS
10
5.19035
20
-3.75394
11
5.19035
21
-3.60827
0
LINE
8
BLACK
6
CONTINUOUS
10
5.19035
20
-3.60827
11
5.19064
21
-3.60757
0
LINE
8
BLACK
6
CONTINUOUS
10
5.19064
20
-3.60757
11
5.19134
21
-3.60728
0
LINE
8
BLACK
6
CONTINUOUS
10
5.19134
20
-3.60728
11
5.26614
21
-3.60728
0
LINE
8
BLACK
6
CONTINUOUS
10
5.19232
20
-3.60925
11
5.19232
21
-3.75295
0
LINE
8
BLACK
6
CONTINUOUS
10
5.19232
20
-3.75295
11
5.26516
21
-3.75295
0
LINE
8
BLACK
6
CONTINUOUS
10
5.26516
20
-3.75295
11
5.26516
21
-3.60925
0
LINE
8
BLACK
6
CONTINUOUS
10
5.26516
20
-3.60925
11
5.19232
21
-3.60925
0
LINE
8
BLACK
6
CONTINUOUS
10
6.01417
20
-3.51378
11
6.01487
21
-3.51407
0
LINE
8
BLACK
6
CONTINUOUS
10
6.01487
20
-3.51407
11
6.01516
21
-3.51476
0
LINE
8
BLACK
6
CONTINUOUS
10
6.01516
20
-3.51476
11
6.01516
21
-3.70571
0
LINE
8
BLACK
6
CONTINUOUS
10
6.01516
20
-3.70571
11
6.01487
21
-3.7064
0
LINE
8
BLACK
6
CONTINUOUS
10
6.01487
20
-3.7064
11
6.01417
21
-3.70669
0
LINE
8
BLACK
6
CONTINUOUS
10
6.01417
20
-3.70669
11
5.83701
21
-3.70669
0
LINE
8
BLACK
6
CONTINUOUS
10
5.83701
20
-3.70669
11
5.83631
21
-3.7064
0
LINE
8
BLACK
6
CONTINUOUS
10
5.83631
20
-3.7064
11
5.83602
21
-3.70571
0
LINE
8
BLACK
6
CONTINUOUS
10
5.83602
20
-3.70571
11
5.83602
21
-3.51476
0
LINE
8
BLACK
6
CONTINUOUS
10
5.83602
20
-3.51476
11
5.83631
21
-3.51407
0
LINE
8
BLACK
6
CONTINUOUS
10
5.83631
20
-3.51407
11
5.83701
21
-3.51378
0
LINE
8
BLACK
6
CONTINUOUS
10
5.83701
20
-3.51378
11
6.01417
21
-3.51378
0
LINE
8
BLACK
6
CONTINUOUS
10
5.83799
20
-3.51575
11
5.83799
21
-3.70472
0
LINE
8
BLACK
6
CONTINUOUS
10
5.83799
20
-3.70472
11
6.01319
21
-3.70472
0
LINE
8
BLACK
6
CONTINUOUS
10
6.01319
20
-3.70472
11
6.01319
21
-3.51575
0
LINE
8
BLACK
6
CONTINUOUS
10
6.01319
20
-3.51575
11
5.83799
21
-3.51575
0
LINE
8
BLACK
6
CONTINUOUS
10
6.29094
20
-3.53917
11
6.29164
21
-3.53946
0
LINE
8
BLACK
6
CONTINUOUS
10
6.29164
20
-3.53946
11
6.29193
21
-3.54016
0
LINE
8
BLACK
6
CONTINUOUS
10
6.29193
20
-3.54016
11
6.29193
21
-3.68819
0
LINE
8
BLACK
6
CONTINUOUS
10
6.29193
20
-3.68819
11
6.29164
21
-3.68888
0
LINE
8
BLACK
6
CONTINUOUS
10
6.29164
20
-3.68888
11
6.29094
21
-3.68917
0
LINE
8
BLACK
6
CONTINUOUS
10
6.29094
20
-3.68917
11
6.21378
21
-3.68917
0
LINE
8
BLACK
6
CONTINUOUS
10
6.21378
20
-3.68917
11
6.21308
21
-3.68888
0
LINE
8
BLACK
6
CONTINUOUS
10
6.21308
20
-3.68888
11
6.2128
21
-3.68819
0
LINE
8
BLACK
6
CONTINUOUS
10
6.2128
20
-3.68819
11
6.2128
21
-3.54016
0
LINE
8
BLACK
6
CONTINUOUS
10
6.2128
20
-3.54016
11
6.21308
21
-3.53946
0
LINE
8
BLACK
6
CONTINUOUS
10
6.21308
20
-3.53946
11
6.21378
21
-3.53917
0
LINE
8
BLACK
6
CONTINUOUS
10
6.21378
20
-3.53917
11
6.29094
21
-3.53917
0
LINE
8
BLACK
6
CONTINUOUS
10
6.21476
20
-3.54114
11
6.21476
21
-3.6872
0
LINE
8
BLACK
6
CONTINUOUS
10
6.21476
20
-3.6872
11
6.28996
21
-3.6872
0
LINE
8
BLACK
6
CONTINUOUS
10
6.28996
20
-3.6872
11
6.28996
21
-3.54114
0
LINE
8
BLACK
6
CONTINUOUS
10
6.28996
20
-3.54114
11
6.21476
21
-3.54114
0
LINE
8
BLACK
6
CONTINUOUS
10
6.48071
20
-3.48248
11
6.4814
21
-3.48277
0
LINE
8
BLACK
6
CONTINUOUS
10
6.4814
20
-3.48277
11
6.48169
21
-3.48346
0
LINE
8
BLACK
6
CONTINUOUS
10
6.48169
20
-3.48346
11
6.48169
21
-3.63465
0
LINE
8
BLACK
6
CONTINUOUS
10
6.48169
20
-3.63465
11
6.4814
21
-3.63534
0
LINE
8
BLACK
6
CONTINUOUS
10
6.4814
20
-3.63534
11
6.48071
21
-3.63563
0
LINE
8
BLACK
6
CONTINUOUS
10
6.48071
20
-3.63563
11
6.34685
21
-3.63563
0
LINE
8
BLACK
6
CONTINUOUS
10
6.34685
20
-3.63563
11
6.34615
21
-3.63534
0
LINE
8
BLACK
6
CONTINUOUS
10
6.34615
20
-3.63534
11
6.34587
21
-3.63465
0
LINE
8
BLACK
6
CONTINUOUS
10
6.34587
20
-3.63465
11
6.34587
21
-3.48346
0
LINE
8
BLACK
6
CONTINUOUS
10
6.34587
20
-3.48346
11
6.34615
21
-3.48277
0
LINE
8
BLACK
6
CONTINUOUS
10
6.34615
20
-3.48277
11
6.34685
21
-3.48248
0
LINE
8
BLACK
6
CONTINUOUS
10
6.34685
20
-3.48248
11
6.48071
21
-3.48248
0
LINE
8
BLACK
6
CONTINUOUS
10
6.34783
20
-3.48445
11
6.34783
21
-3.63366
0
LINE
8
BLACK
6
CONTINUOUS
10
6.34783
20
-3.63366
11
6.47972
21
-3.63366
0
LINE
8
BLACK
6
CONTINUOUS
10
6.47972
20
-3.63366
11
6.47972
21
-3.48445
0
LINE
8
BLACK
6
CONTINUOUS
10
6.47972
20
-3.48445
11
6.34783
21
-3.48445
0
LINE
8
BLACK
6
CONTINUOUS
10
5.8311
20
-3.4498
11
5.8318
21
-3.45009
0
LINE
8
BLACK
6
CONTINUOUS
10
5.8318
20
-3.45009
11
5.83209
21
-3.45079
0
LINE
8
BLACK
6
CONTINUOUS
10
5.83209
20
-3.45079
11
5.83209
21
-3.54134
0
LINE
8
BLACK
6
CONTINUOUS
10
5.83209
20
-3.54134
11
5.8318
21
-3.54203
0
LINE
8
BLACK
6
CONTINUOUS
10
5.8318
20
-3.54203
11
5.8311
21
-3.54232
0
LINE
8
BLACK
6
CONTINUOUS
10
5.8311
20
-3.54232
11
5.65787
21
-3.54232
0
LINE
8
BLACK
6
CONTINUOUS
10
5.65787
20
-3.54232
11
5.65718
21
-3.54203
0
LINE
8
BLACK
6
CONTINUOUS
10
5.65718
20
-3.54203
11
5.65689
21
-3.54134
0
LINE
8
BLACK
6
CONTINUOUS
10
5.65689
20
-3.54134
11
5.65689
21
-3.45079
0
LINE
8
BLACK
6
CONTINUOUS
10
5.65689
20
-3.45079
11
5.65718
21
-3.45009
0
LINE
8
BLACK
6
CONTINUOUS
10
5.65718
20
-3.45009
11
5.65787
21
-3.4498
0
LINE
8
BLACK
6
CONTINUOUS
10
5.65787
20
-3.4498
11
5.8311
21
-3.4498
0
LINE
8
BLACK
6
CONTINUOUS
10
5.65886
20
-3.45177
11
5.65886
21
-3.54035
0
LINE
8
BLACK
6
CONTINUOUS
10
5.65886
20
-3.54035
11
5.83012
21
-3.54035
0
LINE
8
BLACK
6
CONTINUOUS
10
5.83012
20
-3.54035
11
5.83012
21
-3.45177
0
LINE
8
BLACK
6
CONTINUOUS
10
5.83012
20
-3.45177
11
5.65886
21
-3.45177
0
LINE
8
BLACK
6
CONTINUOUS
10
5.96299
20
-3.35925
11
5.96369
21
-3.35954
0
LINE
8
BLACK
6
CONTINUOUS
10
5.96369
20
-3.35954
11
5.96398
21
-3.36024
0
LINE
8
BLACK
6
CONTINUOUS
10
5.96398
20
-3.36024
11
5.96398
21
-3.50591
0
LINE
8
BLACK
6
CONTINUOUS
10
5.96398
20
-3.50591
11
5.96369
21
-3.5066
0
LINE
8
BLACK
6
CONTINUOUS
10
5.96369
20
-3.5066
11
5.96299
21
-3.50689
0
LINE
8
BLACK
6
CONTINUOUS
10
5.96299
20
-3.50689
11
5.88819
21
-3.50689
0
LINE
8
BLACK
6
CONTINUOUS
10
5.88819
20
-3.50689
11
5.88749
21
-3.5066
0
LINE
8
BLACK
6
CONTINUOUS
10
5.88749
20
-3.5066
11
5.8872
21
-3.50591
0
LINE
8
BLACK
6
CONTINUOUS
10
5.8872
20
-3.50591
11
5.8872
21
-3.36024
0
LINE
8
BLACK
6
CONTINUOUS
10
5.8872
20
-3.36024
11
5.88749
21
-3.35954
0
LINE
8
BLACK
6
CONTINUOUS
10
5.88749
20
-3.35954
11
5.88819
21
-3.35925
0
LINE
8
BLACK
6
CONTINUOUS
10
5.88819
20
-3.35925
11
5.96299
21
-3.35925
0
LINE
8
BLACK
6
CONTINUOUS
10
5.88917
20
-3.36122
11
5.88917
21
-3.50492
0
LINE
8
BLACK
6
CONTINUOUS
10
5.88917
20
-3.50492
11
5.96201
21
-3.50492
0
LINE
8
BLACK
6
CONTINUOUS
10
5.96201
20
-3.50492
11
5.96201
21
-3.36122
0
LINE
8
BLACK
6
CONTINUOUS
10
5.96201
20
-3.36122
11
5.88917
21
-3.36122
0
LINE
8
BLACK
6
CONTINUOUS
10
6.18858
20
-3.40531
11
6.18928
21
-3.4056
0
LINE
8
BLACK
6
CONTINUOUS
10
6.18928
20
-3.4056
11
6.18957
21
-3.4063
0
LINE
8
BLACK
6
CONTINUOUS
10
6.18957
20
-3.4063
11
6.18957
21
-3.48346
0
LINE
8
BLACK
6
CONTINUOUS
10
6.18957
20
-3.48346
11
6.18928
21
-3.48416
0
LINE
8
BLACK
6
CONTINUOUS
10
6.18928
20
-3.48416
11
6.18858
21
-3.48445
0
LINE
8
BLACK
6
CONTINUOUS
10
6.18858
20
-3.48445
11
6.04055
21
-3.48445
0
LINE
8
BLACK
6
CONTINUOUS
10
6.04055
20
-3.48445
11
6.03986
21
-3.48416
0
LINE
8
BLACK
6
CONTINUOUS
10
6.03986
20
-3.48416
11
6.03957
21
-3.48346
0
LINE
8
BLACK
6
CONTINUOUS
10
6.03957
20
-3.48346
11
6.03957
21
-3.4063
0
LINE
8
BLACK
6
CONTINUOUS
10
6.03957
20
-3.4063
11
6.03986
21
-3.4056
0
LINE
8
BLACK
6
CONTINUOUS
10
6.03986
20
-3.4056
11
6.04055
21
-3.40531
0
LINE
8
BLACK
6
CONTINUOUS
10
6.04055
20
-3.40531
11
6.18858
21
-3.40531
0
LINE
8
BLACK
6
CONTINUOUS
10
6.04154
20
-3.40728
11
6.04154
21
-3.48248
0
LINE
8
BLACK
6
CONTINUOUS
10
6.04154
20
-3.48248
11
6.1876
21
-3.48248
0
LINE
8
BLACK
6
CONTINUOUS
10
6.1876
20
-3.48248
11
6.1876
21
-3.40728
0
LINE
8
BLACK
6
CONTINUOUS
10
6.1876
20
-3.40728
11
6.04154
21
-3.40728
0
LINE
8
BLACK
6
CONTINUOUS
10
6.3436
20
-3.40531
11
6.3443
21
-3.4056
0
LINE
8
BLACK
6
CONTINUOUS
10
6.3443
20
-3.4056
11
6.34459
21
-3.4063
0
LINE
8
BLACK
6
CONTINUOUS
10
6.34459
20
-3.4063
11
6.34459
21
-3.48346
0
LINE
8
BLACK
6
CONTINUOUS
10
6.34459
20
-3.48346
11
6.3443
21
-3.48416
0
LINE
8
BLACK
6
CONTINUOUS
10
6.3443
20
-3.48416
11
6.3436
21
-3.48445
0
LINE
8
BLACK
6
CONTINUOUS
10
6.3436
20
-3.48445
11
6.19557
21
-3.48445
0
LINE
8
BLACK
6
CONTINUOUS
10
6.19557
20
-3.48445
11
6.19487
21
-3.48416
0
LINE
8
BLACK
6
CONTINUOUS
10
6.19487
20
-3.48416
11
6.19459
21
-3.48346
0
LINE
8
BLACK
6
CONTINUOUS
10
6.19459
20
-3.48346
11
6.19459
21
-3.4063
0
LINE
8
BLACK
6
CONTINUOUS
10
6.19459
20
-3.4063
11
6.19487
21
-3.4056
0
LINE
8
BLACK
6
CONTINUOUS
10
6.19487
20
-3.4056
11
6.19557
21
-3.40531
0
LINE
8
BLACK
6
CONTINUOUS
10
6.19557
20
-3.40531
11
6.3436
21
-3.40531
0
LINE
8
BLACK
6
CONTINUOUS
10
6.19656
20
-3.40728
11
6.19656
21
-3.48248
0
LINE
8
BLACK
6
CONTINUOUS
10
6.19656
20
-3.48248
11
6.34262
21
-3.48248
0
LINE
8
BLACK
6
CONTINUOUS
10
6.34262
20
-3.48248
11
6.34262
21
-3.40728
0
LINE
8
BLACK
6
CONTINUOUS
10
6.34262
20
-3.40728
11
6.19656
21
-3.40728
0
LINE
8
BLACK
6
CONTINUOUS
10
5.8311
20
-3.35531
11
5.8318
21
-3.3556
0
LINE
8
BLACK
6
CONTINUOUS
10
5.8318
20
-3.3556
11
5.83209
21
-3.3563
0
LINE
8
BLACK
6
CONTINUOUS
10
5.83209
20
-3.3563
11
5.83209
21
-3.44685
0
LINE
8
BLACK
6
CONTINUOUS
10
5.83209
20
-3.44685
11
5.8318
21
-3.44755
0
LINE
8
BLACK
6
CONTINUOUS
10
5.8318
20
-3.44755
11
5.8311
21
-3.44783
0
LINE
8
BLACK
6
CONTINUOUS
10
5.8311
20
-3.44783
11
5.65787
21
-3.44783
0
LINE
8
BLACK
6
CONTINUOUS
10
5.65787
20
-3.44783
11
5.65718
21
-3.44755
0
LINE
8
BLACK
6
CONTINUOUS
10
5.65718
20
-3.44755
11
5.65689
21
-3.44685
0
LINE
8
BLACK
6
CONTINUOUS
10
5.65689
20
-3.44685
11
5.65689
21
-3.3563
0
LINE
8
BLACK
6
CONTINUOUS
10
5.65689
20
-3.3563
11
5.65718
21
-3.3556
0
LINE
8
BLACK
6
CONTINUOUS
10
5.65718
20
-3.3556
11
5.65787
21
-3.35531
0
LINE
8
BLACK
6
CONTINUOUS
10
5.65787
20
-3.35531
11
5.8311
21
-3.35531
0
LINE
8
BLACK
6
CONTINUOUS
10
5.65886
20
-3.35728
11
5.65886
21
-3.44587
0
LINE
8
BLACK
6
CONTINUOUS
10
5.65886
20
-3.44587
11
5.83012
21
-3.44587
0
LINE
8
BLACK
6
CONTINUOUS
10
5.83012
20
-3.44587
11
5.83012
21
-3.35728
0
LINE
8
BLACK
6
CONTINUOUS
10
5.83012
20
-3.35728
11
5.65886
21
-3.35728
0
LINE
8
BLACK
6
CONTINUOUS
10
6.04173
20
-3.25295
11
6.04243
21
-3.25324
0
LINE
8
BLACK
6
CONTINUOUS
10
6.04243
20
-3.25324
11
6.04272
21
-3.25394
0
LINE
8
BLACK
6
CONTINUOUS
10
6.04272
20
-3.25394
11
6.04272
21
-3.39961
0
LINE
8
BLACK
6
CONTINUOUS
10
6.04272
20
-3.39961
11
6.04243
21
-3.4003
0
LINE
8
BLACK
6
CONTINUOUS
10
6.04243
20
-3.4003
11
6.04173
21
-3.40059
0
LINE
8
BLACK
6
CONTINUOUS
10
6.04173
20
-3.40059
11
5.96693
21
-3.40059
0
LINE
8
BLACK
6
CONTINUOUS
10
5.96693
20
-3.40059
11
5.96623
21
-3.4003
0
LINE
8
BLACK
6
CONTINUOUS
10
5.96623
20
-3.4003
11
5.96594
21
-3.39961
0
LINE
8
BLACK
6
CONTINUOUS
10
5.96594
20
-3.39961
11
5.96594
21
-3.25394
0
LINE
8
BLACK
6
CONTINUOUS
10
5.96594
20
-3.25394
11
5.96623
21
-3.25324
0
LINE
8
BLACK
6
CONTINUOUS
10
5.96623
20
-3.25324
11
5.96693
21
-3.25295
0
LINE
8
BLACK
6
CONTINUOUS
10
5.96693
20
-3.25295
11
6.04173
21
-3.25295
0
LINE
8
BLACK
6
CONTINUOUS
10
5.96791
20
-3.25492
11
5.96791
21
-3.39862
0
LINE
8
BLACK
6
CONTINUOUS
10
5.96791
20
-3.39862
11
6.04075
21
-3.39862
0
LINE
8
BLACK
6
CONTINUOUS
10
6.04075
20
-3.39862
11
6.04075
21
-3.25492
0
LINE
8
BLACK
6
CONTINUOUS
10
6.04075
20
-3.25492
11
5.96791
21
-3.25492
0
LINE
8
BLACK
6
CONTINUOUS
10
5.72677
20
-2.82185
11
5.72747
21
-2.82214
0
LINE
8
BLACK
6
CONTINUOUS
10
5.72747
20
-2.82214
11
5.72776
21
-2.82283
0
LINE
8
BLACK
6
CONTINUOUS
10
5.72776
20
-2.82283
11
5.72776
21
-3.31496
0
LINE
8
BLACK
6
CONTINUOUS
10
5.72776
20
-3.31496
11
5.72747
21
-3.31566
0
LINE
8
BLACK
6
CONTINUOUS
10
5.72747
20
-3.31566
11
5.72677
21
-3.31594
0
LINE
8
BLACK
6
CONTINUOUS
10
5.72677
20
-3.31594
11
5.51024
21
-3.31594
0
LINE
8
BLACK
6
CONTINUOUS
10
5.51024
20
-3.31594
11
5.50954
21
-3.31566
0
LINE
8
BLACK
6
CONTINUOUS
10
5.50954
20
-3.31566
11
5.50925
21
-3.31496
0
LINE
8
BLACK
6
CONTINUOUS
10
5.50925
20
-3.31496
11
5.50925
21
-2.82283
0
LINE
8
BLACK
6
CONTINUOUS
10
5.50925
20
-2.82283
11
5.50954
21
-2.82214
0
LINE
8
BLACK
6
CONTINUOUS
10
5.50954
20
-2.82214
11
5.51024
21
-2.82185
0
LINE
8
BLACK
6
CONTINUOUS
10
5.51024
20
-2.82185
11
5.72677
21
-2.82185
0
LINE
8
BLACK
6
CONTINUOUS
10
5.51122
20
-2.82382
11
5.51122
21
-3.31398
0
LINE
8
BLACK
6
CONTINUOUS
10
5.51122
20
-3.31398
11
5.72579
21
-3.31398
0
LINE
8
BLACK
6
CONTINUOUS
10
5.72579
20
-3.31398
11
5.72579
21
-2.82382
0
LINE
8
BLACK
6
CONTINUOUS
10
5.72579
20
-2.82382
11
5.51122
21
-2.82382
0
LINE
8
BLACK
6
CONTINUOUS
10
5.36181
20
-2.62579
11
5.36251
21
-2.62608
0
LINE
8
BLACK
6
CONTINUOUS
10
5.36251
20
-2.62608
11
5.3628
21
-2.62677
0
LINE
8
BLACK
6
CONTINUOUS
10
5.3628
20
-2.62677
11
5.3628
21
-2.70394
0
LINE
8
BLACK
6
CONTINUOUS
10
5.3628
20
-2.70394
11
5.36251
21
-2.70463
0
LINE
8
BLACK
6
CONTINUOUS
10
5.36251
20
-2.70463
11
5.36181
21
-2.70492
0
LINE
8
BLACK
6
CONTINUOUS
10
5.36181
20
-2.70492
11
5.21378
21
-2.70492
0
LINE
8
BLACK
6
CONTINUOUS
10
5.21378
20
-2.70492
11
5.21308
21
-2.70463
0
LINE
8
BLACK
6
CONTINUOUS
10
5.21308
20
-2.70463
11
5.2128
21
-2.70394
0
LINE
8
BLACK
6
CONTINUOUS
10
5.2128
20
-2.70394
11
5.2128
21
-2.62677
0
LINE
8
BLACK
6
CONTINUOUS
10
5.2128
20
-2.62677
11
5.21308
21
-2.62608
0
LINE
8
BLACK
6
CONTINUOUS
10
5.21308
20
-2.62608
11
5.21378
21
-2.62579
0
LINE
8
BLACK
6
CONTINUOUS
10
5.21378
20
-2.62579
11
5.36181
21
-2.62579
0
LINE
8
BLACK
6
CONTINUOUS
10
5.21476
20
-2.62776
11
5.21476
21
-2.70295
0
LINE
8
BLACK
6
CONTINUOUS
10
5.21476
20
-2.70295
11
5.36083
21
-2.70295
0
LINE
8
BLACK
6
CONTINUOUS
10
5.36083
20
-2.70295
11
5.36083
21
-2.62776
0
LINE
8
BLACK
6
CONTINUOUS
10
5.36083
20
-2.62776
11
5.21476
21
-2.62776
0
LINE
8
BLACK
6
CONTINUOUS
10
5.36063
20
-2.54035
11
5.36133
21
-2.54064
0
LINE
8
BLACK
6
CONTINUOUS
10
5.36133
20
-2.54064
11
5.36161
21
-2.54134
0
LINE
8
BLACK
6
CONTINUOUS
10
5.36161
20
-2.54134
11
5.36161
21
-2.61614
0
LINE
8
BLACK
6
CONTINUOUS
10
5.36161
20
-2.61614
11
5.36133
21
-2.61684
0
LINE
8
BLACK
6
CONTINUOUS
10
5.36133
20
-2.61684
11
5.36063
21
-2.61713
0
LINE
8
BLACK
6
CONTINUOUS
10
5.36063
20
-2.61713
11
5.21496
21
-2.61713
0
LINE
8
BLACK
6
CONTINUOUS
10
5.21496
20
-2.61713
11
5.21426
21
-2.61684
0
LINE
8
BLACK
6
CONTINUOUS
10
5.21426
20
-2.61684
11
5.21398
21
-2.61614
0
LINE
8
BLACK
6
CONTINUOUS
10
5.21398
20
-2.61614
11
5.21398
21
-2.61614
0
LINE
8
BLACK
6
CONTINUOUS
10
5.21398
20
-2.61614
11
5.21398
21
-2.54134
0
LINE
8
BLACK
6
CONTINUOUS
10
5.21398
20
-2.54134
11
5.21426
21
-2.54064
0
LINE
8
BLACK
6
CONTINUOUS
10
5.21426
20
-2.54064
11
5.21496
21
-2.54035
0
LINE
8
BLACK
6
CONTINUOUS
10
5.21496
20
-2.54035
11
5.36063
21
-2.54035
0
LINE
8
BLACK
6
CONTINUOUS
10
5.21594
20
-2.54232
11
5.21594
21
-2.61516
0
LINE
8
BLACK
6
CONTINUOUS
10
5.21594
20
-2.61516
11
5.35965
21
-2.61516
0
LINE
8
BLACK
6
CONTINUOUS
10
5.35965
20
-2.61516
11
5.35965
21
-2.54232
0
LINE
8
BLACK
6
CONTINUOUS
10
5.35965
20
-2.54232
11
5.21594
21
-2.54232
0
LINE
8
BLACK
6
CONTINUOUS
10
5.36654
20
-2.0935
11
5.36723
21
-2.09379
0
LINE
8
BLACK
6
CONTINUOUS
10
5.36723
20
-2.09379
11
5.36752
21
-2.09449
0
LINE
8
BLACK
6
CONTINUOUS
10
5.36752
20
-2.09449
11
5.36752
21
-2.33661
0
LINE
8
BLACK
6
CONTINUOUS
10
5.36752
20
-2.33661
11
5.36723
21
-2.33731
0
LINE
8
BLACK
6
CONTINUOUS
10
5.36723
20
-2.33731
11
5.36654
21
-2.3376
0
LINE
8
BLACK
6
CONTINUOUS
10
5.36654
20
-2.3376
11
5.2248
21
-2.3376
0
LINE
8
BLACK
6
CONTINUOUS
10
5.2248
20
-2.3376
11
5.22411
21
-2.33731
0
LINE
8
BLACK
6
CONTINUOUS
10
5.22411
20
-2.33731
11
5.22382
21
-2.33661
0
LINE
8
BLACK
6
CONTINUOUS
10
5.22382
20
-2.33661
11
5.22382
21
-2.33661
0
LINE
8
BLACK
6
CONTINUOUS
10
5.22382
20
-2.33661
11
5.22382
21
-2.09449
0
LINE
8
BLACK
6
CONTINUOUS
10
5.22382
20
-2.09449
11
5.22411
21
-2.09379
0
LINE
8
BLACK
6
CONTINUOUS
10
5.22411
20
-2.09379
11
5.2248
21
-2.0935
0
LINE
8
BLACK
6
CONTINUOUS
10
5.2248
20
-2.0935
11
5.36654
21
-2.0935
0
LINE
8
BLACK
6
CONTINUOUS
10
5.22579
20
-2.09547
11
5.22579
21
-2.33563
0
LINE
8
BLACK
6
CONTINUOUS
10
5.22579
20
-2.33563
11
5.36555
21
-2.33563
0
LINE
8
BLACK
6
CONTINUOUS
10
5.36555
20
-2.33563
11
5.36555
21
-2.09547
0
LINE
8
BLACK
6
CONTINUOUS
10
5.36555
20
-2.09547
11
5.22579
21
-2.09547
  0
ENDSEC
  0
EOF
