  0
SECTION
  2
HEADER
  9
$ANGBASE
  50
0.0
  9
$ANGDIR
  70
1
  9
$MEASUREMENT
  70
0
  0
ENDSEC
  0
SECTION
  2
TABLES
  0
TABLE
  2
LTYPE
  70
4
  0
LTYPE
  5
40F
  2
CONTINUOUS
  70
0
  3
Solid line
  72
65
  73
0
  40
0.0
  0
LTYPE
  5
410
  2
DASHDOT
 70
0
  3
Dash Dot ____ _ ____ _
 72
65
 73
4
 40
2.0
 49
1.25
 49
-0.25
 49
0.25
 49
-0.25
  0
LTYPE
  5
411
  2
DASHED
 70
0
  3
Dashed __ __ __ __ __
 72
65
 73
2
 40
0.75
 49
0.5
 49
-0.25
  0
LTYPE
  5
43B
  2
DOTTED
 70
0
  3
Dotted .  .  .  .
 72
65
 73
2
 40
0.2
 49
0.0
 49
-0.2
  0
ENDTAB
  0
TABLE
  2
STYLE
  70
4
  0
STYLE
  2
KICAD
  70
0
  40
0
  41
1
  42
1
  50
0
  71
0
  3
isocp.shx
  0
STYLE
  2
KICADB
  70
0
  40
0
  41
1
  42
1
  50
0
  71
0
  3
isocp.shx
  0
STYLE
  2
KICADI
  70
0
  40
0
  41
1
  42
1
  50
15
  71
0
  3
isocp.shx
  0
STYLE
  2
KICADBI
  70
0
  40
0
  41
1
  42
1
  50
15
  71
0
  3
isocp.shx
  0
ENDTAB
  0
TABLE
  2
LAYER
  70
1
  0
LAYER
  2
BLACK
  70
0
  62
7
  6
CONTINUOUS
  0
ENDTAB
  0
ENDSEC
  0
SECTION
  2
ENTITIES
0
LINE
8
BLACK
6
CONTINUOUS
10
5.6725
20
-3.22454
11
5.67417
21
-3.22523
0
LINE
8
BLACK
6
CONTINUOUS
10
5.67417
20
-3.22523
11
5.67487
21
-3.2269
0
LINE
8
BLACK
6
CONTINUOUS
10
5.67487
20
-3.2269
11
5.67487
21
-3.2619
0
LINE
8
BLACK
6
CONTINUOUS
10
5.67487
20
-3.2619
11
5.67417
21
-3.26357
0
LINE
8
BLACK
6
CONTINUOUS
10
5.67417
20
-3.26357
11
5.6725
21
-3.26426
0
LINE
8
BLACK
6
CONTINUOUS
10
5.6725
20
-3.26426
11
5.5625
21
-3.26426
0
LINE
8
BLACK
6
CONTINUOUS
10
5.5625
20
-3.26426
11
5.56083
21
-3.26357
0
LINE
8
BLACK
6
CONTINUOUS
10
5.56083
20
-3.26357
11
5.56014
21
-3.2619
0
LINE
8
BLACK
6
CONTINUOUS
10
5.56014
20
-3.2619
11
5.56014
21
-3.2269
0
LINE
8
BLACK
6
CONTINUOUS
10
5.56014
20
-3.2269
11
5.56083
21
-3.22523
0
LINE
8
BLACK
6
CONTINUOUS
10
5.56083
20
-3.22523
11
5.5625
21
-3.22454
0
LINE
8
BLACK
6
CONTINUOUS
10
5.5625
20
-3.22454
11
5.6725
21
-3.22454
0
LINE
8
BLACK
6
CONTINUOUS
10
5.56487
20
-3.22926
11
5.56487
21
-3.25954
0
LINE
8
BLACK
6
CONTINUOUS
10
5.56487
20
-3.25954
11
5.67014
21
-3.25954
0
LINE
8
BLACK
6
CONTINUOUS
10
5.67014
20
-3.25954
11
5.67014
21
-3.22926
0
LINE
8
BLACK
6
CONTINUOUS
10
5.67014
20
-3.22926
11
5.56487
21
-3.22926
0
LINE
8
BLACK
6
CONTINUOUS
10
5.6725
20
-3.04954
11
5.67417
21
-3.05023
0
LINE
8
BLACK
6
CONTINUOUS
10
5.67417
20
-3.05023
11
5.67487
21
-3.0519
0
LINE
8
BLACK
6
CONTINUOUS
10
5.67487
20
-3.0519
11
5.67487
21
-3.0869
0
LINE
8
BLACK
6
CONTINUOUS
10
5.67487
20
-3.0869
11
5.67417
21
-3.08857
0
LINE
8
BLACK
6
CONTINUOUS
10
5.67417
20
-3.08857
11
5.6725
21
-3.08926
0
LINE
8
BLACK
6
CONTINUOUS
10
5.6725
20
-3.08926
11
5.5625
21
-3.08926
0
LINE
8
BLACK
6
CONTINUOUS
10
5.5625
20
-3.08926
11
5.56083
21
-3.08857
0
LINE
8
BLACK
6
CONTINUOUS
10
5.56083
20
-3.08857
11
5.56014
21
-3.0869
0
LINE
8
BLACK
6
CONTINUOUS
10
5.56014
20
-3.0869
11
5.56014
21
-3.0519
0
LINE
8
BLACK
6
CONTINUOUS
10
5.56014
20
-3.0519
11
5.56083
21
-3.05023
0
LINE
8
BLACK
6
CONTINUOUS
10
5.56083
20
-3.05023
11
5.5625
21
-3.04954
0
LINE
8
BLACK
6
CONTINUOUS
10
5.5625
20
-3.04954
11
5.6725
21
-3.04954
0
LINE
8
BLACK
6
CONTINUOUS
10
5.56487
20
-3.05426
11
5.56487
21
-3.08454
0
LINE
8
BLACK
6
CONTINUOUS
10
5.56487
20
-3.08454
11
5.67014
21
-3.08454
0
LINE
8
BLACK
6
CONTINUOUS
10
5.67014
20
-3.08454
11
5.67014
21
-3.05426
0
LINE
8
BLACK
6
CONTINUOUS
10
5.67014
20
-3.05426
11
5.56487
21
-3.05426
0
LINE
8
BLACK
6
CONTINUOUS
10
5.67333
20
-2.87388
11
5.67416
21
-2.87421
0
LINE
8
BLACK
6
CONTINUOUS
10
5.67416
20
-2.87421
11
5.67416
21
-2.87422
0
LINE
8
BLACK
6
CONTINUOUS
10
5.67416
20
-2.87422
11
5.67417
21
-2.87423
0
LINE
8
BLACK
6
CONTINUOUS
10
5.67417
20
-2.87423
11
5.67452
21
-2.87506
0
LINE
8
BLACK
6
CONTINUOUS
10
5.67452
20
-2.87506
11
5.67487
21
-2.87588
0
LINE
8
BLACK
6
CONTINUOUS
10
5.67487
20
-2.87588
11
5.67486
21
-2.87589
0
LINE
8
BLACK
6
CONTINUOUS
10
5.67486
20
-2.87589
11
5.67487
21
-2.8759
0
LINE
8
BLACK
6
CONTINUOUS
10
5.67487
20
-2.8759
11
5.67487
21
-2.9109
0
LINE
8
BLACK
6
CONTINUOUS
10
5.67487
20
-2.9109
11
5.67417
21
-2.91257
0
LINE
8
BLACK
6
CONTINUOUS
10
5.67417
20
-2.91257
11
5.6725
21
-2.91326
0
LINE
8
BLACK
6
CONTINUOUS
10
5.6725
20
-2.91326
11
5.5625
21
-2.91326
0
LINE
8
BLACK
6
CONTINUOUS
10
5.5625
20
-2.91326
11
5.56083
21
-2.91257
0
LINE
8
BLACK
6
CONTINUOUS
10
5.56083
20
-2.91257
11
5.56014
21
-2.9109
0
LINE
8
BLACK
6
CONTINUOUS
10
5.56014
20
-2.9109
11
5.56014
21
-2.9109
0
LINE
8
BLACK
6
CONTINUOUS
10
5.56014
20
-2.9109
11
5.56014
21
-2.8769
0
LINE
8
BLACK
6
CONTINUOUS
10
5.56014
20
-2.8769
11
5.56048
21
-2.87607
0
LINE
8
BLACK
6
CONTINUOUS
10
5.56048
20
-2.87607
11
5.56082
21
-2.87524
0
LINE
8
BLACK
6
CONTINUOUS
10
5.56082
20
-2.87524
11
5.56083
21
-2.87524
0
LINE
8
BLACK
6
CONTINUOUS
10
5.56083
20
-2.87524
11
5.56083
21
-2.87523
0
LINE
8
BLACK
6
CONTINUOUS
10
5.56083
20
-2.87523
11
5.56166
21
-2.87489
0
LINE
8
BLACK
6
CONTINUOUS
10
5.56166
20
-2.87489
11
5.56248
21
-2.87454
0
LINE
8
BLACK
6
CONTINUOUS
10
5.56248
20
-2.87454
11
5.67248
21
-2.87354
0
LINE
8
BLACK
6
CONTINUOUS
10
5.67248
20
-2.87354
11
5.67249
21
-2.87354
0
LINE
8
BLACK
6
CONTINUOUS
10
5.67249
20
-2.87354
11
5.6725
21
-2.87354
0
LINE
8
BLACK
6
CONTINUOUS
10
5.6725
20
-2.87354
11
5.67333
21
-2.87388
0
LINE
8
BLACK
6
CONTINUOUS
10
5.56487
20
-2.87924
11
5.56487
21
-2.90854
0
LINE
8
BLACK
6
CONTINUOUS
10
5.56487
20
-2.90854
11
5.67014
21
-2.90854
0
LINE
8
BLACK
6
CONTINUOUS
10
5.67014
20
-2.90854
11
5.67014
21
-2.87828
0
LINE
8
BLACK
6
CONTINUOUS
10
5.67014
20
-2.87828
11
5.56487
21
-2.87924
  0
ENDSEC
  0
EOF
