  0
SECTION
  2
HEADER
  9
$ANGBASE
  50
0.0
  9
$ANGDIR
  70
1
  9
$MEASUREMENT
  70
0
  0
ENDSEC
  0
SECTION
  2
TABLES
  0
TABLE
  2
LTYPE
  70
4
  0
LTYPE
  5
40F
  2
CONTINUOUS
  70
0
  3
Solid line
  72
65
  73
0
  40
0.0
  0
LTYPE
  5
410
  2
DASHDOT
 70
0
  3
Dash Dot ____ _ ____ _
 72
65
 73
4
 40
2.0
 49
1.25
 49
-0.25
 49
0.25
 49
-0.25
  0
LTYPE
  5
411
  2
DASHED
 70
0
  3
Dashed __ __ __ __ __
 72
65
 73
2
 40
0.75
 49
0.5
 49
-0.25
  0
LTYPE
  5
43B
  2
DOTTED
 70
0
  3
Dotted .  .  .  .
 72
65
 73
2
 40
0.2
 49
0.0
 49
-0.2
  0
ENDTAB
  0
TABLE
  2
STYLE
  70
4
  0
STYLE
  2
KICAD
  70
0
  40
0
  41
1
  42
1
  50
0
  71
0
  3
isocp.shx
  0
STYLE
  2
KICADB
  70
0
  40
0
  41
1
  42
1
  50
0
  71
0
  3
isocp.shx
  0
STYLE
  2
KICADI
  70
0
  40
0
  41
1
  42
1
  50
15
  71
0
  3
isocp.shx
  0
STYLE
  2
KICADBI
  70
0
  40
0
  41
1
  42
1
  50
15
  71
0
  3
isocp.shx
  0
ENDTAB
  0
TABLE
  2
LAYER
  70
1
  0
LAYER
  2
BLACK
  70
0
  62
7
  6
CONTINUOUS
  0
ENDTAB
  0
ENDSEC
  0
SECTION
  2
ENTITIES
0
LINE
8
BLACK
6
CONTINUOUS
10
5.98251
20
-4.25272
11
5.9857
21
-4.25485
0
LINE
8
BLACK
6
CONTINUOUS
10
5.9857
20
-4.25485
11
5.98783
21
-4.25804
0
LINE
8
BLACK
6
CONTINUOUS
10
5.98783
20
-4.25804
11
5.98858
21
-4.26181
0
LINE
8
BLACK
6
CONTINUOUS
10
5.98858
20
-4.26181
11
5.98858
21
-4.29724
0
LINE
8
BLACK
6
CONTINUOUS
10
5.98858
20
-4.29724
11
5.98783
21
-4.30101
0
LINE
8
BLACK
6
CONTINUOUS
10
5.98783
20
-4.30101
11
5.9857
21
-4.3042
0
LINE
8
BLACK
6
CONTINUOUS
10
5.9857
20
-4.3042
11
5.98251
21
-4.30634
0
LINE
8
BLACK
6
CONTINUOUS
10
5.98251
20
-4.30634
11
5.97874
21
-4.30709
0
LINE
8
BLACK
6
CONTINUOUS
10
5.97874
20
-4.30709
11
5.95118
21
-4.30709
0
LINE
8
BLACK
6
CONTINUOUS
10
5.95118
20
-4.30709
11
5.94741
21
-4.30634
0
LINE
8
BLACK
6
CONTINUOUS
10
5.94741
20
-4.30634
11
5.94422
21
-4.3042
0
LINE
8
BLACK
6
CONTINUOUS
10
5.94422
20
-4.3042
11
5.94209
21
-4.30101
0
LINE
8
BLACK
6
CONTINUOUS
10
5.94209
20
-4.30101
11
5.94134
21
-4.29724
0
LINE
8
BLACK
6
CONTINUOUS
10
5.94134
20
-4.29724
11
5.94134
21
-4.26181
0
LINE
8
BLACK
6
CONTINUOUS
10
5.94134
20
-4.26181
11
5.94209
21
-4.25804
0
LINE
8
BLACK
6
CONTINUOUS
10
5.94209
20
-4.25804
11
5.94422
21
-4.25485
0
LINE
8
BLACK
6
CONTINUOUS
10
5.94422
20
-4.25485
11
5.94741
21
-4.25272
0
LINE
8
BLACK
6
CONTINUOUS
10
5.94741
20
-4.25272
11
5.95118
21
-4.25197
0
LINE
8
BLACK
6
CONTINUOUS
10
5.95118
20
-4.25197
11
5.97874
21
-4.25197
0
LINE
8
BLACK
6
CONTINUOUS
10
5.97874
20
-4.25197
11
5.98251
21
-4.25272
0
LINE
8
BLACK
6
CONTINUOUS
10
6.06125
20
-4.25272
11
6.06444
21
-4.25485
0
LINE
8
BLACK
6
CONTINUOUS
10
6.06444
20
-4.25485
11
6.06657
21
-4.25804
0
LINE
8
BLACK
6
CONTINUOUS
10
6.06657
20
-4.25804
11
6.06732
21
-4.26181
0
LINE
8
BLACK
6
CONTINUOUS
10
6.06732
20
-4.26181
11
6.06732
21
-4.29724
0
LINE
8
BLACK
6
CONTINUOUS
10
6.06732
20
-4.29724
11
6.06657
21
-4.30101
0
LINE
8
BLACK
6
CONTINUOUS
10
6.06657
20
-4.30101
11
6.06444
21
-4.3042
0
LINE
8
BLACK
6
CONTINUOUS
10
6.06444
20
-4.3042
11
6.06125
21
-4.30634
0
LINE
8
BLACK
6
CONTINUOUS
10
6.06125
20
-4.30634
11
6.05748
21
-4.30709
0
LINE
8
BLACK
6
CONTINUOUS
10
6.05748
20
-4.30709
11
6.02992
21
-4.30709
0
LINE
8
BLACK
6
CONTINUOUS
10
6.02992
20
-4.30709
11
6.02615
21
-4.30634
0
LINE
8
BLACK
6
CONTINUOUS
10
6.02615
20
-4.30634
11
6.02296
21
-4.3042
0
LINE
8
BLACK
6
CONTINUOUS
10
6.02296
20
-4.3042
11
6.02083
21
-4.30101
0
LINE
8
BLACK
6
CONTINUOUS
10
6.02083
20
-4.30101
11
6.02008
21
-4.29724
0
LINE
8
BLACK
6
CONTINUOUS
10
6.02008
20
-4.29724
11
6.02008
21
-4.26181
0
LINE
8
BLACK
6
CONTINUOUS
10
6.02008
20
-4.26181
11
6.02083
21
-4.25804
0
LINE
8
BLACK
6
CONTINUOUS
10
6.02083
20
-4.25804
11
6.02296
21
-4.25485
0
LINE
8
BLACK
6
CONTINUOUS
10
6.02296
20
-4.25485
11
6.02615
21
-4.25272
0
LINE
8
BLACK
6
CONTINUOUS
10
6.02615
20
-4.25272
11
6.02992
21
-4.25197
0
LINE
8
BLACK
6
CONTINUOUS
10
6.02992
20
-4.25197
11
6.05748
21
-4.25197
0
LINE
8
BLACK
6
CONTINUOUS
10
6.05748
20
-4.25197
11
6.06125
21
-4.25272
0
LINE
8
BLACK
6
CONTINUOUS
10
5.14786
20
-4.18185
11
5.15105
21
-4.18399
0
LINE
8
BLACK
6
CONTINUOUS
10
5.15105
20
-4.18399
11
5.15319
21
-4.18718
0
LINE
8
BLACK
6
CONTINUOUS
10
5.15319
20
-4.18718
11
5.15394
21
-4.19094
0
LINE
8
BLACK
6
CONTINUOUS
10
5.15394
20
-4.19094
11
5.15394
21
-4.22638
0
LINE
8
BLACK
6
CONTINUOUS
10
5.15394
20
-4.22638
11
5.15319
21
-4.23014
0
LINE
8
BLACK
6
CONTINUOUS
10
5.15319
20
-4.23014
11
5.15105
21
-4.23334
0
LINE
8
BLACK
6
CONTINUOUS
10
5.15105
20
-4.23334
11
5.14786
21
-4.23547
0
LINE
8
BLACK
6
CONTINUOUS
10
5.14786
20
-4.23547
11
5.14409
21
-4.23622
0
LINE
8
BLACK
6
CONTINUOUS
10
5.14409
20
-4.23622
11
5.11654
21
-4.23622
0
LINE
8
BLACK
6
CONTINUOUS
10
5.11654
20
-4.23622
11
5.11277
21
-4.23547
0
LINE
8
BLACK
6
CONTINUOUS
10
5.11277
20
-4.23547
11
5.10958
21
-4.23334
0
LINE
8
BLACK
6
CONTINUOUS
10
5.10958
20
-4.23334
11
5.10744
21
-4.23014
0
LINE
8
BLACK
6
CONTINUOUS
10
5.10744
20
-4.23014
11
5.10669
21
-4.22638
0
LINE
8
BLACK
6
CONTINUOUS
10
5.10669
20
-4.22638
11
5.10669
21
-4.19094
0
LINE
8
BLACK
6
CONTINUOUS
10
5.10669
20
-4.19094
11
5.10744
21
-4.18718
0
LINE
8
BLACK
6
CONTINUOUS
10
5.10744
20
-4.18718
11
5.10958
21
-4.18399
0
LINE
8
BLACK
6
CONTINUOUS
10
5.10958
20
-4.18399
11
5.11277
21
-4.18185
0
LINE
8
BLACK
6
CONTINUOUS
10
5.11277
20
-4.18185
11
5.11654
21
-4.1811
0
LINE
8
BLACK
6
CONTINUOUS
10
5.11654
20
-4.1811
11
5.14409
21
-4.1811
0
LINE
8
BLACK
6
CONTINUOUS
10
5.14409
20
-4.1811
11
5.14786
21
-4.18185
0
LINE
8
BLACK
6
CONTINUOUS
10
5.2266
20
-4.18185
11
5.22979
21
-4.18399
0
LINE
8
BLACK
6
CONTINUOUS
10
5.22979
20
-4.18399
11
5.23193
21
-4.18718
0
LINE
8
BLACK
6
CONTINUOUS
10
5.23193
20
-4.18718
11
5.23268
21
-4.19094
0
LINE
8
BLACK
6
CONTINUOUS
10
5.23268
20
-4.19094
11
5.23268
21
-4.22638
0
LINE
8
BLACK
6
CONTINUOUS
10
5.23268
20
-4.22638
11
5.23193
21
-4.23014
0
LINE
8
BLACK
6
CONTINUOUS
10
5.23193
20
-4.23014
11
5.22979
21
-4.23334
0
LINE
8
BLACK
6
CONTINUOUS
10
5.22979
20
-4.23334
11
5.2266
21
-4.23547
0
LINE
8
BLACK
6
CONTINUOUS
10
5.2266
20
-4.23547
11
5.22283
21
-4.23622
0
LINE
8
BLACK
6
CONTINUOUS
10
5.22283
20
-4.23622
11
5.19528
21
-4.23622
0
LINE
8
BLACK
6
CONTINUOUS
10
5.19528
20
-4.23622
11
5.19151
21
-4.23547
0
LINE
8
BLACK
6
CONTINUOUS
10
5.19151
20
-4.23547
11
5.18832
21
-4.23334
0
LINE
8
BLACK
6
CONTINUOUS
10
5.18832
20
-4.23334
11
5.18618
21
-4.23014
0
LINE
8
BLACK
6
CONTINUOUS
10
5.18618
20
-4.23014
11
5.18543
21
-4.22638
0
LINE
8
BLACK
6
CONTINUOUS
10
5.18543
20
-4.22638
11
5.18543
21
-4.19094
0
LINE
8
BLACK
6
CONTINUOUS
10
5.18543
20
-4.19094
11
5.18618
21
-4.18718
0
LINE
8
BLACK
6
CONTINUOUS
10
5.18618
20
-4.18718
11
5.18832
21
-4.18399
0
LINE
8
BLACK
6
CONTINUOUS
10
5.18832
20
-4.18399
11
5.19151
21
-4.18185
0
LINE
8
BLACK
6
CONTINUOUS
10
5.19151
20
-4.18185
11
5.19528
21
-4.1811
0
LINE
8
BLACK
6
CONTINUOUS
10
5.19528
20
-4.1811
11
5.22283
21
-4.1811
0
LINE
8
BLACK
6
CONTINUOUS
10
5.22283
20
-4.1811
11
5.2266
21
-4.18185
0
LINE
8
BLACK
6
CONTINUOUS
10
5.3014
20
-4.18185
11
5.3046
21
-4.18399
0
LINE
8
BLACK
6
CONTINUOUS
10
5.3046
20
-4.18399
11
5.30673
21
-4.18718
0
LINE
8
BLACK
6
CONTINUOUS
10
5.30673
20
-4.18718
11
5.30748
21
-4.19094
0
LINE
8
BLACK
6
CONTINUOUS
10
5.30748
20
-4.19094
11
5.30748
21
-4.22638
0
LINE
8
BLACK
6
CONTINUOUS
10
5.30748
20
-4.22638
11
5.30673
21
-4.23014
0
LINE
8
BLACK
6
CONTINUOUS
10
5.30673
20
-4.23014
11
5.3046
21
-4.23334
0
LINE
8
BLACK
6
CONTINUOUS
10
5.3046
20
-4.23334
11
5.3014
21
-4.23547
0
LINE
8
BLACK
6
CONTINUOUS
10
5.3014
20
-4.23547
11
5.29764
21
-4.23622
0
LINE
8
BLACK
6
CONTINUOUS
10
5.29764
20
-4.23622
11
5.27008
21
-4.23622
0
LINE
8
BLACK
6
CONTINUOUS
10
5.27008
20
-4.23622
11
5.26631
21
-4.23547
0
LINE
8
BLACK
6
CONTINUOUS
10
5.26631
20
-4.23547
11
5.26312
21
-4.23334
0
LINE
8
BLACK
6
CONTINUOUS
10
5.26312
20
-4.23334
11
5.26099
21
-4.23014
0
LINE
8
BLACK
6
CONTINUOUS
10
5.26099
20
-4.23014
11
5.26024
21
-4.22638
0
LINE
8
BLACK
6
CONTINUOUS
10
5.26024
20
-4.22638
11
5.26024
21
-4.19094
0
LINE
8
BLACK
6
CONTINUOUS
10
5.26024
20
-4.19094
11
5.26099
21
-4.18718
0
LINE
8
BLACK
6
CONTINUOUS
10
5.26099
20
-4.18718
11
5.26312
21
-4.18399
0
LINE
8
BLACK
6
CONTINUOUS
10
5.26312
20
-4.18399
11
5.26631
21
-4.18185
0
LINE
8
BLACK
6
CONTINUOUS
10
5.26631
20
-4.18185
11
5.27008
21
-4.1811
0
LINE
8
BLACK
6
CONTINUOUS
10
5.27008
20
-4.1811
11
5.29764
21
-4.1811
0
LINE
8
BLACK
6
CONTINUOUS
10
5.29764
20
-4.1811
11
5.3014
21
-4.18185
0
LINE
8
BLACK
6
CONTINUOUS
10
5.38014
20
-4.18185
11
5.38334
21
-4.18399
0
LINE
8
BLACK
6
CONTINUOUS
10
5.38334
20
-4.18399
11
5.38547
21
-4.18718
0
LINE
8
BLACK
6
CONTINUOUS
10
5.38547
20
-4.18718
11
5.38622
21
-4.19094
0
LINE
8
BLACK
6
CONTINUOUS
10
5.38622
20
-4.19094
11
5.38622
21
-4.22638
0
LINE
8
BLACK
6
CONTINUOUS
10
5.38622
20
-4.22638
11
5.38547
21
-4.23014
0
LINE
8
BLACK
6
CONTINUOUS
10
5.38547
20
-4.23014
11
5.38334
21
-4.23334
0
LINE
8
BLACK
6
CONTINUOUS
10
5.38334
20
-4.23334
11
5.38014
21
-4.23547
0
LINE
8
BLACK
6
CONTINUOUS
10
5.38014
20
-4.23547
11
5.37638
21
-4.23622
0
LINE
8
BLACK
6
CONTINUOUS
10
5.37638
20
-4.23622
11
5.34882
21
-4.23622
0
LINE
8
BLACK
6
CONTINUOUS
10
5.34882
20
-4.23622
11
5.34505
21
-4.23547
0
LINE
8
BLACK
6
CONTINUOUS
10
5.34505
20
-4.23547
11
5.34186
21
-4.23334
0
LINE
8
BLACK
6
CONTINUOUS
10
5.34186
20
-4.23334
11
5.33973
21
-4.23014
0
LINE
8
BLACK
6
CONTINUOUS
10
5.33973
20
-4.23014
11
5.33898
21
-4.22638
0
LINE
8
BLACK
6
CONTINUOUS
10
5.33898
20
-4.22638
11
5.33898
21
-4.19094
0
LINE
8
BLACK
6
CONTINUOUS
10
5.33898
20
-4.19094
11
5.33973
21
-4.18718
0
LINE
8
BLACK
6
CONTINUOUS
10
5.33973
20
-4.18718
11
5.34186
21
-4.18399
0
LINE
8
BLACK
6
CONTINUOUS
10
5.34186
20
-4.18399
11
5.34505
21
-4.18185
0
LINE
8
BLACK
6
CONTINUOUS
10
5.34505
20
-4.18185
11
5.34882
21
-4.1811
0
LINE
8
BLACK
6
CONTINUOUS
10
5.34882
20
-4.1811
11
5.37638
21
-4.1811
0
LINE
8
BLACK
6
CONTINUOUS
10
5.37638
20
-4.1811
11
5.38014
21
-4.18185
0
LINE
8
BLACK
6
CONTINUOUS
10
5.91164
20
-4.18185
11
5.91483
21
-4.18399
0
LINE
8
BLACK
6
CONTINUOUS
10
5.91483
20
-4.18399
11
5.91697
21
-4.18718
0
LINE
8
BLACK
6
CONTINUOUS
10
5.91697
20
-4.18718
11
5.91772
21
-4.19094
0
LINE
8
BLACK
6
CONTINUOUS
10
5.91772
20
-4.19094
11
5.91772
21
-4.2185
0
LINE
8
BLACK
6
CONTINUOUS
10
5.91772
20
-4.2185
11
5.91697
21
-4.22227
0
LINE
8
BLACK
6
CONTINUOUS
10
5.91697
20
-4.22227
11
5.91483
21
-4.22546
0
LINE
8
BLACK
6
CONTINUOUS
10
5.91483
20
-4.22546
11
5.91164
21
-4.2276
0
LINE
8
BLACK
6
CONTINUOUS
10
5.91164
20
-4.2276
11
5.90787
21
-4.22835
0
LINE
8
BLACK
6
CONTINUOUS
10
5.90787
20
-4.22835
11
5.87244
21
-4.22835
0
LINE
8
BLACK
6
CONTINUOUS
10
5.87244
20
-4.22835
11
5.86867
21
-4.2276
0
LINE
8
BLACK
6
CONTINUOUS
10
5.86867
20
-4.2276
11
5.86548
21
-4.22546
0
LINE
8
BLACK
6
CONTINUOUS
10
5.86548
20
-4.22546
11
5.86335
21
-4.22227
0
LINE
8
BLACK
6
CONTINUOUS
10
5.86335
20
-4.22227
11
5.8626
21
-4.2185
0
LINE
8
BLACK
6
CONTINUOUS
10
5.8626
20
-4.2185
11
5.8626
21
-4.19094
0
LINE
8
BLACK
6
CONTINUOUS
10
5.8626
20
-4.19094
11
5.86335
21
-4.18718
0
LINE
8
BLACK
6
CONTINUOUS
10
5.86335
20
-4.18718
11
5.86548
21
-4.18399
0
LINE
8
BLACK
6
CONTINUOUS
10
5.86548
20
-4.18399
11
5.86867
21
-4.18185
0
LINE
8
BLACK
6
CONTINUOUS
10
5.86867
20
-4.18185
11
5.87244
21
-4.1811
0
LINE
8
BLACK
6
CONTINUOUS
10
5.87244
20
-4.1811
11
5.90787
21
-4.1811
0
LINE
8
BLACK
6
CONTINUOUS
10
5.90787
20
-4.1811
11
5.91164
21
-4.18185
0
LINE
8
BLACK
6
CONTINUOUS
10
5.99038
20
-4.18185
11
5.99357
21
-4.18399
0
LINE
8
BLACK
6
CONTINUOUS
10
5.99357
20
-4.18399
11
5.99571
21
-4.18718
0
LINE
8
BLACK
6
CONTINUOUS
10
5.99571
20
-4.18718
11
5.99646
21
-4.19094
0
LINE
8
BLACK
6
CONTINUOUS
10
5.99646
20
-4.19094
11
5.99646
21
-4.2185
0
LINE
8
BLACK
6
CONTINUOUS
10
5.99646
20
-4.2185
11
5.99571
21
-4.22227
0
LINE
8
BLACK
6
CONTINUOUS
10
5.99571
20
-4.22227
11
5.99357
21
-4.22546
0
LINE
8
BLACK
6
CONTINUOUS
10
5.99357
20
-4.22546
11
5.99038
21
-4.2276
0
LINE
8
BLACK
6
CONTINUOUS
10
5.99038
20
-4.2276
11
5.98661
21
-4.22835
0
LINE
8
BLACK
6
CONTINUOUS
10
5.98661
20
-4.22835
11
5.95118
21
-4.22835
0
LINE
8
BLACK
6
CONTINUOUS
10
5.95118
20
-4.22835
11
5.94741
21
-4.2276
0
LINE
8
BLACK
6
CONTINUOUS
10
5.94741
20
-4.2276
11
5.94422
21
-4.22546
0
LINE
8
BLACK
6
CONTINUOUS
10
5.94422
20
-4.22546
11
5.94209
21
-4.22227
0
LINE
8
BLACK
6
CONTINUOUS
10
5.94209
20
-4.22227
11
5.94134
21
-4.2185
0
LINE
8
BLACK
6
CONTINUOUS
10
5.94134
20
-4.2185
11
5.94134
21
-4.19094
0
LINE
8
BLACK
6
CONTINUOUS
10
5.94134
20
-4.19094
11
5.94209
21
-4.18718
0
LINE
8
BLACK
6
CONTINUOUS
10
5.94209
20
-4.18718
11
5.94422
21
-4.18399
0
LINE
8
BLACK
6
CONTINUOUS
10
5.94422
20
-4.18399
11
5.94741
21
-4.18185
0
LINE
8
BLACK
6
CONTINUOUS
10
5.94741
20
-4.18185
11
5.95118
21
-4.1811
0
LINE
8
BLACK
6
CONTINUOUS
10
5.95118
20
-4.1811
11
5.98661
21
-4.1811
0
LINE
8
BLACK
6
CONTINUOUS
10
5.98661
20
-4.1811
11
5.99038
21
-4.18185
0
LINE
8
BLACK
6
CONTINUOUS
10
4.70692
20
-4.1661
11
4.71011
21
-4.16824
0
LINE
8
BLACK
6
CONTINUOUS
10
4.71011
20
-4.16824
11
4.71224
21
-4.17143
0
LINE
8
BLACK
6
CONTINUOUS
10
4.71224
20
-4.17143
11
4.71299
21
-4.1752
0
LINE
8
BLACK
6
CONTINUOUS
10
4.71299
20
-4.1752
11
4.71299
21
-4.21063
0
LINE
8
BLACK
6
CONTINUOUS
10
4.71299
20
-4.21063
11
4.71224
21
-4.2144
0
LINE
8
BLACK
6
CONTINUOUS
10
4.71224
20
-4.2144
11
4.71011
21
-4.21759
0
LINE
8
BLACK
6
CONTINUOUS
10
4.71011
20
-4.21759
11
4.70692
21
-4.21972
0
LINE
8
BLACK
6
CONTINUOUS
10
4.70692
20
-4.21972
11
4.70315
21
-4.22047
0
LINE
8
BLACK
6
CONTINUOUS
10
4.70315
20
-4.22047
11
4.67559
21
-4.22047
0
LINE
8
BLACK
6
CONTINUOUS
10
4.67559
20
-4.22047
11
4.67182
21
-4.21972
0
LINE
8
BLACK
6
CONTINUOUS
10
4.67182
20
-4.21972
11
4.66863
21
-4.21759
0
LINE
8
BLACK
6
CONTINUOUS
10
4.66863
20
-4.21759
11
4.6665
21
-4.2144
0
LINE
8
BLACK
6
CONTINUOUS
10
4.6665
20
-4.2144
11
4.66575
21
-4.21063
0
LINE
8
BLACK
6
CONTINUOUS
10
4.66575
20
-4.21063
11
4.66575
21
-4.1752
0
LINE
8
BLACK
6
CONTINUOUS
10
4.66575
20
-4.1752
11
4.6665
21
-4.17143
0
LINE
8
BLACK
6
CONTINUOUS
10
4.6665
20
-4.17143
11
4.66863
21
-4.16824
0
LINE
8
BLACK
6
CONTINUOUS
10
4.66863
20
-4.16824
11
4.67182
21
-4.1661
0
LINE
8
BLACK
6
CONTINUOUS
10
4.67182
20
-4.1661
11
4.67559
21
-4.16535
0
LINE
8
BLACK
6
CONTINUOUS
10
4.67559
20
-4.16535
11
4.70315
21
-4.16535
0
LINE
8
BLACK
6
CONTINUOUS
10
4.70315
20
-4.16535
11
4.70692
21
-4.1661
0
LINE
8
BLACK
6
CONTINUOUS
10
4.78566
20
-4.1661
11
4.78885
21
-4.16824
0
LINE
8
BLACK
6
CONTINUOUS
10
4.78885
20
-4.16824
11
4.79098
21
-4.17143
0
LINE
8
BLACK
6
CONTINUOUS
10
4.79098
20
-4.17143
11
4.79173
21
-4.1752
0
LINE
8
BLACK
6
CONTINUOUS
10
4.79173
20
-4.1752
11
4.79173
21
-4.21063
0
LINE
8
BLACK
6
CONTINUOUS
10
4.79173
20
-4.21063
11
4.79098
21
-4.2144
0
LINE
8
BLACK
6
CONTINUOUS
10
4.79098
20
-4.2144
11
4.78885
21
-4.21759
0
LINE
8
BLACK
6
CONTINUOUS
10
4.78885
20
-4.21759
11
4.78566
21
-4.21972
0
LINE
8
BLACK
6
CONTINUOUS
10
4.78566
20
-4.21972
11
4.78189
21
-4.22047
0
LINE
8
BLACK
6
CONTINUOUS
10
4.78189
20
-4.22047
11
4.75433
21
-4.22047
0
LINE
8
BLACK
6
CONTINUOUS
10
4.75433
20
-4.22047
11
4.75056
21
-4.21972
0
LINE
8
BLACK
6
CONTINUOUS
10
4.75056
20
-4.21972
11
4.74737
21
-4.21759
0
LINE
8
BLACK
6
CONTINUOUS
10
4.74737
20
-4.21759
11
4.74524
21
-4.2144
0
LINE
8
BLACK
6
CONTINUOUS
10
4.74524
20
-4.2144
11
4.74449
21
-4.21063
0
LINE
8
BLACK
6
CONTINUOUS
10
4.74449
20
-4.21063
11
4.74449
21
-4.1752
0
LINE
8
BLACK
6
CONTINUOUS
10
4.74449
20
-4.1752
11
4.74524
21
-4.17143
0
LINE
8
BLACK
6
CONTINUOUS
10
4.74524
20
-4.17143
11
4.74737
21
-4.16824
0
LINE
8
BLACK
6
CONTINUOUS
10
4.74737
20
-4.16824
11
4.75056
21
-4.1661
0
LINE
8
BLACK
6
CONTINUOUS
10
4.75056
20
-4.1661
11
4.75433
21
-4.16535
0
LINE
8
BLACK
6
CONTINUOUS
10
4.75433
20
-4.16535
11
4.78189
21
-4.16535
0
LINE
8
BLACK
6
CONTINUOUS
10
4.78189
20
-4.16535
11
4.78566
21
-4.1661
0
LINE
8
BLACK
6
CONTINUOUS
10
4.8644
20
-4.17004
11
4.86759
21
-4.17217
0
LINE
8
BLACK
6
CONTINUOUS
10
4.86759
20
-4.17217
11
4.86972
21
-4.17537
0
LINE
8
BLACK
6
CONTINUOUS
10
4.86972
20
-4.17537
11
4.87047
21
-4.17913
0
LINE
8
BLACK
6
CONTINUOUS
10
4.87047
20
-4.17913
11
4.87047
21
-4.20669
0
LINE
8
BLACK
6
CONTINUOUS
10
4.87047
20
-4.20669
11
4.86972
21
-4.21046
0
LINE
8
BLACK
6
CONTINUOUS
10
4.86972
20
-4.21046
11
4.86759
21
-4.21365
0
LINE
8
BLACK
6
CONTINUOUS
10
4.86759
20
-4.21365
11
4.8644
21
-4.21579
0
LINE
8
BLACK
6
CONTINUOUS
10
4.8644
20
-4.21579
11
4.86063
21
-4.21654
0
LINE
8
BLACK
6
CONTINUOUS
10
4.86063
20
-4.21654
11
4.8252
21
-4.21654
0
LINE
8
BLACK
6
CONTINUOUS
10
4.8252
20
-4.21654
11
4.82143
21
-4.21579
0
LINE
8
BLACK
6
CONTINUOUS
10
4.82143
20
-4.21579
11
4.81824
21
-4.21365
0
LINE
8
BLACK
6
CONTINUOUS
10
4.81824
20
-4.21365
11
4.8161
21
-4.21046
0
LINE
8
BLACK
6
CONTINUOUS
10
4.8161
20
-4.21046
11
4.81535
21
-4.20669
0
LINE
8
BLACK
6
CONTINUOUS
10
4.81535
20
-4.20669
11
4.81535
21
-4.17913
0
LINE
8
BLACK
6
CONTINUOUS
10
4.81535
20
-4.17913
11
4.8161
21
-4.17537
0
LINE
8
BLACK
6
CONTINUOUS
10
4.8161
20
-4.17537
11
4.81824
21
-4.17217
0
LINE
8
BLACK
6
CONTINUOUS
10
4.81824
20
-4.17217
11
4.82143
21
-4.17004
0
LINE
8
BLACK
6
CONTINUOUS
10
4.82143
20
-4.17004
11
4.8252
21
-4.16929
0
LINE
8
BLACK
6
CONTINUOUS
10
4.8252
20
-4.16929
11
4.86063
21
-4.16929
0
LINE
8
BLACK
6
CONTINUOUS
10
4.86063
20
-4.16929
11
4.8644
21
-4.17004
0
LINE
8
BLACK
6
CONTINUOUS
10
5.29944
20
-4.09819
11
5.30263
21
-4.10032
0
LINE
8
BLACK
6
CONTINUOUS
10
5.30263
20
-4.10032
11
5.30476
21
-4.10352
0
LINE
8
BLACK
6
CONTINUOUS
10
5.30476
20
-4.10352
11
5.30551
21
-4.10728
0
LINE
8
BLACK
6
CONTINUOUS
10
5.30551
20
-4.10728
11
5.30551
21
-4.14469
0
LINE
8
BLACK
6
CONTINUOUS
10
5.30551
20
-4.14469
11
5.30476
21
-4.14845
0
LINE
8
BLACK
6
CONTINUOUS
10
5.30476
20
-4.14845
11
5.30263
21
-4.15164
0
LINE
8
BLACK
6
CONTINUOUS
10
5.30263
20
-4.15164
11
5.29944
21
-4.15378
0
LINE
8
BLACK
6
CONTINUOUS
10
5.29944
20
-4.15378
11
5.29567
21
-4.15453
0
LINE
8
BLACK
6
CONTINUOUS
10
5.29567
20
-4.15453
11
5.26909
21
-4.15453
0
LINE
8
BLACK
6
CONTINUOUS
10
5.26909
20
-4.15453
11
5.26533
21
-4.15378
0
LINE
8
BLACK
6
CONTINUOUS
10
5.26533
20
-4.15378
11
5.26213
21
-4.15164
0
LINE
8
BLACK
6
CONTINUOUS
10
5.26213
20
-4.15164
11
5.26
21
-4.14845
0
LINE
8
BLACK
6
CONTINUOUS
10
5.26
20
-4.14845
11
5.25925
21
-4.14469
0
LINE
8
BLACK
6
CONTINUOUS
10
5.25925
20
-4.14469
11
5.25925
21
-4.10728
0
LINE
8
BLACK
6
CONTINUOUS
10
5.25925
20
-4.10728
11
5.26
21
-4.10352
0
LINE
8
BLACK
6
CONTINUOUS
10
5.26
20
-4.10352
11
5.26213
21
-4.10032
0
LINE
8
BLACK
6
CONTINUOUS
10
5.26213
20
-4.10032
11
5.26533
21
-4.09819
0
LINE
8
BLACK
6
CONTINUOUS
10
5.26533
20
-4.09819
11
5.26909
21
-4.09744
0
LINE
8
BLACK
6
CONTINUOUS
10
5.26909
20
-4.09744
11
5.29567
21
-4.09744
0
LINE
8
BLACK
6
CONTINUOUS
10
5.29567
20
-4.09744
11
5.29944
21
-4.09819
0
LINE
8
BLACK
6
CONTINUOUS
10
5.38113
20
-4.09819
11
5.38432
21
-4.10032
0
LINE
8
BLACK
6
CONTINUOUS
10
5.38432
20
-4.10032
11
5.38646
21
-4.10352
0
LINE
8
BLACK
6
CONTINUOUS
10
5.38646
20
-4.10352
11
5.3872
21
-4.10728
0
LINE
8
BLACK
6
CONTINUOUS
10
5.3872
20
-4.10728
11
5.3872
21
-4.14469
0
LINE
8
BLACK
6
CONTINUOUS
10
5.3872
20
-4.14469
11
5.38646
21
-4.14845
0
LINE
8
BLACK
6
CONTINUOUS
10
5.38646
20
-4.14845
11
5.38432
21
-4.15164
0
LINE
8
BLACK
6
CONTINUOUS
10
5.38432
20
-4.15164
11
5.38113
21
-4.15378
0
LINE
8
BLACK
6
CONTINUOUS
10
5.38113
20
-4.15378
11
5.37736
21
-4.15453
0
LINE
8
BLACK
6
CONTINUOUS
10
5.37736
20
-4.15453
11
5.35079
21
-4.15453
0
LINE
8
BLACK
6
CONTINUOUS
10
5.35079
20
-4.15453
11
5.34702
21
-4.15378
0
LINE
8
BLACK
6
CONTINUOUS
10
5.34702
20
-4.15378
11
5.34383
21
-4.15164
0
LINE
8
BLACK
6
CONTINUOUS
10
5.34383
20
-4.15164
11
5.34169
21
-4.14845
0
LINE
8
BLACK
6
CONTINUOUS
10
5.34169
20
-4.14845
11
5.34094
21
-4.14469
0
LINE
8
BLACK
6
CONTINUOUS
10
5.34094
20
-4.14469
11
5.34094
21
-4.10728
0
LINE
8
BLACK
6
CONTINUOUS
10
5.34094
20
-4.10728
11
5.34169
21
-4.10352
0
LINE
8
BLACK
6
CONTINUOUS
10
5.34169
20
-4.10352
11
5.34383
21
-4.10032
0
LINE
8
BLACK
6
CONTINUOUS
10
5.34383
20
-4.10032
11
5.34702
21
-4.09819
0
LINE
8
BLACK
6
CONTINUOUS
10
5.34702
20
-4.09819
11
5.35079
21
-4.09744
0
LINE
8
BLACK
6
CONTINUOUS
10
5.35079
20
-4.09744
11
5.37736
21
-4.09744
0
LINE
8
BLACK
6
CONTINUOUS
10
5.37736
20
-4.09744
11
5.38113
21
-4.09819
0
LINE
8
BLACK
6
CONTINUOUS
10
5.14786
20
-4.09917
11
5.15105
21
-4.10131
0
LINE
8
BLACK
6
CONTINUOUS
10
5.15105
20
-4.10131
11
5.15319
21
-4.1045
0
LINE
8
BLACK
6
CONTINUOUS
10
5.15319
20
-4.1045
11
5.15394
21
-4.10827
0
LINE
8
BLACK
6
CONTINUOUS
10
5.15394
20
-4.10827
11
5.15394
21
-4.1437
0
LINE
8
BLACK
6
CONTINUOUS
10
5.15394
20
-4.1437
11
5.15319
21
-4.14747
0
LINE
8
BLACK
6
CONTINUOUS
10
5.15319
20
-4.14747
11
5.15105
21
-4.15066
0
LINE
8
BLACK
6
CONTINUOUS
10
5.15105
20
-4.15066
11
5.14786
21
-4.15279
0
LINE
8
BLACK
6
CONTINUOUS
10
5.14786
20
-4.15279
11
5.14409
21
-4.15354
0
LINE
8
BLACK
6
CONTINUOUS
10
5.14409
20
-4.15354
11
5.11654
21
-4.15354
0
LINE
8
BLACK
6
CONTINUOUS
10
5.11654
20
-4.15354
11
5.11277
21
-4.15279
0
LINE
8
BLACK
6
CONTINUOUS
10
5.11277
20
-4.15279
11
5.10958
21
-4.15066
0
LINE
8
BLACK
6
CONTINUOUS
10
5.10958
20
-4.15066
11
5.10744
21
-4.14747
0
LINE
8
BLACK
6
CONTINUOUS
10
5.10744
20
-4.14747
11
5.10669
21
-4.1437
0
LINE
8
BLACK
6
CONTINUOUS
10
5.10669
20
-4.1437
11
5.10669
21
-4.10827
0
LINE
8
BLACK
6
CONTINUOUS
10
5.10669
20
-4.10827
11
5.10744
21
-4.1045
0
LINE
8
BLACK
6
CONTINUOUS
10
5.10744
20
-4.1045
11
5.10958
21
-4.10131
0
LINE
8
BLACK
6
CONTINUOUS
10
5.10958
20
-4.10131
11
5.11277
21
-4.09917
0
LINE
8
BLACK
6
CONTINUOUS
10
5.11277
20
-4.09917
11
5.11654
21
-4.09843
0
LINE
8
BLACK
6
CONTINUOUS
10
5.11654
20
-4.09843
11
5.14409
21
-4.09843
0
LINE
8
BLACK
6
CONTINUOUS
10
5.14409
20
-4.09843
11
5.14786
21
-4.09917
0
LINE
8
BLACK
6
CONTINUOUS
10
5.2266
20
-4.09917
11
5.22979
21
-4.10131
0
LINE
8
BLACK
6
CONTINUOUS
10
5.22979
20
-4.10131
11
5.23193
21
-4.1045
0
LINE
8
BLACK
6
CONTINUOUS
10
5.23193
20
-4.1045
11
5.23268
21
-4.10827
0
LINE
8
BLACK
6
CONTINUOUS
10
5.23268
20
-4.10827
11
5.23268
21
-4.1437
0
LINE
8
BLACK
6
CONTINUOUS
10
5.23268
20
-4.1437
11
5.23193
21
-4.14747
0
LINE
8
BLACK
6
CONTINUOUS
10
5.23193
20
-4.14747
11
5.22979
21
-4.15066
0
LINE
8
BLACK
6
CONTINUOUS
10
5.22979
20
-4.15066
11
5.2266
21
-4.15279
0
LINE
8
BLACK
6
CONTINUOUS
10
5.2266
20
-4.15279
11
5.22283
21
-4.15354
0
LINE
8
BLACK
6
CONTINUOUS
10
5.22283
20
-4.15354
11
5.19528
21
-4.15354
0
LINE
8
BLACK
6
CONTINUOUS
10
5.19528
20
-4.15354
11
5.19151
21
-4.15279
0
LINE
8
BLACK
6
CONTINUOUS
10
5.19151
20
-4.15279
11
5.18832
21
-4.15066
0
LINE
8
BLACK
6
CONTINUOUS
10
5.18832
20
-4.15066
11
5.18618
21
-4.14747
0
LINE
8
BLACK
6
CONTINUOUS
10
5.18618
20
-4.14747
11
5.18543
21
-4.1437
0
LINE
8
BLACK
6
CONTINUOUS
10
5.18543
20
-4.1437
11
5.18543
21
-4.10827
0
LINE
8
BLACK
6
CONTINUOUS
10
5.18543
20
-4.10827
11
5.18618
21
-4.1045
0
LINE
8
BLACK
6
CONTINUOUS
10
5.18618
20
-4.1045
11
5.18832
21
-4.10131
0
LINE
8
BLACK
6
CONTINUOUS
10
5.18832
20
-4.10131
11
5.19151
21
-4.09917
0
LINE
8
BLACK
6
CONTINUOUS
10
5.19151
20
-4.09917
11
5.19528
21
-4.09843
0
LINE
8
BLACK
6
CONTINUOUS
10
5.19528
20
-4.09843
11
5.22283
21
-4.09843
0
LINE
8
BLACK
6
CONTINUOUS
10
5.22283
20
-4.09843
11
5.2266
21
-4.09917
0
LINE
8
BLACK
6
CONTINUOUS
10
5.91164
20
-4.10311
11
5.91483
21
-4.10525
0
LINE
8
BLACK
6
CONTINUOUS
10
5.91483
20
-4.10525
11
5.91697
21
-4.10844
0
LINE
8
BLACK
6
CONTINUOUS
10
5.91697
20
-4.10844
11
5.91772
21
-4.1122
0
LINE
8
BLACK
6
CONTINUOUS
10
5.91772
20
-4.1122
11
5.91772
21
-4.13976
0
LINE
8
BLACK
6
CONTINUOUS
10
5.91772
20
-4.13976
11
5.91697
21
-4.14353
0
LINE
8
BLACK
6
CONTINUOUS
10
5.91697
20
-4.14353
11
5.91483
21
-4.14672
0
LINE
8
BLACK
6
CONTINUOUS
10
5.91483
20
-4.14672
11
5.91164
21
-4.14886
0
LINE
8
BLACK
6
CONTINUOUS
10
5.91164
20
-4.14886
11
5.90787
21
-4.14961
0
LINE
8
BLACK
6
CONTINUOUS
10
5.90787
20
-4.14961
11
5.87244
21
-4.14961
0
LINE
8
BLACK
6
CONTINUOUS
10
5.87244
20
-4.14961
11
5.86867
21
-4.14886
0
LINE
8
BLACK
6
CONTINUOUS
10
5.86867
20
-4.14886
11
5.86548
21
-4.14672
0
LINE
8
BLACK
6
CONTINUOUS
10
5.86548
20
-4.14672
11
5.86335
21
-4.14353
0
LINE
8
BLACK
6
CONTINUOUS
10
5.86335
20
-4.14353
11
5.8626
21
-4.13976
0
LINE
8
BLACK
6
CONTINUOUS
10
5.8626
20
-4.13976
11
5.8626
21
-4.1122
0
LINE
8
BLACK
6
CONTINUOUS
10
5.8626
20
-4.1122
11
5.86335
21
-4.10844
0
LINE
8
BLACK
6
CONTINUOUS
10
5.86335
20
-4.10844
11
5.86548
21
-4.10525
0
LINE
8
BLACK
6
CONTINUOUS
10
5.86548
20
-4.10525
11
5.86867
21
-4.10311
0
LINE
8
BLACK
6
CONTINUOUS
10
5.86867
20
-4.10311
11
5.87244
21
-4.10236
0
LINE
8
BLACK
6
CONTINUOUS
10
5.87244
20
-4.10236
11
5.90787
21
-4.10236
0
LINE
8
BLACK
6
CONTINUOUS
10
5.90787
20
-4.10236
11
5.91164
21
-4.10311
0
LINE
8
BLACK
6
CONTINUOUS
10
5.99038
20
-4.10311
11
5.99357
21
-4.10525
0
LINE
8
BLACK
6
CONTINUOUS
10
5.99357
20
-4.10525
11
5.99571
21
-4.10844
0
LINE
8
BLACK
6
CONTINUOUS
10
5.99571
20
-4.10844
11
5.99646
21
-4.1122
0
LINE
8
BLACK
6
CONTINUOUS
10
5.99646
20
-4.1122
11
5.99646
21
-4.13976
0
LINE
8
BLACK
6
CONTINUOUS
10
5.99646
20
-4.13976
11
5.99571
21
-4.14353
0
LINE
8
BLACK
6
CONTINUOUS
10
5.99571
20
-4.14353
11
5.99357
21
-4.14672
0
LINE
8
BLACK
6
CONTINUOUS
10
5.99357
20
-4.14672
11
5.99038
21
-4.14886
0
LINE
8
BLACK
6
CONTINUOUS
10
5.99038
20
-4.14886
11
5.98661
21
-4.14961
0
LINE
8
BLACK
6
CONTINUOUS
10
5.98661
20
-4.14961
11
5.95118
21
-4.14961
0
LINE
8
BLACK
6
CONTINUOUS
10
5.95118
20
-4.14961
11
5.94741
21
-4.14886
0
LINE
8
BLACK
6
CONTINUOUS
10
5.94741
20
-4.14886
11
5.94422
21
-4.14672
0
LINE
8
BLACK
6
CONTINUOUS
10
5.94422
20
-4.14672
11
5.94209
21
-4.14353
0
LINE
8
BLACK
6
CONTINUOUS
10
5.94209
20
-4.14353
11
5.94134
21
-4.13976
0
LINE
8
BLACK
6
CONTINUOUS
10
5.94134
20
-4.13976
11
5.94134
21
-4.1122
0
LINE
8
BLACK
6
CONTINUOUS
10
5.94134
20
-4.1122
11
5.94209
21
-4.10844
0
LINE
8
BLACK
6
CONTINUOUS
10
5.94209
20
-4.10844
11
5.94422
21
-4.10525
0
LINE
8
BLACK
6
CONTINUOUS
10
5.94422
20
-4.10525
11
5.94741
21
-4.10311
0
LINE
8
BLACK
6
CONTINUOUS
10
5.94741
20
-4.10311
11
5.95118
21
-4.10236
0
LINE
8
BLACK
6
CONTINUOUS
10
5.95118
20
-4.10236
11
5.98661
21
-4.10236
0
LINE
8
BLACK
6
CONTINUOUS
10
5.98661
20
-4.10236
11
5.99038
21
-4.10311
0
LINE
8
BLACK
6
CONTINUOUS
10
4.70692
20
-4.08736
11
4.71011
21
-4.0895
0
LINE
8
BLACK
6
CONTINUOUS
10
4.71011
20
-4.0895
11
4.71224
21
-4.09269
0
LINE
8
BLACK
6
CONTINUOUS
10
4.71224
20
-4.09269
11
4.71299
21
-4.09646
0
LINE
8
BLACK
6
CONTINUOUS
10
4.71299
20
-4.09646
11
4.71299
21
-4.13189
0
LINE
8
BLACK
6
CONTINUOUS
10
4.71299
20
-4.13189
11
4.71224
21
-4.13566
0
LINE
8
BLACK
6
CONTINUOUS
10
4.71224
20
-4.13566
11
4.71011
21
-4.13885
0
LINE
8
BLACK
6
CONTINUOUS
10
4.71011
20
-4.13885
11
4.70692
21
-4.14098
0
LINE
8
BLACK
6
CONTINUOUS
10
4.70692
20
-4.14098
11
4.70315
21
-4.14173
0
LINE
8
BLACK
6
CONTINUOUS
10
4.70315
20
-4.14173
11
4.67559
21
-4.14173
0
LINE
8
BLACK
6
CONTINUOUS
10
4.67559
20
-4.14173
11
4.67182
21
-4.14098
0
LINE
8
BLACK
6
CONTINUOUS
10
4.67182
20
-4.14098
11
4.66863
21
-4.13885
0
LINE
8
BLACK
6
CONTINUOUS
10
4.66863
20
-4.13885
11
4.6665
21
-4.13566
0
LINE
8
BLACK
6
CONTINUOUS
10
4.6665
20
-4.13566
11
4.66575
21
-4.13189
0
LINE
8
BLACK
6
CONTINUOUS
10
4.66575
20
-4.13189
11
4.66575
21
-4.09646
0
LINE
8
BLACK
6
CONTINUOUS
10
4.66575
20
-4.09646
11
4.6665
21
-4.09269
0
LINE
8
BLACK
6
CONTINUOUS
10
4.6665
20
-4.09269
11
4.66863
21
-4.0895
0
LINE
8
BLACK
6
CONTINUOUS
10
4.66863
20
-4.0895
11
4.67182
21
-4.08736
0
LINE
8
BLACK
6
CONTINUOUS
10
4.67182
20
-4.08736
11
4.67559
21
-4.08661
0
LINE
8
BLACK
6
CONTINUOUS
10
4.67559
20
-4.08661
11
4.70315
21
-4.08661
0
LINE
8
BLACK
6
CONTINUOUS
10
4.70315
20
-4.08661
11
4.70692
21
-4.08736
0
LINE
8
BLACK
6
CONTINUOUS
10
4.78566
20
-4.08736
11
4.78885
21
-4.0895
0
LINE
8
BLACK
6
CONTINUOUS
10
4.78885
20
-4.0895
11
4.79098
21
-4.09269
0
LINE
8
BLACK
6
CONTINUOUS
10
4.79098
20
-4.09269
11
4.79173
21
-4.09646
0
LINE
8
BLACK
6
CONTINUOUS
10
4.79173
20
-4.09646
11
4.79173
21
-4.13189
0
LINE
8
BLACK
6
CONTINUOUS
10
4.79173
20
-4.13189
11
4.79098
21
-4.13566
0
LINE
8
BLACK
6
CONTINUOUS
10
4.79098
20
-4.13566
11
4.78885
21
-4.13885
0
LINE
8
BLACK
6
CONTINUOUS
10
4.78885
20
-4.13885
11
4.78566
21
-4.14098
0
LINE
8
BLACK
6
CONTINUOUS
10
4.78566
20
-4.14098
11
4.78189
21
-4.14173
0
LINE
8
BLACK
6
CONTINUOUS
10
4.78189
20
-4.14173
11
4.75433
21
-4.14173
0
LINE
8
BLACK
6
CONTINUOUS
10
4.75433
20
-4.14173
11
4.75056
21
-4.14098
0
LINE
8
BLACK
6
CONTINUOUS
10
4.75056
20
-4.14098
11
4.74737
21
-4.13885
0
LINE
8
BLACK
6
CONTINUOUS
10
4.74737
20
-4.13885
11
4.74524
21
-4.13566
0
LINE
8
BLACK
6
CONTINUOUS
10
4.74524
20
-4.13566
11
4.74449
21
-4.13189
0
LINE
8
BLACK
6
CONTINUOUS
10
4.74449
20
-4.13189
11
4.74449
21
-4.09646
0
LINE
8
BLACK
6
CONTINUOUS
10
4.74449
20
-4.09646
11
4.74524
21
-4.09269
0
LINE
8
BLACK
6
CONTINUOUS
10
4.74524
20
-4.09269
11
4.74737
21
-4.0895
0
LINE
8
BLACK
6
CONTINUOUS
10
4.74737
20
-4.0895
11
4.75056
21
-4.08736
0
LINE
8
BLACK
6
CONTINUOUS
10
4.75056
20
-4.08736
11
4.75433
21
-4.08661
0
LINE
8
BLACK
6
CONTINUOUS
10
4.75433
20
-4.08661
11
4.78189
21
-4.08661
0
LINE
8
BLACK
6
CONTINUOUS
10
4.78189
20
-4.08661
11
4.78566
21
-4.08736
0
LINE
8
BLACK
6
CONTINUOUS
10
4.8644
20
-4.0913
11
4.86759
21
-4.09343
0
LINE
8
BLACK
6
CONTINUOUS
10
4.86759
20
-4.09343
11
4.86972
21
-4.09663
0
LINE
8
BLACK
6
CONTINUOUS
10
4.86972
20
-4.09663
11
4.87047
21
-4.10039
0
LINE
8
BLACK
6
CONTINUOUS
10
4.87047
20
-4.10039
11
4.87047
21
-4.12795
0
LINE
8
BLACK
6
CONTINUOUS
10
4.87047
20
-4.12795
11
4.86972
21
-4.13172
0
LINE
8
BLACK
6
CONTINUOUS
10
4.86972
20
-4.13172
11
4.86759
21
-4.13491
0
LINE
8
BLACK
6
CONTINUOUS
10
4.86759
20
-4.13491
11
4.8644
21
-4.13705
0
LINE
8
BLACK
6
CONTINUOUS
10
4.8644
20
-4.13705
11
4.86063
21
-4.1378
0
LINE
8
BLACK
6
CONTINUOUS
10
4.86063
20
-4.1378
11
4.8252
21
-4.1378
0
LINE
8
BLACK
6
CONTINUOUS
10
4.8252
20
-4.1378
11
4.82143
21
-4.13705
0
LINE
8
BLACK
6
CONTINUOUS
10
4.82143
20
-4.13705
11
4.81824
21
-4.13491
0
LINE
8
BLACK
6
CONTINUOUS
10
4.81824
20
-4.13491
11
4.8161
21
-4.13172
0
LINE
8
BLACK
6
CONTINUOUS
10
4.8161
20
-4.13172
11
4.81535
21
-4.12795
0
LINE
8
BLACK
6
CONTINUOUS
10
4.81535
20
-4.12795
11
4.81535
21
-4.10039
0
LINE
8
BLACK
6
CONTINUOUS
10
4.81535
20
-4.10039
11
4.8161
21
-4.09663
0
LINE
8
BLACK
6
CONTINUOUS
10
4.8161
20
-4.09663
11
4.81824
21
-4.09343
0
LINE
8
BLACK
6
CONTINUOUS
10
4.81824
20
-4.09343
11
4.82143
21
-4.0913
0
LINE
8
BLACK
6
CONTINUOUS
10
4.82143
20
-4.0913
11
4.8252
21
-4.09055
0
LINE
8
BLACK
6
CONTINUOUS
10
4.8252
20
-4.09055
11
4.86063
21
-4.09055
0
LINE
8
BLACK
6
CONTINUOUS
10
4.86063
20
-4.09055
11
4.8644
21
-4.0913
0
LINE
8
BLACK
6
CONTINUOUS
10
5.9018
20
-4.01945
11
5.90499
21
-4.02158
0
LINE
8
BLACK
6
CONTINUOUS
10
5.90499
20
-4.02158
11
5.90712
21
-4.02478
0
LINE
8
BLACK
6
CONTINUOUS
10
5.90712
20
-4.02478
11
5.90787
21
-4.02854
0
LINE
8
BLACK
6
CONTINUOUS
10
5.90787
20
-4.02854
11
5.90787
21
-4.06594
0
LINE
8
BLACK
6
CONTINUOUS
10
5.90787
20
-4.06594
11
5.90712
21
-4.06971
0
LINE
8
BLACK
6
CONTINUOUS
10
5.90712
20
-4.06971
11
5.90499
21
-4.0729
0
LINE
8
BLACK
6
CONTINUOUS
10
5.90499
20
-4.0729
11
5.9018
21
-4.07504
0
LINE
8
BLACK
6
CONTINUOUS
10
5.9018
20
-4.07504
11
5.89803
21
-4.07579
0
LINE
8
BLACK
6
CONTINUOUS
10
5.89803
20
-4.07579
11
5.87146
21
-4.07579
0
LINE
8
BLACK
6
CONTINUOUS
10
5.87146
20
-4.07579
11
5.86769
21
-4.07504
0
LINE
8
BLACK
6
CONTINUOUS
10
5.86769
20
-4.07504
11
5.8645
21
-4.0729
0
LINE
8
BLACK
6
CONTINUOUS
10
5.8645
20
-4.0729
11
5.86236
21
-4.06971
0
LINE
8
BLACK
6
CONTINUOUS
10
5.86236
20
-4.06971
11
5.86161
21
-4.06594
0
LINE
8
BLACK
6
CONTINUOUS
10
5.86161
20
-4.06594
11
5.86161
21
-4.02854
0
LINE
8
BLACK
6
CONTINUOUS
10
5.86161
20
-4.02854
11
5.86236
21
-4.02478
0
LINE
8
BLACK
6
CONTINUOUS
10
5.86236
20
-4.02478
11
5.8645
21
-4.02158
0
LINE
8
BLACK
6
CONTINUOUS
10
5.8645
20
-4.02158
11
5.86769
21
-4.01945
0
LINE
8
BLACK
6
CONTINUOUS
10
5.86769
20
-4.01945
11
5.87146
21
-4.0187
0
LINE
8
BLACK
6
CONTINUOUS
10
5.87146
20
-4.0187
11
5.89803
21
-4.0187
0
LINE
8
BLACK
6
CONTINUOUS
10
5.89803
20
-4.0187
11
5.9018
21
-4.01945
0
LINE
8
BLACK
6
CONTINUOUS
10
5.98349
20
-4.01945
11
5.98668
21
-4.02158
0
LINE
8
BLACK
6
CONTINUOUS
10
5.98668
20
-4.02158
11
5.98882
21
-4.02478
0
LINE
8
BLACK
6
CONTINUOUS
10
5.98882
20
-4.02478
11
5.98957
21
-4.02854
0
LINE
8
BLACK
6
CONTINUOUS
10
5.98957
20
-4.02854
11
5.98957
21
-4.06594
0
LINE
8
BLACK
6
CONTINUOUS
10
5.98957
20
-4.06594
11
5.98882
21
-4.06971
0
LINE
8
BLACK
6
CONTINUOUS
10
5.98882
20
-4.06971
11
5.98668
21
-4.0729
0
LINE
8
BLACK
6
CONTINUOUS
10
5.98668
20
-4.0729
11
5.98349
21
-4.07504
0
LINE
8
BLACK
6
CONTINUOUS
10
5.98349
20
-4.07504
11
5.97972
21
-4.07579
0
LINE
8
BLACK
6
CONTINUOUS
10
5.97972
20
-4.07579
11
5.95315
21
-4.07579
0
LINE
8
BLACK
6
CONTINUOUS
10
5.95315
20
-4.07579
11
5.94938
21
-4.07504
0
LINE
8
BLACK
6
CONTINUOUS
10
5.94938
20
-4.07504
11
5.94619
21
-4.0729
0
LINE
8
BLACK
6
CONTINUOUS
10
5.94619
20
-4.0729
11
5.94406
21
-4.06971
0
LINE
8
BLACK
6
CONTINUOUS
10
5.94406
20
-4.06971
11
5.94331
21
-4.06594
0
LINE
8
BLACK
6
CONTINUOUS
10
5.94331
20
-4.06594
11
5.94331
21
-4.02854
0
LINE
8
BLACK
6
CONTINUOUS
10
5.94331
20
-4.02854
11
5.94406
21
-4.02478
0
LINE
8
BLACK
6
CONTINUOUS
10
5.94406
20
-4.02478
11
5.94619
21
-4.02158
0
LINE
8
BLACK
6
CONTINUOUS
10
5.94619
20
-4.02158
11
5.94938
21
-4.01945
0
LINE
8
BLACK
6
CONTINUOUS
10
5.94938
20
-4.01945
11
5.95315
21
-4.0187
0
LINE
8
BLACK
6
CONTINUOUS
10
5.95315
20
-4.0187
11
5.97972
21
-4.0187
0
LINE
8
BLACK
6
CONTINUOUS
10
5.97972
20
-4.0187
11
5.98349
21
-4.01945
0
LINE
8
BLACK
6
CONTINUOUS
10
5.14786
20
-4.02043
11
5.15105
21
-4.02257
0
LINE
8
BLACK
6
CONTINUOUS
10
5.15105
20
-4.02257
11
5.15319
21
-4.02576
0
LINE
8
BLACK
6
CONTINUOUS
10
5.15319
20
-4.02576
11
5.15394
21
-4.02953
0
LINE
8
BLACK
6
CONTINUOUS
10
5.15394
20
-4.02953
11
5.15394
21
-4.06496
0
LINE
8
BLACK
6
CONTINUOUS
10
5.15394
20
-4.06496
11
5.15319
21
-4.06873
0
LINE
8
BLACK
6
CONTINUOUS
10
5.15319
20
-4.06873
11
5.15105
21
-4.07192
0
LINE
8
BLACK
6
CONTINUOUS
10
5.15105
20
-4.07192
11
5.14786
21
-4.07405
0
LINE
8
BLACK
6
CONTINUOUS
10
5.14786
20
-4.07405
11
5.14409
21
-4.0748
0
LINE
8
BLACK
6
CONTINUOUS
10
5.14409
20
-4.0748
11
5.11654
21
-4.0748
0
LINE
8
BLACK
6
CONTINUOUS
10
5.11654
20
-4.0748
11
5.11277
21
-4.07405
0
LINE
8
BLACK
6
CONTINUOUS
10
5.11277
20
-4.07405
11
5.10958
21
-4.07192
0
LINE
8
BLACK
6
CONTINUOUS
10
5.10958
20
-4.07192
11
5.10744
21
-4.06873
0
LINE
8
BLACK
6
CONTINUOUS
10
5.10744
20
-4.06873
11
5.10669
21
-4.06496
0
LINE
8
BLACK
6
CONTINUOUS
10
5.10669
20
-4.06496
11
5.10669
21
-4.02953
0
LINE
8
BLACK
6
CONTINUOUS
10
5.10669
20
-4.02953
11
5.10744
21
-4.02576
0
LINE
8
BLACK
6
CONTINUOUS
10
5.10744
20
-4.02576
11
5.10958
21
-4.02257
0
LINE
8
BLACK
6
CONTINUOUS
10
5.10958
20
-4.02257
11
5.11277
21
-4.02043
0
LINE
8
BLACK
6
CONTINUOUS
10
5.11277
20
-4.02043
11
5.11654
21
-4.01969
0
LINE
8
BLACK
6
CONTINUOUS
10
5.11654
20
-4.01969
11
5.14409
21
-4.01969
0
LINE
8
BLACK
6
CONTINUOUS
10
5.14409
20
-4.01969
11
5.14786
21
-4.02043
0
LINE
8
BLACK
6
CONTINUOUS
10
5.2266
20
-4.02043
11
5.22979
21
-4.02257
0
LINE
8
BLACK
6
CONTINUOUS
10
5.22979
20
-4.02257
11
5.23193
21
-4.02576
0
LINE
8
BLACK
6
CONTINUOUS
10
5.23193
20
-4.02576
11
5.23268
21
-4.02953
0
LINE
8
BLACK
6
CONTINUOUS
10
5.23268
20
-4.02953
11
5.23268
21
-4.06496
0
LINE
8
BLACK
6
CONTINUOUS
10
5.23268
20
-4.06496
11
5.23193
21
-4.06873
0
LINE
8
BLACK
6
CONTINUOUS
10
5.23193
20
-4.06873
11
5.22979
21
-4.07192
0
LINE
8
BLACK
6
CONTINUOUS
10
5.22979
20
-4.07192
11
5.2266
21
-4.07405
0
LINE
8
BLACK
6
CONTINUOUS
10
5.2266
20
-4.07405
11
5.22283
21
-4.0748
0
LINE
8
BLACK
6
CONTINUOUS
10
5.22283
20
-4.0748
11
5.19528
21
-4.0748
0
LINE
8
BLACK
6
CONTINUOUS
10
5.19528
20
-4.0748
11
5.19151
21
-4.07405
0
LINE
8
BLACK
6
CONTINUOUS
10
5.19151
20
-4.07405
11
5.18832
21
-4.07192
0
LINE
8
BLACK
6
CONTINUOUS
10
5.18832
20
-4.07192
11
5.18618
21
-4.06873
0
LINE
8
BLACK
6
CONTINUOUS
10
5.18618
20
-4.06873
11
5.18543
21
-4.06496
0
LINE
8
BLACK
6
CONTINUOUS
10
5.18543
20
-4.06496
11
5.18543
21
-4.02953
0
LINE
8
BLACK
6
CONTINUOUS
10
5.18543
20
-4.02953
11
5.18618
21
-4.02576
0
LINE
8
BLACK
6
CONTINUOUS
10
5.18618
20
-4.02576
11
5.18832
21
-4.02257
0
LINE
8
BLACK
6
CONTINUOUS
10
5.18832
20
-4.02257
11
5.19151
21
-4.02043
0
LINE
8
BLACK
6
CONTINUOUS
10
5.19151
20
-4.02043
11
5.19528
21
-4.01969
0
LINE
8
BLACK
6
CONTINUOUS
10
5.19528
20
-4.01969
11
5.22283
21
-4.01969
0
LINE
8
BLACK
6
CONTINUOUS
10
5.22283
20
-4.01969
11
5.2266
21
-4.02043
0
LINE
8
BLACK
6
CONTINUOUS
10
5.44707
20
-3.99288
11
5.45027
21
-3.99501
0
LINE
8
BLACK
6
CONTINUOUS
10
5.45027
20
-3.99501
11
5.4524
21
-3.9982
0
LINE
8
BLACK
6
CONTINUOUS
10
5.4524
20
-3.9982
11
5.45315
21
-4.00197
0
LINE
8
BLACK
6
CONTINUOUS
10
5.45315
20
-4.00197
11
5.45315
21
-4.02953
0
LINE
8
BLACK
6
CONTINUOUS
10
5.45315
20
-4.02953
11
5.4524
21
-4.03329
0
LINE
8
BLACK
6
CONTINUOUS
10
5.4524
20
-4.03329
11
5.45027
21
-4.03649
0
LINE
8
BLACK
6
CONTINUOUS
10
5.45027
20
-4.03649
11
5.44707
21
-4.03862
0
LINE
8
BLACK
6
CONTINUOUS
10
5.44707
20
-4.03862
11
5.44331
21
-4.03937
0
LINE
8
BLACK
6
CONTINUOUS
10
5.44331
20
-4.03937
11
5.40787
21
-4.03937
0
LINE
8
BLACK
6
CONTINUOUS
10
5.40787
20
-4.03937
11
5.40411
21
-4.03862
0
LINE
8
BLACK
6
CONTINUOUS
10
5.40411
20
-4.03862
11
5.40091
21
-4.03649
0
LINE
8
BLACK
6
CONTINUOUS
10
5.40091
20
-4.03649
11
5.39878
21
-4.03329
0
LINE
8
BLACK
6
CONTINUOUS
10
5.39878
20
-4.03329
11
5.39803
21
-4.02953
0
LINE
8
BLACK
6
CONTINUOUS
10
5.39803
20
-4.02953
11
5.39803
21
-4.00197
0
LINE
8
BLACK
6
CONTINUOUS
10
5.39803
20
-4.00197
11
5.39878
21
-3.9982
0
LINE
8
BLACK
6
CONTINUOUS
10
5.39878
20
-3.9982
11
5.40091
21
-3.99501
0
LINE
8
BLACK
6
CONTINUOUS
10
5.40091
20
-3.99501
11
5.40411
21
-3.99288
0
LINE
8
BLACK
6
CONTINUOUS
10
5.40411
20
-3.99288
11
5.40787
21
-3.99213
0
LINE
8
BLACK
6
CONTINUOUS
10
5.40787
20
-3.99213
11
5.44331
21
-3.99213
0
LINE
8
BLACK
6
CONTINUOUS
10
5.44331
20
-3.99213
11
5.44707
21
-3.99288
0
LINE
8
BLACK
6
CONTINUOUS
10
6.14392
20
-3.985
11
6.14712
21
-3.98713
0
LINE
8
BLACK
6
CONTINUOUS
10
6.14712
20
-3.98713
11
6.14925
21
-3.99033
0
LINE
8
BLACK
6
CONTINUOUS
10
6.14925
20
-3.99033
11
6.15
21
-3.99409
0
LINE
8
BLACK
6
CONTINUOUS
10
6.15
20
-3.99409
11
6.15
21
-4.02953
0
LINE
8
BLACK
6
CONTINUOUS
10
6.15
20
-4.02953
11
6.14925
21
-4.03329
0
LINE
8
BLACK
6
CONTINUOUS
10
6.14925
20
-4.03329
11
6.14712
21
-4.03649
0
LINE
8
BLACK
6
CONTINUOUS
10
6.14712
20
-4.03649
11
6.14392
21
-4.03862
0
LINE
8
BLACK
6
CONTINUOUS
10
6.14392
20
-4.03862
11
6.14016
21
-4.03937
0
LINE
8
BLACK
6
CONTINUOUS
10
6.14016
20
-4.03937
11
6.1126
21
-4.03937
0
LINE
8
BLACK
6
CONTINUOUS
10
6.1126
20
-4.03937
11
6.10883
21
-4.03862
0
LINE
8
BLACK
6
CONTINUOUS
10
6.10883
20
-4.03862
11
6.10564
21
-4.03649
0
LINE
8
BLACK
6
CONTINUOUS
10
6.10564
20
-4.03649
11
6.10351
21
-4.03329
0
LINE
8
BLACK
6
CONTINUOUS
10
6.10351
20
-4.03329
11
6.10276
21
-4.02953
0
LINE
8
BLACK
6
CONTINUOUS
10
6.10276
20
-4.02953
11
6.10276
21
-3.99409
0
LINE
8
BLACK
6
CONTINUOUS
10
6.10276
20
-3.99409
11
6.10351
21
-3.99033
0
LINE
8
BLACK
6
CONTINUOUS
10
6.10351
20
-3.99033
11
6.10564
21
-3.98713
0
LINE
8
BLACK
6
CONTINUOUS
10
6.10564
20
-3.98713
11
6.10883
21
-3.985
0
LINE
8
BLACK
6
CONTINUOUS
10
6.10883
20
-3.985
11
6.1126
21
-3.98425
0
LINE
8
BLACK
6
CONTINUOUS
10
6.1126
20
-3.98425
11
6.14016
21
-3.98425
0
LINE
8
BLACK
6
CONTINUOUS
10
6.14016
20
-3.98425
11
6.14392
21
-3.985
0
LINE
8
BLACK
6
CONTINUOUS
10
6.22266
20
-3.985
11
6.22586
21
-3.98713
0
LINE
8
BLACK
6
CONTINUOUS
10
6.22586
20
-3.98713
11
6.22799
21
-3.99033
0
LINE
8
BLACK
6
CONTINUOUS
10
6.22799
20
-3.99033
11
6.22874
21
-3.99409
0
LINE
8
BLACK
6
CONTINUOUS
10
6.22874
20
-3.99409
11
6.22874
21
-4.02953
0
LINE
8
BLACK
6
CONTINUOUS
10
6.22874
20
-4.02953
11
6.22799
21
-4.03329
0
LINE
8
BLACK
6
CONTINUOUS
10
6.22799
20
-4.03329
11
6.22586
21
-4.03649
0
LINE
8
BLACK
6
CONTINUOUS
10
6.22586
20
-4.03649
11
6.22266
21
-4.03862
0
LINE
8
BLACK
6
CONTINUOUS
10
6.22266
20
-4.03862
11
6.2189
21
-4.03937
0
LINE
8
BLACK
6
CONTINUOUS
10
6.2189
20
-4.03937
11
6.19134
21
-4.03937
0
LINE
8
BLACK
6
CONTINUOUS
10
6.19134
20
-4.03937
11
6.18757
21
-4.03862
0
LINE
8
BLACK
6
CONTINUOUS
10
6.18757
20
-4.03862
11
6.18438
21
-4.03649
0
LINE
8
BLACK
6
CONTINUOUS
10
6.18438
20
-4.03649
11
6.18225
21
-4.03329
0
LINE
8
BLACK
6
CONTINUOUS
10
6.18225
20
-4.03329
11
6.1815
21
-4.02953
0
LINE
8
BLACK
6
CONTINUOUS
10
6.1815
20
-4.02953
11
6.1815
21
-3.99409
0
LINE
8
BLACK
6
CONTINUOUS
10
6.1815
20
-3.99409
11
6.18225
21
-3.99033
0
LINE
8
BLACK
6
CONTINUOUS
10
6.18225
20
-3.99033
11
6.18438
21
-3.98713
0
LINE
8
BLACK
6
CONTINUOUS
10
6.18438
20
-3.98713
11
6.18757
21
-3.985
0
LINE
8
BLACK
6
CONTINUOUS
10
6.18757
20
-3.985
11
6.19134
21
-3.98425
0
LINE
8
BLACK
6
CONTINUOUS
10
6.19134
20
-3.98425
11
6.2189
21
-3.98425
0
LINE
8
BLACK
6
CONTINUOUS
10
6.2189
20
-3.98425
11
6.22266
21
-3.985
0
LINE
8
BLACK
6
CONTINUOUS
10
5.14589
20
-3.94071
11
5.14909
21
-3.94284
0
LINE
8
BLACK
6
CONTINUOUS
10
5.14909
20
-3.94284
11
5.15122
21
-3.94604
0
LINE
8
BLACK
6
CONTINUOUS
10
5.15122
20
-3.94604
11
5.15197
21
-3.9498
0
LINE
8
BLACK
6
CONTINUOUS
10
5.15197
20
-3.9498
11
5.15197
21
-3.9872
0
LINE
8
BLACK
6
CONTINUOUS
10
5.15197
20
-3.9872
11
5.15122
21
-3.99097
0
LINE
8
BLACK
6
CONTINUOUS
10
5.15122
20
-3.99097
11
5.14909
21
-3.99416
0
LINE
8
BLACK
6
CONTINUOUS
10
5.14909
20
-3.99416
11
5.14589
21
-3.9963
0
LINE
8
BLACK
6
CONTINUOUS
10
5.14589
20
-3.9963
11
5.14213
21
-3.99705
0
LINE
8
BLACK
6
CONTINUOUS
10
5.14213
20
-3.99705
11
5.11555
21
-3.99705
0
LINE
8
BLACK
6
CONTINUOUS
10
5.11555
20
-3.99705
11
5.11178
21
-3.9963
0
LINE
8
BLACK
6
CONTINUOUS
10
5.11178
20
-3.9963
11
5.10859
21
-3.99416
0
LINE
8
BLACK
6
CONTINUOUS
10
5.10859
20
-3.99416
11
5.10646
21
-3.99097
0
LINE
8
BLACK
6
CONTINUOUS
10
5.10646
20
-3.99097
11
5.10571
21
-3.9872
0
LINE
8
BLACK
6
CONTINUOUS
10
5.10571
20
-3.9872
11
5.10571
21
-3.9498
0
LINE
8
BLACK
6
CONTINUOUS
10
5.10571
20
-3.9498
11
5.10646
21
-3.94604
0
LINE
8
BLACK
6
CONTINUOUS
10
5.10646
20
-3.94604
11
5.10859
21
-3.94284
0
LINE
8
BLACK
6
CONTINUOUS
10
5.10859
20
-3.94284
11
5.11178
21
-3.94071
0
LINE
8
BLACK
6
CONTINUOUS
10
5.11178
20
-3.94071
11
5.11555
21
-3.93996
0
LINE
8
BLACK
6
CONTINUOUS
10
5.11555
20
-3.93996
11
5.14213
21
-3.93996
0
LINE
8
BLACK
6
CONTINUOUS
10
5.14213
20
-3.93996
11
5.14589
21
-3.94071
0
LINE
8
BLACK
6
CONTINUOUS
10
5.22759
20
-3.94071
11
5.23078
21
-3.94284
0
LINE
8
BLACK
6
CONTINUOUS
10
5.23078
20
-3.94284
11
5.23291
21
-3.94604
0
LINE
8
BLACK
6
CONTINUOUS
10
5.23291
20
-3.94604
11
5.23366
21
-3.9498
0
LINE
8
BLACK
6
CONTINUOUS
10
5.23366
20
-3.9498
11
5.23366
21
-3.9872
0
LINE
8
BLACK
6
CONTINUOUS
10
5.23366
20
-3.9872
11
5.23291
21
-3.99097
0
LINE
8
BLACK
6
CONTINUOUS
10
5.23291
20
-3.99097
11
5.23078
21
-3.99416
0
LINE
8
BLACK
6
CONTINUOUS
10
5.23078
20
-3.99416
11
5.22759
21
-3.9963
0
LINE
8
BLACK
6
CONTINUOUS
10
5.22759
20
-3.9963
11
5.22382
21
-3.99705
0
LINE
8
BLACK
6
CONTINUOUS
10
5.22382
20
-3.99705
11
5.19724
21
-3.99705
0
LINE
8
BLACK
6
CONTINUOUS
10
5.19724
20
-3.99705
11
5.19348
21
-3.9963
0
LINE
8
BLACK
6
CONTINUOUS
10
5.19348
20
-3.9963
11
5.19028
21
-3.99416
0
LINE
8
BLACK
6
CONTINUOUS
10
5.19028
20
-3.99416
11
5.18815
21
-3.99097
0
LINE
8
BLACK
6
CONTINUOUS
10
5.18815
20
-3.99097
11
5.1874
21
-3.9872
0
LINE
8
BLACK
6
CONTINUOUS
10
5.1874
20
-3.9872
11
5.1874
21
-3.9498
0
LINE
8
BLACK
6
CONTINUOUS
10
5.1874
20
-3.9498
11
5.18815
21
-3.94604
0
LINE
8
BLACK
6
CONTINUOUS
10
5.18815
20
-3.94604
11
5.19028
21
-3.94284
0
LINE
8
BLACK
6
CONTINUOUS
10
5.19028
20
-3.94284
11
5.19348
21
-3.94071
0
LINE
8
BLACK
6
CONTINUOUS
10
5.19348
20
-3.94071
11
5.19724
21
-3.93996
0
LINE
8
BLACK
6
CONTINUOUS
10
5.19724
20
-3.93996
11
5.22382
21
-3.93996
0
LINE
8
BLACK
6
CONTINUOUS
10
5.22382
20
-3.93996
11
5.22759
21
-3.94071
0
LINE
8
BLACK
6
CONTINUOUS
10
5.90377
20
-3.93776
11
5.90696
21
-3.93989
0
LINE
8
BLACK
6
CONTINUOUS
10
5.90696
20
-3.93989
11
5.90909
21
-3.94308
0
LINE
8
BLACK
6
CONTINUOUS
10
5.90909
20
-3.94308
11
5.90984
21
-3.94685
0
LINE
8
BLACK
6
CONTINUOUS
10
5.90984
20
-3.94685
11
5.90984
21
-3.98228
0
LINE
8
BLACK
6
CONTINUOUS
10
5.90984
20
-3.98228
11
5.90909
21
-3.98605
0
LINE
8
BLACK
6
CONTINUOUS
10
5.90909
20
-3.98605
11
5.90696
21
-3.98924
0
LINE
8
BLACK
6
CONTINUOUS
10
5.90696
20
-3.98924
11
5.90377
21
-3.99138
0
LINE
8
BLACK
6
CONTINUOUS
10
5.90377
20
-3.99138
11
5.9
21
-3.99213
0
LINE
8
BLACK
6
CONTINUOUS
10
5.9
20
-3.99213
11
5.87244
21
-3.99213
0
LINE
8
BLACK
6
CONTINUOUS
10
5.87244
20
-3.99213
11
5.86867
21
-3.99138
0
LINE
8
BLACK
6
CONTINUOUS
10
5.86867
20
-3.99138
11
5.86548
21
-3.98924
0
LINE
8
BLACK
6
CONTINUOUS
10
5.86548
20
-3.98924
11
5.86335
21
-3.98605
0
LINE
8
BLACK
6
CONTINUOUS
10
5.86335
20
-3.98605
11
5.8626
21
-3.98228
0
LINE
8
BLACK
6
CONTINUOUS
10
5.8626
20
-3.98228
11
5.8626
21
-3.94685
0
LINE
8
BLACK
6
CONTINUOUS
10
5.8626
20
-3.94685
11
5.86335
21
-3.94308
0
LINE
8
BLACK
6
CONTINUOUS
10
5.86335
20
-3.94308
11
5.86548
21
-3.93989
0
LINE
8
BLACK
6
CONTINUOUS
10
5.86548
20
-3.93989
11
5.86867
21
-3.93776
0
LINE
8
BLACK
6
CONTINUOUS
10
5.86867
20
-3.93776
11
5.87244
21
-3.93701
0
LINE
8
BLACK
6
CONTINUOUS
10
5.87244
20
-3.93701
11
5.9
21
-3.93701
0
LINE
8
BLACK
6
CONTINUOUS
10
5.9
20
-3.93701
11
5.90377
21
-3.93776
0
LINE
8
BLACK
6
CONTINUOUS
10
5.98251
20
-3.93776
11
5.9857
21
-3.93989
0
LINE
8
BLACK
6
CONTINUOUS
10
5.9857
20
-3.93989
11
5.98783
21
-3.94308
0
LINE
8
BLACK
6
CONTINUOUS
10
5.98783
20
-3.94308
11
5.98858
21
-3.94685
0
LINE
8
BLACK
6
CONTINUOUS
10
5.98858
20
-3.94685
11
5.98858
21
-3.98228
0
LINE
8
BLACK
6
CONTINUOUS
10
5.98858
20
-3.98228
11
5.98783
21
-3.98605
0
LINE
8
BLACK
6
CONTINUOUS
10
5.98783
20
-3.98605
11
5.9857
21
-3.98924
0
LINE
8
BLACK
6
CONTINUOUS
10
5.9857
20
-3.98924
11
5.98251
21
-3.99138
0
LINE
8
BLACK
6
CONTINUOUS
10
5.98251
20
-3.99138
11
5.97874
21
-3.99213
0
LINE
8
BLACK
6
CONTINUOUS
10
5.97874
20
-3.99213
11
5.95118
21
-3.99213
0
LINE
8
BLACK
6
CONTINUOUS
10
5.95118
20
-3.99213
11
5.94741
21
-3.99138
0
LINE
8
BLACK
6
CONTINUOUS
10
5.94741
20
-3.99138
11
5.94422
21
-3.98924
0
LINE
8
BLACK
6
CONTINUOUS
10
5.94422
20
-3.98924
11
5.94209
21
-3.98605
0
LINE
8
BLACK
6
CONTINUOUS
10
5.94209
20
-3.98605
11
5.94134
21
-3.98228
0
LINE
8
BLACK
6
CONTINUOUS
10
5.94134
20
-3.98228
11
5.94134
21
-3.94685
0
LINE
8
BLACK
6
CONTINUOUS
10
5.94134
20
-3.94685
11
5.94209
21
-3.94308
0
LINE
8
BLACK
6
CONTINUOUS
10
5.94209
20
-3.94308
11
5.94422
21
-3.93989
0
LINE
8
BLACK
6
CONTINUOUS
10
5.94422
20
-3.93989
11
5.94741
21
-3.93776
0
LINE
8
BLACK
6
CONTINUOUS
10
5.94741
20
-3.93776
11
5.95118
21
-3.93701
0
LINE
8
BLACK
6
CONTINUOUS
10
5.95118
20
-3.93701
11
5.97874
21
-3.93701
0
LINE
8
BLACK
6
CONTINUOUS
10
5.97874
20
-3.93701
11
5.98251
21
-3.93776
0
LINE
8
BLACK
6
CONTINUOUS
10
6.05928
20
-3.90528
11
6.06247
21
-3.90741
0
LINE
8
BLACK
6
CONTINUOUS
10
6.06247
20
-3.90741
11
6.06461
21
-3.9106
0
LINE
8
BLACK
6
CONTINUOUS
10
6.06461
20
-3.9106
11
6.06535
21
-3.91437
0
LINE
8
BLACK
6
CONTINUOUS
10
6.06535
20
-3.91437
11
6.06535
21
-3.95177
0
LINE
8
BLACK
6
CONTINUOUS
10
6.06535
20
-3.95177
11
6.06461
21
-3.95554
0
LINE
8
BLACK
6
CONTINUOUS
10
6.06461
20
-3.95554
11
6.06247
21
-3.95873
0
LINE
8
BLACK
6
CONTINUOUS
10
6.06247
20
-3.95873
11
6.05928
21
-3.96086
0
LINE
8
BLACK
6
CONTINUOUS
10
6.05928
20
-3.96086
11
6.05551
21
-3.96161
0
LINE
8
BLACK
6
CONTINUOUS
10
6.05551
20
-3.96161
11
6.02894
21
-3.96161
0
LINE
8
BLACK
6
CONTINUOUS
10
6.02894
20
-3.96161
11
6.02517
21
-3.96086
0
LINE
8
BLACK
6
CONTINUOUS
10
6.02517
20
-3.96086
11
6.02198
21
-3.95873
0
LINE
8
BLACK
6
CONTINUOUS
10
6.02198
20
-3.95873
11
6.01984
21
-3.95554
0
LINE
8
BLACK
6
CONTINUOUS
10
6.01984
20
-3.95554
11
6.01909
21
-3.95177
0
LINE
8
BLACK
6
CONTINUOUS
10
6.01909
20
-3.95177
11
6.01909
21
-3.91437
0
LINE
8
BLACK
6
CONTINUOUS
10
6.01909
20
-3.91437
11
6.01984
21
-3.9106
0
LINE
8
BLACK
6
CONTINUOUS
10
6.01984
20
-3.9106
11
6.02198
21
-3.90741
0
LINE
8
BLACK
6
CONTINUOUS
10
6.02198
20
-3.90741
11
6.02517
21
-3.90528
0
LINE
8
BLACK
6
CONTINUOUS
10
6.02517
20
-3.90528
11
6.02894
21
-3.90453
0
LINE
8
BLACK
6
CONTINUOUS
10
6.02894
20
-3.90453
11
6.05551
21
-3.90453
0
LINE
8
BLACK
6
CONTINUOUS
10
6.05551
20
-3.90453
11
6.05928
21
-3.90528
0
LINE
8
BLACK
6
CONTINUOUS
10
6.14097
20
-3.90528
11
6.14416
21
-3.90741
0
LINE
8
BLACK
6
CONTINUOUS
10
6.14416
20
-3.90741
11
6.1463
21
-3.9106
0
LINE
8
BLACK
6
CONTINUOUS
10
6.1463
20
-3.9106
11
6.14705
21
-3.91437
0
LINE
8
BLACK
6
CONTINUOUS
10
6.14705
20
-3.91437
11
6.14705
21
-3.95177
0
LINE
8
BLACK
6
CONTINUOUS
10
6.14705
20
-3.95177
11
6.1463
21
-3.95554
0
LINE
8
BLACK
6
CONTINUOUS
10
6.1463
20
-3.95554
11
6.14416
21
-3.95873
0
LINE
8
BLACK
6
CONTINUOUS
10
6.14416
20
-3.95873
11
6.14097
21
-3.96086
0
LINE
8
BLACK
6
CONTINUOUS
10
6.14097
20
-3.96086
11
6.1372
21
-3.96161
0
LINE
8
BLACK
6
CONTINUOUS
10
6.1372
20
-3.96161
11
6.11063
21
-3.96161
0
LINE
8
BLACK
6
CONTINUOUS
10
6.11063
20
-3.96161
11
6.10686
21
-3.96086
0
LINE
8
BLACK
6
CONTINUOUS
10
6.10686
20
-3.96086
11
6.10367
21
-3.95873
0
LINE
8
BLACK
6
CONTINUOUS
10
6.10367
20
-3.95873
11
6.10154
21
-3.95554
0
LINE
8
BLACK
6
CONTINUOUS
10
6.10154
20
-3.95554
11
6.10079
21
-3.95177
0
LINE
8
BLACK
6
CONTINUOUS
10
6.10079
20
-3.95177
11
6.10079
21
-3.91437
0
LINE
8
BLACK
6
CONTINUOUS
10
6.10079
20
-3.91437
11
6.10154
21
-3.9106
0
LINE
8
BLACK
6
CONTINUOUS
10
6.10154
20
-3.9106
11
6.10367
21
-3.90741
0
LINE
8
BLACK
6
CONTINUOUS
10
6.10367
20
-3.90741
11
6.10686
21
-3.90528
0
LINE
8
BLACK
6
CONTINUOUS
10
6.10686
20
-3.90528
11
6.11063
21
-3.90453
0
LINE
8
BLACK
6
CONTINUOUS
10
6.11063
20
-3.90453
11
6.1372
21
-3.90453
0
LINE
8
BLACK
6
CONTINUOUS
10
6.1372
20
-3.90453
11
6.14097
21
-3.90528
0
LINE
8
BLACK
6
CONTINUOUS
10
5.44707
20
-3.91414
11
5.45027
21
-3.91627
0
LINE
8
BLACK
6
CONTINUOUS
10
5.45027
20
-3.91627
11
5.4524
21
-3.91946
0
LINE
8
BLACK
6
CONTINUOUS
10
5.4524
20
-3.91946
11
5.45315
21
-3.92323
0
LINE
8
BLACK
6
CONTINUOUS
10
5.45315
20
-3.92323
11
5.45315
21
-3.95079
0
LINE
8
BLACK
6
CONTINUOUS
10
5.45315
20
-3.95079
11
5.4524
21
-3.95455
0
LINE
8
BLACK
6
CONTINUOUS
10
5.4524
20
-3.95455
11
5.45027
21
-3.95775
0
LINE
8
BLACK
6
CONTINUOUS
10
5.45027
20
-3.95775
11
5.44707
21
-3.95988
0
LINE
8
BLACK
6
CONTINUOUS
10
5.44707
20
-3.95988
11
5.44331
21
-3.96063
0
LINE
8
BLACK
6
CONTINUOUS
10
5.44331
20
-3.96063
11
5.40787
21
-3.96063
0
LINE
8
BLACK
6
CONTINUOUS
10
5.40787
20
-3.96063
11
5.40411
21
-3.95988
0
LINE
8
BLACK
6
CONTINUOUS
10
5.40411
20
-3.95988
11
5.40091
21
-3.95775
0
LINE
8
BLACK
6
CONTINUOUS
10
5.40091
20
-3.95775
11
5.39878
21
-3.95455
0
LINE
8
BLACK
6
CONTINUOUS
10
5.39878
20
-3.95455
11
5.39803
21
-3.95079
0
LINE
8
BLACK
6
CONTINUOUS
10
5.39803
20
-3.95079
11
5.39803
21
-3.92323
0
LINE
8
BLACK
6
CONTINUOUS
10
5.39803
20
-3.92323
11
5.39878
21
-3.91946
0
LINE
8
BLACK
6
CONTINUOUS
10
5.39878
20
-3.91946
11
5.40091
21
-3.91627
0
LINE
8
BLACK
6
CONTINUOUS
10
5.40091
20
-3.91627
11
5.40411
21
-3.91414
0
LINE
8
BLACK
6
CONTINUOUS
10
5.40411
20
-3.91414
11
5.40787
21
-3.91339
0
LINE
8
BLACK
6
CONTINUOUS
10
5.40787
20
-3.91339
11
5.44331
21
-3.91339
0
LINE
8
BLACK
6
CONTINUOUS
10
5.44331
20
-3.91339
11
5.44707
21
-3.91414
0
LINE
8
BLACK
6
CONTINUOUS
10
5.6203
20
-3.87083
11
5.6235
21
-3.87296
0
LINE
8
BLACK
6
CONTINUOUS
10
5.6235
20
-3.87296
11
5.62563
21
-3.87615
0
LINE
8
BLACK
6
CONTINUOUS
10
5.62563
20
-3.87615
11
5.62638
21
-3.87992
0
LINE
8
BLACK
6
CONTINUOUS
10
5.62638
20
-3.87992
11
5.62638
21
-3.91535
0
LINE
8
BLACK
6
CONTINUOUS
10
5.62638
20
-3.91535
11
5.62563
21
-3.91912
0
LINE
8
BLACK
6
CONTINUOUS
10
5.62563
20
-3.91912
11
5.6235
21
-3.92231
0
LINE
8
BLACK
6
CONTINUOUS
10
5.6235
20
-3.92231
11
5.6203
21
-3.92445
0
LINE
8
BLACK
6
CONTINUOUS
10
5.6203
20
-3.92445
11
5.61654
21
-3.9252
0
LINE
8
BLACK
6
CONTINUOUS
10
5.61654
20
-3.9252
11
5.58898
21
-3.9252
0
LINE
8
BLACK
6
CONTINUOUS
10
5.58898
20
-3.9252
11
5.58521
21
-3.92445
0
LINE
8
BLACK
6
CONTINUOUS
10
5.58521
20
-3.92445
11
5.58202
21
-3.92231
0
LINE
8
BLACK
6
CONTINUOUS
10
5.58202
20
-3.92231
11
5.57988
21
-3.91912
0
LINE
8
BLACK
6
CONTINUOUS
10
5.57988
20
-3.91912
11
5.57913
21
-3.91535
0
LINE
8
BLACK
6
CONTINUOUS
10
5.57913
20
-3.91535
11
5.57913
21
-3.87992
0
LINE
8
BLACK
6
CONTINUOUS
10
5.57913
20
-3.87992
11
5.57988
21
-3.87615
0
LINE
8
BLACK
6
CONTINUOUS
10
5.57988
20
-3.87615
11
5.58202
21
-3.87296
0
LINE
8
BLACK
6
CONTINUOUS
10
5.58202
20
-3.87296
11
5.58521
21
-3.87083
0
LINE
8
BLACK
6
CONTINUOUS
10
5.58521
20
-3.87083
11
5.58898
21
-3.87008
0
LINE
8
BLACK
6
CONTINUOUS
10
5.58898
20
-3.87008
11
5.61654
21
-3.87008
0
LINE
8
BLACK
6
CONTINUOUS
10
5.61654
20
-3.87008
11
5.6203
21
-3.87083
0
LINE
8
BLACK
6
CONTINUOUS
10
5.69904
20
-3.87083
11
5.70224
21
-3.87296
0
LINE
8
BLACK
6
CONTINUOUS
10
5.70224
20
-3.87296
11
5.70437
21
-3.87615
0
LINE
8
BLACK
6
CONTINUOUS
10
5.70437
20
-3.87615
11
5.70512
21
-3.87992
0
LINE
8
BLACK
6
CONTINUOUS
10
5.70512
20
-3.87992
11
5.70512
21
-3.91535
0
LINE
8
BLACK
6
CONTINUOUS
10
5.70512
20
-3.91535
11
5.70437
21
-3.91912
0
LINE
8
BLACK
6
CONTINUOUS
10
5.70437
20
-3.91912
11
5.70224
21
-3.92231
0
LINE
8
BLACK
6
CONTINUOUS
10
5.70224
20
-3.92231
11
5.69904
21
-3.92445
0
LINE
8
BLACK
6
CONTINUOUS
10
5.69904
20
-3.92445
11
5.69528
21
-3.9252
0
LINE
8
BLACK
6
CONTINUOUS
10
5.69528
20
-3.9252
11
5.66772
21
-3.9252
0
LINE
8
BLACK
6
CONTINUOUS
10
5.66772
20
-3.9252
11
5.66395
21
-3.92445
0
LINE
8
BLACK
6
CONTINUOUS
10
5.66395
20
-3.92445
11
5.66076
21
-3.92231
0
LINE
8
BLACK
6
CONTINUOUS
10
5.66076
20
-3.92231
11
5.65862
21
-3.91912
0
LINE
8
BLACK
6
CONTINUOUS
10
5.65862
20
-3.91912
11
5.65787
21
-3.91535
0
LINE
8
BLACK
6
CONTINUOUS
10
5.65787
20
-3.91535
11
5.65787
21
-3.87992
0
LINE
8
BLACK
6
CONTINUOUS
10
5.65787
20
-3.87992
11
5.65862
21
-3.87615
0
LINE
8
BLACK
6
CONTINUOUS
10
5.65862
20
-3.87615
11
5.66076
21
-3.87296
0
LINE
8
BLACK
6
CONTINUOUS
10
5.66076
20
-3.87296
11
5.66395
21
-3.87083
0
LINE
8
BLACK
6
CONTINUOUS
10
5.66395
20
-3.87083
11
5.66772
21
-3.87008
0
LINE
8
BLACK
6
CONTINUOUS
10
5.66772
20
-3.87008
11
5.69528
21
-3.87008
0
LINE
8
BLACK
6
CONTINUOUS
10
5.69528
20
-3.87008
11
5.69904
21
-3.87083
0
LINE
8
BLACK
6
CONTINUOUS
10
5.25121
20
-3.84917
11
5.2544
21
-3.85131
0
LINE
8
BLACK
6
CONTINUOUS
10
5.2544
20
-3.85131
11
5.25653
21
-3.8545
0
LINE
8
BLACK
6
CONTINUOUS
10
5.25653
20
-3.8545
11
5.25728
21
-3.85827
0
LINE
8
BLACK
6
CONTINUOUS
10
5.25728
20
-3.85827
11
5.25728
21
-3.88484
0
LINE
8
BLACK
6
CONTINUOUS
10
5.25728
20
-3.88484
11
5.25653
21
-3.88861
0
LINE
8
BLACK
6
CONTINUOUS
10
5.25653
20
-3.88861
11
5.2544
21
-3.8918
0
LINE
8
BLACK
6
CONTINUOUS
10
5.2544
20
-3.8918
11
5.25121
21
-3.89394
0
LINE
8
BLACK
6
CONTINUOUS
10
5.25121
20
-3.89394
11
5.24744
21
-3.89469
0
LINE
8
BLACK
6
CONTINUOUS
10
5.24744
20
-3.89469
11
5.21004
21
-3.89469
0
LINE
8
BLACK
6
CONTINUOUS
10
5.21004
20
-3.89469
11
5.20627
21
-3.89394
0
LINE
8
BLACK
6
CONTINUOUS
10
5.20627
20
-3.89394
11
5.20308
21
-3.8918
0
LINE
8
BLACK
6
CONTINUOUS
10
5.20308
20
-3.8918
11
5.20095
21
-3.88861
0
LINE
8
BLACK
6
CONTINUOUS
10
5.20095
20
-3.88861
11
5.2002
21
-3.88484
0
LINE
8
BLACK
6
CONTINUOUS
10
5.2002
20
-3.88484
11
5.2002
21
-3.85827
0
LINE
8
BLACK
6
CONTINUOUS
10
5.2002
20
-3.85827
11
5.20095
21
-3.8545
0
LINE
8
BLACK
6
CONTINUOUS
10
5.20095
20
-3.8545
11
5.20308
21
-3.85131
0
LINE
8
BLACK
6
CONTINUOUS
10
5.20308
20
-3.85131
11
5.20627
21
-3.84917
0
LINE
8
BLACK
6
CONTINUOUS
10
5.20627
20
-3.84917
11
5.21004
21
-3.84843
0
LINE
8
BLACK
6
CONTINUOUS
10
5.21004
20
-3.84843
11
5.24744
21
-3.84843
0
LINE
8
BLACK
6
CONTINUOUS
10
5.24744
20
-3.84843
11
5.25121
21
-3.84917
0
LINE
8
BLACK
6
CONTINUOUS
10
6.2207
20
-3.81473
11
6.22389
21
-3.81686
0
LINE
8
BLACK
6
CONTINUOUS
10
6.22389
20
-3.81686
11
6.22602
21
-3.82005
0
LINE
8
BLACK
6
CONTINUOUS
10
6.22602
20
-3.82005
11
6.22677
21
-3.82382
0
LINE
8
BLACK
6
CONTINUOUS
10
6.22677
20
-3.82382
11
6.22677
21
-3.86122
0
LINE
8
BLACK
6
CONTINUOUS
10
6.22677
20
-3.86122
11
6.22602
21
-3.86499
0
LINE
8
BLACK
6
CONTINUOUS
10
6.22602
20
-3.86499
11
6.22389
21
-3.86818
0
LINE
8
BLACK
6
CONTINUOUS
10
6.22389
20
-3.86818
11
6.2207
21
-3.87031
0
LINE
8
BLACK
6
CONTINUOUS
10
6.2207
20
-3.87031
11
6.21693
21
-3.87106
0
LINE
8
BLACK
6
CONTINUOUS
10
6.21693
20
-3.87106
11
6.19035
21
-3.87106
0
LINE
8
BLACK
6
CONTINUOUS
10
6.19035
20
-3.87106
11
6.18659
21
-3.87031
0
LINE
8
BLACK
6
CONTINUOUS
10
6.18659
20
-3.87031
11
6.18339
21
-3.86818
0
LINE
8
BLACK
6
CONTINUOUS
10
6.18339
20
-3.86818
11
6.18126
21
-3.86499
0
LINE
8
BLACK
6
CONTINUOUS
10
6.18126
20
-3.86499
11
6.18051
21
-3.86122
0
LINE
8
BLACK
6
CONTINUOUS
10
6.18051
20
-3.86122
11
6.18051
21
-3.82382
0
LINE
8
BLACK
6
CONTINUOUS
10
6.18051
20
-3.82382
11
6.18126
21
-3.82005
0
LINE
8
BLACK
6
CONTINUOUS
10
6.18126
20
-3.82005
11
6.18339
21
-3.81686
0
LINE
8
BLACK
6
CONTINUOUS
10
6.18339
20
-3.81686
11
6.18659
21
-3.81473
0
LINE
8
BLACK
6
CONTINUOUS
10
6.18659
20
-3.81473
11
6.19035
21
-3.81398
0
LINE
8
BLACK
6
CONTINUOUS
10
6.19035
20
-3.81398
11
6.21693
21
-3.81398
0
LINE
8
BLACK
6
CONTINUOUS
10
6.21693
20
-3.81398
11
6.2207
21
-3.81473
0
LINE
8
BLACK
6
CONTINUOUS
10
6.30239
20
-3.81473
11
6.30558
21
-3.81686
0
LINE
8
BLACK
6
CONTINUOUS
10
6.30558
20
-3.81686
11
6.30772
21
-3.82005
0
LINE
8
BLACK
6
CONTINUOUS
10
6.30772
20
-3.82005
11
6.30846
21
-3.82382
0
LINE
8
BLACK
6
CONTINUOUS
10
6.30846
20
-3.82382
11
6.30846
21
-3.86122
0
LINE
8
BLACK
6
CONTINUOUS
10
6.30846
20
-3.86122
11
6.30772
21
-3.86499
0
LINE
8
BLACK
6
CONTINUOUS
10
6.30772
20
-3.86499
11
6.30558
21
-3.86818
0
LINE
8
BLACK
6
CONTINUOUS
10
6.30558
20
-3.86818
11
6.30239
21
-3.87031
0
LINE
8
BLACK
6
CONTINUOUS
10
6.30239
20
-3.87031
11
6.29862
21
-3.87106
0
LINE
8
BLACK
6
CONTINUOUS
10
6.29862
20
-3.87106
11
6.27205
21
-3.87106
0
LINE
8
BLACK
6
CONTINUOUS
10
6.27205
20
-3.87106
11
6.26828
21
-3.87031
0
LINE
8
BLACK
6
CONTINUOUS
10
6.26828
20
-3.87031
11
6.26509
21
-3.86818
0
LINE
8
BLACK
6
CONTINUOUS
10
6.26509
20
-3.86818
11
6.26295
21
-3.86499
0
LINE
8
BLACK
6
CONTINUOUS
10
6.26295
20
-3.86499
11
6.2622
21
-3.86122
0
LINE
8
BLACK
6
CONTINUOUS
10
6.2622
20
-3.86122
11
6.2622
21
-3.82382
0
LINE
8
BLACK
6
CONTINUOUS
10
6.2622
20
-3.82382
11
6.26295
21
-3.82005
0
LINE
8
BLACK
6
CONTINUOUS
10
6.26295
20
-3.82005
11
6.26509
21
-3.81686
0
LINE
8
BLACK
6
CONTINUOUS
10
6.26509
20
-3.81686
11
6.26828
21
-3.81473
0
LINE
8
BLACK
6
CONTINUOUS
10
6.26828
20
-3.81473
11
6.27205
21
-3.81398
0
LINE
8
BLACK
6
CONTINUOUS
10
6.27205
20
-3.81398
11
6.29862
21
-3.81398
0
LINE
8
BLACK
6
CONTINUOUS
10
6.29862
20
-3.81398
11
6.30239
21
-3.81473
0
LINE
8
BLACK
6
CONTINUOUS
10
5.35455
20
-3.80291
11
5.35775
21
-3.80505
0
LINE
8
BLACK
6
CONTINUOUS
10
5.35775
20
-3.80505
11
5.35988
21
-3.80824
0
LINE
8
BLACK
6
CONTINUOUS
10
5.35988
20
-3.80824
11
5.36063
21
-3.81201
0
LINE
8
BLACK
6
CONTINUOUS
10
5.36063
20
-3.81201
11
5.36063
21
-3.84941
0
LINE
8
BLACK
6
CONTINUOUS
10
5.36063
20
-3.84941
11
5.35988
21
-3.85318
0
LINE
8
BLACK
6
CONTINUOUS
10
5.35988
20
-3.85318
11
5.35775
21
-3.85637
0
LINE
8
BLACK
6
CONTINUOUS
10
5.35775
20
-3.85637
11
5.35455
21
-3.8585
0
LINE
8
BLACK
6
CONTINUOUS
10
5.35455
20
-3.8585
11
5.35079
21
-3.85925
0
LINE
8
BLACK
6
CONTINUOUS
10
5.35079
20
-3.85925
11
5.32421
21
-3.85925
0
LINE
8
BLACK
6
CONTINUOUS
10
5.32421
20
-3.85925
11
5.32045
21
-3.8585
0
LINE
8
BLACK
6
CONTINUOUS
10
5.32045
20
-3.8585
11
5.31725
21
-3.85637
0
LINE
8
BLACK
6
CONTINUOUS
10
5.31725
20
-3.85637
11
5.31512
21
-3.85318
0
LINE
8
BLACK
6
CONTINUOUS
10
5.31512
20
-3.85318
11
5.31437
21
-3.84941
0
LINE
8
BLACK
6
CONTINUOUS
10
5.31437
20
-3.84941
11
5.31437
21
-3.81201
0
LINE
8
BLACK
6
CONTINUOUS
10
5.31437
20
-3.81201
11
5.31512
21
-3.80824
0
LINE
8
BLACK
6
CONTINUOUS
10
5.31512
20
-3.80824
11
5.31725
21
-3.80505
0
LINE
8
BLACK
6
CONTINUOUS
10
5.31725
20
-3.80505
11
5.32045
21
-3.80291
0
LINE
8
BLACK
6
CONTINUOUS
10
5.32045
20
-3.80291
11
5.32421
21
-3.80217
0
LINE
8
BLACK
6
CONTINUOUS
10
5.32421
20
-3.80217
11
5.35079
21
-3.80217
0
LINE
8
BLACK
6
CONTINUOUS
10
5.35079
20
-3.80217
11
5.35455
21
-3.80291
0
LINE
8
BLACK
6
CONTINUOUS
10
5.43625
20
-3.80291
11
5.43944
21
-3.80505
0
LINE
8
BLACK
6
CONTINUOUS
10
5.43944
20
-3.80505
11
5.44157
21
-3.80824
0
LINE
8
BLACK
6
CONTINUOUS
10
5.44157
20
-3.80824
11
5.44232
21
-3.81201
0
LINE
8
BLACK
6
CONTINUOUS
10
5.44232
20
-3.81201
11
5.44232
21
-3.84941
0
LINE
8
BLACK
6
CONTINUOUS
10
5.44232
20
-3.84941
11
5.44157
21
-3.85318
0
LINE
8
BLACK
6
CONTINUOUS
10
5.44157
20
-3.85318
11
5.43944
21
-3.85637
0
LINE
8
BLACK
6
CONTINUOUS
10
5.43944
20
-3.85637
11
5.43625
21
-3.8585
0
LINE
8
BLACK
6
CONTINUOUS
10
5.43625
20
-3.8585
11
5.43248
21
-3.85925
0
LINE
8
BLACK
6
CONTINUOUS
10
5.43248
20
-3.85925
11
5.40591
21
-3.85925
0
LINE
8
BLACK
6
CONTINUOUS
10
5.40591
20
-3.85925
11
5.40214
21
-3.8585
0
LINE
8
BLACK
6
CONTINUOUS
10
5.40214
20
-3.8585
11
5.39895
21
-3.85637
0
LINE
8
BLACK
6
CONTINUOUS
10
5.39895
20
-3.85637
11
5.39681
21
-3.85318
0
LINE
8
BLACK
6
CONTINUOUS
10
5.39681
20
-3.85318
11
5.39606
21
-3.84941
0
LINE
8
BLACK
6
CONTINUOUS
10
5.39606
20
-3.84941
11
5.39606
21
-3.81201
0
LINE
8
BLACK
6
CONTINUOUS
10
5.39606
20
-3.81201
11
5.39681
21
-3.80824
0
LINE
8
BLACK
6
CONTINUOUS
10
5.39681
20
-3.80824
11
5.39895
21
-3.80505
0
LINE
8
BLACK
6
CONTINUOUS
10
5.39895
20
-3.80505
11
5.40214
21
-3.80291
0
LINE
8
BLACK
6
CONTINUOUS
10
5.40214
20
-3.80291
11
5.40591
21
-3.80217
0
LINE
8
BLACK
6
CONTINUOUS
10
5.40591
20
-3.80217
11
5.43248
21
-3.80217
0
LINE
8
BLACK
6
CONTINUOUS
10
5.43248
20
-3.80217
11
5.43625
21
-3.80291
0
LINE
8
BLACK
6
CONTINUOUS
10
5.59498
20
-3.76423
11
5.59689
21
-3.76551
0
LINE
8
BLACK
6
CONTINUOUS
10
5.59689
20
-3.76551
11
5.59817
21
-3.76743
0
LINE
8
BLACK
6
CONTINUOUS
10
5.59817
20
-3.76743
11
5.59862
21
-3.76969
0
LINE
8
BLACK
6
CONTINUOUS
10
5.59862
20
-3.76969
11
5.59862
21
-3.82677
0
LINE
8
BLACK
6
CONTINUOUS
10
5.59862
20
-3.82677
11
5.59817
21
-3.82903
0
LINE
8
BLACK
6
CONTINUOUS
10
5.59817
20
-3.82903
11
5.59689
21
-3.83095
0
LINE
8
BLACK
6
CONTINUOUS
10
5.59689
20
-3.83095
11
5.59498
21
-3.83223
0
LINE
8
BLACK
6
CONTINUOUS
10
5.59498
20
-3.83223
11
5.59272
21
-3.83268
0
LINE
8
BLACK
6
CONTINUOUS
10
5.59272
20
-3.83268
11
5.58091
21
-3.83268
0
LINE
8
BLACK
6
CONTINUOUS
10
5.58091
20
-3.83268
11
5.57865
21
-3.83223
0
LINE
8
BLACK
6
CONTINUOUS
10
5.57865
20
-3.83223
11
5.57673
21
-3.83095
0
LINE
8
BLACK
6
CONTINUOUS
10
5.57673
20
-3.83095
11
5.57545
21
-3.82903
0
LINE
8
BLACK
6
CONTINUOUS
10
5.57545
20
-3.82903
11
5.575
21
-3.82677
0
LINE
8
BLACK
6
CONTINUOUS
10
5.575
20
-3.82677
11
5.575
21
-3.76969
0
LINE
8
BLACK
6
CONTINUOUS
10
5.575
20
-3.76969
11
5.57545
21
-3.76743
0
LINE
8
BLACK
6
CONTINUOUS
10
5.57545
20
-3.76743
11
5.57673
21
-3.76551
0
LINE
8
BLACK
6
CONTINUOUS
10
5.57673
20
-3.76551
11
5.57865
21
-3.76423
0
LINE
8
BLACK
6
CONTINUOUS
10
5.57865
20
-3.76423
11
5.58091
21
-3.76378
0
LINE
8
BLACK
6
CONTINUOUS
10
5.58091
20
-3.76378
11
5.59272
21
-3.76378
0
LINE
8
BLACK
6
CONTINUOUS
10
5.59272
20
-3.76378
11
5.59498
21
-3.76423
0
LINE
8
BLACK
6
CONTINUOUS
10
5.64498
20
-3.76423
11
5.64689
21
-3.76551
0
LINE
8
BLACK
6
CONTINUOUS
10
5.64689
20
-3.76551
11
5.64817
21
-3.76743
0
LINE
8
BLACK
6
CONTINUOUS
10
5.64817
20
-3.76743
11
5.64862
21
-3.76969
0
LINE
8
BLACK
6
CONTINUOUS
10
5.64862
20
-3.76969
11
5.64862
21
-3.82677
0
LINE
8
BLACK
6
CONTINUOUS
10
5.64862
20
-3.82677
11
5.64817
21
-3.82903
0
LINE
8
BLACK
6
CONTINUOUS
10
5.64817
20
-3.82903
11
5.64689
21
-3.83095
0
LINE
8
BLACK
6
CONTINUOUS
10
5.64689
20
-3.83095
11
5.64498
21
-3.83223
0
LINE
8
BLACK
6
CONTINUOUS
10
5.64498
20
-3.83223
11
5.64272
21
-3.83268
0
LINE
8
BLACK
6
CONTINUOUS
10
5.64272
20
-3.83268
11
5.63091
21
-3.83268
0
LINE
8
BLACK
6
CONTINUOUS
10
5.63091
20
-3.83268
11
5.62865
21
-3.83223
0
LINE
8
BLACK
6
CONTINUOUS
10
5.62865
20
-3.83223
11
5.62673
21
-3.83095
0
LINE
8
BLACK
6
CONTINUOUS
10
5.62673
20
-3.83095
11
5.62545
21
-3.82903
0
LINE
8
BLACK
6
CONTINUOUS
10
5.62545
20
-3.82903
11
5.625
21
-3.82677
0
LINE
8
BLACK
6
CONTINUOUS
10
5.625
20
-3.82677
11
5.625
21
-3.76969
0
LINE
8
BLACK
6
CONTINUOUS
10
5.625
20
-3.76969
11
5.62545
21
-3.76743
0
LINE
8
BLACK
6
CONTINUOUS
10
5.62545
20
-3.76743
11
5.62673
21
-3.76551
0
LINE
8
BLACK
6
CONTINUOUS
10
5.62673
20
-3.76551
11
5.62865
21
-3.76423
0
LINE
8
BLACK
6
CONTINUOUS
10
5.62865
20
-3.76423
11
5.63091
21
-3.76378
0
LINE
8
BLACK
6
CONTINUOUS
10
5.63091
20
-3.76378
11
5.64272
21
-3.76378
0
LINE
8
BLACK
6
CONTINUOUS
10
5.64272
20
-3.76378
11
5.64498
21
-3.76423
0
LINE
8
BLACK
6
CONTINUOUS
10
5.69498
20
-3.76423
11
5.69689
21
-3.76551
0
LINE
8
BLACK
6
CONTINUOUS
10
5.69689
20
-3.76551
11
5.69817
21
-3.76743
0
LINE
8
BLACK
6
CONTINUOUS
10
5.69817
20
-3.76743
11
5.69862
21
-3.76969
0
LINE
8
BLACK
6
CONTINUOUS
10
5.69862
20
-3.76969
11
5.69862
21
-3.82677
0
LINE
8
BLACK
6
CONTINUOUS
10
5.69862
20
-3.82677
11
5.69817
21
-3.82903
0
LINE
8
BLACK
6
CONTINUOUS
10
5.69817
20
-3.82903
11
5.69689
21
-3.83095
0
LINE
8
BLACK
6
CONTINUOUS
10
5.69689
20
-3.83095
11
5.69498
21
-3.83223
0
LINE
8
BLACK
6
CONTINUOUS
10
5.69498
20
-3.83223
11
5.69272
21
-3.83268
0
LINE
8
BLACK
6
CONTINUOUS
10
5.69272
20
-3.83268
11
5.68091
21
-3.83268
0
LINE
8
BLACK
6
CONTINUOUS
10
5.68091
20
-3.83268
11
5.67865
21
-3.83223
0
LINE
8
BLACK
6
CONTINUOUS
10
5.67865
20
-3.83223
11
5.67673
21
-3.83095
0
LINE
8
BLACK
6
CONTINUOUS
10
5.67673
20
-3.83095
11
5.67545
21
-3.82903
0
LINE
8
BLACK
6
CONTINUOUS
10
5.67545
20
-3.82903
11
5.675
21
-3.82677
0
LINE
8
BLACK
6
CONTINUOUS
10
5.675
20
-3.82677
11
5.675
21
-3.76969
0
LINE
8
BLACK
6
CONTINUOUS
10
5.675
20
-3.76969
11
5.67545
21
-3.76743
0
LINE
8
BLACK
6
CONTINUOUS
10
5.67545
20
-3.76743
11
5.67673
21
-3.76551
0
LINE
8
BLACK
6
CONTINUOUS
10
5.67673
20
-3.76551
11
5.67865
21
-3.76423
0
LINE
8
BLACK
6
CONTINUOUS
10
5.67865
20
-3.76423
11
5.68091
21
-3.76378
0
LINE
8
BLACK
6
CONTINUOUS
10
5.68091
20
-3.76378
11
5.69272
21
-3.76378
0
LINE
8
BLACK
6
CONTINUOUS
10
5.69272
20
-3.76378
11
5.69498
21
-3.76423
0
LINE
8
BLACK
6
CONTINUOUS
10
5.74498
20
-3.76423
11
5.74689
21
-3.76551
0
LINE
8
BLACK
6
CONTINUOUS
10
5.74689
20
-3.76551
11
5.74817
21
-3.76743
0
LINE
8
BLACK
6
CONTINUOUS
10
5.74817
20
-3.76743
11
5.74862
21
-3.76969
0
LINE
8
BLACK
6
CONTINUOUS
10
5.74862
20
-3.76969
11
5.74862
21
-3.82677
0
LINE
8
BLACK
6
CONTINUOUS
10
5.74862
20
-3.82677
11
5.74817
21
-3.82903
0
LINE
8
BLACK
6
CONTINUOUS
10
5.74817
20
-3.82903
11
5.74689
21
-3.83095
0
LINE
8
BLACK
6
CONTINUOUS
10
5.74689
20
-3.83095
11
5.74498
21
-3.83223
0
LINE
8
BLACK
6
CONTINUOUS
10
5.74498
20
-3.83223
11
5.74272
21
-3.83268
0
LINE
8
BLACK
6
CONTINUOUS
10
5.74272
20
-3.83268
11
5.73091
21
-3.83268
0
LINE
8
BLACK
6
CONTINUOUS
10
5.73091
20
-3.83268
11
5.72865
21
-3.83223
0
LINE
8
BLACK
6
CONTINUOUS
10
5.72865
20
-3.83223
11
5.72673
21
-3.83095
0
LINE
8
BLACK
6
CONTINUOUS
10
5.72673
20
-3.83095
11
5.72545
21
-3.82903
0
LINE
8
BLACK
6
CONTINUOUS
10
5.72545
20
-3.82903
11
5.725
21
-3.82677
0
LINE
8
BLACK
6
CONTINUOUS
10
5.725
20
-3.82677
11
5.725
21
-3.76969
0
LINE
8
BLACK
6
CONTINUOUS
10
5.725
20
-3.76969
11
5.72545
21
-3.76743
0
LINE
8
BLACK
6
CONTINUOUS
10
5.72545
20
-3.76743
11
5.72673
21
-3.76551
0
LINE
8
BLACK
6
CONTINUOUS
10
5.72673
20
-3.76551
11
5.72865
21
-3.76423
0
LINE
8
BLACK
6
CONTINUOUS
10
5.72865
20
-3.76423
11
5.73091
21
-3.76378
0
LINE
8
BLACK
6
CONTINUOUS
10
5.73091
20
-3.76378
11
5.74272
21
-3.76378
0
LINE
8
BLACK
6
CONTINUOUS
10
5.74272
20
-3.76378
11
5.74498
21
-3.76423
0
LINE
8
BLACK
6
CONTINUOUS
10
5.25121
20
-3.76748
11
5.2544
21
-3.76962
0
LINE
8
BLACK
6
CONTINUOUS
10
5.2544
20
-3.76962
11
5.25653
21
-3.77281
0
LINE
8
BLACK
6
CONTINUOUS
10
5.25653
20
-3.77281
11
5.25728
21
-3.77657
0
LINE
8
BLACK
6
CONTINUOUS
10
5.25728
20
-3.77657
11
5.25728
21
-3.80315
0
LINE
8
BLACK
6
CONTINUOUS
10
5.25728
20
-3.80315
11
5.25653
21
-3.80692
0
LINE
8
BLACK
6
CONTINUOUS
10
5.25653
20
-3.80692
11
5.2544
21
-3.81011
0
LINE
8
BLACK
6
CONTINUOUS
10
5.2544
20
-3.81011
11
5.25121
21
-3.81224
0
LINE
8
BLACK
6
CONTINUOUS
10
5.25121
20
-3.81224
11
5.24744
21
-3.81299
0
LINE
8
BLACK
6
CONTINUOUS
10
5.24744
20
-3.81299
11
5.21004
21
-3.81299
0
LINE
8
BLACK
6
CONTINUOUS
10
5.21004
20
-3.81299
11
5.20627
21
-3.81224
0
LINE
8
BLACK
6
CONTINUOUS
10
5.20627
20
-3.81224
11
5.20308
21
-3.81011
0
LINE
8
BLACK
6
CONTINUOUS
10
5.20308
20
-3.81011
11
5.20095
21
-3.80692
0
LINE
8
BLACK
6
CONTINUOUS
10
5.20095
20
-3.80692
11
5.2002
21
-3.80315
0
LINE
8
BLACK
6
CONTINUOUS
10
5.2002
20
-3.80315
11
5.2002
21
-3.77657
0
LINE
8
BLACK
6
CONTINUOUS
10
5.2002
20
-3.77657
11
5.20095
21
-3.77281
0
LINE
8
BLACK
6
CONTINUOUS
10
5.20095
20
-3.77281
11
5.20308
21
-3.76962
0
LINE
8
BLACK
6
CONTINUOUS
10
5.20308
20
-3.76962
11
5.20627
21
-3.76748
0
LINE
8
BLACK
6
CONTINUOUS
10
5.20627
20
-3.76748
11
5.21004
21
-3.76673
0
LINE
8
BLACK
6
CONTINUOUS
10
5.21004
20
-3.76673
11
5.24744
21
-3.76673
0
LINE
8
BLACK
6
CONTINUOUS
10
5.24744
20
-3.76673
11
5.25121
21
-3.76748
0
LINE
8
BLACK
6
CONTINUOUS
10
6.41998
20
-3.7224
11
6.42189
21
-3.72368
0
LINE
8
BLACK
6
CONTINUOUS
10
6.42189
20
-3.72368
11
6.42317
21
-3.72559
0
LINE
8
BLACK
6
CONTINUOUS
10
6.42317
20
-3.72559
11
6.42362
21
-3.72785
0
LINE
8
BLACK
6
CONTINUOUS
10
6.42362
20
-3.72785
11
6.42362
21
-3.77411
0
LINE
8
BLACK
6
CONTINUOUS
10
6.42362
20
-3.77411
11
6.42317
21
-3.77637
0
LINE
8
BLACK
6
CONTINUOUS
10
6.42317
20
-3.77637
11
6.42189
21
-3.77829
0
LINE
8
BLACK
6
CONTINUOUS
10
6.42189
20
-3.77829
11
6.41998
21
-3.77957
0
LINE
8
BLACK
6
CONTINUOUS
10
6.41998
20
-3.77957
11
6.41772
21
-3.78002
0
LINE
8
BLACK
6
CONTINUOUS
10
6.41772
20
-3.78002
11
6.40591
21
-3.78002
0
LINE
8
BLACK
6
CONTINUOUS
10
6.40591
20
-3.78002
11
6.40365
21
-3.77957
0
LINE
8
BLACK
6
CONTINUOUS
10
6.40365
20
-3.77957
11
6.40173
21
-3.77829
0
LINE
8
BLACK
6
CONTINUOUS
10
6.40173
20
-3.77829
11
6.40045
21
-3.77637
0
LINE
8
BLACK
6
CONTINUOUS
10
6.40045
20
-3.77637
11
6.4
21
-3.77411
0
LINE
8
BLACK
6
CONTINUOUS
10
6.4
20
-3.77411
11
6.4
21
-3.72785
0
LINE
8
BLACK
6
CONTINUOUS
10
6.4
20
-3.72785
11
6.40045
21
-3.72559
0
LINE
8
BLACK
6
CONTINUOUS
10
6.40045
20
-3.72559
11
6.40173
21
-3.72368
0
LINE
8
BLACK
6
CONTINUOUS
10
6.40173
20
-3.72368
11
6.40365
21
-3.7224
0
LINE
8
BLACK
6
CONTINUOUS
10
6.40365
20
-3.7224
11
6.40591
21
-3.72195
0
LINE
8
BLACK
6
CONTINUOUS
10
6.40591
20
-3.72195
11
6.41772
21
-3.72195
0
LINE
8
BLACK
6
CONTINUOUS
10
6.41772
20
-3.72195
11
6.41998
21
-3.7224
0
LINE
8
BLACK
6
CONTINUOUS
10
5.47857
20
-3.73303
11
5.48176
21
-3.73517
0
LINE
8
BLACK
6
CONTINUOUS
10
5.48176
20
-3.73517
11
5.4839
21
-3.73836
0
LINE
8
BLACK
6
CONTINUOUS
10
5.4839
20
-3.73836
11
5.48465
21
-3.74213
0
LINE
8
BLACK
6
CONTINUOUS
10
5.48465
20
-3.74213
11
5.48465
21
-3.76969
0
LINE
8
BLACK
6
CONTINUOUS
10
5.48465
20
-3.76969
11
5.4839
21
-3.77345
0
LINE
8
BLACK
6
CONTINUOUS
10
5.4839
20
-3.77345
11
5.48176
21
-3.77664
0
LINE
8
BLACK
6
CONTINUOUS
10
5.48176
20
-3.77664
11
5.47857
21
-3.77878
0
LINE
8
BLACK
6
CONTINUOUS
10
5.47857
20
-3.77878
11
5.4748
21
-3.77953
0
LINE
8
BLACK
6
CONTINUOUS
10
5.4748
20
-3.77953
11
5.43937
21
-3.77953
0
LINE
8
BLACK
6
CONTINUOUS
10
5.43937
20
-3.77953
11
5.4356
21
-3.77878
0
LINE
8
BLACK
6
CONTINUOUS
10
5.4356
20
-3.77878
11
5.43241
21
-3.77664
0
LINE
8
BLACK
6
CONTINUOUS
10
5.43241
20
-3.77664
11
5.43028
21
-3.77345
0
LINE
8
BLACK
6
CONTINUOUS
10
5.43028
20
-3.77345
11
5.42953
21
-3.76969
0
LINE
8
BLACK
6
CONTINUOUS
10
5.42953
20
-3.76969
11
5.42953
21
-3.74213
0
LINE
8
BLACK
6
CONTINUOUS
10
5.42953
20
-3.74213
11
5.43028
21
-3.73836
0
LINE
8
BLACK
6
CONTINUOUS
10
5.43028
20
-3.73836
11
5.43241
21
-3.73517
0
LINE
8
BLACK
6
CONTINUOUS
10
5.43241
20
-3.73517
11
5.4356
21
-3.73303
0
LINE
8
BLACK
6
CONTINUOUS
10
5.4356
20
-3.73303
11
5.43937
21
-3.73228
0
LINE
8
BLACK
6
CONTINUOUS
10
5.43937
20
-3.73228
11
5.4748
21
-3.73228
0
LINE
8
BLACK
6
CONTINUOUS
10
5.4748
20
-3.73228
11
5.47857
21
-3.73303
0
LINE
8
BLACK
6
CONTINUOUS
10
6.20888
20
-3.73106
11
6.21208
21
-3.7332
0
LINE
8
BLACK
6
CONTINUOUS
10
6.21208
20
-3.7332
11
6.21421
21
-3.73639
0
LINE
8
BLACK
6
CONTINUOUS
10
6.21421
20
-3.73639
11
6.21496
21
-3.74016
0
LINE
8
BLACK
6
CONTINUOUS
10
6.21496
20
-3.74016
11
6.21496
21
-3.76378
0
LINE
8
BLACK
6
CONTINUOUS
10
6.21496
20
-3.76378
11
6.21421
21
-3.76755
0
LINE
8
BLACK
6
CONTINUOUS
10
6.21421
20
-3.76755
11
6.21208
21
-3.77074
0
LINE
8
BLACK
6
CONTINUOUS
10
6.21208
20
-3.77074
11
6.20888
21
-3.77287
0
LINE
8
BLACK
6
CONTINUOUS
10
6.20888
20
-3.77287
11
6.20512
21
-3.77362
0
LINE
8
BLACK
6
CONTINUOUS
10
6.20512
20
-3.77362
11
6.1815
21
-3.77362
0
LINE
8
BLACK
6
CONTINUOUS
10
6.1815
20
-3.77362
11
6.17773
21
-3.77287
0
LINE
8
BLACK
6
CONTINUOUS
10
6.17773
20
-3.77287
11
6.17454
21
-3.77074
0
LINE
8
BLACK
6
CONTINUOUS
10
6.17454
20
-3.77074
11
6.1724
21
-3.76755
0
LINE
8
BLACK
6
CONTINUOUS
10
6.1724
20
-3.76755
11
6.17165
21
-3.76378
0
LINE
8
BLACK
6
CONTINUOUS
10
6.17165
20
-3.76378
11
6.17165
21
-3.74016
0
LINE
8
BLACK
6
CONTINUOUS
10
6.17165
20
-3.74016
11
6.1724
21
-3.73639
0
LINE
8
BLACK
6
CONTINUOUS
10
6.1724
20
-3.73639
11
6.17454
21
-3.7332
0
LINE
8
BLACK
6
CONTINUOUS
10
6.17454
20
-3.7332
11
6.17773
21
-3.73106
0
LINE
8
BLACK
6
CONTINUOUS
10
6.17773
20
-3.73106
11
6.1815
21
-3.73031
0
LINE
8
BLACK
6
CONTINUOUS
10
6.1815
20
-3.73031
11
6.20512
21
-3.73031
0
LINE
8
BLACK
6
CONTINUOUS
10
6.20512
20
-3.73031
11
6.20888
21
-3.73106
0
LINE
8
BLACK
6
CONTINUOUS
10
6.31912
20
-3.73106
11
6.32231
21
-3.7332
0
LINE
8
BLACK
6
CONTINUOUS
10
6.32231
20
-3.7332
11
6.32445
21
-3.73639
0
LINE
8
BLACK
6
CONTINUOUS
10
6.32445
20
-3.73639
11
6.3252
21
-3.74016
0
LINE
8
BLACK
6
CONTINUOUS
10
6.3252
20
-3.74016
11
6.3252
21
-3.76378
0
LINE
8
BLACK
6
CONTINUOUS
10
6.3252
20
-3.76378
11
6.32445
21
-3.76755
0
LINE
8
BLACK
6
CONTINUOUS
10
6.32445
20
-3.76755
11
6.32231
21
-3.77074
0
LINE
8
BLACK
6
CONTINUOUS
10
6.32231
20
-3.77074
11
6.31912
21
-3.77287
0
LINE
8
BLACK
6
CONTINUOUS
10
6.31912
20
-3.77287
11
6.31535
21
-3.77362
0
LINE
8
BLACK
6
CONTINUOUS
10
6.31535
20
-3.77362
11
6.29173
21
-3.77362
0
LINE
8
BLACK
6
CONTINUOUS
10
6.29173
20
-3.77362
11
6.28797
21
-3.77287
0
LINE
8
BLACK
6
CONTINUOUS
10
6.28797
20
-3.77287
11
6.28477
21
-3.77074
0
LINE
8
BLACK
6
CONTINUOUS
10
6.28477
20
-3.77074
11
6.28264
21
-3.76755
0
LINE
8
BLACK
6
CONTINUOUS
10
6.28264
20
-3.76755
11
6.28189
21
-3.76378
0
LINE
8
BLACK
6
CONTINUOUS
10
6.28189
20
-3.76378
11
6.28189
21
-3.74016
0
LINE
8
BLACK
6
CONTINUOUS
10
6.28189
20
-3.74016
11
6.28264
21
-3.73639
0
LINE
8
BLACK
6
CONTINUOUS
10
6.28264
20
-3.73639
11
6.28477
21
-3.7332
0
LINE
8
BLACK
6
CONTINUOUS
10
6.28477
20
-3.7332
11
6.28797
21
-3.73106
0
LINE
8
BLACK
6
CONTINUOUS
10
6.28797
20
-3.73106
11
6.29173
21
-3.73031
0
LINE
8
BLACK
6
CONTINUOUS
10
6.29173
20
-3.73031
11
6.31535
21
-3.73031
0
LINE
8
BLACK
6
CONTINUOUS
10
6.31535
20
-3.73031
11
6.31912
21
-3.73106
0
LINE
8
BLACK
6
CONTINUOUS
10
5.25022
20
-3.6976
11
5.25342
21
-3.69973
0
LINE
8
BLACK
6
CONTINUOUS
10
5.25342
20
-3.69973
11
5.25555
21
-3.70293
0
LINE
8
BLACK
6
CONTINUOUS
10
5.25555
20
-3.70293
11
5.2563
21
-3.70669
0
LINE
8
BLACK
6
CONTINUOUS
10
5.2563
20
-3.70669
11
5.2563
21
-3.73425
0
LINE
8
BLACK
6
CONTINUOUS
10
5.2563
20
-3.73425
11
5.25555
21
-3.73802
0
LINE
8
BLACK
6
CONTINUOUS
10
5.25555
20
-3.73802
11
5.25342
21
-3.74121
0
LINE
8
BLACK
6
CONTINUOUS
10
5.25342
20
-3.74121
11
5.25022
21
-3.74335
0
LINE
8
BLACK
6
CONTINUOUS
10
5.25022
20
-3.74335
11
5.24646
21
-3.74409
0
LINE
8
BLACK
6
CONTINUOUS
10
5.24646
20
-3.74409
11
5.21102
21
-3.74409
0
LINE
8
BLACK
6
CONTINUOUS
10
5.21102
20
-3.74409
11
5.20726
21
-3.74335
0
LINE
8
BLACK
6
CONTINUOUS
10
5.20726
20
-3.74335
11
5.20406
21
-3.74121
0
LINE
8
BLACK
6
CONTINUOUS
10
5.20406
20
-3.74121
11
5.20193
21
-3.73802
0
LINE
8
BLACK
6
CONTINUOUS
10
5.20193
20
-3.73802
11
5.20118
21
-3.73425
0
LINE
8
BLACK
6
CONTINUOUS
10
5.20118
20
-3.73425
11
5.20118
21
-3.70669
0
LINE
8
BLACK
6
CONTINUOUS
10
5.20118
20
-3.70669
11
5.20193
21
-3.70293
0
LINE
8
BLACK
6
CONTINUOUS
10
5.20193
20
-3.70293
11
5.20406
21
-3.69973
0
LINE
8
BLACK
6
CONTINUOUS
10
5.20406
20
-3.69973
11
5.20726
21
-3.6976
0
LINE
8
BLACK
6
CONTINUOUS
10
5.20726
20
-3.6976
11
5.21102
21
-3.69685
0
LINE
8
BLACK
6
CONTINUOUS
10
5.21102
20
-3.69685
11
5.24646
21
-3.69685
0
LINE
8
BLACK
6
CONTINUOUS
10
5.24646
20
-3.69685
11
5.25022
21
-3.6976
0
LINE
8
BLACK
6
CONTINUOUS
10
6.38257
20
-3.64858
11
6.38449
21
-3.64986
0
LINE
8
BLACK
6
CONTINUOUS
10
6.38449
20
-3.64986
11
6.38577
21
-3.65178
0
LINE
8
BLACK
6
CONTINUOUS
10
6.38577
20
-3.65178
11
6.38622
21
-3.65404
0
LINE
8
BLACK
6
CONTINUOUS
10
6.38622
20
-3.65404
11
6.38622
21
-3.7003
0
LINE
8
BLACK
6
CONTINUOUS
10
6.38622
20
-3.7003
11
6.38577
21
-3.70256
0
LINE
8
BLACK
6
CONTINUOUS
10
6.38577
20
-3.70256
11
6.38449
21
-3.70447
0
LINE
8
BLACK
6
CONTINUOUS
10
6.38449
20
-3.70447
11
6.38257
21
-3.70575
0
LINE
8
BLACK
6
CONTINUOUS
10
6.38257
20
-3.70575
11
6.38031
21
-3.7062
0
LINE
8
BLACK
6
CONTINUOUS
10
6.38031
20
-3.7062
11
6.3685
21
-3.7062
0
LINE
8
BLACK
6
CONTINUOUS
10
6.3685
20
-3.7062
11
6.36624
21
-3.70575
0
LINE
8
BLACK
6
CONTINUOUS
10
6.36624
20
-3.70575
11
6.36433
21
-3.70447
0
LINE
8
BLACK
6
CONTINUOUS
10
6.36433
20
-3.70447
11
6.36305
21
-3.70256
0
LINE
8
BLACK
6
CONTINUOUS
10
6.36305
20
-3.70256
11
6.3626
21
-3.7003
0
LINE
8
BLACK
6
CONTINUOUS
10
6.3626
20
-3.7003
11
6.3626
21
-3.65404
0
LINE
8
BLACK
6
CONTINUOUS
10
6.3626
20
-3.65404
11
6.36305
21
-3.65178
0
LINE
8
BLACK
6
CONTINUOUS
10
6.36305
20
-3.65178
11
6.36433
21
-3.64986
0
LINE
8
BLACK
6
CONTINUOUS
10
6.36433
20
-3.64986
11
6.36624
21
-3.64858
0
LINE
8
BLACK
6
CONTINUOUS
10
6.36624
20
-3.64858
11
6.3685
21
-3.64813
0
LINE
8
BLACK
6
CONTINUOUS
10
6.3685
20
-3.64813
11
6.38031
21
-3.64813
0
LINE
8
BLACK
6
CONTINUOUS
10
6.38031
20
-3.64813
11
6.38257
21
-3.64858
0
LINE
8
BLACK
6
CONTINUOUS
10
6.45738
20
-3.64858
11
6.45929
21
-3.64986
0
LINE
8
BLACK
6
CONTINUOUS
10
6.45929
20
-3.64986
11
6.46057
21
-3.65178
0
LINE
8
BLACK
6
CONTINUOUS
10
6.46057
20
-3.65178
11
6.46102
21
-3.65404
0
LINE
8
BLACK
6
CONTINUOUS
10
6.46102
20
-3.65404
11
6.46102
21
-3.7003
0
LINE
8
BLACK
6
CONTINUOUS
10
6.46102
20
-3.7003
11
6.46057
21
-3.70256
0
LINE
8
BLACK
6
CONTINUOUS
10
6.46057
20
-3.70256
11
6.45929
21
-3.70447
0
LINE
8
BLACK
6
CONTINUOUS
10
6.45929
20
-3.70447
11
6.45738
21
-3.70575
0
LINE
8
BLACK
6
CONTINUOUS
10
6.45738
20
-3.70575
11
6.45512
21
-3.7062
0
LINE
8
BLACK
6
CONTINUOUS
10
6.45512
20
-3.7062
11
6.44331
21
-3.7062
0
LINE
8
BLACK
6
CONTINUOUS
10
6.44331
20
-3.7062
11
6.44105
21
-3.70575
0
LINE
8
BLACK
6
CONTINUOUS
10
6.44105
20
-3.70575
11
6.43913
21
-3.70447
0
LINE
8
BLACK
6
CONTINUOUS
10
6.43913
20
-3.70447
11
6.43785
21
-3.70256
0
LINE
8
BLACK
6
CONTINUOUS
10
6.43785
20
-3.70256
11
6.4374
21
-3.7003
0
LINE
8
BLACK
6
CONTINUOUS
10
6.4374
20
-3.7003
11
6.4374
21
-3.65404
0
LINE
8
BLACK
6
CONTINUOUS
10
6.4374
20
-3.65404
11
6.43785
21
-3.65178
0
LINE
8
BLACK
6
CONTINUOUS
10
6.43785
20
-3.65178
11
6.43913
21
-3.64986
0
LINE
8
BLACK
6
CONTINUOUS
10
6.43913
20
-3.64986
11
6.44105
21
-3.64858
0
LINE
8
BLACK
6
CONTINUOUS
10
6.44105
20
-3.64858
11
6.44331
21
-3.64813
0
LINE
8
BLACK
6
CONTINUOUS
10
6.44331
20
-3.64813
11
6.45512
21
-3.64813
0
LINE
8
BLACK
6
CONTINUOUS
10
6.45512
20
-3.64813
11
6.45738
21
-3.64858
0
LINE
8
BLACK
6
CONTINUOUS
10
5.47857
20
-3.65429
11
5.48176
21
-3.65643
0
LINE
8
BLACK
6
CONTINUOUS
10
5.48176
20
-3.65643
11
5.4839
21
-3.65962
0
LINE
8
BLACK
6
CONTINUOUS
10
5.4839
20
-3.65962
11
5.48465
21
-3.66339
0
LINE
8
BLACK
6
CONTINUOUS
10
5.48465
20
-3.66339
11
5.48465
21
-3.69094
0
LINE
8
BLACK
6
CONTINUOUS
10
5.48465
20
-3.69094
11
5.4839
21
-3.69471
0
LINE
8
BLACK
6
CONTINUOUS
10
5.4839
20
-3.69471
11
5.48176
21
-3.6979
0
LINE
8
BLACK
6
CONTINUOUS
10
5.48176
20
-3.6979
11
5.47857
21
-3.70004
0
LINE
8
BLACK
6
CONTINUOUS
10
5.47857
20
-3.70004
11
5.4748
21
-3.70079
0
LINE
8
BLACK
6
CONTINUOUS
10
5.4748
20
-3.70079
11
5.43937
21
-3.70079
0
LINE
8
BLACK
6
CONTINUOUS
10
5.43937
20
-3.70079
11
5.4356
21
-3.70004
0
LINE
8
BLACK
6
CONTINUOUS
10
5.4356
20
-3.70004
11
5.43241
21
-3.6979
0
LINE
8
BLACK
6
CONTINUOUS
10
5.43241
20
-3.6979
11
5.43028
21
-3.69471
0
LINE
8
BLACK
6
CONTINUOUS
10
5.43028
20
-3.69471
11
5.42953
21
-3.69094
0
LINE
8
BLACK
6
CONTINUOUS
10
5.42953
20
-3.69094
11
5.42953
21
-3.66339
0
LINE
8
BLACK
6
CONTINUOUS
10
5.42953
20
-3.66339
11
5.43028
21
-3.65962
0
LINE
8
BLACK
6
CONTINUOUS
10
5.43028
20
-3.65962
11
5.43241
21
-3.65643
0
LINE
8
BLACK
6
CONTINUOUS
10
5.43241
20
-3.65643
11
5.4356
21
-3.65429
0
LINE
8
BLACK
6
CONTINUOUS
10
5.4356
20
-3.65429
11
5.43937
21
-3.65354
0
LINE
8
BLACK
6
CONTINUOUS
10
5.43937
20
-3.65354
11
5.4748
21
-3.65354
0
LINE
8
BLACK
6
CONTINUOUS
10
5.4748
20
-3.65354
11
5.47857
21
-3.65429
0
LINE
8
BLACK
6
CONTINUOUS
10
6.27483
20
-3.63264
11
6.27802
21
-3.63477
0
LINE
8
BLACK
6
CONTINUOUS
10
6.27802
20
-3.63477
11
6.28016
21
-3.63797
0
LINE
8
BLACK
6
CONTINUOUS
10
6.28016
20
-3.63797
11
6.28091
21
-3.64173
0
LINE
8
BLACK
6
CONTINUOUS
10
6.28091
20
-3.64173
11
6.28091
21
-3.66831
0
LINE
8
BLACK
6
CONTINUOUS
10
6.28091
20
-3.66831
11
6.28016
21
-3.67207
0
LINE
8
BLACK
6
CONTINUOUS
10
6.28016
20
-3.67207
11
6.27802
21
-3.67527
0
LINE
8
BLACK
6
CONTINUOUS
10
6.27802
20
-3.67527
11
6.27483
21
-3.6774
0
LINE
8
BLACK
6
CONTINUOUS
10
6.27483
20
-3.6774
11
6.27106
21
-3.67815
0
LINE
8
BLACK
6
CONTINUOUS
10
6.27106
20
-3.67815
11
6.23366
21
-3.67815
0
LINE
8
BLACK
6
CONTINUOUS
10
6.23366
20
-3.67815
11
6.22989
21
-3.6774
0
LINE
8
BLACK
6
CONTINUOUS
10
6.22989
20
-3.6774
11
6.2267
21
-3.67527
0
LINE
8
BLACK
6
CONTINUOUS
10
6.2267
20
-3.67527
11
6.22457
21
-3.67207
0
LINE
8
BLACK
6
CONTINUOUS
10
6.22457
20
-3.67207
11
6.22382
21
-3.66831
0
LINE
8
BLACK
6
CONTINUOUS
10
6.22382
20
-3.66831
11
6.22382
21
-3.64173
0
LINE
8
BLACK
6
CONTINUOUS
10
6.22382
20
-3.64173
11
6.22457
21
-3.63797
0
LINE
8
BLACK
6
CONTINUOUS
10
6.22457
20
-3.63797
11
6.2267
21
-3.63477
0
LINE
8
BLACK
6
CONTINUOUS
10
6.2267
20
-3.63477
11
6.22989
21
-3.63264
0
LINE
8
BLACK
6
CONTINUOUS
10
6.22989
20
-3.63264
11
6.23366
21
-3.63189
0
LINE
8
BLACK
6
CONTINUOUS
10
6.23366
20
-3.63189
11
6.27106
21
-3.63189
0
LINE
8
BLACK
6
CONTINUOUS
10
6.27106
20
-3.63189
11
6.27483
21
-3.63264
0
LINE
8
BLACK
6
CONTINUOUS
10
5.25022
20
-3.61886
11
5.25342
21
-3.62099
0
LINE
8
BLACK
6
CONTINUOUS
10
5.25342
20
-3.62099
11
5.25555
21
-3.62419
0
LINE
8
BLACK
6
CONTINUOUS
10
5.25555
20
-3.62419
11
5.2563
21
-3.62795
0
LINE
8
BLACK
6
CONTINUOUS
10
5.2563
20
-3.62795
11
5.2563
21
-3.65551
0
LINE
8
BLACK
6
CONTINUOUS
10
5.2563
20
-3.65551
11
5.25555
21
-3.65928
0
LINE
8
BLACK
6
CONTINUOUS
10
5.25555
20
-3.65928
11
5.25342
21
-3.66247
0
LINE
8
BLACK
6
CONTINUOUS
10
5.25342
20
-3.66247
11
5.25022
21
-3.66461
0
LINE
8
BLACK
6
CONTINUOUS
10
5.25022
20
-3.66461
11
5.24646
21
-3.66535
0
LINE
8
BLACK
6
CONTINUOUS
10
5.24646
20
-3.66535
11
5.21102
21
-3.66535
0
LINE
8
BLACK
6
CONTINUOUS
10
5.21102
20
-3.66535
11
5.20726
21
-3.66461
0
LINE
8
BLACK
6
CONTINUOUS
10
5.20726
20
-3.66461
11
5.20406
21
-3.66247
0
LINE
8
BLACK
6
CONTINUOUS
10
5.20406
20
-3.66247
11
5.20193
21
-3.65928
0
LINE
8
BLACK
6
CONTINUOUS
10
5.20193
20
-3.65928
11
5.20118
21
-3.65551
0
LINE
8
BLACK
6
CONTINUOUS
10
5.20118
20
-3.65551
11
5.20118
21
-3.62795
0
LINE
8
BLACK
6
CONTINUOUS
10
5.20118
20
-3.62795
11
5.20193
21
-3.62419
0
LINE
8
BLACK
6
CONTINUOUS
10
5.20193
20
-3.62419
11
5.20406
21
-3.62099
0
LINE
8
BLACK
6
CONTINUOUS
10
5.20406
20
-3.62099
11
5.20726
21
-3.61886
0
LINE
8
BLACK
6
CONTINUOUS
10
5.20726
20
-3.61886
11
5.21102
21
-3.61811
0
LINE
8
BLACK
6
CONTINUOUS
10
5.21102
20
-3.61811
11
5.24646
21
-3.61811
0
LINE
8
BLACK
6
CONTINUOUS
10
5.24646
20
-3.61811
11
5.25022
21
-3.61886
0
LINE
8
BLACK
6
CONTINUOUS
10
5.59498
20
-3.56147
11
5.59689
21
-3.56275
0
LINE
8
BLACK
6
CONTINUOUS
10
5.59689
20
-3.56275
11
5.59817
21
-3.56467
0
LINE
8
BLACK
6
CONTINUOUS
10
5.59817
20
-3.56467
11
5.59862
21
-3.56693
0
LINE
8
BLACK
6
CONTINUOUS
10
5.59862
20
-3.56693
11
5.59862
21
-3.62402
0
LINE
8
BLACK
6
CONTINUOUS
10
5.59862
20
-3.62402
11
5.59817
21
-3.62628
0
LINE
8
BLACK
6
CONTINUOUS
10
5.59817
20
-3.62628
11
5.59689
21
-3.62819
0
LINE
8
BLACK
6
CONTINUOUS
10
5.59689
20
-3.62819
11
5.59498
21
-3.62947
0
LINE
8
BLACK
6
CONTINUOUS
10
5.59498
20
-3.62947
11
5.59272
21
-3.62992
0
LINE
8
BLACK
6
CONTINUOUS
10
5.59272
20
-3.62992
11
5.58091
21
-3.62992
0
LINE
8
BLACK
6
CONTINUOUS
10
5.58091
20
-3.62992
11
5.57865
21
-3.62947
0
LINE
8
BLACK
6
CONTINUOUS
10
5.57865
20
-3.62947
11
5.57673
21
-3.62819
0
LINE
8
BLACK
6
CONTINUOUS
10
5.57673
20
-3.62819
11
5.57545
21
-3.62628
0
LINE
8
BLACK
6
CONTINUOUS
10
5.57545
20
-3.62628
11
5.575
21
-3.62402
0
LINE
8
BLACK
6
CONTINUOUS
10
5.575
20
-3.62402
11
5.575
21
-3.56693
0
LINE
8
BLACK
6
CONTINUOUS
10
5.575
20
-3.56693
11
5.57545
21
-3.56467
0
LINE
8
BLACK
6
CONTINUOUS
10
5.57545
20
-3.56467
11
5.57673
21
-3.56275
0
LINE
8
BLACK
6
CONTINUOUS
10
5.57673
20
-3.56275
11
5.57865
21
-3.56147
0
LINE
8
BLACK
6
CONTINUOUS
10
5.57865
20
-3.56147
11
5.58091
21
-3.56102
0
LINE
8
BLACK
6
CONTINUOUS
10
5.58091
20
-3.56102
11
5.59272
21
-3.56102
0
LINE
8
BLACK
6
CONTINUOUS
10
5.59272
20
-3.56102
11
5.59498
21
-3.56147
0
LINE
8
BLACK
6
CONTINUOUS
10
5.64498
20
-3.56147
11
5.64689
21
-3.56275
0
LINE
8
BLACK
6
CONTINUOUS
10
5.64689
20
-3.56275
11
5.64817
21
-3.56467
0
LINE
8
BLACK
6
CONTINUOUS
10
5.64817
20
-3.56467
11
5.64862
21
-3.56693
0
LINE
8
BLACK
6
CONTINUOUS
10
5.64862
20
-3.56693
11
5.64862
21
-3.62402
0
LINE
8
BLACK
6
CONTINUOUS
10
5.64862
20
-3.62402
11
5.64817
21
-3.62628
0
LINE
8
BLACK
6
CONTINUOUS
10
5.64817
20
-3.62628
11
5.64689
21
-3.62819
0
LINE
8
BLACK
6
CONTINUOUS
10
5.64689
20
-3.62819
11
5.64498
21
-3.62947
0
LINE
8
BLACK
6
CONTINUOUS
10
5.64498
20
-3.62947
11
5.64272
21
-3.62992
0
LINE
8
BLACK
6
CONTINUOUS
10
5.64272
20
-3.62992
11
5.63091
21
-3.62992
0
LINE
8
BLACK
6
CONTINUOUS
10
5.63091
20
-3.62992
11
5.62865
21
-3.62947
0
LINE
8
BLACK
6
CONTINUOUS
10
5.62865
20
-3.62947
11
5.62673
21
-3.62819
0
LINE
8
BLACK
6
CONTINUOUS
10
5.62673
20
-3.62819
11
5.62545
21
-3.62628
0
LINE
8
BLACK
6
CONTINUOUS
10
5.62545
20
-3.62628
11
5.625
21
-3.62402
0
LINE
8
BLACK
6
CONTINUOUS
10
5.625
20
-3.62402
11
5.625
21
-3.56693
0
LINE
8
BLACK
6
CONTINUOUS
10
5.625
20
-3.56693
11
5.62545
21
-3.56467
0
LINE
8
BLACK
6
CONTINUOUS
10
5.62545
20
-3.56467
11
5.62673
21
-3.56275
0
LINE
8
BLACK
6
CONTINUOUS
10
5.62673
20
-3.56275
11
5.62865
21
-3.56147
0
LINE
8
BLACK
6
CONTINUOUS
10
5.62865
20
-3.56147
11
5.63091
21
-3.56102
0
LINE
8
BLACK
6
CONTINUOUS
10
5.63091
20
-3.56102
11
5.64272
21
-3.56102
0
LINE
8
BLACK
6
CONTINUOUS
10
5.64272
20
-3.56102
11
5.64498
21
-3.56147
0
LINE
8
BLACK
6
CONTINUOUS
10
5.69498
20
-3.56147
11
5.69689
21
-3.56275
0
LINE
8
BLACK
6
CONTINUOUS
10
5.69689
20
-3.56275
11
5.69817
21
-3.56467
0
LINE
8
BLACK
6
CONTINUOUS
10
5.69817
20
-3.56467
11
5.69862
21
-3.56693
0
LINE
8
BLACK
6
CONTINUOUS
10
5.69862
20
-3.56693
11
5.69862
21
-3.62402
0
LINE
8
BLACK
6
CONTINUOUS
10
5.69862
20
-3.62402
11
5.69817
21
-3.62628
0
LINE
8
BLACK
6
CONTINUOUS
10
5.69817
20
-3.62628
11
5.69689
21
-3.62819
0
LINE
8
BLACK
6
CONTINUOUS
10
5.69689
20
-3.62819
11
5.69498
21
-3.62947
0
LINE
8
BLACK
6
CONTINUOUS
10
5.69498
20
-3.62947
11
5.69272
21
-3.62992
0
LINE
8
BLACK
6
CONTINUOUS
10
5.69272
20
-3.62992
11
5.68091
21
-3.62992
0
LINE
8
BLACK
6
CONTINUOUS
10
5.68091
20
-3.62992
11
5.67865
21
-3.62947
0
LINE
8
BLACK
6
CONTINUOUS
10
5.67865
20
-3.62947
11
5.67673
21
-3.62819
0
LINE
8
BLACK
6
CONTINUOUS
10
5.67673
20
-3.62819
11
5.67545
21
-3.62628
0
LINE
8
BLACK
6
CONTINUOUS
10
5.67545
20
-3.62628
11
5.675
21
-3.62402
0
LINE
8
BLACK
6
CONTINUOUS
10
5.675
20
-3.62402
11
5.675
21
-3.56693
0
LINE
8
BLACK
6
CONTINUOUS
10
5.675
20
-3.56693
11
5.67545
21
-3.56467
0
LINE
8
BLACK
6
CONTINUOUS
10
5.67545
20
-3.56467
11
5.67673
21
-3.56275
0
LINE
8
BLACK
6
CONTINUOUS
10
5.67673
20
-3.56275
11
5.67865
21
-3.56147
0
LINE
8
BLACK
6
CONTINUOUS
10
5.67865
20
-3.56147
11
5.68091
21
-3.56102
0
LINE
8
BLACK
6
CONTINUOUS
10
5.68091
20
-3.56102
11
5.69272
21
-3.56102
0
LINE
8
BLACK
6
CONTINUOUS
10
5.69272
20
-3.56102
11
5.69498
21
-3.56147
0
LINE
8
BLACK
6
CONTINUOUS
10
5.74498
20
-3.56147
11
5.74689
21
-3.56275
0
LINE
8
BLACK
6
CONTINUOUS
10
5.74689
20
-3.56275
11
5.74817
21
-3.56467
0
LINE
8
BLACK
6
CONTINUOUS
10
5.74817
20
-3.56467
11
5.74862
21
-3.56693
0
LINE
8
BLACK
6
CONTINUOUS
10
5.74862
20
-3.56693
11
5.74862
21
-3.62402
0
LINE
8
BLACK
6
CONTINUOUS
10
5.74862
20
-3.62402
11
5.74817
21
-3.62628
0
LINE
8
BLACK
6
CONTINUOUS
10
5.74817
20
-3.62628
11
5.74689
21
-3.62819
0
LINE
8
BLACK
6
CONTINUOUS
10
5.74689
20
-3.62819
11
5.74498
21
-3.62947
0
LINE
8
BLACK
6
CONTINUOUS
10
5.74498
20
-3.62947
11
5.74272
21
-3.62992
0
LINE
8
BLACK
6
CONTINUOUS
10
5.74272
20
-3.62992
11
5.73091
21
-3.62992
0
LINE
8
BLACK
6
CONTINUOUS
10
5.73091
20
-3.62992
11
5.72865
21
-3.62947
0
LINE
8
BLACK
6
CONTINUOUS
10
5.72865
20
-3.62947
11
5.72673
21
-3.62819
0
LINE
8
BLACK
6
CONTINUOUS
10
5.72673
20
-3.62819
11
5.72545
21
-3.62628
0
LINE
8
BLACK
6
CONTINUOUS
10
5.72545
20
-3.62628
11
5.725
21
-3.62402
0
LINE
8
BLACK
6
CONTINUOUS
10
5.725
20
-3.62402
11
5.725
21
-3.56693
0
LINE
8
BLACK
6
CONTINUOUS
10
5.725
20
-3.56693
11
5.72545
21
-3.56467
0
LINE
8
BLACK
6
CONTINUOUS
10
5.72545
20
-3.56467
11
5.72673
21
-3.56275
0
LINE
8
BLACK
6
CONTINUOUS
10
5.72673
20
-3.56275
11
5.72865
21
-3.56147
0
LINE
8
BLACK
6
CONTINUOUS
10
5.72865
20
-3.56147
11
5.73091
21
-3.56102
0
LINE
8
BLACK
6
CONTINUOUS
10
5.73091
20
-3.56102
11
5.74272
21
-3.56102
0
LINE
8
BLACK
6
CONTINUOUS
10
5.74272
20
-3.56102
11
5.74498
21
-3.56147
0
LINE
8
BLACK
6
CONTINUOUS
10
6.38454
20
-3.56738
11
6.38646
21
-3.56866
0
LINE
8
BLACK
6
CONTINUOUS
10
6.38646
20
-3.56866
11
6.38774
21
-3.57057
0
LINE
8
BLACK
6
CONTINUOUS
10
6.38774
20
-3.57057
11
6.38819
21
-3.57283
0
LINE
8
BLACK
6
CONTINUOUS
10
6.38819
20
-3.57283
11
6.38819
21
-3.61909
0
LINE
8
BLACK
6
CONTINUOUS
10
6.38819
20
-3.61909
11
6.38774
21
-3.62135
0
LINE
8
BLACK
6
CONTINUOUS
10
6.38774
20
-3.62135
11
6.38646
21
-3.62327
0
LINE
8
BLACK
6
CONTINUOUS
10
6.38646
20
-3.62327
11
6.38454
21
-3.62455
0
LINE
8
BLACK
6
CONTINUOUS
10
6.38454
20
-3.62455
11
6.38228
21
-3.625
0
LINE
8
BLACK
6
CONTINUOUS
10
6.38228
20
-3.625
11
6.37047
21
-3.625
0
LINE
8
BLACK
6
CONTINUOUS
10
6.37047
20
-3.625
11
6.36821
21
-3.62455
0
LINE
8
BLACK
6
CONTINUOUS
10
6.36821
20
-3.62455
11
6.3663
21
-3.62327
0
LINE
8
BLACK
6
CONTINUOUS
10
6.3663
20
-3.62327
11
6.36502
21
-3.62135
0
LINE
8
BLACK
6
CONTINUOUS
10
6.36502
20
-3.62135
11
6.36457
21
-3.61909
0
LINE
8
BLACK
6
CONTINUOUS
10
6.36457
20
-3.61909
11
6.36457
21
-3.57283
0
LINE
8
BLACK
6
CONTINUOUS
10
6.36457
20
-3.57283
11
6.36502
21
-3.57057
0
LINE
8
BLACK
6
CONTINUOUS
10
6.36502
20
-3.57057
11
6.3663
21
-3.56866
0
LINE
8
BLACK
6
CONTINUOUS
10
6.3663
20
-3.56866
11
6.36821
21
-3.56738
0
LINE
8
BLACK
6
CONTINUOUS
10
6.36821
20
-3.56738
11
6.37047
21
-3.56693
0
LINE
8
BLACK
6
CONTINUOUS
10
6.37047
20
-3.56693
11
6.38228
21
-3.56693
0
LINE
8
BLACK
6
CONTINUOUS
10
6.38228
20
-3.56693
11
6.38454
21
-3.56738
0
LINE
8
BLACK
6
CONTINUOUS
10
6.45935
20
-3.56738
11
6.46126
21
-3.56866
0
LINE
8
BLACK
6
CONTINUOUS
10
6.46126
20
-3.56866
11
6.46254
21
-3.57057
0
LINE
8
BLACK
6
CONTINUOUS
10
6.46254
20
-3.57057
11
6.46299
21
-3.57283
0
LINE
8
BLACK
6
CONTINUOUS
10
6.46299
20
-3.57283
11
6.46299
21
-3.61909
0
LINE
8
BLACK
6
CONTINUOUS
10
6.46299
20
-3.61909
11
6.46254
21
-3.62135
0
LINE
8
BLACK
6
CONTINUOUS
10
6.46254
20
-3.62135
11
6.46126
21
-3.62327
0
LINE
8
BLACK
6
CONTINUOUS
10
6.46126
20
-3.62327
11
6.45935
21
-3.62455
0
LINE
8
BLACK
6
CONTINUOUS
10
6.45935
20
-3.62455
11
6.45709
21
-3.625
0
LINE
8
BLACK
6
CONTINUOUS
10
6.45709
20
-3.625
11
6.44528
21
-3.625
0
LINE
8
BLACK
6
CONTINUOUS
10
6.44528
20
-3.625
11
6.44302
21
-3.62455
0
LINE
8
BLACK
6
CONTINUOUS
10
6.44302
20
-3.62455
11
6.4411
21
-3.62327
0
LINE
8
BLACK
6
CONTINUOUS
10
6.4411
20
-3.62327
11
6.43982
21
-3.62135
0
LINE
8
BLACK
6
CONTINUOUS
10
6.43982
20
-3.62135
11
6.43937
21
-3.61909
0
LINE
8
BLACK
6
CONTINUOUS
10
6.43937
20
-3.61909
11
6.43937
21
-3.57283
0
LINE
8
BLACK
6
CONTINUOUS
10
6.43937
20
-3.57283
11
6.43982
21
-3.57057
0
LINE
8
BLACK
6
CONTINUOUS
10
6.43982
20
-3.57057
11
6.4411
21
-3.56866
0
LINE
8
BLACK
6
CONTINUOUS
10
6.4411
20
-3.56866
11
6.44302
21
-3.56738
0
LINE
8
BLACK
6
CONTINUOUS
10
6.44302
20
-3.56738
11
6.44528
21
-3.56693
0
LINE
8
BLACK
6
CONTINUOUS
10
6.44528
20
-3.56693
11
6.45709
21
-3.56693
0
LINE
8
BLACK
6
CONTINUOUS
10
6.45709
20
-3.56693
11
6.45935
21
-3.56738
0
LINE
8
BLACK
6
CONTINUOUS
10
6.27483
20
-3.55095
11
6.27802
21
-3.55308
0
LINE
8
BLACK
6
CONTINUOUS
10
6.27802
20
-3.55308
11
6.28016
21
-3.55627
0
LINE
8
BLACK
6
CONTINUOUS
10
6.28016
20
-3.55627
11
6.28091
21
-3.56004
0
LINE
8
BLACK
6
CONTINUOUS
10
6.28091
20
-3.56004
11
6.28091
21
-3.58661
0
LINE
8
BLACK
6
CONTINUOUS
10
6.28091
20
-3.58661
11
6.28016
21
-3.59038
0
LINE
8
BLACK
6
CONTINUOUS
10
6.28016
20
-3.59038
11
6.27802
21
-3.59357
0
LINE
8
BLACK
6
CONTINUOUS
10
6.27802
20
-3.59357
11
6.27483
21
-3.59571
0
LINE
8
BLACK
6
CONTINUOUS
10
6.27483
20
-3.59571
11
6.27106
21
-3.59646
0
LINE
8
BLACK
6
CONTINUOUS
10
6.27106
20
-3.59646
11
6.23366
21
-3.59646
0
LINE
8
BLACK
6
CONTINUOUS
10
6.23366
20
-3.59646
11
6.22989
21
-3.59571
0
LINE
8
BLACK
6
CONTINUOUS
10
6.22989
20
-3.59571
11
6.2267
21
-3.59357
0
LINE
8
BLACK
6
CONTINUOUS
10
6.2267
20
-3.59357
11
6.22457
21
-3.59038
0
LINE
8
BLACK
6
CONTINUOUS
10
6.22457
20
-3.59038
11
6.22382
21
-3.58661
0
LINE
8
BLACK
6
CONTINUOUS
10
6.22382
20
-3.58661
11
6.22382
21
-3.56004
0
LINE
8
BLACK
6
CONTINUOUS
10
6.22382
20
-3.56004
11
6.22457
21
-3.55627
0
LINE
8
BLACK
6
CONTINUOUS
10
6.22457
20
-3.55627
11
6.2267
21
-3.55308
0
LINE
8
BLACK
6
CONTINUOUS
10
6.2267
20
-3.55308
11
6.22989
21
-3.55095
0
LINE
8
BLACK
6
CONTINUOUS
10
6.22989
20
-3.55095
11
6.23366
21
-3.5502
0
LINE
8
BLACK
6
CONTINUOUS
10
6.23366
20
-3.5502
11
6.27106
21
-3.5502
0
LINE
8
BLACK
6
CONTINUOUS
10
6.27106
20
-3.5502
11
6.27483
21
-3.55095
0
LINE
8
BLACK
6
CONTINUOUS
10
6.42195
20
-3.49356
11
6.42386
21
-3.49484
0
LINE
8
BLACK
6
CONTINUOUS
10
6.42386
20
-3.49484
11
6.42514
21
-3.49676
0
LINE
8
BLACK
6
CONTINUOUS
10
6.42514
20
-3.49676
11
6.42559
21
-3.49902
0
LINE
8
BLACK
6
CONTINUOUS
10
6.42559
20
-3.49902
11
6.42559
21
-3.54528
0
LINE
8
BLACK
6
CONTINUOUS
10
6.42559
20
-3.54528
11
6.42514
21
-3.54754
0
LINE
8
BLACK
6
CONTINUOUS
10
6.42514
20
-3.54754
11
6.42386
21
-3.54945
0
LINE
8
BLACK
6
CONTINUOUS
10
6.42386
20
-3.54945
11
6.42195
21
-3.55073
0
LINE
8
BLACK
6
CONTINUOUS
10
6.42195
20
-3.55073
11
6.41969
21
-3.55118
0
LINE
8
BLACK
6
CONTINUOUS
10
6.41969
20
-3.55118
11
6.40787
21
-3.55118
0
LINE
8
BLACK
6
CONTINUOUS
10
6.40787
20
-3.55118
11
6.40561
21
-3.55073
0
LINE
8
BLACK
6
CONTINUOUS
10
6.40561
20
-3.55073
11
6.4037
21
-3.54945
0
LINE
8
BLACK
6
CONTINUOUS
10
6.4037
20
-3.54945
11
6.40242
21
-3.54754
0
LINE
8
BLACK
6
CONTINUOUS
10
6.40242
20
-3.54754
11
6.40197
21
-3.54528
0
LINE
8
BLACK
6
CONTINUOUS
10
6.40197
20
-3.54528
11
6.40197
21
-3.49902
0
LINE
8
BLACK
6
CONTINUOUS
10
6.40197
20
-3.49902
11
6.40242
21
-3.49676
0
LINE
8
BLACK
6
CONTINUOUS
10
6.40242
20
-3.49676
11
6.4037
21
-3.49484
0
LINE
8
BLACK
6
CONTINUOUS
10
6.4037
20
-3.49484
11
6.40561
21
-3.49356
0
LINE
8
BLACK
6
CONTINUOUS
10
6.40561
20
-3.49356
11
6.40787
21
-3.49311
0
LINE
8
BLACK
6
CONTINUOUS
10
6.40787
20
-3.49311
11
6.41969
21
-3.49311
0
LINE
8
BLACK
6
CONTINUOUS
10
6.41969
20
-3.49311
11
6.42195
21
-3.49356
0
LINE
8
BLACK
6
CONTINUOUS
10
5.70495
20
-3.47516
11
5.70814
21
-3.47729
0
LINE
8
BLACK
6
CONTINUOUS
10
5.70814
20
-3.47729
11
5.71027
21
-3.48049
0
LINE
8
BLACK
6
CONTINUOUS
10
5.71027
20
-3.48049
11
5.71102
21
-3.48425
0
LINE
8
BLACK
6
CONTINUOUS
10
5.71102
20
-3.48425
11
5.71102
21
-3.50787
0
LINE
8
BLACK
6
CONTINUOUS
10
5.71102
20
-3.50787
11
5.71027
21
-3.51164
0
LINE
8
BLACK
6
CONTINUOUS
10
5.71027
20
-3.51164
11
5.70814
21
-3.51483
0
LINE
8
BLACK
6
CONTINUOUS
10
5.70814
20
-3.51483
11
5.70495
21
-3.51697
0
LINE
8
BLACK
6
CONTINUOUS
10
5.70495
20
-3.51697
11
5.70118
21
-3.51772
0
LINE
8
BLACK
6
CONTINUOUS
10
5.70118
20
-3.51772
11
5.67756
21
-3.51772
0
LINE
8
BLACK
6
CONTINUOUS
10
5.67756
20
-3.51772
11
5.67379
21
-3.51697
0
LINE
8
BLACK
6
CONTINUOUS
10
5.67379
20
-3.51697
11
5.6706
21
-3.51483
0
LINE
8
BLACK
6
CONTINUOUS
10
5.6706
20
-3.51483
11
5.66847
21
-3.51164
0
LINE
8
BLACK
6
CONTINUOUS
10
5.66847
20
-3.51164
11
5.66772
21
-3.50787
0
LINE
8
BLACK
6
CONTINUOUS
10
5.66772
20
-3.50787
11
5.66772
21
-3.48425
0
LINE
8
BLACK
6
CONTINUOUS
10
5.66772
20
-3.48425
11
5.66847
21
-3.48049
0
LINE
8
BLACK
6
CONTINUOUS
10
5.66847
20
-3.48049
11
5.6706
21
-3.47729
0
LINE
8
BLACK
6
CONTINUOUS
10
5.6706
20
-3.47729
11
5.67379
21
-3.47516
0
LINE
8
BLACK
6
CONTINUOUS
10
5.67379
20
-3.47516
11
5.67756
21
-3.47441
0
LINE
8
BLACK
6
CONTINUOUS
10
5.67756
20
-3.47441
11
5.70118
21
-3.47441
0
LINE
8
BLACK
6
CONTINUOUS
10
5.70118
20
-3.47441
11
5.70495
21
-3.47516
0
LINE
8
BLACK
6
CONTINUOUS
10
5.81518
20
-3.47516
11
5.81838
21
-3.47729
0
LINE
8
BLACK
6
CONTINUOUS
10
5.81838
20
-3.47729
11
5.82051
21
-3.48049
0
LINE
8
BLACK
6
CONTINUOUS
10
5.82051
20
-3.48049
11
5.82126
21
-3.48425
0
LINE
8
BLACK
6
CONTINUOUS
10
5.82126
20
-3.48425
11
5.82126
21
-3.50787
0
LINE
8
BLACK
6
CONTINUOUS
10
5.82126
20
-3.50787
11
5.82051
21
-3.51164
0
LINE
8
BLACK
6
CONTINUOUS
10
5.82051
20
-3.51164
11
5.81838
21
-3.51483
0
LINE
8
BLACK
6
CONTINUOUS
10
5.81838
20
-3.51483
11
5.81518
21
-3.51697
0
LINE
8
BLACK
6
CONTINUOUS
10
5.81518
20
-3.51697
11
5.81142
21
-3.51772
0
LINE
8
BLACK
6
CONTINUOUS
10
5.81142
20
-3.51772
11
5.7878
21
-3.51772
0
LINE
8
BLACK
6
CONTINUOUS
10
5.7878
20
-3.51772
11
5.78403
21
-3.51697
0
LINE
8
BLACK
6
CONTINUOUS
10
5.78403
20
-3.51697
11
5.78084
21
-3.51483
0
LINE
8
BLACK
6
CONTINUOUS
10
5.78084
20
-3.51483
11
5.7787
21
-3.51164
0
LINE
8
BLACK
6
CONTINUOUS
10
5.7787
20
-3.51164
11
5.77795
21
-3.50787
0
LINE
8
BLACK
6
CONTINUOUS
10
5.77795
20
-3.50787
11
5.77795
21
-3.48425
0
LINE
8
BLACK
6
CONTINUOUS
10
5.77795
20
-3.48425
11
5.7787
21
-3.48049
0
LINE
8
BLACK
6
CONTINUOUS
10
5.7787
20
-3.48049
11
5.78084
21
-3.47729
0
LINE
8
BLACK
6
CONTINUOUS
10
5.78084
20
-3.47729
11
5.78403
21
-3.47516
0
LINE
8
BLACK
6
CONTINUOUS
10
5.78403
20
-3.47516
11
5.7878
21
-3.47441
0
LINE
8
BLACK
6
CONTINUOUS
10
5.7878
20
-3.47441
11
5.81142
21
-3.47441
0
LINE
8
BLACK
6
CONTINUOUS
10
5.81142
20
-3.47441
11
5.81518
21
-3.47516
0
LINE
8
BLACK
6
CONTINUOUS
10
5.94707
20
-3.44957
11
5.95027
21
-3.4517
0
LINE
8
BLACK
6
CONTINUOUS
10
5.95027
20
-3.4517
11
5.9524
21
-3.45489
0
LINE
8
BLACK
6
CONTINUOUS
10
5.9524
20
-3.45489
11
5.95315
21
-3.45866
0
LINE
8
BLACK
6
CONTINUOUS
10
5.95315
20
-3.45866
11
5.95315
21
-3.48622
0
LINE
8
BLACK
6
CONTINUOUS
10
5.95315
20
-3.48622
11
5.9524
21
-3.48999
0
LINE
8
BLACK
6
CONTINUOUS
10
5.9524
20
-3.48999
11
5.95027
21
-3.49318
0
LINE
8
BLACK
6
CONTINUOUS
10
5.95027
20
-3.49318
11
5.94707
21
-3.49531
0
LINE
8
BLACK
6
CONTINUOUS
10
5.94707
20
-3.49531
11
5.94331
21
-3.49606
0
LINE
8
BLACK
6
CONTINUOUS
10
5.94331
20
-3.49606
11
5.90787
21
-3.49606
0
LINE
8
BLACK
6
CONTINUOUS
10
5.90787
20
-3.49606
11
5.90411
21
-3.49531
0
LINE
8
BLACK
6
CONTINUOUS
10
5.90411
20
-3.49531
11
5.90091
21
-3.49318
0
LINE
8
BLACK
6
CONTINUOUS
10
5.90091
20
-3.49318
11
5.89878
21
-3.48999
0
LINE
8
BLACK
6
CONTINUOUS
10
5.89878
20
-3.48999
11
5.89803
21
-3.48622
0
LINE
8
BLACK
6
CONTINUOUS
10
5.89803
20
-3.48622
11
5.89803
21
-3.45866
0
LINE
8
BLACK
6
CONTINUOUS
10
5.89803
20
-3.45866
11
5.89878
21
-3.45489
0
LINE
8
BLACK
6
CONTINUOUS
10
5.89878
20
-3.45489
11
5.90091
21
-3.4517
0
LINE
8
BLACK
6
CONTINUOUS
10
5.90091
20
-3.4517
11
5.90411
21
-3.44957
0
LINE
8
BLACK
6
CONTINUOUS
10
5.90411
20
-3.44957
11
5.90787
21
-3.44882
0
LINE
8
BLACK
6
CONTINUOUS
10
5.90787
20
-3.44882
11
5.94331
21
-3.44882
0
LINE
8
BLACK
6
CONTINUOUS
10
5.94331
20
-3.44882
11
5.94707
21
-3.44957
0
LINE
8
BLACK
6
CONTINUOUS
10
6.09077
20
-3.41709
11
6.09397
21
-3.41922
0
LINE
8
BLACK
6
CONTINUOUS
10
6.09397
20
-3.41922
11
6.0961
21
-3.42241
0
LINE
8
BLACK
6
CONTINUOUS
10
6.0961
20
-3.42241
11
6.09685
21
-3.42618
0
LINE
8
BLACK
6
CONTINUOUS
10
6.09685
20
-3.42618
11
6.09685
21
-3.46358
0
LINE
8
BLACK
6
CONTINUOUS
10
6.09685
20
-3.46358
11
6.0961
21
-3.46735
0
LINE
8
BLACK
6
CONTINUOUS
10
6.0961
20
-3.46735
11
6.09397
21
-3.47054
0
LINE
8
BLACK
6
CONTINUOUS
10
6.09397
20
-3.47054
11
6.09077
21
-3.47268
0
LINE
8
BLACK
6
CONTINUOUS
10
6.09077
20
-3.47268
11
6.08701
21
-3.47343
0
LINE
8
BLACK
6
CONTINUOUS
10
6.08701
20
-3.47343
11
6.06043
21
-3.47343
0
LINE
8
BLACK
6
CONTINUOUS
10
6.06043
20
-3.47343
11
6.05667
21
-3.47268
0
LINE
8
BLACK
6
CONTINUOUS
10
6.05667
20
-3.47268
11
6.05347
21
-3.47054
0
LINE
8
BLACK
6
CONTINUOUS
10
6.05347
20
-3.47054
11
6.05134
21
-3.46735
0
LINE
8
BLACK
6
CONTINUOUS
10
6.05134
20
-3.46735
11
6.05059
21
-3.46358
0
LINE
8
BLACK
6
CONTINUOUS
10
6.05059
20
-3.46358
11
6.05059
21
-3.42618
0
LINE
8
BLACK
6
CONTINUOUS
10
6.05059
20
-3.42618
11
6.05134
21
-3.42241
0
LINE
8
BLACK
6
CONTINUOUS
10
6.05134
20
-3.42241
11
6.05347
21
-3.41922
0
LINE
8
BLACK
6
CONTINUOUS
10
6.05347
20
-3.41922
11
6.05667
21
-3.41709
0
LINE
8
BLACK
6
CONTINUOUS
10
6.05667
20
-3.41709
11
6.06043
21
-3.41634
0
LINE
8
BLACK
6
CONTINUOUS
10
6.06043
20
-3.41634
11
6.08701
21
-3.41634
0
LINE
8
BLACK
6
CONTINUOUS
10
6.08701
20
-3.41634
11
6.09077
21
-3.41709
0
LINE
8
BLACK
6
CONTINUOUS
10
6.17247
20
-3.41709
11
6.17566
21
-3.41922
0
LINE
8
BLACK
6
CONTINUOUS
10
6.17566
20
-3.41922
11
6.17779
21
-3.42241
0
LINE
8
BLACK
6
CONTINUOUS
10
6.17779
20
-3.42241
11
6.17854
21
-3.42618
0
LINE
8
BLACK
6
CONTINUOUS
10
6.17854
20
-3.42618
11
6.17854
21
-3.46358
0
LINE
8
BLACK
6
CONTINUOUS
10
6.17854
20
-3.46358
11
6.17779
21
-3.46735
0
LINE
8
BLACK
6
CONTINUOUS
10
6.17779
20
-3.46735
11
6.17566
21
-3.47054
0
LINE
8
BLACK
6
CONTINUOUS
10
6.17566
20
-3.47054
11
6.17247
21
-3.47268
0
LINE
8
BLACK
6
CONTINUOUS
10
6.17247
20
-3.47268
11
6.1687
21
-3.47343
0
LINE
8
BLACK
6
CONTINUOUS
10
6.1687
20
-3.47343
11
6.14213
21
-3.47343
0
LINE
8
BLACK
6
CONTINUOUS
10
6.14213
20
-3.47343
11
6.13836
21
-3.47268
0
LINE
8
BLACK
6
CONTINUOUS
10
6.13836
20
-3.47268
11
6.13517
21
-3.47054
0
LINE
8
BLACK
6
CONTINUOUS
10
6.13517
20
-3.47054
11
6.13303
21
-3.46735
0
LINE
8
BLACK
6
CONTINUOUS
10
6.13303
20
-3.46735
11
6.13228
21
-3.46358
0
LINE
8
BLACK
6
CONTINUOUS
10
6.13228
20
-3.46358
11
6.13228
21
-3.42618
0
LINE
8
BLACK
6
CONTINUOUS
10
6.13228
20
-3.42618
11
6.13303
21
-3.42241
0
LINE
8
BLACK
6
CONTINUOUS
10
6.13303
20
-3.42241
11
6.13517
21
-3.41922
0
LINE
8
BLACK
6
CONTINUOUS
10
6.13517
20
-3.41922
11
6.13836
21
-3.41709
0
LINE
8
BLACK
6
CONTINUOUS
10
6.13836
20
-3.41709
11
6.14213
21
-3.41634
0
LINE
8
BLACK
6
CONTINUOUS
10
6.14213
20
-3.41634
11
6.1687
21
-3.41634
0
LINE
8
BLACK
6
CONTINUOUS
10
6.1687
20
-3.41634
11
6.17247
21
-3.41709
0
LINE
8
BLACK
6
CONTINUOUS
10
6.24579
20
-3.41709
11
6.24899
21
-3.41922
0
LINE
8
BLACK
6
CONTINUOUS
10
6.24899
20
-3.41922
11
6.25112
21
-3.42241
0
LINE
8
BLACK
6
CONTINUOUS
10
6.25112
20
-3.42241
11
6.25187
21
-3.42618
0
LINE
8
BLACK
6
CONTINUOUS
10
6.25187
20
-3.42618
11
6.25187
21
-3.46358
0
LINE
8
BLACK
6
CONTINUOUS
10
6.25187
20
-3.46358
11
6.25112
21
-3.46735
0
LINE
8
BLACK
6
CONTINUOUS
10
6.25112
20
-3.46735
11
6.24899
21
-3.47054
0
LINE
8
BLACK
6
CONTINUOUS
10
6.24899
20
-3.47054
11
6.24579
21
-3.47268
0
LINE
8
BLACK
6
CONTINUOUS
10
6.24579
20
-3.47268
11
6.24203
21
-3.47343
0
LINE
8
BLACK
6
CONTINUOUS
10
6.24203
20
-3.47343
11
6.21545
21
-3.47343
0
LINE
8
BLACK
6
CONTINUOUS
10
6.21545
20
-3.47343
11
6.21169
21
-3.47268
0
LINE
8
BLACK
6
CONTINUOUS
10
6.21169
20
-3.47268
11
6.20849
21
-3.47054
0
LINE
8
BLACK
6
CONTINUOUS
10
6.20849
20
-3.47054
11
6.20636
21
-3.46735
0
LINE
8
BLACK
6
CONTINUOUS
10
6.20636
20
-3.46735
11
6.20561
21
-3.46358
0
LINE
8
BLACK
6
CONTINUOUS
10
6.20561
20
-3.46358
11
6.20561
21
-3.42618
0
LINE
8
BLACK
6
CONTINUOUS
10
6.20561
20
-3.42618
11
6.20636
21
-3.42241
0
LINE
8
BLACK
6
CONTINUOUS
10
6.20636
20
-3.42241
11
6.20849
21
-3.41922
0
LINE
8
BLACK
6
CONTINUOUS
10
6.20849
20
-3.41922
11
6.21169
21
-3.41709
0
LINE
8
BLACK
6
CONTINUOUS
10
6.21169
20
-3.41709
11
6.21545
21
-3.41634
0
LINE
8
BLACK
6
CONTINUOUS
10
6.21545
20
-3.41634
11
6.24203
21
-3.41634
0
LINE
8
BLACK
6
CONTINUOUS
10
6.24203
20
-3.41634
11
6.24579
21
-3.41709
0
LINE
8
BLACK
6
CONTINUOUS
10
6.32749
20
-3.41709
11
6.33068
21
-3.41922
0
LINE
8
BLACK
6
CONTINUOUS
10
6.33068
20
-3.41922
11
6.33281
21
-3.42241
0
LINE
8
BLACK
6
CONTINUOUS
10
6.33281
20
-3.42241
11
6.33356
21
-3.42618
0
LINE
8
BLACK
6
CONTINUOUS
10
6.33356
20
-3.42618
11
6.33356
21
-3.46358
0
LINE
8
BLACK
6
CONTINUOUS
10
6.33356
20
-3.46358
11
6.33281
21
-3.46735
0
LINE
8
BLACK
6
CONTINUOUS
10
6.33281
20
-3.46735
11
6.33068
21
-3.47054
0
LINE
8
BLACK
6
CONTINUOUS
10
6.33068
20
-3.47054
11
6.32749
21
-3.47268
0
LINE
8
BLACK
6
CONTINUOUS
10
6.32749
20
-3.47268
11
6.32372
21
-3.47343
0
LINE
8
BLACK
6
CONTINUOUS
10
6.32372
20
-3.47343
11
6.29715
21
-3.47343
0
LINE
8
BLACK
6
CONTINUOUS
10
6.29715
20
-3.47343
11
6.29338
21
-3.47268
0
LINE
8
BLACK
6
CONTINUOUS
10
6.29338
20
-3.47268
11
6.29019
21
-3.47054
0
LINE
8
BLACK
6
CONTINUOUS
10
6.29019
20
-3.47054
11
6.28805
21
-3.46735
0
LINE
8
BLACK
6
CONTINUOUS
10
6.28805
20
-3.46735
11
6.2873
21
-3.46358
0
LINE
8
BLACK
6
CONTINUOUS
10
6.2873
20
-3.46358
11
6.2873
21
-3.42618
0
LINE
8
BLACK
6
CONTINUOUS
10
6.2873
20
-3.42618
11
6.28805
21
-3.42241
0
LINE
8
BLACK
6
CONTINUOUS
10
6.28805
20
-3.42241
11
6.29019
21
-3.41922
0
LINE
8
BLACK
6
CONTINUOUS
10
6.29019
20
-3.41922
11
6.29338
21
-3.41709
0
LINE
8
BLACK
6
CONTINUOUS
10
6.29338
20
-3.41709
11
6.29715
21
-3.41634
0
LINE
8
BLACK
6
CONTINUOUS
10
6.29715
20
-3.41634
11
6.32372
21
-3.41634
0
LINE
8
BLACK
6
CONTINUOUS
10
6.32372
20
-3.41634
11
6.32749
21
-3.41709
0
LINE
8
BLACK
6
CONTINUOUS
10
5.70495
20
-3.38067
11
5.70814
21
-3.3828
0
LINE
8
BLACK
6
CONTINUOUS
10
5.70814
20
-3.3828
11
5.71027
21
-3.386
0
LINE
8
BLACK
6
CONTINUOUS
10
5.71027
20
-3.386
11
5.71102
21
-3.38976
0
LINE
8
BLACK
6
CONTINUOUS
10
5.71102
20
-3.38976
11
5.71102
21
-3.41339
0
LINE
8
BLACK
6
CONTINUOUS
10
5.71102
20
-3.41339
11
5.71027
21
-3.41715
0
LINE
8
BLACK
6
CONTINUOUS
10
5.71027
20
-3.41715
11
5.70814
21
-3.42035
0
LINE
8
BLACK
6
CONTINUOUS
10
5.70814
20
-3.42035
11
5.70495
21
-3.42248
0
LINE
8
BLACK
6
CONTINUOUS
10
5.70495
20
-3.42248
11
5.70118
21
-3.42323
0
LINE
8
BLACK
6
CONTINUOUS
10
5.70118
20
-3.42323
11
5.67756
21
-3.42323
0
LINE
8
BLACK
6
CONTINUOUS
10
5.67756
20
-3.42323
11
5.67379
21
-3.42248
0
LINE
8
BLACK
6
CONTINUOUS
10
5.67379
20
-3.42248
11
5.6706
21
-3.42035
0
LINE
8
BLACK
6
CONTINUOUS
10
5.6706
20
-3.42035
11
5.66847
21
-3.41715
0
LINE
8
BLACK
6
CONTINUOUS
10
5.66847
20
-3.41715
11
5.66772
21
-3.41339
0
LINE
8
BLACK
6
CONTINUOUS
10
5.66772
20
-3.41339
11
5.66772
21
-3.38976
0
LINE
8
BLACK
6
CONTINUOUS
10
5.66772
20
-3.38976
11
5.66847
21
-3.386
0
LINE
8
BLACK
6
CONTINUOUS
10
5.66847
20
-3.386
11
5.6706
21
-3.3828
0
LINE
8
BLACK
6
CONTINUOUS
10
5.6706
20
-3.3828
11
5.67379
21
-3.38067
0
LINE
8
BLACK
6
CONTINUOUS
10
5.67379
20
-3.38067
11
5.67756
21
-3.37992
0
LINE
8
BLACK
6
CONTINUOUS
10
5.67756
20
-3.37992
11
5.70118
21
-3.37992
0
LINE
8
BLACK
6
CONTINUOUS
10
5.70118
20
-3.37992
11
5.70495
21
-3.38067
0
LINE
8
BLACK
6
CONTINUOUS
10
5.81518
20
-3.38067
11
5.81838
21
-3.3828
0
LINE
8
BLACK
6
CONTINUOUS
10
5.81838
20
-3.3828
11
5.82051
21
-3.386
0
LINE
8
BLACK
6
CONTINUOUS
10
5.82051
20
-3.386
11
5.82126
21
-3.38976
0
LINE
8
BLACK
6
CONTINUOUS
10
5.82126
20
-3.38976
11
5.82126
21
-3.41339
0
LINE
8
BLACK
6
CONTINUOUS
10
5.82126
20
-3.41339
11
5.82051
21
-3.41715
0
LINE
8
BLACK
6
CONTINUOUS
10
5.82051
20
-3.41715
11
5.81838
21
-3.42035
0
LINE
8
BLACK
6
CONTINUOUS
10
5.81838
20
-3.42035
11
5.81518
21
-3.42248
0
LINE
8
BLACK
6
CONTINUOUS
10
5.81518
20
-3.42248
11
5.81142
21
-3.42323
0
LINE
8
BLACK
6
CONTINUOUS
10
5.81142
20
-3.42323
11
5.7878
21
-3.42323
0
LINE
8
BLACK
6
CONTINUOUS
10
5.7878
20
-3.42323
11
5.78403
21
-3.42248
0
LINE
8
BLACK
6
CONTINUOUS
10
5.78403
20
-3.42248
11
5.78084
21
-3.42035
0
LINE
8
BLACK
6
CONTINUOUS
10
5.78084
20
-3.42035
11
5.7787
21
-3.41715
0
LINE
8
BLACK
6
CONTINUOUS
10
5.7787
20
-3.41715
11
5.77795
21
-3.41339
0
LINE
8
BLACK
6
CONTINUOUS
10
5.77795
20
-3.41339
11
5.77795
21
-3.38976
0
LINE
8
BLACK
6
CONTINUOUS
10
5.77795
20
-3.38976
11
5.7787
21
-3.386
0
LINE
8
BLACK
6
CONTINUOUS
10
5.7787
20
-3.386
11
5.78084
21
-3.3828
0
LINE
8
BLACK
6
CONTINUOUS
10
5.78084
20
-3.3828
11
5.78403
21
-3.38067
0
LINE
8
BLACK
6
CONTINUOUS
10
5.78403
20
-3.38067
11
5.7878
21
-3.37992
0
LINE
8
BLACK
6
CONTINUOUS
10
5.7878
20
-3.37992
11
5.81142
21
-3.37992
0
LINE
8
BLACK
6
CONTINUOUS
10
5.81142
20
-3.37992
11
5.81518
21
-3.38067
0
LINE
8
BLACK
6
CONTINUOUS
10
5.94707
20
-3.37083
11
5.95027
21
-3.37296
0
LINE
8
BLACK
6
CONTINUOUS
10
5.95027
20
-3.37296
11
5.9524
21
-3.37615
0
LINE
8
BLACK
6
CONTINUOUS
10
5.9524
20
-3.37615
11
5.95315
21
-3.37992
0
LINE
8
BLACK
6
CONTINUOUS
10
5.95315
20
-3.37992
11
5.95315
21
-3.40748
0
LINE
8
BLACK
6
CONTINUOUS
10
5.95315
20
-3.40748
11
5.9524
21
-3.41125
0
LINE
8
BLACK
6
CONTINUOUS
10
5.9524
20
-3.41125
11
5.95027
21
-3.41444
0
LINE
8
BLACK
6
CONTINUOUS
10
5.95027
20
-3.41444
11
5.94707
21
-3.41657
0
LINE
8
BLACK
6
CONTINUOUS
10
5.94707
20
-3.41657
11
5.94331
21
-3.41732
0
LINE
8
BLACK
6
CONTINUOUS
10
5.94331
20
-3.41732
11
5.90787
21
-3.41732
0
LINE
8
BLACK
6
CONTINUOUS
10
5.90787
20
-3.41732
11
5.90411
21
-3.41657
0
LINE
8
BLACK
6
CONTINUOUS
10
5.90411
20
-3.41657
11
5.90091
21
-3.41444
0
LINE
8
BLACK
6
CONTINUOUS
10
5.90091
20
-3.41444
11
5.89878
21
-3.41125
0
LINE
8
BLACK
6
CONTINUOUS
10
5.89878
20
-3.41125
11
5.89803
21
-3.40748
0
LINE
8
BLACK
6
CONTINUOUS
10
5.89803
20
-3.40748
11
5.89803
21
-3.37992
0
LINE
8
BLACK
6
CONTINUOUS
10
5.89803
20
-3.37992
11
5.89878
21
-3.37615
0
LINE
8
BLACK
6
CONTINUOUS
10
5.89878
20
-3.37615
11
5.90091
21
-3.37296
0
LINE
8
BLACK
6
CONTINUOUS
10
5.90091
20
-3.37296
11
5.90411
21
-3.37083
0
LINE
8
BLACK
6
CONTINUOUS
10
5.90411
20
-3.37083
11
5.90787
21
-3.37008
0
LINE
8
BLACK
6
CONTINUOUS
10
5.90787
20
-3.37008
11
5.94331
21
-3.37008
0
LINE
8
BLACK
6
CONTINUOUS
10
5.94331
20
-3.37008
11
5.94707
21
-3.37083
0
LINE
8
BLACK
6
CONTINUOUS
10
6.02581
20
-3.34327
11
6.02901
21
-3.3454
0
LINE
8
BLACK
6
CONTINUOUS
10
6.02901
20
-3.3454
11
6.03114
21
-3.3486
0
LINE
8
BLACK
6
CONTINUOUS
10
6.03114
20
-3.3486
11
6.03189
21
-3.35236
0
LINE
8
BLACK
6
CONTINUOUS
10
6.03189
20
-3.35236
11
6.03189
21
-3.37992
0
LINE
8
BLACK
6
CONTINUOUS
10
6.03189
20
-3.37992
11
6.03114
21
-3.38369
0
LINE
8
BLACK
6
CONTINUOUS
10
6.03114
20
-3.38369
11
6.02901
21
-3.38688
0
LINE
8
BLACK
6
CONTINUOUS
10
6.02901
20
-3.38688
11
6.02581
21
-3.38901
0
LINE
8
BLACK
6
CONTINUOUS
10
6.02581
20
-3.38901
11
6.02205
21
-3.38976
0
LINE
8
BLACK
6
CONTINUOUS
10
6.02205
20
-3.38976
11
5.98661
21
-3.38976
0
LINE
8
BLACK
6
CONTINUOUS
10
5.98661
20
-3.38976
11
5.98285
21
-3.38901
0
LINE
8
BLACK
6
CONTINUOUS
10
5.98285
20
-3.38901
11
5.97965
21
-3.38688
0
LINE
8
BLACK
6
CONTINUOUS
10
5.97965
20
-3.38688
11
5.97752
21
-3.38369
0
LINE
8
BLACK
6
CONTINUOUS
10
5.97752
20
-3.38369
11
5.97677
21
-3.37992
0
LINE
8
BLACK
6
CONTINUOUS
10
5.97677
20
-3.37992
11
5.97677
21
-3.35236
0
LINE
8
BLACK
6
CONTINUOUS
10
5.97677
20
-3.35236
11
5.97752
21
-3.3486
0
LINE
8
BLACK
6
CONTINUOUS
10
5.97752
20
-3.3486
11
5.97965
21
-3.3454
0
LINE
8
BLACK
6
CONTINUOUS
10
5.97965
20
-3.3454
11
5.98285
21
-3.34327
0
LINE
8
BLACK
6
CONTINUOUS
10
5.98285
20
-3.34327
11
5.98661
21
-3.34252
0
LINE
8
BLACK
6
CONTINUOUS
10
5.98661
20
-3.34252
11
6.02205
21
-3.34252
0
LINE
8
BLACK
6
CONTINUOUS
10
6.02205
20
-3.34252
11
6.02581
21
-3.34327
0
LINE
8
BLACK
6
CONTINUOUS
10
6.02581
20
-3.26453
11
6.02901
21
-3.26666
0
LINE
8
BLACK
6
CONTINUOUS
10
6.02901
20
-3.26666
11
6.03114
21
-3.26986
0
LINE
8
BLACK
6
CONTINUOUS
10
6.03114
20
-3.26986
11
6.03189
21
-3.27362
0
LINE
8
BLACK
6
CONTINUOUS
10
6.03189
20
-3.27362
11
6.03189
21
-3.30118
0
LINE
8
BLACK
6
CONTINUOUS
10
6.03189
20
-3.30118
11
6.03114
21
-3.30495
0
LINE
8
BLACK
6
CONTINUOUS
10
6.03114
20
-3.30495
11
6.02901
21
-3.30814
0
LINE
8
BLACK
6
CONTINUOUS
10
6.02901
20
-3.30814
11
6.02581
21
-3.31027
0
LINE
8
BLACK
6
CONTINUOUS
10
6.02581
20
-3.31027
11
6.02205
21
-3.31102
0
LINE
8
BLACK
6
CONTINUOUS
10
6.02205
20
-3.31102
11
5.98661
21
-3.31102
0
LINE
8
BLACK
6
CONTINUOUS
10
5.98661
20
-3.31102
11
5.98285
21
-3.31027
0
LINE
8
BLACK
6
CONTINUOUS
10
5.98285
20
-3.31027
11
5.97965
21
-3.30814
0
LINE
8
BLACK
6
CONTINUOUS
10
5.97965
20
-3.30814
11
5.97752
21
-3.30495
0
LINE
8
BLACK
6
CONTINUOUS
10
5.97752
20
-3.30495
11
5.97677
21
-3.30118
0
LINE
8
BLACK
6
CONTINUOUS
10
5.97677
20
-3.30118
11
5.97677
21
-3.27362
0
LINE
8
BLACK
6
CONTINUOUS
10
5.97677
20
-3.27362
11
5.97752
21
-3.26986
0
LINE
8
BLACK
6
CONTINUOUS
10
5.97752
20
-3.26986
11
5.97965
21
-3.26666
0
LINE
8
BLACK
6
CONTINUOUS
10
5.97965
20
-3.26666
11
5.98285
21
-3.26453
0
LINE
8
BLACK
6
CONTINUOUS
10
5.98285
20
-3.26453
11
5.98661
21
-3.26378
0
LINE
8
BLACK
6
CONTINUOUS
10
5.98661
20
-3.26378
11
6.02205
21
-3.26378
0
LINE
8
BLACK
6
CONTINUOUS
10
6.02205
20
-3.26378
11
6.02581
21
-3.26453
0
LINE
8
BLACK
6
CONTINUOUS
10
5.264
20
-2.63756
11
5.2672
21
-2.63969
0
LINE
8
BLACK
6
CONTINUOUS
10
5.2672
20
-2.63969
11
5.26933
21
-2.64289
0
LINE
8
BLACK
6
CONTINUOUS
10
5.26933
20
-2.64289
11
5.27008
21
-2.64665
0
LINE
8
BLACK
6
CONTINUOUS
10
5.27008
20
-2.64665
11
5.27008
21
-2.68406
0
LINE
8
BLACK
6
CONTINUOUS
10
5.27008
20
-2.68406
11
5.26933
21
-2.68782
0
LINE
8
BLACK
6
CONTINUOUS
10
5.26933
20
-2.68782
11
5.2672
21
-2.69101
0
LINE
8
BLACK
6
CONTINUOUS
10
5.2672
20
-2.69101
11
5.264
21
-2.69315
0
LINE
8
BLACK
6
CONTINUOUS
10
5.264
20
-2.69315
11
5.26024
21
-2.6939
0
LINE
8
BLACK
6
CONTINUOUS
10
5.26024
20
-2.6939
11
5.23366
21
-2.6939
0
LINE
8
BLACK
6
CONTINUOUS
10
5.23366
20
-2.6939
11
5.22989
21
-2.69315
0
LINE
8
BLACK
6
CONTINUOUS
10
5.22989
20
-2.69315
11
5.2267
21
-2.69101
0
LINE
8
BLACK
6
CONTINUOUS
10
5.2267
20
-2.69101
11
5.22457
21
-2.68782
0
LINE
8
BLACK
6
CONTINUOUS
10
5.22457
20
-2.68782
11
5.22382
21
-2.68406
0
LINE
8
BLACK
6
CONTINUOUS
10
5.22382
20
-2.68406
11
5.22382
21
-2.64665
0
LINE
8
BLACK
6
CONTINUOUS
10
5.22382
20
-2.64665
11
5.22457
21
-2.64289
0
LINE
8
BLACK
6
CONTINUOUS
10
5.22457
20
-2.64289
11
5.2267
21
-2.63969
0
LINE
8
BLACK
6
CONTINUOUS
10
5.2267
20
-2.63969
11
5.22989
21
-2.63756
0
LINE
8
BLACK
6
CONTINUOUS
10
5.22989
20
-2.63756
11
5.23366
21
-2.63681
0
LINE
8
BLACK
6
CONTINUOUS
10
5.23366
20
-2.63681
11
5.26024
21
-2.63681
0
LINE
8
BLACK
6
CONTINUOUS
10
5.26024
20
-2.63681
11
5.264
21
-2.63756
0
LINE
8
BLACK
6
CONTINUOUS
10
5.3457
20
-2.63756
11
5.34889
21
-2.63969
0
LINE
8
BLACK
6
CONTINUOUS
10
5.34889
20
-2.63969
11
5.35102
21
-2.64289
0
LINE
8
BLACK
6
CONTINUOUS
10
5.35102
20
-2.64289
11
5.35177
21
-2.64665
0
LINE
8
BLACK
6
CONTINUOUS
10
5.35177
20
-2.64665
11
5.35177
21
-2.68406
0
LINE
8
BLACK
6
CONTINUOUS
10
5.35177
20
-2.68406
11
5.35102
21
-2.68782
0
LINE
8
BLACK
6
CONTINUOUS
10
5.35102
20
-2.68782
11
5.34889
21
-2.69101
0
LINE
8
BLACK
6
CONTINUOUS
10
5.34889
20
-2.69101
11
5.3457
21
-2.69315
0
LINE
8
BLACK
6
CONTINUOUS
10
5.3457
20
-2.69315
11
5.34193
21
-2.6939
0
LINE
8
BLACK
6
CONTINUOUS
10
5.34193
20
-2.6939
11
5.31535
21
-2.6939
0
LINE
8
BLACK
6
CONTINUOUS
10
5.31535
20
-2.6939
11
5.31159
21
-2.69315
0
LINE
8
BLACK
6
CONTINUOUS
10
5.31159
20
-2.69315
11
5.30839
21
-2.69101
0
LINE
8
BLACK
6
CONTINUOUS
10
5.30839
20
-2.69101
11
5.30626
21
-2.68782
0
LINE
8
BLACK
6
CONTINUOUS
10
5.30626
20
-2.68782
11
5.30551
21
-2.68406
0
LINE
8
BLACK
6
CONTINUOUS
10
5.30551
20
-2.68406
11
5.30551
21
-2.64665
0
LINE
8
BLACK
6
CONTINUOUS
10
5.30551
20
-2.64665
11
5.30626
21
-2.64289
0
LINE
8
BLACK
6
CONTINUOUS
10
5.30626
20
-2.64289
11
5.30839
21
-2.63969
0
LINE
8
BLACK
6
CONTINUOUS
10
5.30839
20
-2.63969
11
5.31159
21
-2.63756
0
LINE
8
BLACK
6
CONTINUOUS
10
5.31159
20
-2.63756
11
5.31535
21
-2.63681
0
LINE
8
BLACK
6
CONTINUOUS
10
5.31535
20
-2.63681
11
5.34193
21
-2.63681
0
LINE
8
BLACK
6
CONTINUOUS
10
5.34193
20
-2.63681
11
5.3457
21
-2.63756
0
LINE
8
BLACK
6
CONTINUOUS
10
5.26597
20
-2.55193
11
5.26916
21
-2.55406
0
LINE
8
BLACK
6
CONTINUOUS
10
5.26916
20
-2.55406
11
5.2713
21
-2.55726
0
LINE
8
BLACK
6
CONTINUOUS
10
5.2713
20
-2.55726
11
5.27205
21
-2.56102
0
LINE
8
BLACK
6
CONTINUOUS
10
5.27205
20
-2.56102
11
5.27205
21
-2.59646
0
LINE
8
BLACK
6
CONTINUOUS
10
5.27205
20
-2.59646
11
5.2713
21
-2.60022
0
LINE
8
BLACK
6
CONTINUOUS
10
5.2713
20
-2.60022
11
5.26916
21
-2.60342
0
LINE
8
BLACK
6
CONTINUOUS
10
5.26916
20
-2.60342
11
5.26597
21
-2.60555
0
LINE
8
BLACK
6
CONTINUOUS
10
5.26597
20
-2.60555
11
5.2622
21
-2.6063
0
LINE
8
BLACK
6
CONTINUOUS
10
5.2622
20
-2.6063
11
5.23465
21
-2.6063
0
LINE
8
BLACK
6
CONTINUOUS
10
5.23465
20
-2.6063
11
5.23088
21
-2.60555
0
LINE
8
BLACK
6
CONTINUOUS
10
5.23088
20
-2.60555
11
5.22769
21
-2.60342
0
LINE
8
BLACK
6
CONTINUOUS
10
5.22769
20
-2.60342
11
5.22555
21
-2.60022
0
LINE
8
BLACK
6
CONTINUOUS
10
5.22555
20
-2.60022
11
5.2248
21
-2.59646
0
LINE
8
BLACK
6
CONTINUOUS
10
5.2248
20
-2.59646
11
5.2248
21
-2.56102
0
LINE
8
BLACK
6
CONTINUOUS
10
5.2248
20
-2.56102
11
5.22555
21
-2.55726
0
LINE
8
BLACK
6
CONTINUOUS
10
5.22555
20
-2.55726
11
5.22769
21
-2.55406
0
LINE
8
BLACK
6
CONTINUOUS
10
5.22769
20
-2.55406
11
5.23088
21
-2.55193
0
LINE
8
BLACK
6
CONTINUOUS
10
5.23088
20
-2.55193
11
5.23465
21
-2.55118
0
LINE
8
BLACK
6
CONTINUOUS
10
5.23465
20
-2.55118
11
5.2622
21
-2.55118
0
LINE
8
BLACK
6
CONTINUOUS
10
5.2622
20
-2.55118
11
5.26597
21
-2.55193
0
LINE
8
BLACK
6
CONTINUOUS
10
5.34471
20
-2.55193
11
5.3479
21
-2.55406
0
LINE
8
BLACK
6
CONTINUOUS
10
5.3479
20
-2.55406
11
5.35004
21
-2.55726
0
LINE
8
BLACK
6
CONTINUOUS
10
5.35004
20
-2.55726
11
5.35079
21
-2.56102
0
LINE
8
BLACK
6
CONTINUOUS
10
5.35079
20
-2.56102
11
5.35079
21
-2.59646
0
LINE
8
BLACK
6
CONTINUOUS
10
5.35079
20
-2.59646
11
5.35004
21
-2.60022
0
LINE
8
BLACK
6
CONTINUOUS
10
5.35004
20
-2.60022
11
5.3479
21
-2.60342
0
LINE
8
BLACK
6
CONTINUOUS
10
5.3479
20
-2.60342
11
5.34471
21
-2.60555
0
LINE
8
BLACK
6
CONTINUOUS
10
5.34471
20
-2.60555
11
5.34094
21
-2.6063
0
LINE
8
BLACK
6
CONTINUOUS
10
5.34094
20
-2.6063
11
5.31339
21
-2.6063
0
LINE
8
BLACK
6
CONTINUOUS
10
5.31339
20
-2.6063
11
5.30962
21
-2.60555
0
LINE
8
BLACK
6
CONTINUOUS
10
5.30962
20
-2.60555
11
5.30643
21
-2.60342
0
LINE
8
BLACK
6
CONTINUOUS
10
5.30643
20
-2.60342
11
5.30429
21
-2.60022
0
LINE
8
BLACK
6
CONTINUOUS
10
5.30429
20
-2.60022
11
5.30354
21
-2.59646
0
LINE
8
BLACK
6
CONTINUOUS
10
5.30354
20
-2.59646
11
5.30354
21
-2.56102
0
LINE
8
BLACK
6
CONTINUOUS
10
5.30354
20
-2.56102
11
5.30429
21
-2.55726
0
LINE
8
BLACK
6
CONTINUOUS
10
5.30429
20
-2.55726
11
5.30643
21
-2.55406
0
LINE
8
BLACK
6
CONTINUOUS
10
5.30643
20
-2.55406
11
5.30962
21
-2.55193
0
LINE
8
BLACK
6
CONTINUOUS
10
5.30962
20
-2.55193
11
5.31339
21
-2.55118
0
LINE
8
BLACK
6
CONTINUOUS
10
5.31339
20
-2.55118
11
5.34094
21
-2.55118
0
LINE
8
BLACK
6
CONTINUOUS
10
5.34094
20
-2.55118
11
5.34471
21
-2.55193
  0
ENDSEC
  0
EOF
