<?xml version="1.0" standalone="no"?>
 <!DOCTYPE svg PUBLIC "-//W3C//DTD SVG 1.1//EN" 
 "http://www.w3.org/Graphics/SVG/1.1/DTD/svg11.dtd"> 
<svg
  xmlns:svg="http://www.w3.org/2000/svg"
  xmlns="http://www.w3.org/2000/svg"
  xmlns:xlink="http://www.w3.org/1999/xlink"
  version="1.1"
  width="297.0022mm" height="210.0072mm" viewBox="0.0000 0.0000 297.0022 210.0072">
<title>SVG Image created as GreenBean-Edge_Cuts.svg date 2023/08/08 15:30:37 </title>
  <desc>Image generated by PCBNEW </desc>
<g style="fill:#000000; fill-opacity:1.0000;stroke:#000000; stroke-opacity:1.0000;
stroke-linecap:round; stroke-linejoin:round;"
 transform="translate(0 0) scale(1 1)">
</g>
<g style="fill:#000000; fill-opacity:0.0; 
stroke:#000000; stroke-width:0.0000; stroke-opacity:1; 
stroke-linecap:round; stroke-linejoin:round;">
</g>
<g style="fill:#000000; fill-opacity:0.0; 
stroke:#000000; stroke-width:0.1500; stroke-opacity:1; 
stroke-linecap:round; stroke-linejoin:round;">
<path d="M151.6022 107.7500
L148.5022 107.7500
" />
<path d="M159.3022 109.5000
L156.4022 109.5000
" />
<path d="M169.0022 147.5000
L170.0022 146.5000
" />
<path d="M182.0022 134.5000
L182.0022 121.0000
" />
<path d="M161.6522 109.7500
L180.5022 109.7500
" />
<path d="M151.6022 109.5000
L149.0022 109.5000
" />
<path d="M148.2522 62.5000
L148.2522 52.0000
" />
<path d="M170.0022 146.5000
L182.0022 134.5000
" />
<path d="M182.0022 57.0000
L182.0022 108.2500
" />
<path d="M128.0022 141.0000
L139.0022 152.0000
" />
<path d="M163.5022 151.0000
L163.5022 148.5000
" />
<path d="M147.2522 111.2500
L132.2522 111.2500
" />
<path d="M148.5022 107.7500
L146.5022 109.7500
" />
<path d="M131.5022 52.0000
L126.5022 57.0000
" />
<path d="M128.0022 109.7500
L126.5022 108.2500
" />
<path d="M128.0022 133.5000
L126.5022 132.0000
" />
<path d="M180.5022 109.7500
L182.0022 108.2500
" />
<path d="M156.4022 107.7500
L156.4022 109.5000
" />
<path d="M159.6522 107.7500
L161.6522 109.7500
" />
<path d="M182.0022 57.0000
L177.0022 52.0000
" />
<path d="M126.5022 85.0000
L126.5022 57.0000
" />
<path d="M160.2522 62.5000
L148.2522 62.5000
" />
<path d="M160.2522 52.0000
L177.0022 52.0000
" />
<path d="M126.5022 112.7500
L128.0022 111.2500
" />
<path d="M161.0522 111.2500
L180.0022 111.2500
" />
<path d="M162.5022 152.0000
L139.0022 152.0000
" />
</g>
<g style="fill:#000000; fill-opacity:1.0000; 
stroke:#000000; stroke-width:0.0000; stroke-opacity:1; 
stroke-linecap:round; stroke-linejoin:round;">
<circle cx="180.5022" cy="109.7500" r="0.0750" /> 
</g>
<g style="fill:#000000; fill-opacity:1.0000; 
stroke:#000000; stroke-width:0.1500; stroke-opacity:1; 
stroke-linecap:round; stroke-linejoin:round;">
</g>
<g style="fill:#000000; fill-opacity:0.0; 
stroke:#000000; stroke-width:0.1500; stroke-opacity:1; 
stroke-linecap:round; stroke-linejoin:round;">
<path d="M159.3022 109.5000
L161.0522 111.2500
" />
<path d="M128.0022 133.5000
L128.0022 141.0000
" />
<path d="M126.5022 108.2500
L126.5022 85.0000
" />
<path d="M160.2522 52.0000
L160.2522 62.5000
" />
<path d="M162.5022 152.0000
L163.5022 151.0000
" />
<path d="M163.5022 148.5000
L164.5022 147.5000
" />
<path style="fill:#000000; fill-opacity:0.0; 
stroke:#000000; stroke-width:0.1500; stroke-opacity:1; 
stroke-linecap:round; stroke-linejoin:round;fill:none"
d="M 155.3322,107.7600
152.7122,107.7600
152.7122,109.4900
155.3322,109.4900
Z" /> 
<path d="M182.0022 112.7500
L182.0022 121.0000
" />
<path d="M148.2522 52.0000
L131.5022 52.0000
" />
<path d="M164.5022 147.5000
L168.5022 147.5000
" />
<path d="M151.6022 107.7500
L151.6022 109.5000
" />
<path d="M128.0022 111.2500
L132.2522 111.2500
" />
<path d="M180.5022 111.2500
L182.0022 112.7500
" />
<path d="M149.0022 109.5000
L147.2522 111.2500
" />
<path d="M126.5022 132.0000
L126.5022 112.7500
" />
<path d="M168.5022 147.5000
L169.0022 147.5000
" />
<path d="M159.6522 107.7500
L156.4022 107.7500
" />
<path d="M146.5022 109.7500
L128.0022 109.7500
" />
<path d="M180.0022 111.2500
L180.5022 111.2500
" />
<g >
</g>
<g >
</g>
<g >
</g>
<g >
</g>
<g >
</g>
<g >
</g>
<g >
</g>
<g >
</g>
<g >
</g>
<g >
</g>
<g >
</g>
<g >
</g>
<g >
</g>
<g >
</g>
<g >
</g>
<g >
</g>
<g >
</g>
<g >
</g>
<g >
</g>
<g >
</g>
<g >
</g>
<g >
</g>
<g >
</g>
<g >
</g>
<g >
</g>
<g >
</g>
<g >
</g>
<g >
</g>
<g >
</g>
<g >
</g>
<g >
</g>
<g >
</g>
<g >
</g>
<g >
</g>
<g >
</g>
<g >
</g>
<g >
</g>
<g >
</g>
<g >
</g>
<g >
</g>
<g >
</g>
<g >
</g>
<g >
</g>
<g >
</g>
<g >
</g>
<g >
</g>
<g >
</g>
<g >
</g>
<g >
</g>
<g >
</g>
<g >
</g>
<g >
</g>
<g >
</g>
<g >
</g>
<g >
</g>
<g >
</g>
<g >
</g>
<g >
</g>
<g >
</g>
<g >
</g>
<g >
</g>
<g >
</g>
<g >
</g>
<g >
</g>
<g >
</g>
<g >
</g>
</g> 
</svg>
