<?xml version="1.0" standalone="no"?>
 <!DOCTYPE svg PUBLIC "-//W3C//DTD SVG 1.1//EN" 
 "http://www.w3.org/Graphics/SVG/1.1/DTD/svg11.dtd"> 
<svg
  xmlns:svg="http://www.w3.org/2000/svg"
  xmlns="http://www.w3.org/2000/svg"
  xmlns:xlink="http://www.w3.org/1999/xlink"
  version="1.1"
  width="5.765000000000001cm" height="10.215000000000002cm" viewBox="113.925 50.925 57.65 102.15">
<title>SVG Image created as GreenBean-B_Mask.svg date 2023/08/08 15:26:40 </title>
  <desc>Image generated by PCBNEW </desc>
<g style="fill:#000000; fill-opacity:1.000000;stroke:#000000; stroke-opacity:1.000000;
stroke-linecap:round; stroke-linejoin:round;"
 transform="translate(0 0) scale(1 1)">
</g>
<g style="fill:#000000; fill-opacity:0.0; 
stroke:#000000; stroke-width:0.000000; stroke-opacity:1; 
stroke-linecap:round; stroke-linejoin:round;">
<g >
</g>
<g style="fill:#000000; fill-opacity:0.0; 
stroke:#000000; stroke-width:0.000000; stroke-opacity:1; 
stroke-linecap:round; stroke-linejoin:round;">
</g>
<g style="fill:#000000; fill-opacity:1.000000; 
stroke:#000000; stroke-width:0.000000; stroke-opacity:1; 
stroke-linecap:round; stroke-linejoin:round;">
<path style="fill:#000000; fill-opacity:1.000000; 
stroke:#000000; stroke-width:0.000000; stroke-opacity:1; 
stroke-linecap:round; stroke-linejoin:round;fill-rule:evenodd;"
d="M 150.050000,138.575000
150.034776,138.651537
149.991421,138.716421
149.926537,138.759776
149.850000,138.775000
147.250000,138.775000
147.173463,138.759776
147.108579,138.716421
147.065224,138.651537
147.050000,138.575000
147.050000,137.075000
147.065224,136.998463
147.108579,136.933579
147.173463,136.890224
147.250000,136.875000
149.850000,136.875000
149.926537,136.890224
149.991421,136.933579
150.034776,136.998463
150.050000,137.075000
Z" /> 
</g>
<g style="fill:#000000; fill-opacity:1.000000; 
stroke:#000000; stroke-width:1.900000; stroke-opacity:1; 
stroke-linecap:round; stroke-linejoin:round;">
</g>
<g style="fill:#000000; fill-opacity:0.0; 
stroke:#000000; stroke-width:1.900000; stroke-opacity:1; 
stroke-linecap:round; stroke-linejoin:round;">
<path d="M143.800000 137.825000
L142.700000 137.825000
" />
<path d="M138.500000 137.825000
L137.400000 137.825000
" />
<path d="M149.100000 142.525000
L148.000000 142.525000
" />
<path d="M143.800000 142.550000
L142.700000 142.550000
" />
<path d="M138.500000 142.525000
L137.400000 142.525000
" />
<path d="M149.100000 147.225000
L148.000000 147.225000
" />
<path d="M143.800000 147.225000
L142.700000 147.225000
" />
<path d="M138.500000 147.225000
L137.400000 147.225000
" />
</g>
<g >
</g>
<g style="fill:#000000; fill-opacity:0.0; 
stroke:#000000; stroke-width:1.900000; stroke-opacity:1; 
stroke-linecap:round; stroke-linejoin:round;">
</g>
<g style="fill:#000000; fill-opacity:1.000000; 
stroke:#000000; stroke-width:0.000000; stroke-opacity:1; 
stroke-linecap:round; stroke-linejoin:round;">
<circle cx="128.660000" cy="130.730000" r="1.700000" /> 
</g>
<g style="fill:#000000; fill-opacity:1.000000; 
stroke:#000000; stroke-width:0.021200; stroke-opacity:1; 
stroke-linecap:round; stroke-linejoin:round;">
</g>
<g style="fill:#000000; fill-opacity:1.000000; 
stroke:#000000; stroke-width:0.000000; stroke-opacity:1; 
stroke-linecap:round; stroke-linejoin:round;">
<circle cx="128.660000" cy="114.500000" r="1.700000" /> 
</g>
<g style="fill:#000000; fill-opacity:1.000000; 
stroke:#000000; stroke-width:0.021200; stroke-opacity:1; 
stroke-linecap:round; stroke-linejoin:round;">
</g>
<g style="fill:#000000; fill-opacity:1.000000; 
stroke:#000000; stroke-width:0.000000; stroke-opacity:1; 
stroke-linecap:round; stroke-linejoin:round;">
<circle cx="122.310000" cy="130.730000" r="1.700000" /> 
</g>
<g style="fill:#000000; fill-opacity:1.000000; 
stroke:#000000; stroke-width:0.021200; stroke-opacity:1; 
stroke-linecap:round; stroke-linejoin:round;">
</g>
<g style="fill:#000000; fill-opacity:1.000000; 
stroke:#000000; stroke-width:0.000000; stroke-opacity:1; 
stroke-linecap:round; stroke-linejoin:round;">
<circle cx="122.310000" cy="114.500000" r="1.700000" /> 
</g>
<g style="fill:#000000; fill-opacity:1.000000; 
stroke:#000000; stroke-width:0.021200; stroke-opacity:1; 
stroke-linecap:round; stroke-linejoin:round;">
</g>
<g style="fill:#000000; fill-opacity:1.000000; 
stroke:#000000; stroke-width:0.000000; stroke-opacity:1; 
stroke-linecap:round; stroke-linejoin:round;">
<circle cx="135.010000" cy="130.730000" r="1.700000" /> 
</g>
<g style="fill:#000000; fill-opacity:1.000000; 
stroke:#000000; stroke-width:0.021200; stroke-opacity:1; 
stroke-linecap:round; stroke-linejoin:round;">
</g>
<g style="fill:#000000; fill-opacity:1.000000; 
stroke:#000000; stroke-width:0.000000; stroke-opacity:1; 
stroke-linecap:round; stroke-linejoin:round;">
<circle cx="135.010000" cy="114.500000" r="1.700000" /> 
</g>
<g style="fill:#000000; fill-opacity:1.000000; 
stroke:#000000; stroke-width:0.021200; stroke-opacity:1; 
stroke-linecap:round; stroke-linejoin:round;">
</g>
<g >
</g>
<g style="fill:#000000; fill-opacity:1.000000; 
stroke:#000000; stroke-width:0.021200; stroke-opacity:1; 
stroke-linecap:round; stroke-linejoin:round;">
</g>
<g style="fill:#000000; fill-opacity:1.000000; 
stroke:#000000; stroke-width:0.000000; stroke-opacity:1; 
stroke-linecap:round; stroke-linejoin:round;">
<path style="fill:#000000; fill-opacity:1.000000; 
stroke:#000000; stroke-width:0.000000; stroke-opacity:1; 
stroke-linecap:round; stroke-linejoin:round;fill-rule:evenodd;"
d="M 133.460000,54.150000
133.475224,54.073463
133.518579,54.008579
133.583463,53.965224
133.660000,53.950000
135.360000,53.950000
135.436537,53.965224
135.501421,54.008579
135.544776,54.073463
135.560000,54.150000
135.560000,55.850000
135.544776,55.926537
135.501421,55.991421
135.436537,56.034776
135.360000,56.050000
133.660000,56.050000
133.583463,56.034776
133.518579,55.991421
133.475224,55.926537
133.460000,55.850000
Z" /> 
<circle cx="134.510000" cy="57.540000" r="1.050000" /> 
</g>
<g >
</g>
<g style="fill:#000000; fill-opacity:1.000000; 
stroke:#000000; stroke-width:0.000000; stroke-opacity:1; 
stroke-linecap:round; stroke-linejoin:round;">
<path style="fill:#000000; fill-opacity:1.000000; 
stroke:#000000; stroke-width:0.000000; stroke-opacity:1; 
stroke-linecap:round; stroke-linejoin:round;fill-rule:evenodd;"
d="M 147.550000,110.300000
147.626537,110.315224
147.691421,110.358579
147.734776,110.423463
147.750000,110.500000
147.750000,112.200000
147.734776,112.276537
147.691421,112.341421
147.626537,112.384776
147.550000,112.400000
145.850000,112.400000
145.773463,112.384776
145.708579,112.341421
145.665224,112.276537
145.650000,112.200000
145.650000,110.500000
145.665224,110.423463
145.708579,110.358579
145.773463,110.315224
145.850000,110.300000
Z" /> 
<circle cx="144.160000" cy="111.350000" r="1.050000" /> 
<circle cx="141.620000" cy="111.350000" r="1.050000" /> 
<circle cx="139.080000" cy="111.350000" r="1.050000" /> 
</g>
<g >
</g>
<g style="fill:#000000; fill-opacity:1.000000; 
stroke:#000000; stroke-width:0.000000; stroke-opacity:1; 
stroke-linecap:round; stroke-linejoin:round;">
<path style="fill:#000000; fill-opacity:1.000000; 
stroke:#000000; stroke-width:0.000000; stroke-opacity:1; 
stroke-linecap:round; stroke-linejoin:round;fill-rule:evenodd;"
d="M 147.550000,104.750000
147.626537,104.765224
147.691421,104.808579
147.734776,104.873463
147.750000,104.950000
147.750000,106.650000
147.734776,106.726537
147.691421,106.791421
147.626537,106.834776
147.550000,106.850000
145.850000,106.850000
145.773463,106.834776
145.708579,106.791421
145.665224,106.726537
145.650000,106.650000
145.650000,104.950000
145.665224,104.873463
145.708579,104.808579
145.773463,104.765224
145.850000,104.750000
Z" /> 
<circle cx="144.160000" cy="105.800000" r="1.050000" /> 
<circle cx="141.620000" cy="105.800000" r="1.050000" /> 
<circle cx="139.080000" cy="105.800000" r="1.050000" /> 
</g>
<g >
</g>
<g style="fill:#000000; fill-opacity:1.000000; 
stroke:#000000; stroke-width:0.000000; stroke-opacity:1; 
stroke-linecap:round; stroke-linejoin:round;">
<path style="fill:#000000; fill-opacity:1.000000; 
stroke:#000000; stroke-width:0.000000; stroke-opacity:1; 
stroke-linecap:round; stroke-linejoin:round;fill-rule:evenodd;"
d="M 162.800000,139.200000
162.876537,139.215224
162.941421,139.258579
162.984776,139.323463
163.000000,139.400000
163.000000,141.000000
162.984776,141.076537
162.941421,141.141421
162.876537,141.184776
162.800000,141.200000
161.200000,141.200000
161.123463,141.184776
161.058579,141.141421
161.015224,141.076537
161.000000,141.000000
161.000000,139.400000
161.015224,139.323463
161.058579,139.258579
161.123463,139.215224
161.200000,139.200000
Z" /> 
<circle cx="162.000000" cy="142.700000" r="1.000000" /> 
</g>
<g style="fill:#000000; fill-opacity:1.000000; 
stroke:#000000; stroke-width:0.021200; stroke-opacity:1; 
stroke-linecap:round; stroke-linejoin:round;">
</g>
<g >
</g>
<g style="fill:#000000; fill-opacity:1.000000; 
stroke:#000000; stroke-width:0.021200; stroke-opacity:1; 
stroke-linecap:round; stroke-linejoin:round;">
</g>
<g style="fill:#000000; fill-opacity:1.000000; 
stroke:#000000; stroke-width:0.000000; stroke-opacity:1; 
stroke-linecap:round; stroke-linejoin:round;">
<path style="fill:#000000; fill-opacity:1.000000; 
stroke:#000000; stroke-width:0.000000; stroke-opacity:1; 
stroke-linecap:round; stroke-linejoin:round;fill-rule:evenodd;"
d="M 123.700000,138.490000
123.684776,138.566537
123.641421,138.631421
123.576537,138.674776
123.500000,138.690000
121.500000,138.690000
121.423463,138.674776
121.358579,138.631421
121.315224,138.566537
121.300000,138.490000
121.300000,136.590000
121.315224,136.513463
121.358579,136.448579
121.423463,136.405224
121.500000,136.390000
123.500000,136.390000
123.576537,136.405224
123.641421,136.448579
123.684776,136.513463
123.700000,136.590000
Z" /> 
<circle cx="122.500000" cy="135.000000" r="1.150000" /> 
</g>
<g style="fill:#000000; fill-opacity:1.000000; 
stroke:#000000; stroke-width:0.021200; stroke-opacity:1; 
stroke-linecap:round; stroke-linejoin:round;">
</g>
<g >
</g>
<g style="fill:#000000; fill-opacity:1.000000; 
stroke:#000000; stroke-width:0.021200; stroke-opacity:1; 
stroke-linecap:round; stroke-linejoin:round;">
</g>
<g style="fill:#000000; fill-opacity:1.000000; 
stroke:#000000; stroke-width:0.000000; stroke-opacity:1; 
stroke-linecap:round; stroke-linejoin:round;">
<circle cx="155.500000" cy="135.000000" r="1.199490" /> 
</g>
<g style="fill:#000000; fill-opacity:1.000000; 
stroke:#000000; stroke-width:0.021200; stroke-opacity:1; 
stroke-linecap:round; stroke-linejoin:round;">
</g>
<g style="fill:#000000; fill-opacity:1.000000; 
stroke:#000000; stroke-width:0.000000; stroke-opacity:1; 
stroke-linecap:round; stroke-linejoin:round;">
<circle cx="155.500000" cy="142.620000" r="1.199490" /> 
</g>
<g style="fill:#000000; fill-opacity:1.000000; 
stroke:#000000; stroke-width:0.021200; stroke-opacity:1; 
stroke-linecap:round; stroke-linejoin:round;">
</g>
<g >
</g>
<g style="fill:#000000; fill-opacity:1.000000; 
stroke:#000000; stroke-width:0.021200; stroke-opacity:1; 
stroke-linecap:round; stroke-linejoin:round;">
</g>
<g style="fill:#000000; fill-opacity:1.000000; 
stroke:#000000; stroke-width:0.000000; stroke-opacity:1; 
stroke-linecap:round; stroke-linejoin:round;">
<circle cx="127.760000" cy="142.600000" r="1.199490" /> 
</g>
<g style="fill:#000000; fill-opacity:1.000000; 
stroke:#000000; stroke-width:0.021200; stroke-opacity:1; 
stroke-linecap:round; stroke-linejoin:round;">
</g>
<g style="fill:#000000; fill-opacity:1.000000; 
stroke:#000000; stroke-width:0.000000; stroke-opacity:1; 
stroke-linecap:round; stroke-linejoin:round;">
<circle cx="127.760000" cy="134.980000" r="1.199490" /> 
</g>
<g style="fill:#000000; fill-opacity:1.000000; 
stroke:#000000; stroke-width:0.021200; stroke-opacity:1; 
stroke-linecap:round; stroke-linejoin:round;">
</g>
<g >
</g>
<g style="fill:#000000; fill-opacity:1.000000; 
stroke:#000000; stroke-width:0.021200; stroke-opacity:1; 
stroke-linecap:round; stroke-linejoin:round;">
</g>
<g style="fill:#000000; fill-opacity:1.000000; 
stroke:#000000; stroke-width:0.000000; stroke-opacity:1; 
stroke-linecap:round; stroke-linejoin:round;">
<circle cx="131.010000" cy="135.000000" r="1.199490" /> 
</g>
<g style="fill:#000000; fill-opacity:1.000000; 
stroke:#000000; stroke-width:0.021200; stroke-opacity:1; 
stroke-linecap:round; stroke-linejoin:round;">
</g>
<g style="fill:#000000; fill-opacity:1.000000; 
stroke:#000000; stroke-width:0.000000; stroke-opacity:1; 
stroke-linecap:round; stroke-linejoin:round;">
<circle cx="131.010000" cy="142.620000" r="1.199490" /> 
</g>
<g style="fill:#000000; fill-opacity:1.000000; 
stroke:#000000; stroke-width:0.021200; stroke-opacity:1; 
stroke-linecap:round; stroke-linejoin:round;">
</g>
<g >
</g>
<g style="fill:#000000; fill-opacity:1.000000; 
stroke:#000000; stroke-width:0.021200; stroke-opacity:1; 
stroke-linecap:round; stroke-linejoin:round;">
</g>
<g style="fill:#000000; fill-opacity:1.000000; 
stroke:#000000; stroke-width:0.000000; stroke-opacity:1; 
stroke-linecap:round; stroke-linejoin:round;">
<path style="fill:#000000; fill-opacity:1.000000; 
stroke:#000000; stroke-width:0.000000; stroke-opacity:1; 
stroke-linecap:round; stroke-linejoin:round;fill-rule:evenodd;"
d="M 160.200000,134.350000
160.215224,134.273463
160.258579,134.208579
160.323463,134.165224
160.400000,134.150000
161.700000,134.150000
161.776537,134.165224
161.841421,134.208579
161.884776,134.273463
161.900000,134.350000
161.900000,135.650000
161.884776,135.726537
161.841421,135.791421
161.776537,135.834776
161.700000,135.850000
160.400000,135.850000
160.323463,135.834776
160.258579,135.791421
160.215224,135.726537
160.200000,135.650000
Z" /> 
<circle cx="166.050000" cy="135.000000" r="0.850000" /> 
</g>
<g style="fill:#000000; fill-opacity:1.000000; 
stroke:#000000; stroke-width:0.021200; stroke-opacity:1; 
stroke-linecap:round; stroke-linejoin:round;">
</g>
<g >
</g>
<g style="fill:#000000; fill-opacity:1.000000; 
stroke:#000000; stroke-width:0.021200; stroke-opacity:1; 
stroke-linecap:round; stroke-linejoin:round;">
</g>
<g style="fill:#000000; fill-opacity:1.000000; 
stroke:#000000; stroke-width:0.000000; stroke-opacity:1; 
stroke-linecap:round; stroke-linejoin:round;">
<path style="fill:#000000; fill-opacity:1.000000; 
stroke:#000000; stroke-width:0.000000; stroke-opacity:1; 
stroke-linecap:round; stroke-linejoin:round;fill-rule:evenodd;"
d="M 144.990000,115.760000
145.066537,115.775224
145.131421,115.818579
145.174776,115.883463
145.190000,115.960000
145.190000,117.660000
145.174776,117.736537
145.131421,117.801421
145.066537,117.844776
144.990000,117.860000
143.290000,117.860000
143.213463,117.844776
143.148579,117.801421
143.105224,117.736537
143.090000,117.660000
143.090000,115.960000
143.105224,115.883463
143.148579,115.818579
143.213463,115.775224
143.290000,115.760000
Z" /> 
<circle cx="141.600000" cy="116.810000" r="1.050000" /> 
</g>
<g >
</g>
<g style="fill:#000000; fill-opacity:1.000000; 
stroke:#000000; stroke-width:0.000000; stroke-opacity:1; 
stroke-linecap:round; stroke-linejoin:round;">
<circle cx="156.925000" cy="114.500000" r="1.700000" /> 
</g>
<g style="fill:#000000; fill-opacity:1.000000; 
stroke:#000000; stroke-width:0.021200; stroke-opacity:1; 
stroke-linecap:round; stroke-linejoin:round;">
</g>
<g style="fill:#000000; fill-opacity:1.000000; 
stroke:#000000; stroke-width:0.000000; stroke-opacity:1; 
stroke-linecap:round; stroke-linejoin:round;">
<circle cx="156.925000" cy="130.730000" r="1.700000" /> 
</g>
<g style="fill:#000000; fill-opacity:1.000000; 
stroke:#000000; stroke-width:0.021200; stroke-opacity:1; 
stroke-linecap:round; stroke-linejoin:round;">
</g>
<g style="fill:#000000; fill-opacity:1.000000; 
stroke:#000000; stroke-width:0.000000; stroke-opacity:1; 
stroke-linecap:round; stroke-linejoin:round;">
<circle cx="163.275000" cy="114.500000" r="1.700000" /> 
</g>
<g style="fill:#000000; fill-opacity:1.000000; 
stroke:#000000; stroke-width:0.021200; stroke-opacity:1; 
stroke-linecap:round; stroke-linejoin:round;">
</g>
<g style="fill:#000000; fill-opacity:1.000000; 
stroke:#000000; stroke-width:0.000000; stroke-opacity:1; 
stroke-linecap:round; stroke-linejoin:round;">
<circle cx="163.275000" cy="130.730000" r="1.700000" /> 
</g>
<g style="fill:#000000; fill-opacity:1.000000; 
stroke:#000000; stroke-width:0.021200; stroke-opacity:1; 
stroke-linecap:round; stroke-linejoin:round;">
</g>
<g style="fill:#000000; fill-opacity:1.000000; 
stroke:#000000; stroke-width:0.000000; stroke-opacity:1; 
stroke-linecap:round; stroke-linejoin:round;">
<circle cx="150.575000" cy="114.500000" r="1.700000" /> 
</g>
<g style="fill:#000000; fill-opacity:1.000000; 
stroke:#000000; stroke-width:0.021200; stroke-opacity:1; 
stroke-linecap:round; stroke-linejoin:round;">
</g>
<g style="fill:#000000; fill-opacity:1.000000; 
stroke:#000000; stroke-width:0.000000; stroke-opacity:1; 
stroke-linecap:round; stroke-linejoin:round;">
<circle cx="150.575000" cy="130.730000" r="1.700000" /> 
</g>
<g style="fill:#000000; fill-opacity:1.000000; 
stroke:#000000; stroke-width:0.021200; stroke-opacity:1; 
stroke-linecap:round; stroke-linejoin:round;">
</g>
<g >
</g>
<g >
</g>
<g style="fill:#000000; fill-opacity:1.000000; 
stroke:#000000; stroke-width:0.021200; stroke-opacity:1; 
stroke-linecap:round; stroke-linejoin:round;">
</g>
<g style="fill:#000000; fill-opacity:1.000000; 
stroke:#000000; stroke-width:3.600000; stroke-opacity:1; 
stroke-linecap:round; stroke-linejoin:round;">
</g>
<g style="fill:#000000; fill-opacity:0.0; 
stroke:#000000; stroke-width:3.600000; stroke-opacity:1; 
stroke-linecap:round; stroke-linejoin:round;">
<path d="M141.810000 82.400000
L143.610000 82.400000
" />
<path d="M141.810000 77.950000
L143.610000 77.950000
" />
<path d="M141.810000 73.500000
L143.610000 73.500000
" />
</g>
<g >
</g>
<g style="fill:#000000; fill-opacity:0.0; 
stroke:#000000; stroke-width:3.600000; stroke-opacity:1; 
stroke-linecap:round; stroke-linejoin:round;">
</g>
<g style="fill:#000000; fill-opacity:0.0; 
stroke:#000000; stroke-width:0.000000; stroke-opacity:1; 
stroke-linecap:round; stroke-linejoin:round;">
</g>
<g style="fill:#000000; fill-opacity:1.000000; 
stroke:#000000; stroke-width:0.000000; stroke-opacity:1; 
stroke-linecap:round; stroke-linejoin:round;">
<path style="fill:#000000; fill-opacity:1.000000; 
stroke:#000000; stroke-width:0.000000; stroke-opacity:1; 
stroke-linecap:round; stroke-linejoin:round;fill-rule:evenodd;"
d="M 149.610000,94.075000
149.533463,94.059776
149.468579,94.016421
149.425224,93.951537
149.410000,93.875000
149.410000,92.075000
149.425224,91.998463
149.468579,91.933579
149.533463,91.890224
149.610000,91.875000
151.410000,91.875000
151.486537,91.890224
151.551421,91.933579
151.594776,91.998463
151.610000,92.075000
151.610000,93.875000
151.594776,93.951537
151.551421,94.016421
151.486537,94.059776
151.410000,94.075000
Z" /> 
<circle cx="150.510000" cy="90.435000" r="1.100000" /> 
</g>
<g style="fill:#000000; fill-opacity:1.000000; 
stroke:#000000; stroke-width:0.021200; stroke-opacity:1; 
stroke-linecap:round; stroke-linejoin:round;">
</g>
<g >
</g>
<g >
</g>
<g style="fill:#000000; fill-opacity:1.000000; 
stroke:#000000; stroke-width:0.021200; stroke-opacity:1; 
stroke-linecap:round; stroke-linejoin:round;">
</g>
<g style="fill:#000000; fill-opacity:1.000000; 
stroke:#000000; stroke-width:0.000000; stroke-opacity:1; 
stroke-linecap:round; stroke-linejoin:round;">
<path style="fill:#000000; fill-opacity:1.000000; 
stroke:#000000; stroke-width:0.000000; stroke-opacity:1; 
stroke-linecap:round; stroke-linejoin:round;fill-rule:evenodd;"
d="M 156.010000,89.325000
156.086537,89.340224
156.151421,89.383579
156.194776,89.448463
156.210000,89.525000
156.210000,91.325000
156.194776,91.401537
156.151421,91.466421
156.086537,91.509776
156.010000,91.525000
154.210000,91.525000
154.133463,91.509776
154.068579,91.466421
154.025224,91.401537
154.010000,91.325000
154.010000,89.525000
154.025224,89.448463
154.068579,89.383579
154.133463,89.340224
154.210000,89.325000
Z" /> 
<circle cx="155.110000" cy="92.965000" r="1.100000" /> 
</g>
<g style="fill:#000000; fill-opacity:1.000000; 
stroke:#000000; stroke-width:0.021200; stroke-opacity:1; 
stroke-linecap:round; stroke-linejoin:round;">
</g>
<g >
</g>
<g >
</g>
<g >
</g>
<g >
</g>
<g >
</g>
<g >
</g>
<g >
</g>
<g >
</g>
<g >
</g>
<g style="fill:#000000; fill-opacity:1.000000; 
stroke:#000000; stroke-width:0.021200; stroke-opacity:1; 
stroke-linecap:round; stroke-linejoin:round;">
</g>
<g style="fill:#000000; fill-opacity:1.000000; 
stroke:#000000; stroke-width:0.000000; stroke-opacity:1; 
stroke-linecap:round; stroke-linejoin:round;">
<path style="fill:#000000; fill-opacity:1.000000; 
stroke:#000000; stroke-width:0.000000; stroke-opacity:1; 
stroke-linecap:round; stroke-linejoin:round;fill-rule:evenodd;"
d="M 126.510000,94.552651
126.433463,94.537427
126.368579,94.494072
126.325224,94.429188
126.310000,94.352651
126.310000,92.752651
126.325224,92.676114
126.368579,92.611230
126.433463,92.567875
126.510000,92.552651
128.110000,92.552651
128.186537,92.567875
128.251421,92.611230
128.294776,92.676114
128.310000,92.752651
128.310000,94.352651
128.294776,94.429188
128.251421,94.494072
128.186537,94.537427
128.110000,94.552651
Z" /> 
<circle cx="127.310000" cy="91.052651" r="1.000000" /> 
</g>
<g style="fill:#000000; fill-opacity:1.000000; 
stroke:#000000; stroke-width:0.021200; stroke-opacity:1; 
stroke-linecap:round; stroke-linejoin:round;">
</g>
<g >
</g>
<g >
</g>
<g >
</g>
<g >
</g>
<g >
</g>
<g >
</g>
<g >
</g>
<g >
</g>
<g >
</g>
<g >
</g>
<g >
</g>
<g style="fill:#000000; fill-opacity:1.000000; 
stroke:#000000; stroke-width:0.021200; stroke-opacity:1; 
stroke-linecap:round; stroke-linejoin:round;">
</g>
<g style="fill:#000000; fill-opacity:1.000000; 
stroke:#000000; stroke-width:0.000000; stroke-opacity:1; 
stroke-linecap:round; stroke-linejoin:round;">
<path style="fill:#000000; fill-opacity:1.000000; 
stroke:#000000; stroke-width:0.000000; stroke-opacity:1; 
stroke-linecap:round; stroke-linejoin:round;fill-rule:evenodd;"
d="M 157.510000,105.550000
157.494776,105.626537
157.451421,105.691421
157.386537,105.734776
157.310000,105.750000
156.210000,105.750000
156.133463,105.734776
156.068579,105.691421
156.025224,105.626537
156.010000,105.550000
156.010000,103.750000
156.025224,103.673463
156.068579,103.608579
156.133463,103.565224
156.210000,103.550000
157.310000,103.550000
157.386537,103.565224
157.451421,103.608579
157.494776,103.673463
157.510000,103.750000
Z" /> 
<path style="fill:#000000; fill-opacity:1.000000; 
stroke:#000000; stroke-width:0.000000; stroke-opacity:1; 
stroke-linecap:round; stroke-linejoin:round;fill-rule:evenodd;"
d="M 156.240000,107.345000
156.231719,107.433308
156.184955,107.566953
156.100876,107.680876
155.986953,107.764955
155.853308,107.811719
155.765000,107.820000
155.215000,107.820000
155.126692,107.811719
154.993047,107.764955
154.879124,107.680876
154.795045,107.566953
154.748281,107.433308
154.740000,107.345000
154.740000,106.095000
154.748281,106.006692
154.795045,105.873047
154.879124,105.759124
154.993047,105.675045
155.126692,105.628281
155.215000,105.620000
155.765000,105.620000
155.853308,105.628281
155.986953,105.675045
156.100876,105.759124
156.184955,105.873047
156.231719,106.006692
156.240000,106.095000
Z" /> 
<path style="fill:#000000; fill-opacity:1.000000; 
stroke:#000000; stroke-width:0.000000; stroke-opacity:1; 
stroke-linecap:round; stroke-linejoin:round;fill-rule:evenodd;"
d="M 154.970000,105.275000
154.961719,105.363308
154.914955,105.496953
154.830876,105.610876
154.716953,105.694955
154.583308,105.741719
154.495000,105.750000
153.945000,105.750000
153.856692,105.741719
153.723047,105.694955
153.609124,105.610876
153.525045,105.496953
153.478281,105.363308
153.470000,105.275000
153.470000,104.025000
153.478281,103.936692
153.525045,103.803047
153.609124,103.689124
153.723047,103.605045
153.856692,103.558281
153.945000,103.550000
154.495000,103.550000
154.583308,103.558281
154.716953,103.605045
154.830876,103.689124
154.914955,103.803047
154.961719,103.936692
154.970000,104.025000
Z" /> 
</g>
<g >
</g>
<g >
</g>
<g >
</g>
<g style="fill:#000000; fill-opacity:1.000000; 
stroke:#000000; stroke-width:0.000000; stroke-opacity:1; 
stroke-linecap:round; stroke-linejoin:round;">
<path style="fill:#000000; fill-opacity:1.000000; 
stroke:#000000; stroke-width:0.000000; stroke-opacity:1; 
stroke-linecap:round; stroke-linejoin:round;fill-rule:evenodd;"
d="M 161.910000,107.400000
161.833463,107.384776
161.768579,107.341421
161.725224,107.276537
161.710000,107.200000
161.710000,105.600000
161.725224,105.523463
161.768579,105.458579
161.833463,105.415224
161.910000,105.400000
163.510000,105.400000
163.586537,105.415224
163.651421,105.458579
163.694776,105.523463
163.710000,105.600000
163.710000,107.200000
163.694776,107.276537
163.651421,107.341421
163.586537,107.384776
163.510000,107.400000
Z" /> 
<circle cx="162.710000" cy="103.900000" r="1.000000" /> 
</g>
<g style="fill:#000000; fill-opacity:1.000000; 
stroke:#000000; stroke-width:0.021200; stroke-opacity:1; 
stroke-linecap:round; stroke-linejoin:round;">
</g>
<g >
</g>
<g >
</g>
<g >
</g>
<g >
</g>
<g >
</g>
<g >
</g>
<g style="fill:#000000; fill-opacity:1.000000; 
stroke:#000000; stroke-width:0.021200; stroke-opacity:1; 
stroke-linecap:round; stroke-linejoin:round;">
</g>
<g style="fill:#000000; fill-opacity:1.000000; 
stroke:#000000; stroke-width:0.000000; stroke-opacity:1; 
stroke-linecap:round; stroke-linejoin:round;">
<path style="fill:#000000; fill-opacity:1.000000; 
stroke:#000000; stroke-width:0.000000; stroke-opacity:1; 
stroke-linecap:round; stroke-linejoin:round;fill-rule:evenodd;"
d="M 126.780000,105.320000
126.703463,105.304776
126.638579,105.261421
126.595224,105.196537
126.580000,105.120000
126.580000,104.020000
126.595224,103.943463
126.638579,103.878579
126.703463,103.835224
126.780000,103.820000
128.580000,103.820000
128.656537,103.835224
128.721421,103.878579
128.764776,103.943463
128.780000,104.020000
128.780000,105.120000
128.764776,105.196537
128.721421,105.261421
128.656537,105.304776
128.580000,105.320000
Z" /> 
<path style="fill:#000000; fill-opacity:1.000000; 
stroke:#000000; stroke-width:0.000000; stroke-opacity:1; 
stroke-linecap:round; stroke-linejoin:round;fill-rule:evenodd;"
d="M 124.985000,104.050000
124.896692,104.041719
124.763047,103.994955
124.649124,103.910876
124.565045,103.796953
124.518281,103.663308
124.510000,103.575000
124.510000,103.025000
124.518281,102.936692
124.565045,102.803047
124.649124,102.689124
124.763047,102.605045
124.896692,102.558281
124.985000,102.550000
126.235000,102.550000
126.323308,102.558281
126.456953,102.605045
126.570876,102.689124
126.654955,102.803047
126.701719,102.936692
126.710000,103.025000
126.710000,103.575000
126.701719,103.663308
126.654955,103.796953
126.570876,103.910876
126.456953,103.994955
126.323308,104.041719
126.235000,104.050000
Z" /> 
<path style="fill:#000000; fill-opacity:1.000000; 
stroke:#000000; stroke-width:0.000000; stroke-opacity:1; 
stroke-linecap:round; stroke-linejoin:round;fill-rule:evenodd;"
d="M 127.055000,102.780000
126.966692,102.771719
126.833047,102.724955
126.719124,102.640876
126.635045,102.526953
126.588281,102.393308
126.580000,102.305000
126.580000,101.755000
126.588281,101.666692
126.635045,101.533047
126.719124,101.419124
126.833047,101.335045
126.966692,101.288281
127.055000,101.280000
128.305000,101.280000
128.393308,101.288281
128.526953,101.335045
128.640876,101.419124
128.724955,101.533047
128.771719,101.666692
128.780000,101.755000
128.780000,102.305000
128.771719,102.393308
128.724955,102.526953
128.640876,102.640876
128.526953,102.724955
128.393308,102.771719
128.305000,102.780000
Z" /> 
</g>
<g >
</g>
<g >
</g>
<g >
</g>
<g >
</g>
<g >
</g>
<g >
</g>
<g >
</g>
<g >
</g>
<g >
</g>
<g >
</g>
<g >
</g>
<g >
</g>
<g style="fill:#000000; fill-opacity:1.000000; 
stroke:#000000; stroke-width:0.000000; stroke-opacity:1; 
stroke-linecap:round; stroke-linejoin:round;">
<path style="fill:#000000; fill-opacity:1.000000; 
stroke:#000000; stroke-width:0.000000; stroke-opacity:1; 
stroke-linecap:round; stroke-linejoin:round;fill-rule:evenodd;"
d="M 119.610000,102.780000
119.533463,102.764776
119.468579,102.721421
119.425224,102.656537
119.410000,102.580000
119.410000,100.380000
119.425224,100.303463
119.468579,100.238579
119.533463,100.195224
119.610000,100.180000
121.810000,100.180000
121.886537,100.195224
121.951421,100.238579
121.994776,100.303463
122.010000,100.380000
122.010000,102.580000
121.994776,102.656537
121.951421,102.721421
121.886537,102.764776
121.810000,102.780000
Z" /> 
<circle cx="120.710000" cy="91.320000" r="1.300000" /> 
</g>
<g >
</g>
<g style="fill:#000000; fill-opacity:1.000000; 
stroke:#000000; stroke-width:0.000000; stroke-opacity:1; 
stroke-linecap:round; stroke-linejoin:round;">
<circle cx="155.510000" cy="79.154168" r="0.962000" /> 
</g>
<g style="fill:#000000; fill-opacity:1.000000; 
stroke:#000000; stroke-width:0.021200; stroke-opacity:1; 
stroke-linecap:round; stroke-linejoin:round;">
</g>
<g style="fill:#000000; fill-opacity:1.000000; 
stroke:#000000; stroke-width:0.000000; stroke-opacity:1; 
stroke-linecap:round; stroke-linejoin:round;">
<circle cx="160.510000" cy="79.154168" r="0.962000" /> 
</g>
<g style="fill:#000000; fill-opacity:1.000000; 
stroke:#000000; stroke-width:0.021200; stroke-opacity:1; 
stroke-linecap:round; stroke-linejoin:round;">
</g>
<g style="fill:#000000; fill-opacity:1.000000; 
stroke:#000000; stroke-width:0.000000; stroke-opacity:1; 
stroke-linecap:round; stroke-linejoin:round;">
<circle cx="165.510000" cy="79.154168" r="0.962000" /> 
</g>
<g style="fill:#000000; fill-opacity:1.000000; 
stroke:#000000; stroke-width:0.021200; stroke-opacity:1; 
stroke-linecap:round; stroke-linejoin:round;">
</g>
<g >
</g>
<g style="fill:#000000; fill-opacity:1.000000; 
stroke:#000000; stroke-width:0.021200; stroke-opacity:1; 
stroke-linecap:round; stroke-linejoin:round;">
</g>
<g style="fill:#000000; fill-opacity:1.000000; 
stroke:#000000; stroke-width:0.000000; stroke-opacity:1; 
stroke-linecap:round; stroke-linejoin:round;">
<circle cx="130.010000" cy="76.445832" r="0.962000" /> 
</g>
<g style="fill:#000000; fill-opacity:1.000000; 
stroke:#000000; stroke-width:0.021200; stroke-opacity:1; 
stroke-linecap:round; stroke-linejoin:round;">
</g>
<g style="fill:#000000; fill-opacity:1.000000; 
stroke:#000000; stroke-width:0.000000; stroke-opacity:1; 
stroke-linecap:round; stroke-linejoin:round;">
<circle cx="125.010000" cy="76.445832" r="0.962000" /> 
</g>
<g style="fill:#000000; fill-opacity:1.000000; 
stroke:#000000; stroke-width:0.021200; stroke-opacity:1; 
stroke-linecap:round; stroke-linejoin:round;">
</g>
<g style="fill:#000000; fill-opacity:1.000000; 
stroke:#000000; stroke-width:0.000000; stroke-opacity:1; 
stroke-linecap:round; stroke-linejoin:round;">
<circle cx="120.010000" cy="76.445832" r="0.962000" /> 
</g>
<g style="fill:#000000; fill-opacity:1.000000; 
stroke:#000000; stroke-width:0.021200; stroke-opacity:1; 
stroke-linecap:round; stroke-linejoin:round;">
</g>
<g >
</g>
<g style="fill:#000000; fill-opacity:1.000000; 
stroke:#000000; stroke-width:0.021200; stroke-opacity:1; 
stroke-linecap:round; stroke-linejoin:round;">
</g>
<g style="fill:#000000; fill-opacity:1.000000; 
stroke:#000000; stroke-width:0.000000; stroke-opacity:1; 
stroke-linecap:round; stroke-linejoin:round;">
<circle cx="165.510000" cy="76.550000" r="0.962000" /> 
</g>
<g style="fill:#000000; fill-opacity:1.000000; 
stroke:#000000; stroke-width:0.021200; stroke-opacity:1; 
stroke-linecap:round; stroke-linejoin:round;">
</g>
<g style="fill:#000000; fill-opacity:1.000000; 
stroke:#000000; stroke-width:0.000000; stroke-opacity:1; 
stroke-linecap:round; stroke-linejoin:round;">
<circle cx="160.510000" cy="76.550000" r="0.962000" /> 
</g>
<g style="fill:#000000; fill-opacity:1.000000; 
stroke:#000000; stroke-width:0.021200; stroke-opacity:1; 
stroke-linecap:round; stroke-linejoin:round;">
</g>
<g style="fill:#000000; fill-opacity:1.000000; 
stroke:#000000; stroke-width:0.000000; stroke-opacity:1; 
stroke-linecap:round; stroke-linejoin:round;">
<circle cx="155.510000" cy="76.550000" r="0.962000" /> 
</g>
<g style="fill:#000000; fill-opacity:1.000000; 
stroke:#000000; stroke-width:0.021200; stroke-opacity:1; 
stroke-linecap:round; stroke-linejoin:round;">
</g>
<g >
</g>
<g style="fill:#000000; fill-opacity:1.000000; 
stroke:#000000; stroke-width:0.021200; stroke-opacity:1; 
stroke-linecap:round; stroke-linejoin:round;">
</g>
<g style="fill:#000000; fill-opacity:1.000000; 
stroke:#000000; stroke-width:0.000000; stroke-opacity:1; 
stroke-linecap:round; stroke-linejoin:round;">
<circle cx="120.010000" cy="79.404168" r="0.962000" /> 
</g>
<g style="fill:#000000; fill-opacity:1.000000; 
stroke:#000000; stroke-width:0.021200; stroke-opacity:1; 
stroke-linecap:round; stroke-linejoin:round;">
</g>
<g style="fill:#000000; fill-opacity:1.000000; 
stroke:#000000; stroke-width:0.000000; stroke-opacity:1; 
stroke-linecap:round; stroke-linejoin:round;">
<circle cx="125.010000" cy="79.404168" r="0.962000" /> 
</g>
<g style="fill:#000000; fill-opacity:1.000000; 
stroke:#000000; stroke-width:0.021200; stroke-opacity:1; 
stroke-linecap:round; stroke-linejoin:round;">
</g>
<g style="fill:#000000; fill-opacity:1.000000; 
stroke:#000000; stroke-width:0.000000; stroke-opacity:1; 
stroke-linecap:round; stroke-linejoin:round;">
<circle cx="130.010000" cy="79.404168" r="0.962000" /> 
</g>
<g style="fill:#000000; fill-opacity:1.000000; 
stroke:#000000; stroke-width:0.021200; stroke-opacity:1; 
stroke-linecap:round; stroke-linejoin:round;">
</g>
<g >
</g>
<g >
</g>
<g >
</g>
</g> 
</svg>
