<?xml version="1.0" standalone="no"?>
 <!DOCTYPE svg PUBLIC "-//W3C//DTD SVG 1.1//EN" 
 "http://www.w3.org/Graphics/SVG/1.1/DTD/svg11.dtd"> 
<svg
  xmlns:svg="http://www.w3.org/2000/svg"
  xmlns="http://www.w3.org/2000/svg"
  xmlns:xlink="http://www.w3.org/1999/xlink"
  version="1.1"
  width="5.765000000000001cm" height="10.215000000000002cm" viewBox="113.925 50.925 57.65 102.15">
<title>SVG Image created as GreenBean-B_SilkS.svg date 2023/08/08 15:26:40 </title>
  <desc>Image generated by PCBNEW </desc>
<g style="fill:#000000; fill-opacity:1.000000;stroke:#000000; stroke-opacity:1.000000;
stroke-linecap:round; stroke-linejoin:round;"
 transform="translate(0 0) scale(1 1)">
</g>
<g style="fill:#000000; fill-opacity:0.0; 
stroke:#000000; stroke-width:0.000000; stroke-opacity:1; 
stroke-linecap:round; stroke-linejoin:round;">
</g>
<g style="fill:#000000; fill-opacity:0.0; 
stroke:#000000; stroke-width:0.150000; stroke-opacity:1; 
stroke-linecap:round; stroke-linejoin:round;">
<g transform="rotate(-180.000000 160.510000 96.154168)">
<text x="160.510000" y="96.654168"
transform="scale(-1 1) translate(-321.020000 0)"
textLength="4.127381" font-size="1.333333" lengthAdjust="spacingAndGlyphs"
text-anchor="middle" opacity="0">LOW1</text>
</g>
<g class="stroked-text"><desc>LOW1</desc>
<path d="M159.248095 95.699348
L158.771905 95.699348
" />
<path d="M158.771905 95.699348
L158.771905 96.699348
" />
<path d="M159.771905 96.699348
L159.962381 96.699348
" />
<path d="M159.962381 96.699348
L160.057619 96.651729
" />
<path d="M160.057619 96.651729
L160.152857 96.556491
" />
<path d="M160.152857 96.556491
L160.200476 96.366015
" />
<path d="M160.200476 96.366015
L160.200476 96.032682
" />
<path d="M160.200476 96.032682
L160.152857 95.842206
" />
<path d="M160.152857 95.842206
L160.057619 95.746968
" />
<path d="M160.057619 95.746968
L159.962381 95.699348
" />
<path d="M159.962381 95.699348
L159.771905 95.699348
" />
<path d="M159.771905 95.699348
L159.676667 95.746968
" />
<path d="M159.676667 95.746968
L159.581429 95.842206
" />
<path d="M159.581429 95.842206
L159.533810 96.032682
" />
<path d="M159.533810 96.032682
L159.533810 96.366015
" />
<path d="M159.533810 96.366015
L159.581429 96.556491
" />
<path d="M159.581429 96.556491
L159.676667 96.651729
" />
<path d="M159.676667 96.651729
L159.771905 96.699348
" />
<path d="M160.533810 96.699348
L160.771905 95.699348
" />
<path d="M160.771905 95.699348
L160.962381 96.413634
" />
<path d="M160.962381 96.413634
L161.152857 95.699348
" />
<path d="M161.152857 95.699348
L161.390953 96.699348
" />
<path d="M162.295714 95.699348
L161.724286 95.699348
" />
<path d="M162.010000 95.699348
L162.010000 96.699348
" />
<path d="M162.010000 96.699348
L161.914762 96.556491
" />
<path d="M161.914762 96.556491
L161.819524 96.461253
" />
<path d="M161.819524 96.461253
L161.724286 96.413634
" />
</g><text x="125.010000" y="59.945832"
transform="scale(-1 1) translate(-250.020000 0)"
textLength="4.889286" font-size="1.333333" lengthAdjust="spacingAndGlyphs"
text-anchor="middle" opacity="0">TONE1</text>
<g class="stroked-text"><desc>TONE1</desc>
<path d="M127.271904 58.900651
L126.700476 58.900651
" />
<path d="M126.986190 59.900651
L126.986190 58.900651
" />
<path d="M126.176666 58.900651
L125.986190 58.900651
" />
<path d="M125.986190 58.900651
L125.890952 58.948270
" />
<path d="M125.890952 58.948270
L125.795714 59.043508
" />
<path d="M125.795714 59.043508
L125.748095 59.233984
" />
<path d="M125.748095 59.233984
L125.748095 59.567317
" />
<path d="M125.748095 59.567317
L125.795714 59.757793
" />
<path d="M125.795714 59.757793
L125.890952 59.853032
" />
<path d="M125.890952 59.853032
L125.986190 59.900651
" />
<path d="M125.986190 59.900651
L126.176666 59.900651
" />
<path d="M126.176666 59.900651
L126.271904 59.853032
" />
<path d="M126.271904 59.853032
L126.367142 59.757793
" />
<path d="M126.367142 59.757793
L126.414761 59.567317
" />
<path d="M126.414761 59.567317
L126.414761 59.233984
" />
<path d="M126.414761 59.233984
L126.367142 59.043508
" />
<path d="M126.367142 59.043508
L126.271904 58.948270
" />
<path d="M126.271904 58.948270
L126.176666 58.900651
" />
<path d="M125.319523 59.900651
L125.319523 58.900651
" />
<path d="M125.319523 58.900651
L124.748095 59.900651
" />
<path d="M124.748095 59.900651
L124.748095 58.900651
" />
<path d="M124.271904 59.376841
L123.938571 59.376841
" />
<path d="M123.795714 59.900651
L124.271904 59.900651
" />
<path d="M124.271904 59.900651
L124.271904 58.900651
" />
<path d="M124.271904 58.900651
L123.795714 58.900651
" />
<path d="M122.843333 59.900651
L123.414761 59.900651
" />
<path d="M123.129047 59.900651
L123.129047 58.900651
" />
<path d="M123.129047 58.900651
L123.224285 59.043508
" />
<path d="M123.224285 59.043508
L123.319523 59.138746
" />
<path d="M123.319523 59.138746
L123.414761 59.186365
" />
</g><text x="160.510000" y="60.050000"
transform="scale(-1 1) translate(-321.020000 0)"
textLength="5.365476" font-size="1.333333" lengthAdjust="spacingAndGlyphs"
text-anchor="middle" opacity="0">DRIVE1</text>
<g class="stroked-text"><desc>DRIVE1</desc>
<path d="M162.867142 60.004819
L162.867142 59.004819
" />
<path d="M162.867142 59.004819
L162.629047 59.004819
" />
<path d="M162.629047 59.004819
L162.486190 59.052438
" />
<path d="M162.486190 59.052438
L162.390952 59.147676
" />
<path d="M162.390952 59.147676
L162.343333 59.242914
" />
<path d="M162.343333 59.242914
L162.295714 59.433390
" />
<path d="M162.295714 59.433390
L162.295714 59.576247
" />
<path d="M162.295714 59.576247
L162.343333 59.766723
" />
<path d="M162.343333 59.766723
L162.390952 59.861961
" />
<path d="M162.390952 59.861961
L162.486190 59.957200
" />
<path d="M162.486190 59.957200
L162.629047 60.004819
" />
<path d="M162.629047 60.004819
L162.867142 60.004819
" />
<path d="M161.295714 60.004819
L161.629047 59.528628
" />
<path d="M161.867142 60.004819
L161.867142 59.004819
" />
<path d="M161.867142 59.004819
L161.486190 59.004819
" />
<path d="M161.486190 59.004819
L161.390952 59.052438
" />
<path d="M161.390952 59.052438
L161.343333 59.100057
" />
<path d="M161.343333 59.100057
L161.295714 59.195295
" />
<path d="M161.295714 59.195295
L161.295714 59.338152
" />
<path d="M161.295714 59.338152
L161.343333 59.433390
" />
<path d="M161.343333 59.433390
L161.390952 59.481009
" />
<path d="M161.390952 59.481009
L161.486190 59.528628
" />
<path d="M161.486190 59.528628
L161.867142 59.528628
" />
<path d="M160.867142 60.004819
L160.867142 59.004819
" />
<path d="M160.533809 59.004819
L160.200476 60.004819
" />
<path d="M160.200476 60.004819
L159.867143 59.004819
" />
<path d="M159.533809 59.481009
L159.200476 59.481009
" />
<path d="M159.057619 60.004819
L159.533809 60.004819
" />
<path d="M159.533809 60.004819
L159.533809 59.004819
" />
<path d="M159.533809 59.004819
L159.057619 59.004819
" />
<path d="M158.105238 60.004819
L158.676666 60.004819
" />
<path d="M158.390952 60.004819
L158.390952 59.004819
" />
<path d="M158.390952 59.004819
L158.486190 59.147676
" />
<path d="M158.486190 59.147676
L158.581428 59.242914
" />
<path d="M158.581428 59.242914
L158.676666 59.290533
" />
</g><g transform="rotate(-180.000000 125.010000 96.404168)">
<text x="125.010000" y="96.904168"
transform="scale(-1 1) translate(-250.020000 0)"
textLength="3.841667" font-size="1.333333" lengthAdjust="spacingAndGlyphs"
text-anchor="middle" opacity="0">VOL1</text>
</g>
<g class="stroked-text"><desc>VOL1</desc>
<path d="M123.271905 96.949348
L123.605238 95.949348
" />
<path d="M123.605238 95.949348
L123.938571 96.949348
" />
<path d="M124.462381 96.949348
L124.652857 96.949348
" />
<path d="M124.652857 96.949348
L124.748095 96.901729
" />
<path d="M124.748095 96.901729
L124.843333 96.806491
" />
<path d="M124.843333 96.806491
L124.890952 96.616015
" />
<path d="M124.890952 96.616015
L124.890952 96.282682
" />
<path d="M124.890952 96.282682
L124.843333 96.092206
" />
<path d="M124.843333 96.092206
L124.748095 95.996968
" />
<path d="M124.748095 95.996968
L124.652857 95.949348
" />
<path d="M124.652857 95.949348
L124.462381 95.949348
" />
<path d="M124.462381 95.949348
L124.367143 95.996968
" />
<path d="M124.367143 95.996968
L124.271905 96.092206
" />
<path d="M124.271905 96.092206
L124.224286 96.282682
" />
<path d="M124.224286 96.282682
L124.224286 96.616015
" />
<path d="M124.224286 96.616015
L124.271905 96.806491
" />
<path d="M124.271905 96.806491
L124.367143 96.901729
" />
<path d="M124.367143 96.901729
L124.462381 96.949348
" />
<path d="M125.795714 95.949348
L125.319524 95.949348
" />
<path d="M125.319524 95.949348
L125.319524 96.949348
" />
<path d="M126.652857 95.949348
L126.081429 95.949348
" />
<path d="M126.367143 95.949348
L126.367143 96.949348
" />
<path d="M126.367143 96.949348
L126.271905 96.806491
" />
<path d="M126.271905 96.806491
L126.176667 96.711253
" />
<path d="M126.176667 96.711253
L126.081429 96.663634
" />
</g><g >
</g>
<g >
</g>
<g >
</g>
<g >
</g>
<g >
</g>
<g >
</g>
<g >
</g>
<g >
</g>
<g style="fill:#000000; fill-opacity:0.0; 
stroke:#000000; stroke-width:0.150000; stroke-opacity:1; 
stroke-linecap:round; stroke-linejoin:round;">
</g>
<g style="fill:#000000; fill-opacity:1.000000; 
stroke:#000000; stroke-width:0.000000; stroke-opacity:1; 
stroke-linecap:round; stroke-linejoin:round;">
<circle cx="155.500000" cy="135.000000" r="0.999490" /> 
</g>
<g style="fill:#000000; fill-opacity:1.000000; 
stroke:#000000; stroke-width:0.021200; stroke-opacity:1; 
stroke-linecap:round; stroke-linejoin:round;">
</g>
<g style="fill:#000000; fill-opacity:1.000000; 
stroke:#000000; stroke-width:0.000000; stroke-opacity:1; 
stroke-linecap:round; stroke-linejoin:round;">
<circle cx="155.500000" cy="142.620000" r="0.999490" /> 
</g>
<g style="fill:#000000; fill-opacity:1.000000; 
stroke:#000000; stroke-width:0.021200; stroke-opacity:1; 
stroke-linecap:round; stroke-linejoin:round;">
</g>
<g >
</g>
<g style="fill:#000000; fill-opacity:1.000000; 
stroke:#000000; stroke-width:0.021200; stroke-opacity:1; 
stroke-linecap:round; stroke-linejoin:round;">
</g>
<g style="fill:#000000; fill-opacity:1.000000; 
stroke:#000000; stroke-width:0.000000; stroke-opacity:1; 
stroke-linecap:round; stroke-linejoin:round;">
<circle cx="127.760000" cy="142.600000" r="0.999490" /> 
</g>
<g style="fill:#000000; fill-opacity:1.000000; 
stroke:#000000; stroke-width:0.021200; stroke-opacity:1; 
stroke-linecap:round; stroke-linejoin:round;">
</g>
<g style="fill:#000000; fill-opacity:1.000000; 
stroke:#000000; stroke-width:0.000000; stroke-opacity:1; 
stroke-linecap:round; stroke-linejoin:round;">
<circle cx="127.760000" cy="134.980000" r="0.999490" /> 
</g>
<g style="fill:#000000; fill-opacity:1.000000; 
stroke:#000000; stroke-width:0.021200; stroke-opacity:1; 
stroke-linecap:round; stroke-linejoin:round;">
</g>
<g >
</g>
<g style="fill:#000000; fill-opacity:1.000000; 
stroke:#000000; stroke-width:0.021200; stroke-opacity:1; 
stroke-linecap:round; stroke-linejoin:round;">
</g>
<g style="fill:#000000; fill-opacity:1.000000; 
stroke:#000000; stroke-width:0.000000; stroke-opacity:1; 
stroke-linecap:round; stroke-linejoin:round;">
<circle cx="131.010000" cy="135.000000" r="0.999490" /> 
</g>
<g style="fill:#000000; fill-opacity:1.000000; 
stroke:#000000; stroke-width:0.021200; stroke-opacity:1; 
stroke-linecap:round; stroke-linejoin:round;">
</g>
<g style="fill:#000000; fill-opacity:1.000000; 
stroke:#000000; stroke-width:0.000000; stroke-opacity:1; 
stroke-linecap:round; stroke-linejoin:round;">
<circle cx="131.010000" cy="142.620000" r="0.999490" /> 
</g>
<g style="fill:#000000; fill-opacity:1.000000; 
stroke:#000000; stroke-width:0.021200; stroke-opacity:1; 
stroke-linecap:round; stroke-linejoin:round;">
</g>
<g >
</g>
<g >
</g>
<g >
</g>
<g >
</g>
<g >
</g>
<g >
</g>
<g >
</g>
<g >
</g>
<g >
</g>
<g >
</g>
<g >
</g>
<g >
</g>
<g >
</g>
<g >
</g>
<g >
</g>
<g >
</g>
<g >
</g>
<g >
</g>
<g >
</g>
<g >
</g>
<g >
</g>
<g >
</g>
<g >
</g>
<g >
</g>
<g >
</g>
<g >
</g>
<g >
</g>
<g >
</g>
<g >
</g>
<g >
</g>
<g >
</g>
<g >
</g>
<g >
</g>
<g >
</g>
<g >
</g>
<g >
</g>
<g >
</g>
<g >
</g>
<g >
</g>
<g >
</g>
<g >
</g>
<g >
</g>
<g >
</g>
<g >
</g>
<g >
</g>
<g >
</g>
<g >
</g>
<g >
</g>
<g >
</g>
<g >
</g>
<g >
</g>
<g >
</g>
<g >
</g>
<g >
</g>
<g >
</g>
<g >
</g>
</g> 
</svg>
