<?xml version="1.0" standalone="no"?>
 <!DOCTYPE svg PUBLIC "-//W3C//DTD SVG 1.1//EN" 
 "http://www.w3.org/Graphics/SVG/1.1/DTD/svg11.dtd"> 
<svg
  xmlns:svg="http://www.w3.org/2000/svg"
  xmlns="http://www.w3.org/2000/svg"
  xmlns:xlink="http://www.w3.org/1999/xlink"
  version="1.1"
  width="5.765000000000001cm" height="10.215000000000002cm" viewBox="113.925 50.925 57.65 102.15">
<title>SVG Image created as GreenBean-F_Paste.svg date 2023/08/08 15:26:40 </title>
  <desc>Image generated by PCBNEW </desc>
<g style="fill:#000000; fill-opacity:1.000000;stroke:#000000; stroke-opacity:1.000000;
stroke-linecap:round; stroke-linejoin:round;"
 transform="translate(0 0) scale(1 1)">
</g>
<g style="fill:#000000; fill-opacity:0.0; 
stroke:#000000; stroke-width:0.000000; stroke-opacity:1; 
stroke-linecap:round; stroke-linejoin:round;">
<g >
</g>
<g >
</g>
<g >
</g>
<g >
</g>
<g >
</g>
<g >
</g>
<g >
</g>
<g >
</g>
<g >
</g>
<g >
</g>
<g >
</g>
<g >
</g>
<g >
</g>
<g >
</g>
<g style="fill:#000000; fill-opacity:0.0; 
stroke:#000000; stroke-width:0.000000; stroke-opacity:1; 
stroke-linecap:round; stroke-linejoin:round;">
</g>
<g style="fill:#000000; fill-opacity:0.0; 
stroke:#000000; stroke-width:0.000000; stroke-opacity:1; 
stroke-linecap:round; stroke-linejoin:round;">
</g>
<g style="fill:#000000; fill-opacity:1.000000; 
stroke:#000000; stroke-width:0.000000; stroke-opacity:1; 
stroke-linecap:round; stroke-linejoin:round;">
<path style="fill:#000000; fill-opacity:1.000000; 
stroke:#000000; stroke-width:0.000000; stroke-opacity:1; 
stroke-linecap:round; stroke-linejoin:round;fill-rule:evenodd;"
d="M 141.710000,98.550000
141.729030,98.454329
141.783223,98.373223
141.864329,98.319030
141.960000,98.300000
142.660000,98.300000
142.755671,98.319030
142.836777,98.373223
142.890970,98.454329
142.910000,98.550000
142.910000,99.450000
142.890970,99.545671
142.836777,99.626777
142.755671,99.680970
142.660000,99.700000
141.960000,99.700000
141.864329,99.680970
141.783223,99.626777
141.729030,99.545671
141.710000,99.450000
Z" /> 
<path style="fill:#000000; fill-opacity:1.000000; 
stroke:#000000; stroke-width:0.000000; stroke-opacity:1; 
stroke-linecap:round; stroke-linejoin:round;fill-rule:evenodd;"
d="M 143.710000,98.550000
143.729030,98.454329
143.783223,98.373223
143.864329,98.319030
143.960000,98.300000
144.660000,98.300000
144.755671,98.319030
144.836777,98.373223
144.890970,98.454329
144.910000,98.550000
144.910000,99.450000
144.890970,99.545671
144.836777,99.626777
144.755671,99.680970
144.660000,99.700000
143.960000,99.700000
143.864329,99.680970
143.783223,99.626777
143.729030,99.545671
143.710000,99.450000
Z" /> 
</g>
<g >
</g>
<g >
</g>
<g >
</g>
<g style="fill:#000000; fill-opacity:1.000000; 
stroke:#000000; stroke-width:0.000000; stroke-opacity:1; 
stroke-linecap:round; stroke-linejoin:round;">
<path style="fill:#000000; fill-opacity:1.000000; 
stroke:#000000; stroke-width:0.000000; stroke-opacity:1; 
stroke-linecap:round; stroke-linejoin:round;fill-rule:evenodd;"
d="M 132.910000,107.350000
132.890970,107.445671
132.836777,107.526777
132.755671,107.580970
132.660000,107.600000
131.960000,107.600000
131.864329,107.580970
131.783223,107.526777
131.729030,107.445671
131.710000,107.350000
131.710000,106.450000
131.729030,106.354329
131.783223,106.273223
131.864329,106.219030
131.960000,106.200000
132.660000,106.200000
132.755671,106.219030
132.836777,106.273223
132.890970,106.354329
132.910000,106.450000
Z" /> 
<path style="fill:#000000; fill-opacity:1.000000; 
stroke:#000000; stroke-width:0.000000; stroke-opacity:1; 
stroke-linecap:round; stroke-linejoin:round;fill-rule:evenodd;"
d="M 130.910000,107.350000
130.890970,107.445671
130.836777,107.526777
130.755671,107.580970
130.660000,107.600000
129.960000,107.600000
129.864329,107.580970
129.783223,107.526777
129.729030,107.445671
129.710000,107.350000
129.710000,106.450000
129.729030,106.354329
129.783223,106.273223
129.864329,106.219030
129.960000,106.200000
130.660000,106.200000
130.755671,106.219030
130.836777,106.273223
130.890970,106.354329
130.910000,106.450000
Z" /> 
</g>
<g >
</g>
<g >
</g>
<g style="fill:#000000; fill-opacity:1.000000; 
stroke:#000000; stroke-width:0.000000; stroke-opacity:1; 
stroke-linecap:round; stroke-linejoin:round;">
<path style="fill:#000000; fill-opacity:1.000000; 
stroke:#000000; stroke-width:0.000000; stroke-opacity:1; 
stroke-linecap:round; stroke-linejoin:round;fill-rule:evenodd;"
d="M 138.260000,99.400000
138.355671,99.419030
138.436777,99.473223
138.490970,99.554329
138.510000,99.650000
138.510000,100.350000
138.490970,100.445671
138.436777,100.526777
138.355671,100.580970
138.260000,100.600000
137.360000,100.600000
137.264329,100.580970
137.183223,100.526777
137.129030,100.445671
137.110000,100.350000
137.110000,99.650000
137.129030,99.554329
137.183223,99.473223
137.264329,99.419030
137.360000,99.400000
Z" /> 
<path style="fill:#000000; fill-opacity:1.000000; 
stroke:#000000; stroke-width:0.000000; stroke-opacity:1; 
stroke-linecap:round; stroke-linejoin:round;fill-rule:evenodd;"
d="M 138.260000,101.400000
138.355671,101.419030
138.436777,101.473223
138.490970,101.554329
138.510000,101.650000
138.510000,102.350000
138.490970,102.445671
138.436777,102.526777
138.355671,102.580970
138.260000,102.600000
137.360000,102.600000
137.264329,102.580970
137.183223,102.526777
137.129030,102.445671
137.110000,102.350000
137.110000,101.650000
137.129030,101.554329
137.183223,101.473223
137.264329,101.419030
137.360000,101.400000
Z" /> 
</g>
<g >
</g>
<g style="fill:#000000; fill-opacity:1.000000; 
stroke:#000000; stroke-width:0.000000; stroke-opacity:1; 
stroke-linecap:round; stroke-linejoin:round;">
<path style="fill:#000000; fill-opacity:1.000000; 
stroke:#000000; stroke-width:0.000000; stroke-opacity:1; 
stroke-linecap:round; stroke-linejoin:round;fill-rule:evenodd;"
d="M 134.985000,96.825000
135.004030,96.729329
135.058223,96.648223
135.139329,96.594030
135.235000,96.575000
135.910000,96.575000
136.005671,96.594030
136.086777,96.648223
136.140970,96.729329
136.160000,96.825000
136.160000,97.775000
136.140970,97.870671
136.086777,97.951777
136.005671,98.005970
135.910000,98.025000
135.235000,98.025000
135.139329,98.005970
135.058223,97.951777
135.004030,97.870671
134.985000,97.775000
Z" /> 
<path style="fill:#000000; fill-opacity:1.000000; 
stroke:#000000; stroke-width:0.000000; stroke-opacity:1; 
stroke-linecap:round; stroke-linejoin:round;fill-rule:evenodd;"
d="M 137.060000,96.825000
137.079030,96.729329
137.133223,96.648223
137.214329,96.594030
137.310000,96.575000
137.985000,96.575000
138.080671,96.594030
138.161777,96.648223
138.215970,96.729329
138.235000,96.825000
138.235000,97.775000
138.215970,97.870671
138.161777,97.951777
138.080671,98.005970
137.985000,98.025000
137.310000,98.025000
137.214329,98.005970
137.133223,97.951777
137.079030,97.870671
137.060000,97.775000
Z" /> 
</g>
<g >
</g>
<g style="fill:#000000; fill-opacity:1.000000; 
stroke:#000000; stroke-width:0.000000; stroke-opacity:1; 
stroke-linecap:round; stroke-linejoin:round;">
<path style="fill:#000000; fill-opacity:1.000000; 
stroke:#000000; stroke-width:0.000000; stroke-opacity:1; 
stroke-linecap:round; stroke-linejoin:round;fill-rule:evenodd;"
d="M 133.610000,106.450000
133.629030,106.354329
133.683223,106.273223
133.764329,106.219030
133.860000,106.200000
134.560000,106.200000
134.655671,106.219030
134.736777,106.273223
134.790970,106.354329
134.810000,106.450000
134.810000,107.350000
134.790970,107.445671
134.736777,107.526777
134.655671,107.580970
134.560000,107.600000
133.860000,107.600000
133.764329,107.580970
133.683223,107.526777
133.629030,107.445671
133.610000,107.350000
Z" /> 
<path style="fill:#000000; fill-opacity:1.000000; 
stroke:#000000; stroke-width:0.000000; stroke-opacity:1; 
stroke-linecap:round; stroke-linejoin:round;fill-rule:evenodd;"
d="M 135.610000,106.450000
135.629030,106.354329
135.683223,106.273223
135.764329,106.219030
135.860000,106.200000
136.560000,106.200000
136.655671,106.219030
136.736777,106.273223
136.790970,106.354329
136.810000,106.450000
136.810000,107.350000
136.790970,107.445671
136.736777,107.526777
136.655671,107.580970
136.560000,107.600000
135.860000,107.600000
135.764329,107.580970
135.683223,107.526777
135.629030,107.445671
135.610000,107.350000
Z" /> 
</g>
<g >
</g>
<g style="fill:#000000; fill-opacity:1.000000; 
stroke:#000000; stroke-width:0.000000; stroke-opacity:1; 
stroke-linecap:round; stroke-linejoin:round;">
<path style="fill:#000000; fill-opacity:1.000000; 
stroke:#000000; stroke-width:0.000000; stroke-opacity:1; 
stroke-linecap:round; stroke-linejoin:round;fill-rule:evenodd;"
d="M 145.865000,90.450000
145.922403,90.461418
145.971066,90.493934
146.003582,90.542597
146.015000,90.600000
146.015000,92.050000
146.003582,92.107403
145.971066,92.156066
145.922403,92.188582
145.865000,92.200000
145.565000,92.200000
145.507597,92.188582
145.458934,92.156066
145.426418,92.107403
145.415000,92.050000
145.415000,90.600000
145.426418,90.542597
145.458934,90.493934
145.507597,90.461418
145.565000,90.450000
Z" /> 
<path style="fill:#000000; fill-opacity:1.000000; 
stroke:#000000; stroke-width:0.000000; stroke-opacity:1; 
stroke-linecap:round; stroke-linejoin:round;fill-rule:evenodd;"
d="M 144.595000,90.450000
144.652403,90.461418
144.701066,90.493934
144.733582,90.542597
144.745000,90.600000
144.745000,92.050000
144.733582,92.107403
144.701066,92.156066
144.652403,92.188582
144.595000,92.200000
144.295000,92.200000
144.237597,92.188582
144.188934,92.156066
144.156418,92.107403
144.145000,92.050000
144.145000,90.600000
144.156418,90.542597
144.188934,90.493934
144.237597,90.461418
144.295000,90.450000
Z" /> 
<path style="fill:#000000; fill-opacity:1.000000; 
stroke:#000000; stroke-width:0.000000; stroke-opacity:1; 
stroke-linecap:round; stroke-linejoin:round;fill-rule:evenodd;"
d="M 143.325000,90.450000
143.382403,90.461418
143.431066,90.493934
143.463582,90.542597
143.475000,90.600000
143.475000,92.050000
143.463582,92.107403
143.431066,92.156066
143.382403,92.188582
143.325000,92.200000
143.025000,92.200000
142.967597,92.188582
142.918934,92.156066
142.886418,92.107403
142.875000,92.050000
142.875000,90.600000
142.886418,90.542597
142.918934,90.493934
142.967597,90.461418
143.025000,90.450000
Z" /> 
<path style="fill:#000000; fill-opacity:1.000000; 
stroke:#000000; stroke-width:0.000000; stroke-opacity:1; 
stroke-linecap:round; stroke-linejoin:round;fill-rule:evenodd;"
d="M 142.055000,90.450000
142.112403,90.461418
142.161066,90.493934
142.193582,90.542597
142.205000,90.600000
142.205000,92.050000
142.193582,92.107403
142.161066,92.156066
142.112403,92.188582
142.055000,92.200000
141.755000,92.200000
141.697597,92.188582
141.648934,92.156066
141.616418,92.107403
141.605000,92.050000
141.605000,90.600000
141.616418,90.542597
141.648934,90.493934
141.697597,90.461418
141.755000,90.450000
Z" /> 
<path style="fill:#000000; fill-opacity:1.000000; 
stroke:#000000; stroke-width:0.000000; stroke-opacity:1; 
stroke-linecap:round; stroke-linejoin:round;fill-rule:evenodd;"
d="M 142.055000,95.600000
142.112403,95.611418
142.161066,95.643934
142.193582,95.692597
142.205000,95.750000
142.205000,97.200000
142.193582,97.257403
142.161066,97.306066
142.112403,97.338582
142.055000,97.350000
141.755000,97.350000
141.697597,97.338582
141.648934,97.306066
141.616418,97.257403
141.605000,97.200000
141.605000,95.750000
141.616418,95.692597
141.648934,95.643934
141.697597,95.611418
141.755000,95.600000
Z" /> 
<path style="fill:#000000; fill-opacity:1.000000; 
stroke:#000000; stroke-width:0.000000; stroke-opacity:1; 
stroke-linecap:round; stroke-linejoin:round;fill-rule:evenodd;"
d="M 143.325000,95.600000
143.382403,95.611418
143.431066,95.643934
143.463582,95.692597
143.475000,95.750000
143.475000,97.200000
143.463582,97.257403
143.431066,97.306066
143.382403,97.338582
143.325000,97.350000
143.025000,97.350000
142.967597,97.338582
142.918934,97.306066
142.886418,97.257403
142.875000,97.200000
142.875000,95.750000
142.886418,95.692597
142.918934,95.643934
142.967597,95.611418
143.025000,95.600000
Z" /> 
<path style="fill:#000000; fill-opacity:1.000000; 
stroke:#000000; stroke-width:0.000000; stroke-opacity:1; 
stroke-linecap:round; stroke-linejoin:round;fill-rule:evenodd;"
d="M 144.595000,95.600000
144.652403,95.611418
144.701066,95.643934
144.733582,95.692597
144.745000,95.750000
144.745000,97.200000
144.733582,97.257403
144.701066,97.306066
144.652403,97.338582
144.595000,97.350000
144.295000,97.350000
144.237597,97.338582
144.188934,97.306066
144.156418,97.257403
144.145000,97.200000
144.145000,95.750000
144.156418,95.692597
144.188934,95.643934
144.237597,95.611418
144.295000,95.600000
Z" /> 
<path style="fill:#000000; fill-opacity:1.000000; 
stroke:#000000; stroke-width:0.000000; stroke-opacity:1; 
stroke-linecap:round; stroke-linejoin:round;fill-rule:evenodd;"
d="M 145.865000,95.600000
145.922403,95.611418
145.971066,95.643934
146.003582,95.692597
146.015000,95.750000
146.015000,97.200000
146.003582,97.257403
145.971066,97.306066
145.922403,97.338582
145.865000,97.350000
145.565000,97.350000
145.507597,97.338582
145.458934,97.306066
145.426418,97.257403
145.415000,97.200000
145.415000,95.750000
145.426418,95.692597
145.458934,95.643934
145.507597,95.611418
145.565000,95.600000
Z" /> 
</g>
<g >
</g>
<g style="fill:#000000; fill-opacity:1.000000; 
stroke:#000000; stroke-width:0.000000; stroke-opacity:1; 
stroke-linecap:round; stroke-linejoin:round;">
<path style="fill:#000000; fill-opacity:1.000000; 
stroke:#000000; stroke-width:0.000000; stroke-opacity:1; 
stroke-linecap:round; stroke-linejoin:round;fill-rule:evenodd;"
d="M 123.460000,103.900000
123.555671,103.919030
123.636777,103.973223
123.690970,104.054329
123.710000,104.150000
123.710000,104.850000
123.690970,104.945671
123.636777,105.026777
123.555671,105.080970
123.460000,105.100000
122.560000,105.100000
122.464329,105.080970
122.383223,105.026777
122.329030,104.945671
122.310000,104.850000
122.310000,104.150000
122.329030,104.054329
122.383223,103.973223
122.464329,103.919030
122.560000,103.900000
Z" /> 
<path style="fill:#000000; fill-opacity:1.000000; 
stroke:#000000; stroke-width:0.000000; stroke-opacity:1; 
stroke-linecap:round; stroke-linejoin:round;fill-rule:evenodd;"
d="M 123.460000,105.900000
123.555671,105.919030
123.636777,105.973223
123.690970,106.054329
123.710000,106.150000
123.710000,106.850000
123.690970,106.945671
123.636777,107.026777
123.555671,107.080970
123.460000,107.100000
122.560000,107.100000
122.464329,107.080970
122.383223,107.026777
122.329030,106.945671
122.310000,106.850000
122.310000,106.150000
122.329030,106.054329
122.383223,105.973223
122.464329,105.919030
122.560000,105.900000
Z" /> 
</g>
<g >
</g>
<g style="fill:#000000; fill-opacity:1.000000; 
stroke:#000000; stroke-width:0.000000; stroke-opacity:1; 
stroke-linecap:round; stroke-linejoin:round;">
<path style="fill:#000000; fill-opacity:1.000000; 
stroke:#000000; stroke-width:0.000000; stroke-opacity:1; 
stroke-linecap:round; stroke-linejoin:round;fill-rule:evenodd;"
d="M 143.960000,88.500000
143.979030,88.404329
144.033223,88.323223
144.114329,88.269030
144.210000,88.250000
144.810000,88.250000
144.905671,88.269030
144.986777,88.323223
145.040970,88.404329
145.060000,88.500000
145.060000,89.100000
145.040970,89.195671
144.986777,89.276777
144.905671,89.330970
144.810000,89.350000
144.210000,89.350000
144.114329,89.330970
144.033223,89.276777
143.979030,89.195671
143.960000,89.100000
Z" /> 
<path style="fill:#000000; fill-opacity:1.000000; 
stroke:#000000; stroke-width:0.000000; stroke-opacity:1; 
stroke-linecap:round; stroke-linejoin:round;fill-rule:evenodd;"
d="M 146.760000,88.500000
146.779030,88.404329
146.833223,88.323223
146.914329,88.269030
147.010000,88.250000
147.610000,88.250000
147.705671,88.269030
147.786777,88.323223
147.840970,88.404329
147.860000,88.500000
147.860000,89.100000
147.840970,89.195671
147.786777,89.276777
147.705671,89.330970
147.610000,89.350000
147.010000,89.350000
146.914329,89.330970
146.833223,89.276777
146.779030,89.195671
146.760000,89.100000
Z" /> 
</g>
<g >
</g>
<g style="fill:#000000; fill-opacity:1.000000; 
stroke:#000000; stroke-width:0.000000; stroke-opacity:1; 
stroke-linecap:round; stroke-linejoin:round;">
<path style="fill:#000000; fill-opacity:1.000000; 
stroke:#000000; stroke-width:0.000000; stroke-opacity:1; 
stroke-linecap:round; stroke-linejoin:round;fill-rule:evenodd;"
d="M 156.135000,100.375000
156.115970,100.470671
156.061777,100.551777
155.980671,100.605970
155.885000,100.625000
155.210000,100.625000
155.114329,100.605970
155.033223,100.551777
154.979030,100.470671
154.960000,100.375000
154.960000,99.425000
154.979030,99.329329
155.033223,99.248223
155.114329,99.194030
155.210000,99.175000
155.885000,99.175000
155.980671,99.194030
156.061777,99.248223
156.115970,99.329329
156.135000,99.425000
Z" /> 
<path style="fill:#000000; fill-opacity:1.000000; 
stroke:#000000; stroke-width:0.000000; stroke-opacity:1; 
stroke-linecap:round; stroke-linejoin:round;fill-rule:evenodd;"
d="M 154.060000,100.375000
154.040970,100.470671
153.986777,100.551777
153.905671,100.605970
153.810000,100.625000
153.135000,100.625000
153.039329,100.605970
152.958223,100.551777
152.904030,100.470671
152.885000,100.375000
152.885000,99.425000
152.904030,99.329329
152.958223,99.248223
153.039329,99.194030
153.135000,99.175000
153.810000,99.175000
153.905671,99.194030
153.986777,99.248223
154.040970,99.329329
154.060000,99.425000
Z" /> 
</g>
<g >
</g>
<g style="fill:#000000; fill-opacity:1.000000; 
stroke:#000000; stroke-width:0.000000; stroke-opacity:1; 
stroke-linecap:round; stroke-linejoin:round;">
<path style="fill:#000000; fill-opacity:1.000000; 
stroke:#000000; stroke-width:0.000000; stroke-opacity:1; 
stroke-linecap:round; stroke-linejoin:round;fill-rule:evenodd;"
d="M 147.860000,86.700000
147.840970,86.795671
147.786777,86.876777
147.705671,86.930970
147.610000,86.950000
147.010000,86.950000
146.914329,86.930970
146.833223,86.876777
146.779030,86.795671
146.760000,86.700000
146.760000,86.100000
146.779030,86.004329
146.833223,85.923223
146.914329,85.869030
147.010000,85.850000
147.610000,85.850000
147.705671,85.869030
147.786777,85.923223
147.840970,86.004329
147.860000,86.100000
Z" /> 
<path style="fill:#000000; fill-opacity:1.000000; 
stroke:#000000; stroke-width:0.000000; stroke-opacity:1; 
stroke-linecap:round; stroke-linejoin:round;fill-rule:evenodd;"
d="M 145.060000,86.700000
145.040970,86.795671
144.986777,86.876777
144.905671,86.930970
144.810000,86.950000
144.210000,86.950000
144.114329,86.930970
144.033223,86.876777
143.979030,86.795671
143.960000,86.700000
143.960000,86.100000
143.979030,86.004329
144.033223,85.923223
144.114329,85.869030
144.210000,85.850000
144.810000,85.850000
144.905671,85.869030
144.986777,85.923223
145.040970,86.004329
145.060000,86.100000
Z" /> 
</g>
<g >
</g>
<g >
</g>
<g style="fill:#000000; fill-opacity:1.000000; 
stroke:#000000; stroke-width:0.000000; stroke-opacity:1; 
stroke-linecap:round; stroke-linejoin:round;">
<path style="fill:#000000; fill-opacity:1.000000; 
stroke:#000000; stroke-width:0.000000; stroke-opacity:1; 
stroke-linecap:round; stroke-linejoin:round;fill-rule:evenodd;"
d="M 156.935000,87.975000
156.915970,88.070671
156.861777,88.151777
156.780671,88.205970
156.685000,88.225000
156.010000,88.225000
155.914329,88.205970
155.833223,88.151777
155.779030,88.070671
155.760000,87.975000
155.760000,87.025000
155.779030,86.929329
155.833223,86.848223
155.914329,86.794030
156.010000,86.775000
156.685000,86.775000
156.780671,86.794030
156.861777,86.848223
156.915970,86.929329
156.935000,87.025000
Z" /> 
<path style="fill:#000000; fill-opacity:1.000000; 
stroke:#000000; stroke-width:0.000000; stroke-opacity:1; 
stroke-linecap:round; stroke-linejoin:round;fill-rule:evenodd;"
d="M 154.860000,87.975000
154.840970,88.070671
154.786777,88.151777
154.705671,88.205970
154.610000,88.225000
153.935000,88.225000
153.839329,88.205970
153.758223,88.151777
153.704030,88.070671
153.685000,87.975000
153.685000,87.025000
153.704030,86.929329
153.758223,86.848223
153.839329,86.794030
153.935000,86.775000
154.610000,86.775000
154.705671,86.794030
154.786777,86.848223
154.840970,86.929329
154.860000,87.025000
Z" /> 
</g>
<g >
</g>
<g style="fill:#000000; fill-opacity:1.000000; 
stroke:#000000; stroke-width:0.000000; stroke-opacity:1; 
stroke-linecap:round; stroke-linejoin:round;">
<path style="fill:#000000; fill-opacity:1.000000; 
stroke:#000000; stroke-width:0.000000; stroke-opacity:1; 
stroke-linecap:round; stroke-linejoin:round;fill-rule:evenodd;"
d="M 158.210000,102.350000
158.190970,102.445671
158.136777,102.526777
158.055671,102.580970
157.960000,102.600000
157.260000,102.600000
157.164329,102.580970
157.083223,102.526777
157.029030,102.445671
157.010000,102.350000
157.010000,101.450000
157.029030,101.354329
157.083223,101.273223
157.164329,101.219030
157.260000,101.200000
157.960000,101.200000
158.055671,101.219030
158.136777,101.273223
158.190970,101.354329
158.210000,101.450000
Z" /> 
<path style="fill:#000000; fill-opacity:1.000000; 
stroke:#000000; stroke-width:0.000000; stroke-opacity:1; 
stroke-linecap:round; stroke-linejoin:round;fill-rule:evenodd;"
d="M 156.210000,102.350000
156.190970,102.445671
156.136777,102.526777
156.055671,102.580970
155.960000,102.600000
155.260000,102.600000
155.164329,102.580970
155.083223,102.526777
155.029030,102.445671
155.010000,102.350000
155.010000,101.450000
155.029030,101.354329
155.083223,101.273223
155.164329,101.219030
155.260000,101.200000
155.960000,101.200000
156.055671,101.219030
156.136777,101.273223
156.190970,101.354329
156.210000,101.450000
Z" /> 
</g>
<g >
</g>
<g style="fill:#000000; fill-opacity:1.000000; 
stroke:#000000; stroke-width:0.000000; stroke-opacity:1; 
stroke-linecap:round; stroke-linejoin:round;">
<path style="fill:#000000; fill-opacity:1.000000; 
stroke:#000000; stroke-width:0.000000; stroke-opacity:1; 
stroke-linecap:round; stroke-linejoin:round;fill-rule:evenodd;"
d="M 148.885000,102.325000
148.904030,102.229329
148.958223,102.148223
149.039329,102.094030
149.135000,102.075000
149.810000,102.075000
149.905671,102.094030
149.986777,102.148223
150.040970,102.229329
150.060000,102.325000
150.060000,103.275000
150.040970,103.370671
149.986777,103.451777
149.905671,103.505970
149.810000,103.525000
149.135000,103.525000
149.039329,103.505970
148.958223,103.451777
148.904030,103.370671
148.885000,103.275000
Z" /> 
<path style="fill:#000000; fill-opacity:1.000000; 
stroke:#000000; stroke-width:0.000000; stroke-opacity:1; 
stroke-linecap:round; stroke-linejoin:round;fill-rule:evenodd;"
d="M 150.960000,102.325000
150.979030,102.229329
151.033223,102.148223
151.114329,102.094030
151.210000,102.075000
151.885000,102.075000
151.980671,102.094030
152.061777,102.148223
152.115970,102.229329
152.135000,102.325000
152.135000,103.275000
152.115970,103.370671
152.061777,103.451777
151.980671,103.505970
151.885000,103.525000
151.210000,103.525000
151.114329,103.505970
151.033223,103.451777
150.979030,103.370671
150.960000,103.275000
Z" /> 
</g>
<g >
</g>
<g style="fill:#000000; fill-opacity:1.000000; 
stroke:#000000; stroke-width:0.000000; stroke-opacity:1; 
stroke-linecap:round; stroke-linejoin:round;">
<path style="fill:#000000; fill-opacity:1.000000; 
stroke:#000000; stroke-width:0.000000; stroke-opacity:1; 
stroke-linecap:round; stroke-linejoin:round;fill-rule:evenodd;"
d="M 139.060000,92.800000
139.155671,92.819030
139.236777,92.873223
139.290970,92.954329
139.310000,93.050000
139.310000,93.750000
139.290970,93.845671
139.236777,93.926777
139.155671,93.980970
139.060000,94.000000
138.160000,94.000000
138.064329,93.980970
137.983223,93.926777
137.929030,93.845671
137.910000,93.750000
137.910000,93.050000
137.929030,92.954329
137.983223,92.873223
138.064329,92.819030
138.160000,92.800000
Z" /> 
<path style="fill:#000000; fill-opacity:1.000000; 
stroke:#000000; stroke-width:0.000000; stroke-opacity:1; 
stroke-linecap:round; stroke-linejoin:round;fill-rule:evenodd;"
d="M 139.060000,94.800000
139.155671,94.819030
139.236777,94.873223
139.290970,94.954329
139.310000,95.050000
139.310000,95.750000
139.290970,95.845671
139.236777,95.926777
139.155671,95.980970
139.060000,96.000000
138.160000,96.000000
138.064329,95.980970
137.983223,95.926777
137.929030,95.845671
137.910000,95.750000
137.910000,95.050000
137.929030,94.954329
137.983223,94.873223
138.064329,94.819030
138.160000,94.800000
Z" /> 
</g>
<g >
</g>
<g >
</g>
<g style="fill:#000000; fill-opacity:1.000000; 
stroke:#000000; stroke-width:0.000000; stroke-opacity:1; 
stroke-linecap:round; stroke-linejoin:round;">
<path style="fill:#000000; fill-opacity:1.000000; 
stroke:#000000; stroke-width:0.000000; stroke-opacity:1; 
stroke-linecap:round; stroke-linejoin:round;fill-rule:evenodd;"
d="M 132.710000,65.050000
132.729030,64.954329
132.783223,64.873223
132.864329,64.819030
132.960000,64.800000
133.660000,64.800000
133.755671,64.819030
133.836777,64.873223
133.890970,64.954329
133.910000,65.050000
133.910000,65.950000
133.890970,66.045671
133.836777,66.126777
133.755671,66.180970
133.660000,66.200000
132.960000,66.200000
132.864329,66.180970
132.783223,66.126777
132.729030,66.045671
132.710000,65.950000
Z" /> 
<path style="fill:#000000; fill-opacity:1.000000; 
stroke:#000000; stroke-width:0.000000; stroke-opacity:1; 
stroke-linecap:round; stroke-linejoin:round;fill-rule:evenodd;"
d="M 134.710000,65.050000
134.729030,64.954329
134.783223,64.873223
134.864329,64.819030
134.960000,64.800000
135.660000,64.800000
135.755671,64.819030
135.836777,64.873223
135.890970,64.954329
135.910000,65.050000
135.910000,65.950000
135.890970,66.045671
135.836777,66.126777
135.755671,66.180970
135.660000,66.200000
134.960000,66.200000
134.864329,66.180970
134.783223,66.126777
134.729030,66.045671
134.710000,65.950000
Z" /> 
</g>
<g >
</g>
<g style="fill:#000000; fill-opacity:1.000000; 
stroke:#000000; stroke-width:0.000000; stroke-opacity:1; 
stroke-linecap:round; stroke-linejoin:round;">
<path style="fill:#000000; fill-opacity:1.000000; 
stroke:#000000; stroke-width:0.000000; stroke-opacity:1; 
stroke-linecap:round; stroke-linejoin:round;fill-rule:evenodd;"
d="M 160.235000,98.075000
160.215970,98.170671
160.161777,98.251777
160.080671,98.305970
159.985000,98.325000
159.310000,98.325000
159.214329,98.305970
159.133223,98.251777
159.079030,98.170671
159.060000,98.075000
159.060000,97.125000
159.079030,97.029329
159.133223,96.948223
159.214329,96.894030
159.310000,96.875000
159.985000,96.875000
160.080671,96.894030
160.161777,96.948223
160.215970,97.029329
160.235000,97.125000
Z" /> 
<path style="fill:#000000; fill-opacity:1.000000; 
stroke:#000000; stroke-width:0.000000; stroke-opacity:1; 
stroke-linecap:round; stroke-linejoin:round;fill-rule:evenodd;"
d="M 158.160000,98.075000
158.140970,98.170671
158.086777,98.251777
158.005671,98.305970
157.910000,98.325000
157.235000,98.325000
157.139329,98.305970
157.058223,98.251777
157.004030,98.170671
156.985000,98.075000
156.985000,97.125000
157.004030,97.029329
157.058223,96.948223
157.139329,96.894030
157.235000,96.875000
157.910000,96.875000
158.005671,96.894030
158.086777,96.948223
158.140970,97.029329
158.160000,97.125000
Z" /> 
</g>
<g >
</g>
<g style="fill:#000000; fill-opacity:1.000000; 
stroke:#000000; stroke-width:0.000000; stroke-opacity:1; 
stroke-linecap:round; stroke-linejoin:round;">
<path style="fill:#000000; fill-opacity:1.000000; 
stroke:#000000; stroke-width:0.000000; stroke-opacity:1; 
stroke-linecap:round; stroke-linejoin:round;fill-rule:evenodd;"
d="M 151.160000,107.400000
151.064329,107.380970
150.983223,107.326777
150.929030,107.245671
150.910000,107.150000
150.910000,106.450000
150.929030,106.354329
150.983223,106.273223
151.064329,106.219030
151.160000,106.200000
152.060000,106.200000
152.155671,106.219030
152.236777,106.273223
152.290970,106.354329
152.310000,106.450000
152.310000,107.150000
152.290970,107.245671
152.236777,107.326777
152.155671,107.380970
152.060000,107.400000
Z" /> 
<path style="fill:#000000; fill-opacity:1.000000; 
stroke:#000000; stroke-width:0.000000; stroke-opacity:1; 
stroke-linecap:round; stroke-linejoin:round;fill-rule:evenodd;"
d="M 151.160000,105.400000
151.064329,105.380970
150.983223,105.326777
150.929030,105.245671
150.910000,105.150000
150.910000,104.450000
150.929030,104.354329
150.983223,104.273223
151.064329,104.219030
151.160000,104.200000
152.060000,104.200000
152.155671,104.219030
152.236777,104.273223
152.290970,104.354329
152.310000,104.450000
152.310000,105.150000
152.290970,105.245671
152.236777,105.326777
152.155671,105.380970
152.060000,105.400000
Z" /> 
</g>
<g >
</g>
<g style="fill:#000000; fill-opacity:1.000000; 
stroke:#000000; stroke-width:0.000000; stroke-opacity:1; 
stroke-linecap:round; stroke-linejoin:round;">
<path style="fill:#000000; fill-opacity:1.000000; 
stroke:#000000; stroke-width:0.000000; stroke-opacity:1; 
stroke-linecap:round; stroke-linejoin:round;fill-rule:evenodd;"
d="M 135.935000,68.175000
135.915970,68.270671
135.861777,68.351777
135.780671,68.405970
135.685000,68.425000
135.010000,68.425000
134.914329,68.405970
134.833223,68.351777
134.779030,68.270671
134.760000,68.175000
134.760000,67.225000
134.779030,67.129329
134.833223,67.048223
134.914329,66.994030
135.010000,66.975000
135.685000,66.975000
135.780671,66.994030
135.861777,67.048223
135.915970,67.129329
135.935000,67.225000
Z" /> 
<path style="fill:#000000; fill-opacity:1.000000; 
stroke:#000000; stroke-width:0.000000; stroke-opacity:1; 
stroke-linecap:round; stroke-linejoin:round;fill-rule:evenodd;"
d="M 133.860000,68.175000
133.840970,68.270671
133.786777,68.351777
133.705671,68.405970
133.610000,68.425000
132.935000,68.425000
132.839329,68.405970
132.758223,68.351777
132.704030,68.270671
132.685000,68.175000
132.685000,67.225000
132.704030,67.129329
132.758223,67.048223
132.839329,66.994030
132.935000,66.975000
133.610000,66.975000
133.705671,66.994030
133.786777,67.048223
133.840970,67.129329
133.860000,67.225000
Z" /> 
</g>
<g >
</g>
<g style="fill:#000000; fill-opacity:1.000000; 
stroke:#000000; stroke-width:0.000000; stroke-opacity:1; 
stroke-linecap:round; stroke-linejoin:round;">
<path style="fill:#000000; fill-opacity:1.000000; 
stroke:#000000; stroke-width:0.000000; stroke-opacity:1; 
stroke-linecap:round; stroke-linejoin:round;fill-rule:evenodd;"
d="M 152.110000,101.150000
152.090970,101.245671
152.036777,101.326777
151.955671,101.380970
151.860000,101.400000
151.160000,101.400000
151.064329,101.380970
150.983223,101.326777
150.929030,101.245671
150.910000,101.150000
150.910000,100.250000
150.929030,100.154329
150.983223,100.073223
151.064329,100.019030
151.160000,100.000000
151.860000,100.000000
151.955671,100.019030
152.036777,100.073223
152.090970,100.154329
152.110000,100.250000
Z" /> 
<path style="fill:#000000; fill-opacity:1.000000; 
stroke:#000000; stroke-width:0.000000; stroke-opacity:1; 
stroke-linecap:round; stroke-linejoin:round;fill-rule:evenodd;"
d="M 150.110000,101.150000
150.090970,101.245671
150.036777,101.326777
149.955671,101.380970
149.860000,101.400000
149.160000,101.400000
149.064329,101.380970
148.983223,101.326777
148.929030,101.245671
148.910000,101.150000
148.910000,100.250000
148.929030,100.154329
148.983223,100.073223
149.064329,100.019030
149.160000,100.000000
149.860000,100.000000
149.955671,100.019030
150.036777,100.073223
150.090970,100.154329
150.110000,100.250000
Z" /> 
</g>
<g >
</g>
<g >
</g>
<g style="fill:#000000; fill-opacity:1.000000; 
stroke:#000000; stroke-width:0.000000; stroke-opacity:1; 
stroke-linecap:round; stroke-linejoin:round;">
<path style="fill:#000000; fill-opacity:1.000000; 
stroke:#000000; stroke-width:0.000000; stroke-opacity:1; 
stroke-linecap:round; stroke-linejoin:round;fill-rule:evenodd;"
d="M 150.910000,108.250000
150.929030,108.154329
150.983223,108.073223
151.064329,108.019030
151.160000,108.000000
151.860000,108.000000
151.955671,108.019030
152.036777,108.073223
152.090970,108.154329
152.110000,108.250000
152.110000,109.150000
152.090970,109.245671
152.036777,109.326777
151.955671,109.380970
151.860000,109.400000
151.160000,109.400000
151.064329,109.380970
150.983223,109.326777
150.929030,109.245671
150.910000,109.150000
Z" /> 
<path style="fill:#000000; fill-opacity:1.000000; 
stroke:#000000; stroke-width:0.000000; stroke-opacity:1; 
stroke-linecap:round; stroke-linejoin:round;fill-rule:evenodd;"
d="M 152.910000,108.250000
152.929030,108.154329
152.983223,108.073223
153.064329,108.019030
153.160000,108.000000
153.860000,108.000000
153.955671,108.019030
154.036777,108.073223
154.090970,108.154329
154.110000,108.250000
154.110000,109.150000
154.090970,109.245671
154.036777,109.326777
153.955671,109.380970
153.860000,109.400000
153.160000,109.400000
153.064329,109.380970
152.983223,109.326777
152.929030,109.245671
152.910000,109.150000
Z" /> 
</g>
<g >
</g>
<g style="fill:#000000; fill-opacity:1.000000; 
stroke:#000000; stroke-width:0.000000; stroke-opacity:1; 
stroke-linecap:round; stroke-linejoin:round;">
<path style="fill:#000000; fill-opacity:1.000000; 
stroke:#000000; stroke-width:0.000000; stroke-opacity:1; 
stroke-linecap:round; stroke-linejoin:round;fill-rule:evenodd;"
d="M 118.510000,104.050000
118.529030,103.954329
118.583223,103.873223
118.664329,103.819030
118.760000,103.800000
119.460000,103.800000
119.555671,103.819030
119.636777,103.873223
119.690970,103.954329
119.710000,104.050000
119.710000,104.950000
119.690970,105.045671
119.636777,105.126777
119.555671,105.180970
119.460000,105.200000
118.760000,105.200000
118.664329,105.180970
118.583223,105.126777
118.529030,105.045671
118.510000,104.950000
Z" /> 
<path style="fill:#000000; fill-opacity:1.000000; 
stroke:#000000; stroke-width:0.000000; stroke-opacity:1; 
stroke-linecap:round; stroke-linejoin:round;fill-rule:evenodd;"
d="M 120.510000,104.050000
120.529030,103.954329
120.583223,103.873223
120.664329,103.819030
120.760000,103.800000
121.460000,103.800000
121.555671,103.819030
121.636777,103.873223
121.690970,103.954329
121.710000,104.050000
121.710000,104.950000
121.690970,105.045671
121.636777,105.126777
121.555671,105.180970
121.460000,105.200000
120.760000,105.200000
120.664329,105.180970
120.583223,105.126777
120.529030,105.045671
120.510000,104.950000
Z" /> 
</g>
<g >
</g>
<g >
</g>
<g style="fill:#000000; fill-opacity:1.000000; 
stroke:#000000; stroke-width:0.000000; stroke-opacity:1; 
stroke-linecap:round; stroke-linejoin:round;">
<path style="fill:#000000; fill-opacity:1.000000; 
stroke:#000000; stroke-width:0.000000; stroke-opacity:1; 
stroke-linecap:round; stroke-linejoin:round;fill-rule:evenodd;"
d="M 129.710000,102.350000
129.729030,102.254329
129.783223,102.173223
129.864329,102.119030
129.960000,102.100000
130.660000,102.100000
130.755671,102.119030
130.836777,102.173223
130.890970,102.254329
130.910000,102.350000
130.910000,103.250000
130.890970,103.345671
130.836777,103.426777
130.755671,103.480970
130.660000,103.500000
129.960000,103.500000
129.864329,103.480970
129.783223,103.426777
129.729030,103.345671
129.710000,103.250000
Z" /> 
<path style="fill:#000000; fill-opacity:1.000000; 
stroke:#000000; stroke-width:0.000000; stroke-opacity:1; 
stroke-linecap:round; stroke-linejoin:round;fill-rule:evenodd;"
d="M 131.710000,102.350000
131.729030,102.254329
131.783223,102.173223
131.864329,102.119030
131.960000,102.100000
132.660000,102.100000
132.755671,102.119030
132.836777,102.173223
132.890970,102.254329
132.910000,102.350000
132.910000,103.250000
132.890970,103.345671
132.836777,103.426777
132.755671,103.480970
132.660000,103.500000
131.960000,103.500000
131.864329,103.480970
131.783223,103.426777
131.729030,103.345671
131.710000,103.250000
Z" /> 
</g>
<g >
</g>
<g style="fill:#000000; fill-opacity:1.000000; 
stroke:#000000; stroke-width:0.000000; stroke-opacity:1; 
stroke-linecap:round; stroke-linejoin:round;">
<path style="fill:#000000; fill-opacity:1.000000; 
stroke:#000000; stroke-width:0.000000; stroke-opacity:1; 
stroke-linecap:round; stroke-linejoin:round;fill-rule:evenodd;"
d="M 132.335000,98.925000
132.239329,98.905970
132.158223,98.851777
132.104030,98.770671
132.085000,98.675000
132.085000,98.000000
132.104030,97.904329
132.158223,97.823223
132.239329,97.769030
132.335000,97.750000
133.285000,97.750000
133.380671,97.769030
133.461777,97.823223
133.515970,97.904329
133.535000,98.000000
133.535000,98.675000
133.515970,98.770671
133.461777,98.851777
133.380671,98.905970
133.285000,98.925000
Z" /> 
<path style="fill:#000000; fill-opacity:1.000000; 
stroke:#000000; stroke-width:0.000000; stroke-opacity:1; 
stroke-linecap:round; stroke-linejoin:round;fill-rule:evenodd;"
d="M 132.335000,96.850000
132.239329,96.830970
132.158223,96.776777
132.104030,96.695671
132.085000,96.600000
132.085000,95.925000
132.104030,95.829329
132.158223,95.748223
132.239329,95.694030
132.335000,95.675000
133.285000,95.675000
133.380671,95.694030
133.461777,95.748223
133.515970,95.829329
133.535000,95.925000
133.535000,96.600000
133.515970,96.695671
133.461777,96.776777
133.380671,96.830970
133.285000,96.850000
Z" /> 
</g>
<g >
</g>
<g style="fill:#000000; fill-opacity:1.000000; 
stroke:#000000; stroke-width:0.000000; stroke-opacity:1; 
stroke-linecap:round; stroke-linejoin:round;">
<path style="fill:#000000; fill-opacity:1.000000; 
stroke:#000000; stroke-width:0.000000; stroke-opacity:1; 
stroke-linecap:round; stroke-linejoin:round;fill-rule:evenodd;"
d="M 132.935000,101.275000
132.915970,101.370671
132.861777,101.451777
132.780671,101.505970
132.685000,101.525000
132.010000,101.525000
131.914329,101.505970
131.833223,101.451777
131.779030,101.370671
131.760000,101.275000
131.760000,100.325000
131.779030,100.229329
131.833223,100.148223
131.914329,100.094030
132.010000,100.075000
132.685000,100.075000
132.780671,100.094030
132.861777,100.148223
132.915970,100.229329
132.935000,100.325000
Z" /> 
<path style="fill:#000000; fill-opacity:1.000000; 
stroke:#000000; stroke-width:0.000000; stroke-opacity:1; 
stroke-linecap:round; stroke-linejoin:round;fill-rule:evenodd;"
d="M 130.860000,101.275000
130.840970,101.370671
130.786777,101.451777
130.705671,101.505970
130.610000,101.525000
129.935000,101.525000
129.839329,101.505970
129.758223,101.451777
129.704030,101.370671
129.685000,101.275000
129.685000,100.325000
129.704030,100.229329
129.758223,100.148223
129.839329,100.094030
129.935000,100.075000
130.610000,100.075000
130.705671,100.094030
130.786777,100.148223
130.840970,100.229329
130.860000,100.325000
Z" /> 
</g>
<g >
</g>
<g style="fill:#000000; fill-opacity:1.000000; 
stroke:#000000; stroke-width:0.000000; stroke-opacity:1; 
stroke-linecap:round; stroke-linejoin:round;">
<path style="fill:#000000; fill-opacity:1.000000; 
stroke:#000000; stroke-width:0.000000; stroke-opacity:1; 
stroke-linecap:round; stroke-linejoin:round;fill-rule:evenodd;"
d="M 157.622500,87.025000
157.641530,86.929329
157.695723,86.848223
157.776829,86.794030
157.872500,86.775000
158.547500,86.775000
158.643171,86.794030
158.724277,86.848223
158.778470,86.929329
158.797500,87.025000
158.797500,87.975000
158.778470,88.070671
158.724277,88.151777
158.643171,88.205970
158.547500,88.225000
157.872500,88.225000
157.776829,88.205970
157.695723,88.151777
157.641530,88.070671
157.622500,87.975000
Z" /> 
<path style="fill:#000000; fill-opacity:1.000000; 
stroke:#000000; stroke-width:0.000000; stroke-opacity:1; 
stroke-linecap:round; stroke-linejoin:round;fill-rule:evenodd;"
d="M 159.697500,87.025000
159.716530,86.929329
159.770723,86.848223
159.851829,86.794030
159.947500,86.775000
160.622500,86.775000
160.718171,86.794030
160.799277,86.848223
160.853470,86.929329
160.872500,87.025000
160.872500,87.975000
160.853470,88.070671
160.799277,88.151777
160.718171,88.205970
160.622500,88.225000
159.947500,88.225000
159.851829,88.205970
159.770723,88.151777
159.716530,88.070671
159.697500,87.975000
Z" /> 
</g>
<g >
</g>
<g style="fill:#000000; fill-opacity:1.000000; 
stroke:#000000; stroke-width:0.000000; stroke-opacity:1; 
stroke-linecap:round; stroke-linejoin:round;">
<path style="fill:#000000; fill-opacity:1.000000; 
stroke:#000000; stroke-width:0.000000; stroke-opacity:1; 
stroke-linecap:round; stroke-linejoin:round;fill-rule:evenodd;"
d="M 129.710000,104.350000
129.729030,104.254329
129.783223,104.173223
129.864329,104.119030
129.960000,104.100000
130.660000,104.100000
130.755671,104.119030
130.836777,104.173223
130.890970,104.254329
130.910000,104.350000
130.910000,105.250000
130.890970,105.345671
130.836777,105.426777
130.755671,105.480970
130.660000,105.500000
129.960000,105.500000
129.864329,105.480970
129.783223,105.426777
129.729030,105.345671
129.710000,105.250000
Z" /> 
<path style="fill:#000000; fill-opacity:1.000000; 
stroke:#000000; stroke-width:0.000000; stroke-opacity:1; 
stroke-linecap:round; stroke-linejoin:round;fill-rule:evenodd;"
d="M 131.710000,104.350000
131.729030,104.254329
131.783223,104.173223
131.864329,104.119030
131.960000,104.100000
132.660000,104.100000
132.755671,104.119030
132.836777,104.173223
132.890970,104.254329
132.910000,104.350000
132.910000,105.250000
132.890970,105.345671
132.836777,105.426777
132.755671,105.480970
132.660000,105.500000
131.960000,105.500000
131.864329,105.480970
131.783223,105.426777
131.729030,105.345671
131.710000,105.250000
Z" /> 
</g>
<g >
</g>
<g >
</g>
<g style="fill:#000000; fill-opacity:1.000000; 
stroke:#000000; stroke-width:0.000000; stroke-opacity:1; 
stroke-linecap:round; stroke-linejoin:round;">
<path style="fill:#000000; fill-opacity:1.000000; 
stroke:#000000; stroke-width:0.000000; stroke-opacity:1; 
stroke-linecap:round; stroke-linejoin:round;fill-rule:evenodd;"
d="M 161.810000,92.075000
161.752597,92.063582
161.703934,92.031066
161.671418,91.982403
161.660000,91.925000
161.660000,90.750000
161.671418,90.692597
161.703934,90.643934
161.752597,90.611418
161.810000,90.600000
162.110000,90.600000
162.167403,90.611418
162.216066,90.643934
162.248582,90.692597
162.260000,90.750000
162.260000,91.925000
162.248582,91.982403
162.216066,92.031066
162.167403,92.063582
162.110000,92.075000
Z" /> 
<path style="fill:#000000; fill-opacity:1.000000; 
stroke:#000000; stroke-width:0.000000; stroke-opacity:1; 
stroke-linecap:round; stroke-linejoin:round;fill-rule:evenodd;"
d="M 163.710000,92.075000
163.652597,92.063582
163.603934,92.031066
163.571418,91.982403
163.560000,91.925000
163.560000,90.750000
163.571418,90.692597
163.603934,90.643934
163.652597,90.611418
163.710000,90.600000
164.010000,90.600000
164.067403,90.611418
164.116066,90.643934
164.148582,90.692597
164.160000,90.750000
164.160000,91.925000
164.148582,91.982403
164.116066,92.031066
164.067403,92.063582
164.010000,92.075000
Z" /> 
<path style="fill:#000000; fill-opacity:1.000000; 
stroke:#000000; stroke-width:0.000000; stroke-opacity:1; 
stroke-linecap:round; stroke-linejoin:round;fill-rule:evenodd;"
d="M 162.760000,90.200000
162.702597,90.188582
162.653934,90.156066
162.621418,90.107403
162.610000,90.050000
162.610000,88.875000
162.621418,88.817597
162.653934,88.768934
162.702597,88.736418
162.760000,88.725000
163.060000,88.725000
163.117403,88.736418
163.166066,88.768934
163.198582,88.817597
163.210000,88.875000
163.210000,90.050000
163.198582,90.107403
163.166066,90.156066
163.117403,90.188582
163.060000,90.200000
Z" /> 
</g>
<g >
</g>
<g style="fill:#000000; fill-opacity:1.000000; 
stroke:#000000; stroke-width:0.000000; stroke-opacity:1; 
stroke-linecap:round; stroke-linejoin:round;">
<path style="fill:#000000; fill-opacity:1.000000; 
stroke:#000000; stroke-width:0.000000; stroke-opacity:1; 
stroke-linecap:round; stroke-linejoin:round;fill-rule:evenodd;"
d="M 152.060000,86.100000
151.964329,86.080970
151.883223,86.026777
151.829030,85.945671
151.810000,85.850000
151.810000,85.150000
151.829030,85.054329
151.883223,84.973223
151.964329,84.919030
152.060000,84.900000
152.960000,84.900000
153.055671,84.919030
153.136777,84.973223
153.190970,85.054329
153.210000,85.150000
153.210000,85.850000
153.190970,85.945671
153.136777,86.026777
153.055671,86.080970
152.960000,86.100000
Z" /> 
<path style="fill:#000000; fill-opacity:1.000000; 
stroke:#000000; stroke-width:0.000000; stroke-opacity:1; 
stroke-linecap:round; stroke-linejoin:round;fill-rule:evenodd;"
d="M 152.060000,84.100000
151.964329,84.080970
151.883223,84.026777
151.829030,83.945671
151.810000,83.850000
151.810000,83.150000
151.829030,83.054329
151.883223,82.973223
151.964329,82.919030
152.060000,82.900000
152.960000,82.900000
153.055671,82.919030
153.136777,82.973223
153.190970,83.054329
153.210000,83.150000
153.210000,83.850000
153.190970,83.945671
153.136777,84.026777
153.055671,84.080970
152.960000,84.100000
Z" /> 
</g>
<g >
</g>
<g >
</g>
<g style="fill:#000000; fill-opacity:1.000000; 
stroke:#000000; stroke-width:0.000000; stroke-opacity:1; 
stroke-linecap:round; stroke-linejoin:round;">
<path style="fill:#000000; fill-opacity:1.000000; 
stroke:#000000; stroke-width:0.000000; stroke-opacity:1; 
stroke-linecap:round; stroke-linejoin:round;fill-rule:evenodd;"
d="M 150.960000,85.600000
151.055671,85.619030
151.136777,85.673223
151.190970,85.754329
151.210000,85.850000
151.210000,86.550000
151.190970,86.645671
151.136777,86.726777
151.055671,86.780970
150.960000,86.800000
150.060000,86.800000
149.964329,86.780970
149.883223,86.726777
149.829030,86.645671
149.810000,86.550000
149.810000,85.850000
149.829030,85.754329
149.883223,85.673223
149.964329,85.619030
150.060000,85.600000
Z" /> 
<path style="fill:#000000; fill-opacity:1.000000; 
stroke:#000000; stroke-width:0.000000; stroke-opacity:1; 
stroke-linecap:round; stroke-linejoin:round;fill-rule:evenodd;"
d="M 150.960000,87.600000
151.055671,87.619030
151.136777,87.673223
151.190970,87.754329
151.210000,87.850000
151.210000,88.550000
151.190970,88.645671
151.136777,88.726777
151.055671,88.780970
150.960000,88.800000
150.060000,88.800000
149.964329,88.780970
149.883223,88.726777
149.829030,88.645671
149.810000,88.550000
149.810000,87.850000
149.829030,87.754329
149.883223,87.673223
149.964329,87.619030
150.060000,87.600000
Z" /> 
</g>
<g >
</g>
<g style="fill:#000000; fill-opacity:1.000000; 
stroke:#000000; stroke-width:0.000000; stroke-opacity:1; 
stroke-linecap:round; stroke-linejoin:round;">
<path style="fill:#000000; fill-opacity:1.000000; 
stroke:#000000; stroke-width:0.000000; stroke-opacity:1; 
stroke-linecap:round; stroke-linejoin:round;fill-rule:evenodd;"
d="M 158.335000,93.425000
158.239329,93.405970
158.158223,93.351777
158.104030,93.270671
158.085000,93.175000
158.085000,92.500000
158.104030,92.404329
158.158223,92.323223
158.239329,92.269030
158.335000,92.250000
159.285000,92.250000
159.380671,92.269030
159.461777,92.323223
159.515970,92.404329
159.535000,92.500000
159.535000,93.175000
159.515970,93.270671
159.461777,93.351777
159.380671,93.405970
159.285000,93.425000
Z" /> 
<path style="fill:#000000; fill-opacity:1.000000; 
stroke:#000000; stroke-width:0.000000; stroke-opacity:1; 
stroke-linecap:round; stroke-linejoin:round;fill-rule:evenodd;"
d="M 158.335000,91.350000
158.239329,91.330970
158.158223,91.276777
158.104030,91.195671
158.085000,91.100000
158.085000,90.425000
158.104030,90.329329
158.158223,90.248223
158.239329,90.194030
158.335000,90.175000
159.285000,90.175000
159.380671,90.194030
159.461777,90.248223
159.515970,90.329329
159.535000,90.425000
159.535000,91.100000
159.515970,91.195671
159.461777,91.276777
159.380671,91.330970
159.285000,91.350000
Z" /> 
</g>
<g >
</g>
<g style="fill:#000000; fill-opacity:1.000000; 
stroke:#000000; stroke-width:0.000000; stroke-opacity:1; 
stroke-linecap:round; stroke-linejoin:round;">
<path style="fill:#000000; fill-opacity:1.000000; 
stroke:#000000; stroke-width:0.000000; stroke-opacity:1; 
stroke-linecap:round; stroke-linejoin:round;fill-rule:evenodd;"
d="M 133.585000,104.325000
133.604030,104.229329
133.658223,104.148223
133.739329,104.094030
133.835000,104.075000
134.510000,104.075000
134.605671,104.094030
134.686777,104.148223
134.740970,104.229329
134.760000,104.325000
134.760000,105.275000
134.740970,105.370671
134.686777,105.451777
134.605671,105.505970
134.510000,105.525000
133.835000,105.525000
133.739329,105.505970
133.658223,105.451777
133.604030,105.370671
133.585000,105.275000
Z" /> 
<path style="fill:#000000; fill-opacity:1.000000; 
stroke:#000000; stroke-width:0.000000; stroke-opacity:1; 
stroke-linecap:round; stroke-linejoin:round;fill-rule:evenodd;"
d="M 135.660000,104.325000
135.679030,104.229329
135.733223,104.148223
135.814329,104.094030
135.910000,104.075000
136.585000,104.075000
136.680671,104.094030
136.761777,104.148223
136.815970,104.229329
136.835000,104.325000
136.835000,105.275000
136.815970,105.370671
136.761777,105.451777
136.680671,105.505970
136.585000,105.525000
135.910000,105.525000
135.814329,105.505970
135.733223,105.451777
135.679030,105.370671
135.660000,105.275000
Z" /> 
</g>
<g >
</g>
<g style="fill:#000000; fill-opacity:1.000000; 
stroke:#000000; stroke-width:0.000000; stroke-opacity:1; 
stroke-linecap:round; stroke-linejoin:round;">
<path style="fill:#000000; fill-opacity:1.000000; 
stroke:#000000; stroke-width:0.000000; stroke-opacity:1; 
stroke-linecap:round; stroke-linejoin:round;fill-rule:evenodd;"
d="M 163.960000,92.662500
164.017403,92.673918
164.066066,92.706434
164.098582,92.755097
164.110000,92.812500
164.110000,93.987500
164.098582,94.044903
164.066066,94.093566
164.017403,94.126082
163.960000,94.137500
163.660000,94.137500
163.602597,94.126082
163.553934,94.093566
163.521418,94.044903
163.510000,93.987500
163.510000,92.812500
163.521418,92.755097
163.553934,92.706434
163.602597,92.673918
163.660000,92.662500
Z" /> 
<path style="fill:#000000; fill-opacity:1.000000; 
stroke:#000000; stroke-width:0.000000; stroke-opacity:1; 
stroke-linecap:round; stroke-linejoin:round;fill-rule:evenodd;"
d="M 162.060000,92.662500
162.117403,92.673918
162.166066,92.706434
162.198582,92.755097
162.210000,92.812500
162.210000,93.987500
162.198582,94.044903
162.166066,94.093566
162.117403,94.126082
162.060000,94.137500
161.760000,94.137500
161.702597,94.126082
161.653934,94.093566
161.621418,94.044903
161.610000,93.987500
161.610000,92.812500
161.621418,92.755097
161.653934,92.706434
161.702597,92.673918
161.760000,92.662500
Z" /> 
<path style="fill:#000000; fill-opacity:1.000000; 
stroke:#000000; stroke-width:0.000000; stroke-opacity:1; 
stroke-linecap:round; stroke-linejoin:round;fill-rule:evenodd;"
d="M 163.010000,94.537500
163.067403,94.548918
163.116066,94.581434
163.148582,94.630097
163.160000,94.687500
163.160000,95.862500
163.148582,95.919903
163.116066,95.968566
163.067403,96.001082
163.010000,96.012500
162.710000,96.012500
162.652597,96.001082
162.603934,95.968566
162.571418,95.919903
162.560000,95.862500
162.560000,94.687500
162.571418,94.630097
162.603934,94.581434
162.652597,94.548918
162.710000,94.537500
Z" /> 
</g>
<g >
</g>
<g style="fill:#000000; fill-opacity:1.000000; 
stroke:#000000; stroke-width:0.000000; stroke-opacity:1; 
stroke-linecap:round; stroke-linejoin:round;">
<path style="fill:#000000; fill-opacity:1.000000; 
stroke:#000000; stroke-width:0.000000; stroke-opacity:1; 
stroke-linecap:round; stroke-linejoin:round;fill-rule:evenodd;"
d="M 132.360000,95.100000
132.264329,95.080970
132.183223,95.026777
132.129030,94.945671
132.110000,94.850000
132.110000,94.150000
132.129030,94.054329
132.183223,93.973223
132.264329,93.919030
132.360000,93.900000
133.260000,93.900000
133.355671,93.919030
133.436777,93.973223
133.490970,94.054329
133.510000,94.150000
133.510000,94.850000
133.490970,94.945671
133.436777,95.026777
133.355671,95.080970
133.260000,95.100000
Z" /> 
<path style="fill:#000000; fill-opacity:1.000000; 
stroke:#000000; stroke-width:0.000000; stroke-opacity:1; 
stroke-linecap:round; stroke-linejoin:round;fill-rule:evenodd;"
d="M 132.360000,93.100000
132.264329,93.080970
132.183223,93.026777
132.129030,92.945671
132.110000,92.850000
132.110000,92.150000
132.129030,92.054329
132.183223,91.973223
132.264329,91.919030
132.360000,91.900000
133.260000,91.900000
133.355671,91.919030
133.436777,91.973223
133.490970,92.054329
133.510000,92.150000
133.510000,92.850000
133.490970,92.945671
133.436777,93.026777
133.355671,93.080970
133.260000,93.100000
Z" /> 
</g>
<g >
</g>
<g style="fill:#000000; fill-opacity:1.000000; 
stroke:#000000; stroke-width:0.000000; stroke-opacity:1; 
stroke-linecap:round; stroke-linejoin:round;">
<path style="fill:#000000; fill-opacity:1.000000; 
stroke:#000000; stroke-width:0.000000; stroke-opacity:1; 
stroke-linecap:round; stroke-linejoin:round;fill-rule:evenodd;"
d="M 160.660000,95.600000
160.640970,95.695671
160.586777,95.776777
160.505671,95.830970
160.410000,95.850000
159.810000,95.850000
159.714329,95.830970
159.633223,95.776777
159.579030,95.695671
159.560000,95.600000
159.560000,95.000000
159.579030,94.904329
159.633223,94.823223
159.714329,94.769030
159.810000,94.750000
160.410000,94.750000
160.505671,94.769030
160.586777,94.823223
160.640970,94.904329
160.660000,95.000000
Z" /> 
<path style="fill:#000000; fill-opacity:1.000000; 
stroke:#000000; stroke-width:0.000000; stroke-opacity:1; 
stroke-linecap:round; stroke-linejoin:round;fill-rule:evenodd;"
d="M 157.860000,95.600000
157.840970,95.695671
157.786777,95.776777
157.705671,95.830970
157.610000,95.850000
157.010000,95.850000
156.914329,95.830970
156.833223,95.776777
156.779030,95.695671
156.760000,95.600000
156.760000,95.000000
156.779030,94.904329
156.833223,94.823223
156.914329,94.769030
157.010000,94.750000
157.610000,94.750000
157.705671,94.769030
157.786777,94.823223
157.840970,94.904329
157.860000,95.000000
Z" /> 
</g>
<g >
</g>
<g style="fill:#000000; fill-opacity:1.000000; 
stroke:#000000; stroke-width:0.000000; stroke-opacity:1; 
stroke-linecap:round; stroke-linejoin:round;">
<path style="fill:#000000; fill-opacity:1.000000; 
stroke:#000000; stroke-width:0.000000; stroke-opacity:1; 
stroke-linecap:round; stroke-linejoin:round;fill-rule:evenodd;"
d="M 118.510000,106.050000
118.529030,105.954329
118.583223,105.873223
118.664329,105.819030
118.760000,105.800000
119.460000,105.800000
119.555671,105.819030
119.636777,105.873223
119.690970,105.954329
119.710000,106.050000
119.710000,106.950000
119.690970,107.045671
119.636777,107.126777
119.555671,107.180970
119.460000,107.200000
118.760000,107.200000
118.664329,107.180970
118.583223,107.126777
118.529030,107.045671
118.510000,106.950000
Z" /> 
<path style="fill:#000000; fill-opacity:1.000000; 
stroke:#000000; stroke-width:0.000000; stroke-opacity:1; 
stroke-linecap:round; stroke-linejoin:round;fill-rule:evenodd;"
d="M 120.510000,106.050000
120.529030,105.954329
120.583223,105.873223
120.664329,105.819030
120.760000,105.800000
121.460000,105.800000
121.555671,105.819030
121.636777,105.873223
121.690970,105.954329
121.710000,106.050000
121.710000,106.950000
121.690970,107.045671
121.636777,107.126777
121.555671,107.180970
121.460000,107.200000
120.760000,107.200000
120.664329,107.180970
120.583223,107.126777
120.529030,107.045671
120.510000,106.950000
Z" /> 
</g>
<g >
</g>
<g style="fill:#000000; fill-opacity:1.000000; 
stroke:#000000; stroke-width:0.000000; stroke-opacity:1; 
stroke-linecap:round; stroke-linejoin:round;">
<path style="fill:#000000; fill-opacity:1.000000; 
stroke:#000000; stroke-width:0.000000; stroke-opacity:1; 
stroke-linecap:round; stroke-linejoin:round;fill-rule:evenodd;"
d="M 149.160000,107.400000
149.064329,107.380970
148.983223,107.326777
148.929030,107.245671
148.910000,107.150000
148.910000,106.450000
148.929030,106.354329
148.983223,106.273223
149.064329,106.219030
149.160000,106.200000
150.060000,106.200000
150.155671,106.219030
150.236777,106.273223
150.290970,106.354329
150.310000,106.450000
150.310000,107.150000
150.290970,107.245671
150.236777,107.326777
150.155671,107.380970
150.060000,107.400000
Z" /> 
<path style="fill:#000000; fill-opacity:1.000000; 
stroke:#000000; stroke-width:0.000000; stroke-opacity:1; 
stroke-linecap:round; stroke-linejoin:round;fill-rule:evenodd;"
d="M 149.160000,105.400000
149.064329,105.380970
148.983223,105.326777
148.929030,105.245671
148.910000,105.150000
148.910000,104.450000
148.929030,104.354329
148.983223,104.273223
149.064329,104.219030
149.160000,104.200000
150.060000,104.200000
150.155671,104.219030
150.236777,104.273223
150.290970,104.354329
150.310000,104.450000
150.310000,105.150000
150.290970,105.245671
150.236777,105.326777
150.155671,105.380970
150.060000,105.400000
Z" /> 
</g>
<g >
</g>
<g >
</g>
<g >
</g>
<g >
</g>
<g >
</g>
<g >
</g>
<g >
</g>
<g >
</g>
</g> 
</svg>
