<?xml version="1.0" standalone="no"?>
 <!DOCTYPE svg PUBLIC "-//W3C//DTD SVG 1.1//EN" 
 "http://www.w3.org/Graphics/SVG/1.1/DTD/svg11.dtd"> 
<svg
  xmlns:svg="http://www.w3.org/2000/svg"
  xmlns="http://www.w3.org/2000/svg"
  xmlns:xlink="http://www.w3.org/1999/xlink"
  version="1.1"
  width="297.0022mm" height="210.0072mm" viewBox="0.0000 0.0000 297.0022 210.0072">
<title>SVG Image created as GreenBean-B_Fab.svg date 2023/08/08 15:33:35 </title>
  <desc>Image generated by PCBNEW </desc>
<g style="fill:#000000; fill-opacity:1.0000;stroke:#000000; stroke-opacity:1.0000;
stroke-linecap:round; stroke-linejoin:round;"
 transform="translate(0 0) scale(1 1)">
</g>
<g style="fill:#000000; fill-opacity:0.0; 
stroke:#000000; stroke-width:0.0000; stroke-opacity:1; 
stroke-linecap:round; stroke-linejoin:round;">
</g>
<g style="fill:#000000; fill-opacity:0.0; 
stroke:#000000; stroke-width:0.1500; stroke-opacity:1; 
stroke-linecap:round; stroke-linejoin:round;">
<g transform="rotate(-180.000000 160.5100 94.6542)">
<text x="160.5100" y="95.1542"
transform="scale(-1 1) translate(-321.020000 0)"
textLength="4.0798" font-size="1.3333" lengthAdjust="spacingAndGlyphs"
text-anchor="middle" opacity="0">20KB</text>
</g>
<g class="stroked-text"><desc>20KB</desc>
<path d="M158.7481 95.1041
L158.7957 95.1517
" />
<path d="M158.7957 95.1517
L158.8910 95.1993
" />
<path d="M158.8910 95.1993
L159.1290 95.1993
" />
<path d="M159.1290 95.1993
L159.2243 95.1517
" />
<path d="M159.2243 95.1517
L159.2719 95.1041
" />
<path d="M159.2719 95.1041
L159.3195 95.0089
" />
<path d="M159.3195 95.0089
L159.3195 94.9136
" />
<path d="M159.3195 94.9136
L159.2719 94.7708
" />
<path d="M159.2719 94.7708
L158.7005 94.1993
" />
<path d="M158.7005 94.1993
L159.3195 94.1993
" />
<path d="M159.9386 95.1993
L160.0338 95.1993
" />
<path d="M160.0338 95.1993
L160.1290 95.1517
" />
<path d="M160.1290 95.1517
L160.1767 95.1041
" />
<path d="M160.1767 95.1041
L160.2243 95.0089
" />
<path d="M160.2243 95.0089
L160.2719 94.8184
" />
<path d="M160.2719 94.8184
L160.2719 94.5803
" />
<path d="M160.2719 94.5803
L160.2243 94.3898
" />
<path d="M160.2243 94.3898
L160.1767 94.2946
" />
<path d="M160.1767 94.2946
L160.1290 94.2470
" />
<path d="M160.1290 94.2470
L160.0338 94.1993
" />
<path d="M160.0338 94.1993
L159.9386 94.1993
" />
<path d="M159.9386 94.1993
L159.8433 94.2470
" />
<path d="M159.8433 94.2470
L159.7957 94.2946
" />
<path d="M159.7957 94.2946
L159.7481 94.3898
" />
<path d="M159.7481 94.3898
L159.7005 94.5803
" />
<path d="M159.7005 94.5803
L159.7005 94.8184
" />
<path d="M159.7005 94.8184
L159.7481 95.0089
" />
<path d="M159.7481 95.0089
L159.7957 95.1041
" />
<path d="M159.7957 95.1041
L159.8433 95.1517
" />
<path d="M159.8433 95.1517
L159.9386 95.1993
" />
<path d="M160.7005 94.1993
L160.7005 95.1993
" />
<path d="M161.2719 94.1993
L160.8433 94.7708
" />
<path d="M161.2719 95.1993
L160.7005 94.6279
" />
<path d="M162.0338 94.7232
L162.1767 94.6755
" />
<path d="M162.1767 94.6755
L162.2243 94.6279
" />
<path d="M162.2243 94.6279
L162.2719 94.5327
" />
<path d="M162.2719 94.5327
L162.2719 94.3898
" />
<path d="M162.2719 94.3898
L162.2243 94.2946
" />
<path d="M162.2243 94.2946
L162.1767 94.2470
" />
<path d="M162.1767 94.2470
L162.0814 94.1993
" />
<path d="M162.0814 94.1993
L161.7005 94.1993
" />
<path d="M161.7005 94.1993
L161.7005 95.1993
" />
<path d="M161.7005 95.1993
L162.0338 95.1993
" />
<path d="M162.0338 95.1993
L162.1290 95.1517
" />
<path d="M162.1290 95.1517
L162.1767 95.1041
" />
<path d="M162.1767 95.1041
L162.2243 95.0089
" />
<path d="M162.2243 95.0089
L162.2243 94.9136
" />
<path d="M162.2243 94.9136
L162.1767 94.8184
" />
<path d="M162.1767 94.8184
L162.1290 94.7708
" />
<path d="M162.1290 94.7708
L162.0338 94.7232
" />
<path d="M162.0338 94.7232
L161.7005 94.7232
" />
</g><text x="168.1300" y="93.6142"
transform="scale(-1 1) translate(-336.260000 0)"
textLength="4.1274" font-size="1.3333" lengthAdjust="spacingAndGlyphs"
text-anchor="middle" opacity="0">LOW1</text>
<g class="stroked-text"><desc>LOW1</desc>
<path d="M169.3919 93.5690
L169.8681 93.5690
" />
<path d="M169.8681 93.5690
L169.8681 92.5690
" />
<path d="M168.8681 92.5690
L168.6776 92.5690
" />
<path d="M168.6776 92.5690
L168.5824 92.6166
" />
<path d="M168.5824 92.6166
L168.4871 92.7118
" />
<path d="M168.4871 92.7118
L168.4395 92.9023
" />
<path d="M168.4395 92.9023
L168.4395 93.2357
" />
<path d="M168.4395 93.2357
L168.4871 93.4261
" />
<path d="M168.4871 93.4261
L168.5824 93.5214
" />
<path d="M168.5824 93.5214
L168.6776 93.5690
" />
<path d="M168.6776 93.5690
L168.8681 93.5690
" />
<path d="M168.8681 93.5690
L168.9633 93.5214
" />
<path d="M168.9633 93.5214
L169.0586 93.4261
" />
<path d="M169.0586 93.4261
L169.1062 93.2357
" />
<path d="M169.1062 93.2357
L169.1062 92.9023
" />
<path d="M169.1062 92.9023
L169.0586 92.7118
" />
<path d="M169.0586 92.7118
L168.9633 92.6166
" />
<path d="M168.9633 92.6166
L168.8681 92.5690
" />
<path d="M168.1062 92.5690
L167.8681 93.5690
" />
<path d="M167.8681 93.5690
L167.6776 92.8547
" />
<path d="M167.6776 92.8547
L167.4871 93.5690
" />
<path d="M167.4871 93.5690
L167.2490 92.5690
" />
<path d="M166.3443 93.5690
L166.9157 93.5690
" />
<path d="M166.6300 93.5690
L166.6300 92.5690
" />
<path d="M166.6300 92.5690
L166.7252 92.7118
" />
<path d="M166.7252 92.7118
L166.8205 92.8071
" />
<path d="M166.8205 92.8071
L166.9157 92.8547
" />
</g><g transform="rotate(-180.000000 160.5100 93.1542)">
<text x="160.5100" y="93.6542"
transform="scale(-1 1) translate(-321.020000 0)"
textLength="5.2226" font-size="1.3333" lengthAdjust="spacingAndGlyphs"
text-anchor="middle" opacity="0">${REF}</text>
</g>
<g class="stroked-text"><desc>${REF}</desc>
<path d="M158.1767 92.7470
L158.3195 92.6993
" />
<path d="M158.3195 92.6993
L158.5576 92.6993
" />
<path d="M158.5576 92.6993
L158.6529 92.7470
" />
<path d="M158.6529 92.7470
L158.7005 92.7946
" />
<path d="M158.7005 92.7946
L158.7481 92.8898
" />
<path d="M158.7481 92.8898
L158.7481 92.9851
" />
<path d="M158.7481 92.9851
L158.7005 93.0803
" />
<path d="M158.7005 93.0803
L158.6529 93.1279
" />
<path d="M158.6529 93.1279
L158.5576 93.1755
" />
<path d="M158.5576 93.1755
L158.3671 93.2232
" />
<path d="M158.3671 93.2232
L158.2719 93.2708
" />
<path d="M158.2719 93.2708
L158.2243 93.3184
" />
<path d="M158.2243 93.3184
L158.1767 93.4136
" />
<path d="M158.1767 93.4136
L158.1767 93.5089
" />
<path d="M158.1767 93.5089
L158.2243 93.6041
" />
<path d="M158.2243 93.6041
L158.2719 93.6517
" />
<path d="M158.2719 93.6517
L158.3671 93.6993
" />
<path d="M158.3671 93.6993
L158.6052 93.6993
" />
<path d="M158.6052 93.6993
L158.7481 93.6517
" />
<path d="M158.4624 93.8422
L158.4624 92.5565
" />
<path d="M159.4624 92.3184
L159.4148 92.3184
" />
<path d="M159.4148 92.3184
L159.3195 92.3660
" />
<path d="M159.3195 92.3660
L159.2719 92.4613
" />
<path d="M159.2719 92.4613
L159.2719 92.9374
" />
<path d="M159.2719 92.9374
L159.2243 93.0327
" />
<path d="M159.2243 93.0327
L159.1290 93.0803
" />
<path d="M159.1290 93.0803
L159.2243 93.1279
" />
<path d="M159.2243 93.1279
L159.2719 93.2232
" />
<path d="M159.2719 93.2232
L159.2719 93.6993
" />
<path d="M159.2719 93.6993
L159.3195 93.7946
" />
<path d="M159.3195 93.7946
L159.4148 93.8422
" />
<path d="M159.4148 93.8422
L159.4624 93.8422
" />
<path d="M160.4148 92.6993
L160.0814 93.1755
" />
<path d="M159.8433 92.6993
L159.8433 93.6993
" />
<path d="M159.8433 93.6993
L160.2243 93.6993
" />
<path d="M160.2243 93.6993
L160.3195 93.6517
" />
<path d="M160.3195 93.6517
L160.3671 93.6041
" />
<path d="M160.3671 93.6041
L160.4148 93.5089
" />
<path d="M160.4148 93.5089
L160.4148 93.3660
" />
<path d="M160.4148 93.3660
L160.3671 93.2708
" />
<path d="M160.3671 93.2708
L160.3195 93.2232
" />
<path d="M160.3195 93.2232
L160.2243 93.1755
" />
<path d="M160.2243 93.1755
L159.8433 93.1755
" />
<path d="M160.8433 93.2232
L161.1767 93.2232
" />
<path d="M161.3195 92.6993
L160.8433 92.6993
" />
<path d="M160.8433 92.6993
L160.8433 93.6993
" />
<path d="M160.8433 93.6993
L161.3195 93.6993
" />
<path d="M162.0814 93.2232
L161.7481 93.2232
" />
<path d="M161.7481 92.6993
L161.7481 93.6993
" />
<path d="M161.7481 93.6993
L162.2243 93.6993
" />
<path d="M162.5100 92.3184
L162.5576 92.3184
" />
<path d="M162.5576 92.3184
L162.6529 92.3660
" />
<path d="M162.6529 92.3660
L162.7005 92.4613
" />
<path d="M162.7005 92.4613
L162.7005 92.9374
" />
<path d="M162.7005 92.9374
L162.7481 93.0327
" />
<path d="M162.7481 93.0327
L162.8433 93.0803
" />
<path d="M162.8433 93.0803
L162.7481 93.1279
" />
<path d="M162.7481 93.1279
L162.7005 93.2232
" />
<path d="M162.7005 93.2232
L162.7005 93.6993
" />
<path d="M162.7005 93.6993
L162.6529 93.7946
" />
<path d="M162.6529 93.7946
L162.5576 93.8422
" />
<path d="M162.5576 93.8422
L162.5100 93.8422
" />
</g><text x="125.0100" y="61.4458"
transform="scale(-1 1) translate(-250.020000 0)"
textLength="4.0798" font-size="1.3333" lengthAdjust="spacingAndGlyphs"
text-anchor="middle" opacity="0">20KB</text>
<g class="stroked-text"><desc>20KB</desc>
<path d="M126.7719 60.4959
L126.7243 60.4483
" />
<path d="M126.7243 60.4483
L126.6290 60.4007
" />
<path d="M126.6290 60.4007
L126.3910 60.4007
" />
<path d="M126.3910 60.4007
L126.2957 60.4483
" />
<path d="M126.2957 60.4483
L126.2481 60.4959
" />
<path d="M126.2481 60.4959
L126.2005 60.5911
" />
<path d="M126.2005 60.5911
L126.2005 60.6864
" />
<path d="M126.2005 60.6864
L126.2481 60.8292
" />
<path d="M126.2481 60.8292
L126.8195 61.4007
" />
<path d="M126.8195 61.4007
L126.2005 61.4007
" />
<path d="M125.5814 60.4007
L125.4862 60.4007
" />
<path d="M125.4862 60.4007
L125.3910 60.4483
" />
<path d="M125.3910 60.4483
L125.3433 60.4959
" />
<path d="M125.3433 60.4959
L125.2957 60.5911
" />
<path d="M125.2957 60.5911
L125.2481 60.7816
" />
<path d="M125.2481 60.7816
L125.2481 61.0197
" />
<path d="M125.2481 61.0197
L125.2957 61.2102
" />
<path d="M125.2957 61.2102
L125.3433 61.3054
" />
<path d="M125.3433 61.3054
L125.3910 61.3530
" />
<path d="M125.3910 61.3530
L125.4862 61.4007
" />
<path d="M125.4862 61.4007
L125.5814 61.4007
" />
<path d="M125.5814 61.4007
L125.6767 61.3530
" />
<path d="M125.6767 61.3530
L125.7243 61.3054
" />
<path d="M125.7243 61.3054
L125.7719 61.2102
" />
<path d="M125.7719 61.2102
L125.8195 61.0197
" />
<path d="M125.8195 61.0197
L125.8195 60.7816
" />
<path d="M125.8195 60.7816
L125.7719 60.5911
" />
<path d="M125.7719 60.5911
L125.7243 60.4959
" />
<path d="M125.7243 60.4959
L125.6767 60.4483
" />
<path d="M125.6767 60.4483
L125.5814 60.4007
" />
<path d="M124.8195 61.4007
L124.8195 60.4007
" />
<path d="M124.2481 61.4007
L124.6767 60.8292
" />
<path d="M124.2481 60.4007
L124.8195 60.9721
" />
<path d="M123.4862 60.8768
L123.3433 60.9245
" />
<path d="M123.3433 60.9245
L123.2957 60.9721
" />
<path d="M123.2957 60.9721
L123.2481 61.0673
" />
<path d="M123.2481 61.0673
L123.2481 61.2102
" />
<path d="M123.2481 61.2102
L123.2957 61.3054
" />
<path d="M123.2957 61.3054
L123.3433 61.3530
" />
<path d="M123.3433 61.3530
L123.4386 61.4007
" />
<path d="M123.4386 61.4007
L123.8195 61.4007
" />
<path d="M123.8195 61.4007
L123.8195 60.4007
" />
<path d="M123.8195 60.4007
L123.4862 60.4007
" />
<path d="M123.4862 60.4007
L123.3910 60.4483
" />
<path d="M123.3910 60.4483
L123.3433 60.4959
" />
<path d="M123.3433 60.4959
L123.2957 60.5911
" />
<path d="M123.2957 60.5911
L123.2957 60.6864
" />
<path d="M123.2957 60.6864
L123.3433 60.7816
" />
<path d="M123.3433 60.7816
L123.3910 60.8292
" />
<path d="M123.3910 60.8292
L123.4862 60.8768
" />
<path d="M123.4862 60.8768
L123.8195 60.8768
" />
</g><text x="117.3900" y="62.9858"
transform="scale(-1 1) translate(-234.780000 0)"
textLength="4.8893" font-size="1.3333" lengthAdjust="spacingAndGlyphs"
text-anchor="middle" opacity="0">TONE1</text>
<g class="stroked-text"><desc>TONE1</desc>
<path d="M119.6519 61.9407
L119.0805 61.9407
" />
<path d="M119.3662 62.9407
L119.3662 61.9407
" />
<path d="M118.5567 61.9407
L118.3662 61.9407
" />
<path d="M118.3662 61.9407
L118.2710 61.9883
" />
<path d="M118.2710 61.9883
L118.1757 62.0835
" />
<path d="M118.1757 62.0835
L118.1281 62.2740
" />
<path d="M118.1281 62.2740
L118.1281 62.6073
" />
<path d="M118.1281 62.6073
L118.1757 62.7978
" />
<path d="M118.1757 62.7978
L118.2710 62.8930
" />
<path d="M118.2710 62.8930
L118.3662 62.9407
" />
<path d="M118.3662 62.9407
L118.5567 62.9407
" />
<path d="M118.5567 62.9407
L118.6519 62.8930
" />
<path d="M118.6519 62.8930
L118.7471 62.7978
" />
<path d="M118.7471 62.7978
L118.7948 62.6073
" />
<path d="M118.7948 62.6073
L118.7948 62.2740
" />
<path d="M118.7948 62.2740
L118.7471 62.0835
" />
<path d="M118.7471 62.0835
L118.6519 61.9883
" />
<path d="M118.6519 61.9883
L118.5567 61.9407
" />
<path d="M117.6995 62.9407
L117.6995 61.9407
" />
<path d="M117.6995 61.9407
L117.1281 62.9407
" />
<path d="M117.1281 62.9407
L117.1281 61.9407
" />
<path d="M116.6519 62.4168
L116.3186 62.4168
" />
<path d="M116.1757 62.9407
L116.6519 62.9407
" />
<path d="M116.6519 62.9407
L116.6519 61.9407
" />
<path d="M116.6519 61.9407
L116.1757 61.9407
" />
<path d="M115.2233 62.9407
L115.7948 62.9407
" />
<path d="M115.5090 62.9407
L115.5090 61.9407
" />
<path d="M115.5090 61.9407
L115.6043 62.0835
" />
<path d="M115.6043 62.0835
L115.6995 62.1787
" />
<path d="M115.6995 62.1787
L115.7948 62.2264
" />
</g><text x="125.0100" y="62.9458"
transform="scale(-1 1) translate(-250.020000 0)"
textLength="5.2226" font-size="1.3333" lengthAdjust="spacingAndGlyphs"
text-anchor="middle" opacity="0">${REF}</text>
<g class="stroked-text"><desc>${REF}</desc>
<path d="M127.3433 62.8530
L127.2005 62.9007
" />
<path d="M127.2005 62.9007
L126.9624 62.9007
" />
<path d="M126.9624 62.9007
L126.8671 62.8530
" />
<path d="M126.8671 62.8530
L126.8195 62.8054
" />
<path d="M126.8195 62.8054
L126.7719 62.7102
" />
<path d="M126.7719 62.7102
L126.7719 62.6149
" />
<path d="M126.7719 62.6149
L126.8195 62.5197
" />
<path d="M126.8195 62.5197
L126.8671 62.4721
" />
<path d="M126.8671 62.4721
L126.9624 62.4245
" />
<path d="M126.9624 62.4245
L127.1529 62.3768
" />
<path d="M127.1529 62.3768
L127.2481 62.3292
" />
<path d="M127.2481 62.3292
L127.2957 62.2816
" />
<path d="M127.2957 62.2816
L127.3433 62.1864
" />
<path d="M127.3433 62.1864
L127.3433 62.0911
" />
<path d="M127.3433 62.0911
L127.2957 61.9959
" />
<path d="M127.2957 61.9959
L127.2481 61.9483
" />
<path d="M127.2481 61.9483
L127.1529 61.9007
" />
<path d="M127.1529 61.9007
L126.9148 61.9007
" />
<path d="M126.9148 61.9007
L126.7719 61.9483
" />
<path d="M127.0576 61.7578
L127.0576 63.0435
" />
<path d="M126.0576 63.2816
L126.1052 63.2816
" />
<path d="M126.1052 63.2816
L126.2005 63.2340
" />
<path d="M126.2005 63.2340
L126.2481 63.1387
" />
<path d="M126.2481 63.1387
L126.2481 62.6626
" />
<path d="M126.2481 62.6626
L126.2957 62.5673
" />
<path d="M126.2957 62.5673
L126.3910 62.5197
" />
<path d="M126.3910 62.5197
L126.2957 62.4721
" />
<path d="M126.2957 62.4721
L126.2481 62.3768
" />
<path d="M126.2481 62.3768
L126.2481 61.9007
" />
<path d="M126.2481 61.9007
L126.2005 61.8054
" />
<path d="M126.2005 61.8054
L126.1052 61.7578
" />
<path d="M126.1052 61.7578
L126.0576 61.7578
" />
<path d="M125.1052 62.9007
L125.4386 62.4245
" />
<path d="M125.6767 62.9007
L125.6767 61.9007
" />
<path d="M125.6767 61.9007
L125.2957 61.9007
" />
<path d="M125.2957 61.9007
L125.2005 61.9483
" />
<path d="M125.2005 61.9483
L125.1529 61.9959
" />
<path d="M125.1529 61.9959
L125.1052 62.0911
" />
<path d="M125.1052 62.0911
L125.1052 62.2340
" />
<path d="M125.1052 62.2340
L125.1529 62.3292
" />
<path d="M125.1529 62.3292
L125.2005 62.3768
" />
<path d="M125.2005 62.3768
L125.2957 62.4245
" />
<path d="M125.2957 62.4245
L125.6767 62.4245
" />
<path d="M124.6767 62.3768
L124.3433 62.3768
" />
<path d="M124.2005 62.9007
L124.6767 62.9007
" />
<path d="M124.6767 62.9007
L124.6767 61.9007
" />
<path d="M124.6767 61.9007
L124.2005 61.9007
" />
<path d="M123.4386 62.3768
L123.7719 62.3768
" />
<path d="M123.7719 62.9007
L123.7719 61.9007
" />
<path d="M123.7719 61.9007
L123.2957 61.9007
" />
<path d="M123.0100 63.2816
L122.9624 63.2816
" />
<path d="M122.9624 63.2816
L122.8671 63.2340
" />
<path d="M122.8671 63.2340
L122.8195 63.1387
" />
<path d="M122.8195 63.1387
L122.8195 62.6626
" />
<path d="M122.8195 62.6626
L122.7719 62.5673
" />
<path d="M122.7719 62.5673
L122.6767 62.5197
" />
<path d="M122.6767 62.5197
L122.7719 62.4721
" />
<path d="M122.7719 62.4721
L122.8195 62.3768
" />
<path d="M122.8195 62.3768
L122.8195 61.9007
" />
<path d="M122.8195 61.9007
L122.8671 61.8054
" />
<path d="M122.8671 61.8054
L122.9624 61.7578
" />
<path d="M122.9624 61.7578
L123.0100 61.7578
" />
</g><text x="160.5100" y="61.5500"
transform="scale(-1 1) translate(-321.020000 0)"
textLength="4.8893" font-size="1.3333" lengthAdjust="spacingAndGlyphs"
text-anchor="middle" opacity="0">500KA</text>
<g class="stroked-text"><desc>500KA</desc>
<path d="M162.1529 60.5048
L162.6290 60.5048
" />
<path d="M162.6290 60.5048
L162.6767 60.9810
" />
<path d="M162.6767 60.9810
L162.6290 60.9334
" />
<path d="M162.6290 60.9334
L162.5338 60.8858
" />
<path d="M162.5338 60.8858
L162.2957 60.8858
" />
<path d="M162.2957 60.8858
L162.2005 60.9334
" />
<path d="M162.2005 60.9334
L162.1529 60.9810
" />
<path d="M162.1529 60.9810
L162.1052 61.0762
" />
<path d="M162.1052 61.0762
L162.1052 61.3143
" />
<path d="M162.1052 61.3143
L162.1529 61.4096
" />
<path d="M162.1529 61.4096
L162.2005 61.4572
" />
<path d="M162.2005 61.4572
L162.2957 61.5048
" />
<path d="M162.2957 61.5048
L162.5338 61.5048
" />
<path d="M162.5338 61.5048
L162.6290 61.4572
" />
<path d="M162.6290 61.4572
L162.6767 61.4096
" />
<path d="M161.4862 60.5048
L161.3910 60.5048
" />
<path d="M161.3910 60.5048
L161.2957 60.5524
" />
<path d="M161.2957 60.5524
L161.2481 60.6001
" />
<path d="M161.2481 60.6001
L161.2005 60.6953
" />
<path d="M161.2005 60.6953
L161.1529 60.8858
" />
<path d="M161.1529 60.8858
L161.1529 61.1239
" />
<path d="M161.1529 61.1239
L161.2005 61.3143
" />
<path d="M161.2005 61.3143
L161.2481 61.4096
" />
<path d="M161.2481 61.4096
L161.2957 61.4572
" />
<path d="M161.2957 61.4572
L161.3910 61.5048
" />
<path d="M161.3910 61.5048
L161.4862 61.5048
" />
<path d="M161.4862 61.5048
L161.5814 61.4572
" />
<path d="M161.5814 61.4572
L161.6290 61.4096
" />
<path d="M161.6290 61.4096
L161.6767 61.3143
" />
<path d="M161.6767 61.3143
L161.7243 61.1239
" />
<path d="M161.7243 61.1239
L161.7243 60.8858
" />
<path d="M161.7243 60.8858
L161.6767 60.6953
" />
<path d="M161.6767 60.6953
L161.6290 60.6001
" />
<path d="M161.6290 60.6001
L161.5814 60.5524
" />
<path d="M161.5814 60.5524
L161.4862 60.5048
" />
<path d="M160.5338 60.5048
L160.4386 60.5048
" />
<path d="M160.4386 60.5048
L160.3433 60.5524
" />
<path d="M160.3433 60.5524
L160.2957 60.6001
" />
<path d="M160.2957 60.6001
L160.2481 60.6953
" />
<path d="M160.2481 60.6953
L160.2005 60.8858
" />
<path d="M160.2005 60.8858
L160.2005 61.1239
" />
<path d="M160.2005 61.1239
L160.2481 61.3143
" />
<path d="M160.2481 61.3143
L160.2957 61.4096
" />
<path d="M160.2957 61.4096
L160.3433 61.4572
" />
<path d="M160.3433 61.4572
L160.4386 61.5048
" />
<path d="M160.4386 61.5048
L160.5338 61.5048
" />
<path d="M160.5338 61.5048
L160.6290 61.4572
" />
<path d="M160.6290 61.4572
L160.6767 61.4096
" />
<path d="M160.6767 61.4096
L160.7243 61.3143
" />
<path d="M160.7243 61.3143
L160.7719 61.1239
" />
<path d="M160.7719 61.1239
L160.7719 60.8858
" />
<path d="M160.7719 60.8858
L160.7243 60.6953
" />
<path d="M160.7243 60.6953
L160.6767 60.6001
" />
<path d="M160.6767 60.6001
L160.6290 60.5524
" />
<path d="M160.6290 60.5524
L160.5338 60.5048
" />
<path d="M159.7719 61.5048
L159.7719 60.5048
" />
<path d="M159.2005 61.5048
L159.6290 60.9334
" />
<path d="M159.2005 60.5048
L159.7719 61.0762
" />
<path d="M158.8195 61.2191
L158.3433 61.2191
" />
<path d="M158.9148 61.5048
L158.5814 60.5048
" />
<path d="M158.5814 60.5048
L158.2481 61.5048
" />
</g><text x="160.5100" y="63.0500"
transform="scale(-1 1) translate(-321.020000 0)"
textLength="5.2226" font-size="1.3333" lengthAdjust="spacingAndGlyphs"
text-anchor="middle" opacity="0">${REF}</text>
<g class="stroked-text"><desc>${REF}</desc>
<path d="M162.8433 62.9572
L162.7005 63.0048
" />
<path d="M162.7005 63.0048
L162.4624 63.0048
" />
<path d="M162.4624 63.0048
L162.3671 62.9572
" />
<path d="M162.3671 62.9572
L162.3195 62.9096
" />
<path d="M162.3195 62.9096
L162.2719 62.8143
" />
<path d="M162.2719 62.8143
L162.2719 62.7191
" />
<path d="M162.2719 62.7191
L162.3195 62.6239
" />
<path d="M162.3195 62.6239
L162.3671 62.5762
" />
<path d="M162.3671 62.5762
L162.4624 62.5286
" />
<path d="M162.4624 62.5286
L162.6529 62.4810
" />
<path d="M162.6529 62.4810
L162.7481 62.4334
" />
<path d="M162.7481 62.4334
L162.7957 62.3858
" />
<path d="M162.7957 62.3858
L162.8433 62.2905
" />
<path d="M162.8433 62.2905
L162.8433 62.1953
" />
<path d="M162.8433 62.1953
L162.7957 62.1001
" />
<path d="M162.7957 62.1001
L162.7481 62.0524
" />
<path d="M162.7481 62.0524
L162.6529 62.0048
" />
<path d="M162.6529 62.0048
L162.4148 62.0048
" />
<path d="M162.4148 62.0048
L162.2719 62.0524
" />
<path d="M162.5576 61.8620
L162.5576 63.1477
" />
<path d="M161.5576 63.3858
L161.6052 63.3858
" />
<path d="M161.6052 63.3858
L161.7005 63.3382
" />
<path d="M161.7005 63.3382
L161.7481 63.2429
" />
<path d="M161.7481 63.2429
L161.7481 62.7667
" />
<path d="M161.7481 62.7667
L161.7957 62.6715
" />
<path d="M161.7957 62.6715
L161.8910 62.6239
" />
<path d="M161.8910 62.6239
L161.7957 62.5762
" />
<path d="M161.7957 62.5762
L161.7481 62.4810
" />
<path d="M161.7481 62.4810
L161.7481 62.0048
" />
<path d="M161.7481 62.0048
L161.7005 61.9096
" />
<path d="M161.7005 61.9096
L161.6052 61.8620
" />
<path d="M161.6052 61.8620
L161.5576 61.8620
" />
<path d="M160.6052 63.0048
L160.9386 62.5286
" />
<path d="M161.1767 63.0048
L161.1767 62.0048
" />
<path d="M161.1767 62.0048
L160.7957 62.0048
" />
<path d="M160.7957 62.0048
L160.7005 62.0524
" />
<path d="M160.7005 62.0524
L160.6529 62.1001
" />
<path d="M160.6529 62.1001
L160.6052 62.1953
" />
<path d="M160.6052 62.1953
L160.6052 62.3382
" />
<path d="M160.6052 62.3382
L160.6529 62.4334
" />
<path d="M160.6529 62.4334
L160.7005 62.4810
" />
<path d="M160.7005 62.4810
L160.7957 62.5286
" />
<path d="M160.7957 62.5286
L161.1767 62.5286
" />
<path d="M160.1767 62.4810
L159.8433 62.4810
" />
<path d="M159.7005 63.0048
L160.1767 63.0048
" />
<path d="M160.1767 63.0048
L160.1767 62.0048
" />
<path d="M160.1767 62.0048
L159.7005 62.0048
" />
<path d="M158.9386 62.4810
L159.2719 62.4810
" />
<path d="M159.2719 63.0048
L159.2719 62.0048
" />
<path d="M159.2719 62.0048
L158.7957 62.0048
" />
<path d="M158.5100 63.3858
L158.4624 63.3858
" />
<path d="M158.4624 63.3858
L158.3671 63.3382
" />
<path d="M158.3671 63.3382
L158.3195 63.2429
" />
<path d="M158.3195 63.2429
L158.3195 62.7667
" />
<path d="M158.3195 62.7667
L158.2719 62.6715
" />
<path d="M158.2719 62.6715
L158.1767 62.6239
" />
<path d="M158.1767 62.6239
L158.2719 62.5762
" />
<path d="M158.2719 62.5762
L158.3195 62.4810
" />
<path d="M158.3195 62.4810
L158.3195 62.0048
" />
<path d="M158.3195 62.0048
L158.3671 61.9096
" />
<path d="M158.3671 61.9096
L158.4624 61.8620
" />
<path d="M158.4624 61.8620
L158.5100 61.8620
" />
</g><text x="152.8900" y="63.0900"
transform="scale(-1 1) translate(-305.780000 0)"
textLength="5.3655" font-size="1.3333" lengthAdjust="spacingAndGlyphs"
text-anchor="middle" opacity="0">DRIVE1</text>
<g class="stroked-text"><desc>DRIVE1</desc>
<path d="M155.2471 63.0448
L155.2471 62.0448
" />
<path d="M155.2471 62.0448
L155.0090 62.0448
" />
<path d="M155.0090 62.0448
L154.8662 62.0924
" />
<path d="M154.8662 62.0924
L154.7710 62.1877
" />
<path d="M154.7710 62.1877
L154.7233 62.2829
" />
<path d="M154.7233 62.2829
L154.6757 62.4734
" />
<path d="M154.6757 62.4734
L154.6757 62.6162
" />
<path d="M154.6757 62.6162
L154.7233 62.8067
" />
<path d="M154.7233 62.8067
L154.7710 62.9020
" />
<path d="M154.7710 62.9020
L154.8662 62.9972
" />
<path d="M154.8662 62.9972
L155.0090 63.0448
" />
<path d="M155.0090 63.0448
L155.2471 63.0448
" />
<path d="M153.6757 63.0448
L154.0090 62.5686
" />
<path d="M154.2471 63.0448
L154.2471 62.0448
" />
<path d="M154.2471 62.0448
L153.8662 62.0448
" />
<path d="M153.8662 62.0448
L153.7710 62.0924
" />
<path d="M153.7710 62.0924
L153.7233 62.1401
" />
<path d="M153.7233 62.1401
L153.6757 62.2353
" />
<path d="M153.6757 62.2353
L153.6757 62.3782
" />
<path d="M153.6757 62.3782
L153.7233 62.4734
" />
<path d="M153.7233 62.4734
L153.7710 62.5210
" />
<path d="M153.7710 62.5210
L153.8662 62.5686
" />
<path d="M153.8662 62.5686
L154.2471 62.5686
" />
<path d="M153.2471 63.0448
L153.2471 62.0448
" />
<path d="M152.9138 62.0448
L152.5805 63.0448
" />
<path d="M152.5805 63.0448
L152.2471 62.0448
" />
<path d="M151.9138 62.5210
L151.5805 62.5210
" />
<path d="M151.4376 63.0448
L151.9138 63.0448
" />
<path d="M151.9138 63.0448
L151.9138 62.0448
" />
<path d="M151.9138 62.0448
L151.4376 62.0448
" />
<path d="M150.4852 63.0448
L151.0567 63.0448
" />
<path d="M150.7710 63.0448
L150.7710 62.0448
" />
<path d="M150.7710 62.0448
L150.8662 62.1877
" />
<path d="M150.8662 62.1877
L150.9614 62.2829
" />
<path d="M150.9614 62.2829
L151.0567 62.3305
" />
</g><g transform="rotate(-180.000000 125.0100 94.9042)">
<text x="125.0100" y="95.4042"
transform="scale(-1 1) translate(-250.020000 0)"
textLength="5.0321" font-size="1.3333" lengthAdjust="spacingAndGlyphs"
text-anchor="middle" opacity="0">100KB</text>
</g>
<g class="stroked-text"><desc>100KB</desc>
<path d="M123.3433 94.4493
L122.7719 94.4493
" />
<path d="M123.0576 94.4493
L123.0576 95.4493
" />
<path d="M123.0576 95.4493
L122.9624 95.3065
" />
<path d="M122.9624 95.3065
L122.8671 95.2113
" />
<path d="M122.8671 95.2113
L122.7719 95.1636
" />
<path d="M123.9624 95.4493
L124.0576 95.4493
" />
<path d="M124.0576 95.4493
L124.1529 95.4017
" />
<path d="M124.1529 95.4017
L124.2005 95.3541
" />
<path d="M124.2005 95.3541
L124.2481 95.2589
" />
<path d="M124.2481 95.2589
L124.2957 95.0684
" />
<path d="M124.2957 95.0684
L124.2957 94.8303
" />
<path d="M124.2957 94.8303
L124.2481 94.6398
" />
<path d="M124.2481 94.6398
L124.2005 94.5446
" />
<path d="M124.2005 94.5446
L124.1529 94.4970
" />
<path d="M124.1529 94.4970
L124.0576 94.4493
" />
<path d="M124.0576 94.4493
L123.9624 94.4493
" />
<path d="M123.9624 94.4493
L123.8671 94.4970
" />
<path d="M123.8671 94.4970
L123.8195 94.5446
" />
<path d="M123.8195 94.5446
L123.7719 94.6398
" />
<path d="M123.7719 94.6398
L123.7243 94.8303
" />
<path d="M123.7243 94.8303
L123.7243 95.0684
" />
<path d="M123.7243 95.0684
L123.7719 95.2589
" />
<path d="M123.7719 95.2589
L123.8195 95.3541
" />
<path d="M123.8195 95.3541
L123.8671 95.4017
" />
<path d="M123.8671 95.4017
L123.9624 95.4493
" />
<path d="M124.9148 95.4493
L125.0100 95.4493
" />
<path d="M125.0100 95.4493
L125.1052 95.4017
" />
<path d="M125.1052 95.4017
L125.1529 95.3541
" />
<path d="M125.1529 95.3541
L125.2005 95.2589
" />
<path d="M125.2005 95.2589
L125.2481 95.0684
" />
<path d="M125.2481 95.0684
L125.2481 94.8303
" />
<path d="M125.2481 94.8303
L125.2005 94.6398
" />
<path d="M125.2005 94.6398
L125.1529 94.5446
" />
<path d="M125.1529 94.5446
L125.1052 94.4970
" />
<path d="M125.1052 94.4970
L125.0100 94.4493
" />
<path d="M125.0100 94.4493
L124.9148 94.4493
" />
<path d="M124.9148 94.4493
L124.8195 94.4970
" />
<path d="M124.8195 94.4970
L124.7719 94.5446
" />
<path d="M124.7719 94.5446
L124.7243 94.6398
" />
<path d="M124.7243 94.6398
L124.6767 94.8303
" />
<path d="M124.6767 94.8303
L124.6767 95.0684
" />
<path d="M124.6767 95.0684
L124.7243 95.2589
" />
<path d="M124.7243 95.2589
L124.7719 95.3541
" />
<path d="M124.7719 95.3541
L124.8195 95.4017
" />
<path d="M124.8195 95.4017
L124.9148 95.4493
" />
<path d="M125.6767 94.4493
L125.6767 95.4493
" />
<path d="M126.2481 94.4493
L125.8195 95.0208
" />
<path d="M126.2481 95.4493
L125.6767 94.8779
" />
<path d="M127.0100 94.9732
L127.1529 94.9255
" />
<path d="M127.1529 94.9255
L127.2005 94.8779
" />
<path d="M127.2005 94.8779
L127.2481 94.7827
" />
<path d="M127.2481 94.7827
L127.2481 94.6398
" />
<path d="M127.2481 94.6398
L127.2005 94.5446
" />
<path d="M127.2005 94.5446
L127.1529 94.4970
" />
<path d="M127.1529 94.4970
L127.0576 94.4493
" />
<path d="M127.0576 94.4493
L126.6767 94.4493
" />
<path d="M126.6767 94.4493
L126.6767 95.4493
" />
<path d="M126.6767 95.4493
L127.0100 95.4493
" />
<path d="M127.0100 95.4493
L127.1052 95.4017
" />
<path d="M127.1052 95.4017
L127.1529 95.3541
" />
<path d="M127.1529 95.3541
L127.2005 95.2589
" />
<path d="M127.2005 95.2589
L127.2005 95.1636
" />
<path d="M127.2005 95.1636
L127.1529 95.0684
" />
<path d="M127.1529 95.0684
L127.1052 95.0208
" />
<path d="M127.1052 95.0208
L127.0100 94.9732
" />
<path d="M127.0100 94.9732
L126.6767 94.9732
" />
</g><text x="132.6300" y="93.8642"
transform="scale(-1 1) translate(-265.260000 0)"
textLength="3.8417" font-size="1.3333" lengthAdjust="spacingAndGlyphs"
text-anchor="middle" opacity="0">VOL1</text>
<g class="stroked-text"><desc>VOL1</desc>
<path d="M134.3681 92.8190
L134.0348 93.8190
" />
<path d="M134.0348 93.8190
L133.7014 92.8190
" />
<path d="M133.1776 92.8190
L132.9871 92.8190
" />
<path d="M132.9871 92.8190
L132.8919 92.8666
" />
<path d="M132.8919 92.8666
L132.7967 92.9618
" />
<path d="M132.7967 92.9618
L132.7490 93.1523
" />
<path d="M132.7490 93.1523
L132.7490 93.4857
" />
<path d="M132.7490 93.4857
L132.7967 93.6761
" />
<path d="M132.7967 93.6761
L132.8919 93.7714
" />
<path d="M132.8919 93.7714
L132.9871 93.8190
" />
<path d="M132.9871 93.8190
L133.1776 93.8190
" />
<path d="M133.1776 93.8190
L133.2729 93.7714
" />
<path d="M133.2729 93.7714
L133.3681 93.6761
" />
<path d="M133.3681 93.6761
L133.4157 93.4857
" />
<path d="M133.4157 93.4857
L133.4157 93.1523
" />
<path d="M133.4157 93.1523
L133.3681 92.9618
" />
<path d="M133.3681 92.9618
L133.2729 92.8666
" />
<path d="M133.2729 92.8666
L133.1776 92.8190
" />
<path d="M131.8443 93.8190
L132.3205 93.8190
" />
<path d="M132.3205 93.8190
L132.3205 92.8190
" />
<path d="M130.9871 93.8190
L131.5586 93.8190
" />
<path d="M131.2729 93.8190
L131.2729 92.8190
" />
<path d="M131.2729 92.8190
L131.3681 92.9618
" />
<path d="M131.3681 92.9618
L131.4633 93.0571
" />
<path d="M131.4633 93.0571
L131.5586 93.1047
" />
</g><g transform="rotate(-180.000000 125.0100 93.4042)">
<text x="125.0100" y="93.9042"
transform="scale(-1 1) translate(-250.020000 0)"
textLength="5.2226" font-size="1.3333" lengthAdjust="spacingAndGlyphs"
text-anchor="middle" opacity="0">${REF}</text>
</g>
<g class="stroked-text"><desc>${REF}</desc>
<path d="M122.6767 92.9970
L122.8195 92.9493
" />
<path d="M122.8195 92.9493
L123.0576 92.9493
" />
<path d="M123.0576 92.9493
L123.1529 92.9970
" />
<path d="M123.1529 92.9970
L123.2005 93.0446
" />
<path d="M123.2005 93.0446
L123.2481 93.1398
" />
<path d="M123.2481 93.1398
L123.2481 93.2351
" />
<path d="M123.2481 93.2351
L123.2005 93.3303
" />
<path d="M123.2005 93.3303
L123.1529 93.3779
" />
<path d="M123.1529 93.3779
L123.0576 93.4255
" />
<path d="M123.0576 93.4255
L122.8671 93.4732
" />
<path d="M122.8671 93.4732
L122.7719 93.5208
" />
<path d="M122.7719 93.5208
L122.7243 93.5684
" />
<path d="M122.7243 93.5684
L122.6767 93.6636
" />
<path d="M122.6767 93.6636
L122.6767 93.7589
" />
<path d="M122.6767 93.7589
L122.7243 93.8541
" />
<path d="M122.7243 93.8541
L122.7719 93.9017
" />
<path d="M122.7719 93.9017
L122.8671 93.9493
" />
<path d="M122.8671 93.9493
L123.1052 93.9493
" />
<path d="M123.1052 93.9493
L123.2481 93.9017
" />
<path d="M122.9624 94.0922
L122.9624 92.8065
" />
<path d="M123.9624 92.5684
L123.9148 92.5684
" />
<path d="M123.9148 92.5684
L123.8195 92.6160
" />
<path d="M123.8195 92.6160
L123.7719 92.7113
" />
<path d="M123.7719 92.7113
L123.7719 93.1874
" />
<path d="M123.7719 93.1874
L123.7243 93.2827
" />
<path d="M123.7243 93.2827
L123.6290 93.3303
" />
<path d="M123.6290 93.3303
L123.7243 93.3779
" />
<path d="M123.7243 93.3779
L123.7719 93.4732
" />
<path d="M123.7719 93.4732
L123.7719 93.9493
" />
<path d="M123.7719 93.9493
L123.8195 94.0446
" />
<path d="M123.8195 94.0446
L123.9148 94.0922
" />
<path d="M123.9148 94.0922
L123.9624 94.0922
" />
<path d="M124.9148 92.9493
L124.5814 93.4255
" />
<path d="M124.3433 92.9493
L124.3433 93.9493
" />
<path d="M124.3433 93.9493
L124.7243 93.9493
" />
<path d="M124.7243 93.9493
L124.8195 93.9017
" />
<path d="M124.8195 93.9017
L124.8671 93.8541
" />
<path d="M124.8671 93.8541
L124.9148 93.7589
" />
<path d="M124.9148 93.7589
L124.9148 93.6160
" />
<path d="M124.9148 93.6160
L124.8671 93.5208
" />
<path d="M124.8671 93.5208
L124.8195 93.4732
" />
<path d="M124.8195 93.4732
L124.7243 93.4255
" />
<path d="M124.7243 93.4255
L124.3433 93.4255
" />
<path d="M125.3433 93.4732
L125.6767 93.4732
" />
<path d="M125.8195 92.9493
L125.3433 92.9493
" />
<path d="M125.3433 92.9493
L125.3433 93.9493
" />
<path d="M125.3433 93.9493
L125.8195 93.9493
" />
<path d="M126.5814 93.4732
L126.2481 93.4732
" />
<path d="M126.2481 92.9493
L126.2481 93.9493
" />
<path d="M126.2481 93.9493
L126.7243 93.9493
" />
<path d="M127.0100 92.5684
L127.0576 92.5684
" />
<path d="M127.0576 92.5684
L127.1529 92.6160
" />
<path d="M127.1529 92.6160
L127.2005 92.7113
" />
<path d="M127.2005 92.7113
L127.2005 93.1874
" />
<path d="M127.2005 93.1874
L127.2481 93.2827
" />
<path d="M127.2481 93.2827
L127.3433 93.3303
" />
<path d="M127.3433 93.3303
L127.2481 93.3779
" />
<path d="M127.2481 93.3779
L127.2005 93.4732
" />
<path d="M127.2005 93.4732
L127.2005 93.9493
" />
<path d="M127.2005 93.9493
L127.1529 94.0446
" />
<path d="M127.1529 94.0446
L127.0576 94.0922
" />
<path d="M127.0576 94.0922
L127.0100 94.0922
" />
</g><g >
</g>
<g >
</g>
<g >
</g>
<g >
</g>
<g >
</g>
<g >
</g>
<g >
</g>
<g >
</g>
<g >
</g>
<g >
</g>
<g >
</g>
<g >
</g>
<g >
</g>
<g >
</g>
<g >
</g>
<g >
</g>
<g >
</g>
<g >
</g>
<g >
</g>
<g >
</g>
<g >
</g>
<g >
</g>
<g >
</g>
<g >
</g>
<g >
</g>
<g >
</g>
<g >
</g>
<g >
</g>
<g >
</g>
<g >
</g>
<g >
</g>
<g >
</g>
<g >
</g>
<g >
</g>
<g >
</g>
<g >
</g>
<g >
</g>
<g >
</g>
<g >
</g>
<g >
</g>
<g >
</g>
<g >
</g>
<g >
</g>
<g >
</g>
<g >
</g>
<g >
</g>
<g >
</g>
<g >
</g>
<g >
</g>
<g >
</g>
<g >
</g>
<g >
</g>
<g >
</g>
<g >
</g>
<g >
</g>
<g >
</g>
<g >
</g>
<g >
</g>
<g >
</g>
<g >
</g>
<g >
</g>
<g >
</g>
<g >
</g>
<g >
</g>
<g >
</g>
<g >
</g>
</g> 
</svg>
