<?xml version="1.0" standalone="no"?>
 <!DOCTYPE svg PUBLIC "-//W3C//DTD SVG 1.1//EN" 
 "http://www.w3.org/Graphics/SVG/1.1/DTD/svg11.dtd"> 
<svg
  xmlns:svg="http://www.w3.org/2000/svg"
  xmlns="http://www.w3.org/2000/svg"
  xmlns:xlink="http://www.w3.org/1999/xlink"
  version="1.1"
  width="297.0022mm" height="210.0072mm" viewBox="0.0000 0.0000 297.0022 210.0072">
<title>SVG Image created as GreenBean-B_Silkscreen.svg date 2023/08/08 15:32:15 </title>
  <desc>Image generated by PCBNEW </desc>
<g style="fill:#000000; fill-opacity:1.0000;stroke:#000000; stroke-opacity:1.0000;
stroke-linecap:round; stroke-linejoin:round;"
 transform="translate(0 0) scale(1 1)">
</g>
<g style="fill:#000000; fill-opacity:0.0; 
stroke:#000000; stroke-width:0.0000; stroke-opacity:1; 
stroke-linecap:round; stroke-linejoin:round;">
</g>
<g style="fill:#000000; fill-opacity:0.0; 
stroke:#000000; stroke-width:0.1500; stroke-opacity:1; 
stroke-linecap:round; stroke-linejoin:round;">
<g transform="rotate(-180.000000 136.4922 96.1542)">
<text x="136.4922" y="96.6542"
transform="scale(-1 1) translate(-272.984400 0)"
textLength="4.1274" font-size="1.3333" lengthAdjust="spacingAndGlyphs"
text-anchor="middle" opacity="0">LOW1</text>
</g>
<g class="stroked-text"><desc>LOW1</desc>
<path d="M137.7541 95.6993
L138.2303 95.6993
" />
<path d="M138.2303 95.6993
L138.2303 96.6993
" />
<path d="M137.2303 96.6993
L137.0398 96.6993
" />
<path d="M137.0398 96.6993
L136.9446 96.6517
" />
<path d="M136.9446 96.6517
L136.8493 96.5565
" />
<path d="M136.8493 96.5565
L136.8017 96.3660
" />
<path d="M136.8017 96.3660
L136.8017 96.0327
" />
<path d="M136.8017 96.0327
L136.8493 95.8422
" />
<path d="M136.8493 95.8422
L136.9446 95.7470
" />
<path d="M136.9446 95.7470
L137.0398 95.6993
" />
<path d="M137.0398 95.6993
L137.2303 95.6993
" />
<path d="M137.2303 95.6993
L137.3255 95.7470
" />
<path d="M137.3255 95.7470
L137.4208 95.8422
" />
<path d="M137.4208 95.8422
L137.4684 96.0327
" />
<path d="M137.4684 96.0327
L137.4684 96.3660
" />
<path d="M137.4684 96.3660
L137.4208 96.5565
" />
<path d="M137.4208 96.5565
L137.3255 96.6517
" />
<path d="M137.3255 96.6517
L137.2303 96.6993
" />
<path d="M136.4684 96.6993
L136.2303 95.6993
" />
<path d="M136.2303 95.6993
L136.0398 96.4136
" />
<path d="M136.0398 96.4136
L135.8493 95.6993
" />
<path d="M135.8493 95.6993
L135.6112 96.6993
" />
<path d="M134.7065 95.6993
L135.2779 95.6993
" />
<path d="M134.9922 95.6993
L134.9922 96.6993
" />
<path d="M134.9922 96.6993
L135.0874 96.5565
" />
<path d="M135.0874 96.5565
L135.1827 96.4613
" />
<path d="M135.1827 96.4613
L135.2779 96.4136
" />
</g><text x="171.9922" y="59.9458"
transform="scale(-1 1) translate(-343.984400 0)"
textLength="4.8893" font-size="1.3333" lengthAdjust="spacingAndGlyphs"
text-anchor="middle" opacity="0">TONE1</text>
<g class="stroked-text"><desc>TONE1</desc>
<path d="M169.7303 58.9007
L170.3017 58.9007
" />
<path d="M170.0160 59.9007
L170.0160 58.9007
" />
<path d="M170.8255 58.9007
L171.0160 58.9007
" />
<path d="M171.0160 58.9007
L171.1112 58.9483
" />
<path d="M171.1112 58.9483
L171.2065 59.0435
" />
<path d="M171.2065 59.0435
L171.2541 59.2340
" />
<path d="M171.2541 59.2340
L171.2541 59.5673
" />
<path d="M171.2541 59.5673
L171.2065 59.7578
" />
<path d="M171.2065 59.7578
L171.1112 59.8530
" />
<path d="M171.1112 59.8530
L171.0160 59.9007
" />
<path d="M171.0160 59.9007
L170.8255 59.9007
" />
<path d="M170.8255 59.9007
L170.7303 59.8530
" />
<path d="M170.7303 59.8530
L170.6351 59.7578
" />
<path d="M170.6351 59.7578
L170.5874 59.5673
" />
<path d="M170.5874 59.5673
L170.5874 59.2340
" />
<path d="M170.5874 59.2340
L170.6351 59.0435
" />
<path d="M170.6351 59.0435
L170.7303 58.9483
" />
<path d="M170.7303 58.9483
L170.8255 58.9007
" />
<path d="M171.6827 59.9007
L171.6827 58.9007
" />
<path d="M171.6827 58.9007
L172.2541 59.9007
" />
<path d="M172.2541 59.9007
L172.2541 58.9007
" />
<path d="M172.7303 59.3768
L173.0636 59.3768
" />
<path d="M173.2065 59.9007
L172.7303 59.9007
" />
<path d="M172.7303 59.9007
L172.7303 58.9007
" />
<path d="M172.7303 58.9007
L173.2065 58.9007
" />
<path d="M174.1589 59.9007
L173.5874 59.9007
" />
<path d="M173.8732 59.9007
L173.8732 58.9007
" />
<path d="M173.8732 58.9007
L173.7779 59.0435
" />
<path d="M173.7779 59.0435
L173.6827 59.1387
" />
<path d="M173.6827 59.1387
L173.5874 59.1864
" />
</g><text x="136.4922" y="60.0500"
transform="scale(-1 1) translate(-272.984400 0)"
textLength="5.3655" font-size="1.3333" lengthAdjust="spacingAndGlyphs"
text-anchor="middle" opacity="0">DRIVE1</text>
<g class="stroked-text"><desc>DRIVE1</desc>
<path d="M134.1351 60.0048
L134.1351 59.0048
" />
<path d="M134.1351 59.0048
L134.3732 59.0048
" />
<path d="M134.3732 59.0048
L134.5160 59.0524
" />
<path d="M134.5160 59.0524
L134.6112 59.1477
" />
<path d="M134.6112 59.1477
L134.6589 59.2429
" />
<path d="M134.6589 59.2429
L134.7065 59.4334
" />
<path d="M134.7065 59.4334
L134.7065 59.5762
" />
<path d="M134.7065 59.5762
L134.6589 59.7667
" />
<path d="M134.6589 59.7667
L134.6112 59.8620
" />
<path d="M134.6112 59.8620
L134.5160 59.9572
" />
<path d="M134.5160 59.9572
L134.3732 60.0048
" />
<path d="M134.3732 60.0048
L134.1351 60.0048
" />
<path d="M135.7065 60.0048
L135.3732 59.5286
" />
<path d="M135.1351 60.0048
L135.1351 59.0048
" />
<path d="M135.1351 59.0048
L135.5160 59.0048
" />
<path d="M135.5160 59.0048
L135.6112 59.0524
" />
<path d="M135.6112 59.0524
L135.6589 59.1001
" />
<path d="M135.6589 59.1001
L135.7065 59.1953
" />
<path d="M135.7065 59.1953
L135.7065 59.3382
" />
<path d="M135.7065 59.3382
L135.6589 59.4334
" />
<path d="M135.6589 59.4334
L135.6112 59.4810
" />
<path d="M135.6112 59.4810
L135.5160 59.5286
" />
<path d="M135.5160 59.5286
L135.1351 59.5286
" />
<path d="M136.1351 60.0048
L136.1351 59.0048
" />
<path d="M136.4684 59.0048
L136.8017 60.0048
" />
<path d="M136.8017 60.0048
L137.1351 59.0048
" />
<path d="M137.4684 59.4810
L137.8017 59.4810
" />
<path d="M137.9446 60.0048
L137.4684 60.0048
" />
<path d="M137.4684 60.0048
L137.4684 59.0048
" />
<path d="M137.4684 59.0048
L137.9446 59.0048
" />
<path d="M138.8970 60.0048
L138.3255 60.0048
" />
<path d="M138.6112 60.0048
L138.6112 59.0048
" />
<path d="M138.6112 59.0048
L138.5160 59.1477
" />
<path d="M138.5160 59.1477
L138.4208 59.2429
" />
<path d="M138.4208 59.2429
L138.3255 59.2905
" />
</g><g transform="rotate(-180.000000 171.9922 96.4042)">
<text x="171.9922" y="96.9042"
transform="scale(-1 1) translate(-343.984400 0)"
textLength="3.8417" font-size="1.3333" lengthAdjust="spacingAndGlyphs"
text-anchor="middle" opacity="0">VOL1</text>
</g>
<g class="stroked-text"><desc>VOL1</desc>
<path d="M173.7303 96.9493
L173.3970 95.9493
" />
<path d="M173.3970 95.9493
L173.0636 96.9493
" />
<path d="M172.5398 96.9493
L172.3493 96.9493
" />
<path d="M172.3493 96.9493
L172.2541 96.9017
" />
<path d="M172.2541 96.9017
L172.1589 96.8065
" />
<path d="M172.1589 96.8065
L172.1112 96.6160
" />
<path d="M172.1112 96.6160
L172.1112 96.2827
" />
<path d="M172.1112 96.2827
L172.1589 96.0922
" />
<path d="M172.1589 96.0922
L172.2541 95.9970
" />
<path d="M172.2541 95.9970
L172.3493 95.9493
" />
<path d="M172.3493 95.9493
L172.5398 95.9493
" />
<path d="M172.5398 95.9493
L172.6351 95.9970
" />
<path d="M172.6351 95.9970
L172.7303 96.0922
" />
<path d="M172.7303 96.0922
L172.7779 96.2827
" />
<path d="M172.7779 96.2827
L172.7779 96.6160
" />
<path d="M172.7779 96.6160
L172.7303 96.8065
" />
<path d="M172.7303 96.8065
L172.6351 96.9017
" />
<path d="M172.6351 96.9017
L172.5398 96.9493
" />
<path d="M171.2065 95.9493
L171.6827 95.9493
" />
<path d="M171.6827 95.9493
L171.6827 96.9493
" />
<path d="M170.3493 95.9493
L170.9208 95.9493
" />
<path d="M170.6351 95.9493
L170.6351 96.9493
" />
<path d="M170.6351 96.9493
L170.7303 96.8065
" />
<path d="M170.7303 96.8065
L170.8255 96.7113
" />
<path d="M170.8255 96.7113
L170.9208 96.6636
" />
</g><g >
</g>
<g >
</g>
<g >
</g>
<g >
</g>
<g >
</g>
<g >
</g>
<g >
</g>
<g >
</g>
<g style="fill:#000000; fill-opacity:0.0; 
stroke:#000000; stroke-width:0.1500; stroke-opacity:1; 
stroke-linecap:round; stroke-linejoin:round;">
</g>
<g style="fill:#000000; fill-opacity:1.0000; 
stroke:#000000; stroke-width:0.0000; stroke-opacity:1; 
stroke-linecap:round; stroke-linejoin:round;">
<circle cx="141.5022" cy="135.0000" r="0.9995" /> 
</g>
<g style="fill:#000000; fill-opacity:1.0000; 
stroke:#000000; stroke-width:0.0212; stroke-opacity:1; 
stroke-linecap:round; stroke-linejoin:round;">
</g>
<g style="fill:#000000; fill-opacity:1.0000; 
stroke:#000000; stroke-width:0.0000; stroke-opacity:1; 
stroke-linecap:round; stroke-linejoin:round;">
<circle cx="141.5022" cy="142.6200" r="0.9995" /> 
</g>
<g style="fill:#000000; fill-opacity:1.0000; 
stroke:#000000; stroke-width:0.0212; stroke-opacity:1; 
stroke-linecap:round; stroke-linejoin:round;">
</g>
<g >
</g>
<g style="fill:#000000; fill-opacity:1.0000; 
stroke:#000000; stroke-width:0.0212; stroke-opacity:1; 
stroke-linecap:round; stroke-linejoin:round;">
</g>
<g style="fill:#000000; fill-opacity:1.0000; 
stroke:#000000; stroke-width:0.0000; stroke-opacity:1; 
stroke-linecap:round; stroke-linejoin:round;">
<circle cx="169.2422" cy="142.6000" r="0.9995" /> 
</g>
<g style="fill:#000000; fill-opacity:1.0000; 
stroke:#000000; stroke-width:0.0212; stroke-opacity:1; 
stroke-linecap:round; stroke-linejoin:round;">
</g>
<g style="fill:#000000; fill-opacity:1.0000; 
stroke:#000000; stroke-width:0.0000; stroke-opacity:1; 
stroke-linecap:round; stroke-linejoin:round;">
<circle cx="169.2422" cy="134.9800" r="0.9995" /> 
</g>
<g style="fill:#000000; fill-opacity:1.0000; 
stroke:#000000; stroke-width:0.0212; stroke-opacity:1; 
stroke-linecap:round; stroke-linejoin:round;">
</g>
<g >
</g>
<g style="fill:#000000; fill-opacity:1.0000; 
stroke:#000000; stroke-width:0.0212; stroke-opacity:1; 
stroke-linecap:round; stroke-linejoin:round;">
</g>
<g style="fill:#000000; fill-opacity:1.0000; 
stroke:#000000; stroke-width:0.0000; stroke-opacity:1; 
stroke-linecap:round; stroke-linejoin:round;">
<circle cx="165.9922" cy="135.0000" r="0.9995" /> 
</g>
<g style="fill:#000000; fill-opacity:1.0000; 
stroke:#000000; stroke-width:0.0212; stroke-opacity:1; 
stroke-linecap:round; stroke-linejoin:round;">
</g>
<g style="fill:#000000; fill-opacity:1.0000; 
stroke:#000000; stroke-width:0.0000; stroke-opacity:1; 
stroke-linecap:round; stroke-linejoin:round;">
<circle cx="165.9922" cy="142.6200" r="0.9995" /> 
</g>
<g style="fill:#000000; fill-opacity:1.0000; 
stroke:#000000; stroke-width:0.0212; stroke-opacity:1; 
stroke-linecap:round; stroke-linejoin:round;">
</g>
<g >
</g>
<g >
</g>
<g >
</g>
<g >
</g>
<g >
</g>
<g >
</g>
<g >
</g>
<g >
</g>
<g >
</g>
<g >
</g>
<g >
</g>
<g >
</g>
<g >
</g>
<g >
</g>
<g >
</g>
<g >
</g>
<g >
</g>
<g >
</g>
<g >
</g>
<g >
</g>
<g >
</g>
<g >
</g>
<g >
</g>
<g >
</g>
<g >
</g>
<g >
</g>
<g >
</g>
<g >
</g>
<g >
</g>
<g >
</g>
<g >
</g>
<g >
</g>
<g >
</g>
<g >
</g>
<g >
</g>
<g >
</g>
<g >
</g>
<g >
</g>
<g >
</g>
<g >
</g>
<g >
</g>
<g >
</g>
<g >
</g>
<g >
</g>
<g >
</g>
<g >
</g>
<g >
</g>
<g >
</g>
<g >
</g>
<g >
</g>
<g >
</g>
<g >
</g>
<g >
</g>
<g >
</g>
<g >
</g>
<g >
</g>
</g> 
</svg>
