M48
INCH,TZ
T1C0.0157
T2C0.0295
T3C0.0315
T4C0.0354
T5C0.0394
T6C0.0394
T7C0.0433
T8C0.0492
T9C0.0551
%
G90
G05
T1
X49098Y-42008
X53114Y-37126
X53626Y-35906
X55201Y-33976
X55240Y-35906
X56894Y-39961
X57130Y-40945
X57366Y-38740
X58547Y-39646
X58902Y-42441
X59886Y-38150
X60870Y-42874
X61008Y-38484
T2
X49610Y-40669
X50110Y-40169
X50110Y-41169
X60717Y-41358
X61217Y-41858
X61717Y-41358
T3
X50122Y-35848
X50122Y-36832
X63406Y-53150
X63780Y-55197
X63780Y-56181
X64059Y-40906
X64059Y-41890
X65374Y-53150
T4
X59256Y-35604
X59256Y-36604
X61067Y-35600
X61067Y-36600
T5
X52957Y-21654
X52957Y-22654
X54756Y-41654
X54756Y-43839
X55748Y-45988
X55756Y-41654
X55756Y-43839
X56748Y-45988
X56756Y-41654
X56756Y-43839
X57756Y-41654
X57756Y-43839
T6
X48228Y-53150
X48228Y-54150
X50299Y-53142
X50299Y-56142
X51579Y-53150
X51579Y-56150
X61220Y-53150
X61220Y-56150
T7
X47248Y-30097
X47248Y-31261
X47524Y-35953
X47524Y-39953
X49217Y-30097
X49217Y-31261
X51185Y-30097
X51185Y-31261
X61224Y-30138
X61224Y-31163
X63193Y-30138
X63193Y-31163
X65161Y-30138
X65161Y-31163
T9
X48154Y-45079
X48154Y-51469
X50654Y-45079
X50654Y-51469
X53154Y-45079
X53154Y-51469
X59281Y-45079
X59281Y-51469
X61781Y-45079
X61781Y-51469
X64281Y-45079
X64281Y-51469
T5
G00X54557Y-54262
M15
G01X54065Y-54262
M16
G05
G00X54557Y-56112
M15
G01X54065Y-56112
M16
G05
G00X54557Y-57963
M15
G01X54065Y-57963
M16
G05
G00X56644Y-54262
M15
G01X56152Y-54262
M16
G05
G00X56644Y-56122
M15
G01X56152Y-56122
M16
G05
G00X56644Y-57963
M15
G01X56152Y-57963
M16
G05
G00X58730Y-54262
M15
G01X58238Y-54262
M16
G05
G00X58730Y-56112
M15
G01X58238Y-56112
M16
G05
G00X58730Y-57963
M15
G01X58238Y-57963
M16
G05
T8
G00X55939Y-28937
M15
G01X56431Y-28937
M16
G05
G00X55939Y-30689
M15
G01X56431Y-30689
M16
G05
G00X55939Y-32441
M15
G01X56431Y-32441
M16
G05
T0
M30
