<?xml version='1.0' encoding='ASCII' standalone='yes'?>
<svg xmlns="http://www.w3.org/2000/svg" version="1.1" width="297.0022mm" height="210.0072mm" viewBox="0.0000 0.0000 297.0022 210.0072">
            <title>Picture generated by PcbDraw </title>
            <desc>Picture generated by PcbDraw</desc>
        <defs><clipPath id="cut-off"><path d="M141.6700 109.4900 L141.6700 107.7600 M 148.5 107.75 L 150.5 109.75 L 169.0 109.75 L 170.5 108.25 L 170.5 85.0 L 170.5 57.0 L 165.5 52.0 L 148.75 52.0 L 148.75 62.5 L 136.75 62.5 L 136.75 52.0 L 120.0 52.0 L 115.0 57.0 L 115.0 108.25 L 116.5 109.75 L 135.35 109.75 L 137.35 107.75 L 140.6 107.75 L 140.6 109.5 L 137.7 109.5 L 135.95 111.25 L 117.0 111.25 L 116.5 111.25 L 115.0 112.75 L 115.0 121.0 L 115.0 134.5 L 127.0 146.5 L 128.0 147.5 L 128.5 147.5 L 132.5 147.5 L 133.5 148.5 L 133.5 151.0 L 134.5 152.0 L 158.0 152.0 L 169.0 141.0 L 169.0 133.5 L 170.5 132.0 L 170.5 112.75 L 169.0 111.25 L 164.75 111.25 L 149.75 111.25 L 148.0 109.5 L 145.4 109.5 L 145.4 107.75 L 148.5 107.75  M 144.29 107.76 L 144.29 109.49 L 141.67 109.49 L 141.67 107.76 L 144.29 107.76 " style="fill-rule: evenodd;"/></clipPath><mask id="pads-mask-silkscreen"><rect x="74.966786" y="32.7425" width="101.693214" height="122.008408" fill="white"/><g style="fill:#000000; fill-opacity:0.0;  stroke:#000000; stroke-width:0.0000; stroke-opacity:1;  stroke-linecap:round; stroke-linejoin:round;">
<g style="fill:#000000; fill-opacity:1.0000;  stroke:#000000; stroke-width:0.0000; stroke-opacity:1;  stroke-linecap:round; stroke-linejoin:round;">
<path style="fill:#000000; fill-opacity:1.0000;  stroke:#000000; stroke-width:0.0000; stroke-opacity:1;  stroke-linecap:round; stroke-linejoin:round;fill-rule:evenodd;" d="M 150.0500,138.5750 150.0348,138.6515 149.9914,138.7164 149.9265,138.7598 149.8500,138.7750 147.2500,138.7750 147.1735,138.7598 147.1086,138.7164 147.0652,138.6515 147.0500,138.5750 147.0500,137.0750 147.0652,136.9985 147.1086,136.9336 147.1735,136.8902 147.2500,136.8750 149.8500,136.8750 149.9265,136.8902 149.9914,136.9336 150.0348,136.9985 150.0500,137.0750 Z"/> 
</g>
<g style="fill:#000000; fill-opacity:0.0;  stroke:#000000; stroke-width:1.9000; stroke-opacity:1;  stroke-linecap:round; stroke-linejoin:round;">
<path d="M143.8000 137.8250 L142.7000 137.8250 "/>
<path d="M138.5000 137.8250 L137.4000 137.8250 "/>
<path d="M149.1000 142.5250 L148.0000 142.5250 "/>
<path d="M143.8000 142.5500 L142.7000 142.5500 "/>
<path d="M138.5000 142.5250 L137.4000 142.5250 "/>
<path d="M149.1000 147.2250 L148.0000 147.2250 "/>
<path d="M143.8000 147.2250 L142.7000 147.2250 "/>
<path d="M138.5000 147.2250 L137.4000 147.2250 "/>
</g>
<g style="fill:#000000; fill-opacity:1.0000;  stroke:#000000; stroke-width:0.0000; stroke-opacity:1;  stroke-linecap:round; stroke-linejoin:round;">
<circle cx="128.6600" cy="130.7300" r="1.7000"/> 
</g>
<g style="fill:#000000; fill-opacity:1.0000;  stroke:#000000; stroke-width:0.0000; stroke-opacity:1;  stroke-linecap:round; stroke-linejoin:round;">
<circle cx="128.6600" cy="114.5000" r="1.7000"/> 
</g>
<g style="fill:#000000; fill-opacity:1.0000;  stroke:#000000; stroke-width:0.0000; stroke-opacity:1;  stroke-linecap:round; stroke-linejoin:round;">
<circle cx="122.3100" cy="130.7300" r="1.7000"/> 
</g>
<g style="fill:#000000; fill-opacity:1.0000;  stroke:#000000; stroke-width:0.0000; stroke-opacity:1;  stroke-linecap:round; stroke-linejoin:round;">
<circle cx="122.3100" cy="114.5000" r="1.7000"/> 
</g>
<g style="fill:#000000; fill-opacity:1.0000;  stroke:#000000; stroke-width:0.0000; stroke-opacity:1;  stroke-linecap:round; stroke-linejoin:round;">
<circle cx="135.0100" cy="130.7300" r="1.7000"/> 
</g>
<g style="fill:#000000; fill-opacity:1.0000;  stroke:#000000; stroke-width:0.0000; stroke-opacity:1;  stroke-linecap:round; stroke-linejoin:round;">
<circle cx="135.0100" cy="114.5000" r="1.7000"/> 
</g>
<g style="fill:#000000; fill-opacity:1.0000;  stroke:#000000; stroke-width:0.0000; stroke-opacity:1;  stroke-linecap:round; stroke-linejoin:round;">
<path style="fill:#000000; fill-opacity:1.0000;  stroke:#000000; stroke-width:0.0000; stroke-opacity:1;  stroke-linecap:round; stroke-linejoin:round;fill-rule:evenodd;" d="M 133.4600,54.1500 133.4752,54.0735 133.5186,54.0086 133.5835,53.9652 133.6600,53.9500 135.3600,53.9500 135.4365,53.9652 135.5014,54.0086 135.5448,54.0735 135.5600,54.1500 135.5600,55.8500 135.5448,55.9265 135.5014,55.9914 135.4365,56.0348 135.3600,56.0500 133.6600,56.0500 133.5835,56.0348 133.5186,55.9914 133.4752,55.9265 133.4600,55.8500 Z"/> 
<circle cx="134.5100" cy="57.5400" r="1.0500"/> 
</g>
<g style="fill:#000000; fill-opacity:1.0000;  stroke:#000000; stroke-width:0.0000; stroke-opacity:1;  stroke-linecap:round; stroke-linejoin:round;">
<path style="fill:#000000; fill-opacity:1.0000;  stroke:#000000; stroke-width:0.0000; stroke-opacity:1;  stroke-linecap:round; stroke-linejoin:round;fill-rule:evenodd;" d="M 147.5500,110.3000 147.6265,110.3152 147.6914,110.3586 147.7348,110.4235 147.7500,110.5000 147.7500,112.2000 147.7348,112.2765 147.6914,112.3414 147.6265,112.3848 147.5500,112.4000 145.8500,112.4000 145.7735,112.3848 145.7086,112.3414 145.6652,112.2765 145.6500,112.2000 145.6500,110.5000 145.6652,110.4235 145.7086,110.3586 145.7735,110.3152 145.8500,110.3000 Z"/> 
<circle cx="144.1600" cy="111.3500" r="1.0500"/> 
<circle cx="141.6200" cy="111.3500" r="1.0500"/> 
<circle cx="139.0800" cy="111.3500" r="1.0500"/> 
</g>
<g style="fill:#000000; fill-opacity:1.0000;  stroke:#000000; stroke-width:0.0000; stroke-opacity:1;  stroke-linecap:round; stroke-linejoin:round;">
<path style="fill:#000000; fill-opacity:1.0000;  stroke:#000000; stroke-width:0.0000; stroke-opacity:1;  stroke-linecap:round; stroke-linejoin:round;fill-rule:evenodd;" d="M 147.5500,104.7500 147.6265,104.7652 147.6914,104.8086 147.7348,104.8735 147.7500,104.9500 147.7500,106.6500 147.7348,106.7265 147.6914,106.7914 147.6265,106.8348 147.5500,106.8500 145.8500,106.8500 145.7735,106.8348 145.7086,106.7914 145.6652,106.7265 145.6500,106.6500 145.6500,104.9500 145.6652,104.8735 145.7086,104.8086 145.7735,104.7652 145.8500,104.7500 Z"/> 
<circle cx="144.1600" cy="105.8000" r="1.0500"/> 
<circle cx="141.6200" cy="105.8000" r="1.0500"/> 
<circle cx="139.0800" cy="105.8000" r="1.0500"/> 
</g>
<g style="fill:#000000; fill-opacity:1.0000;  stroke:#000000; stroke-width:0.0000; stroke-opacity:1;  stroke-linecap:round; stroke-linejoin:round;">
<path style="fill:#000000; fill-opacity:1.0000;  stroke:#000000; stroke-width:0.0000; stroke-opacity:1;  stroke-linecap:round; stroke-linejoin:round;fill-rule:evenodd;" d="M 162.8000,139.2000 162.8765,139.2152 162.9414,139.2586 162.9848,139.3235 163.0000,139.4000 163.0000,141.0000 162.9848,141.0765 162.9414,141.1414 162.8765,141.1848 162.8000,141.2000 161.2000,141.2000 161.1235,141.1848 161.0586,141.1414 161.0152,141.0765 161.0000,141.0000 161.0000,139.4000 161.0152,139.3235 161.0586,139.2586 161.1235,139.2152 161.2000,139.2000 Z"/> 
<circle cx="162.0000" cy="142.7000" r="1.0000"/> 
</g>
<g style="fill:#000000; fill-opacity:1.0000;  stroke:#000000; stroke-width:0.0000; stroke-opacity:1;  stroke-linecap:round; stroke-linejoin:round;">
<path style="fill:#000000; fill-opacity:1.0000;  stroke:#000000; stroke-width:0.0000; stroke-opacity:1;  stroke-linecap:round; stroke-linejoin:round;fill-rule:evenodd;" d="M 123.7000,138.4900 123.6848,138.5665 123.6414,138.6314 123.5765,138.6748 123.5000,138.6900 121.5000,138.6900 121.4235,138.6748 121.3586,138.6314 121.3152,138.5665 121.3000,138.4900 121.3000,136.5900 121.3152,136.5135 121.3586,136.4486 121.4235,136.4052 121.5000,136.3900 123.5000,136.3900 123.5765,136.4052 123.6414,136.4486 123.6848,136.5135 123.7000,136.5900 Z"/> 
<circle cx="122.5000" cy="135.0000" r="1.1500"/> 
</g>
<g style="fill:#000000; fill-opacity:1.0000;  stroke:#000000; stroke-width:0.0000; stroke-opacity:1;  stroke-linecap:round; stroke-linejoin:round;">
<circle cx="155.5000" cy="135.0000" r="1.1995"/> 
</g>
<g style="fill:#000000; fill-opacity:1.0000;  stroke:#000000; stroke-width:0.0000; stroke-opacity:1;  stroke-linecap:round; stroke-linejoin:round;">
<circle cx="155.5000" cy="142.6200" r="1.1995"/> 
</g>
<g style="fill:#000000; fill-opacity:1.0000;  stroke:#000000; stroke-width:0.0000; stroke-opacity:1;  stroke-linecap:round; stroke-linejoin:round;">
<circle cx="127.7600" cy="142.6000" r="1.1995"/> 
</g>
<g style="fill:#000000; fill-opacity:1.0000;  stroke:#000000; stroke-width:0.0000; stroke-opacity:1;  stroke-linecap:round; stroke-linejoin:round;">
<circle cx="127.7600" cy="134.9800" r="1.1995"/> 
</g>
<g style="fill:#000000; fill-opacity:1.0000;  stroke:#000000; stroke-width:0.0000; stroke-opacity:1;  stroke-linecap:round; stroke-linejoin:round;">
<circle cx="131.0100" cy="135.0000" r="1.1995"/> 
</g>
<g style="fill:#000000; fill-opacity:1.0000;  stroke:#000000; stroke-width:0.0000; stroke-opacity:1;  stroke-linecap:round; stroke-linejoin:round;">
<circle cx="131.0100" cy="142.6200" r="1.1995"/> 
</g>
<g style="fill:#000000; fill-opacity:1.0000;  stroke:#000000; stroke-width:0.0000; stroke-opacity:1;  stroke-linecap:round; stroke-linejoin:round;">
<path style="fill:#000000; fill-opacity:1.0000;  stroke:#000000; stroke-width:0.0000; stroke-opacity:1;  stroke-linecap:round; stroke-linejoin:round;fill-rule:evenodd;" d="M 160.2000,134.3500 160.2152,134.2735 160.2586,134.2086 160.3235,134.1652 160.4000,134.1500 161.7000,134.1500 161.7765,134.1652 161.8414,134.2086 161.8848,134.2735 161.9000,134.3500 161.9000,135.6500 161.8848,135.7265 161.8414,135.7914 161.7765,135.8348 161.7000,135.8500 160.4000,135.8500 160.3235,135.8348 160.2586,135.7914 160.2152,135.7265 160.2000,135.6500 Z"/> 
<circle cx="166.0500" cy="135.0000" r="0.8500"/> 
</g>
<g style="fill:#000000; fill-opacity:1.0000;  stroke:#000000; stroke-width:0.0000; stroke-opacity:1;  stroke-linecap:round; stroke-linejoin:round;">
<path style="fill:#000000; fill-opacity:1.0000;  stroke:#000000; stroke-width:0.0000; stroke-opacity:1;  stroke-linecap:round; stroke-linejoin:round;fill-rule:evenodd;" d="M 144.9900,115.7600 145.0665,115.7752 145.1314,115.8186 145.1748,115.8835 145.1900,115.9600 145.1900,117.6600 145.1748,117.7365 145.1314,117.8014 145.0665,117.8448 144.9900,117.8600 143.2900,117.8600 143.2135,117.8448 143.1486,117.8014 143.1052,117.7365 143.0900,117.6600 143.0900,115.9600 143.1052,115.8835 143.1486,115.8186 143.2135,115.7752 143.2900,115.7600 Z"/> 
<circle cx="141.6000" cy="116.8100" r="1.0500"/> 
</g>
<g style="fill:#000000; fill-opacity:1.0000;  stroke:#000000; stroke-width:0.0000; stroke-opacity:1;  stroke-linecap:round; stroke-linejoin:round;">
<circle cx="156.9250" cy="114.5000" r="1.7000"/> 
</g>
<g style="fill:#000000; fill-opacity:1.0000;  stroke:#000000; stroke-width:0.0000; stroke-opacity:1;  stroke-linecap:round; stroke-linejoin:round;">
<circle cx="156.9250" cy="130.7300" r="1.7000"/> 
</g>
<g style="fill:#000000; fill-opacity:1.0000;  stroke:#000000; stroke-width:0.0000; stroke-opacity:1;  stroke-linecap:round; stroke-linejoin:round;">
<circle cx="163.2750" cy="114.5000" r="1.7000"/> 
</g>
<g style="fill:#000000; fill-opacity:1.0000;  stroke:#000000; stroke-width:0.0000; stroke-opacity:1;  stroke-linecap:round; stroke-linejoin:round;">
<circle cx="163.2750" cy="130.7300" r="1.7000"/> 
</g>
<g style="fill:#000000; fill-opacity:1.0000;  stroke:#000000; stroke-width:0.0000; stroke-opacity:1;  stroke-linecap:round; stroke-linejoin:round;">
<circle cx="150.5750" cy="114.5000" r="1.7000"/> 
</g>
<g style="fill:#000000; fill-opacity:1.0000;  stroke:#000000; stroke-width:0.0000; stroke-opacity:1;  stroke-linecap:round; stroke-linejoin:round;">
<circle cx="150.5750" cy="130.7300" r="1.7000"/> 
</g>
<g style="fill:#000000; fill-opacity:0.0;  stroke:#000000; stroke-width:3.6000; stroke-opacity:1;  stroke-linecap:round; stroke-linejoin:round;">
<path d="M141.8100 82.4000 L143.6100 82.4000 "/>
<path d="M141.8100 77.9500 L143.6100 77.9500 "/>
<path d="M141.8100 73.5000 L143.6100 73.5000 "/>
</g>
<g style="fill:#000000; fill-opacity:1.0000;  stroke:#000000; stroke-width:0.0000; stroke-opacity:1;  stroke-linecap:round; stroke-linejoin:round;">
<path style="fill:#000000; fill-opacity:1.0000;  stroke:#000000; stroke-width:0.0000; stroke-opacity:1;  stroke-linecap:round; stroke-linejoin:round;fill-rule:evenodd;" d="M 149.6100,94.0750 149.5335,94.0598 149.4686,94.0164 149.4252,93.9515 149.4100,93.8750 149.4100,92.0750 149.4252,91.9985 149.4686,91.9336 149.5335,91.8902 149.6100,91.8750 151.4100,91.8750 151.4865,91.8902 151.5514,91.9336 151.5948,91.9985 151.6100,92.0750 151.6100,93.8750 151.5948,93.9515 151.5514,94.0164 151.4865,94.0598 151.4100,94.0750 Z"/> 
<circle cx="150.5100" cy="90.4350" r="1.1000"/> 
</g>
<g style="fill:#000000; fill-opacity:1.0000;  stroke:#000000; stroke-width:0.0000; stroke-opacity:1;  stroke-linecap:round; stroke-linejoin:round;">
<path style="fill:#000000; fill-opacity:1.0000;  stroke:#000000; stroke-width:0.0000; stroke-opacity:1;  stroke-linecap:round; stroke-linejoin:round;fill-rule:evenodd;" d="M 156.0100,89.3250 156.0865,89.3402 156.1514,89.3836 156.1948,89.4485 156.2100,89.5250 156.2100,91.3250 156.1948,91.4015 156.1514,91.4664 156.0865,91.5098 156.0100,91.5250 154.2100,91.5250 154.1335,91.5098 154.0686,91.4664 154.0252,91.4015 154.0100,91.3250 154.0100,89.5250 154.0252,89.4485 154.0686,89.3836 154.1335,89.3402 154.2100,89.3250 Z"/> 
<circle cx="155.1100" cy="92.9650" r="1.1000"/> 
</g>
<g style="fill:#000000; fill-opacity:1.0000;  stroke:#000000; stroke-width:0.0000; stroke-opacity:1;  stroke-linecap:round; stroke-linejoin:round;">
<path style="fill:#000000; fill-opacity:1.0000;  stroke:#000000; stroke-width:0.0000; stroke-opacity:1;  stroke-linecap:round; stroke-linejoin:round;fill-rule:evenodd;" d="M 126.5100,94.5527 126.4335,94.5374 126.3686,94.4941 126.3252,94.4292 126.3100,94.3527 126.3100,92.7527 126.3252,92.6761 126.3686,92.6112 126.4335,92.5679 126.5100,92.5527 128.1100,92.5527 128.1865,92.5679 128.2514,92.6112 128.2948,92.6761 128.3100,92.7527 128.3100,94.3527 128.2948,94.4292 128.2514,94.4941 128.1865,94.5374 128.1100,94.5527 Z"/> 
<circle cx="127.3100" cy="91.0527" r="1.0000"/> 
</g>
<g style="fill:#000000; fill-opacity:1.0000;  stroke:#000000; stroke-width:0.0000; stroke-opacity:1;  stroke-linecap:round; stroke-linejoin:round;">
<path style="fill:#000000; fill-opacity:1.0000;  stroke:#000000; stroke-width:0.0000; stroke-opacity:1;  stroke-linecap:round; stroke-linejoin:round;fill-rule:evenodd;" d="M 157.5100,105.5500 157.4948,105.6265 157.4514,105.6914 157.3865,105.7348 157.3100,105.7500 156.2100,105.7500 156.1335,105.7348 156.0686,105.6914 156.0252,105.6265 156.0100,105.5500 156.0100,103.7500 156.0252,103.6735 156.0686,103.6086 156.1335,103.5652 156.2100,103.5500 157.3100,103.5500 157.3865,103.5652 157.4514,103.6086 157.4948,103.6735 157.5100,103.7500 Z"/> 
<path style="fill:#000000; fill-opacity:1.0000;  stroke:#000000; stroke-width:0.0000; stroke-opacity:1;  stroke-linecap:round; stroke-linejoin:round;fill-rule:evenodd;" d="M 156.2400,107.3450 156.2317,107.4333 156.1850,107.5670 156.1009,107.6809 155.9870,107.7650 155.8533,107.8117 155.7650,107.8200 155.2150,107.8200 155.1267,107.8117 154.9930,107.7650 154.8791,107.6809 154.7950,107.5670 154.7483,107.4333 154.7400,107.3450 154.7400,106.0950 154.7483,106.0067 154.7950,105.8730 154.8791,105.7591 154.9930,105.6750 155.1267,105.6283 155.2150,105.6200 155.7650,105.6200 155.8533,105.6283 155.9870,105.6750 156.1009,105.7591 156.1850,105.8730 156.2317,106.0067 156.2400,106.0950 Z"/> 
<path style="fill:#000000; fill-opacity:1.0000;  stroke:#000000; stroke-width:0.0000; stroke-opacity:1;  stroke-linecap:round; stroke-linejoin:round;fill-rule:evenodd;" d="M 154.9700,105.2750 154.9617,105.3633 154.9150,105.4970 154.8309,105.6109 154.7170,105.6950 154.5833,105.7417 154.4950,105.7500 153.9450,105.7500 153.8567,105.7417 153.7230,105.6950 153.6091,105.6109 153.5250,105.4970 153.4783,105.3633 153.4700,105.2750 153.4700,104.0250 153.4783,103.9367 153.5250,103.8030 153.6091,103.6891 153.7230,103.6050 153.8567,103.5583 153.9450,103.5500 154.4950,103.5500 154.5833,103.5583 154.7170,103.6050 154.8309,103.6891 154.9150,103.8030 154.9617,103.9367 154.9700,104.0250 Z"/> 
</g>
<g style="fill:#000000; fill-opacity:1.0000;  stroke:#000000; stroke-width:0.0000; stroke-opacity:1;  stroke-linecap:round; stroke-linejoin:round;">
<path style="fill:#000000; fill-opacity:1.0000;  stroke:#000000; stroke-width:0.0000; stroke-opacity:1;  stroke-linecap:round; stroke-linejoin:round;fill-rule:evenodd;" d="M 161.9100,107.4000 161.8335,107.3848 161.7686,107.3414 161.7252,107.2765 161.7100,107.2000 161.7100,105.6000 161.7252,105.5235 161.7686,105.4586 161.8335,105.4152 161.9100,105.4000 163.5100,105.4000 163.5865,105.4152 163.6514,105.4586 163.6948,105.5235 163.7100,105.6000 163.7100,107.2000 163.6948,107.2765 163.6514,107.3414 163.5865,107.3848 163.5100,107.4000 Z"/> 
<circle cx="162.7100" cy="103.9000" r="1.0000"/> 
</g>
<g style="fill:#000000; fill-opacity:1.0000;  stroke:#000000; stroke-width:0.0000; stroke-opacity:1;  stroke-linecap:round; stroke-linejoin:round;">
<path style="fill:#000000; fill-opacity:1.0000;  stroke:#000000; stroke-width:0.0000; stroke-opacity:1;  stroke-linecap:round; stroke-linejoin:round;fill-rule:evenodd;" d="M 126.7800,105.3200 126.7035,105.3048 126.6386,105.2614 126.5952,105.1965 126.5800,105.1200 126.5800,104.0200 126.5952,103.9435 126.6386,103.8786 126.7035,103.8352 126.7800,103.8200 128.5800,103.8200 128.6565,103.8352 128.7214,103.8786 128.7648,103.9435 128.7800,104.0200 128.7800,105.1200 128.7648,105.1965 128.7214,105.2614 128.6565,105.3048 128.5800,105.3200 Z"/> 
<path style="fill:#000000; fill-opacity:1.0000;  stroke:#000000; stroke-width:0.0000; stroke-opacity:1;  stroke-linecap:round; stroke-linejoin:round;fill-rule:evenodd;" d="M 124.9850,104.0500 124.8967,104.0417 124.7630,103.9950 124.6491,103.9109 124.5650,103.7970 124.5183,103.6633 124.5100,103.5750 124.5100,103.0250 124.5183,102.9367 124.5650,102.8030 124.6491,102.6891 124.7630,102.6050 124.8967,102.5583 124.9850,102.5500 126.2350,102.5500 126.3233,102.5583 126.4570,102.6050 126.5709,102.6891 126.6550,102.8030 126.7017,102.9367 126.7100,103.0250 126.7100,103.5750 126.7017,103.6633 126.6550,103.7970 126.5709,103.9109 126.4570,103.9950 126.3233,104.0417 126.2350,104.0500 Z"/> 
<path style="fill:#000000; fill-opacity:1.0000;  stroke:#000000; stroke-width:0.0000; stroke-opacity:1;  stroke-linecap:round; stroke-linejoin:round;fill-rule:evenodd;" d="M 127.0550,102.7800 126.9667,102.7717 126.8330,102.7250 126.7191,102.6409 126.6350,102.5270 126.5883,102.3933 126.5800,102.3050 126.5800,101.7550 126.5883,101.6667 126.6350,101.5330 126.7191,101.4191 126.8330,101.3350 126.9667,101.2883 127.0550,101.2800 128.3050,101.2800 128.3933,101.2883 128.5270,101.3350 128.6409,101.4191 128.7250,101.5330 128.7717,101.6667 128.7800,101.7550 128.7800,102.3050 128.7717,102.3933 128.7250,102.5270 128.6409,102.6409 128.5270,102.7250 128.3933,102.7717 128.3050,102.7800 Z"/> 
</g>
<g style="fill:#000000; fill-opacity:1.0000;  stroke:#000000; stroke-width:0.0000; stroke-opacity:1;  stroke-linecap:round; stroke-linejoin:round;">
<path style="fill:#000000; fill-opacity:1.0000;  stroke:#000000; stroke-width:0.0000; stroke-opacity:1;  stroke-linecap:round; stroke-linejoin:round;fill-rule:evenodd;" d="M 119.6100,102.7800 119.5335,102.7648 119.4686,102.7214 119.4252,102.6565 119.4100,102.5800 119.4100,100.3800 119.4252,100.3035 119.4686,100.2386 119.5335,100.1952 119.6100,100.1800 121.8100,100.1800 121.8865,100.1952 121.9514,100.2386 121.9948,100.3035 122.0100,100.3800 122.0100,102.5800 121.9948,102.6565 121.9514,102.7214 121.8865,102.7648 121.8100,102.7800 Z"/> 
<circle cx="120.7100" cy="91.3200" r="1.3000"/> 
</g>
<g style="fill:#000000; fill-opacity:1.0000;  stroke:#000000; stroke-width:0.0000; stroke-opacity:1;  stroke-linecap:round; stroke-linejoin:round;">
<circle cx="155.5100" cy="79.1542" r="0.9620"/> 
</g>
<g style="fill:#000000; fill-opacity:1.0000;  stroke:#000000; stroke-width:0.0000; stroke-opacity:1;  stroke-linecap:round; stroke-linejoin:round;">
<circle cx="160.5100" cy="79.1542" r="0.9620"/> 
</g>
<g style="fill:#000000; fill-opacity:1.0000;  stroke:#000000; stroke-width:0.0000; stroke-opacity:1;  stroke-linecap:round; stroke-linejoin:round;">
<circle cx="165.5100" cy="79.1542" r="0.9620"/> 
</g>
<g style="fill:#000000; fill-opacity:1.0000;  stroke:#000000; stroke-width:0.0000; stroke-opacity:1;  stroke-linecap:round; stroke-linejoin:round;">
<circle cx="130.0100" cy="76.4458" r="0.9620"/> 
</g>
<g style="fill:#000000; fill-opacity:1.0000;  stroke:#000000; stroke-width:0.0000; stroke-opacity:1;  stroke-linecap:round; stroke-linejoin:round;">
<circle cx="125.0100" cy="76.4458" r="0.9620"/> 
</g>
<g style="fill:#000000; fill-opacity:1.0000;  stroke:#000000; stroke-width:0.0000; stroke-opacity:1;  stroke-linecap:round; stroke-linejoin:round;">
<circle cx="120.0100" cy="76.4458" r="0.9620"/> 
</g>
<g style="fill:#000000; fill-opacity:1.0000;  stroke:#000000; stroke-width:0.0000; stroke-opacity:1;  stroke-linecap:round; stroke-linejoin:round;">
<circle cx="165.5100" cy="76.5500" r="0.9620"/> 
</g>
<g style="fill:#000000; fill-opacity:1.0000;  stroke:#000000; stroke-width:0.0000; stroke-opacity:1;  stroke-linecap:round; stroke-linejoin:round;">
<circle cx="160.5100" cy="76.5500" r="0.9620"/> 
</g>
<g style="fill:#000000; fill-opacity:1.0000;  stroke:#000000; stroke-width:0.0000; stroke-opacity:1;  stroke-linecap:round; stroke-linejoin:round;">
<circle cx="155.5100" cy="76.5500" r="0.9620"/> 
</g>
<g style="fill:#000000; fill-opacity:1.0000;  stroke:#000000; stroke-width:0.0000; stroke-opacity:1;  stroke-linecap:round; stroke-linejoin:round;">
<circle cx="120.0100" cy="79.4042" r="0.9620"/> 
</g>
<g style="fill:#000000; fill-opacity:1.0000;  stroke:#000000; stroke-width:0.0000; stroke-opacity:1;  stroke-linecap:round; stroke-linejoin:round;">
<circle cx="125.0100" cy="79.4042" r="0.9620"/> 
</g>
<g style="fill:#000000; fill-opacity:1.0000;  stroke:#000000; stroke-width:0.0000; stroke-opacity:1;  stroke-linecap:round; stroke-linejoin:round;">
<circle cx="130.0100" cy="79.4042" r="0.9620"/> 
</g>
</g> 
</mask></defs><g transform="scale(-1,1) translate(-297,0)" id="boardContainer"><g id="substrate" clip-path="url(#cut-off)" mask="url(#pads-mask-silkscreen)"><g id="substrate-board" style="fill:#143324; fill-opacity:0.25098039215686274; stroke:#143324; stroke-width:0;"><path d="M141.6700 109.4900 L141.6700 107.7600 M 148.5 107.75 L 150.5 109.75 L 169.0 109.75 L 170.5 108.25 L 170.5 85.0 L 170.5 57.0 L 165.5 52.0 L 148.75 52.0 L 148.75 62.5 L 136.75 62.5 L 136.75 52.0 L 120.0 52.0 L 115.0 57.0 L 115.0 108.25 L 116.5 109.75 L 135.35 109.75 L 137.35 107.75 L 140.6 107.75 L 140.6 109.5 L 137.7 109.5 L 135.95 111.25 L 117.0 111.25 L 116.5 111.25 L 115.0 112.75 L 115.0 121.0 L 115.0 134.5 L 127.0 146.5 L 128.0 147.5 L 128.5 147.5 L 132.5 147.5 L 133.5 148.5 L 133.5 151.0 L 134.5 152.0 L 158.0 152.0 L 169.0 141.0 L 169.0 133.5 L 170.5 132.0 L 170.5 112.75 L 169.0 111.25 L 164.75 111.25 L 149.75 111.25 L 148.0 109.5 L 145.4 109.5 L 145.4 107.75 L 148.5 107.75  M 144.29 107.76 L 144.29 109.49 L 141.67 109.49 L 141.67 107.76 L 144.29 107.76 " style="fill-rule: evenodd;"/><g style="fill-opacity: 0.0;stroke-width: 0.1500;stroke-opacity: 1;stroke-linecap: round;stroke-linejoin: round">
<path d="M145.4000 107.7500 L148.5000 107.7500 "/>
<path d="M137.7000 109.5000 L140.6000 109.5000 "/>
<path d="M128.0000 147.5000 L127.0000 146.5000 "/>
<path d="M115.0000 134.5000 L115.0000 121.0000 "/>
<path d="M135.3500 109.7500 L116.5000 109.7500 "/>
<path d="M145.4000 109.5000 L148.0000 109.5000 "/>
<path d="M148.7500 62.5000 L148.7500 52.0000 "/>
<path d="M127.0000 146.5000 L115.0000 134.5000 "/>
<path d="M115.0000 57.0000 L115.0000 108.2500 "/>
<path d="M169.0000 141.0000 L158.0000 152.0000 "/>
<path d="M133.5000 151.0000 L133.5000 148.5000 "/>
<path d="M149.7500 111.2500 L164.7500 111.2500 "/>
<path d="M148.5000 107.7500 L150.5000 109.7500 "/>
<path d="M165.5000 52.0000 L170.5000 57.0000 "/>
<path d="M169.0000 109.7500 L170.5000 108.2500 "/>
<path d="M169.0000 133.5000 L170.5000 132.0000 "/>
<path d="M116.5000 109.7500 L115.0000 108.2500 "/>
<path d="M140.6000 107.7500 L140.6000 109.5000 "/>
<path d="M137.3500 107.7500 L135.3500 109.7500 "/>
<path d="M115.0000 57.0000 L120.0000 52.0000 "/>
<path d="M170.5000 85.0000 L170.5000 57.0000 "/>
<path d="M136.7500 62.5000 L148.7500 62.5000 "/>
<path d="M136.7500 52.0000 L120.0000 52.0000 "/>
<path d="M170.5000 112.7500 L169.0000 111.2500 "/>
<path d="M135.9500 111.2500 L117.0000 111.2500 "/>
<path d="M134.5000 152.0000 L158.0000 152.0000 "/>
</g>
<g style="fill-opacity: 1.0000;stroke-width: 0.0000;stroke-opacity: 1;stroke-linecap: round;stroke-linejoin: round">
<circle cx="116.5000" cy="109.7500" r="0.0750"/> 
</g>
<g style="fill-opacity: 0.0;stroke-width: 0.1500;stroke-opacity: 1;stroke-linecap: round;stroke-linejoin: round">
<path d="M137.7000 109.5000 L135.9500 111.2500 "/>
<path d="M169.0000 133.5000 L169.0000 141.0000 "/>
<path d="M170.5000 108.2500 L170.5000 85.0000 "/>
<path d="M136.7500 52.0000 L136.7500 62.5000 "/>
<path d="M134.5000 152.0000 L133.5000 151.0000 "/>
<path d="M133.5000 148.5000 L132.5000 147.5000 "/>
<path style="fill-opacity: 0.0;stroke-width: 0.1500;stroke-opacity: 1;stroke-linecap: round;stroke-linejoin: round" d="M 141.6700,107.7600 144.2900,107.7600 144.2900,109.4900 141.6700,109.4900 Z"/> 
<path d="M115.0000 112.7500 L115.0000 121.0000 "/>
<path d="M148.7500 52.0000 L165.5000 52.0000 "/>
<path d="M132.5000 147.5000 L128.5000 147.5000 "/>
<path d="M145.4000 107.7500 L145.4000 109.5000 "/>
<path d="M169.0000 111.2500 L164.7500 111.2500 "/>
<path d="M116.5000 111.2500 L115.0000 112.7500 "/>
<path d="M148.0000 109.5000 L149.7500 111.2500 "/>
<path d="M170.5000 132.0000 L170.5000 112.7500 "/>
<path d="M128.5000 147.5000 L128.0000 147.5000 "/>
<path d="M137.3500 107.7500 L140.6000 107.7500 "/>
<path d="M150.5000 109.7500 L169.0000 109.7500 "/>
<path d="M117.0000 111.2500 L116.5000 111.2500 "/>
</g> 
</g></g></g></svg>
