%TF.GenerationSoftware,KiCad,Pcbnew,7.0.5.1-1-g8f565ef7f0-dirty-deb11*%
%TF.CreationDate,2023-08-08T15:30:21+00:00*%
%TF.ProjectId,GreenBean,47726565-6e42-4656-916e-2e6b69636164,rev?*%
%TF.SameCoordinates,Original*%
%TF.FileFunction,Legend,Bot*%
%TF.FilePolarity,Positive*%
%FSLAX46Y46*%
G04 Gerber Fmt 4.6, Leading zero omitted, Abs format (unit mm)*
G04 Created by KiCad (PCBNEW 7.0.5.1-1-g8f565ef7f0-dirty-deb11) date 2023-08-08 15:30:21*
%MOMM*%
%LPD*%
G01*
G04 APERTURE LIST*
%ADD10C,0.150000*%
%ADD11C,1.998980*%
G04 APERTURE END LIST*
D10*
%TO.C,LOW1*%
X159248095Y-95699348D02*
X158771905Y-95699348D01*
X158771905Y-95699348D02*
X158771905Y-96699348D01*
X159771905Y-96699348D02*
X159962381Y-96699348D01*
X159962381Y-96699348D02*
X160057619Y-96651729D01*
X160057619Y-96651729D02*
X160152857Y-96556491D01*
X160152857Y-96556491D02*
X160200476Y-96366015D01*
X160200476Y-96366015D02*
X160200476Y-96032682D01*
X160200476Y-96032682D02*
X160152857Y-95842206D01*
X160152857Y-95842206D02*
X160057619Y-95746968D01*
X160057619Y-95746968D02*
X159962381Y-95699348D01*
X159962381Y-95699348D02*
X159771905Y-95699348D01*
X159771905Y-95699348D02*
X159676667Y-95746968D01*
X159676667Y-95746968D02*
X159581429Y-95842206D01*
X159581429Y-95842206D02*
X159533810Y-96032682D01*
X159533810Y-96032682D02*
X159533810Y-96366015D01*
X159533810Y-96366015D02*
X159581429Y-96556491D01*
X159581429Y-96556491D02*
X159676667Y-96651729D01*
X159676667Y-96651729D02*
X159771905Y-96699348D01*
X160533810Y-96699348D02*
X160771905Y-95699348D01*
X160771905Y-95699348D02*
X160962381Y-96413634D01*
X160962381Y-96413634D02*
X161152857Y-95699348D01*
X161152857Y-95699348D02*
X161390953Y-96699348D01*
X162295714Y-95699348D02*
X161724286Y-95699348D01*
X162010000Y-95699348D02*
X162010000Y-96699348D01*
X162010000Y-96699348D02*
X161914762Y-96556491D01*
X161914762Y-96556491D02*
X161819524Y-96461253D01*
X161819524Y-96461253D02*
X161724286Y-96413634D01*
%TO.C,TONE1*%
X127271904Y-58900651D02*
X126700476Y-58900651D01*
X126986190Y-59900651D02*
X126986190Y-58900651D01*
X126176666Y-58900651D02*
X125986190Y-58900651D01*
X125986190Y-58900651D02*
X125890952Y-58948270D01*
X125890952Y-58948270D02*
X125795714Y-59043508D01*
X125795714Y-59043508D02*
X125748095Y-59233984D01*
X125748095Y-59233984D02*
X125748095Y-59567317D01*
X125748095Y-59567317D02*
X125795714Y-59757793D01*
X125795714Y-59757793D02*
X125890952Y-59853032D01*
X125890952Y-59853032D02*
X125986190Y-59900651D01*
X125986190Y-59900651D02*
X126176666Y-59900651D01*
X126176666Y-59900651D02*
X126271904Y-59853032D01*
X126271904Y-59853032D02*
X126367142Y-59757793D01*
X126367142Y-59757793D02*
X126414761Y-59567317D01*
X126414761Y-59567317D02*
X126414761Y-59233984D01*
X126414761Y-59233984D02*
X126367142Y-59043508D01*
X126367142Y-59043508D02*
X126271904Y-58948270D01*
X126271904Y-58948270D02*
X126176666Y-58900651D01*
X125319523Y-59900651D02*
X125319523Y-58900651D01*
X125319523Y-58900651D02*
X124748095Y-59900651D01*
X124748095Y-59900651D02*
X124748095Y-58900651D01*
X124271904Y-59376841D02*
X123938571Y-59376841D01*
X123795714Y-59900651D02*
X124271904Y-59900651D01*
X124271904Y-59900651D02*
X124271904Y-58900651D01*
X124271904Y-58900651D02*
X123795714Y-58900651D01*
X122843333Y-59900651D02*
X123414761Y-59900651D01*
X123129047Y-59900651D02*
X123129047Y-58900651D01*
X123129047Y-58900651D02*
X123224285Y-59043508D01*
X123224285Y-59043508D02*
X123319523Y-59138746D01*
X123319523Y-59138746D02*
X123414761Y-59186365D01*
%TO.C,DRIVE1*%
X162867142Y-60004819D02*
X162867142Y-59004819D01*
X162867142Y-59004819D02*
X162629047Y-59004819D01*
X162629047Y-59004819D02*
X162486190Y-59052438D01*
X162486190Y-59052438D02*
X162390952Y-59147676D01*
X162390952Y-59147676D02*
X162343333Y-59242914D01*
X162343333Y-59242914D02*
X162295714Y-59433390D01*
X162295714Y-59433390D02*
X162295714Y-59576247D01*
X162295714Y-59576247D02*
X162343333Y-59766723D01*
X162343333Y-59766723D02*
X162390952Y-59861961D01*
X162390952Y-59861961D02*
X162486190Y-59957200D01*
X162486190Y-59957200D02*
X162629047Y-60004819D01*
X162629047Y-60004819D02*
X162867142Y-60004819D01*
X161295714Y-60004819D02*
X161629047Y-59528628D01*
X161867142Y-60004819D02*
X161867142Y-59004819D01*
X161867142Y-59004819D02*
X161486190Y-59004819D01*
X161486190Y-59004819D02*
X161390952Y-59052438D01*
X161390952Y-59052438D02*
X161343333Y-59100057D01*
X161343333Y-59100057D02*
X161295714Y-59195295D01*
X161295714Y-59195295D02*
X161295714Y-59338152D01*
X161295714Y-59338152D02*
X161343333Y-59433390D01*
X161343333Y-59433390D02*
X161390952Y-59481009D01*
X161390952Y-59481009D02*
X161486190Y-59528628D01*
X161486190Y-59528628D02*
X161867142Y-59528628D01*
X160867142Y-60004819D02*
X160867142Y-59004819D01*
X160533809Y-59004819D02*
X160200476Y-60004819D01*
X160200476Y-60004819D02*
X159867143Y-59004819D01*
X159533809Y-59481009D02*
X159200476Y-59481009D01*
X159057619Y-60004819D02*
X159533809Y-60004819D01*
X159533809Y-60004819D02*
X159533809Y-59004819D01*
X159533809Y-59004819D02*
X159057619Y-59004819D01*
X158105238Y-60004819D02*
X158676666Y-60004819D01*
X158390952Y-60004819D02*
X158390952Y-59004819D01*
X158390952Y-59004819D02*
X158486190Y-59147676D01*
X158486190Y-59147676D02*
X158581428Y-59242914D01*
X158581428Y-59242914D02*
X158676666Y-59290533D01*
%TO.C,VOL1*%
X123271905Y-96949348D02*
X123605238Y-95949348D01*
X123605238Y-95949348D02*
X123938571Y-96949348D01*
X124462381Y-96949348D02*
X124652857Y-96949348D01*
X124652857Y-96949348D02*
X124748095Y-96901729D01*
X124748095Y-96901729D02*
X124843333Y-96806491D01*
X124843333Y-96806491D02*
X124890952Y-96616015D01*
X124890952Y-96616015D02*
X124890952Y-96282682D01*
X124890952Y-96282682D02*
X124843333Y-96092206D01*
X124843333Y-96092206D02*
X124748095Y-95996968D01*
X124748095Y-95996968D02*
X124652857Y-95949348D01*
X124652857Y-95949348D02*
X124462381Y-95949348D01*
X124462381Y-95949348D02*
X124367143Y-95996968D01*
X124367143Y-95996968D02*
X124271905Y-96092206D01*
X124271905Y-96092206D02*
X124224286Y-96282682D01*
X124224286Y-96282682D02*
X124224286Y-96616015D01*
X124224286Y-96616015D02*
X124271905Y-96806491D01*
X124271905Y-96806491D02*
X124367143Y-96901729D01*
X124367143Y-96901729D02*
X124462381Y-96949348D01*
X125795714Y-95949348D02*
X125319524Y-95949348D01*
X125319524Y-95949348D02*
X125319524Y-96949348D01*
X126652857Y-95949348D02*
X126081429Y-95949348D01*
X126367143Y-95949348D02*
X126367143Y-96949348D01*
X126367143Y-96949348D02*
X126271905Y-96806491D01*
X126271905Y-96806491D02*
X126176667Y-96711253D01*
X126176667Y-96711253D02*
X126081429Y-96663634D01*
%TD*%
D11*
%TO.C,R1*%
X155500000Y-135000000D03*
X155500000Y-142620000D03*
%TD*%
%TO.C,R2*%
X127760000Y-142600000D03*
X127760000Y-134980000D03*
%TD*%
%TO.C,R3*%
X131010000Y-135000000D03*
X131010000Y-142620000D03*
%TD*%
M02*
