%TF.GenerationSoftware,KiCad,Pcbnew,7.0.5.1-1-g8f565ef7f0-dirty-deb11*%
%TF.CreationDate,2023-08-08T15:30:21+00:00*%
%TF.ProjectId,GreenBean,47726565-6e42-4656-916e-2e6b69636164,rev?*%
%TF.SameCoordinates,Original*%
%TF.FileFunction,Other,User*%
%FSLAX46Y46*%
G04 Gerber Fmt 4.6, Leading zero omitted, Abs format (unit mm)*
G04 Created by KiCad (PCBNEW 7.0.5.1-1-g8f565ef7f0-dirty-deb11) date 2023-08-08 15:30:21*
%MOMM*%
%LPD*%
G01*
G04 APERTURE LIST*
%ADD10C,0.050000*%
G04 APERTURE END LIST*
D10*
%TO.C,J3*%
X142340000Y-112500000D02*
X142340000Y-132730000D01*
X142340000Y-112500000D02*
X114810000Y-112500000D01*
X114810000Y-132730000D02*
X142340000Y-132730000D01*
X114810000Y-112500000D02*
X114810000Y-132730000D01*
%TO.C,J1*%
X132710000Y-53200000D02*
X132710000Y-59350000D01*
X132710000Y-59350000D02*
X136310000Y-59350000D01*
X136310000Y-53200000D02*
X132710000Y-53200000D01*
X136310000Y-59350000D02*
X136310000Y-53200000D01*
%TO.C,JOVGI1*%
X148500000Y-109550000D02*
X137300000Y-109550000D01*
X137300000Y-109550000D02*
X137300000Y-113150000D01*
X148500000Y-113150000D02*
X148500000Y-109550000D01*
X137300000Y-113150000D02*
X148500000Y-113150000D01*
%TO.C,JOVGI2*%
X148500000Y-104000000D02*
X137300000Y-104000000D01*
X137300000Y-104000000D02*
X137300000Y-107600000D01*
X148500000Y-107600000D02*
X148500000Y-104000000D01*
X137300000Y-107600000D02*
X148500000Y-107600000D01*
%TO.C,C2*%
X166350000Y-137100000D02*
X157650000Y-137100000D01*
X157650000Y-137100000D02*
X157650000Y-145800000D01*
X166350000Y-145800000D02*
X166350000Y-137100000D01*
X157650000Y-145800000D02*
X166350000Y-145800000D01*
%TO.C,D1*%
X120950000Y-139040000D02*
X124050000Y-139040000D01*
X124050000Y-139039999D02*
G75*
G03*
X120946840Y-139038248I-1550000J2799999D01*
G01*
%TO.C,R1*%
X157000000Y-133750000D02*
X157000000Y-143850000D01*
X154000000Y-133750000D02*
X157000000Y-133750000D01*
X154000000Y-133750000D02*
X154000000Y-143850000D01*
X157000000Y-143850000D02*
X154000000Y-143850000D01*
%TO.C,R2*%
X126260000Y-143850000D02*
X126260000Y-133750000D01*
X129260000Y-143850000D02*
X126260000Y-143850000D01*
X129260000Y-143850000D02*
X129260000Y-133750000D01*
X126260000Y-133750000D02*
X129260000Y-133750000D01*
%TO.C,R3*%
X132510000Y-133750000D02*
X132510000Y-143850000D01*
X129510000Y-133750000D02*
X132510000Y-133750000D01*
X129510000Y-133750000D02*
X129510000Y-143850000D01*
X132510000Y-143850000D02*
X129510000Y-143850000D01*
%TO.C,C1*%
X159800000Y-133000000D02*
X167300000Y-133000000D01*
X159800000Y-137000000D02*
X159800000Y-133000000D01*
X167300000Y-133000000D02*
X167300000Y-137000000D01*
X167300000Y-137000000D02*
X159800000Y-137000000D01*
%TO.C,J4*%
X145940000Y-115010000D02*
X139790000Y-115010000D01*
X139790000Y-115010000D02*
X139790000Y-118610000D01*
X145940000Y-118610000D02*
X145940000Y-115010000D01*
X139790000Y-118610000D02*
X145940000Y-118610000D01*
%TO.C,J2*%
X143245000Y-132730000D02*
X143245000Y-112500000D01*
X143245000Y-132730000D02*
X170775000Y-132730000D01*
X170775000Y-112500000D02*
X143245000Y-112500000D01*
X170775000Y-132730000D02*
X170775000Y-112500000D01*
%TO.C,R14*%
X141460000Y-98050000D02*
X145160000Y-98050000D01*
X141460000Y-99950000D02*
X141460000Y-98050000D01*
X145160000Y-98050000D02*
X145160000Y-99950000D01*
X145160000Y-99950000D02*
X141460000Y-99950000D01*
%TO.C,SW2*%
X139960000Y-84200000D02*
X139960000Y-71700000D01*
X145460000Y-84200000D02*
X139960000Y-84200000D01*
X139960000Y-71700000D02*
X145460000Y-71700000D01*
X145460000Y-71700000D02*
X145460000Y-84200000D01*
%TO.C,D6*%
X148260000Y-94125000D02*
X152760000Y-94125000D01*
X152760000Y-94125000D02*
X152760000Y-89275000D01*
X148260000Y-89275000D02*
X148260000Y-94125000D01*
X152760000Y-89275000D02*
X148260000Y-89275000D01*
%TO.C,R19*%
X133160000Y-107850000D02*
X129460000Y-107850000D01*
X133160000Y-105950000D02*
X133160000Y-107850000D01*
X129460000Y-107850000D02*
X129460000Y-105950000D01*
X129460000Y-105950000D02*
X133160000Y-105950000D01*
%TO.C,D3*%
X157360000Y-89275000D02*
X152860000Y-89275000D01*
X152860000Y-89275000D02*
X152860000Y-94125000D01*
X157360000Y-94125000D02*
X157360000Y-89275000D01*
X152860000Y-94125000D02*
X157360000Y-94125000D01*
%TO.C,R12*%
X138760000Y-99150000D02*
X138760000Y-102850000D01*
X136860000Y-99150000D02*
X138760000Y-99150000D01*
X138760000Y-102850000D02*
X136860000Y-102850000D01*
X136860000Y-102850000D02*
X136860000Y-99150000D01*
%TO.C,C8*%
X134730000Y-96320000D02*
X138490000Y-96320000D01*
X134730000Y-98280000D02*
X134730000Y-96320000D01*
X138490000Y-96320000D02*
X138490000Y-98280000D01*
X138490000Y-98280000D02*
X134730000Y-98280000D01*
%TO.C,R22*%
X133360000Y-105950000D02*
X137060000Y-105950000D01*
X133360000Y-107850000D02*
X133360000Y-105950000D01*
X137060000Y-105950000D02*
X137060000Y-107850000D01*
X137060000Y-107850000D02*
X133360000Y-107850000D01*
%TO.C,U1*%
X146510000Y-90200000D02*
X141110000Y-90200000D01*
X141110000Y-90200000D02*
X141110000Y-97600000D01*
X146510000Y-97600000D02*
X146510000Y-90200000D01*
X141110000Y-97600000D02*
X146510000Y-97600000D01*
%TO.C,R20*%
X123960000Y-103650000D02*
X123960000Y-107350000D01*
X122060000Y-103650000D02*
X123960000Y-103650000D01*
X123960000Y-107350000D02*
X122060000Y-107350000D01*
X122060000Y-107350000D02*
X122060000Y-103650000D01*
%TO.C,D5*%
X143710000Y-87650000D02*
X143710000Y-89950000D01*
X143710000Y-87650000D02*
X148110000Y-87650000D01*
X148110000Y-87650000D02*
X148110000Y-89950000D01*
X148110000Y-89950000D02*
X143710000Y-89950000D01*
%TO.C,C4*%
X156390000Y-100880000D02*
X152630000Y-100880000D01*
X156390000Y-98920000D02*
X156390000Y-100880000D01*
X152630000Y-100880000D02*
X152630000Y-98920000D01*
X152630000Y-98920000D02*
X156390000Y-98920000D01*
%TO.C,D4*%
X148110000Y-87550000D02*
X148110000Y-85250000D01*
X148110000Y-87550000D02*
X143710000Y-87550000D01*
X143710000Y-87550000D02*
X143710000Y-85250000D01*
X143710000Y-85250000D02*
X148110000Y-85250000D01*
%TO.C,C13*%
X131560000Y-92302651D02*
G75*
G03*
X131560000Y-92302651I-4250000J0D01*
G01*
%TO.C,C6*%
X157190000Y-88480000D02*
X153430000Y-88480000D01*
X157190000Y-86520000D02*
X157190000Y-88480000D01*
X153430000Y-88480000D02*
X153430000Y-86520000D01*
X153430000Y-86520000D02*
X157190000Y-86520000D01*
%TO.C,R7*%
X158460000Y-102850000D02*
X154760000Y-102850000D01*
X158460000Y-100950000D02*
X158460000Y-102850000D01*
X154760000Y-102850000D02*
X154760000Y-100950000D01*
X154760000Y-100950000D02*
X158460000Y-100950000D01*
%TO.C,C3*%
X148630000Y-101820000D02*
X152390000Y-101820000D01*
X148630000Y-103780000D02*
X148630000Y-101820000D01*
X152390000Y-101820000D02*
X152390000Y-103780000D01*
X152390000Y-103780000D02*
X148630000Y-103780000D01*
%TO.C,R11*%
X139560000Y-92550000D02*
X139560000Y-96250000D01*
X137660000Y-92550000D02*
X139560000Y-92550000D01*
X139560000Y-96250000D02*
X137660000Y-96250000D01*
X137660000Y-96250000D02*
X137660000Y-92550000D01*
%TO.C,R13*%
X132460000Y-64550000D02*
X136160000Y-64550000D01*
X132460000Y-66450000D02*
X132460000Y-64550000D01*
X136160000Y-64550000D02*
X136160000Y-66450000D01*
X136160000Y-66450000D02*
X132460000Y-66450000D01*
%TO.C,C12*%
X160490000Y-98580000D02*
X156730000Y-98580000D01*
X160490000Y-96620000D02*
X160490000Y-98580000D01*
X156730000Y-98580000D02*
X156730000Y-96620000D01*
X156730000Y-96620000D02*
X160490000Y-96620000D01*
%TO.C,R5*%
X150660000Y-107650000D02*
X150660000Y-103950000D01*
X152560000Y-107650000D02*
X150660000Y-107650000D01*
X150660000Y-103950000D02*
X152560000Y-103950000D01*
X152560000Y-103950000D02*
X152560000Y-107650000D01*
%TO.C,C9*%
X136190000Y-68680000D02*
X132430000Y-68680000D01*
X136190000Y-66720000D02*
X136190000Y-68680000D01*
X132430000Y-68680000D02*
X132430000Y-66720000D01*
X132430000Y-66720000D02*
X136190000Y-66720000D01*
%TO.C,R9*%
X152360000Y-101650000D02*
X148660000Y-101650000D01*
X152360000Y-99750000D02*
X152360000Y-101650000D01*
X148660000Y-101650000D02*
X148660000Y-99750000D01*
X148660000Y-99750000D02*
X152360000Y-99750000D01*
%TO.C,Q1*%
X158220000Y-108100000D02*
X152760000Y-108100000D01*
X158210000Y-108100000D02*
X158220000Y-103040000D01*
X152760000Y-103040000D02*
X158220000Y-103040000D01*
X152760000Y-103040000D02*
X152760000Y-108100000D01*
%TO.C,R6*%
X150660000Y-107750000D02*
X154360000Y-107750000D01*
X150660000Y-109650000D02*
X150660000Y-107750000D01*
X154360000Y-107750000D02*
X154360000Y-109650000D01*
X154360000Y-109650000D02*
X150660000Y-109650000D01*
%TO.C,R16*%
X118260000Y-103550000D02*
X121960000Y-103550000D01*
X118260000Y-105450000D02*
X118260000Y-103550000D01*
X121960000Y-103550000D02*
X121960000Y-105450000D01*
X121960000Y-105450000D02*
X118260000Y-105450000D01*
%TO.C,C10*%
X166960000Y-105150000D02*
G75*
G03*
X166960000Y-105150000I-4250000J0D01*
G01*
%TO.C,R18*%
X129460000Y-101850000D02*
X133160000Y-101850000D01*
X129460000Y-103750000D02*
X129460000Y-101850000D01*
X133160000Y-101850000D02*
X133160000Y-103750000D01*
X133160000Y-103750000D02*
X129460000Y-103750000D01*
%TO.C,C11*%
X131830000Y-99180000D02*
X131830000Y-95420000D01*
X133790000Y-99180000D02*
X131830000Y-99180000D01*
X131830000Y-95420000D02*
X133790000Y-95420000D01*
X133790000Y-95420000D02*
X133790000Y-99180000D01*
%TO.C,C14*%
X133190000Y-101780000D02*
X129430000Y-101780000D01*
X133190000Y-99820000D02*
X133190000Y-101780000D01*
X129430000Y-101780000D02*
X129430000Y-99820000D01*
X129430000Y-99820000D02*
X133190000Y-99820000D01*
%TO.C,C5*%
X157367500Y-86520000D02*
X161127500Y-86520000D01*
X157367500Y-88480000D02*
X157367500Y-86520000D01*
X161127500Y-86520000D02*
X161127500Y-88480000D01*
X161127500Y-88480000D02*
X157367500Y-88480000D01*
%TO.C,R21*%
X129460000Y-103850000D02*
X133160000Y-103850000D01*
X129460000Y-105750000D02*
X129460000Y-103850000D01*
X133160000Y-103850000D02*
X133160000Y-105750000D01*
X133160000Y-105750000D02*
X129460000Y-105750000D01*
%TO.C,Q4*%
X124230000Y-106030000D02*
X124230000Y-100570000D01*
X124230000Y-106020000D02*
X129290000Y-106030000D01*
X129290000Y-100570000D02*
X129290000Y-106030000D01*
X129290000Y-100570000D02*
X124230000Y-100570000D01*
%TO.C,Q5*%
X161210000Y-92320000D02*
X164610000Y-92320000D01*
X164610000Y-92320000D02*
X164610000Y-88480000D01*
X161210000Y-88480000D02*
X161210000Y-92320000D01*
X164610000Y-88480000D02*
X161210000Y-88480000D01*
%TO.C,R8*%
X151560000Y-86350000D02*
X151560000Y-82650000D01*
X153460000Y-86350000D02*
X151560000Y-86350000D01*
X151560000Y-82650000D02*
X153460000Y-82650000D01*
X153460000Y-82650000D02*
X153460000Y-86350000D01*
%TO.C,R10*%
X151460000Y-85350000D02*
X151460000Y-89050000D01*
X149560000Y-85350000D02*
X151460000Y-85350000D01*
X151460000Y-89050000D02*
X149560000Y-89050000D01*
X149560000Y-89050000D02*
X149560000Y-85350000D01*
%TO.C,C7*%
X157830000Y-93680000D02*
X157830000Y-89920000D01*
X159790000Y-93680000D02*
X157830000Y-93680000D01*
X157830000Y-89920000D02*
X159790000Y-89920000D01*
X159790000Y-89920000D02*
X159790000Y-93680000D01*
%TO.C,C15*%
X133330000Y-103820000D02*
X137090000Y-103820000D01*
X133330000Y-105780000D02*
X133330000Y-103820000D01*
X137090000Y-103820000D02*
X137090000Y-105780000D01*
X137090000Y-105780000D02*
X133330000Y-105780000D01*
%TO.C,Q2*%
X164560000Y-92417500D02*
X161160000Y-92417500D01*
X161160000Y-92417500D02*
X161160000Y-96257500D01*
X164560000Y-96257500D02*
X164560000Y-92417500D01*
X161160000Y-96257500D02*
X164560000Y-96257500D01*
%TO.C,R17*%
X131860000Y-95350000D02*
X131860000Y-91650000D01*
X133760000Y-95350000D02*
X131860000Y-95350000D01*
X131860000Y-91650000D02*
X133760000Y-91650000D01*
X133760000Y-91650000D02*
X133760000Y-95350000D01*
%TO.C,D2*%
X160910000Y-96450000D02*
X160910000Y-94150000D01*
X160910000Y-96450000D02*
X156510000Y-96450000D01*
X156510000Y-96450000D02*
X156510000Y-94150000D01*
X156510000Y-94150000D02*
X160910000Y-94150000D01*
%TO.C,R15*%
X118260000Y-105550000D02*
X121960000Y-105550000D01*
X118260000Y-107450000D02*
X118260000Y-105550000D01*
X121960000Y-105550000D02*
X121960000Y-107450000D01*
X121960000Y-107450000D02*
X118260000Y-107450000D01*
%TO.C,R4*%
X148660000Y-107650000D02*
X148660000Y-103950000D01*
X150560000Y-107650000D02*
X148660000Y-107650000D01*
X148660000Y-103950000D02*
X150560000Y-103950000D01*
X150560000Y-103950000D02*
X150560000Y-107650000D01*
%TO.C,D7*%
X119110000Y-102830000D02*
X122310000Y-102830000D01*
X122310000Y-102830000D02*
X122310000Y-89970000D01*
X119110000Y-89970000D02*
X119110000Y-102830000D01*
X122310000Y-89970000D02*
X119110000Y-89970000D01*
%TD*%
M02*
