  0
SECTION
  2
HEADER
  9
$ANGBASE
  50
0.0
  9
$ANGDIR
  70
1
  9
$MEASUREMENT
  70
1
  0
ENDSEC
  0
SECTION
  2
TABLES
  0
TABLE
  2
LTYPE
  70
4
  0
LTYPE
  5
40F
  2
CONTINUOUS
  70
0
  3
Solid line
  72
65
  73
0
  40
0.0
  0
LTYPE
  5
410
  2
DASHDOT
 70
0
  3
Dash Dot ____ _ ____ _
 72
65
 73
4
 40
2.0
 49
1.25
 49
-0.25
 49
0.25
 49
-0.25
  0
LTYPE
  5
411
  2
DASHED
 70
0
  3
Dashed __ __ __ __ __
 72
65
 73
2
 40
0.75
 49
0.5
 49
-0.25
  0
LTYPE
  5
43B
  2
DOTTED
 70
0
  3
Dotted .  .  .  .
 72
65
 73
2
 40
0.2
 49
0.0
 49
-0.2
  0
ENDTAB
  0
TABLE
  2
STYLE
  70
4
  0
STYLE
  2
KICAD
  70
0
  40
0
  41
1
  42
1
  50
0
  71
0
  3
isocp.shx
  0
STYLE
  2
KICADB
  70
0
  40
0
  41
1
  42
1
  50
0
  71
0
  3
isocp.shx
  0
STYLE
  2
KICADI
  70
0
  40
0
  41
1
  42
1
  50
15
  71
0
  3
isocp.shx
  0
STYLE
  2
KICADBI
  70
0
  40
0
  41
1
  42
1
  50
15
  71
0
  3
isocp.shx
  0
ENDTAB
  0
TABLE
  2
LAYER
  70
1
  0
LAYER
  2
BLACK
  70
0
  62
7
  6
CONTINUOUS
  0
ENDTAB
  0
ENDSEC
  0
SECTION
  2
ENTITIES
0
LINE
8
BLACK
6
CONTINUOUS
10
151.956
20
-108.019
11
152.037
21
-108.073
0
LINE
8
BLACK
6
CONTINUOUS
10
152.037
20
-108.073
11
152.091
21
-108.154
0
LINE
8
BLACK
6
CONTINUOUS
10
152.091
20
-108.154
11
152.11
21
-108.25
0
LINE
8
BLACK
6
CONTINUOUS
10
152.11
20
-108.25
11
152.11
21
-109.15
0
LINE
8
BLACK
6
CONTINUOUS
10
152.11
20
-109.15
11
152.091
21
-109.246
0
LINE
8
BLACK
6
CONTINUOUS
10
152.091
20
-109.246
11
152.037
21
-109.327
0
LINE
8
BLACK
6
CONTINUOUS
10
152.037
20
-109.327
11
151.956
21
-109.381
0
LINE
8
BLACK
6
CONTINUOUS
10
151.956
20
-109.381
11
151.86
21
-109.4
0
LINE
8
BLACK
6
CONTINUOUS
10
151.86
20
-109.4
11
151.16
21
-109.4
0
LINE
8
BLACK
6
CONTINUOUS
10
151.16
20
-109.4
11
151.064
21
-109.381
0
LINE
8
BLACK
6
CONTINUOUS
10
151.064
20
-109.381
11
150.983
21
-109.327
0
LINE
8
BLACK
6
CONTINUOUS
10
150.983
20
-109.327
11
150.929
21
-109.246
0
LINE
8
BLACK
6
CONTINUOUS
10
150.929
20
-109.246
11
150.91
21
-109.15
0
LINE
8
BLACK
6
CONTINUOUS
10
150.91
20
-109.15
11
150.91
21
-108.25
0
LINE
8
BLACK
6
CONTINUOUS
10
150.91
20
-108.25
11
150.929
21
-108.154
0
LINE
8
BLACK
6
CONTINUOUS
10
150.929
20
-108.154
11
150.983
21
-108.073
0
LINE
8
BLACK
6
CONTINUOUS
10
150.983
20
-108.073
11
151.064
21
-108.019
0
LINE
8
BLACK
6
CONTINUOUS
10
151.064
20
-108.019
11
151.16
21
-108
0
LINE
8
BLACK
6
CONTINUOUS
10
151.16
20
-108
11
151.86
21
-108
0
LINE
8
BLACK
6
CONTINUOUS
10
151.86
20
-108
11
151.956
21
-108.019
0
LINE
8
BLACK
6
CONTINUOUS
10
153.956
20
-108.019
11
154.037
21
-108.073
0
LINE
8
BLACK
6
CONTINUOUS
10
154.037
20
-108.073
11
154.091
21
-108.154
0
LINE
8
BLACK
6
CONTINUOUS
10
154.091
20
-108.154
11
154.11
21
-108.25
0
LINE
8
BLACK
6
CONTINUOUS
10
154.11
20
-108.25
11
154.11
21
-109.15
0
LINE
8
BLACK
6
CONTINUOUS
10
154.11
20
-109.15
11
154.091
21
-109.246
0
LINE
8
BLACK
6
CONTINUOUS
10
154.091
20
-109.246
11
154.037
21
-109.327
0
LINE
8
BLACK
6
CONTINUOUS
10
154.037
20
-109.327
11
153.956
21
-109.381
0
LINE
8
BLACK
6
CONTINUOUS
10
153.956
20
-109.381
11
153.86
21
-109.4
0
LINE
8
BLACK
6
CONTINUOUS
10
153.86
20
-109.4
11
153.16
21
-109.4
0
LINE
8
BLACK
6
CONTINUOUS
10
153.16
20
-109.4
11
153.064
21
-109.381
0
LINE
8
BLACK
6
CONTINUOUS
10
153.064
20
-109.381
11
152.983
21
-109.327
0
LINE
8
BLACK
6
CONTINUOUS
10
152.983
20
-109.327
11
152.929
21
-109.246
0
LINE
8
BLACK
6
CONTINUOUS
10
152.929
20
-109.246
11
152.91
21
-109.15
0
LINE
8
BLACK
6
CONTINUOUS
10
152.91
20
-109.15
11
152.91
21
-108.25
0
LINE
8
BLACK
6
CONTINUOUS
10
152.91
20
-108.25
11
152.929
21
-108.154
0
LINE
8
BLACK
6
CONTINUOUS
10
152.929
20
-108.154
11
152.983
21
-108.073
0
LINE
8
BLACK
6
CONTINUOUS
10
152.983
20
-108.073
11
153.064
21
-108.019
0
LINE
8
BLACK
6
CONTINUOUS
10
153.064
20
-108.019
11
153.16
21
-108
0
LINE
8
BLACK
6
CONTINUOUS
10
153.16
20
-108
11
153.86
21
-108
0
LINE
8
BLACK
6
CONTINUOUS
10
153.86
20
-108
11
153.956
21
-108.019
0
LINE
8
BLACK
6
CONTINUOUS
10
130.756
20
-106.219
11
130.837
21
-106.273
0
LINE
8
BLACK
6
CONTINUOUS
10
130.837
20
-106.273
11
130.891
21
-106.354
0
LINE
8
BLACK
6
CONTINUOUS
10
130.891
20
-106.354
11
130.91
21
-106.45
0
LINE
8
BLACK
6
CONTINUOUS
10
130.91
20
-106.45
11
130.91
21
-107.35
0
LINE
8
BLACK
6
CONTINUOUS
10
130.91
20
-107.35
11
130.891
21
-107.446
0
LINE
8
BLACK
6
CONTINUOUS
10
130.891
20
-107.446
11
130.837
21
-107.527
0
LINE
8
BLACK
6
CONTINUOUS
10
130.837
20
-107.527
11
130.756
21
-107.581
0
LINE
8
BLACK
6
CONTINUOUS
10
130.756
20
-107.581
11
130.66
21
-107.6
0
LINE
8
BLACK
6
CONTINUOUS
10
130.66
20
-107.6
11
129.96
21
-107.6
0
LINE
8
BLACK
6
CONTINUOUS
10
129.96
20
-107.6
11
129.864
21
-107.581
0
LINE
8
BLACK
6
CONTINUOUS
10
129.864
20
-107.581
11
129.783
21
-107.527
0
LINE
8
BLACK
6
CONTINUOUS
10
129.783
20
-107.527
11
129.729
21
-107.446
0
LINE
8
BLACK
6
CONTINUOUS
10
129.729
20
-107.446
11
129.71
21
-107.35
0
LINE
8
BLACK
6
CONTINUOUS
10
129.71
20
-107.35
11
129.71
21
-106.45
0
LINE
8
BLACK
6
CONTINUOUS
10
129.71
20
-106.45
11
129.729
21
-106.354
0
LINE
8
BLACK
6
CONTINUOUS
10
129.729
20
-106.354
11
129.783
21
-106.273
0
LINE
8
BLACK
6
CONTINUOUS
10
129.783
20
-106.273
11
129.864
21
-106.219
0
LINE
8
BLACK
6
CONTINUOUS
10
129.864
20
-106.219
11
129.96
21
-106.2
0
LINE
8
BLACK
6
CONTINUOUS
10
129.96
20
-106.2
11
130.66
21
-106.2
0
LINE
8
BLACK
6
CONTINUOUS
10
130.66
20
-106.2
11
130.756
21
-106.219
0
LINE
8
BLACK
6
CONTINUOUS
10
132.756
20
-106.219
11
132.837
21
-106.273
0
LINE
8
BLACK
6
CONTINUOUS
10
132.837
20
-106.273
11
132.891
21
-106.354
0
LINE
8
BLACK
6
CONTINUOUS
10
132.891
20
-106.354
11
132.91
21
-106.45
0
LINE
8
BLACK
6
CONTINUOUS
10
132.91
20
-106.45
11
132.91
21
-107.35
0
LINE
8
BLACK
6
CONTINUOUS
10
132.91
20
-107.35
11
132.891
21
-107.446
0
LINE
8
BLACK
6
CONTINUOUS
10
132.891
20
-107.446
11
132.837
21
-107.527
0
LINE
8
BLACK
6
CONTINUOUS
10
132.837
20
-107.527
11
132.756
21
-107.581
0
LINE
8
BLACK
6
CONTINUOUS
10
132.756
20
-107.581
11
132.66
21
-107.6
0
LINE
8
BLACK
6
CONTINUOUS
10
132.66
20
-107.6
11
131.96
21
-107.6
0
LINE
8
BLACK
6
CONTINUOUS
10
131.96
20
-107.6
11
131.864
21
-107.581
0
LINE
8
BLACK
6
CONTINUOUS
10
131.864
20
-107.581
11
131.783
21
-107.527
0
LINE
8
BLACK
6
CONTINUOUS
10
131.783
20
-107.527
11
131.729
21
-107.446
0
LINE
8
BLACK
6
CONTINUOUS
10
131.729
20
-107.446
11
131.71
21
-107.35
0
LINE
8
BLACK
6
CONTINUOUS
10
131.71
20
-107.35
11
131.71
21
-106.45
0
LINE
8
BLACK
6
CONTINUOUS
10
131.71
20
-106.45
11
131.729
21
-106.354
0
LINE
8
BLACK
6
CONTINUOUS
10
131.729
20
-106.354
11
131.783
21
-106.273
0
LINE
8
BLACK
6
CONTINUOUS
10
131.783
20
-106.273
11
131.864
21
-106.219
0
LINE
8
BLACK
6
CONTINUOUS
10
131.864
20
-106.219
11
131.96
21
-106.2
0
LINE
8
BLACK
6
CONTINUOUS
10
131.96
20
-106.2
11
132.66
21
-106.2
0
LINE
8
BLACK
6
CONTINUOUS
10
132.66
20
-106.2
11
132.756
21
-106.219
0
LINE
8
BLACK
6
CONTINUOUS
10
134.656
20
-106.219
11
134.737
21
-106.273
0
LINE
8
BLACK
6
CONTINUOUS
10
134.737
20
-106.273
11
134.791
21
-106.354
0
LINE
8
BLACK
6
CONTINUOUS
10
134.791
20
-106.354
11
134.81
21
-106.45
0
LINE
8
BLACK
6
CONTINUOUS
10
134.81
20
-106.45
11
134.81
21
-107.35
0
LINE
8
BLACK
6
CONTINUOUS
10
134.81
20
-107.35
11
134.791
21
-107.446
0
LINE
8
BLACK
6
CONTINUOUS
10
134.791
20
-107.446
11
134.737
21
-107.527
0
LINE
8
BLACK
6
CONTINUOUS
10
134.737
20
-107.527
11
134.656
21
-107.581
0
LINE
8
BLACK
6
CONTINUOUS
10
134.656
20
-107.581
11
134.56
21
-107.6
0
LINE
8
BLACK
6
CONTINUOUS
10
134.56
20
-107.6
11
133.86
21
-107.6
0
LINE
8
BLACK
6
CONTINUOUS
10
133.86
20
-107.6
11
133.764
21
-107.581
0
LINE
8
BLACK
6
CONTINUOUS
10
133.764
20
-107.581
11
133.683
21
-107.527
0
LINE
8
BLACK
6
CONTINUOUS
10
133.683
20
-107.527
11
133.629
21
-107.446
0
LINE
8
BLACK
6
CONTINUOUS
10
133.629
20
-107.446
11
133.61
21
-107.35
0
LINE
8
BLACK
6
CONTINUOUS
10
133.61
20
-107.35
11
133.61
21
-106.45
0
LINE
8
BLACK
6
CONTINUOUS
10
133.61
20
-106.45
11
133.629
21
-106.354
0
LINE
8
BLACK
6
CONTINUOUS
10
133.629
20
-106.354
11
133.683
21
-106.273
0
LINE
8
BLACK
6
CONTINUOUS
10
133.683
20
-106.273
11
133.764
21
-106.219
0
LINE
8
BLACK
6
CONTINUOUS
10
133.764
20
-106.219
11
133.86
21
-106.2
0
LINE
8
BLACK
6
CONTINUOUS
10
133.86
20
-106.2
11
134.56
21
-106.2
0
LINE
8
BLACK
6
CONTINUOUS
10
134.56
20
-106.2
11
134.656
21
-106.219
0
LINE
8
BLACK
6
CONTINUOUS
10
136.656
20
-106.219
11
136.737
21
-106.273
0
LINE
8
BLACK
6
CONTINUOUS
10
136.737
20
-106.273
11
136.791
21
-106.354
0
LINE
8
BLACK
6
CONTINUOUS
10
136.791
20
-106.354
11
136.81
21
-106.45
0
LINE
8
BLACK
6
CONTINUOUS
10
136.81
20
-106.45
11
136.81
21
-107.35
0
LINE
8
BLACK
6
CONTINUOUS
10
136.81
20
-107.35
11
136.791
21
-107.446
0
LINE
8
BLACK
6
CONTINUOUS
10
136.791
20
-107.446
11
136.737
21
-107.527
0
LINE
8
BLACK
6
CONTINUOUS
10
136.737
20
-107.527
11
136.656
21
-107.581
0
LINE
8
BLACK
6
CONTINUOUS
10
136.656
20
-107.581
11
136.56
21
-107.6
0
LINE
8
BLACK
6
CONTINUOUS
10
136.56
20
-107.6
11
135.86
21
-107.6
0
LINE
8
BLACK
6
CONTINUOUS
10
135.86
20
-107.6
11
135.764
21
-107.581
0
LINE
8
BLACK
6
CONTINUOUS
10
135.764
20
-107.581
11
135.683
21
-107.527
0
LINE
8
BLACK
6
CONTINUOUS
10
135.683
20
-107.527
11
135.629
21
-107.446
0
LINE
8
BLACK
6
CONTINUOUS
10
135.629
20
-107.446
11
135.61
21
-107.35
0
LINE
8
BLACK
6
CONTINUOUS
10
135.61
20
-107.35
11
135.61
21
-106.45
0
LINE
8
BLACK
6
CONTINUOUS
10
135.61
20
-106.45
11
135.629
21
-106.354
0
LINE
8
BLACK
6
CONTINUOUS
10
135.629
20
-106.354
11
135.683
21
-106.273
0
LINE
8
BLACK
6
CONTINUOUS
10
135.683
20
-106.273
11
135.764
21
-106.219
0
LINE
8
BLACK
6
CONTINUOUS
10
135.764
20
-106.219
11
135.86
21
-106.2
0
LINE
8
BLACK
6
CONTINUOUS
10
135.86
20
-106.2
11
136.56
21
-106.2
0
LINE
8
BLACK
6
CONTINUOUS
10
136.56
20
-106.2
11
136.656
21
-106.219
0
LINE
8
BLACK
6
CONTINUOUS
10
150.156
20
-106.219
11
150.237
21
-106.273
0
LINE
8
BLACK
6
CONTINUOUS
10
150.237
20
-106.273
11
150.291
21
-106.354
0
LINE
8
BLACK
6
CONTINUOUS
10
150.291
20
-106.354
11
150.31
21
-106.45
0
LINE
8
BLACK
6
CONTINUOUS
10
150.31
20
-106.45
11
150.31
21
-107.15
0
LINE
8
BLACK
6
CONTINUOUS
10
150.31
20
-107.15
11
150.291
21
-107.246
0
LINE
8
BLACK
6
CONTINUOUS
10
150.291
20
-107.246
11
150.237
21
-107.327
0
LINE
8
BLACK
6
CONTINUOUS
10
150.237
20
-107.327
11
150.156
21
-107.381
0
LINE
8
BLACK
6
CONTINUOUS
10
150.156
20
-107.381
11
150.06
21
-107.4
0
LINE
8
BLACK
6
CONTINUOUS
10
150.06
20
-107.4
11
149.16
21
-107.4
0
LINE
8
BLACK
6
CONTINUOUS
10
149.16
20
-107.4
11
149.064
21
-107.381
0
LINE
8
BLACK
6
CONTINUOUS
10
149.064
20
-107.381
11
148.983
21
-107.327
0
LINE
8
BLACK
6
CONTINUOUS
10
148.983
20
-107.327
11
148.929
21
-107.246
0
LINE
8
BLACK
6
CONTINUOUS
10
148.929
20
-107.246
11
148.91
21
-107.15
0
LINE
8
BLACK
6
CONTINUOUS
10
148.91
20
-107.15
11
148.91
21
-106.45
0
LINE
8
BLACK
6
CONTINUOUS
10
148.91
20
-106.45
11
148.929
21
-106.354
0
LINE
8
BLACK
6
CONTINUOUS
10
148.929
20
-106.354
11
148.983
21
-106.273
0
LINE
8
BLACK
6
CONTINUOUS
10
148.983
20
-106.273
11
149.064
21
-106.219
0
LINE
8
BLACK
6
CONTINUOUS
10
149.064
20
-106.219
11
149.16
21
-106.2
0
LINE
8
BLACK
6
CONTINUOUS
10
149.16
20
-106.2
11
150.06
21
-106.2
0
LINE
8
BLACK
6
CONTINUOUS
10
150.06
20
-106.2
11
150.156
21
-106.219
0
LINE
8
BLACK
6
CONTINUOUS
10
152.156
20
-106.219
11
152.237
21
-106.273
0
LINE
8
BLACK
6
CONTINUOUS
10
152.237
20
-106.273
11
152.291
21
-106.354
0
LINE
8
BLACK
6
CONTINUOUS
10
152.291
20
-106.354
11
152.31
21
-106.45
0
LINE
8
BLACK
6
CONTINUOUS
10
152.31
20
-106.45
11
152.31
21
-107.15
0
LINE
8
BLACK
6
CONTINUOUS
10
152.31
20
-107.15
11
152.291
21
-107.246
0
LINE
8
BLACK
6
CONTINUOUS
10
152.291
20
-107.246
11
152.237
21
-107.327
0
LINE
8
BLACK
6
CONTINUOUS
10
152.237
20
-107.327
11
152.156
21
-107.381
0
LINE
8
BLACK
6
CONTINUOUS
10
152.156
20
-107.381
11
152.06
21
-107.4
0
LINE
8
BLACK
6
CONTINUOUS
10
152.06
20
-107.4
11
151.16
21
-107.4
0
LINE
8
BLACK
6
CONTINUOUS
10
151.16
20
-107.4
11
151.064
21
-107.381
0
LINE
8
BLACK
6
CONTINUOUS
10
151.064
20
-107.381
11
150.983
21
-107.327
0
LINE
8
BLACK
6
CONTINUOUS
10
150.983
20
-107.327
11
150.929
21
-107.246
0
LINE
8
BLACK
6
CONTINUOUS
10
150.929
20
-107.246
11
150.91
21
-107.15
0
LINE
8
BLACK
6
CONTINUOUS
10
150.91
20
-107.15
11
150.91
21
-106.45
0
LINE
8
BLACK
6
CONTINUOUS
10
150.91
20
-106.45
11
150.929
21
-106.354
0
LINE
8
BLACK
6
CONTINUOUS
10
150.929
20
-106.354
11
150.983
21
-106.273
0
LINE
8
BLACK
6
CONTINUOUS
10
150.983
20
-106.273
11
151.064
21
-106.219
0
LINE
8
BLACK
6
CONTINUOUS
10
151.064
20
-106.219
11
151.16
21
-106.2
0
LINE
8
BLACK
6
CONTINUOUS
10
151.16
20
-106.2
11
152.06
21
-106.2
0
LINE
8
BLACK
6
CONTINUOUS
10
152.06
20
-106.2
11
152.156
21
-106.219
0
LINE
8
BLACK
6
CONTINUOUS
10
119.556
20
-105.819
11
119.637
21
-105.873
0
LINE
8
BLACK
6
CONTINUOUS
10
119.637
20
-105.873
11
119.691
21
-105.954
0
LINE
8
BLACK
6
CONTINUOUS
10
119.691
20
-105.954
11
119.71
21
-106.05
0
LINE
8
BLACK
6
CONTINUOUS
10
119.71
20
-106.05
11
119.71
21
-106.95
0
LINE
8
BLACK
6
CONTINUOUS
10
119.71
20
-106.95
11
119.691
21
-107.046
0
LINE
8
BLACK
6
CONTINUOUS
10
119.691
20
-107.046
11
119.637
21
-107.127
0
LINE
8
BLACK
6
CONTINUOUS
10
119.637
20
-107.127
11
119.556
21
-107.181
0
LINE
8
BLACK
6
CONTINUOUS
10
119.556
20
-107.181
11
119.46
21
-107.2
0
LINE
8
BLACK
6
CONTINUOUS
10
119.46
20
-107.2
11
118.76
21
-107.2
0
LINE
8
BLACK
6
CONTINUOUS
10
118.76
20
-107.2
11
118.664
21
-107.181
0
LINE
8
BLACK
6
CONTINUOUS
10
118.664
20
-107.181
11
118.583
21
-107.127
0
LINE
8
BLACK
6
CONTINUOUS
10
118.583
20
-107.127
11
118.529
21
-107.046
0
LINE
8
BLACK
6
CONTINUOUS
10
118.529
20
-107.046
11
118.51
21
-106.95
0
LINE
8
BLACK
6
CONTINUOUS
10
118.51
20
-106.95
11
118.51
21
-106.05
0
LINE
8
BLACK
6
CONTINUOUS
10
118.51
20
-106.05
11
118.529
21
-105.954
0
LINE
8
BLACK
6
CONTINUOUS
10
118.529
20
-105.954
11
118.583
21
-105.873
0
LINE
8
BLACK
6
CONTINUOUS
10
118.583
20
-105.873
11
118.664
21
-105.819
0
LINE
8
BLACK
6
CONTINUOUS
10
118.664
20
-105.819
11
118.76
21
-105.8
0
LINE
8
BLACK
6
CONTINUOUS
10
118.76
20
-105.8
11
119.46
21
-105.8
0
LINE
8
BLACK
6
CONTINUOUS
10
119.46
20
-105.8
11
119.556
21
-105.819
0
LINE
8
BLACK
6
CONTINUOUS
10
121.556
20
-105.819
11
121.637
21
-105.873
0
LINE
8
BLACK
6
CONTINUOUS
10
121.637
20
-105.873
11
121.691
21
-105.954
0
LINE
8
BLACK
6
CONTINUOUS
10
121.691
20
-105.954
11
121.71
21
-106.05
0
LINE
8
BLACK
6
CONTINUOUS
10
121.71
20
-106.05
11
121.71
21
-106.95
0
LINE
8
BLACK
6
CONTINUOUS
10
121.71
20
-106.95
11
121.691
21
-107.046
0
LINE
8
BLACK
6
CONTINUOUS
10
121.691
20
-107.046
11
121.637
21
-107.127
0
LINE
8
BLACK
6
CONTINUOUS
10
121.637
20
-107.127
11
121.556
21
-107.181
0
LINE
8
BLACK
6
CONTINUOUS
10
121.556
20
-107.181
11
121.46
21
-107.2
0
LINE
8
BLACK
6
CONTINUOUS
10
121.46
20
-107.2
11
120.76
21
-107.2
0
LINE
8
BLACK
6
CONTINUOUS
10
120.76
20
-107.2
11
120.664
21
-107.181
0
LINE
8
BLACK
6
CONTINUOUS
10
120.664
20
-107.181
11
120.583
21
-107.127
0
LINE
8
BLACK
6
CONTINUOUS
10
120.583
20
-107.127
11
120.529
21
-107.046
0
LINE
8
BLACK
6
CONTINUOUS
10
120.529
20
-107.046
11
120.51
21
-106.95
0
LINE
8
BLACK
6
CONTINUOUS
10
120.51
20
-106.95
11
120.51
21
-106.05
0
LINE
8
BLACK
6
CONTINUOUS
10
120.51
20
-106.05
11
120.529
21
-105.954
0
LINE
8
BLACK
6
CONTINUOUS
10
120.529
20
-105.954
11
120.583
21
-105.873
0
LINE
8
BLACK
6
CONTINUOUS
10
120.583
20
-105.873
11
120.664
21
-105.819
0
LINE
8
BLACK
6
CONTINUOUS
10
120.664
20
-105.819
11
120.76
21
-105.8
0
LINE
8
BLACK
6
CONTINUOUS
10
120.76
20
-105.8
11
121.46
21
-105.8
0
LINE
8
BLACK
6
CONTINUOUS
10
121.46
20
-105.8
11
121.556
21
-105.819
0
LINE
8
BLACK
6
CONTINUOUS
10
123.556
20
-105.919
11
123.637
21
-105.973
0
LINE
8
BLACK
6
CONTINUOUS
10
123.637
20
-105.973
11
123.691
21
-106.054
0
LINE
8
BLACK
6
CONTINUOUS
10
123.691
20
-106.054
11
123.71
21
-106.15
0
LINE
8
BLACK
6
CONTINUOUS
10
123.71
20
-106.15
11
123.71
21
-106.85
0
LINE
8
BLACK
6
CONTINUOUS
10
123.71
20
-106.85
11
123.691
21
-106.946
0
LINE
8
BLACK
6
CONTINUOUS
10
123.691
20
-106.946
11
123.637
21
-107.027
0
LINE
8
BLACK
6
CONTINUOUS
10
123.637
20
-107.027
11
123.556
21
-107.081
0
LINE
8
BLACK
6
CONTINUOUS
10
123.556
20
-107.081
11
123.46
21
-107.1
0
LINE
8
BLACK
6
CONTINUOUS
10
123.46
20
-107.1
11
122.56
21
-107.1
0
LINE
8
BLACK
6
CONTINUOUS
10
122.56
20
-107.1
11
122.464
21
-107.081
0
LINE
8
BLACK
6
CONTINUOUS
10
122.464
20
-107.081
11
122.383
21
-107.027
0
LINE
8
BLACK
6
CONTINUOUS
10
122.383
20
-107.027
11
122.329
21
-106.946
0
LINE
8
BLACK
6
CONTINUOUS
10
122.329
20
-106.946
11
122.31
21
-106.85
0
LINE
8
BLACK
6
CONTINUOUS
10
122.31
20
-106.85
11
122.31
21
-106.15
0
LINE
8
BLACK
6
CONTINUOUS
10
122.31
20
-106.15
11
122.329
21
-106.054
0
LINE
8
BLACK
6
CONTINUOUS
10
122.329
20
-106.054
11
122.383
21
-105.973
0
LINE
8
BLACK
6
CONTINUOUS
10
122.383
20
-105.973
11
122.464
21
-105.919
0
LINE
8
BLACK
6
CONTINUOUS
10
122.464
20
-105.919
11
122.56
21
-105.9
0
LINE
8
BLACK
6
CONTINUOUS
10
122.56
20
-105.9
11
123.46
21
-105.9
0
LINE
8
BLACK
6
CONTINUOUS
10
123.46
20
-105.9
11
123.556
21
-105.919
0
LINE
8
BLACK
6
CONTINUOUS
10
134.606
20
-104.094
11
134.687
21
-104.148
0
LINE
8
BLACK
6
CONTINUOUS
10
134.687
20
-104.148
11
134.741
21
-104.229
0
LINE
8
BLACK
6
CONTINUOUS
10
134.741
20
-104.229
11
134.76
21
-104.325
0
LINE
8
BLACK
6
CONTINUOUS
10
134.76
20
-104.325
11
134.76
21
-105.275
0
LINE
8
BLACK
6
CONTINUOUS
10
134.76
20
-105.275
11
134.741
21
-105.371
0
LINE
8
BLACK
6
CONTINUOUS
10
134.741
20
-105.371
11
134.687
21
-105.452
0
LINE
8
BLACK
6
CONTINUOUS
10
134.687
20
-105.452
11
134.606
21
-105.506
0
LINE
8
BLACK
6
CONTINUOUS
10
134.606
20
-105.506
11
134.51
21
-105.525
0
LINE
8
BLACK
6
CONTINUOUS
10
134.51
20
-105.525
11
133.835
21
-105.525
0
LINE
8
BLACK
6
CONTINUOUS
10
133.835
20
-105.525
11
133.739
21
-105.506
0
LINE
8
BLACK
6
CONTINUOUS
10
133.739
20
-105.506
11
133.658
21
-105.452
0
LINE
8
BLACK
6
CONTINUOUS
10
133.658
20
-105.452
11
133.604
21
-105.371
0
LINE
8
BLACK
6
CONTINUOUS
10
133.604
20
-105.371
11
133.585
21
-105.275
0
LINE
8
BLACK
6
CONTINUOUS
10
133.585
20
-105.275
11
133.585
21
-104.325
0
LINE
8
BLACK
6
CONTINUOUS
10
133.585
20
-104.325
11
133.604
21
-104.229
0
LINE
8
BLACK
6
CONTINUOUS
10
133.604
20
-104.229
11
133.658
21
-104.148
0
LINE
8
BLACK
6
CONTINUOUS
10
133.658
20
-104.148
11
133.739
21
-104.094
0
LINE
8
BLACK
6
CONTINUOUS
10
133.739
20
-104.094
11
133.835
21
-104.075
0
LINE
8
BLACK
6
CONTINUOUS
10
133.835
20
-104.075
11
134.51
21
-104.075
0
LINE
8
BLACK
6
CONTINUOUS
10
134.51
20
-104.075
11
134.606
21
-104.094
0
LINE
8
BLACK
6
CONTINUOUS
10
136.681
20
-104.094
11
136.762
21
-104.148
0
LINE
8
BLACK
6
CONTINUOUS
10
136.762
20
-104.148
11
136.816
21
-104.229
0
LINE
8
BLACK
6
CONTINUOUS
10
136.816
20
-104.229
11
136.835
21
-104.325
0
LINE
8
BLACK
6
CONTINUOUS
10
136.835
20
-104.325
11
136.835
21
-105.275
0
LINE
8
BLACK
6
CONTINUOUS
10
136.835
20
-105.275
11
136.816
21
-105.371
0
LINE
8
BLACK
6
CONTINUOUS
10
136.816
20
-105.371
11
136.762
21
-105.452
0
LINE
8
BLACK
6
CONTINUOUS
10
136.762
20
-105.452
11
136.681
21
-105.506
0
LINE
8
BLACK
6
CONTINUOUS
10
136.681
20
-105.506
11
136.585
21
-105.525
0
LINE
8
BLACK
6
CONTINUOUS
10
136.585
20
-105.525
11
135.91
21
-105.525
0
LINE
8
BLACK
6
CONTINUOUS
10
135.91
20
-105.525
11
135.814
21
-105.506
0
LINE
8
BLACK
6
CONTINUOUS
10
135.814
20
-105.506
11
135.733
21
-105.452
0
LINE
8
BLACK
6
CONTINUOUS
10
135.733
20
-105.452
11
135.679
21
-105.371
0
LINE
8
BLACK
6
CONTINUOUS
10
135.679
20
-105.371
11
135.66
21
-105.275
0
LINE
8
BLACK
6
CONTINUOUS
10
135.66
20
-105.275
11
135.66
21
-104.325
0
LINE
8
BLACK
6
CONTINUOUS
10
135.66
20
-104.325
11
135.679
21
-104.229
0
LINE
8
BLACK
6
CONTINUOUS
10
135.679
20
-104.229
11
135.733
21
-104.148
0
LINE
8
BLACK
6
CONTINUOUS
10
135.733
20
-104.148
11
135.814
21
-104.094
0
LINE
8
BLACK
6
CONTINUOUS
10
135.814
20
-104.094
11
135.91
21
-104.075
0
LINE
8
BLACK
6
CONTINUOUS
10
135.91
20
-104.075
11
136.585
21
-104.075
0
LINE
8
BLACK
6
CONTINUOUS
10
136.585
20
-104.075
11
136.681
21
-104.094
0
LINE
8
BLACK
6
CONTINUOUS
10
130.756
20
-104.119
11
130.837
21
-104.173
0
LINE
8
BLACK
6
CONTINUOUS
10
130.837
20
-104.173
11
130.891
21
-104.254
0
LINE
8
BLACK
6
CONTINUOUS
10
130.891
20
-104.254
11
130.91
21
-104.35
0
LINE
8
BLACK
6
CONTINUOUS
10
130.91
20
-104.35
11
130.91
21
-105.25
0
LINE
8
BLACK
6
CONTINUOUS
10
130.91
20
-105.25
11
130.891
21
-105.346
0
LINE
8
BLACK
6
CONTINUOUS
10
130.891
20
-105.346
11
130.837
21
-105.427
0
LINE
8
BLACK
6
CONTINUOUS
10
130.837
20
-105.427
11
130.756
21
-105.481
0
LINE
8
BLACK
6
CONTINUOUS
10
130.756
20
-105.481
11
130.66
21
-105.5
0
LINE
8
BLACK
6
CONTINUOUS
10
130.66
20
-105.5
11
129.96
21
-105.5
0
LINE
8
BLACK
6
CONTINUOUS
10
129.96
20
-105.5
11
129.864
21
-105.481
0
LINE
8
BLACK
6
CONTINUOUS
10
129.864
20
-105.481
11
129.783
21
-105.427
0
LINE
8
BLACK
6
CONTINUOUS
10
129.783
20
-105.427
11
129.729
21
-105.346
0
LINE
8
BLACK
6
CONTINUOUS
10
129.729
20
-105.346
11
129.71
21
-105.25
0
LINE
8
BLACK
6
CONTINUOUS
10
129.71
20
-105.25
11
129.71
21
-104.35
0
LINE
8
BLACK
6
CONTINUOUS
10
129.71
20
-104.35
11
129.729
21
-104.254
0
LINE
8
BLACK
6
CONTINUOUS
10
129.729
20
-104.254
11
129.783
21
-104.173
0
LINE
8
BLACK
6
CONTINUOUS
10
129.783
20
-104.173
11
129.864
21
-104.119
0
LINE
8
BLACK
6
CONTINUOUS
10
129.864
20
-104.119
11
129.96
21
-104.1
0
LINE
8
BLACK
6
CONTINUOUS
10
129.96
20
-104.1
11
130.66
21
-104.1
0
LINE
8
BLACK
6
CONTINUOUS
10
130.66
20
-104.1
11
130.756
21
-104.119
0
LINE
8
BLACK
6
CONTINUOUS
10
132.756
20
-104.119
11
132.837
21
-104.173
0
LINE
8
BLACK
6
CONTINUOUS
10
132.837
20
-104.173
11
132.891
21
-104.254
0
LINE
8
BLACK
6
CONTINUOUS
10
132.891
20
-104.254
11
132.91
21
-104.35
0
LINE
8
BLACK
6
CONTINUOUS
10
132.91
20
-104.35
11
132.91
21
-105.25
0
LINE
8
BLACK
6
CONTINUOUS
10
132.91
20
-105.25
11
132.891
21
-105.346
0
LINE
8
BLACK
6
CONTINUOUS
10
132.891
20
-105.346
11
132.837
21
-105.427
0
LINE
8
BLACK
6
CONTINUOUS
10
132.837
20
-105.427
11
132.756
21
-105.481
0
LINE
8
BLACK
6
CONTINUOUS
10
132.756
20
-105.481
11
132.66
21
-105.5
0
LINE
8
BLACK
6
CONTINUOUS
10
132.66
20
-105.5
11
131.96
21
-105.5
0
LINE
8
BLACK
6
CONTINUOUS
10
131.96
20
-105.5
11
131.864
21
-105.481
0
LINE
8
BLACK
6
CONTINUOUS
10
131.864
20
-105.481
11
131.783
21
-105.427
0
LINE
8
BLACK
6
CONTINUOUS
10
131.783
20
-105.427
11
131.729
21
-105.346
0
LINE
8
BLACK
6
CONTINUOUS
10
131.729
20
-105.346
11
131.71
21
-105.25
0
LINE
8
BLACK
6
CONTINUOUS
10
131.71
20
-105.25
11
131.71
21
-104.35
0
LINE
8
BLACK
6
CONTINUOUS
10
131.71
20
-104.35
11
131.729
21
-104.254
0
LINE
8
BLACK
6
CONTINUOUS
10
131.729
20
-104.254
11
131.783
21
-104.173
0
LINE
8
BLACK
6
CONTINUOUS
10
131.783
20
-104.173
11
131.864
21
-104.119
0
LINE
8
BLACK
6
CONTINUOUS
10
131.864
20
-104.119
11
131.96
21
-104.1
0
LINE
8
BLACK
6
CONTINUOUS
10
131.96
20
-104.1
11
132.66
21
-104.1
0
LINE
8
BLACK
6
CONTINUOUS
10
132.66
20
-104.1
11
132.756
21
-104.119
0
LINE
8
BLACK
6
CONTINUOUS
10
150.156
20
-104.219
11
150.237
21
-104.273
0
LINE
8
BLACK
6
CONTINUOUS
10
150.237
20
-104.273
11
150.291
21
-104.354
0
LINE
8
BLACK
6
CONTINUOUS
10
150.291
20
-104.354
11
150.31
21
-104.45
0
LINE
8
BLACK
6
CONTINUOUS
10
150.31
20
-104.45
11
150.31
21
-105.15
0
LINE
8
BLACK
6
CONTINUOUS
10
150.31
20
-105.15
11
150.291
21
-105.246
0
LINE
8
BLACK
6
CONTINUOUS
10
150.291
20
-105.246
11
150.237
21
-105.327
0
LINE
8
BLACK
6
CONTINUOUS
10
150.237
20
-105.327
11
150.156
21
-105.381
0
LINE
8
BLACK
6
CONTINUOUS
10
150.156
20
-105.381
11
150.06
21
-105.4
0
LINE
8
BLACK
6
CONTINUOUS
10
150.06
20
-105.4
11
149.16
21
-105.4
0
LINE
8
BLACK
6
CONTINUOUS
10
149.16
20
-105.4
11
149.064
21
-105.381
0
LINE
8
BLACK
6
CONTINUOUS
10
149.064
20
-105.381
11
148.983
21
-105.327
0
LINE
8
BLACK
6
CONTINUOUS
10
148.983
20
-105.327
11
148.929
21
-105.246
0
LINE
8
BLACK
6
CONTINUOUS
10
148.929
20
-105.246
11
148.91
21
-105.15
0
LINE
8
BLACK
6
CONTINUOUS
10
148.91
20
-105.15
11
148.91
21
-104.45
0
LINE
8
BLACK
6
CONTINUOUS
10
148.91
20
-104.45
11
148.929
21
-104.354
0
LINE
8
BLACK
6
CONTINUOUS
10
148.929
20
-104.354
11
148.983
21
-104.273
0
LINE
8
BLACK
6
CONTINUOUS
10
148.983
20
-104.273
11
149.064
21
-104.219
0
LINE
8
BLACK
6
CONTINUOUS
10
149.064
20
-104.219
11
149.16
21
-104.2
0
LINE
8
BLACK
6
CONTINUOUS
10
149.16
20
-104.2
11
150.06
21
-104.2
0
LINE
8
BLACK
6
CONTINUOUS
10
150.06
20
-104.2
11
150.156
21
-104.219
0
LINE
8
BLACK
6
CONTINUOUS
10
152.156
20
-104.219
11
152.237
21
-104.273
0
LINE
8
BLACK
6
CONTINUOUS
10
152.237
20
-104.273
11
152.291
21
-104.354
0
LINE
8
BLACK
6
CONTINUOUS
10
152.291
20
-104.354
11
152.31
21
-104.45
0
LINE
8
BLACK
6
CONTINUOUS
10
152.31
20
-104.45
11
152.31
21
-105.15
0
LINE
8
BLACK
6
CONTINUOUS
10
152.31
20
-105.15
11
152.291
21
-105.246
0
LINE
8
BLACK
6
CONTINUOUS
10
152.291
20
-105.246
11
152.237
21
-105.327
0
LINE
8
BLACK
6
CONTINUOUS
10
152.237
20
-105.327
11
152.156
21
-105.381
0
LINE
8
BLACK
6
CONTINUOUS
10
152.156
20
-105.381
11
152.06
21
-105.4
0
LINE
8
BLACK
6
CONTINUOUS
10
152.06
20
-105.4
11
151.16
21
-105.4
0
LINE
8
BLACK
6
CONTINUOUS
10
151.16
20
-105.4
11
151.064
21
-105.381
0
LINE
8
BLACK
6
CONTINUOUS
10
151.064
20
-105.381
11
150.983
21
-105.327
0
LINE
8
BLACK
6
CONTINUOUS
10
150.983
20
-105.327
11
150.929
21
-105.246
0
LINE
8
BLACK
6
CONTINUOUS
10
150.929
20
-105.246
11
150.91
21
-105.15
0
LINE
8
BLACK
6
CONTINUOUS
10
150.91
20
-105.15
11
150.91
21
-104.45
0
LINE
8
BLACK
6
CONTINUOUS
10
150.91
20
-104.45
11
150.929
21
-104.354
0
LINE
8
BLACK
6
CONTINUOUS
10
150.929
20
-104.354
11
150.983
21
-104.273
0
LINE
8
BLACK
6
CONTINUOUS
10
150.983
20
-104.273
11
151.064
21
-104.219
0
LINE
8
BLACK
6
CONTINUOUS
10
151.064
20
-104.219
11
151.16
21
-104.2
0
LINE
8
BLACK
6
CONTINUOUS
10
151.16
20
-104.2
11
152.06
21
-104.2
0
LINE
8
BLACK
6
CONTINUOUS
10
152.06
20
-104.2
11
152.156
21
-104.219
0
LINE
8
BLACK
6
CONTINUOUS
10
119.556
20
-103.819
11
119.637
21
-103.873
0
LINE
8
BLACK
6
CONTINUOUS
10
119.637
20
-103.873
11
119.691
21
-103.954
0
LINE
8
BLACK
6
CONTINUOUS
10
119.691
20
-103.954
11
119.71
21
-104.05
0
LINE
8
BLACK
6
CONTINUOUS
10
119.71
20
-104.05
11
119.71
21
-104.95
0
LINE
8
BLACK
6
CONTINUOUS
10
119.71
20
-104.95
11
119.691
21
-105.046
0
LINE
8
BLACK
6
CONTINUOUS
10
119.691
20
-105.046
11
119.637
21
-105.127
0
LINE
8
BLACK
6
CONTINUOUS
10
119.637
20
-105.127
11
119.556
21
-105.181
0
LINE
8
BLACK
6
CONTINUOUS
10
119.556
20
-105.181
11
119.46
21
-105.2
0
LINE
8
BLACK
6
CONTINUOUS
10
119.46
20
-105.2
11
118.76
21
-105.2
0
LINE
8
BLACK
6
CONTINUOUS
10
118.76
20
-105.2
11
118.664
21
-105.181
0
LINE
8
BLACK
6
CONTINUOUS
10
118.664
20
-105.181
11
118.583
21
-105.127
0
LINE
8
BLACK
6
CONTINUOUS
10
118.583
20
-105.127
11
118.529
21
-105.046
0
LINE
8
BLACK
6
CONTINUOUS
10
118.529
20
-105.046
11
118.51
21
-104.95
0
LINE
8
BLACK
6
CONTINUOUS
10
118.51
20
-104.95
11
118.51
21
-104.05
0
LINE
8
BLACK
6
CONTINUOUS
10
118.51
20
-104.05
11
118.529
21
-103.954
0
LINE
8
BLACK
6
CONTINUOUS
10
118.529
20
-103.954
11
118.583
21
-103.873
0
LINE
8
BLACK
6
CONTINUOUS
10
118.583
20
-103.873
11
118.664
21
-103.819
0
LINE
8
BLACK
6
CONTINUOUS
10
118.664
20
-103.819
11
118.76
21
-103.8
0
LINE
8
BLACK
6
CONTINUOUS
10
118.76
20
-103.8
11
119.46
21
-103.8
0
LINE
8
BLACK
6
CONTINUOUS
10
119.46
20
-103.8
11
119.556
21
-103.819
0
LINE
8
BLACK
6
CONTINUOUS
10
121.556
20
-103.819
11
121.637
21
-103.873
0
LINE
8
BLACK
6
CONTINUOUS
10
121.637
20
-103.873
11
121.691
21
-103.954
0
LINE
8
BLACK
6
CONTINUOUS
10
121.691
20
-103.954
11
121.71
21
-104.05
0
LINE
8
BLACK
6
CONTINUOUS
10
121.71
20
-104.05
11
121.71
21
-104.95
0
LINE
8
BLACK
6
CONTINUOUS
10
121.71
20
-104.95
11
121.691
21
-105.046
0
LINE
8
BLACK
6
CONTINUOUS
10
121.691
20
-105.046
11
121.637
21
-105.127
0
LINE
8
BLACK
6
CONTINUOUS
10
121.637
20
-105.127
11
121.556
21
-105.181
0
LINE
8
BLACK
6
CONTINUOUS
10
121.556
20
-105.181
11
121.46
21
-105.2
0
LINE
8
BLACK
6
CONTINUOUS
10
121.46
20
-105.2
11
120.76
21
-105.2
0
LINE
8
BLACK
6
CONTINUOUS
10
120.76
20
-105.2
11
120.664
21
-105.181
0
LINE
8
BLACK
6
CONTINUOUS
10
120.664
20
-105.181
11
120.583
21
-105.127
0
LINE
8
BLACK
6
CONTINUOUS
10
120.583
20
-105.127
11
120.529
21
-105.046
0
LINE
8
BLACK
6
CONTINUOUS
10
120.529
20
-105.046
11
120.51
21
-104.95
0
LINE
8
BLACK
6
CONTINUOUS
10
120.51
20
-104.95
11
120.51
21
-104.05
0
LINE
8
BLACK
6
CONTINUOUS
10
120.51
20
-104.05
11
120.529
21
-103.954
0
LINE
8
BLACK
6
CONTINUOUS
10
120.529
20
-103.954
11
120.583
21
-103.873
0
LINE
8
BLACK
6
CONTINUOUS
10
120.583
20
-103.873
11
120.664
21
-103.819
0
LINE
8
BLACK
6
CONTINUOUS
10
120.664
20
-103.819
11
120.76
21
-103.8
0
LINE
8
BLACK
6
CONTINUOUS
10
120.76
20
-103.8
11
121.46
21
-103.8
0
LINE
8
BLACK
6
CONTINUOUS
10
121.46
20
-103.8
11
121.556
21
-103.819
0
LINE
8
BLACK
6
CONTINUOUS
10
123.556
20
-103.919
11
123.637
21
-103.973
0
LINE
8
BLACK
6
CONTINUOUS
10
123.637
20
-103.973
11
123.691
21
-104.054
0
LINE
8
BLACK
6
CONTINUOUS
10
123.691
20
-104.054
11
123.71
21
-104.15
0
LINE
8
BLACK
6
CONTINUOUS
10
123.71
20
-104.15
11
123.71
21
-104.85
0
LINE
8
BLACK
6
CONTINUOUS
10
123.71
20
-104.85
11
123.691
21
-104.946
0
LINE
8
BLACK
6
CONTINUOUS
10
123.691
20
-104.946
11
123.637
21
-105.027
0
LINE
8
BLACK
6
CONTINUOUS
10
123.637
20
-105.027
11
123.556
21
-105.081
0
LINE
8
BLACK
6
CONTINUOUS
10
123.556
20
-105.081
11
123.46
21
-105.1
0
LINE
8
BLACK
6
CONTINUOUS
10
123.46
20
-105.1
11
122.56
21
-105.1
0
LINE
8
BLACK
6
CONTINUOUS
10
122.56
20
-105.1
11
122.464
21
-105.081
0
LINE
8
BLACK
6
CONTINUOUS
10
122.464
20
-105.081
11
122.383
21
-105.027
0
LINE
8
BLACK
6
CONTINUOUS
10
122.383
20
-105.027
11
122.329
21
-104.946
0
LINE
8
BLACK
6
CONTINUOUS
10
122.329
20
-104.946
11
122.31
21
-104.85
0
LINE
8
BLACK
6
CONTINUOUS
10
122.31
20
-104.85
11
122.31
21
-104.15
0
LINE
8
BLACK
6
CONTINUOUS
10
122.31
20
-104.15
11
122.329
21
-104.054
0
LINE
8
BLACK
6
CONTINUOUS
10
122.329
20
-104.054
11
122.383
21
-103.973
0
LINE
8
BLACK
6
CONTINUOUS
10
122.383
20
-103.973
11
122.464
21
-103.919
0
LINE
8
BLACK
6
CONTINUOUS
10
122.464
20
-103.919
11
122.56
21
-103.9
0
LINE
8
BLACK
6
CONTINUOUS
10
122.56
20
-103.9
11
123.46
21
-103.9
0
LINE
8
BLACK
6
CONTINUOUS
10
123.46
20
-103.9
11
123.556
21
-103.919
0
LINE
8
BLACK
6
CONTINUOUS
10
149.906
20
-102.094
11
149.987
21
-102.148
0
LINE
8
BLACK
6
CONTINUOUS
10
149.987
20
-102.148
11
150.041
21
-102.229
0
LINE
8
BLACK
6
CONTINUOUS
10
150.041
20
-102.229
11
150.06
21
-102.325
0
LINE
8
BLACK
6
CONTINUOUS
10
150.06
20
-102.325
11
150.06
21
-103.275
0
LINE
8
BLACK
6
CONTINUOUS
10
150.06
20
-103.275
11
150.041
21
-103.371
0
LINE
8
BLACK
6
CONTINUOUS
10
150.041
20
-103.371
11
149.987
21
-103.452
0
LINE
8
BLACK
6
CONTINUOUS
10
149.987
20
-103.452
11
149.906
21
-103.506
0
LINE
8
BLACK
6
CONTINUOUS
10
149.906
20
-103.506
11
149.81
21
-103.525
0
LINE
8
BLACK
6
CONTINUOUS
10
149.81
20
-103.525
11
149.135
21
-103.525
0
LINE
8
BLACK
6
CONTINUOUS
10
149.135
20
-103.525
11
149.039
21
-103.506
0
LINE
8
BLACK
6
CONTINUOUS
10
149.039
20
-103.506
11
148.958
21
-103.452
0
LINE
8
BLACK
6
CONTINUOUS
10
148.958
20
-103.452
11
148.904
21
-103.371
0
LINE
8
BLACK
6
CONTINUOUS
10
148.904
20
-103.371
11
148.885
21
-103.275
0
LINE
8
BLACK
6
CONTINUOUS
10
148.885
20
-103.275
11
148.885
21
-102.325
0
LINE
8
BLACK
6
CONTINUOUS
10
148.885
20
-102.325
11
148.904
21
-102.229
0
LINE
8
BLACK
6
CONTINUOUS
10
148.904
20
-102.229
11
148.958
21
-102.148
0
LINE
8
BLACK
6
CONTINUOUS
10
148.958
20
-102.148
11
149.039
21
-102.094
0
LINE
8
BLACK
6
CONTINUOUS
10
149.039
20
-102.094
11
149.135
21
-102.075
0
LINE
8
BLACK
6
CONTINUOUS
10
149.135
20
-102.075
11
149.81
21
-102.075
0
LINE
8
BLACK
6
CONTINUOUS
10
149.81
20
-102.075
11
149.906
21
-102.094
0
LINE
8
BLACK
6
CONTINUOUS
10
151.981
20
-102.094
11
152.062
21
-102.148
0
LINE
8
BLACK
6
CONTINUOUS
10
152.062
20
-102.148
11
152.116
21
-102.229
0
LINE
8
BLACK
6
CONTINUOUS
10
152.116
20
-102.229
11
152.135
21
-102.325
0
LINE
8
BLACK
6
CONTINUOUS
10
152.135
20
-102.325
11
152.135
21
-103.275
0
LINE
8
BLACK
6
CONTINUOUS
10
152.135
20
-103.275
11
152.116
21
-103.371
0
LINE
8
BLACK
6
CONTINUOUS
10
152.116
20
-103.371
11
152.062
21
-103.452
0
LINE
8
BLACK
6
CONTINUOUS
10
152.062
20
-103.452
11
151.981
21
-103.506
0
LINE
8
BLACK
6
CONTINUOUS
10
151.981
20
-103.506
11
151.885
21
-103.525
0
LINE
8
BLACK
6
CONTINUOUS
10
151.885
20
-103.525
11
151.21
21
-103.525
0
LINE
8
BLACK
6
CONTINUOUS
10
151.21
20
-103.525
11
151.114
21
-103.506
0
LINE
8
BLACK
6
CONTINUOUS
10
151.114
20
-103.506
11
151.033
21
-103.452
0
LINE
8
BLACK
6
CONTINUOUS
10
151.033
20
-103.452
11
150.979
21
-103.371
0
LINE
8
BLACK
6
CONTINUOUS
10
150.979
20
-103.371
11
150.96
21
-103.275
0
LINE
8
BLACK
6
CONTINUOUS
10
150.96
20
-103.275
11
150.96
21
-102.325
0
LINE
8
BLACK
6
CONTINUOUS
10
150.96
20
-102.325
11
150.979
21
-102.229
0
LINE
8
BLACK
6
CONTINUOUS
10
150.979
20
-102.229
11
151.033
21
-102.148
0
LINE
8
BLACK
6
CONTINUOUS
10
151.033
20
-102.148
11
151.114
21
-102.094
0
LINE
8
BLACK
6
CONTINUOUS
10
151.114
20
-102.094
11
151.21
21
-102.075
0
LINE
8
BLACK
6
CONTINUOUS
10
151.21
20
-102.075
11
151.885
21
-102.075
0
LINE
8
BLACK
6
CONTINUOUS
10
151.885
20
-102.075
11
151.981
21
-102.094
0
LINE
8
BLACK
6
CONTINUOUS
10
130.756
20
-102.119
11
130.837
21
-102.173
0
LINE
8
BLACK
6
CONTINUOUS
10
130.837
20
-102.173
11
130.891
21
-102.254
0
LINE
8
BLACK
6
CONTINUOUS
10
130.891
20
-102.254
11
130.91
21
-102.35
0
LINE
8
BLACK
6
CONTINUOUS
10
130.91
20
-102.35
11
130.91
21
-103.25
0
LINE
8
BLACK
6
CONTINUOUS
10
130.91
20
-103.25
11
130.891
21
-103.346
0
LINE
8
BLACK
6
CONTINUOUS
10
130.891
20
-103.346
11
130.837
21
-103.427
0
LINE
8
BLACK
6
CONTINUOUS
10
130.837
20
-103.427
11
130.756
21
-103.481
0
LINE
8
BLACK
6
CONTINUOUS
10
130.756
20
-103.481
11
130.66
21
-103.5
0
LINE
8
BLACK
6
CONTINUOUS
10
130.66
20
-103.5
11
129.96
21
-103.5
0
LINE
8
BLACK
6
CONTINUOUS
10
129.96
20
-103.5
11
129.864
21
-103.481
0
LINE
8
BLACK
6
CONTINUOUS
10
129.864
20
-103.481
11
129.783
21
-103.427
0
LINE
8
BLACK
6
CONTINUOUS
10
129.783
20
-103.427
11
129.729
21
-103.346
0
LINE
8
BLACK
6
CONTINUOUS
10
129.729
20
-103.346
11
129.71
21
-103.25
0
LINE
8
BLACK
6
CONTINUOUS
10
129.71
20
-103.25
11
129.71
21
-102.35
0
LINE
8
BLACK
6
CONTINUOUS
10
129.71
20
-102.35
11
129.729
21
-102.254
0
LINE
8
BLACK
6
CONTINUOUS
10
129.729
20
-102.254
11
129.783
21
-102.173
0
LINE
8
BLACK
6
CONTINUOUS
10
129.783
20
-102.173
11
129.864
21
-102.119
0
LINE
8
BLACK
6
CONTINUOUS
10
129.864
20
-102.119
11
129.96
21
-102.1
0
LINE
8
BLACK
6
CONTINUOUS
10
129.96
20
-102.1
11
130.66
21
-102.1
0
LINE
8
BLACK
6
CONTINUOUS
10
130.66
20
-102.1
11
130.756
21
-102.119
0
LINE
8
BLACK
6
CONTINUOUS
10
132.756
20
-102.119
11
132.837
21
-102.173
0
LINE
8
BLACK
6
CONTINUOUS
10
132.837
20
-102.173
11
132.891
21
-102.254
0
LINE
8
BLACK
6
CONTINUOUS
10
132.891
20
-102.254
11
132.91
21
-102.35
0
LINE
8
BLACK
6
CONTINUOUS
10
132.91
20
-102.35
11
132.91
21
-103.25
0
LINE
8
BLACK
6
CONTINUOUS
10
132.91
20
-103.25
11
132.891
21
-103.346
0
LINE
8
BLACK
6
CONTINUOUS
10
132.891
20
-103.346
11
132.837
21
-103.427
0
LINE
8
BLACK
6
CONTINUOUS
10
132.837
20
-103.427
11
132.756
21
-103.481
0
LINE
8
BLACK
6
CONTINUOUS
10
132.756
20
-103.481
11
132.66
21
-103.5
0
LINE
8
BLACK
6
CONTINUOUS
10
132.66
20
-103.5
11
131.96
21
-103.5
0
LINE
8
BLACK
6
CONTINUOUS
10
131.96
20
-103.5
11
131.864
21
-103.481
0
LINE
8
BLACK
6
CONTINUOUS
10
131.864
20
-103.481
11
131.783
21
-103.427
0
LINE
8
BLACK
6
CONTINUOUS
10
131.783
20
-103.427
11
131.729
21
-103.346
0
LINE
8
BLACK
6
CONTINUOUS
10
131.729
20
-103.346
11
131.71
21
-103.25
0
LINE
8
BLACK
6
CONTINUOUS
10
131.71
20
-103.25
11
131.71
21
-102.35
0
LINE
8
BLACK
6
CONTINUOUS
10
131.71
20
-102.35
11
131.729
21
-102.254
0
LINE
8
BLACK
6
CONTINUOUS
10
131.729
20
-102.254
11
131.783
21
-102.173
0
LINE
8
BLACK
6
CONTINUOUS
10
131.783
20
-102.173
11
131.864
21
-102.119
0
LINE
8
BLACK
6
CONTINUOUS
10
131.864
20
-102.119
11
131.96
21
-102.1
0
LINE
8
BLACK
6
CONTINUOUS
10
131.96
20
-102.1
11
132.66
21
-102.1
0
LINE
8
BLACK
6
CONTINUOUS
10
132.66
20
-102.1
11
132.756
21
-102.119
0
LINE
8
BLACK
6
CONTINUOUS
10
138.356
20
-101.419
11
138.437
21
-101.473
0
LINE
8
BLACK
6
CONTINUOUS
10
138.437
20
-101.473
11
138.491
21
-101.554
0
LINE
8
BLACK
6
CONTINUOUS
10
138.491
20
-101.554
11
138.51
21
-101.65
0
LINE
8
BLACK
6
CONTINUOUS
10
138.51
20
-101.65
11
138.51
21
-102.35
0
LINE
8
BLACK
6
CONTINUOUS
10
138.51
20
-102.35
11
138.491
21
-102.446
0
LINE
8
BLACK
6
CONTINUOUS
10
138.491
20
-102.446
11
138.437
21
-102.527
0
LINE
8
BLACK
6
CONTINUOUS
10
138.437
20
-102.527
11
138.356
21
-102.581
0
LINE
8
BLACK
6
CONTINUOUS
10
138.356
20
-102.581
11
138.26
21
-102.6
0
LINE
8
BLACK
6
CONTINUOUS
10
138.26
20
-102.6
11
137.36
21
-102.6
0
LINE
8
BLACK
6
CONTINUOUS
10
137.36
20
-102.6
11
137.264
21
-102.581
0
LINE
8
BLACK
6
CONTINUOUS
10
137.264
20
-102.581
11
137.183
21
-102.527
0
LINE
8
BLACK
6
CONTINUOUS
10
137.183
20
-102.527
11
137.129
21
-102.446
0
LINE
8
BLACK
6
CONTINUOUS
10
137.129
20
-102.446
11
137.11
21
-102.35
0
LINE
8
BLACK
6
CONTINUOUS
10
137.11
20
-102.35
11
137.11
21
-101.65
0
LINE
8
BLACK
6
CONTINUOUS
10
137.11
20
-101.65
11
137.129
21
-101.554
0
LINE
8
BLACK
6
CONTINUOUS
10
137.129
20
-101.554
11
137.183
21
-101.473
0
LINE
8
BLACK
6
CONTINUOUS
10
137.183
20
-101.473
11
137.264
21
-101.419
0
LINE
8
BLACK
6
CONTINUOUS
10
137.264
20
-101.419
11
137.36
21
-101.4
0
LINE
8
BLACK
6
CONTINUOUS
10
137.36
20
-101.4
11
138.26
21
-101.4
0
LINE
8
BLACK
6
CONTINUOUS
10
138.26
20
-101.4
11
138.356
21
-101.419
0
LINE
8
BLACK
6
CONTINUOUS
10
156.056
20
-101.219
11
156.137
21
-101.273
0
LINE
8
BLACK
6
CONTINUOUS
10
156.137
20
-101.273
11
156.191
21
-101.354
0
LINE
8
BLACK
6
CONTINUOUS
10
156.191
20
-101.354
11
156.21
21
-101.45
0
LINE
8
BLACK
6
CONTINUOUS
10
156.21
20
-101.45
11
156.21
21
-102.35
0
LINE
8
BLACK
6
CONTINUOUS
10
156.21
20
-102.35
11
156.191
21
-102.446
0
LINE
8
BLACK
6
CONTINUOUS
10
156.191
20
-102.446
11
156.137
21
-102.527
0
LINE
8
BLACK
6
CONTINUOUS
10
156.137
20
-102.527
11
156.056
21
-102.581
0
LINE
8
BLACK
6
CONTINUOUS
10
156.056
20
-102.581
11
155.96
21
-102.6
0
LINE
8
BLACK
6
CONTINUOUS
10
155.96
20
-102.6
11
155.26
21
-102.6
0
LINE
8
BLACK
6
CONTINUOUS
10
155.26
20
-102.6
11
155.164
21
-102.581
0
LINE
8
BLACK
6
CONTINUOUS
10
155.164
20
-102.581
11
155.083
21
-102.527
0
LINE
8
BLACK
6
CONTINUOUS
10
155.083
20
-102.527
11
155.029
21
-102.446
0
LINE
8
BLACK
6
CONTINUOUS
10
155.029
20
-102.446
11
155.01
21
-102.35
0
LINE
8
BLACK
6
CONTINUOUS
10
155.01
20
-102.35
11
155.01
21
-101.45
0
LINE
8
BLACK
6
CONTINUOUS
10
155.01
20
-101.45
11
155.029
21
-101.354
0
LINE
8
BLACK
6
CONTINUOUS
10
155.029
20
-101.354
11
155.083
21
-101.273
0
LINE
8
BLACK
6
CONTINUOUS
10
155.083
20
-101.273
11
155.164
21
-101.219
0
LINE
8
BLACK
6
CONTINUOUS
10
155.164
20
-101.219
11
155.26
21
-101.2
0
LINE
8
BLACK
6
CONTINUOUS
10
155.26
20
-101.2
11
155.96
21
-101.2
0
LINE
8
BLACK
6
CONTINUOUS
10
155.96
20
-101.2
11
156.056
21
-101.219
0
LINE
8
BLACK
6
CONTINUOUS
10
158.056
20
-101.219
11
158.137
21
-101.273
0
LINE
8
BLACK
6
CONTINUOUS
10
158.137
20
-101.273
11
158.191
21
-101.354
0
LINE
8
BLACK
6
CONTINUOUS
10
158.191
20
-101.354
11
158.21
21
-101.45
0
LINE
8
BLACK
6
CONTINUOUS
10
158.21
20
-101.45
11
158.21
21
-102.35
0
LINE
8
BLACK
6
CONTINUOUS
10
158.21
20
-102.35
11
158.191
21
-102.446
0
LINE
8
BLACK
6
CONTINUOUS
10
158.191
20
-102.446
11
158.137
21
-102.527
0
LINE
8
BLACK
6
CONTINUOUS
10
158.137
20
-102.527
11
158.056
21
-102.581
0
LINE
8
BLACK
6
CONTINUOUS
10
158.056
20
-102.581
11
157.96
21
-102.6
0
LINE
8
BLACK
6
CONTINUOUS
10
157.96
20
-102.6
11
157.26
21
-102.6
0
LINE
8
BLACK
6
CONTINUOUS
10
157.26
20
-102.6
11
157.164
21
-102.581
0
LINE
8
BLACK
6
CONTINUOUS
10
157.164
20
-102.581
11
157.083
21
-102.527
0
LINE
8
BLACK
6
CONTINUOUS
10
157.083
20
-102.527
11
157.029
21
-102.446
0
LINE
8
BLACK
6
CONTINUOUS
10
157.029
20
-102.446
11
157.01
21
-102.35
0
LINE
8
BLACK
6
CONTINUOUS
10
157.01
20
-102.35
11
157.01
21
-101.45
0
LINE
8
BLACK
6
CONTINUOUS
10
157.01
20
-101.45
11
157.029
21
-101.354
0
LINE
8
BLACK
6
CONTINUOUS
10
157.029
20
-101.354
11
157.083
21
-101.273
0
LINE
8
BLACK
6
CONTINUOUS
10
157.083
20
-101.273
11
157.164
21
-101.219
0
LINE
8
BLACK
6
CONTINUOUS
10
157.164
20
-101.219
11
157.26
21
-101.2
0
LINE
8
BLACK
6
CONTINUOUS
10
157.26
20
-101.2
11
157.96
21
-101.2
0
LINE
8
BLACK
6
CONTINUOUS
10
157.96
20
-101.2
11
158.056
21
-101.219
0
LINE
8
BLACK
6
CONTINUOUS
10
130.706
20
-100.094
11
130.787
21
-100.148
0
LINE
8
BLACK
6
CONTINUOUS
10
130.787
20
-100.148
11
130.841
21
-100.229
0
LINE
8
BLACK
6
CONTINUOUS
10
130.841
20
-100.229
11
130.86
21
-100.325
0
LINE
8
BLACK
6
CONTINUOUS
10
130.86
20
-100.325
11
130.86
21
-101.275
0
LINE
8
BLACK
6
CONTINUOUS
10
130.86
20
-101.275
11
130.841
21
-101.371
0
LINE
8
BLACK
6
CONTINUOUS
10
130.841
20
-101.371
11
130.787
21
-101.452
0
LINE
8
BLACK
6
CONTINUOUS
10
130.787
20
-101.452
11
130.706
21
-101.506
0
LINE
8
BLACK
6
CONTINUOUS
10
130.706
20
-101.506
11
130.61
21
-101.525
0
LINE
8
BLACK
6
CONTINUOUS
10
130.61
20
-101.525
11
129.935
21
-101.525
0
LINE
8
BLACK
6
CONTINUOUS
10
129.935
20
-101.525
11
129.839
21
-101.506
0
LINE
8
BLACK
6
CONTINUOUS
10
129.839
20
-101.506
11
129.758
21
-101.452
0
LINE
8
BLACK
6
CONTINUOUS
10
129.758
20
-101.452
11
129.704
21
-101.371
0
LINE
8
BLACK
6
CONTINUOUS
10
129.704
20
-101.371
11
129.685
21
-101.275
0
LINE
8
BLACK
6
CONTINUOUS
10
129.685
20
-101.275
11
129.685
21
-100.325
0
LINE
8
BLACK
6
CONTINUOUS
10
129.685
20
-100.325
11
129.704
21
-100.229
0
LINE
8
BLACK
6
CONTINUOUS
10
129.704
20
-100.229
11
129.758
21
-100.148
0
LINE
8
BLACK
6
CONTINUOUS
10
129.758
20
-100.148
11
129.839
21
-100.094
0
LINE
8
BLACK
6
CONTINUOUS
10
129.839
20
-100.094
11
129.935
21
-100.075
0
LINE
8
BLACK
6
CONTINUOUS
10
129.935
20
-100.075
11
130.61
21
-100.075
0
LINE
8
BLACK
6
CONTINUOUS
10
130.61
20
-100.075
11
130.706
21
-100.094
0
LINE
8
BLACK
6
CONTINUOUS
10
132.781
20
-100.094
11
132.862
21
-100.148
0
LINE
8
BLACK
6
CONTINUOUS
10
132.862
20
-100.148
11
132.916
21
-100.229
0
LINE
8
BLACK
6
CONTINUOUS
10
132.916
20
-100.229
11
132.935
21
-100.325
0
LINE
8
BLACK
6
CONTINUOUS
10
132.935
20
-100.325
11
132.935
21
-101.275
0
LINE
8
BLACK
6
CONTINUOUS
10
132.935
20
-101.275
11
132.916
21
-101.371
0
LINE
8
BLACK
6
CONTINUOUS
10
132.916
20
-101.371
11
132.862
21
-101.452
0
LINE
8
BLACK
6
CONTINUOUS
10
132.862
20
-101.452
11
132.781
21
-101.506
0
LINE
8
BLACK
6
CONTINUOUS
10
132.781
20
-101.506
11
132.685
21
-101.525
0
LINE
8
BLACK
6
CONTINUOUS
10
132.685
20
-101.525
11
132.01
21
-101.525
0
LINE
8
BLACK
6
CONTINUOUS
10
132.01
20
-101.525
11
131.914
21
-101.506
0
LINE
8
BLACK
6
CONTINUOUS
10
131.914
20
-101.506
11
131.833
21
-101.452
0
LINE
8
BLACK
6
CONTINUOUS
10
131.833
20
-101.452
11
131.779
21
-101.371
0
LINE
8
BLACK
6
CONTINUOUS
10
131.779
20
-101.371
11
131.76
21
-101.275
0
LINE
8
BLACK
6
CONTINUOUS
10
131.76
20
-101.275
11
131.76
21
-100.325
0
LINE
8
BLACK
6
CONTINUOUS
10
131.76
20
-100.325
11
131.779
21
-100.229
0
LINE
8
BLACK
6
CONTINUOUS
10
131.779
20
-100.229
11
131.833
21
-100.148
0
LINE
8
BLACK
6
CONTINUOUS
10
131.833
20
-100.148
11
131.914
21
-100.094
0
LINE
8
BLACK
6
CONTINUOUS
10
131.914
20
-100.094
11
132.01
21
-100.075
0
LINE
8
BLACK
6
CONTINUOUS
10
132.01
20
-100.075
11
132.685
21
-100.075
0
LINE
8
BLACK
6
CONTINUOUS
10
132.685
20
-100.075
11
132.781
21
-100.094
0
LINE
8
BLACK
6
CONTINUOUS
10
149.956
20
-100.019
11
150.037
21
-100.073
0
LINE
8
BLACK
6
CONTINUOUS
10
150.037
20
-100.073
11
150.091
21
-100.154
0
LINE
8
BLACK
6
CONTINUOUS
10
150.091
20
-100.154
11
150.11
21
-100.25
0
LINE
8
BLACK
6
CONTINUOUS
10
150.11
20
-100.25
11
150.11
21
-101.15
0
LINE
8
BLACK
6
CONTINUOUS
10
150.11
20
-101.15
11
150.091
21
-101.246
0
LINE
8
BLACK
6
CONTINUOUS
10
150.091
20
-101.246
11
150.037
21
-101.327
0
LINE
8
BLACK
6
CONTINUOUS
10
150.037
20
-101.327
11
149.956
21
-101.381
0
LINE
8
BLACK
6
CONTINUOUS
10
149.956
20
-101.381
11
149.86
21
-101.4
0
LINE
8
BLACK
6
CONTINUOUS
10
149.86
20
-101.4
11
149.16
21
-101.4
0
LINE
8
BLACK
6
CONTINUOUS
10
149.16
20
-101.4
11
149.064
21
-101.381
0
LINE
8
BLACK
6
CONTINUOUS
10
149.064
20
-101.381
11
148.983
21
-101.327
0
LINE
8
BLACK
6
CONTINUOUS
10
148.983
20
-101.327
11
148.929
21
-101.246
0
LINE
8
BLACK
6
CONTINUOUS
10
148.929
20
-101.246
11
148.91
21
-101.15
0
LINE
8
BLACK
6
CONTINUOUS
10
148.91
20
-101.15
11
148.91
21
-100.25
0
LINE
8
BLACK
6
CONTINUOUS
10
148.91
20
-100.25
11
148.929
21
-100.154
0
LINE
8
BLACK
6
CONTINUOUS
10
148.929
20
-100.154
11
148.983
21
-100.073
0
LINE
8
BLACK
6
CONTINUOUS
10
148.983
20
-100.073
11
149.064
21
-100.019
0
LINE
8
BLACK
6
CONTINUOUS
10
149.064
20
-100.019
11
149.16
21
-100
0
LINE
8
BLACK
6
CONTINUOUS
10
149.16
20
-100
11
149.86
21
-100
0
LINE
8
BLACK
6
CONTINUOUS
10
149.86
20
-100
11
149.956
21
-100.019
0
LINE
8
BLACK
6
CONTINUOUS
10
151.956
20
-100.019
11
152.037
21
-100.073
0
LINE
8
BLACK
6
CONTINUOUS
10
152.037
20
-100.073
11
152.091
21
-100.154
0
LINE
8
BLACK
6
CONTINUOUS
10
152.091
20
-100.154
11
152.11
21
-100.25
0
LINE
8
BLACK
6
CONTINUOUS
10
152.11
20
-100.25
11
152.11
21
-101.15
0
LINE
8
BLACK
6
CONTINUOUS
10
152.11
20
-101.15
11
152.091
21
-101.246
0
LINE
8
BLACK
6
CONTINUOUS
10
152.091
20
-101.246
11
152.037
21
-101.327
0
LINE
8
BLACK
6
CONTINUOUS
10
152.037
20
-101.327
11
151.956
21
-101.381
0
LINE
8
BLACK
6
CONTINUOUS
10
151.956
20
-101.381
11
151.86
21
-101.4
0
LINE
8
BLACK
6
CONTINUOUS
10
151.86
20
-101.4
11
151.16
21
-101.4
0
LINE
8
BLACK
6
CONTINUOUS
10
151.16
20
-101.4
11
151.064
21
-101.381
0
LINE
8
BLACK
6
CONTINUOUS
10
151.064
20
-101.381
11
150.983
21
-101.327
0
LINE
8
BLACK
6
CONTINUOUS
10
150.983
20
-101.327
11
150.929
21
-101.246
0
LINE
8
BLACK
6
CONTINUOUS
10
150.929
20
-101.246
11
150.91
21
-101.15
0
LINE
8
BLACK
6
CONTINUOUS
10
150.91
20
-101.15
11
150.91
21
-100.25
0
LINE
8
BLACK
6
CONTINUOUS
10
150.91
20
-100.25
11
150.929
21
-100.154
0
LINE
8
BLACK
6
CONTINUOUS
10
150.929
20
-100.154
11
150.983
21
-100.073
0
LINE
8
BLACK
6
CONTINUOUS
10
150.983
20
-100.073
11
151.064
21
-100.019
0
LINE
8
BLACK
6
CONTINUOUS
10
151.064
20
-100.019
11
151.16
21
-100
0
LINE
8
BLACK
6
CONTINUOUS
10
151.16
20
-100
11
151.86
21
-100
0
LINE
8
BLACK
6
CONTINUOUS
10
151.86
20
-100
11
151.956
21
-100.019
0
LINE
8
BLACK
6
CONTINUOUS
10
153.906
20
-99.194
11
153.987
21
-99.2482
0
LINE
8
BLACK
6
CONTINUOUS
10
153.987
20
-99.2482
11
154.041
21
-99.3293
0
LINE
8
BLACK
6
CONTINUOUS
10
154.041
20
-99.3293
11
154.06
21
-99.425
0
LINE
8
BLACK
6
CONTINUOUS
10
154.06
20
-99.425
11
154.06
21
-100.375
0
LINE
8
BLACK
6
CONTINUOUS
10
154.06
20
-100.375
11
154.041
21
-100.471
0
LINE
8
BLACK
6
CONTINUOUS
10
154.041
20
-100.471
11
153.987
21
-100.552
0
LINE
8
BLACK
6
CONTINUOUS
10
153.987
20
-100.552
11
153.906
21
-100.606
0
LINE
8
BLACK
6
CONTINUOUS
10
153.906
20
-100.606
11
153.81
21
-100.625
0
LINE
8
BLACK
6
CONTINUOUS
10
153.81
20
-100.625
11
153.135
21
-100.625
0
LINE
8
BLACK
6
CONTINUOUS
10
153.135
20
-100.625
11
153.039
21
-100.606
0
LINE
8
BLACK
6
CONTINUOUS
10
153.039
20
-100.606
11
152.958
21
-100.552
0
LINE
8
BLACK
6
CONTINUOUS
10
152.958
20
-100.552
11
152.904
21
-100.471
0
LINE
8
BLACK
6
CONTINUOUS
10
152.904
20
-100.471
11
152.885
21
-100.375
0
LINE
8
BLACK
6
CONTINUOUS
10
152.885
20
-100.375
11
152.885
21
-99.425
0
LINE
8
BLACK
6
CONTINUOUS
10
152.885
20
-99.425
11
152.904
21
-99.3293
0
LINE
8
BLACK
6
CONTINUOUS
10
152.904
20
-99.3293
11
152.958
21
-99.2482
0
LINE
8
BLACK
6
CONTINUOUS
10
152.958
20
-99.2482
11
153.039
21
-99.194
0
LINE
8
BLACK
6
CONTINUOUS
10
153.039
20
-99.194
11
153.135
21
-99.175
0
LINE
8
BLACK
6
CONTINUOUS
10
153.135
20
-99.175
11
153.81
21
-99.175
0
LINE
8
BLACK
6
CONTINUOUS
10
153.81
20
-99.175
11
153.906
21
-99.194
0
LINE
8
BLACK
6
CONTINUOUS
10
155.981
20
-99.194
11
156.062
21
-99.2482
0
LINE
8
BLACK
6
CONTINUOUS
10
156.062
20
-99.2482
11
156.116
21
-99.3293
0
LINE
8
BLACK
6
CONTINUOUS
10
156.116
20
-99.3293
11
156.135
21
-99.425
0
LINE
8
BLACK
6
CONTINUOUS
10
156.135
20
-99.425
11
156.135
21
-100.375
0
LINE
8
BLACK
6
CONTINUOUS
10
156.135
20
-100.375
11
156.116
21
-100.471
0
LINE
8
BLACK
6
CONTINUOUS
10
156.116
20
-100.471
11
156.062
21
-100.552
0
LINE
8
BLACK
6
CONTINUOUS
10
156.062
20
-100.552
11
155.981
21
-100.606
0
LINE
8
BLACK
6
CONTINUOUS
10
155.981
20
-100.606
11
155.885
21
-100.625
0
LINE
8
BLACK
6
CONTINUOUS
10
155.885
20
-100.625
11
155.21
21
-100.625
0
LINE
8
BLACK
6
CONTINUOUS
10
155.21
20
-100.625
11
155.114
21
-100.606
0
LINE
8
BLACK
6
CONTINUOUS
10
155.114
20
-100.606
11
155.033
21
-100.552
0
LINE
8
BLACK
6
CONTINUOUS
10
155.033
20
-100.552
11
154.979
21
-100.471
0
LINE
8
BLACK
6
CONTINUOUS
10
154.979
20
-100.471
11
154.96
21
-100.375
0
LINE
8
BLACK
6
CONTINUOUS
10
154.96
20
-100.375
11
154.96
21
-99.425
0
LINE
8
BLACK
6
CONTINUOUS
10
154.96
20
-99.425
11
154.979
21
-99.3293
0
LINE
8
BLACK
6
CONTINUOUS
10
154.979
20
-99.3293
11
155.033
21
-99.2482
0
LINE
8
BLACK
6
CONTINUOUS
10
155.033
20
-99.2482
11
155.114
21
-99.194
0
LINE
8
BLACK
6
CONTINUOUS
10
155.114
20
-99.194
11
155.21
21
-99.175
0
LINE
8
BLACK
6
CONTINUOUS
10
155.21
20
-99.175
11
155.885
21
-99.175
0
LINE
8
BLACK
6
CONTINUOUS
10
155.885
20
-99.175
11
155.981
21
-99.194
0
LINE
8
BLACK
6
CONTINUOUS
10
138.356
20
-99.419
11
138.437
21
-99.4732
0
LINE
8
BLACK
6
CONTINUOUS
10
138.437
20
-99.4732
11
138.491
21
-99.5543
0
LINE
8
BLACK
6
CONTINUOUS
10
138.491
20
-99.5543
11
138.51
21
-99.65
0
LINE
8
BLACK
6
CONTINUOUS
10
138.51
20
-99.65
11
138.51
21
-100.35
0
LINE
8
BLACK
6
CONTINUOUS
10
138.51
20
-100.35
11
138.491
21
-100.446
0
LINE
8
BLACK
6
CONTINUOUS
10
138.491
20
-100.446
11
138.437
21
-100.527
0
LINE
8
BLACK
6
CONTINUOUS
10
138.437
20
-100.527
11
138.356
21
-100.581
0
LINE
8
BLACK
6
CONTINUOUS
10
138.356
20
-100.581
11
138.26
21
-100.6
0
LINE
8
BLACK
6
CONTINUOUS
10
138.26
20
-100.6
11
137.36
21
-100.6
0
LINE
8
BLACK
6
CONTINUOUS
10
137.36
20
-100.6
11
137.264
21
-100.581
0
LINE
8
BLACK
6
CONTINUOUS
10
137.264
20
-100.581
11
137.183
21
-100.527
0
LINE
8
BLACK
6
CONTINUOUS
10
137.183
20
-100.527
11
137.129
21
-100.446
0
LINE
8
BLACK
6
CONTINUOUS
10
137.129
20
-100.446
11
137.11
21
-100.35
0
LINE
8
BLACK
6
CONTINUOUS
10
137.11
20
-100.35
11
137.11
21
-99.65
0
LINE
8
BLACK
6
CONTINUOUS
10
137.11
20
-99.65
11
137.129
21
-99.5543
0
LINE
8
BLACK
6
CONTINUOUS
10
137.129
20
-99.5543
11
137.183
21
-99.4732
0
LINE
8
BLACK
6
CONTINUOUS
10
137.183
20
-99.4732
11
137.264
21
-99.419
0
LINE
8
BLACK
6
CONTINUOUS
10
137.264
20
-99.419
11
137.36
21
-99.4
0
LINE
8
BLACK
6
CONTINUOUS
10
137.36
20
-99.4
11
138.26
21
-99.4
0
LINE
8
BLACK
6
CONTINUOUS
10
138.26
20
-99.4
11
138.356
21
-99.419
0
LINE
8
BLACK
6
CONTINUOUS
10
142.756
20
-98.319
11
142.837
21
-98.3732
0
LINE
8
BLACK
6
CONTINUOUS
10
142.837
20
-98.3732
11
142.891
21
-98.4543
0
LINE
8
BLACK
6
CONTINUOUS
10
142.891
20
-98.4543
11
142.91
21
-98.55
0
LINE
8
BLACK
6
CONTINUOUS
10
142.91
20
-98.55
11
142.91
21
-99.45
0
LINE
8
BLACK
6
CONTINUOUS
10
142.91
20
-99.45
11
142.891
21
-99.5457
0
LINE
8
BLACK
6
CONTINUOUS
10
142.891
20
-99.5457
11
142.837
21
-99.6268
0
LINE
8
BLACK
6
CONTINUOUS
10
142.837
20
-99.6268
11
142.756
21
-99.681
0
LINE
8
BLACK
6
CONTINUOUS
10
142.756
20
-99.681
11
142.66
21
-99.7
0
LINE
8
BLACK
6
CONTINUOUS
10
142.66
20
-99.7
11
141.96
21
-99.7
0
LINE
8
BLACK
6
CONTINUOUS
10
141.96
20
-99.7
11
141.864
21
-99.681
0
LINE
8
BLACK
6
CONTINUOUS
10
141.864
20
-99.681
11
141.783
21
-99.6268
0
LINE
8
BLACK
6
CONTINUOUS
10
141.783
20
-99.6268
11
141.729
21
-99.5457
0
LINE
8
BLACK
6
CONTINUOUS
10
141.729
20
-99.5457
11
141.71
21
-99.45
0
LINE
8
BLACK
6
CONTINUOUS
10
141.71
20
-99.45
11
141.71
21
-98.55
0
LINE
8
BLACK
6
CONTINUOUS
10
141.71
20
-98.55
11
141.729
21
-98.4543
0
LINE
8
BLACK
6
CONTINUOUS
10
141.729
20
-98.4543
11
141.783
21
-98.3732
0
LINE
8
BLACK
6
CONTINUOUS
10
141.783
20
-98.3732
11
141.864
21
-98.319
0
LINE
8
BLACK
6
CONTINUOUS
10
141.864
20
-98.319
11
141.96
21
-98.3
0
LINE
8
BLACK
6
CONTINUOUS
10
141.96
20
-98.3
11
142.66
21
-98.3
0
LINE
8
BLACK
6
CONTINUOUS
10
142.66
20
-98.3
11
142.756
21
-98.319
0
LINE
8
BLACK
6
CONTINUOUS
10
144.756
20
-98.319
11
144.837
21
-98.3732
0
LINE
8
BLACK
6
CONTINUOUS
10
144.837
20
-98.3732
11
144.891
21
-98.4543
0
LINE
8
BLACK
6
CONTINUOUS
10
144.891
20
-98.4543
11
144.91
21
-98.55
0
LINE
8
BLACK
6
CONTINUOUS
10
144.91
20
-98.55
11
144.91
21
-99.45
0
LINE
8
BLACK
6
CONTINUOUS
10
144.91
20
-99.45
11
144.891
21
-99.5457
0
LINE
8
BLACK
6
CONTINUOUS
10
144.891
20
-99.5457
11
144.837
21
-99.6268
0
LINE
8
BLACK
6
CONTINUOUS
10
144.837
20
-99.6268
11
144.756
21
-99.681
0
LINE
8
BLACK
6
CONTINUOUS
10
144.756
20
-99.681
11
144.66
21
-99.7
0
LINE
8
BLACK
6
CONTINUOUS
10
144.66
20
-99.7
11
143.96
21
-99.7
0
LINE
8
BLACK
6
CONTINUOUS
10
143.96
20
-99.7
11
143.864
21
-99.681
0
LINE
8
BLACK
6
CONTINUOUS
10
143.864
20
-99.681
11
143.783
21
-99.6268
0
LINE
8
BLACK
6
CONTINUOUS
10
143.783
20
-99.6268
11
143.729
21
-99.5457
0
LINE
8
BLACK
6
CONTINUOUS
10
143.729
20
-99.5457
11
143.71
21
-99.45
0
LINE
8
BLACK
6
CONTINUOUS
10
143.71
20
-99.45
11
143.71
21
-98.55
0
LINE
8
BLACK
6
CONTINUOUS
10
143.71
20
-98.55
11
143.729
21
-98.4543
0
LINE
8
BLACK
6
CONTINUOUS
10
143.729
20
-98.4543
11
143.783
21
-98.3732
0
LINE
8
BLACK
6
CONTINUOUS
10
143.783
20
-98.3732
11
143.864
21
-98.319
0
LINE
8
BLACK
6
CONTINUOUS
10
143.864
20
-98.319
11
143.96
21
-98.3
0
LINE
8
BLACK
6
CONTINUOUS
10
143.96
20
-98.3
11
144.66
21
-98.3
0
LINE
8
BLACK
6
CONTINUOUS
10
144.66
20
-98.3
11
144.756
21
-98.319
0
LINE
8
BLACK
6
CONTINUOUS
10
133.381
20
-97.769
11
133.462
21
-97.8232
0
LINE
8
BLACK
6
CONTINUOUS
10
133.462
20
-97.8232
11
133.516
21
-97.9043
0
LINE
8
BLACK
6
CONTINUOUS
10
133.516
20
-97.9043
11
133.535
21
-98
0
LINE
8
BLACK
6
CONTINUOUS
10
133.535
20
-98
11
133.535
21
-98.675
0
LINE
8
BLACK
6
CONTINUOUS
10
133.535
20
-98.675
11
133.516
21
-98.7707
0
LINE
8
BLACK
6
CONTINUOUS
10
133.516
20
-98.7707
11
133.462
21
-98.8518
0
LINE
8
BLACK
6
CONTINUOUS
10
133.462
20
-98.8518
11
133.381
21
-98.906
0
LINE
8
BLACK
6
CONTINUOUS
10
133.381
20
-98.906
11
133.285
21
-98.925
0
LINE
8
BLACK
6
CONTINUOUS
10
133.285
20
-98.925
11
132.335
21
-98.925
0
LINE
8
BLACK
6
CONTINUOUS
10
132.335
20
-98.925
11
132.239
21
-98.906
0
LINE
8
BLACK
6
CONTINUOUS
10
132.239
20
-98.906
11
132.158
21
-98.8518
0
LINE
8
BLACK
6
CONTINUOUS
10
132.158
20
-98.8518
11
132.104
21
-98.7707
0
LINE
8
BLACK
6
CONTINUOUS
10
132.104
20
-98.7707
11
132.085
21
-98.675
0
LINE
8
BLACK
6
CONTINUOUS
10
132.085
20
-98.675
11
132.085
21
-98
0
LINE
8
BLACK
6
CONTINUOUS
10
132.085
20
-98
11
132.104
21
-97.9043
0
LINE
8
BLACK
6
CONTINUOUS
10
132.104
20
-97.9043
11
132.158
21
-97.8232
0
LINE
8
BLACK
6
CONTINUOUS
10
132.158
20
-97.8232
11
132.239
21
-97.769
0
LINE
8
BLACK
6
CONTINUOUS
10
132.239
20
-97.769
11
132.335
21
-97.75
0
LINE
8
BLACK
6
CONTINUOUS
10
132.335
20
-97.75
11
133.285
21
-97.75
0
LINE
8
BLACK
6
CONTINUOUS
10
133.285
20
-97.75
11
133.381
21
-97.769
0
LINE
8
BLACK
6
CONTINUOUS
10
158.006
20
-96.894
11
158.087
21
-96.9482
0
LINE
8
BLACK
6
CONTINUOUS
10
158.087
20
-96.9482
11
158.141
21
-97.0293
0
LINE
8
BLACK
6
CONTINUOUS
10
158.141
20
-97.0293
11
158.16
21
-97.125
0
LINE
8
BLACK
6
CONTINUOUS
10
158.16
20
-97.125
11
158.16
21
-98.075
0
LINE
8
BLACK
6
CONTINUOUS
10
158.16
20
-98.075
11
158.141
21
-98.1707
0
LINE
8
BLACK
6
CONTINUOUS
10
158.141
20
-98.1707
11
158.087
21
-98.2518
0
LINE
8
BLACK
6
CONTINUOUS
10
158.087
20
-98.2518
11
158.006
21
-98.306
0
LINE
8
BLACK
6
CONTINUOUS
10
158.006
20
-98.306
11
157.91
21
-98.325
0
LINE
8
BLACK
6
CONTINUOUS
10
157.91
20
-98.325
11
157.235
21
-98.325
0
LINE
8
BLACK
6
CONTINUOUS
10
157.235
20
-98.325
11
157.139
21
-98.306
0
LINE
8
BLACK
6
CONTINUOUS
10
157.139
20
-98.306
11
157.058
21
-98.2518
0
LINE
8
BLACK
6
CONTINUOUS
10
157.058
20
-98.2518
11
157.004
21
-98.1707
0
LINE
8
BLACK
6
CONTINUOUS
10
157.004
20
-98.1707
11
156.985
21
-98.075
0
LINE
8
BLACK
6
CONTINUOUS
10
156.985
20
-98.075
11
156.985
21
-97.125
0
LINE
8
BLACK
6
CONTINUOUS
10
156.985
20
-97.125
11
157.004
21
-97.0293
0
LINE
8
BLACK
6
CONTINUOUS
10
157.004
20
-97.0293
11
157.058
21
-96.9482
0
LINE
8
BLACK
6
CONTINUOUS
10
157.058
20
-96.9482
11
157.139
21
-96.894
0
LINE
8
BLACK
6
CONTINUOUS
10
157.139
20
-96.894
11
157.235
21
-96.875
0
LINE
8
BLACK
6
CONTINUOUS
10
157.235
20
-96.875
11
157.91
21
-96.875
0
LINE
8
BLACK
6
CONTINUOUS
10
157.91
20
-96.875
11
158.006
21
-96.894
0
LINE
8
BLACK
6
CONTINUOUS
10
160.081
20
-96.894
11
160.162
21
-96.9482
0
LINE
8
BLACK
6
CONTINUOUS
10
160.162
20
-96.9482
11
160.216
21
-97.0293
0
LINE
8
BLACK
6
CONTINUOUS
10
160.216
20
-97.0293
11
160.235
21
-97.125
0
LINE
8
BLACK
6
CONTINUOUS
10
160.235
20
-97.125
11
160.235
21
-98.075
0
LINE
8
BLACK
6
CONTINUOUS
10
160.235
20
-98.075
11
160.216
21
-98.1707
0
LINE
8
BLACK
6
CONTINUOUS
10
160.216
20
-98.1707
11
160.162
21
-98.2518
0
LINE
8
BLACK
6
CONTINUOUS
10
160.162
20
-98.2518
11
160.081
21
-98.306
0
LINE
8
BLACK
6
CONTINUOUS
10
160.081
20
-98.306
11
159.985
21
-98.325
0
LINE
8
BLACK
6
CONTINUOUS
10
159.985
20
-98.325
11
159.31
21
-98.325
0
LINE
8
BLACK
6
CONTINUOUS
10
159.31
20
-98.325
11
159.214
21
-98.306
0
LINE
8
BLACK
6
CONTINUOUS
10
159.214
20
-98.306
11
159.133
21
-98.2518
0
LINE
8
BLACK
6
CONTINUOUS
10
159.133
20
-98.2518
11
159.079
21
-98.1707
0
LINE
8
BLACK
6
CONTINUOUS
10
159.079
20
-98.1707
11
159.06
21
-98.075
0
LINE
8
BLACK
6
CONTINUOUS
10
159.06
20
-98.075
11
159.06
21
-97.125
0
LINE
8
BLACK
6
CONTINUOUS
10
159.06
20
-97.125
11
159.079
21
-97.0293
0
LINE
8
BLACK
6
CONTINUOUS
10
159.079
20
-97.0293
11
159.133
21
-96.9482
0
LINE
8
BLACK
6
CONTINUOUS
10
159.133
20
-96.9482
11
159.214
21
-96.894
0
LINE
8
BLACK
6
CONTINUOUS
10
159.214
20
-96.894
11
159.31
21
-96.875
0
LINE
8
BLACK
6
CONTINUOUS
10
159.31
20
-96.875
11
159.985
21
-96.875
0
LINE
8
BLACK
6
CONTINUOUS
10
159.985
20
-96.875
11
160.081
21
-96.894
0
LINE
8
BLACK
6
CONTINUOUS
10
136.006
20
-96.594
11
136.087
21
-96.6482
0
LINE
8
BLACK
6
CONTINUOUS
10
136.087
20
-96.6482
11
136.141
21
-96.7293
0
LINE
8
BLACK
6
CONTINUOUS
10
136.141
20
-96.7293
11
136.16
21
-96.825
0
LINE
8
BLACK
6
CONTINUOUS
10
136.16
20
-96.825
11
136.16
21
-97.775
0
LINE
8
BLACK
6
CONTINUOUS
10
136.16
20
-97.775
11
136.141
21
-97.8707
0
LINE
8
BLACK
6
CONTINUOUS
10
136.141
20
-97.8707
11
136.087
21
-97.9518
0
LINE
8
BLACK
6
CONTINUOUS
10
136.087
20
-97.9518
11
136.006
21
-98.006
0
LINE
8
BLACK
6
CONTINUOUS
10
136.006
20
-98.006
11
135.91
21
-98.025
0
LINE
8
BLACK
6
CONTINUOUS
10
135.91
20
-98.025
11
135.235
21
-98.025
0
LINE
8
BLACK
6
CONTINUOUS
10
135.235
20
-98.025
11
135.139
21
-98.006
0
LINE
8
BLACK
6
CONTINUOUS
10
135.139
20
-98.006
11
135.058
21
-97.9518
0
LINE
8
BLACK
6
CONTINUOUS
10
135.058
20
-97.9518
11
135.004
21
-97.8707
0
LINE
8
BLACK
6
CONTINUOUS
10
135.004
20
-97.8707
11
134.985
21
-97.775
0
LINE
8
BLACK
6
CONTINUOUS
10
134.985
20
-97.775
11
134.985
21
-96.825
0
LINE
8
BLACK
6
CONTINUOUS
10
134.985
20
-96.825
11
135.004
21
-96.7293
0
LINE
8
BLACK
6
CONTINUOUS
10
135.004
20
-96.7293
11
135.058
21
-96.6482
0
LINE
8
BLACK
6
CONTINUOUS
10
135.058
20
-96.6482
11
135.139
21
-96.594
0
LINE
8
BLACK
6
CONTINUOUS
10
135.139
20
-96.594
11
135.235
21
-96.575
0
LINE
8
BLACK
6
CONTINUOUS
10
135.235
20
-96.575
11
135.91
21
-96.575
0
LINE
8
BLACK
6
CONTINUOUS
10
135.91
20
-96.575
11
136.006
21
-96.594
0
LINE
8
BLACK
6
CONTINUOUS
10
138.081
20
-96.594
11
138.162
21
-96.6482
0
LINE
8
BLACK
6
CONTINUOUS
10
138.162
20
-96.6482
11
138.216
21
-96.7293
0
LINE
8
BLACK
6
CONTINUOUS
10
138.216
20
-96.7293
11
138.235
21
-96.825
0
LINE
8
BLACK
6
CONTINUOUS
10
138.235
20
-96.825
11
138.235
21
-97.775
0
LINE
8
BLACK
6
CONTINUOUS
10
138.235
20
-97.775
11
138.216
21
-97.8707
0
LINE
8
BLACK
6
CONTINUOUS
10
138.216
20
-97.8707
11
138.162
21
-97.9518
0
LINE
8
BLACK
6
CONTINUOUS
10
138.162
20
-97.9518
11
138.081
21
-98.006
0
LINE
8
BLACK
6
CONTINUOUS
10
138.081
20
-98.006
11
137.985
21
-98.025
0
LINE
8
BLACK
6
CONTINUOUS
10
137.985
20
-98.025
11
137.31
21
-98.025
0
LINE
8
BLACK
6
CONTINUOUS
10
137.31
20
-98.025
11
137.214
21
-98.006
0
LINE
8
BLACK
6
CONTINUOUS
10
137.214
20
-98.006
11
137.133
21
-97.9518
0
LINE
8
BLACK
6
CONTINUOUS
10
137.133
20
-97.9518
11
137.079
21
-97.8707
0
LINE
8
BLACK
6
CONTINUOUS
10
137.079
20
-97.8707
11
137.06
21
-97.775
0
LINE
8
BLACK
6
CONTINUOUS
10
137.06
20
-97.775
11
137.06
21
-96.825
0
LINE
8
BLACK
6
CONTINUOUS
10
137.06
20
-96.825
11
137.079
21
-96.7293
0
LINE
8
BLACK
6
CONTINUOUS
10
137.079
20
-96.7293
11
137.133
21
-96.6482
0
LINE
8
BLACK
6
CONTINUOUS
10
137.133
20
-96.6482
11
137.214
21
-96.594
0
LINE
8
BLACK
6
CONTINUOUS
10
137.214
20
-96.594
11
137.31
21
-96.575
0
LINE
8
BLACK
6
CONTINUOUS
10
137.31
20
-96.575
11
137.985
21
-96.575
0
LINE
8
BLACK
6
CONTINUOUS
10
137.985
20
-96.575
11
138.081
21
-96.594
0
LINE
8
BLACK
6
CONTINUOUS
10
142.112
20
-95.6114
11
142.161
21
-95.6439
0
LINE
8
BLACK
6
CONTINUOUS
10
142.161
20
-95.6439
11
142.194
21
-95.6926
0
LINE
8
BLACK
6
CONTINUOUS
10
142.194
20
-95.6926
11
142.205
21
-95.75
0
LINE
8
BLACK
6
CONTINUOUS
10
142.205
20
-95.75
11
142.205
21
-97.2
0
LINE
8
BLACK
6
CONTINUOUS
10
142.205
20
-97.2
11
142.194
21
-97.2574
0
LINE
8
BLACK
6
CONTINUOUS
10
142.194
20
-97.2574
11
142.161
21
-97.3061
0
LINE
8
BLACK
6
CONTINUOUS
10
142.161
20
-97.3061
11
142.112
21
-97.3386
0
LINE
8
BLACK
6
CONTINUOUS
10
142.112
20
-97.3386
11
142.055
21
-97.35
0
LINE
8
BLACK
6
CONTINUOUS
10
142.055
20
-97.35
11
141.755
21
-97.35
0
LINE
8
BLACK
6
CONTINUOUS
10
141.755
20
-97.35
11
141.698
21
-97.3386
0
LINE
8
BLACK
6
CONTINUOUS
10
141.698
20
-97.3386
11
141.649
21
-97.3061
0
LINE
8
BLACK
6
CONTINUOUS
10
141.649
20
-97.3061
11
141.616
21
-97.2574
0
LINE
8
BLACK
6
CONTINUOUS
10
141.616
20
-97.2574
11
141.605
21
-97.2
0
LINE
8
BLACK
6
CONTINUOUS
10
141.605
20
-97.2
11
141.605
21
-95.75
0
LINE
8
BLACK
6
CONTINUOUS
10
141.605
20
-95.75
11
141.616
21
-95.6926
0
LINE
8
BLACK
6
CONTINUOUS
10
141.616
20
-95.6926
11
141.649
21
-95.6439
0
LINE
8
BLACK
6
CONTINUOUS
10
141.649
20
-95.6439
11
141.698
21
-95.6114
0
LINE
8
BLACK
6
CONTINUOUS
10
141.698
20
-95.6114
11
141.755
21
-95.6
0
LINE
8
BLACK
6
CONTINUOUS
10
141.755
20
-95.6
11
142.055
21
-95.6
0
LINE
8
BLACK
6
CONTINUOUS
10
142.055
20
-95.6
11
142.112
21
-95.6114
0
LINE
8
BLACK
6
CONTINUOUS
10
143.382
20
-95.6114
11
143.431
21
-95.6439
0
LINE
8
BLACK
6
CONTINUOUS
10
143.431
20
-95.6439
11
143.464
21
-95.6926
0
LINE
8
BLACK
6
CONTINUOUS
10
143.464
20
-95.6926
11
143.475
21
-95.75
0
LINE
8
BLACK
6
CONTINUOUS
10
143.475
20
-95.75
11
143.475
21
-97.2
0
LINE
8
BLACK
6
CONTINUOUS
10
143.475
20
-97.2
11
143.464
21
-97.2574
0
LINE
8
BLACK
6
CONTINUOUS
10
143.464
20
-97.2574
11
143.431
21
-97.3061
0
LINE
8
BLACK
6
CONTINUOUS
10
143.431
20
-97.3061
11
143.382
21
-97.3386
0
LINE
8
BLACK
6
CONTINUOUS
10
143.382
20
-97.3386
11
143.325
21
-97.35
0
LINE
8
BLACK
6
CONTINUOUS
10
143.325
20
-97.35
11
143.025
21
-97.35
0
LINE
8
BLACK
6
CONTINUOUS
10
143.025
20
-97.35
11
142.968
21
-97.3386
0
LINE
8
BLACK
6
CONTINUOUS
10
142.968
20
-97.3386
11
142.919
21
-97.3061
0
LINE
8
BLACK
6
CONTINUOUS
10
142.919
20
-97.3061
11
142.886
21
-97.2574
0
LINE
8
BLACK
6
CONTINUOUS
10
142.886
20
-97.2574
11
142.875
21
-97.2
0
LINE
8
BLACK
6
CONTINUOUS
10
142.875
20
-97.2
11
142.875
21
-95.75
0
LINE
8
BLACK
6
CONTINUOUS
10
142.875
20
-95.75
11
142.886
21
-95.6926
0
LINE
8
BLACK
6
CONTINUOUS
10
142.886
20
-95.6926
11
142.919
21
-95.6439
0
LINE
8
BLACK
6
CONTINUOUS
10
142.919
20
-95.6439
11
142.968
21
-95.6114
0
LINE
8
BLACK
6
CONTINUOUS
10
142.968
20
-95.6114
11
143.025
21
-95.6
0
LINE
8
BLACK
6
CONTINUOUS
10
143.025
20
-95.6
11
143.325
21
-95.6
0
LINE
8
BLACK
6
CONTINUOUS
10
143.325
20
-95.6
11
143.382
21
-95.6114
0
LINE
8
BLACK
6
CONTINUOUS
10
144.652
20
-95.6114
11
144.701
21
-95.6439
0
LINE
8
BLACK
6
CONTINUOUS
10
144.701
20
-95.6439
11
144.734
21
-95.6926
0
LINE
8
BLACK
6
CONTINUOUS
10
144.734
20
-95.6926
11
144.745
21
-95.75
0
LINE
8
BLACK
6
CONTINUOUS
10
144.745
20
-95.75
11
144.745
21
-97.2
0
LINE
8
BLACK
6
CONTINUOUS
10
144.745
20
-97.2
11
144.734
21
-97.2574
0
LINE
8
BLACK
6
CONTINUOUS
10
144.734
20
-97.2574
11
144.701
21
-97.3061
0
LINE
8
BLACK
6
CONTINUOUS
10
144.701
20
-97.3061
11
144.652
21
-97.3386
0
LINE
8
BLACK
6
CONTINUOUS
10
144.652
20
-97.3386
11
144.595
21
-97.35
0
LINE
8
BLACK
6
CONTINUOUS
10
144.595
20
-97.35
11
144.295
21
-97.35
0
LINE
8
BLACK
6
CONTINUOUS
10
144.295
20
-97.35
11
144.238
21
-97.3386
0
LINE
8
BLACK
6
CONTINUOUS
10
144.238
20
-97.3386
11
144.189
21
-97.3061
0
LINE
8
BLACK
6
CONTINUOUS
10
144.189
20
-97.3061
11
144.156
21
-97.2574
0
LINE
8
BLACK
6
CONTINUOUS
10
144.156
20
-97.2574
11
144.145
21
-97.2
0
LINE
8
BLACK
6
CONTINUOUS
10
144.145
20
-97.2
11
144.145
21
-95.75
0
LINE
8
BLACK
6
CONTINUOUS
10
144.145
20
-95.75
11
144.156
21
-95.6926
0
LINE
8
BLACK
6
CONTINUOUS
10
144.156
20
-95.6926
11
144.189
21
-95.6439
0
LINE
8
BLACK
6
CONTINUOUS
10
144.189
20
-95.6439
11
144.238
21
-95.6114
0
LINE
8
BLACK
6
CONTINUOUS
10
144.238
20
-95.6114
11
144.295
21
-95.6
0
LINE
8
BLACK
6
CONTINUOUS
10
144.295
20
-95.6
11
144.595
21
-95.6
0
LINE
8
BLACK
6
CONTINUOUS
10
144.595
20
-95.6
11
144.652
21
-95.6114
0
LINE
8
BLACK
6
CONTINUOUS
10
145.922
20
-95.6114
11
145.971
21
-95.6439
0
LINE
8
BLACK
6
CONTINUOUS
10
145.971
20
-95.6439
11
146.004
21
-95.6926
0
LINE
8
BLACK
6
CONTINUOUS
10
146.004
20
-95.6926
11
146.015
21
-95.75
0
LINE
8
BLACK
6
CONTINUOUS
10
146.015
20
-95.75
11
146.015
21
-97.2
0
LINE
8
BLACK
6
CONTINUOUS
10
146.015
20
-97.2
11
146.004
21
-97.2574
0
LINE
8
BLACK
6
CONTINUOUS
10
146.004
20
-97.2574
11
145.971
21
-97.3061
0
LINE
8
BLACK
6
CONTINUOUS
10
145.971
20
-97.3061
11
145.922
21
-97.3386
0
LINE
8
BLACK
6
CONTINUOUS
10
145.922
20
-97.3386
11
145.865
21
-97.35
0
LINE
8
BLACK
6
CONTINUOUS
10
145.865
20
-97.35
11
145.565
21
-97.35
0
LINE
8
BLACK
6
CONTINUOUS
10
145.565
20
-97.35
11
145.508
21
-97.3386
0
LINE
8
BLACK
6
CONTINUOUS
10
145.508
20
-97.3386
11
145.459
21
-97.3061
0
LINE
8
BLACK
6
CONTINUOUS
10
145.459
20
-97.3061
11
145.426
21
-97.2574
0
LINE
8
BLACK
6
CONTINUOUS
10
145.426
20
-97.2574
11
145.415
21
-97.2
0
LINE
8
BLACK
6
CONTINUOUS
10
145.415
20
-97.2
11
145.415
21
-95.75
0
LINE
8
BLACK
6
CONTINUOUS
10
145.415
20
-95.75
11
145.426
21
-95.6926
0
LINE
8
BLACK
6
CONTINUOUS
10
145.426
20
-95.6926
11
145.459
21
-95.6439
0
LINE
8
BLACK
6
CONTINUOUS
10
145.459
20
-95.6439
11
145.508
21
-95.6114
0
LINE
8
BLACK
6
CONTINUOUS
10
145.508
20
-95.6114
11
145.565
21
-95.6
0
LINE
8
BLACK
6
CONTINUOUS
10
145.565
20
-95.6
11
145.865
21
-95.6
0
LINE
8
BLACK
6
CONTINUOUS
10
145.865
20
-95.6
11
145.922
21
-95.6114
0
LINE
8
BLACK
6
CONTINUOUS
10
133.381
20
-95.694
11
133.462
21
-95.7482
0
LINE
8
BLACK
6
CONTINUOUS
10
133.462
20
-95.7482
11
133.516
21
-95.8293
0
LINE
8
BLACK
6
CONTINUOUS
10
133.516
20
-95.8293
11
133.535
21
-95.925
0
LINE
8
BLACK
6
CONTINUOUS
10
133.535
20
-95.925
11
133.535
21
-96.6
0
LINE
8
BLACK
6
CONTINUOUS
10
133.535
20
-96.6
11
133.516
21
-96.6957
0
LINE
8
BLACK
6
CONTINUOUS
10
133.516
20
-96.6957
11
133.462
21
-96.7768
0
LINE
8
BLACK
6
CONTINUOUS
10
133.462
20
-96.7768
11
133.381
21
-96.831
0
LINE
8
BLACK
6
CONTINUOUS
10
133.381
20
-96.831
11
133.285
21
-96.85
0
LINE
8
BLACK
6
CONTINUOUS
10
133.285
20
-96.85
11
132.335
21
-96.85
0
LINE
8
BLACK
6
CONTINUOUS
10
132.335
20
-96.85
11
132.239
21
-96.831
0
LINE
8
BLACK
6
CONTINUOUS
10
132.239
20
-96.831
11
132.158
21
-96.7768
0
LINE
8
BLACK
6
CONTINUOUS
10
132.158
20
-96.7768
11
132.104
21
-96.6957
0
LINE
8
BLACK
6
CONTINUOUS
10
132.104
20
-96.6957
11
132.085
21
-96.6
0
LINE
8
BLACK
6
CONTINUOUS
10
132.085
20
-96.6
11
132.085
21
-95.925
0
LINE
8
BLACK
6
CONTINUOUS
10
132.085
20
-95.925
11
132.104
21
-95.8293
0
LINE
8
BLACK
6
CONTINUOUS
10
132.104
20
-95.8293
11
132.158
21
-95.7482
0
LINE
8
BLACK
6
CONTINUOUS
10
132.158
20
-95.7482
11
132.239
21
-95.694
0
LINE
8
BLACK
6
CONTINUOUS
10
132.239
20
-95.694
11
132.335
21
-95.675
0
LINE
8
BLACK
6
CONTINUOUS
10
132.335
20
-95.675
11
133.285
21
-95.675
0
LINE
8
BLACK
6
CONTINUOUS
10
133.285
20
-95.675
11
133.381
21
-95.694
0
LINE
8
BLACK
6
CONTINUOUS
10
163.067
20
-94.5489
11
163.116
21
-94.5814
0
LINE
8
BLACK
6
CONTINUOUS
10
163.116
20
-94.5814
11
163.149
21
-94.6301
0
LINE
8
BLACK
6
CONTINUOUS
10
163.149
20
-94.6301
11
163.16
21
-94.6875
0
LINE
8
BLACK
6
CONTINUOUS
10
163.16
20
-94.6875
11
163.16
21
-95.8625
0
LINE
8
BLACK
6
CONTINUOUS
10
163.16
20
-95.8625
11
163.149
21
-95.9199
0
LINE
8
BLACK
6
CONTINUOUS
10
163.149
20
-95.9199
11
163.116
21
-95.9686
0
LINE
8
BLACK
6
CONTINUOUS
10
163.116
20
-95.9686
11
163.067
21
-96.0011
0
LINE
8
BLACK
6
CONTINUOUS
10
163.067
20
-96.0011
11
163.01
21
-96.0125
0
LINE
8
BLACK
6
CONTINUOUS
10
163.01
20
-96.0125
11
162.71
21
-96.0125
0
LINE
8
BLACK
6
CONTINUOUS
10
162.71
20
-96.0125
11
162.653
21
-96.0011
0
LINE
8
BLACK
6
CONTINUOUS
10
162.653
20
-96.0011
11
162.604
21
-95.9686
0
LINE
8
BLACK
6
CONTINUOUS
10
162.604
20
-95.9686
11
162.571
21
-95.9199
0
LINE
8
BLACK
6
CONTINUOUS
10
162.571
20
-95.9199
11
162.56
21
-95.8625
0
LINE
8
BLACK
6
CONTINUOUS
10
162.56
20
-95.8625
11
162.56
21
-94.6875
0
LINE
8
BLACK
6
CONTINUOUS
10
162.56
20
-94.6875
11
162.571
21
-94.6301
0
LINE
8
BLACK
6
CONTINUOUS
10
162.571
20
-94.6301
11
162.604
21
-94.5814
0
LINE
8
BLACK
6
CONTINUOUS
10
162.604
20
-94.5814
11
162.653
21
-94.5489
0
LINE
8
BLACK
6
CONTINUOUS
10
162.653
20
-94.5489
11
162.71
21
-94.5375
0
LINE
8
BLACK
6
CONTINUOUS
10
162.71
20
-94.5375
11
163.01
21
-94.5375
0
LINE
8
BLACK
6
CONTINUOUS
10
163.01
20
-94.5375
11
163.067
21
-94.5489
0
LINE
8
BLACK
6
CONTINUOUS
10
139.156
20
-94.819
11
139.237
21
-94.8732
0
LINE
8
BLACK
6
CONTINUOUS
10
139.237
20
-94.8732
11
139.291
21
-94.9543
0
LINE
8
BLACK
6
CONTINUOUS
10
139.291
20
-94.9543
11
139.31
21
-95.05
0
LINE
8
BLACK
6
CONTINUOUS
10
139.31
20
-95.05
11
139.31
21
-95.75
0
LINE
8
BLACK
6
CONTINUOUS
10
139.31
20
-95.75
11
139.291
21
-95.8457
0
LINE
8
BLACK
6
CONTINUOUS
10
139.291
20
-95.8457
11
139.237
21
-95.9268
0
LINE
8
BLACK
6
CONTINUOUS
10
139.237
20
-95.9268
11
139.156
21
-95.981
0
LINE
8
BLACK
6
CONTINUOUS
10
139.156
20
-95.981
11
139.06
21
-96
0
LINE
8
BLACK
6
CONTINUOUS
10
139.06
20
-96
11
138.16
21
-96
0
LINE
8
BLACK
6
CONTINUOUS
10
138.16
20
-96
11
138.064
21
-95.981
0
LINE
8
BLACK
6
CONTINUOUS
10
138.064
20
-95.981
11
137.983
21
-95.9268
0
LINE
8
BLACK
6
CONTINUOUS
10
137.983
20
-95.9268
11
137.929
21
-95.8457
0
LINE
8
BLACK
6
CONTINUOUS
10
137.929
20
-95.8457
11
137.91
21
-95.75
0
LINE
8
BLACK
6
CONTINUOUS
10
137.91
20
-95.75
11
137.91
21
-95.05
0
LINE
8
BLACK
6
CONTINUOUS
10
137.91
20
-95.05
11
137.929
21
-94.9543
0
LINE
8
BLACK
6
CONTINUOUS
10
137.929
20
-94.9543
11
137.983
21
-94.8732
0
LINE
8
BLACK
6
CONTINUOUS
10
137.983
20
-94.8732
11
138.064
21
-94.819
0
LINE
8
BLACK
6
CONTINUOUS
10
138.064
20
-94.819
11
138.16
21
-94.8
0
LINE
8
BLACK
6
CONTINUOUS
10
138.16
20
-94.8
11
139.06
21
-94.8
0
LINE
8
BLACK
6
CONTINUOUS
10
139.06
20
-94.8
11
139.156
21
-94.819
0
LINE
8
BLACK
6
CONTINUOUS
10
157.706
20
-94.769
11
157.787
21
-94.8232
0
LINE
8
BLACK
6
CONTINUOUS
10
157.787
20
-94.8232
11
157.841
21
-94.9043
0
LINE
8
BLACK
6
CONTINUOUS
10
157.841
20
-94.9043
11
157.86
21
-95
0
LINE
8
BLACK
6
CONTINUOUS
10
157.86
20
-95
11
157.86
21
-95.6
0
LINE
8
BLACK
6
CONTINUOUS
10
157.86
20
-95.6
11
157.841
21
-95.6957
0
LINE
8
BLACK
6
CONTINUOUS
10
157.841
20
-95.6957
11
157.787
21
-95.7768
0
LINE
8
BLACK
6
CONTINUOUS
10
157.787
20
-95.7768
11
157.706
21
-95.831
0
LINE
8
BLACK
6
CONTINUOUS
10
157.706
20
-95.831
11
157.61
21
-95.85
0
LINE
8
BLACK
6
CONTINUOUS
10
157.61
20
-95.85
11
157.01
21
-95.85
0
LINE
8
BLACK
6
CONTINUOUS
10
157.01
20
-95.85
11
156.914
21
-95.831
0
LINE
8
BLACK
6
CONTINUOUS
10
156.914
20
-95.831
11
156.833
21
-95.7768
0
LINE
8
BLACK
6
CONTINUOUS
10
156.833
20
-95.7768
11
156.779
21
-95.6957
0
LINE
8
BLACK
6
CONTINUOUS
10
156.779
20
-95.6957
11
156.76
21
-95.6
0
LINE
8
BLACK
6
CONTINUOUS
10
156.76
20
-95.6
11
156.76
21
-95
0
LINE
8
BLACK
6
CONTINUOUS
10
156.76
20
-95
11
156.779
21
-94.9043
0
LINE
8
BLACK
6
CONTINUOUS
10
156.779
20
-94.9043
11
156.833
21
-94.8232
0
LINE
8
BLACK
6
CONTINUOUS
10
156.833
20
-94.8232
11
156.914
21
-94.769
0
LINE
8
BLACK
6
CONTINUOUS
10
156.914
20
-94.769
11
157.01
21
-94.75
0
LINE
8
BLACK
6
CONTINUOUS
10
157.01
20
-94.75
11
157.61
21
-94.75
0
LINE
8
BLACK
6
CONTINUOUS
10
157.61
20
-94.75
11
157.706
21
-94.769
0
LINE
8
BLACK
6
CONTINUOUS
10
160.506
20
-94.769
11
160.587
21
-94.8232
0
LINE
8
BLACK
6
CONTINUOUS
10
160.587
20
-94.8232
11
160.641
21
-94.9043
0
LINE
8
BLACK
6
CONTINUOUS
10
160.641
20
-94.9043
11
160.66
21
-95
0
LINE
8
BLACK
6
CONTINUOUS
10
160.66
20
-95
11
160.66
21
-95.6
0
LINE
8
BLACK
6
CONTINUOUS
10
160.66
20
-95.6
11
160.641
21
-95.6957
0
LINE
8
BLACK
6
CONTINUOUS
10
160.641
20
-95.6957
11
160.587
21
-95.7768
0
LINE
8
BLACK
6
CONTINUOUS
10
160.587
20
-95.7768
11
160.506
21
-95.831
0
LINE
8
BLACK
6
CONTINUOUS
10
160.506
20
-95.831
11
160.41
21
-95.85
0
LINE
8
BLACK
6
CONTINUOUS
10
160.41
20
-95.85
11
159.81
21
-95.85
0
LINE
8
BLACK
6
CONTINUOUS
10
159.81
20
-95.85
11
159.714
21
-95.831
0
LINE
8
BLACK
6
CONTINUOUS
10
159.714
20
-95.831
11
159.633
21
-95.7768
0
LINE
8
BLACK
6
CONTINUOUS
10
159.633
20
-95.7768
11
159.579
21
-95.6957
0
LINE
8
BLACK
6
CONTINUOUS
10
159.579
20
-95.6957
11
159.56
21
-95.6
0
LINE
8
BLACK
6
CONTINUOUS
10
159.56
20
-95.6
11
159.56
21
-95
0
LINE
8
BLACK
6
CONTINUOUS
10
159.56
20
-95
11
159.579
21
-94.9043
0
LINE
8
BLACK
6
CONTINUOUS
10
159.579
20
-94.9043
11
159.633
21
-94.8232
0
LINE
8
BLACK
6
CONTINUOUS
10
159.633
20
-94.8232
11
159.714
21
-94.769
0
LINE
8
BLACK
6
CONTINUOUS
10
159.714
20
-94.769
11
159.81
21
-94.75
0
LINE
8
BLACK
6
CONTINUOUS
10
159.81
20
-94.75
11
160.41
21
-94.75
0
LINE
8
BLACK
6
CONTINUOUS
10
160.41
20
-94.75
11
160.506
21
-94.769
0
LINE
8
BLACK
6
CONTINUOUS
10
133.356
20
-93.919
11
133.437
21
-93.9732
0
LINE
8
BLACK
6
CONTINUOUS
10
133.437
20
-93.9732
11
133.491
21
-94.0543
0
LINE
8
BLACK
6
CONTINUOUS
10
133.491
20
-94.0543
11
133.51
21
-94.15
0
LINE
8
BLACK
6
CONTINUOUS
10
133.51
20
-94.15
11
133.51
21
-94.85
0
LINE
8
BLACK
6
CONTINUOUS
10
133.51
20
-94.85
11
133.491
21
-94.9457
0
LINE
8
BLACK
6
CONTINUOUS
10
133.491
20
-94.9457
11
133.437
21
-95.0268
0
LINE
8
BLACK
6
CONTINUOUS
10
133.437
20
-95.0268
11
133.356
21
-95.081
0
LINE
8
BLACK
6
CONTINUOUS
10
133.356
20
-95.081
11
133.26
21
-95.1
0
LINE
8
BLACK
6
CONTINUOUS
10
133.26
20
-95.1
11
132.36
21
-95.1
0
LINE
8
BLACK
6
CONTINUOUS
10
132.36
20
-95.1
11
132.264
21
-95.081
0
LINE
8
BLACK
6
CONTINUOUS
10
132.264
20
-95.081
11
132.183
21
-95.0268
0
LINE
8
BLACK
6
CONTINUOUS
10
132.183
20
-95.0268
11
132.129
21
-94.9457
0
LINE
8
BLACK
6
CONTINUOUS
10
132.129
20
-94.9457
11
132.11
21
-94.85
0
LINE
8
BLACK
6
CONTINUOUS
10
132.11
20
-94.85
11
132.11
21
-94.15
0
LINE
8
BLACK
6
CONTINUOUS
10
132.11
20
-94.15
11
132.129
21
-94.0543
0
LINE
8
BLACK
6
CONTINUOUS
10
132.129
20
-94.0543
11
132.183
21
-93.9732
0
LINE
8
BLACK
6
CONTINUOUS
10
132.183
20
-93.9732
11
132.264
21
-93.919
0
LINE
8
BLACK
6
CONTINUOUS
10
132.264
20
-93.919
11
132.36
21
-93.9
0
LINE
8
BLACK
6
CONTINUOUS
10
132.36
20
-93.9
11
133.26
21
-93.9
0
LINE
8
BLACK
6
CONTINUOUS
10
133.26
20
-93.9
11
133.356
21
-93.919
0
LINE
8
BLACK
6
CONTINUOUS
10
162.117
20
-92.6739
11
162.166
21
-92.7064
0
LINE
8
BLACK
6
CONTINUOUS
10
162.166
20
-92.7064
11
162.199
21
-92.7551
0
LINE
8
BLACK
6
CONTINUOUS
10
162.199
20
-92.7551
11
162.21
21
-92.8125
0
LINE
8
BLACK
6
CONTINUOUS
10
162.21
20
-92.8125
11
162.21
21
-93.9875
0
LINE
8
BLACK
6
CONTINUOUS
10
162.21
20
-93.9875
11
162.199
21
-94.0449
0
LINE
8
BLACK
6
CONTINUOUS
10
162.199
20
-94.0449
11
162.166
21
-94.0936
0
LINE
8
BLACK
6
CONTINUOUS
10
162.166
20
-94.0936
11
162.117
21
-94.1261
0
LINE
8
BLACK
6
CONTINUOUS
10
162.117
20
-94.1261
11
162.06
21
-94.1375
0
LINE
8
BLACK
6
CONTINUOUS
10
162.06
20
-94.1375
11
161.76
21
-94.1375
0
LINE
8
BLACK
6
CONTINUOUS
10
161.76
20
-94.1375
11
161.703
21
-94.1261
0
LINE
8
BLACK
6
CONTINUOUS
10
161.703
20
-94.1261
11
161.654
21
-94.0936
0
LINE
8
BLACK
6
CONTINUOUS
10
161.654
20
-94.0936
11
161.621
21
-94.0449
0
LINE
8
BLACK
6
CONTINUOUS
10
161.621
20
-94.0449
11
161.61
21
-93.9875
0
LINE
8
BLACK
6
CONTINUOUS
10
161.61
20
-93.9875
11
161.61
21
-92.8125
0
LINE
8
BLACK
6
CONTINUOUS
10
161.61
20
-92.8125
11
161.621
21
-92.7551
0
LINE
8
BLACK
6
CONTINUOUS
10
161.621
20
-92.7551
11
161.654
21
-92.7064
0
LINE
8
BLACK
6
CONTINUOUS
10
161.654
20
-92.7064
11
161.703
21
-92.6739
0
LINE
8
BLACK
6
CONTINUOUS
10
161.703
20
-92.6739
11
161.76
21
-92.6625
0
LINE
8
BLACK
6
CONTINUOUS
10
161.76
20
-92.6625
11
162.06
21
-92.6625
0
LINE
8
BLACK
6
CONTINUOUS
10
162.06
20
-92.6625
11
162.117
21
-92.6739
0
LINE
8
BLACK
6
CONTINUOUS
10
164.017
20
-92.6739
11
164.066
21
-92.7064
0
LINE
8
BLACK
6
CONTINUOUS
10
164.066
20
-92.7064
11
164.099
21
-92.7551
0
LINE
8
BLACK
6
CONTINUOUS
10
164.099
20
-92.7551
11
164.11
21
-92.8125
0
LINE
8
BLACK
6
CONTINUOUS
10
164.11
20
-92.8125
11
164.11
21
-93.9875
0
LINE
8
BLACK
6
CONTINUOUS
10
164.11
20
-93.9875
11
164.099
21
-94.0449
0
LINE
8
BLACK
6
CONTINUOUS
10
164.099
20
-94.0449
11
164.066
21
-94.0936
0
LINE
8
BLACK
6
CONTINUOUS
10
164.066
20
-94.0936
11
164.017
21
-94.1261
0
LINE
8
BLACK
6
CONTINUOUS
10
164.017
20
-94.1261
11
163.96
21
-94.1375
0
LINE
8
BLACK
6
CONTINUOUS
10
163.96
20
-94.1375
11
163.66
21
-94.1375
0
LINE
8
BLACK
6
CONTINUOUS
10
163.66
20
-94.1375
11
163.603
21
-94.1261
0
LINE
8
BLACK
6
CONTINUOUS
10
163.603
20
-94.1261
11
163.554
21
-94.0936
0
LINE
8
BLACK
6
CONTINUOUS
10
163.554
20
-94.0936
11
163.521
21
-94.0449
0
LINE
8
BLACK
6
CONTINUOUS
10
163.521
20
-94.0449
11
163.51
21
-93.9875
0
LINE
8
BLACK
6
CONTINUOUS
10
163.51
20
-93.9875
11
163.51
21
-92.8125
0
LINE
8
BLACK
6
CONTINUOUS
10
163.51
20
-92.8125
11
163.521
21
-92.7551
0
LINE
8
BLACK
6
CONTINUOUS
10
163.521
20
-92.7551
11
163.554
21
-92.7064
0
LINE
8
BLACK
6
CONTINUOUS
10
163.554
20
-92.7064
11
163.603
21
-92.6739
0
LINE
8
BLACK
6
CONTINUOUS
10
163.603
20
-92.6739
11
163.66
21
-92.6625
0
LINE
8
BLACK
6
CONTINUOUS
10
163.66
20
-92.6625
11
163.96
21
-92.6625
0
LINE
8
BLACK
6
CONTINUOUS
10
163.96
20
-92.6625
11
164.017
21
-92.6739
0
LINE
8
BLACK
6
CONTINUOUS
10
139.156
20
-92.819
11
139.237
21
-92.8732
0
LINE
8
BLACK
6
CONTINUOUS
10
139.237
20
-92.8732
11
139.291
21
-92.9543
0
LINE
8
BLACK
6
CONTINUOUS
10
139.291
20
-92.9543
11
139.31
21
-93.05
0
LINE
8
BLACK
6
CONTINUOUS
10
139.31
20
-93.05
11
139.31
21
-93.75
0
LINE
8
BLACK
6
CONTINUOUS
10
139.31
20
-93.75
11
139.291
21
-93.8457
0
LINE
8
BLACK
6
CONTINUOUS
10
139.291
20
-93.8457
11
139.237
21
-93.9268
0
LINE
8
BLACK
6
CONTINUOUS
10
139.237
20
-93.9268
11
139.156
21
-93.981
0
LINE
8
BLACK
6
CONTINUOUS
10
139.156
20
-93.981
11
139.06
21
-94
0
LINE
8
BLACK
6
CONTINUOUS
10
139.06
20
-94
11
138.16
21
-94
0
LINE
8
BLACK
6
CONTINUOUS
10
138.16
20
-94
11
138.064
21
-93.981
0
LINE
8
BLACK
6
CONTINUOUS
10
138.064
20
-93.981
11
137.983
21
-93.9268
0
LINE
8
BLACK
6
CONTINUOUS
10
137.983
20
-93.9268
11
137.929
21
-93.8457
0
LINE
8
BLACK
6
CONTINUOUS
10
137.929
20
-93.8457
11
137.91
21
-93.75
0
LINE
8
BLACK
6
CONTINUOUS
10
137.91
20
-93.75
11
137.91
21
-93.05
0
LINE
8
BLACK
6
CONTINUOUS
10
137.91
20
-93.05
11
137.929
21
-92.9543
0
LINE
8
BLACK
6
CONTINUOUS
10
137.929
20
-92.9543
11
137.983
21
-92.8732
0
LINE
8
BLACK
6
CONTINUOUS
10
137.983
20
-92.8732
11
138.064
21
-92.819
0
LINE
8
BLACK
6
CONTINUOUS
10
138.064
20
-92.819
11
138.16
21
-92.8
0
LINE
8
BLACK
6
CONTINUOUS
10
138.16
20
-92.8
11
139.06
21
-92.8
0
LINE
8
BLACK
6
CONTINUOUS
10
139.06
20
-92.8
11
139.156
21
-92.819
0
LINE
8
BLACK
6
CONTINUOUS
10
159.381
20
-92.269
11
159.462
21
-92.3232
0
LINE
8
BLACK
6
CONTINUOUS
10
159.462
20
-92.3232
11
159.516
21
-92.4043
0
LINE
8
BLACK
6
CONTINUOUS
10
159.516
20
-92.4043
11
159.535
21
-92.5
0
LINE
8
BLACK
6
CONTINUOUS
10
159.535
20
-92.5
11
159.535
21
-93.175
0
LINE
8
BLACK
6
CONTINUOUS
10
159.535
20
-93.175
11
159.516
21
-93.2707
0
LINE
8
BLACK
6
CONTINUOUS
10
159.516
20
-93.2707
11
159.462
21
-93.3518
0
LINE
8
BLACK
6
CONTINUOUS
10
159.462
20
-93.3518
11
159.381
21
-93.406
0
LINE
8
BLACK
6
CONTINUOUS
10
159.381
20
-93.406
11
159.285
21
-93.425
0
LINE
8
BLACK
6
CONTINUOUS
10
159.285
20
-93.425
11
158.335
21
-93.425
0
LINE
8
BLACK
6
CONTINUOUS
10
158.335
20
-93.425
11
158.239
21
-93.406
0
LINE
8
BLACK
6
CONTINUOUS
10
158.239
20
-93.406
11
158.158
21
-93.3518
0
LINE
8
BLACK
6
CONTINUOUS
10
158.158
20
-93.3518
11
158.104
21
-93.2707
0
LINE
8
BLACK
6
CONTINUOUS
10
158.104
20
-93.2707
11
158.085
21
-93.175
0
LINE
8
BLACK
6
CONTINUOUS
10
158.085
20
-93.175
11
158.085
21
-92.5
0
LINE
8
BLACK
6
CONTINUOUS
10
158.085
20
-92.5
11
158.104
21
-92.4043
0
LINE
8
BLACK
6
CONTINUOUS
10
158.104
20
-92.4043
11
158.158
21
-92.3232
0
LINE
8
BLACK
6
CONTINUOUS
10
158.158
20
-92.3232
11
158.239
21
-92.269
0
LINE
8
BLACK
6
CONTINUOUS
10
158.239
20
-92.269
11
158.335
21
-92.25
0
LINE
8
BLACK
6
CONTINUOUS
10
158.335
20
-92.25
11
159.285
21
-92.25
0
LINE
8
BLACK
6
CONTINUOUS
10
159.285
20
-92.25
11
159.381
21
-92.269
0
LINE
8
BLACK
6
CONTINUOUS
10
133.356
20
-91.919
11
133.437
21
-91.9732
0
LINE
8
BLACK
6
CONTINUOUS
10
133.437
20
-91.9732
11
133.491
21
-92.0543
0
LINE
8
BLACK
6
CONTINUOUS
10
133.491
20
-92.0543
11
133.51
21
-92.15
0
LINE
8
BLACK
6
CONTINUOUS
10
133.51
20
-92.15
11
133.51
21
-92.85
0
LINE
8
BLACK
6
CONTINUOUS
10
133.51
20
-92.85
11
133.491
21
-92.9457
0
LINE
8
BLACK
6
CONTINUOUS
10
133.491
20
-92.9457
11
133.437
21
-93.0268
0
LINE
8
BLACK
6
CONTINUOUS
10
133.437
20
-93.0268
11
133.356
21
-93.081
0
LINE
8
BLACK
6
CONTINUOUS
10
133.356
20
-93.081
11
133.26
21
-93.1
0
LINE
8
BLACK
6
CONTINUOUS
10
133.26
20
-93.1
11
132.36
21
-93.1
0
LINE
8
BLACK
6
CONTINUOUS
10
132.36
20
-93.1
11
132.264
21
-93.081
0
LINE
8
BLACK
6
CONTINUOUS
10
132.264
20
-93.081
11
132.183
21
-93.0268
0
LINE
8
BLACK
6
CONTINUOUS
10
132.183
20
-93.0268
11
132.129
21
-92.9457
0
LINE
8
BLACK
6
CONTINUOUS
10
132.129
20
-92.9457
11
132.11
21
-92.85
0
LINE
8
BLACK
6
CONTINUOUS
10
132.11
20
-92.85
11
132.11
21
-92.15
0
LINE
8
BLACK
6
CONTINUOUS
10
132.11
20
-92.15
11
132.129
21
-92.0543
0
LINE
8
BLACK
6
CONTINUOUS
10
132.129
20
-92.0543
11
132.183
21
-91.9732
0
LINE
8
BLACK
6
CONTINUOUS
10
132.183
20
-91.9732
11
132.264
21
-91.919
0
LINE
8
BLACK
6
CONTINUOUS
10
132.264
20
-91.919
11
132.36
21
-91.9
0
LINE
8
BLACK
6
CONTINUOUS
10
132.36
20
-91.9
11
133.26
21
-91.9
0
LINE
8
BLACK
6
CONTINUOUS
10
133.26
20
-91.9
11
133.356
21
-91.919
0
LINE
8
BLACK
6
CONTINUOUS
10
142.112
20
-90.4614
11
142.161
21
-90.4939
0
LINE
8
BLACK
6
CONTINUOUS
10
142.161
20
-90.4939
11
142.194
21
-90.5426
0
LINE
8
BLACK
6
CONTINUOUS
10
142.194
20
-90.5426
11
142.205
21
-90.6
0
LINE
8
BLACK
6
CONTINUOUS
10
142.205
20
-90.6
11
142.205
21
-92.05
0
LINE
8
BLACK
6
CONTINUOUS
10
142.205
20
-92.05
11
142.194
21
-92.1074
0
LINE
8
BLACK
6
CONTINUOUS
10
142.194
20
-92.1074
11
142.161
21
-92.1561
0
LINE
8
BLACK
6
CONTINUOUS
10
142.161
20
-92.1561
11
142.112
21
-92.1886
0
LINE
8
BLACK
6
CONTINUOUS
10
142.112
20
-92.1886
11
142.055
21
-92.2
0
LINE
8
BLACK
6
CONTINUOUS
10
142.055
20
-92.2
11
141.755
21
-92.2
0
LINE
8
BLACK
6
CONTINUOUS
10
141.755
20
-92.2
11
141.698
21
-92.1886
0
LINE
8
BLACK
6
CONTINUOUS
10
141.698
20
-92.1886
11
141.649
21
-92.1561
0
LINE
8
BLACK
6
CONTINUOUS
10
141.649
20
-92.1561
11
141.616
21
-92.1074
0
LINE
8
BLACK
6
CONTINUOUS
10
141.616
20
-92.1074
11
141.605
21
-92.05
0
LINE
8
BLACK
6
CONTINUOUS
10
141.605
20
-92.05
11
141.605
21
-90.6
0
LINE
8
BLACK
6
CONTINUOUS
10
141.605
20
-90.6
11
141.616
21
-90.5426
0
LINE
8
BLACK
6
CONTINUOUS
10
141.616
20
-90.5426
11
141.649
21
-90.4939
0
LINE
8
BLACK
6
CONTINUOUS
10
141.649
20
-90.4939
11
141.698
21
-90.4614
0
LINE
8
BLACK
6
CONTINUOUS
10
141.698
20
-90.4614
11
141.755
21
-90.45
0
LINE
8
BLACK
6
CONTINUOUS
10
141.755
20
-90.45
11
142.055
21
-90.45
0
LINE
8
BLACK
6
CONTINUOUS
10
142.055
20
-90.45
11
142.112
21
-90.4614
0
LINE
8
BLACK
6
CONTINUOUS
10
143.382
20
-90.4614
11
143.431
21
-90.4939
0
LINE
8
BLACK
6
CONTINUOUS
10
143.431
20
-90.4939
11
143.464
21
-90.5426
0
LINE
8
BLACK
6
CONTINUOUS
10
143.464
20
-90.5426
11
143.475
21
-90.6
0
LINE
8
BLACK
6
CONTINUOUS
10
143.475
20
-90.6
11
143.475
21
-92.05
0
LINE
8
BLACK
6
CONTINUOUS
10
143.475
20
-92.05
11
143.464
21
-92.1074
0
LINE
8
BLACK
6
CONTINUOUS
10
143.464
20
-92.1074
11
143.431
21
-92.1561
0
LINE
8
BLACK
6
CONTINUOUS
10
143.431
20
-92.1561
11
143.382
21
-92.1886
0
LINE
8
BLACK
6
CONTINUOUS
10
143.382
20
-92.1886
11
143.325
21
-92.2
0
LINE
8
BLACK
6
CONTINUOUS
10
143.325
20
-92.2
11
143.025
21
-92.2
0
LINE
8
BLACK
6
CONTINUOUS
10
143.025
20
-92.2
11
142.968
21
-92.1886
0
LINE
8
BLACK
6
CONTINUOUS
10
142.968
20
-92.1886
11
142.919
21
-92.1561
0
LINE
8
BLACK
6
CONTINUOUS
10
142.919
20
-92.1561
11
142.886
21
-92.1074
0
LINE
8
BLACK
6
CONTINUOUS
10
142.886
20
-92.1074
11
142.875
21
-92.05
0
LINE
8
BLACK
6
CONTINUOUS
10
142.875
20
-92.05
11
142.875
21
-90.6
0
LINE
8
BLACK
6
CONTINUOUS
10
142.875
20
-90.6
11
142.886
21
-90.5426
0
LINE
8
BLACK
6
CONTINUOUS
10
142.886
20
-90.5426
11
142.919
21
-90.4939
0
LINE
8
BLACK
6
CONTINUOUS
10
142.919
20
-90.4939
11
142.968
21
-90.4614
0
LINE
8
BLACK
6
CONTINUOUS
10
142.968
20
-90.4614
11
143.025
21
-90.45
0
LINE
8
BLACK
6
CONTINUOUS
10
143.025
20
-90.45
11
143.325
21
-90.45
0
LINE
8
BLACK
6
CONTINUOUS
10
143.325
20
-90.45
11
143.382
21
-90.4614
0
LINE
8
BLACK
6
CONTINUOUS
10
144.652
20
-90.4614
11
144.701
21
-90.4939
0
LINE
8
BLACK
6
CONTINUOUS
10
144.701
20
-90.4939
11
144.734
21
-90.5426
0
LINE
8
BLACK
6
CONTINUOUS
10
144.734
20
-90.5426
11
144.745
21
-90.6
0
LINE
8
BLACK
6
CONTINUOUS
10
144.745
20
-90.6
11
144.745
21
-92.05
0
LINE
8
BLACK
6
CONTINUOUS
10
144.745
20
-92.05
11
144.734
21
-92.1074
0
LINE
8
BLACK
6
CONTINUOUS
10
144.734
20
-92.1074
11
144.701
21
-92.1561
0
LINE
8
BLACK
6
CONTINUOUS
10
144.701
20
-92.1561
11
144.652
21
-92.1886
0
LINE
8
BLACK
6
CONTINUOUS
10
144.652
20
-92.1886
11
144.595
21
-92.2
0
LINE
8
BLACK
6
CONTINUOUS
10
144.595
20
-92.2
11
144.295
21
-92.2
0
LINE
8
BLACK
6
CONTINUOUS
10
144.295
20
-92.2
11
144.238
21
-92.1886
0
LINE
8
BLACK
6
CONTINUOUS
10
144.238
20
-92.1886
11
144.189
21
-92.1561
0
LINE
8
BLACK
6
CONTINUOUS
10
144.189
20
-92.1561
11
144.156
21
-92.1074
0
LINE
8
BLACK
6
CONTINUOUS
10
144.156
20
-92.1074
11
144.145
21
-92.05
0
LINE
8
BLACK
6
CONTINUOUS
10
144.145
20
-92.05
11
144.145
21
-90.6
0
LINE
8
BLACK
6
CONTINUOUS
10
144.145
20
-90.6
11
144.156
21
-90.5426
0
LINE
8
BLACK
6
CONTINUOUS
10
144.156
20
-90.5426
11
144.189
21
-90.4939
0
LINE
8
BLACK
6
CONTINUOUS
10
144.189
20
-90.4939
11
144.238
21
-90.4614
0
LINE
8
BLACK
6
CONTINUOUS
10
144.238
20
-90.4614
11
144.295
21
-90.45
0
LINE
8
BLACK
6
CONTINUOUS
10
144.295
20
-90.45
11
144.595
21
-90.45
0
LINE
8
BLACK
6
CONTINUOUS
10
144.595
20
-90.45
11
144.652
21
-90.4614
0
LINE
8
BLACK
6
CONTINUOUS
10
145.922
20
-90.4614
11
145.971
21
-90.4939
0
LINE
8
BLACK
6
CONTINUOUS
10
145.971
20
-90.4939
11
146.004
21
-90.5426
0
LINE
8
BLACK
6
CONTINUOUS
10
146.004
20
-90.5426
11
146.015
21
-90.6
0
LINE
8
BLACK
6
CONTINUOUS
10
146.015
20
-90.6
11
146.015
21
-92.05
0
LINE
8
BLACK
6
CONTINUOUS
10
146.015
20
-92.05
11
146.004
21
-92.1074
0
LINE
8
BLACK
6
CONTINUOUS
10
146.004
20
-92.1074
11
145.971
21
-92.1561
0
LINE
8
BLACK
6
CONTINUOUS
10
145.971
20
-92.1561
11
145.922
21
-92.1886
0
LINE
8
BLACK
6
CONTINUOUS
10
145.922
20
-92.1886
11
145.865
21
-92.2
0
LINE
8
BLACK
6
CONTINUOUS
10
145.865
20
-92.2
11
145.565
21
-92.2
0
LINE
8
BLACK
6
CONTINUOUS
10
145.565
20
-92.2
11
145.508
21
-92.1886
0
LINE
8
BLACK
6
CONTINUOUS
10
145.508
20
-92.1886
11
145.459
21
-92.1561
0
LINE
8
BLACK
6
CONTINUOUS
10
145.459
20
-92.1561
11
145.426
21
-92.1074
0
LINE
8
BLACK
6
CONTINUOUS
10
145.426
20
-92.1074
11
145.415
21
-92.05
0
LINE
8
BLACK
6
CONTINUOUS
10
145.415
20
-92.05
11
145.415
21
-90.6
0
LINE
8
BLACK
6
CONTINUOUS
10
145.415
20
-90.6
11
145.426
21
-90.5426
0
LINE
8
BLACK
6
CONTINUOUS
10
145.426
20
-90.5426
11
145.459
21
-90.4939
0
LINE
8
BLACK
6
CONTINUOUS
10
145.459
20
-90.4939
11
145.508
21
-90.4614
0
LINE
8
BLACK
6
CONTINUOUS
10
145.508
20
-90.4614
11
145.565
21
-90.45
0
LINE
8
BLACK
6
CONTINUOUS
10
145.565
20
-90.45
11
145.865
21
-90.45
0
LINE
8
BLACK
6
CONTINUOUS
10
145.865
20
-90.45
11
145.922
21
-90.4614
0
LINE
8
BLACK
6
CONTINUOUS
10
162.167
20
-90.6114
11
162.216
21
-90.6439
0
LINE
8
BLACK
6
CONTINUOUS
10
162.216
20
-90.6439
11
162.249
21
-90.6926
0
LINE
8
BLACK
6
CONTINUOUS
10
162.249
20
-90.6926
11
162.26
21
-90.75
0
LINE
8
BLACK
6
CONTINUOUS
10
162.26
20
-90.75
11
162.26
21
-91.925
0
LINE
8
BLACK
6
CONTINUOUS
10
162.26
20
-91.925
11
162.249
21
-91.9824
0
LINE
8
BLACK
6
CONTINUOUS
10
162.249
20
-91.9824
11
162.216
21
-92.0311
0
LINE
8
BLACK
6
CONTINUOUS
10
162.216
20
-92.0311
11
162.167
21
-92.0636
0
LINE
8
BLACK
6
CONTINUOUS
10
162.167
20
-92.0636
11
162.11
21
-92.075
0
LINE
8
BLACK
6
CONTINUOUS
10
162.11
20
-92.075
11
161.81
21
-92.075
0
LINE
8
BLACK
6
CONTINUOUS
10
161.81
20
-92.075
11
161.753
21
-92.0636
0
LINE
8
BLACK
6
CONTINUOUS
10
161.753
20
-92.0636
11
161.704
21
-92.0311
0
LINE
8
BLACK
6
CONTINUOUS
10
161.704
20
-92.0311
11
161.671
21
-91.9824
0
LINE
8
BLACK
6
CONTINUOUS
10
161.671
20
-91.9824
11
161.66
21
-91.925
0
LINE
8
BLACK
6
CONTINUOUS
10
161.66
20
-91.925
11
161.66
21
-90.75
0
LINE
8
BLACK
6
CONTINUOUS
10
161.66
20
-90.75
11
161.671
21
-90.6926
0
LINE
8
BLACK
6
CONTINUOUS
10
161.671
20
-90.6926
11
161.704
21
-90.6439
0
LINE
8
BLACK
6
CONTINUOUS
10
161.704
20
-90.6439
11
161.753
21
-90.6114
0
LINE
8
BLACK
6
CONTINUOUS
10
161.753
20
-90.6114
11
161.81
21
-90.6
0
LINE
8
BLACK
6
CONTINUOUS
10
161.81
20
-90.6
11
162.11
21
-90.6
0
LINE
8
BLACK
6
CONTINUOUS
10
162.11
20
-90.6
11
162.167
21
-90.6114
0
LINE
8
BLACK
6
CONTINUOUS
10
164.067
20
-90.6114
11
164.116
21
-90.6439
0
LINE
8
BLACK
6
CONTINUOUS
10
164.116
20
-90.6439
11
164.149
21
-90.6926
0
LINE
8
BLACK
6
CONTINUOUS
10
164.149
20
-90.6926
11
164.16
21
-90.75
0
LINE
8
BLACK
6
CONTINUOUS
10
164.16
20
-90.75
11
164.16
21
-91.925
0
LINE
8
BLACK
6
CONTINUOUS
10
164.16
20
-91.925
11
164.149
21
-91.9824
0
LINE
8
BLACK
6
CONTINUOUS
10
164.149
20
-91.9824
11
164.116
21
-92.0311
0
LINE
8
BLACK
6
CONTINUOUS
10
164.116
20
-92.0311
11
164.067
21
-92.0636
0
LINE
8
BLACK
6
CONTINUOUS
10
164.067
20
-92.0636
11
164.01
21
-92.075
0
LINE
8
BLACK
6
CONTINUOUS
10
164.01
20
-92.075
11
163.71
21
-92.075
0
LINE
8
BLACK
6
CONTINUOUS
10
163.71
20
-92.075
11
163.653
21
-92.0636
0
LINE
8
BLACK
6
CONTINUOUS
10
163.653
20
-92.0636
11
163.604
21
-92.0311
0
LINE
8
BLACK
6
CONTINUOUS
10
163.604
20
-92.0311
11
163.571
21
-91.9824
0
LINE
8
BLACK
6
CONTINUOUS
10
163.571
20
-91.9824
11
163.56
21
-91.925
0
LINE
8
BLACK
6
CONTINUOUS
10
163.56
20
-91.925
11
163.56
21
-90.75
0
LINE
8
BLACK
6
CONTINUOUS
10
163.56
20
-90.75
11
163.571
21
-90.6926
0
LINE
8
BLACK
6
CONTINUOUS
10
163.571
20
-90.6926
11
163.604
21
-90.6439
0
LINE
8
BLACK
6
CONTINUOUS
10
163.604
20
-90.6439
11
163.653
21
-90.6114
0
LINE
8
BLACK
6
CONTINUOUS
10
163.653
20
-90.6114
11
163.71
21
-90.6
0
LINE
8
BLACK
6
CONTINUOUS
10
163.71
20
-90.6
11
164.01
21
-90.6
0
LINE
8
BLACK
6
CONTINUOUS
10
164.01
20
-90.6
11
164.067
21
-90.6114
0
LINE
8
BLACK
6
CONTINUOUS
10
159.381
20
-90.194
11
159.462
21
-90.2482
0
LINE
8
BLACK
6
CONTINUOUS
10
159.462
20
-90.2482
11
159.516
21
-90.3293
0
LINE
8
BLACK
6
CONTINUOUS
10
159.516
20
-90.3293
11
159.535
21
-90.425
0
LINE
8
BLACK
6
CONTINUOUS
10
159.535
20
-90.425
11
159.535
21
-91.1
0
LINE
8
BLACK
6
CONTINUOUS
10
159.535
20
-91.1
11
159.516
21
-91.1957
0
LINE
8
BLACK
6
CONTINUOUS
10
159.516
20
-91.1957
11
159.462
21
-91.2768
0
LINE
8
BLACK
6
CONTINUOUS
10
159.462
20
-91.2768
11
159.381
21
-91.331
0
LINE
8
BLACK
6
CONTINUOUS
10
159.381
20
-91.331
11
159.285
21
-91.35
0
LINE
8
BLACK
6
CONTINUOUS
10
159.285
20
-91.35
11
158.335
21
-91.35
0
LINE
8
BLACK
6
CONTINUOUS
10
158.335
20
-91.35
11
158.239
21
-91.331
0
LINE
8
BLACK
6
CONTINUOUS
10
158.239
20
-91.331
11
158.158
21
-91.2768
0
LINE
8
BLACK
6
CONTINUOUS
10
158.158
20
-91.2768
11
158.104
21
-91.1957
0
LINE
8
BLACK
6
CONTINUOUS
10
158.104
20
-91.1957
11
158.085
21
-91.1
0
LINE
8
BLACK
6
CONTINUOUS
10
158.085
20
-91.1
11
158.085
21
-90.425
0
LINE
8
BLACK
6
CONTINUOUS
10
158.085
20
-90.425
11
158.104
21
-90.3293
0
LINE
8
BLACK
6
CONTINUOUS
10
158.104
20
-90.3293
11
158.158
21
-90.2482
0
LINE
8
BLACK
6
CONTINUOUS
10
158.158
20
-90.2482
11
158.239
21
-90.194
0
LINE
8
BLACK
6
CONTINUOUS
10
158.239
20
-90.194
11
158.335
21
-90.175
0
LINE
8
BLACK
6
CONTINUOUS
10
158.335
20
-90.175
11
159.285
21
-90.175
0
LINE
8
BLACK
6
CONTINUOUS
10
159.285
20
-90.175
11
159.381
21
-90.194
0
LINE
8
BLACK
6
CONTINUOUS
10
163.117
20
-88.7364
11
163.166
21
-88.7689
0
LINE
8
BLACK
6
CONTINUOUS
10
163.166
20
-88.7689
11
163.199
21
-88.8176
0
LINE
8
BLACK
6
CONTINUOUS
10
163.199
20
-88.8176
11
163.21
21
-88.875
0
LINE
8
BLACK
6
CONTINUOUS
10
163.21
20
-88.875
11
163.21
21
-90.05
0
LINE
8
BLACK
6
CONTINUOUS
10
163.21
20
-90.05
11
163.199
21
-90.1074
0
LINE
8
BLACK
6
CONTINUOUS
10
163.199
20
-90.1074
11
163.166
21
-90.1561
0
LINE
8
BLACK
6
CONTINUOUS
10
163.166
20
-90.1561
11
163.117
21
-90.1886
0
LINE
8
BLACK
6
CONTINUOUS
10
163.117
20
-90.1886
11
163.06
21
-90.2
0
LINE
8
BLACK
6
CONTINUOUS
10
163.06
20
-90.2
11
162.76
21
-90.2
0
LINE
8
BLACK
6
CONTINUOUS
10
162.76
20
-90.2
11
162.703
21
-90.1886
0
LINE
8
BLACK
6
CONTINUOUS
10
162.703
20
-90.1886
11
162.654
21
-90.1561
0
LINE
8
BLACK
6
CONTINUOUS
10
162.654
20
-90.1561
11
162.621
21
-90.1074
0
LINE
8
BLACK
6
CONTINUOUS
10
162.621
20
-90.1074
11
162.61
21
-90.05
0
LINE
8
BLACK
6
CONTINUOUS
10
162.61
20
-90.05
11
162.61
21
-88.875
0
LINE
8
BLACK
6
CONTINUOUS
10
162.61
20
-88.875
11
162.621
21
-88.8176
0
LINE
8
BLACK
6
CONTINUOUS
10
162.621
20
-88.8176
11
162.654
21
-88.7689
0
LINE
8
BLACK
6
CONTINUOUS
10
162.654
20
-88.7689
11
162.703
21
-88.7364
0
LINE
8
BLACK
6
CONTINUOUS
10
162.703
20
-88.7364
11
162.76
21
-88.725
0
LINE
8
BLACK
6
CONTINUOUS
10
162.76
20
-88.725
11
163.06
21
-88.725
0
LINE
8
BLACK
6
CONTINUOUS
10
163.06
20
-88.725
11
163.117
21
-88.7364
0
LINE
8
BLACK
6
CONTINUOUS
10
144.906
20
-88.269
11
144.987
21
-88.3232
0
LINE
8
BLACK
6
CONTINUOUS
10
144.987
20
-88.3232
11
145.041
21
-88.4043
0
LINE
8
BLACK
6
CONTINUOUS
10
145.041
20
-88.4043
11
145.06
21
-88.5
0
LINE
8
BLACK
6
CONTINUOUS
10
145.06
20
-88.5
11
145.06
21
-89.1
0
LINE
8
BLACK
6
CONTINUOUS
10
145.06
20
-89.1
11
145.041
21
-89.1957
0
LINE
8
BLACK
6
CONTINUOUS
10
145.041
20
-89.1957
11
144.987
21
-89.2768
0
LINE
8
BLACK
6
CONTINUOUS
10
144.987
20
-89.2768
11
144.906
21
-89.331
0
LINE
8
BLACK
6
CONTINUOUS
10
144.906
20
-89.331
11
144.81
21
-89.35
0
LINE
8
BLACK
6
CONTINUOUS
10
144.81
20
-89.35
11
144.21
21
-89.35
0
LINE
8
BLACK
6
CONTINUOUS
10
144.21
20
-89.35
11
144.114
21
-89.331
0
LINE
8
BLACK
6
CONTINUOUS
10
144.114
20
-89.331
11
144.033
21
-89.2768
0
LINE
8
BLACK
6
CONTINUOUS
10
144.033
20
-89.2768
11
143.979
21
-89.1957
0
LINE
8
BLACK
6
CONTINUOUS
10
143.979
20
-89.1957
11
143.96
21
-89.1
0
LINE
8
BLACK
6
CONTINUOUS
10
143.96
20
-89.1
11
143.96
21
-88.5
0
LINE
8
BLACK
6
CONTINUOUS
10
143.96
20
-88.5
11
143.979
21
-88.4043
0
LINE
8
BLACK
6
CONTINUOUS
10
143.979
20
-88.4043
11
144.033
21
-88.3232
0
LINE
8
BLACK
6
CONTINUOUS
10
144.033
20
-88.3232
11
144.114
21
-88.269
0
LINE
8
BLACK
6
CONTINUOUS
10
144.114
20
-88.269
11
144.21
21
-88.25
0
LINE
8
BLACK
6
CONTINUOUS
10
144.21
20
-88.25
11
144.81
21
-88.25
0
LINE
8
BLACK
6
CONTINUOUS
10
144.81
20
-88.25
11
144.906
21
-88.269
0
LINE
8
BLACK
6
CONTINUOUS
10
147.706
20
-88.269
11
147.787
21
-88.3232
0
LINE
8
BLACK
6
CONTINUOUS
10
147.787
20
-88.3232
11
147.841
21
-88.4043
0
LINE
8
BLACK
6
CONTINUOUS
10
147.841
20
-88.4043
11
147.86
21
-88.5
0
LINE
8
BLACK
6
CONTINUOUS
10
147.86
20
-88.5
11
147.86
21
-89.1
0
LINE
8
BLACK
6
CONTINUOUS
10
147.86
20
-89.1
11
147.841
21
-89.1957
0
LINE
8
BLACK
6
CONTINUOUS
10
147.841
20
-89.1957
11
147.787
21
-89.2768
0
LINE
8
BLACK
6
CONTINUOUS
10
147.787
20
-89.2768
11
147.706
21
-89.331
0
LINE
8
BLACK
6
CONTINUOUS
10
147.706
20
-89.331
11
147.61
21
-89.35
0
LINE
8
BLACK
6
CONTINUOUS
10
147.61
20
-89.35
11
147.01
21
-89.35
0
LINE
8
BLACK
6
CONTINUOUS
10
147.01
20
-89.35
11
146.914
21
-89.331
0
LINE
8
BLACK
6
CONTINUOUS
10
146.914
20
-89.331
11
146.833
21
-89.2768
0
LINE
8
BLACK
6
CONTINUOUS
10
146.833
20
-89.2768
11
146.779
21
-89.1957
0
LINE
8
BLACK
6
CONTINUOUS
10
146.779
20
-89.1957
11
146.76
21
-89.1
0
LINE
8
BLACK
6
CONTINUOUS
10
146.76
20
-89.1
11
146.76
21
-88.5
0
LINE
8
BLACK
6
CONTINUOUS
10
146.76
20
-88.5
11
146.779
21
-88.4043
0
LINE
8
BLACK
6
CONTINUOUS
10
146.779
20
-88.4043
11
146.833
21
-88.3232
0
LINE
8
BLACK
6
CONTINUOUS
10
146.833
20
-88.3232
11
146.914
21
-88.269
0
LINE
8
BLACK
6
CONTINUOUS
10
146.914
20
-88.269
11
147.01
21
-88.25
0
LINE
8
BLACK
6
CONTINUOUS
10
147.01
20
-88.25
11
147.61
21
-88.25
0
LINE
8
BLACK
6
CONTINUOUS
10
147.61
20
-88.25
11
147.706
21
-88.269
0
LINE
8
BLACK
6
CONTINUOUS
10
151.056
20
-87.619
11
151.137
21
-87.6732
0
LINE
8
BLACK
6
CONTINUOUS
10
151.137
20
-87.6732
11
151.191
21
-87.7543
0
LINE
8
BLACK
6
CONTINUOUS
10
151.191
20
-87.7543
11
151.21
21
-87.85
0
LINE
8
BLACK
6
CONTINUOUS
10
151.21
20
-87.85
11
151.21
21
-88.55
0
LINE
8
BLACK
6
CONTINUOUS
10
151.21
20
-88.55
11
151.191
21
-88.6457
0
LINE
8
BLACK
6
CONTINUOUS
10
151.191
20
-88.6457
11
151.137
21
-88.7268
0
LINE
8
BLACK
6
CONTINUOUS
10
151.137
20
-88.7268
11
151.056
21
-88.781
0
LINE
8
BLACK
6
CONTINUOUS
10
151.056
20
-88.781
11
150.96
21
-88.8
0
LINE
8
BLACK
6
CONTINUOUS
10
150.96
20
-88.8
11
150.06
21
-88.8
0
LINE
8
BLACK
6
CONTINUOUS
10
150.06
20
-88.8
11
149.964
21
-88.781
0
LINE
8
BLACK
6
CONTINUOUS
10
149.964
20
-88.781
11
149.883
21
-88.7268
0
LINE
8
BLACK
6
CONTINUOUS
10
149.883
20
-88.7268
11
149.829
21
-88.6457
0
LINE
8
BLACK
6
CONTINUOUS
10
149.829
20
-88.6457
11
149.81
21
-88.55
0
LINE
8
BLACK
6
CONTINUOUS
10
149.81
20
-88.55
11
149.81
21
-87.85
0
LINE
8
BLACK
6
CONTINUOUS
10
149.81
20
-87.85
11
149.829
21
-87.7543
0
LINE
8
BLACK
6
CONTINUOUS
10
149.829
20
-87.7543
11
149.883
21
-87.6732
0
LINE
8
BLACK
6
CONTINUOUS
10
149.883
20
-87.6732
11
149.964
21
-87.619
0
LINE
8
BLACK
6
CONTINUOUS
10
149.964
20
-87.619
11
150.06
21
-87.6
0
LINE
8
BLACK
6
CONTINUOUS
10
150.06
20
-87.6
11
150.96
21
-87.6
0
LINE
8
BLACK
6
CONTINUOUS
10
150.96
20
-87.6
11
151.056
21
-87.619
0
LINE
8
BLACK
6
CONTINUOUS
10
154.706
20
-86.794
11
154.787
21
-86.8482
0
LINE
8
BLACK
6
CONTINUOUS
10
154.787
20
-86.8482
11
154.841
21
-86.9293
0
LINE
8
BLACK
6
CONTINUOUS
10
154.841
20
-86.9293
11
154.86
21
-87.025
0
LINE
8
BLACK
6
CONTINUOUS
10
154.86
20
-87.025
11
154.86
21
-87.975
0
LINE
8
BLACK
6
CONTINUOUS
10
154.86
20
-87.975
11
154.841
21
-88.0707
0
LINE
8
BLACK
6
CONTINUOUS
10
154.841
20
-88.0707
11
154.787
21
-88.1518
0
LINE
8
BLACK
6
CONTINUOUS
10
154.787
20
-88.1518
11
154.706
21
-88.206
0
LINE
8
BLACK
6
CONTINUOUS
10
154.706
20
-88.206
11
154.61
21
-88.225
0
LINE
8
BLACK
6
CONTINUOUS
10
154.61
20
-88.225
11
153.935
21
-88.225
0
LINE
8
BLACK
6
CONTINUOUS
10
153.935
20
-88.225
11
153.839
21
-88.206
0
LINE
8
BLACK
6
CONTINUOUS
10
153.839
20
-88.206
11
153.758
21
-88.1518
0
LINE
8
BLACK
6
CONTINUOUS
10
153.758
20
-88.1518
11
153.704
21
-88.0707
0
LINE
8
BLACK
6
CONTINUOUS
10
153.704
20
-88.0707
11
153.685
21
-87.975
0
LINE
8
BLACK
6
CONTINUOUS
10
153.685
20
-87.975
11
153.685
21
-87.025
0
LINE
8
BLACK
6
CONTINUOUS
10
153.685
20
-87.025
11
153.704
21
-86.9293
0
LINE
8
BLACK
6
CONTINUOUS
10
153.704
20
-86.9293
11
153.758
21
-86.8482
0
LINE
8
BLACK
6
CONTINUOUS
10
153.758
20
-86.8482
11
153.839
21
-86.794
0
LINE
8
BLACK
6
CONTINUOUS
10
153.839
20
-86.794
11
153.935
21
-86.775
0
LINE
8
BLACK
6
CONTINUOUS
10
153.935
20
-86.775
11
154.61
21
-86.775
0
LINE
8
BLACK
6
CONTINUOUS
10
154.61
20
-86.775
11
154.706
21
-86.794
0
LINE
8
BLACK
6
CONTINUOUS
10
156.781
20
-86.794
11
156.862
21
-86.8482
0
LINE
8
BLACK
6
CONTINUOUS
10
156.862
20
-86.8482
11
156.916
21
-86.9293
0
LINE
8
BLACK
6
CONTINUOUS
10
156.916
20
-86.9293
11
156.935
21
-87.025
0
LINE
8
BLACK
6
CONTINUOUS
10
156.935
20
-87.025
11
156.935
21
-87.975
0
LINE
8
BLACK
6
CONTINUOUS
10
156.935
20
-87.975
11
156.916
21
-88.0707
0
LINE
8
BLACK
6
CONTINUOUS
10
156.916
20
-88.0707
11
156.862
21
-88.1518
0
LINE
8
BLACK
6
CONTINUOUS
10
156.862
20
-88.1518
11
156.781
21
-88.206
0
LINE
8
BLACK
6
CONTINUOUS
10
156.781
20
-88.206
11
156.685
21
-88.225
0
LINE
8
BLACK
6
CONTINUOUS
10
156.685
20
-88.225
11
156.01
21
-88.225
0
LINE
8
BLACK
6
CONTINUOUS
10
156.01
20
-88.225
11
155.914
21
-88.206
0
LINE
8
BLACK
6
CONTINUOUS
10
155.914
20
-88.206
11
155.833
21
-88.1518
0
LINE
8
BLACK
6
CONTINUOUS
10
155.833
20
-88.1518
11
155.779
21
-88.0707
0
LINE
8
BLACK
6
CONTINUOUS
10
155.779
20
-88.0707
11
155.76
21
-87.975
0
LINE
8
BLACK
6
CONTINUOUS
10
155.76
20
-87.975
11
155.76
21
-87.025
0
LINE
8
BLACK
6
CONTINUOUS
10
155.76
20
-87.025
11
155.779
21
-86.9293
0
LINE
8
BLACK
6
CONTINUOUS
10
155.779
20
-86.9293
11
155.833
21
-86.8482
0
LINE
8
BLACK
6
CONTINUOUS
10
155.833
20
-86.8482
11
155.914
21
-86.794
0
LINE
8
BLACK
6
CONTINUOUS
10
155.914
20
-86.794
11
156.01
21
-86.775
0
LINE
8
BLACK
6
CONTINUOUS
10
156.01
20
-86.775
11
156.685
21
-86.775
0
LINE
8
BLACK
6
CONTINUOUS
10
156.685
20
-86.775
11
156.781
21
-86.794
0
LINE
8
BLACK
6
CONTINUOUS
10
158.643
20
-86.794
11
158.724
21
-86.8482
0
LINE
8
BLACK
6
CONTINUOUS
10
158.724
20
-86.8482
11
158.778
21
-86.9293
0
LINE
8
BLACK
6
CONTINUOUS
10
158.778
20
-86.9293
11
158.797
21
-87.025
0
LINE
8
BLACK
6
CONTINUOUS
10
158.797
20
-87.025
11
158.797
21
-87.975
0
LINE
8
BLACK
6
CONTINUOUS
10
158.797
20
-87.975
11
158.778
21
-88.0707
0
LINE
8
BLACK
6
CONTINUOUS
10
158.778
20
-88.0707
11
158.724
21
-88.1518
0
LINE
8
BLACK
6
CONTINUOUS
10
158.724
20
-88.1518
11
158.643
21
-88.206
0
LINE
8
BLACK
6
CONTINUOUS
10
158.643
20
-88.206
11
158.547
21
-88.225
0
LINE
8
BLACK
6
CONTINUOUS
10
158.547
20
-88.225
11
157.873
21
-88.225
0
LINE
8
BLACK
6
CONTINUOUS
10
157.873
20
-88.225
11
157.777
21
-88.206
0
LINE
8
BLACK
6
CONTINUOUS
10
157.777
20
-88.206
11
157.696
21
-88.1518
0
LINE
8
BLACK
6
CONTINUOUS
10
157.696
20
-88.1518
11
157.642
21
-88.0707
0
LINE
8
BLACK
6
CONTINUOUS
10
157.642
20
-88.0707
11
157.623
21
-87.975
0
LINE
8
BLACK
6
CONTINUOUS
10
157.623
20
-87.975
11
157.623
21
-87.025
0
LINE
8
BLACK
6
CONTINUOUS
10
157.623
20
-87.025
11
157.642
21
-86.9293
0
LINE
8
BLACK
6
CONTINUOUS
10
157.642
20
-86.9293
11
157.696
21
-86.8482
0
LINE
8
BLACK
6
CONTINUOUS
10
157.696
20
-86.8482
11
157.777
21
-86.794
0
LINE
8
BLACK
6
CONTINUOUS
10
157.777
20
-86.794
11
157.873
21
-86.775
0
LINE
8
BLACK
6
CONTINUOUS
10
157.873
20
-86.775
11
158.547
21
-86.775
0
LINE
8
BLACK
6
CONTINUOUS
10
158.547
20
-86.775
11
158.643
21
-86.794
0
LINE
8
BLACK
6
CONTINUOUS
10
160.718
20
-86.794
11
160.799
21
-86.8482
0
LINE
8
BLACK
6
CONTINUOUS
10
160.799
20
-86.8482
11
160.853
21
-86.9293
0
LINE
8
BLACK
6
CONTINUOUS
10
160.853
20
-86.9293
11
160.873
21
-87.025
0
LINE
8
BLACK
6
CONTINUOUS
10
160.873
20
-87.025
11
160.873
21
-87.975
0
LINE
8
BLACK
6
CONTINUOUS
10
160.873
20
-87.975
11
160.853
21
-88.0707
0
LINE
8
BLACK
6
CONTINUOUS
10
160.853
20
-88.0707
11
160.799
21
-88.1518
0
LINE
8
BLACK
6
CONTINUOUS
10
160.799
20
-88.1518
11
160.718
21
-88.206
0
LINE
8
BLACK
6
CONTINUOUS
10
160.718
20
-88.206
11
160.623
21
-88.225
0
LINE
8
BLACK
6
CONTINUOUS
10
160.623
20
-88.225
11
159.947
21
-88.225
0
LINE
8
BLACK
6
CONTINUOUS
10
159.947
20
-88.225
11
159.852
21
-88.206
0
LINE
8
BLACK
6
CONTINUOUS
10
159.852
20
-88.206
11
159.771
21
-88.1518
0
LINE
8
BLACK
6
CONTINUOUS
10
159.771
20
-88.1518
11
159.717
21
-88.0707
0
LINE
8
BLACK
6
CONTINUOUS
10
159.717
20
-88.0707
11
159.697
21
-87.975
0
LINE
8
BLACK
6
CONTINUOUS
10
159.697
20
-87.975
11
159.697
21
-87.025
0
LINE
8
BLACK
6
CONTINUOUS
10
159.697
20
-87.025
11
159.717
21
-86.9293
0
LINE
8
BLACK
6
CONTINUOUS
10
159.717
20
-86.9293
11
159.771
21
-86.8482
0
LINE
8
BLACK
6
CONTINUOUS
10
159.771
20
-86.8482
11
159.852
21
-86.794
0
LINE
8
BLACK
6
CONTINUOUS
10
159.852
20
-86.794
11
159.947
21
-86.775
0
LINE
8
BLACK
6
CONTINUOUS
10
159.947
20
-86.775
11
160.623
21
-86.775
0
LINE
8
BLACK
6
CONTINUOUS
10
160.623
20
-86.775
11
160.718
21
-86.794
0
LINE
8
BLACK
6
CONTINUOUS
10
144.906
20
-85.869
11
144.987
21
-85.9232
0
LINE
8
BLACK
6
CONTINUOUS
10
144.987
20
-85.9232
11
145.041
21
-86.0043
0
LINE
8
BLACK
6
CONTINUOUS
10
145.041
20
-86.0043
11
145.06
21
-86.1
0
LINE
8
BLACK
6
CONTINUOUS
10
145.06
20
-86.1
11
145.06
21
-86.7
0
LINE
8
BLACK
6
CONTINUOUS
10
145.06
20
-86.7
11
145.041
21
-86.7957
0
LINE
8
BLACK
6
CONTINUOUS
10
145.041
20
-86.7957
11
144.987
21
-86.8768
0
LINE
8
BLACK
6
CONTINUOUS
10
144.987
20
-86.8768
11
144.906
21
-86.931
0
LINE
8
BLACK
6
CONTINUOUS
10
144.906
20
-86.931
11
144.81
21
-86.95
0
LINE
8
BLACK
6
CONTINUOUS
10
144.81
20
-86.95
11
144.21
21
-86.95
0
LINE
8
BLACK
6
CONTINUOUS
10
144.21
20
-86.95
11
144.114
21
-86.931
0
LINE
8
BLACK
6
CONTINUOUS
10
144.114
20
-86.931
11
144.033
21
-86.8768
0
LINE
8
BLACK
6
CONTINUOUS
10
144.033
20
-86.8768
11
143.979
21
-86.7957
0
LINE
8
BLACK
6
CONTINUOUS
10
143.979
20
-86.7957
11
143.96
21
-86.7
0
LINE
8
BLACK
6
CONTINUOUS
10
143.96
20
-86.7
11
143.96
21
-86.1
0
LINE
8
BLACK
6
CONTINUOUS
10
143.96
20
-86.1
11
143.979
21
-86.0043
0
LINE
8
BLACK
6
CONTINUOUS
10
143.979
20
-86.0043
11
144.033
21
-85.9232
0
LINE
8
BLACK
6
CONTINUOUS
10
144.033
20
-85.9232
11
144.114
21
-85.869
0
LINE
8
BLACK
6
CONTINUOUS
10
144.114
20
-85.869
11
144.21
21
-85.85
0
LINE
8
BLACK
6
CONTINUOUS
10
144.21
20
-85.85
11
144.81
21
-85.85
0
LINE
8
BLACK
6
CONTINUOUS
10
144.81
20
-85.85
11
144.906
21
-85.869
0
LINE
8
BLACK
6
CONTINUOUS
10
147.706
20
-85.869
11
147.787
21
-85.9232
0
LINE
8
BLACK
6
CONTINUOUS
10
147.787
20
-85.9232
11
147.841
21
-86.0043
0
LINE
8
BLACK
6
CONTINUOUS
10
147.841
20
-86.0043
11
147.86
21
-86.1
0
LINE
8
BLACK
6
CONTINUOUS
10
147.86
20
-86.1
11
147.86
21
-86.7
0
LINE
8
BLACK
6
CONTINUOUS
10
147.86
20
-86.7
11
147.841
21
-86.7957
0
LINE
8
BLACK
6
CONTINUOUS
10
147.841
20
-86.7957
11
147.787
21
-86.8768
0
LINE
8
BLACK
6
CONTINUOUS
10
147.787
20
-86.8768
11
147.706
21
-86.931
0
LINE
8
BLACK
6
CONTINUOUS
10
147.706
20
-86.931
11
147.61
21
-86.95
0
LINE
8
BLACK
6
CONTINUOUS
10
147.61
20
-86.95
11
147.01
21
-86.95
0
LINE
8
BLACK
6
CONTINUOUS
10
147.01
20
-86.95
11
146.914
21
-86.931
0
LINE
8
BLACK
6
CONTINUOUS
10
146.914
20
-86.931
11
146.833
21
-86.8768
0
LINE
8
BLACK
6
CONTINUOUS
10
146.833
20
-86.8768
11
146.779
21
-86.7957
0
LINE
8
BLACK
6
CONTINUOUS
10
146.779
20
-86.7957
11
146.76
21
-86.7
0
LINE
8
BLACK
6
CONTINUOUS
10
146.76
20
-86.7
11
146.76
21
-86.1
0
LINE
8
BLACK
6
CONTINUOUS
10
146.76
20
-86.1
11
146.779
21
-86.0043
0
LINE
8
BLACK
6
CONTINUOUS
10
146.779
20
-86.0043
11
146.833
21
-85.9232
0
LINE
8
BLACK
6
CONTINUOUS
10
146.833
20
-85.9232
11
146.914
21
-85.869
0
LINE
8
BLACK
6
CONTINUOUS
10
146.914
20
-85.869
11
147.01
21
-85.85
0
LINE
8
BLACK
6
CONTINUOUS
10
147.01
20
-85.85
11
147.61
21
-85.85
0
LINE
8
BLACK
6
CONTINUOUS
10
147.61
20
-85.85
11
147.706
21
-85.869
0
LINE
8
BLACK
6
CONTINUOUS
10
151.056
20
-85.619
11
151.137
21
-85.6732
0
LINE
8
BLACK
6
CONTINUOUS
10
151.137
20
-85.6732
11
151.191
21
-85.7543
0
LINE
8
BLACK
6
CONTINUOUS
10
151.191
20
-85.7543
11
151.21
21
-85.85
0
LINE
8
BLACK
6
CONTINUOUS
10
151.21
20
-85.85
11
151.21
21
-86.55
0
LINE
8
BLACK
6
CONTINUOUS
10
151.21
20
-86.55
11
151.191
21
-86.6457
0
LINE
8
BLACK
6
CONTINUOUS
10
151.191
20
-86.6457
11
151.137
21
-86.7268
0
LINE
8
BLACK
6
CONTINUOUS
10
151.137
20
-86.7268
11
151.056
21
-86.781
0
LINE
8
BLACK
6
CONTINUOUS
10
151.056
20
-86.781
11
150.96
21
-86.8
0
LINE
8
BLACK
6
CONTINUOUS
10
150.96
20
-86.8
11
150.06
21
-86.8
0
LINE
8
BLACK
6
CONTINUOUS
10
150.06
20
-86.8
11
149.964
21
-86.781
0
LINE
8
BLACK
6
CONTINUOUS
10
149.964
20
-86.781
11
149.883
21
-86.7268
0
LINE
8
BLACK
6
CONTINUOUS
10
149.883
20
-86.7268
11
149.829
21
-86.6457
0
LINE
8
BLACK
6
CONTINUOUS
10
149.829
20
-86.6457
11
149.81
21
-86.55
0
LINE
8
BLACK
6
CONTINUOUS
10
149.81
20
-86.55
11
149.81
21
-85.85
0
LINE
8
BLACK
6
CONTINUOUS
10
149.81
20
-85.85
11
149.829
21
-85.7543
0
LINE
8
BLACK
6
CONTINUOUS
10
149.829
20
-85.7543
11
149.883
21
-85.6732
0
LINE
8
BLACK
6
CONTINUOUS
10
149.883
20
-85.6732
11
149.964
21
-85.619
0
LINE
8
BLACK
6
CONTINUOUS
10
149.964
20
-85.619
11
150.06
21
-85.6
0
LINE
8
BLACK
6
CONTINUOUS
10
150.06
20
-85.6
11
150.96
21
-85.6
0
LINE
8
BLACK
6
CONTINUOUS
10
150.96
20
-85.6
11
151.056
21
-85.619
0
LINE
8
BLACK
6
CONTINUOUS
10
153.056
20
-84.919
11
153.137
21
-84.9732
0
LINE
8
BLACK
6
CONTINUOUS
10
153.137
20
-84.9732
11
153.191
21
-85.0543
0
LINE
8
BLACK
6
CONTINUOUS
10
153.191
20
-85.0543
11
153.21
21
-85.15
0
LINE
8
BLACK
6
CONTINUOUS
10
153.21
20
-85.15
11
153.21
21
-85.85
0
LINE
8
BLACK
6
CONTINUOUS
10
153.21
20
-85.85
11
153.191
21
-85.9457
0
LINE
8
BLACK
6
CONTINUOUS
10
153.191
20
-85.9457
11
153.137
21
-86.0268
0
LINE
8
BLACK
6
CONTINUOUS
10
153.137
20
-86.0268
11
153.056
21
-86.081
0
LINE
8
BLACK
6
CONTINUOUS
10
153.056
20
-86.081
11
152.96
21
-86.1
0
LINE
8
BLACK
6
CONTINUOUS
10
152.96
20
-86.1
11
152.06
21
-86.1
0
LINE
8
BLACK
6
CONTINUOUS
10
152.06
20
-86.1
11
151.964
21
-86.081
0
LINE
8
BLACK
6
CONTINUOUS
10
151.964
20
-86.081
11
151.883
21
-86.0268
0
LINE
8
BLACK
6
CONTINUOUS
10
151.883
20
-86.0268
11
151.829
21
-85.9457
0
LINE
8
BLACK
6
CONTINUOUS
10
151.829
20
-85.9457
11
151.81
21
-85.85
0
LINE
8
BLACK
6
CONTINUOUS
10
151.81
20
-85.85
11
151.81
21
-85.15
0
LINE
8
BLACK
6
CONTINUOUS
10
151.81
20
-85.15
11
151.829
21
-85.0543
0
LINE
8
BLACK
6
CONTINUOUS
10
151.829
20
-85.0543
11
151.883
21
-84.9732
0
LINE
8
BLACK
6
CONTINUOUS
10
151.883
20
-84.9732
11
151.964
21
-84.919
0
LINE
8
BLACK
6
CONTINUOUS
10
151.964
20
-84.919
11
152.06
21
-84.9
0
LINE
8
BLACK
6
CONTINUOUS
10
152.06
20
-84.9
11
152.96
21
-84.9
0
LINE
8
BLACK
6
CONTINUOUS
10
152.96
20
-84.9
11
153.056
21
-84.919
0
LINE
8
BLACK
6
CONTINUOUS
10
153.056
20
-82.919
11
153.137
21
-82.9732
0
LINE
8
BLACK
6
CONTINUOUS
10
153.137
20
-82.9732
11
153.191
21
-83.0543
0
LINE
8
BLACK
6
CONTINUOUS
10
153.191
20
-83.0543
11
153.21
21
-83.15
0
LINE
8
BLACK
6
CONTINUOUS
10
153.21
20
-83.15
11
153.21
21
-83.85
0
LINE
8
BLACK
6
CONTINUOUS
10
153.21
20
-83.85
11
153.191
21
-83.9457
0
LINE
8
BLACK
6
CONTINUOUS
10
153.191
20
-83.9457
11
153.137
21
-84.0268
0
LINE
8
BLACK
6
CONTINUOUS
10
153.137
20
-84.0268
11
153.056
21
-84.081
0
LINE
8
BLACK
6
CONTINUOUS
10
153.056
20
-84.081
11
152.96
21
-84.1
0
LINE
8
BLACK
6
CONTINUOUS
10
152.96
20
-84.1
11
152.06
21
-84.1
0
LINE
8
BLACK
6
CONTINUOUS
10
152.06
20
-84.1
11
151.964
21
-84.081
0
LINE
8
BLACK
6
CONTINUOUS
10
151.964
20
-84.081
11
151.883
21
-84.0268
0
LINE
8
BLACK
6
CONTINUOUS
10
151.883
20
-84.0268
11
151.829
21
-83.9457
0
LINE
8
BLACK
6
CONTINUOUS
10
151.829
20
-83.9457
11
151.81
21
-83.85
0
LINE
8
BLACK
6
CONTINUOUS
10
151.81
20
-83.85
11
151.81
21
-83.15
0
LINE
8
BLACK
6
CONTINUOUS
10
151.81
20
-83.15
11
151.829
21
-83.0543
0
LINE
8
BLACK
6
CONTINUOUS
10
151.829
20
-83.0543
11
151.883
21
-82.9732
0
LINE
8
BLACK
6
CONTINUOUS
10
151.883
20
-82.9732
11
151.964
21
-82.919
0
LINE
8
BLACK
6
CONTINUOUS
10
151.964
20
-82.919
11
152.06
21
-82.9
0
LINE
8
BLACK
6
CONTINUOUS
10
152.06
20
-82.9
11
152.96
21
-82.9
0
LINE
8
BLACK
6
CONTINUOUS
10
152.96
20
-82.9
11
153.056
21
-82.919
0
LINE
8
BLACK
6
CONTINUOUS
10
133.706
20
-66.994
11
133.787
21
-67.0482
0
LINE
8
BLACK
6
CONTINUOUS
10
133.787
20
-67.0482
11
133.841
21
-67.1293
0
LINE
8
BLACK
6
CONTINUOUS
10
133.841
20
-67.1293
11
133.86
21
-67.225
0
LINE
8
BLACK
6
CONTINUOUS
10
133.86
20
-67.225
11
133.86
21
-68.175
0
LINE
8
BLACK
6
CONTINUOUS
10
133.86
20
-68.175
11
133.841
21
-68.2707
0
LINE
8
BLACK
6
CONTINUOUS
10
133.841
20
-68.2707
11
133.787
21
-68.3518
0
LINE
8
BLACK
6
CONTINUOUS
10
133.787
20
-68.3518
11
133.706
21
-68.406
0
LINE
8
BLACK
6
CONTINUOUS
10
133.706
20
-68.406
11
133.61
21
-68.425
0
LINE
8
BLACK
6
CONTINUOUS
10
133.61
20
-68.425
11
132.935
21
-68.425
0
LINE
8
BLACK
6
CONTINUOUS
10
132.935
20
-68.425
11
132.839
21
-68.406
0
LINE
8
BLACK
6
CONTINUOUS
10
132.839
20
-68.406
11
132.758
21
-68.3518
0
LINE
8
BLACK
6
CONTINUOUS
10
132.758
20
-68.3518
11
132.704
21
-68.2707
0
LINE
8
BLACK
6
CONTINUOUS
10
132.704
20
-68.2707
11
132.685
21
-68.175
0
LINE
8
BLACK
6
CONTINUOUS
10
132.685
20
-68.175
11
132.685
21
-67.225
0
LINE
8
BLACK
6
CONTINUOUS
10
132.685
20
-67.225
11
132.704
21
-67.1293
0
LINE
8
BLACK
6
CONTINUOUS
10
132.704
20
-67.1293
11
132.758
21
-67.0482
0
LINE
8
BLACK
6
CONTINUOUS
10
132.758
20
-67.0482
11
132.839
21
-66.994
0
LINE
8
BLACK
6
CONTINUOUS
10
132.839
20
-66.994
11
132.935
21
-66.975
0
LINE
8
BLACK
6
CONTINUOUS
10
132.935
20
-66.975
11
133.61
21
-66.975
0
LINE
8
BLACK
6
CONTINUOUS
10
133.61
20
-66.975
11
133.706
21
-66.994
0
LINE
8
BLACK
6
CONTINUOUS
10
135.781
20
-66.994
11
135.862
21
-67.0482
0
LINE
8
BLACK
6
CONTINUOUS
10
135.862
20
-67.0482
11
135.916
21
-67.1293
0
LINE
8
BLACK
6
CONTINUOUS
10
135.916
20
-67.1293
11
135.935
21
-67.225
0
LINE
8
BLACK
6
CONTINUOUS
10
135.935
20
-67.225
11
135.935
21
-68.175
0
LINE
8
BLACK
6
CONTINUOUS
10
135.935
20
-68.175
11
135.916
21
-68.2707
0
LINE
8
BLACK
6
CONTINUOUS
10
135.916
20
-68.2707
11
135.862
21
-68.3518
0
LINE
8
BLACK
6
CONTINUOUS
10
135.862
20
-68.3518
11
135.781
21
-68.406
0
LINE
8
BLACK
6
CONTINUOUS
10
135.781
20
-68.406
11
135.685
21
-68.425
0
LINE
8
BLACK
6
CONTINUOUS
10
135.685
20
-68.425
11
135.01
21
-68.425
0
LINE
8
BLACK
6
CONTINUOUS
10
135.01
20
-68.425
11
134.914
21
-68.406
0
LINE
8
BLACK
6
CONTINUOUS
10
134.914
20
-68.406
11
134.833
21
-68.3518
0
LINE
8
BLACK
6
CONTINUOUS
10
134.833
20
-68.3518
11
134.779
21
-68.2707
0
LINE
8
BLACK
6
CONTINUOUS
10
134.779
20
-68.2707
11
134.76
21
-68.175
0
LINE
8
BLACK
6
CONTINUOUS
10
134.76
20
-68.175
11
134.76
21
-67.225
0
LINE
8
BLACK
6
CONTINUOUS
10
134.76
20
-67.225
11
134.779
21
-67.1293
0
LINE
8
BLACK
6
CONTINUOUS
10
134.779
20
-67.1293
11
134.833
21
-67.0482
0
LINE
8
BLACK
6
CONTINUOUS
10
134.833
20
-67.0482
11
134.914
21
-66.994
0
LINE
8
BLACK
6
CONTINUOUS
10
134.914
20
-66.994
11
135.01
21
-66.975
0
LINE
8
BLACK
6
CONTINUOUS
10
135.01
20
-66.975
11
135.685
21
-66.975
0
LINE
8
BLACK
6
CONTINUOUS
10
135.685
20
-66.975
11
135.781
21
-66.994
0
LINE
8
BLACK
6
CONTINUOUS
10
133.756
20
-64.819
11
133.837
21
-64.8732
0
LINE
8
BLACK
6
CONTINUOUS
10
133.837
20
-64.8732
11
133.891
21
-64.9543
0
LINE
8
BLACK
6
CONTINUOUS
10
133.891
20
-64.9543
11
133.91
21
-65.05
0
LINE
8
BLACK
6
CONTINUOUS
10
133.91
20
-65.05
11
133.91
21
-65.95
0
LINE
8
BLACK
6
CONTINUOUS
10
133.91
20
-65.95
11
133.891
21
-66.0457
0
LINE
8
BLACK
6
CONTINUOUS
10
133.891
20
-66.0457
11
133.837
21
-66.1268
0
LINE
8
BLACK
6
CONTINUOUS
10
133.837
20
-66.1268
11
133.756
21
-66.181
0
LINE
8
BLACK
6
CONTINUOUS
10
133.756
20
-66.181
11
133.66
21
-66.2
0
LINE
8
BLACK
6
CONTINUOUS
10
133.66
20
-66.2
11
132.96
21
-66.2
0
LINE
8
BLACK
6
CONTINUOUS
10
132.96
20
-66.2
11
132.864
21
-66.181
0
LINE
8
BLACK
6
CONTINUOUS
10
132.864
20
-66.181
11
132.783
21
-66.1268
0
LINE
8
BLACK
6
CONTINUOUS
10
132.783
20
-66.1268
11
132.729
21
-66.0457
0
LINE
8
BLACK
6
CONTINUOUS
10
132.729
20
-66.0457
11
132.71
21
-65.95
0
LINE
8
BLACK
6
CONTINUOUS
10
132.71
20
-65.95
11
132.71
21
-65.05
0
LINE
8
BLACK
6
CONTINUOUS
10
132.71
20
-65.05
11
132.729
21
-64.9543
0
LINE
8
BLACK
6
CONTINUOUS
10
132.729
20
-64.9543
11
132.783
21
-64.8732
0
LINE
8
BLACK
6
CONTINUOUS
10
132.783
20
-64.8732
11
132.864
21
-64.819
0
LINE
8
BLACK
6
CONTINUOUS
10
132.864
20
-64.819
11
132.96
21
-64.8
0
LINE
8
BLACK
6
CONTINUOUS
10
132.96
20
-64.8
11
133.66
21
-64.8
0
LINE
8
BLACK
6
CONTINUOUS
10
133.66
20
-64.8
11
133.756
21
-64.819
0
LINE
8
BLACK
6
CONTINUOUS
10
135.756
20
-64.819
11
135.837
21
-64.8732
0
LINE
8
BLACK
6
CONTINUOUS
10
135.837
20
-64.8732
11
135.891
21
-64.9543
0
LINE
8
BLACK
6
CONTINUOUS
10
135.891
20
-64.9543
11
135.91
21
-65.05
0
LINE
8
BLACK
6
CONTINUOUS
10
135.91
20
-65.05
11
135.91
21
-65.95
0
LINE
8
BLACK
6
CONTINUOUS
10
135.91
20
-65.95
11
135.891
21
-66.0457
0
LINE
8
BLACK
6
CONTINUOUS
10
135.891
20
-66.0457
11
135.837
21
-66.1268
0
LINE
8
BLACK
6
CONTINUOUS
10
135.837
20
-66.1268
11
135.756
21
-66.181
0
LINE
8
BLACK
6
CONTINUOUS
10
135.756
20
-66.181
11
135.66
21
-66.2
0
LINE
8
BLACK
6
CONTINUOUS
10
135.66
20
-66.2
11
134.96
21
-66.2
0
LINE
8
BLACK
6
CONTINUOUS
10
134.96
20
-66.2
11
134.864
21
-66.181
0
LINE
8
BLACK
6
CONTINUOUS
10
134.864
20
-66.181
11
134.783
21
-66.1268
0
LINE
8
BLACK
6
CONTINUOUS
10
134.783
20
-66.1268
11
134.729
21
-66.0457
0
LINE
8
BLACK
6
CONTINUOUS
10
134.729
20
-66.0457
11
134.71
21
-65.95
0
LINE
8
BLACK
6
CONTINUOUS
10
134.71
20
-65.95
11
134.71
21
-65.05
0
LINE
8
BLACK
6
CONTINUOUS
10
134.71
20
-65.05
11
134.729
21
-64.9543
0
LINE
8
BLACK
6
CONTINUOUS
10
134.729
20
-64.9543
11
134.783
21
-64.8732
0
LINE
8
BLACK
6
CONTINUOUS
10
134.783
20
-64.8732
11
134.864
21
-64.819
0
LINE
8
BLACK
6
CONTINUOUS
10
134.864
20
-64.819
11
134.96
21
-64.8
0
LINE
8
BLACK
6
CONTINUOUS
10
134.96
20
-64.8
11
135.66
21
-64.8
0
LINE
8
BLACK
6
CONTINUOUS
10
135.66
20
-64.8
11
135.756
21
-64.819
  0
ENDSEC
  0
EOF
