<?xml version="1.0" standalone="no"?>
 <!DOCTYPE svg PUBLIC "-//W3C//DTD SVG 1.1//EN" 
 "http://www.w3.org/Graphics/SVG/1.1/DTD/svg11.dtd"> 
<svg
  xmlns:svg="http://www.w3.org/2000/svg"
  xmlns="http://www.w3.org/2000/svg"
  xmlns:xlink="http://www.w3.org/1999/xlink"
  version="1.1"
  width="297.0022mm" height="210.0072mm" viewBox="0.0000 0.0000 297.0022 210.0072">
<title>SVG Image created as GreenBean-Edge_Cuts.svg date 2023/08/08 15:30:36 </title>
  <desc>Image generated by PCBNEW </desc>
<g style="fill:#000000; fill-opacity:1.0000;stroke:#000000; stroke-opacity:1.0000;
stroke-linecap:round; stroke-linejoin:round;"
 transform="translate(0 0) scale(1 1)">
</g>
<g style="fill:#000000; fill-opacity:0.0; 
stroke:#000000; stroke-width:0.0000; stroke-opacity:1; 
stroke-linecap:round; stroke-linejoin:round;">
</g>
<g style="fill:#000000; fill-opacity:0.0; 
stroke:#000000; stroke-width:0.1500; stroke-opacity:1; 
stroke-linecap:round; stroke-linejoin:round;">
<path d="M145.4000 107.7500
L148.5000 107.7500
" />
<path d="M137.7000 109.5000
L140.6000 109.5000
" />
<path d="M128.0000 147.5000
L127.0000 146.5000
" />
<path d="M115.0000 134.5000
L115.0000 121.0000
" />
<path d="M135.3500 109.7500
L116.5000 109.7500
" />
<path d="M145.4000 109.5000
L148.0000 109.5000
" />
<path d="M148.7500 62.5000
L148.7500 52.0000
" />
<path d="M127.0000 146.5000
L115.0000 134.5000
" />
<path d="M115.0000 57.0000
L115.0000 108.2500
" />
<path d="M169.0000 141.0000
L158.0000 152.0000
" />
<path d="M133.5000 151.0000
L133.5000 148.5000
" />
<path d="M149.7500 111.2500
L164.7500 111.2500
" />
<path d="M148.5000 107.7500
L150.5000 109.7500
" />
<path d="M165.5000 52.0000
L170.5000 57.0000
" />
<path d="M169.0000 109.7500
L170.5000 108.2500
" />
<path d="M169.0000 133.5000
L170.5000 132.0000
" />
<path d="M116.5000 109.7500
L115.0000 108.2500
" />
<path d="M140.6000 107.7500
L140.6000 109.5000
" />
<path d="M137.3500 107.7500
L135.3500 109.7500
" />
<path d="M115.0000 57.0000
L120.0000 52.0000
" />
<path d="M170.5000 85.0000
L170.5000 57.0000
" />
<path d="M136.7500 62.5000
L148.7500 62.5000
" />
<path d="M136.7500 52.0000
L120.0000 52.0000
" />
<path d="M170.5000 112.7500
L169.0000 111.2500
" />
<path d="M135.9500 111.2500
L117.0000 111.2500
" />
<path d="M134.5000 152.0000
L158.0000 152.0000
" />
</g>
<g style="fill:#000000; fill-opacity:1.0000; 
stroke:#000000; stroke-width:0.0000; stroke-opacity:1; 
stroke-linecap:round; stroke-linejoin:round;">
<circle cx="116.5000" cy="109.7500" r="0.0750" /> 
</g>
<g style="fill:#000000; fill-opacity:1.0000; 
stroke:#000000; stroke-width:0.1500; stroke-opacity:1; 
stroke-linecap:round; stroke-linejoin:round;">
</g>
<g style="fill:#000000; fill-opacity:0.0; 
stroke:#000000; stroke-width:0.1500; stroke-opacity:1; 
stroke-linecap:round; stroke-linejoin:round;">
<path d="M137.7000 109.5000
L135.9500 111.2500
" />
<path d="M169.0000 133.5000
L169.0000 141.0000
" />
<path d="M170.5000 108.2500
L170.5000 85.0000
" />
<path d="M136.7500 52.0000
L136.7500 62.5000
" />
<path d="M134.5000 152.0000
L133.5000 151.0000
" />
<path d="M133.5000 148.5000
L132.5000 147.5000
" />
<path style="fill:#000000; fill-opacity:0.0; 
stroke:#000000; stroke-width:0.1500; stroke-opacity:1; 
stroke-linecap:round; stroke-linejoin:round;fill:none"
d="M 141.6700,107.7600
144.2900,107.7600
144.2900,109.4900
141.6700,109.4900
Z" /> 
<path d="M115.0000 112.7500
L115.0000 121.0000
" />
<path d="M148.7500 52.0000
L165.5000 52.0000
" />
<path d="M132.5000 147.5000
L128.5000 147.5000
" />
<path d="M145.4000 107.7500
L145.4000 109.5000
" />
<path d="M169.0000 111.2500
L164.7500 111.2500
" />
<path d="M116.5000 111.2500
L115.0000 112.7500
" />
<path d="M148.0000 109.5000
L149.7500 111.2500
" />
<path d="M170.5000 132.0000
L170.5000 112.7500
" />
<path d="M128.5000 147.5000
L128.0000 147.5000
" />
<path d="M137.3500 107.7500
L140.6000 107.7500
" />
<path d="M150.5000 109.7500
L169.0000 109.7500
" />
<path d="M117.0000 111.2500
L116.5000 111.2500
" />
<g >
</g>
<g >
</g>
<g >
</g>
<g >
</g>
<g >
</g>
<g >
</g>
<g >
</g>
<g >
</g>
<g >
</g>
<g >
</g>
<g >
</g>
<g >
</g>
<g >
</g>
<g >
</g>
<g >
</g>
<g >
</g>
<g >
</g>
<g >
</g>
<g >
</g>
<g >
</g>
<g >
</g>
<g >
</g>
<g >
</g>
<g >
</g>
<g >
</g>
<g >
</g>
<g >
</g>
<g >
</g>
<g >
</g>
<g >
</g>
<g >
</g>
<g >
</g>
<g >
</g>
<g >
</g>
<g >
</g>
<g >
</g>
<g >
</g>
<g >
</g>
<g >
</g>
<g >
</g>
<g >
</g>
<g >
</g>
<g >
</g>
<g >
</g>
<g >
</g>
<g >
</g>
<g >
</g>
<g >
</g>
<g >
</g>
<g >
</g>
<g >
</g>
<g >
</g>
<g >
</g>
<g >
</g>
<g >
</g>
<g >
</g>
<g >
</g>
<g >
</g>
<g >
</g>
<g >
</g>
<g >
</g>
<g >
</g>
<g >
</g>
<g >
</g>
<g >
</g>
<g >
</g>
</g> 
</svg>
