M48
; DRILL file {KiCad 7.0.5.1-1-g8f565ef7f0-dirty-deb11} date Wed Aug  9 09:00:20 2023
; FORMAT={-:-/ absolute / inch / decimal}
; #@! TF.CreationDate,2023-08-09T09:00:20+00:00
; #@! TF.GenerationSoftware,Kicad,Pcbnew,7.0.5.1-1-g8f565ef7f0-dirty-deb11
; #@! TF.FileFunction,Plated,1,2,PTH
FMAT,2
INCH
; #@! TA.AperFunction,Plated,PTH,ViaDrill
T1C0.0157
; #@! TA.AperFunction,Plated,PTH,ComponentDrill
T2C0.0295
; #@! TA.AperFunction,Plated,PTH,ComponentDrill
T3C0.0315
; #@! TA.AperFunction,Plated,PTH,ComponentDrill
T4C0.0354
; #@! TA.AperFunction,Plated,PTH,ComponentDrill
T5C0.0394
; #@! TA.AperFunction,Plated,PTH,ComponentDrill
T6C0.0394
; #@! TA.AperFunction,Plated,PTH,ComponentDrill
T7C0.0433
; #@! TA.AperFunction,Plated,PTH,ComponentDrill
T8C0.0492
; #@! TA.AperFunction,Plated,PTH,ComponentDrill
T9C0.0551
%
G90
G05
T1
X4.9098Y-4.2008
X5.3114Y-3.7126
X5.3626Y-3.5906
X5.5201Y-3.3976
X5.524Y-3.5906
X5.6894Y-3.9961
X5.713Y-4.0945
X5.7366Y-3.874
X5.8547Y-3.9646
X5.8902Y-4.2441
X5.9886Y-3.815
X6.087Y-4.2874
X6.1008Y-3.8484
T2
X4.961Y-4.0669
X5.011Y-4.0169
X5.011Y-4.1169
X6.0717Y-4.1358
X6.1217Y-4.1858
X6.1717Y-4.1358
T3
X5.0122Y-3.5848
X5.0122Y-3.6832
X6.3406Y-5.315
X6.378Y-5.5197
X6.378Y-5.6181
X6.4059Y-4.0906
X6.4059Y-4.189
X6.5374Y-5.315
T4
X5.9256Y-3.5604
X5.9256Y-3.6604
X6.1067Y-3.56
X6.1067Y-3.66
T5
X5.2957Y-2.1654
X5.2957Y-2.2654
X5.4756Y-4.1654
X5.4756Y-4.3839
X5.5748Y-4.5988
X5.5756Y-4.1654
X5.5756Y-4.3839
X5.6748Y-4.5988
X5.6756Y-4.1654
X5.6756Y-4.3839
X5.7756Y-4.1654
X5.7756Y-4.3839
T6
X4.8228Y-5.315
X4.8228Y-5.415
X5.0299Y-5.3142
X5.0299Y-5.6142
X5.1579Y-5.315
X5.1579Y-5.615
X6.122Y-5.315
X6.122Y-5.615
T7
X4.7248Y-3.0097
X4.7248Y-3.1261
X4.7524Y-3.5953
X4.7524Y-3.9953
X4.9217Y-3.0097
X4.9217Y-3.1261
X5.1185Y-3.0097
X5.1185Y-3.1261
X6.1224Y-3.0138
X6.1224Y-3.1163
X6.3193Y-3.0138
X6.3193Y-3.1163
X6.5161Y-3.0138
X6.5161Y-3.1163
T9
X4.8154Y-4.5079
X4.8154Y-5.1469
X5.0654Y-4.5079
X5.0654Y-5.1469
X5.3154Y-4.5079
X5.3154Y-5.1469
X5.9281Y-4.5079
X5.9281Y-5.1469
X6.1781Y-4.5079
X6.1781Y-5.1469
X6.4281Y-4.5079
X6.4281Y-5.1469
T5
G00X5.4557Y-5.4262
M15
G01X5.4065Y-5.4262
M16
G05
G00X5.4557Y-5.6112
M15
G01X5.4065Y-5.6112
M16
G05
G00X5.4557Y-5.7963
M15
G01X5.4065Y-5.7963
M16
G05
G00X5.6644Y-5.4262
M15
G01X5.6152Y-5.4262
M16
G05
G00X5.6644Y-5.6122
M15
G01X5.6152Y-5.6122
M16
G05
G00X5.6644Y-5.7963
M15
G01X5.6152Y-5.7963
M16
G05
G00X5.873Y-5.4262
M15
G01X5.8238Y-5.4262
M16
G05
G00X5.873Y-5.6112
M15
G01X5.8238Y-5.6112
M16
G05
G00X5.873Y-5.7963
M15
G01X5.8238Y-5.7963
M16
G05
T8
G00X5.5939Y-2.8937
M15
G01X5.6431Y-2.8937
M16
G05
G00X5.5939Y-3.0689
M15
G01X5.6431Y-3.0689
M16
G05
G00X5.5939Y-3.2441
M15
G01X5.6431Y-3.2441
M16
G05
T0
M30
