<?xml version="1.0" standalone="no"?>
 <!DOCTYPE svg PUBLIC "-//W3C//DTD SVG 1.1//EN" 
 "http://www.w3.org/Graphics/SVG/1.1/DTD/svg11.dtd"> 
<svg
  xmlns:svg="http://www.w3.org/2000/svg"
  xmlns="http://www.w3.org/2000/svg"
  xmlns:xlink="http://www.w3.org/1999/xlink"
  version="1.1"
  width="297.0022mm" height="210.0072mm" viewBox="0.0000 0.0000 297.0022 210.0072">
<title>SVG Image created as GreenBean-F_Courtyard.svg date 2023/08/08 15:31:00 </title>
  <desc>Image generated by PCBNEW </desc>
<g style="fill:#000000; fill-opacity:1.0000;stroke:#000000; stroke-opacity:1.0000;
stroke-linecap:round; stroke-linejoin:round;"
 transform="translate(0 0) scale(1 1)">
</g>
<g style="fill:#000000; fill-opacity:0.0; 
stroke:#000000; stroke-width:0.0000; stroke-opacity:1; 
stroke-linecap:round; stroke-linejoin:round;">
</g>
<g style="fill:#000000; fill-opacity:0.0; 
stroke:#000000; stroke-width:0.0500; stroke-opacity:1; 
stroke-linecap:round; stroke-linejoin:round;">
<path d="M142.3400 112.5000
L142.3400 132.7300
" />
<path d="M142.3400 112.5000
L114.8100 112.5000
" />
<path d="M114.8100 132.7300
L142.3400 132.7300
" />
<path d="M114.8100 112.5000
L114.8100 132.7300
" />
<path d="M132.7100 53.2000
L132.7100 59.3500
" />
<path d="M132.7100 59.3500
L136.3100 59.3500
" />
<path d="M136.3100 53.2000
L132.7100 53.2000
" />
<path d="M136.3100 59.3500
L136.3100 53.2000
" />
<path d="M148.5000 109.5500
L137.3000 109.5500
" />
<path d="M137.3000 109.5500
L137.3000 113.1500
" />
<path d="M148.5000 113.1500
L148.5000 109.5500
" />
<path d="M137.3000 113.1500
L148.5000 113.1500
" />
<path d="M148.5000 104.0000
L137.3000 104.0000
" />
<path d="M137.3000 104.0000
L137.3000 107.6000
" />
<path d="M148.5000 107.6000
L148.5000 104.0000
" />
<path d="M137.3000 107.6000
L148.5000 107.6000
" />
<path d="M166.3500 137.1000
L157.6500 137.1000
" />
<path d="M157.6500 137.1000
L157.6500 145.8000
" />
<path d="M166.3500 145.8000
L166.3500 137.1000
" />
<path d="M157.6500 145.8000
L166.3500 145.8000
" />
<path d="M120.9500 139.0400
L124.0500 139.0400
" />
<path d="M124.0500 139.0400 A3.2004 3.2004 0.0 1 0 120.9468 139.0382" />
<path d="M157.0000 133.7500
L157.0000 143.8500
" />
<path d="M154.0000 133.7500
L157.0000 133.7500
" />
<path d="M154.0000 133.7500
L154.0000 143.8500
" />
<path d="M157.0000 143.8500
L154.0000 143.8500
" />
<path d="M126.2600 143.8500
L126.2600 133.7500
" />
<path d="M129.2600 143.8500
L126.2600 143.8500
" />
<path d="M129.2600 143.8500
L129.2600 133.7500
" />
<path d="M126.2600 133.7500
L129.2600 133.7500
" />
<path d="M132.5100 133.7500
L132.5100 143.8500
" />
<path d="M129.5100 133.7500
L132.5100 133.7500
" />
<path d="M129.5100 133.7500
L129.5100 143.8500
" />
<path d="M132.5100 143.8500
L129.5100 143.8500
" />
<path d="M159.8000 133.0000
L167.3000 133.0000
" />
<path d="M159.8000 137.0000
L159.8000 133.0000
" />
<path d="M167.3000 133.0000
L167.3000 137.0000
" />
<path d="M167.3000 137.0000
L159.8000 137.0000
" />
<path d="M145.9400 115.0100
L139.7900 115.0100
" />
<path d="M139.7900 115.0100
L139.7900 118.6100
" />
<path d="M145.9400 118.6100
L145.9400 115.0100
" />
<path d="M139.7900 118.6100
L145.9400 118.6100
" />
<path d="M143.2450 132.7300
L143.2450 112.5000
" />
<path d="M143.2450 132.7300
L170.7750 132.7300
" />
<path d="M170.7750 112.5000
L143.2450 112.5000
" />
<path d="M170.7750 132.7300
L170.7750 112.5000
" />
<path d="M141.4600 98.0500
L145.1600 98.0500
" />
<path d="M141.4600 99.9500
L141.4600 98.0500
" />
<path d="M145.1600 98.0500
L145.1600 99.9500
" />
<path d="M145.1600 99.9500
L141.4600 99.9500
" />
<path d="M139.9600 84.2000
L139.9600 71.7000
" />
<path d="M145.4600 84.2000
L139.9600 84.2000
" />
<path d="M139.9600 71.7000
L145.4600 71.7000
" />
<path d="M145.4600 71.7000
L145.4600 84.2000
" />
<path d="M148.2600 94.1250
L152.7600 94.1250
" />
<path d="M152.7600 94.1250
L152.7600 89.2750
" />
<path d="M148.2600 89.2750
L148.2600 94.1250
" />
<path d="M152.7600 89.2750
L148.2600 89.2750
" />
<path d="M133.1600 107.8500
L129.4600 107.8500
" />
<path d="M133.1600 105.9500
L133.1600 107.8500
" />
<path d="M129.4600 107.8500
L129.4600 105.9500
" />
<path d="M129.4600 105.9500
L133.1600 105.9500
" />
<path d="M157.3600 89.2750
L152.8600 89.2750
" />
<path d="M152.8600 89.2750
L152.8600 94.1250
" />
<path d="M157.3600 94.1250
L157.3600 89.2750
" />
<path d="M152.8600 94.1250
L157.3600 94.1250
" />
<path d="M138.7600 99.1500
L138.7600 102.8500
" />
<path d="M136.8600 99.1500
L138.7600 99.1500
" />
<path d="M138.7600 102.8500
L136.8600 102.8500
" />
<path d="M136.8600 102.8500
L136.8600 99.1500
" />
<path d="M134.7300 96.3200
L138.4900 96.3200
" />
<path d="M134.7300 98.2800
L134.7300 96.3200
" />
<path d="M138.4900 96.3200
L138.4900 98.2800
" />
<path d="M138.4900 98.2800
L134.7300 98.2800
" />
<path d="M133.3600 105.9500
L137.0600 105.9500
" />
<path d="M133.3600 107.8500
L133.3600 105.9500
" />
<path d="M137.0600 105.9500
L137.0600 107.8500
" />
<path d="M137.0600 107.8500
L133.3600 107.8500
" />
<path d="M146.5100 90.2000
L141.1100 90.2000
" />
<path d="M141.1100 90.2000
L141.1100 97.6000
" />
<path d="M146.5100 97.6000
L146.5100 90.2000
" />
<path d="M141.1100 97.6000
L146.5100 97.6000
" />
<path d="M123.9600 103.6500
L123.9600 107.3500
" />
<path d="M122.0600 103.6500
L123.9600 103.6500
" />
<path d="M123.9600 107.3500
L122.0600 107.3500
" />
<path d="M122.0600 107.3500
L122.0600 103.6500
" />
<path d="M143.7100 87.6500
L143.7100 89.9500
" />
<path d="M143.7100 87.6500
L148.1100 87.6500
" />
<path d="M148.1100 87.6500
L148.1100 89.9500
" />
<path d="M148.1100 89.9500
L143.7100 89.9500
" />
<path d="M156.3900 100.8800
L152.6300 100.8800
" />
<path d="M156.3900 98.9200
L156.3900 100.8800
" />
<path d="M152.6300 100.8800
L152.6300 98.9200
" />
<path d="M152.6300 98.9200
L156.3900 98.9200
" />
<path d="M148.1100 87.5500
L148.1100 85.2500
" />
<path d="M148.1100 87.5500
L143.7100 87.5500
" />
<path d="M143.7100 87.5500
L143.7100 85.2500
" />
<path d="M143.7100 85.2500
L148.1100 85.2500
" />
<circle cx="127.3100" cy="92.3027" r="4.2500" /> 
<path d="M157.1900 88.4800
L153.4300 88.4800
" />
<path d="M157.1900 86.5200
L157.1900 88.4800
" />
<path d="M153.4300 88.4800
L153.4300 86.5200
" />
<path d="M153.4300 86.5200
L157.1900 86.5200
" />
<path d="M158.4600 102.8500
L154.7600 102.8500
" />
<path d="M158.4600 100.9500
L158.4600 102.8500
" />
<path d="M154.7600 102.8500
L154.7600 100.9500
" />
<path d="M154.7600 100.9500
L158.4600 100.9500
" />
<path d="M148.6300 101.8200
L152.3900 101.8200
" />
<path d="M148.6300 103.7800
L148.6300 101.8200
" />
<path d="M152.3900 101.8200
L152.3900 103.7800
" />
<path d="M152.3900 103.7800
L148.6300 103.7800
" />
<path d="M139.5600 92.5500
L139.5600 96.2500
" />
<path d="M137.6600 92.5500
L139.5600 92.5500
" />
<path d="M139.5600 96.2500
L137.6600 96.2500
" />
<path d="M137.6600 96.2500
L137.6600 92.5500
" />
<path d="M132.4600 64.5500
L136.1600 64.5500
" />
<path d="M132.4600 66.4500
L132.4600 64.5500
" />
<path d="M136.1600 64.5500
L136.1600 66.4500
" />
<path d="M136.1600 66.4500
L132.4600 66.4500
" />
<path d="M160.4900 98.5800
L156.7300 98.5800
" />
<path d="M160.4900 96.6200
L160.4900 98.5800
" />
<path d="M156.7300 98.5800
L156.7300 96.6200
" />
<path d="M156.7300 96.6200
L160.4900 96.6200
" />
<path d="M150.6600 107.6500
L150.6600 103.9500
" />
<path d="M152.5600 107.6500
L150.6600 107.6500
" />
<path d="M150.6600 103.9500
L152.5600 103.9500
" />
<path d="M152.5600 103.9500
L152.5600 107.6500
" />
<path d="M136.1900 68.6800
L132.4300 68.6800
" />
<path d="M136.1900 66.7200
L136.1900 68.6800
" />
<path d="M132.4300 68.6800
L132.4300 66.7200
" />
<path d="M132.4300 66.7200
L136.1900 66.7200
" />
<path d="M152.3600 101.6500
L148.6600 101.6500
" />
<path d="M152.3600 99.7500
L152.3600 101.6500
" />
<path d="M148.6600 101.6500
L148.6600 99.7500
" />
<path d="M148.6600 99.7500
L152.3600 99.7500
" />
<path d="M158.2200 108.1000
L152.7600 108.1000
" />
<path d="M158.2100 108.1000
L158.2200 103.0400
" />
<path d="M152.7600 103.0400
L158.2200 103.0400
" />
<path d="M152.7600 103.0400
L152.7600 108.1000
" />
<path d="M150.6600 107.7500
L154.3600 107.7500
" />
<path d="M150.6600 109.6500
L150.6600 107.7500
" />
<path d="M154.3600 107.7500
L154.3600 109.6500
" />
<path d="M154.3600 109.6500
L150.6600 109.6500
" />
<path d="M118.2600 103.5500
L121.9600 103.5500
" />
<path d="M118.2600 105.4500
L118.2600 103.5500
" />
<path d="M121.9600 103.5500
L121.9600 105.4500
" />
<path d="M121.9600 105.4500
L118.2600 105.4500
" />
<circle cx="162.7100" cy="105.1500" r="4.2500" /> 
<path d="M129.4600 101.8500
L133.1600 101.8500
" />
<path d="M129.4600 103.7500
L129.4600 101.8500
" />
<path d="M133.1600 101.8500
L133.1600 103.7500
" />
<path d="M133.1600 103.7500
L129.4600 103.7500
" />
<path d="M131.8300 99.1800
L131.8300 95.4200
" />
<path d="M133.7900 99.1800
L131.8300 99.1800
" />
<path d="M131.8300 95.4200
L133.7900 95.4200
" />
<path d="M133.7900 95.4200
L133.7900 99.1800
" />
<path d="M133.1900 101.7800
L129.4300 101.7800
" />
<path d="M133.1900 99.8200
L133.1900 101.7800
" />
<path d="M129.4300 101.7800
L129.4300 99.8200
" />
<path d="M129.4300 99.8200
L133.1900 99.8200
" />
<path d="M157.3675 86.5200
L161.1275 86.5200
" />
<path d="M157.3675 88.4800
L157.3675 86.5200
" />
<path d="M161.1275 86.5200
L161.1275 88.4800
" />
<path d="M161.1275 88.4800
L157.3675 88.4800
" />
<path d="M129.4600 103.8500
L133.1600 103.8500
" />
<path d="M129.4600 105.7500
L129.4600 103.8500
" />
<path d="M133.1600 103.8500
L133.1600 105.7500
" />
<path d="M133.1600 105.7500
L129.4600 105.7500
" />
<path d="M124.2300 106.0300
L124.2300 100.5700
" />
<path d="M124.2300 106.0200
L129.2900 106.0300
" />
<path d="M129.2900 100.5700
L129.2900 106.0300
" />
<path d="M129.2900 100.5700
L124.2300 100.5700
" />
<path d="M161.2100 92.3200
L164.6100 92.3200
" />
<path d="M164.6100 92.3200
L164.6100 88.4800
" />
<path d="M161.2100 88.4800
L161.2100 92.3200
" />
<path d="M164.6100 88.4800
L161.2100 88.4800
" />
<path d="M151.5600 86.3500
L151.5600 82.6500
" />
<path d="M153.4600 86.3500
L151.5600 86.3500
" />
<path d="M151.5600 82.6500
L153.4600 82.6500
" />
<path d="M153.4600 82.6500
L153.4600 86.3500
" />
<path d="M151.4600 85.3500
L151.4600 89.0500
" />
<path d="M149.5600 85.3500
L151.4600 85.3500
" />
<path d="M151.4600 89.0500
L149.5600 89.0500
" />
<path d="M149.5600 89.0500
L149.5600 85.3500
" />
<path d="M157.8300 93.6800
L157.8300 89.9200
" />
<path d="M159.7900 93.6800
L157.8300 93.6800
" />
<path d="M157.8300 89.9200
L159.7900 89.9200
" />
<path d="M159.7900 89.9200
L159.7900 93.6800
" />
<path d="M133.3300 103.8200
L137.0900 103.8200
" />
<path d="M133.3300 105.7800
L133.3300 103.8200
" />
<path d="M137.0900 103.8200
L137.0900 105.7800
" />
<path d="M137.0900 105.7800
L133.3300 105.7800
" />
<path d="M164.5600 92.4175
L161.1600 92.4175
" />
<path d="M161.1600 92.4175
L161.1600 96.2575
" />
<path d="M164.5600 96.2575
L164.5600 92.4175
" />
<path d="M161.1600 96.2575
L164.5600 96.2575
" />
<path d="M131.8600 95.3500
L131.8600 91.6500
" />
<path d="M133.7600 95.3500
L131.8600 95.3500
" />
<path d="M131.8600 91.6500
L133.7600 91.6500
" />
<path d="M133.7600 91.6500
L133.7600 95.3500
" />
<path d="M160.9100 96.4500
L160.9100 94.1500
" />
<path d="M160.9100 96.4500
L156.5100 96.4500
" />
<path d="M156.5100 96.4500
L156.5100 94.1500
" />
<path d="M156.5100 94.1500
L160.9100 94.1500
" />
<path d="M118.2600 105.5500
L121.9600 105.5500
" />
<path d="M118.2600 107.4500
L118.2600 105.5500
" />
<path d="M121.9600 105.5500
L121.9600 107.4500
" />
<path d="M121.9600 107.4500
L118.2600 107.4500
" />
<path d="M148.6600 107.6500
L148.6600 103.9500
" />
<path d="M150.5600 107.6500
L148.6600 107.6500
" />
<path d="M148.6600 103.9500
L150.5600 103.9500
" />
<path d="M150.5600 103.9500
L150.5600 107.6500
" />
<path d="M119.1100 102.8300
L122.3100 102.8300
" />
<path d="M122.3100 102.8300
L122.3100 89.9700
" />
<path d="M119.1100 89.9700
L119.1100 102.8300
" />
<path d="M122.3100 89.9700
L119.1100 89.9700
" />
<g >
</g>
<g >
</g>
<g >
</g>
<g >
</g>
<g >
</g>
<g >
</g>
<g >
</g>
<g >
</g>
<g >
</g>
<g >
</g>
<g >
</g>
<g >
</g>
<g >
</g>
<g >
</g>
<g >
</g>
<g >
</g>
<g >
</g>
<g >
</g>
<g >
</g>
<g >
</g>
<g >
</g>
<g >
</g>
<g >
</g>
<g >
</g>
<g >
</g>
<g >
</g>
<g >
</g>
<g >
</g>
<g >
</g>
<g >
</g>
<g >
</g>
<g >
</g>
<g >
</g>
<g >
</g>
<g >
</g>
<g >
</g>
<g >
</g>
<g >
</g>
<g >
</g>
<g >
</g>
<g >
</g>
<g >
</g>
<g >
</g>
<g >
</g>
<g >
</g>
<g >
</g>
<g >
</g>
<g >
</g>
<g >
</g>
<g >
</g>
<g >
</g>
<g >
</g>
<g >
</g>
<g >
</g>
<g >
</g>
<g >
</g>
<g >
</g>
<g >
</g>
<g >
</g>
<g >
</g>
<g >
</g>
<g >
</g>
<g >
</g>
<g >
</g>
<g >
</g>
<g >
</g>
</g> 
</svg>
