G04 #@! TF.GenerationSoftware,KiCad,Pcbnew,7.0.5.1-1-g8f565ef7f0-dirty-deb11*
G04 #@! TF.CreationDate,2023-08-08T15:24:37+00:00*
G04 #@! TF.ProjectId,GreenBean,47726565-6e42-4656-916e-2e6b69636164,rev?*
G04 #@! TF.SameCoordinates,Original*
G04 #@! TF.FileFunction,Paste,Top*
G04 #@! TF.FilePolarity,Positive*
%FSLAX46Y46*%
G04 Gerber Fmt 4.6, Leading zero omitted, Abs format (unit mm)*
G04 Created by KiCad (PCBNEW 7.0.5.1-1-g8f565ef7f0-dirty-deb11) date 2023-08-08 15:24:37*
%MOMM*%
%LPD*%
G01*
G04 APERTURE LIST*
G04 APERTURE END LIST*
G36*
G01*
X141710000Y-99450000D02*
X141710000Y-98550000D01*
G75*
G02*
X141960000Y-98300000I250000J0D01*
G01*
X142660000Y-98300000D01*
G75*
G02*
X142910000Y-98550000I0J-250000D01*
G01*
X142910000Y-99450000D01*
G75*
G02*
X142660000Y-99700000I-250000J0D01*
G01*
X141960000Y-99700000D01*
G75*
G02*
X141710000Y-99450000I0J250000D01*
G01*
G37*
G36*
G01*
X143710000Y-99450000D02*
X143710000Y-98550000D01*
G75*
G02*
X143960000Y-98300000I250000J0D01*
G01*
X144660000Y-98300000D01*
G75*
G02*
X144910000Y-98550000I0J-250000D01*
G01*
X144910000Y-99450000D01*
G75*
G02*
X144660000Y-99700000I-250000J0D01*
G01*
X143960000Y-99700000D01*
G75*
G02*
X143710000Y-99450000I0J250000D01*
G01*
G37*
G36*
G01*
X132910000Y-106450000D02*
X132910000Y-107350000D01*
G75*
G02*
X132660000Y-107600000I-250000J0D01*
G01*
X131960000Y-107600000D01*
G75*
G02*
X131710000Y-107350000I0J250000D01*
G01*
X131710000Y-106450000D01*
G75*
G02*
X131960000Y-106200000I250000J0D01*
G01*
X132660000Y-106200000D01*
G75*
G02*
X132910000Y-106450000I0J-250000D01*
G01*
G37*
G36*
G01*
X130910000Y-106450000D02*
X130910000Y-107350000D01*
G75*
G02*
X130660000Y-107600000I-250000J0D01*
G01*
X129960000Y-107600000D01*
G75*
G02*
X129710000Y-107350000I0J250000D01*
G01*
X129710000Y-106450000D01*
G75*
G02*
X129960000Y-106200000I250000J0D01*
G01*
X130660000Y-106200000D01*
G75*
G02*
X130910000Y-106450000I0J-250000D01*
G01*
G37*
G36*
G01*
X137360000Y-99400000D02*
X138260000Y-99400000D01*
G75*
G02*
X138510000Y-99650000I0J-250000D01*
G01*
X138510000Y-100350000D01*
G75*
G02*
X138260000Y-100600000I-250000J0D01*
G01*
X137360000Y-100600000D01*
G75*
G02*
X137110000Y-100350000I0J250000D01*
G01*
X137110000Y-99650000D01*
G75*
G02*
X137360000Y-99400000I250000J0D01*
G01*
G37*
G36*
G01*
X137360000Y-101400000D02*
X138260000Y-101400000D01*
G75*
G02*
X138510000Y-101650000I0J-250000D01*
G01*
X138510000Y-102350000D01*
G75*
G02*
X138260000Y-102600000I-250000J0D01*
G01*
X137360000Y-102600000D01*
G75*
G02*
X137110000Y-102350000I0J250000D01*
G01*
X137110000Y-101650000D01*
G75*
G02*
X137360000Y-101400000I250000J0D01*
G01*
G37*
G36*
G01*
X134985000Y-97775000D02*
X134985000Y-96825000D01*
G75*
G02*
X135235000Y-96575000I250000J0D01*
G01*
X135910000Y-96575000D01*
G75*
G02*
X136160000Y-96825000I0J-250000D01*
G01*
X136160000Y-97775000D01*
G75*
G02*
X135910000Y-98025000I-250000J0D01*
G01*
X135235000Y-98025000D01*
G75*
G02*
X134985000Y-97775000I0J250000D01*
G01*
G37*
G36*
G01*
X137060000Y-97775000D02*
X137060000Y-96825000D01*
G75*
G02*
X137310000Y-96575000I250000J0D01*
G01*
X137985000Y-96575000D01*
G75*
G02*
X138235000Y-96825000I0J-250000D01*
G01*
X138235000Y-97775000D01*
G75*
G02*
X137985000Y-98025000I-250000J0D01*
G01*
X137310000Y-98025000D01*
G75*
G02*
X137060000Y-97775000I0J250000D01*
G01*
G37*
G36*
G01*
X133610000Y-107350000D02*
X133610000Y-106450000D01*
G75*
G02*
X133860000Y-106200000I250000J0D01*
G01*
X134560000Y-106200000D01*
G75*
G02*
X134810000Y-106450000I0J-250000D01*
G01*
X134810000Y-107350000D01*
G75*
G02*
X134560000Y-107600000I-250000J0D01*
G01*
X133860000Y-107600000D01*
G75*
G02*
X133610000Y-107350000I0J250000D01*
G01*
G37*
G36*
G01*
X135610000Y-107350000D02*
X135610000Y-106450000D01*
G75*
G02*
X135860000Y-106200000I250000J0D01*
G01*
X136560000Y-106200000D01*
G75*
G02*
X136810000Y-106450000I0J-250000D01*
G01*
X136810000Y-107350000D01*
G75*
G02*
X136560000Y-107600000I-250000J0D01*
G01*
X135860000Y-107600000D01*
G75*
G02*
X135610000Y-107350000I0J250000D01*
G01*
G37*
G36*
G01*
X145565000Y-90450000D02*
X145865000Y-90450000D01*
G75*
G02*
X146015000Y-90600000I0J-150000D01*
G01*
X146015000Y-92050000D01*
G75*
G02*
X145865000Y-92200000I-150000J0D01*
G01*
X145565000Y-92200000D01*
G75*
G02*
X145415000Y-92050000I0J150000D01*
G01*
X145415000Y-90600000D01*
G75*
G02*
X145565000Y-90450000I150000J0D01*
G01*
G37*
G36*
G01*
X144295000Y-90450000D02*
X144595000Y-90450000D01*
G75*
G02*
X144745000Y-90600000I0J-150000D01*
G01*
X144745000Y-92050000D01*
G75*
G02*
X144595000Y-92200000I-150000J0D01*
G01*
X144295000Y-92200000D01*
G75*
G02*
X144145000Y-92050000I0J150000D01*
G01*
X144145000Y-90600000D01*
G75*
G02*
X144295000Y-90450000I150000J0D01*
G01*
G37*
G36*
G01*
X143025000Y-90450000D02*
X143325000Y-90450000D01*
G75*
G02*
X143475000Y-90600000I0J-150000D01*
G01*
X143475000Y-92050000D01*
G75*
G02*
X143325000Y-92200000I-150000J0D01*
G01*
X143025000Y-92200000D01*
G75*
G02*
X142875000Y-92050000I0J150000D01*
G01*
X142875000Y-90600000D01*
G75*
G02*
X143025000Y-90450000I150000J0D01*
G01*
G37*
G36*
G01*
X141755000Y-90450000D02*
X142055000Y-90450000D01*
G75*
G02*
X142205000Y-90600000I0J-150000D01*
G01*
X142205000Y-92050000D01*
G75*
G02*
X142055000Y-92200000I-150000J0D01*
G01*
X141755000Y-92200000D01*
G75*
G02*
X141605000Y-92050000I0J150000D01*
G01*
X141605000Y-90600000D01*
G75*
G02*
X141755000Y-90450000I150000J0D01*
G01*
G37*
G36*
G01*
X141755000Y-95600000D02*
X142055000Y-95600000D01*
G75*
G02*
X142205000Y-95750000I0J-150000D01*
G01*
X142205000Y-97200000D01*
G75*
G02*
X142055000Y-97350000I-150000J0D01*
G01*
X141755000Y-97350000D01*
G75*
G02*
X141605000Y-97200000I0J150000D01*
G01*
X141605000Y-95750000D01*
G75*
G02*
X141755000Y-95600000I150000J0D01*
G01*
G37*
G36*
G01*
X143025000Y-95600000D02*
X143325000Y-95600000D01*
G75*
G02*
X143475000Y-95750000I0J-150000D01*
G01*
X143475000Y-97200000D01*
G75*
G02*
X143325000Y-97350000I-150000J0D01*
G01*
X143025000Y-97350000D01*
G75*
G02*
X142875000Y-97200000I0J150000D01*
G01*
X142875000Y-95750000D01*
G75*
G02*
X143025000Y-95600000I150000J0D01*
G01*
G37*
G36*
G01*
X144295000Y-95600000D02*
X144595000Y-95600000D01*
G75*
G02*
X144745000Y-95750000I0J-150000D01*
G01*
X144745000Y-97200000D01*
G75*
G02*
X144595000Y-97350000I-150000J0D01*
G01*
X144295000Y-97350000D01*
G75*
G02*
X144145000Y-97200000I0J150000D01*
G01*
X144145000Y-95750000D01*
G75*
G02*
X144295000Y-95600000I150000J0D01*
G01*
G37*
G36*
G01*
X145565000Y-95600000D02*
X145865000Y-95600000D01*
G75*
G02*
X146015000Y-95750000I0J-150000D01*
G01*
X146015000Y-97200000D01*
G75*
G02*
X145865000Y-97350000I-150000J0D01*
G01*
X145565000Y-97350000D01*
G75*
G02*
X145415000Y-97200000I0J150000D01*
G01*
X145415000Y-95750000D01*
G75*
G02*
X145565000Y-95600000I150000J0D01*
G01*
G37*
G36*
G01*
X122560000Y-103900000D02*
X123460000Y-103900000D01*
G75*
G02*
X123710000Y-104150000I0J-250000D01*
G01*
X123710000Y-104850000D01*
G75*
G02*
X123460000Y-105100000I-250000J0D01*
G01*
X122560000Y-105100000D01*
G75*
G02*
X122310000Y-104850000I0J250000D01*
G01*
X122310000Y-104150000D01*
G75*
G02*
X122560000Y-103900000I250000J0D01*
G01*
G37*
G36*
G01*
X122560000Y-105900000D02*
X123460000Y-105900000D01*
G75*
G02*
X123710000Y-106150000I0J-250000D01*
G01*
X123710000Y-106850000D01*
G75*
G02*
X123460000Y-107100000I-250000J0D01*
G01*
X122560000Y-107100000D01*
G75*
G02*
X122310000Y-106850000I0J250000D01*
G01*
X122310000Y-106150000D01*
G75*
G02*
X122560000Y-105900000I250000J0D01*
G01*
G37*
G36*
G01*
X143960000Y-89100000D02*
X143960000Y-88500000D01*
G75*
G02*
X144210000Y-88250000I250000J0D01*
G01*
X144810000Y-88250000D01*
G75*
G02*
X145060000Y-88500000I0J-250000D01*
G01*
X145060000Y-89100000D01*
G75*
G02*
X144810000Y-89350000I-250000J0D01*
G01*
X144210000Y-89350000D01*
G75*
G02*
X143960000Y-89100000I0J250000D01*
G01*
G37*
G36*
G01*
X146760000Y-89100000D02*
X146760000Y-88500000D01*
G75*
G02*
X147010000Y-88250000I250000J0D01*
G01*
X147610000Y-88250000D01*
G75*
G02*
X147860000Y-88500000I0J-250000D01*
G01*
X147860000Y-89100000D01*
G75*
G02*
X147610000Y-89350000I-250000J0D01*
G01*
X147010000Y-89350000D01*
G75*
G02*
X146760000Y-89100000I0J250000D01*
G01*
G37*
G36*
G01*
X156135000Y-99425000D02*
X156135000Y-100375000D01*
G75*
G02*
X155885000Y-100625000I-250000J0D01*
G01*
X155210000Y-100625000D01*
G75*
G02*
X154960000Y-100375000I0J250000D01*
G01*
X154960000Y-99425000D01*
G75*
G02*
X155210000Y-99175000I250000J0D01*
G01*
X155885000Y-99175000D01*
G75*
G02*
X156135000Y-99425000I0J-250000D01*
G01*
G37*
G36*
G01*
X154060000Y-99425000D02*
X154060000Y-100375000D01*
G75*
G02*
X153810000Y-100625000I-250000J0D01*
G01*
X153135000Y-100625000D01*
G75*
G02*
X152885000Y-100375000I0J250000D01*
G01*
X152885000Y-99425000D01*
G75*
G02*
X153135000Y-99175000I250000J0D01*
G01*
X153810000Y-99175000D01*
G75*
G02*
X154060000Y-99425000I0J-250000D01*
G01*
G37*
G36*
G01*
X147860000Y-86100000D02*
X147860000Y-86700000D01*
G75*
G02*
X147610000Y-86950000I-250000J0D01*
G01*
X147010000Y-86950000D01*
G75*
G02*
X146760000Y-86700000I0J250000D01*
G01*
X146760000Y-86100000D01*
G75*
G02*
X147010000Y-85850000I250000J0D01*
G01*
X147610000Y-85850000D01*
G75*
G02*
X147860000Y-86100000I0J-250000D01*
G01*
G37*
G36*
G01*
X145060000Y-86100000D02*
X145060000Y-86700000D01*
G75*
G02*
X144810000Y-86950000I-250000J0D01*
G01*
X144210000Y-86950000D01*
G75*
G02*
X143960000Y-86700000I0J250000D01*
G01*
X143960000Y-86100000D01*
G75*
G02*
X144210000Y-85850000I250000J0D01*
G01*
X144810000Y-85850000D01*
G75*
G02*
X145060000Y-86100000I0J-250000D01*
G01*
G37*
G36*
G01*
X156935000Y-87025000D02*
X156935000Y-87975000D01*
G75*
G02*
X156685000Y-88225000I-250000J0D01*
G01*
X156010000Y-88225000D01*
G75*
G02*
X155760000Y-87975000I0J250000D01*
G01*
X155760000Y-87025000D01*
G75*
G02*
X156010000Y-86775000I250000J0D01*
G01*
X156685000Y-86775000D01*
G75*
G02*
X156935000Y-87025000I0J-250000D01*
G01*
G37*
G36*
G01*
X154860000Y-87025000D02*
X154860000Y-87975000D01*
G75*
G02*
X154610000Y-88225000I-250000J0D01*
G01*
X153935000Y-88225000D01*
G75*
G02*
X153685000Y-87975000I0J250000D01*
G01*
X153685000Y-87025000D01*
G75*
G02*
X153935000Y-86775000I250000J0D01*
G01*
X154610000Y-86775000D01*
G75*
G02*
X154860000Y-87025000I0J-250000D01*
G01*
G37*
G36*
G01*
X158210000Y-101450000D02*
X158210000Y-102350000D01*
G75*
G02*
X157960000Y-102600000I-250000J0D01*
G01*
X157260000Y-102600000D01*
G75*
G02*
X157010000Y-102350000I0J250000D01*
G01*
X157010000Y-101450000D01*
G75*
G02*
X157260000Y-101200000I250000J0D01*
G01*
X157960000Y-101200000D01*
G75*
G02*
X158210000Y-101450000I0J-250000D01*
G01*
G37*
G36*
G01*
X156210000Y-101450000D02*
X156210000Y-102350000D01*
G75*
G02*
X155960000Y-102600000I-250000J0D01*
G01*
X155260000Y-102600000D01*
G75*
G02*
X155010000Y-102350000I0J250000D01*
G01*
X155010000Y-101450000D01*
G75*
G02*
X155260000Y-101200000I250000J0D01*
G01*
X155960000Y-101200000D01*
G75*
G02*
X156210000Y-101450000I0J-250000D01*
G01*
G37*
G36*
G01*
X148885000Y-103275000D02*
X148885000Y-102325000D01*
G75*
G02*
X149135000Y-102075000I250000J0D01*
G01*
X149810000Y-102075000D01*
G75*
G02*
X150060000Y-102325000I0J-250000D01*
G01*
X150060000Y-103275000D01*
G75*
G02*
X149810000Y-103525000I-250000J0D01*
G01*
X149135000Y-103525000D01*
G75*
G02*
X148885000Y-103275000I0J250000D01*
G01*
G37*
G36*
G01*
X150960000Y-103275000D02*
X150960000Y-102325000D01*
G75*
G02*
X151210000Y-102075000I250000J0D01*
G01*
X151885000Y-102075000D01*
G75*
G02*
X152135000Y-102325000I0J-250000D01*
G01*
X152135000Y-103275000D01*
G75*
G02*
X151885000Y-103525000I-250000J0D01*
G01*
X151210000Y-103525000D01*
G75*
G02*
X150960000Y-103275000I0J250000D01*
G01*
G37*
G36*
G01*
X138160000Y-92800000D02*
X139060000Y-92800000D01*
G75*
G02*
X139310000Y-93050000I0J-250000D01*
G01*
X139310000Y-93750000D01*
G75*
G02*
X139060000Y-94000000I-250000J0D01*
G01*
X138160000Y-94000000D01*
G75*
G02*
X137910000Y-93750000I0J250000D01*
G01*
X137910000Y-93050000D01*
G75*
G02*
X138160000Y-92800000I250000J0D01*
G01*
G37*
G36*
G01*
X138160000Y-94800000D02*
X139060000Y-94800000D01*
G75*
G02*
X139310000Y-95050000I0J-250000D01*
G01*
X139310000Y-95750000D01*
G75*
G02*
X139060000Y-96000000I-250000J0D01*
G01*
X138160000Y-96000000D01*
G75*
G02*
X137910000Y-95750000I0J250000D01*
G01*
X137910000Y-95050000D01*
G75*
G02*
X138160000Y-94800000I250000J0D01*
G01*
G37*
G36*
G01*
X132710000Y-65950000D02*
X132710000Y-65050000D01*
G75*
G02*
X132960000Y-64800000I250000J0D01*
G01*
X133660000Y-64800000D01*
G75*
G02*
X133910000Y-65050000I0J-250000D01*
G01*
X133910000Y-65950000D01*
G75*
G02*
X133660000Y-66200000I-250000J0D01*
G01*
X132960000Y-66200000D01*
G75*
G02*
X132710000Y-65950000I0J250000D01*
G01*
G37*
G36*
G01*
X134710000Y-65950000D02*
X134710000Y-65050000D01*
G75*
G02*
X134960000Y-64800000I250000J0D01*
G01*
X135660000Y-64800000D01*
G75*
G02*
X135910000Y-65050000I0J-250000D01*
G01*
X135910000Y-65950000D01*
G75*
G02*
X135660000Y-66200000I-250000J0D01*
G01*
X134960000Y-66200000D01*
G75*
G02*
X134710000Y-65950000I0J250000D01*
G01*
G37*
G36*
G01*
X160235000Y-97125000D02*
X160235000Y-98075000D01*
G75*
G02*
X159985000Y-98325000I-250000J0D01*
G01*
X159310000Y-98325000D01*
G75*
G02*
X159060000Y-98075000I0J250000D01*
G01*
X159060000Y-97125000D01*
G75*
G02*
X159310000Y-96875000I250000J0D01*
G01*
X159985000Y-96875000D01*
G75*
G02*
X160235000Y-97125000I0J-250000D01*
G01*
G37*
G36*
G01*
X158160000Y-97125000D02*
X158160000Y-98075000D01*
G75*
G02*
X157910000Y-98325000I-250000J0D01*
G01*
X157235000Y-98325000D01*
G75*
G02*
X156985000Y-98075000I0J250000D01*
G01*
X156985000Y-97125000D01*
G75*
G02*
X157235000Y-96875000I250000J0D01*
G01*
X157910000Y-96875000D01*
G75*
G02*
X158160000Y-97125000I0J-250000D01*
G01*
G37*
G36*
G01*
X152060000Y-107400000D02*
X151160000Y-107400000D01*
G75*
G02*
X150910000Y-107150000I0J250000D01*
G01*
X150910000Y-106450000D01*
G75*
G02*
X151160000Y-106200000I250000J0D01*
G01*
X152060000Y-106200000D01*
G75*
G02*
X152310000Y-106450000I0J-250000D01*
G01*
X152310000Y-107150000D01*
G75*
G02*
X152060000Y-107400000I-250000J0D01*
G01*
G37*
G36*
G01*
X152060000Y-105400000D02*
X151160000Y-105400000D01*
G75*
G02*
X150910000Y-105150000I0J250000D01*
G01*
X150910000Y-104450000D01*
G75*
G02*
X151160000Y-104200000I250000J0D01*
G01*
X152060000Y-104200000D01*
G75*
G02*
X152310000Y-104450000I0J-250000D01*
G01*
X152310000Y-105150000D01*
G75*
G02*
X152060000Y-105400000I-250000J0D01*
G01*
G37*
G36*
G01*
X135935000Y-67225000D02*
X135935000Y-68175000D01*
G75*
G02*
X135685000Y-68425000I-250000J0D01*
G01*
X135010000Y-68425000D01*
G75*
G02*
X134760000Y-68175000I0J250000D01*
G01*
X134760000Y-67225000D01*
G75*
G02*
X135010000Y-66975000I250000J0D01*
G01*
X135685000Y-66975000D01*
G75*
G02*
X135935000Y-67225000I0J-250000D01*
G01*
G37*
G36*
G01*
X133860000Y-67225000D02*
X133860000Y-68175000D01*
G75*
G02*
X133610000Y-68425000I-250000J0D01*
G01*
X132935000Y-68425000D01*
G75*
G02*
X132685000Y-68175000I0J250000D01*
G01*
X132685000Y-67225000D01*
G75*
G02*
X132935000Y-66975000I250000J0D01*
G01*
X133610000Y-66975000D01*
G75*
G02*
X133860000Y-67225000I0J-250000D01*
G01*
G37*
G36*
G01*
X152110000Y-100250000D02*
X152110000Y-101150000D01*
G75*
G02*
X151860000Y-101400000I-250000J0D01*
G01*
X151160000Y-101400000D01*
G75*
G02*
X150910000Y-101150000I0J250000D01*
G01*
X150910000Y-100250000D01*
G75*
G02*
X151160000Y-100000000I250000J0D01*
G01*
X151860000Y-100000000D01*
G75*
G02*
X152110000Y-100250000I0J-250000D01*
G01*
G37*
G36*
G01*
X150110000Y-100250000D02*
X150110000Y-101150000D01*
G75*
G02*
X149860000Y-101400000I-250000J0D01*
G01*
X149160000Y-101400000D01*
G75*
G02*
X148910000Y-101150000I0J250000D01*
G01*
X148910000Y-100250000D01*
G75*
G02*
X149160000Y-100000000I250000J0D01*
G01*
X149860000Y-100000000D01*
G75*
G02*
X150110000Y-100250000I0J-250000D01*
G01*
G37*
G36*
G01*
X150910000Y-109150000D02*
X150910000Y-108250000D01*
G75*
G02*
X151160000Y-108000000I250000J0D01*
G01*
X151860000Y-108000000D01*
G75*
G02*
X152110000Y-108250000I0J-250000D01*
G01*
X152110000Y-109150000D01*
G75*
G02*
X151860000Y-109400000I-250000J0D01*
G01*
X151160000Y-109400000D01*
G75*
G02*
X150910000Y-109150000I0J250000D01*
G01*
G37*
G36*
G01*
X152910000Y-109150000D02*
X152910000Y-108250000D01*
G75*
G02*
X153160000Y-108000000I250000J0D01*
G01*
X153860000Y-108000000D01*
G75*
G02*
X154110000Y-108250000I0J-250000D01*
G01*
X154110000Y-109150000D01*
G75*
G02*
X153860000Y-109400000I-250000J0D01*
G01*
X153160000Y-109400000D01*
G75*
G02*
X152910000Y-109150000I0J250000D01*
G01*
G37*
G36*
G01*
X118510000Y-104950000D02*
X118510000Y-104050000D01*
G75*
G02*
X118760000Y-103800000I250000J0D01*
G01*
X119460000Y-103800000D01*
G75*
G02*
X119710000Y-104050000I0J-250000D01*
G01*
X119710000Y-104950000D01*
G75*
G02*
X119460000Y-105200000I-250000J0D01*
G01*
X118760000Y-105200000D01*
G75*
G02*
X118510000Y-104950000I0J250000D01*
G01*
G37*
G36*
G01*
X120510000Y-104950000D02*
X120510000Y-104050000D01*
G75*
G02*
X120760000Y-103800000I250000J0D01*
G01*
X121460000Y-103800000D01*
G75*
G02*
X121710000Y-104050000I0J-250000D01*
G01*
X121710000Y-104950000D01*
G75*
G02*
X121460000Y-105200000I-250000J0D01*
G01*
X120760000Y-105200000D01*
G75*
G02*
X120510000Y-104950000I0J250000D01*
G01*
G37*
G36*
G01*
X129710000Y-103250000D02*
X129710000Y-102350000D01*
G75*
G02*
X129960000Y-102100000I250000J0D01*
G01*
X130660000Y-102100000D01*
G75*
G02*
X130910000Y-102350000I0J-250000D01*
G01*
X130910000Y-103250000D01*
G75*
G02*
X130660000Y-103500000I-250000J0D01*
G01*
X129960000Y-103500000D01*
G75*
G02*
X129710000Y-103250000I0J250000D01*
G01*
G37*
G36*
G01*
X131710000Y-103250000D02*
X131710000Y-102350000D01*
G75*
G02*
X131960000Y-102100000I250000J0D01*
G01*
X132660000Y-102100000D01*
G75*
G02*
X132910000Y-102350000I0J-250000D01*
G01*
X132910000Y-103250000D01*
G75*
G02*
X132660000Y-103500000I-250000J0D01*
G01*
X131960000Y-103500000D01*
G75*
G02*
X131710000Y-103250000I0J250000D01*
G01*
G37*
G36*
G01*
X133285000Y-98925000D02*
X132335000Y-98925000D01*
G75*
G02*
X132085000Y-98675000I0J250000D01*
G01*
X132085000Y-98000000D01*
G75*
G02*
X132335000Y-97750000I250000J0D01*
G01*
X133285000Y-97750000D01*
G75*
G02*
X133535000Y-98000000I0J-250000D01*
G01*
X133535000Y-98675000D01*
G75*
G02*
X133285000Y-98925000I-250000J0D01*
G01*
G37*
G36*
G01*
X133285000Y-96850000D02*
X132335000Y-96850000D01*
G75*
G02*
X132085000Y-96600000I0J250000D01*
G01*
X132085000Y-95925000D01*
G75*
G02*
X132335000Y-95675000I250000J0D01*
G01*
X133285000Y-95675000D01*
G75*
G02*
X133535000Y-95925000I0J-250000D01*
G01*
X133535000Y-96600000D01*
G75*
G02*
X133285000Y-96850000I-250000J0D01*
G01*
G37*
G36*
G01*
X132935000Y-100325000D02*
X132935000Y-101275000D01*
G75*
G02*
X132685000Y-101525000I-250000J0D01*
G01*
X132010000Y-101525000D01*
G75*
G02*
X131760000Y-101275000I0J250000D01*
G01*
X131760000Y-100325000D01*
G75*
G02*
X132010000Y-100075000I250000J0D01*
G01*
X132685000Y-100075000D01*
G75*
G02*
X132935000Y-100325000I0J-250000D01*
G01*
G37*
G36*
G01*
X130860000Y-100325000D02*
X130860000Y-101275000D01*
G75*
G02*
X130610000Y-101525000I-250000J0D01*
G01*
X129935000Y-101525000D01*
G75*
G02*
X129685000Y-101275000I0J250000D01*
G01*
X129685000Y-100325000D01*
G75*
G02*
X129935000Y-100075000I250000J0D01*
G01*
X130610000Y-100075000D01*
G75*
G02*
X130860000Y-100325000I0J-250000D01*
G01*
G37*
G36*
G01*
X157622500Y-87975000D02*
X157622500Y-87025000D01*
G75*
G02*
X157872500Y-86775000I250000J0D01*
G01*
X158547500Y-86775000D01*
G75*
G02*
X158797500Y-87025000I0J-250000D01*
G01*
X158797500Y-87975000D01*
G75*
G02*
X158547500Y-88225000I-250000J0D01*
G01*
X157872500Y-88225000D01*
G75*
G02*
X157622500Y-87975000I0J250000D01*
G01*
G37*
G36*
G01*
X159697500Y-87975000D02*
X159697500Y-87025000D01*
G75*
G02*
X159947500Y-86775000I250000J0D01*
G01*
X160622500Y-86775000D01*
G75*
G02*
X160872500Y-87025000I0J-250000D01*
G01*
X160872500Y-87975000D01*
G75*
G02*
X160622500Y-88225000I-250000J0D01*
G01*
X159947500Y-88225000D01*
G75*
G02*
X159697500Y-87975000I0J250000D01*
G01*
G37*
G36*
G01*
X129710000Y-105250000D02*
X129710000Y-104350000D01*
G75*
G02*
X129960000Y-104100000I250000J0D01*
G01*
X130660000Y-104100000D01*
G75*
G02*
X130910000Y-104350000I0J-250000D01*
G01*
X130910000Y-105250000D01*
G75*
G02*
X130660000Y-105500000I-250000J0D01*
G01*
X129960000Y-105500000D01*
G75*
G02*
X129710000Y-105250000I0J250000D01*
G01*
G37*
G36*
G01*
X131710000Y-105250000D02*
X131710000Y-104350000D01*
G75*
G02*
X131960000Y-104100000I250000J0D01*
G01*
X132660000Y-104100000D01*
G75*
G02*
X132910000Y-104350000I0J-250000D01*
G01*
X132910000Y-105250000D01*
G75*
G02*
X132660000Y-105500000I-250000J0D01*
G01*
X131960000Y-105500000D01*
G75*
G02*
X131710000Y-105250000I0J250000D01*
G01*
G37*
G36*
G01*
X162110000Y-92075000D02*
X161810000Y-92075000D01*
G75*
G02*
X161660000Y-91925000I0J150000D01*
G01*
X161660000Y-90750000D01*
G75*
G02*
X161810000Y-90600000I150000J0D01*
G01*
X162110000Y-90600000D01*
G75*
G02*
X162260000Y-90750000I0J-150000D01*
G01*
X162260000Y-91925000D01*
G75*
G02*
X162110000Y-92075000I-150000J0D01*
G01*
G37*
G36*
G01*
X164010000Y-92075000D02*
X163710000Y-92075000D01*
G75*
G02*
X163560000Y-91925000I0J150000D01*
G01*
X163560000Y-90750000D01*
G75*
G02*
X163710000Y-90600000I150000J0D01*
G01*
X164010000Y-90600000D01*
G75*
G02*
X164160000Y-90750000I0J-150000D01*
G01*
X164160000Y-91925000D01*
G75*
G02*
X164010000Y-92075000I-150000J0D01*
G01*
G37*
G36*
G01*
X163060000Y-90200000D02*
X162760000Y-90200000D01*
G75*
G02*
X162610000Y-90050000I0J150000D01*
G01*
X162610000Y-88875000D01*
G75*
G02*
X162760000Y-88725000I150000J0D01*
G01*
X163060000Y-88725000D01*
G75*
G02*
X163210000Y-88875000I0J-150000D01*
G01*
X163210000Y-90050000D01*
G75*
G02*
X163060000Y-90200000I-150000J0D01*
G01*
G37*
G36*
G01*
X152960000Y-86100000D02*
X152060000Y-86100000D01*
G75*
G02*
X151810000Y-85850000I0J250000D01*
G01*
X151810000Y-85150000D01*
G75*
G02*
X152060000Y-84900000I250000J0D01*
G01*
X152960000Y-84900000D01*
G75*
G02*
X153210000Y-85150000I0J-250000D01*
G01*
X153210000Y-85850000D01*
G75*
G02*
X152960000Y-86100000I-250000J0D01*
G01*
G37*
G36*
G01*
X152960000Y-84100000D02*
X152060000Y-84100000D01*
G75*
G02*
X151810000Y-83850000I0J250000D01*
G01*
X151810000Y-83150000D01*
G75*
G02*
X152060000Y-82900000I250000J0D01*
G01*
X152960000Y-82900000D01*
G75*
G02*
X153210000Y-83150000I0J-250000D01*
G01*
X153210000Y-83850000D01*
G75*
G02*
X152960000Y-84100000I-250000J0D01*
G01*
G37*
G36*
G01*
X150060000Y-85600000D02*
X150960000Y-85600000D01*
G75*
G02*
X151210000Y-85850000I0J-250000D01*
G01*
X151210000Y-86550000D01*
G75*
G02*
X150960000Y-86800000I-250000J0D01*
G01*
X150060000Y-86800000D01*
G75*
G02*
X149810000Y-86550000I0J250000D01*
G01*
X149810000Y-85850000D01*
G75*
G02*
X150060000Y-85600000I250000J0D01*
G01*
G37*
G36*
G01*
X150060000Y-87600000D02*
X150960000Y-87600000D01*
G75*
G02*
X151210000Y-87850000I0J-250000D01*
G01*
X151210000Y-88550000D01*
G75*
G02*
X150960000Y-88800000I-250000J0D01*
G01*
X150060000Y-88800000D01*
G75*
G02*
X149810000Y-88550000I0J250000D01*
G01*
X149810000Y-87850000D01*
G75*
G02*
X150060000Y-87600000I250000J0D01*
G01*
G37*
G36*
G01*
X159285000Y-93425000D02*
X158335000Y-93425000D01*
G75*
G02*
X158085000Y-93175000I0J250000D01*
G01*
X158085000Y-92500000D01*
G75*
G02*
X158335000Y-92250000I250000J0D01*
G01*
X159285000Y-92250000D01*
G75*
G02*
X159535000Y-92500000I0J-250000D01*
G01*
X159535000Y-93175000D01*
G75*
G02*
X159285000Y-93425000I-250000J0D01*
G01*
G37*
G36*
G01*
X159285000Y-91350000D02*
X158335000Y-91350000D01*
G75*
G02*
X158085000Y-91100000I0J250000D01*
G01*
X158085000Y-90425000D01*
G75*
G02*
X158335000Y-90175000I250000J0D01*
G01*
X159285000Y-90175000D01*
G75*
G02*
X159535000Y-90425000I0J-250000D01*
G01*
X159535000Y-91100000D01*
G75*
G02*
X159285000Y-91350000I-250000J0D01*
G01*
G37*
G36*
G01*
X133585000Y-105275000D02*
X133585000Y-104325000D01*
G75*
G02*
X133835000Y-104075000I250000J0D01*
G01*
X134510000Y-104075000D01*
G75*
G02*
X134760000Y-104325000I0J-250000D01*
G01*
X134760000Y-105275000D01*
G75*
G02*
X134510000Y-105525000I-250000J0D01*
G01*
X133835000Y-105525000D01*
G75*
G02*
X133585000Y-105275000I0J250000D01*
G01*
G37*
G36*
G01*
X135660000Y-105275000D02*
X135660000Y-104325000D01*
G75*
G02*
X135910000Y-104075000I250000J0D01*
G01*
X136585000Y-104075000D01*
G75*
G02*
X136835000Y-104325000I0J-250000D01*
G01*
X136835000Y-105275000D01*
G75*
G02*
X136585000Y-105525000I-250000J0D01*
G01*
X135910000Y-105525000D01*
G75*
G02*
X135660000Y-105275000I0J250000D01*
G01*
G37*
G36*
G01*
X163660000Y-92662500D02*
X163960000Y-92662500D01*
G75*
G02*
X164110000Y-92812500I0J-150000D01*
G01*
X164110000Y-93987500D01*
G75*
G02*
X163960000Y-94137500I-150000J0D01*
G01*
X163660000Y-94137500D01*
G75*
G02*
X163510000Y-93987500I0J150000D01*
G01*
X163510000Y-92812500D01*
G75*
G02*
X163660000Y-92662500I150000J0D01*
G01*
G37*
G36*
G01*
X161760000Y-92662500D02*
X162060000Y-92662500D01*
G75*
G02*
X162210000Y-92812500I0J-150000D01*
G01*
X162210000Y-93987500D01*
G75*
G02*
X162060000Y-94137500I-150000J0D01*
G01*
X161760000Y-94137500D01*
G75*
G02*
X161610000Y-93987500I0J150000D01*
G01*
X161610000Y-92812500D01*
G75*
G02*
X161760000Y-92662500I150000J0D01*
G01*
G37*
G36*
G01*
X162710000Y-94537500D02*
X163010000Y-94537500D01*
G75*
G02*
X163160000Y-94687500I0J-150000D01*
G01*
X163160000Y-95862500D01*
G75*
G02*
X163010000Y-96012500I-150000J0D01*
G01*
X162710000Y-96012500D01*
G75*
G02*
X162560000Y-95862500I0J150000D01*
G01*
X162560000Y-94687500D01*
G75*
G02*
X162710000Y-94537500I150000J0D01*
G01*
G37*
G36*
G01*
X133260000Y-95100000D02*
X132360000Y-95100000D01*
G75*
G02*
X132110000Y-94850000I0J250000D01*
G01*
X132110000Y-94150000D01*
G75*
G02*
X132360000Y-93900000I250000J0D01*
G01*
X133260000Y-93900000D01*
G75*
G02*
X133510000Y-94150000I0J-250000D01*
G01*
X133510000Y-94850000D01*
G75*
G02*
X133260000Y-95100000I-250000J0D01*
G01*
G37*
G36*
G01*
X133260000Y-93100000D02*
X132360000Y-93100000D01*
G75*
G02*
X132110000Y-92850000I0J250000D01*
G01*
X132110000Y-92150000D01*
G75*
G02*
X132360000Y-91900000I250000J0D01*
G01*
X133260000Y-91900000D01*
G75*
G02*
X133510000Y-92150000I0J-250000D01*
G01*
X133510000Y-92850000D01*
G75*
G02*
X133260000Y-93100000I-250000J0D01*
G01*
G37*
G36*
G01*
X160660000Y-95000000D02*
X160660000Y-95600000D01*
G75*
G02*
X160410000Y-95850000I-250000J0D01*
G01*
X159810000Y-95850000D01*
G75*
G02*
X159560000Y-95600000I0J250000D01*
G01*
X159560000Y-95000000D01*
G75*
G02*
X159810000Y-94750000I250000J0D01*
G01*
X160410000Y-94750000D01*
G75*
G02*
X160660000Y-95000000I0J-250000D01*
G01*
G37*
G36*
G01*
X157860000Y-95000000D02*
X157860000Y-95600000D01*
G75*
G02*
X157610000Y-95850000I-250000J0D01*
G01*
X157010000Y-95850000D01*
G75*
G02*
X156760000Y-95600000I0J250000D01*
G01*
X156760000Y-95000000D01*
G75*
G02*
X157010000Y-94750000I250000J0D01*
G01*
X157610000Y-94750000D01*
G75*
G02*
X157860000Y-95000000I0J-250000D01*
G01*
G37*
G36*
G01*
X118510000Y-106950000D02*
X118510000Y-106050000D01*
G75*
G02*
X118760000Y-105800000I250000J0D01*
G01*
X119460000Y-105800000D01*
G75*
G02*
X119710000Y-106050000I0J-250000D01*
G01*
X119710000Y-106950000D01*
G75*
G02*
X119460000Y-107200000I-250000J0D01*
G01*
X118760000Y-107200000D01*
G75*
G02*
X118510000Y-106950000I0J250000D01*
G01*
G37*
G36*
G01*
X120510000Y-106950000D02*
X120510000Y-106050000D01*
G75*
G02*
X120760000Y-105800000I250000J0D01*
G01*
X121460000Y-105800000D01*
G75*
G02*
X121710000Y-106050000I0J-250000D01*
G01*
X121710000Y-106950000D01*
G75*
G02*
X121460000Y-107200000I-250000J0D01*
G01*
X120760000Y-107200000D01*
G75*
G02*
X120510000Y-106950000I0J250000D01*
G01*
G37*
G36*
G01*
X150060000Y-107400000D02*
X149160000Y-107400000D01*
G75*
G02*
X148910000Y-107150000I0J250000D01*
G01*
X148910000Y-106450000D01*
G75*
G02*
X149160000Y-106200000I250000J0D01*
G01*
X150060000Y-106200000D01*
G75*
G02*
X150310000Y-106450000I0J-250000D01*
G01*
X150310000Y-107150000D01*
G75*
G02*
X150060000Y-107400000I-250000J0D01*
G01*
G37*
G36*
G01*
X150060000Y-105400000D02*
X149160000Y-105400000D01*
G75*
G02*
X148910000Y-105150000I0J250000D01*
G01*
X148910000Y-104450000D01*
G75*
G02*
X149160000Y-104200000I250000J0D01*
G01*
X150060000Y-104200000D01*
G75*
G02*
X150310000Y-104450000I0J-250000D01*
G01*
X150310000Y-105150000D01*
G75*
G02*
X150060000Y-105400000I-250000J0D01*
G01*
G37*
M02*
