<?xml version="1.0" standalone="no"?>
 <!DOCTYPE svg PUBLIC "-//W3C//DTD SVG 1.1//EN" 
 "http://www.w3.org/Graphics/SVG/1.1/DTD/svg11.dtd"> 
<svg
  xmlns:svg="http://www.w3.org/2000/svg"
  xmlns="http://www.w3.org/2000/svg"
  xmlns:xlink="http://www.w3.org/1999/xlink"
  version="1.1"
  width="297.0022mm" height="210.0072mm" viewBox="0.0000 0.0000 297.0022 210.0072">
<title>SVG Image created as GreenBean-F_Paste.svg date 2023/08/08 15:31:04 </title>
  <desc>Image generated by PCBNEW </desc>
<g style="fill:#000000; fill-opacity:1.0000;stroke:#000000; stroke-opacity:1.0000;
stroke-linecap:round; stroke-linejoin:round;"
 transform="translate(0 0) scale(1 1)">
</g>
<g style="fill:#000000; fill-opacity:0.0; 
stroke:#000000; stroke-width:0.0000; stroke-opacity:1; 
stroke-linecap:round; stroke-linejoin:round;">
<g >
</g>
<g >
</g>
<g >
</g>
<g >
</g>
<g >
</g>
<g >
</g>
<g >
</g>
<g >
</g>
<g >
</g>
<g >
</g>
<g >
</g>
<g >
</g>
<g >
</g>
<g >
</g>
<g style="fill:#000000; fill-opacity:0.0; 
stroke:#000000; stroke-width:0.0000; stroke-opacity:1; 
stroke-linecap:round; stroke-linejoin:round;">
</g>
<g style="fill:#000000; fill-opacity:0.0; 
stroke:#000000; stroke-width:0.0000; stroke-opacity:1; 
stroke-linecap:round; stroke-linejoin:round;">
</g>
<g style="fill:#000000; fill-opacity:1.0000; 
stroke:#000000; stroke-width:0.0000; stroke-opacity:1; 
stroke-linecap:round; stroke-linejoin:round;">
<path style="fill:#000000; fill-opacity:1.0000; 
stroke:#000000; stroke-width:0.0000; stroke-opacity:1; 
stroke-linecap:round; stroke-linejoin:round;fill-rule:evenodd;"
d="M 141.7100,98.5500
141.7290,98.4543
141.7832,98.3732
141.8643,98.3190
141.9600,98.3000
142.6600,98.3000
142.7557,98.3190
142.8368,98.3732
142.8910,98.4543
142.9100,98.5500
142.9100,99.4500
142.8910,99.5457
142.8368,99.6268
142.7557,99.6810
142.6600,99.7000
141.9600,99.7000
141.8643,99.6810
141.7832,99.6268
141.7290,99.5457
141.7100,99.4500
Z" /> 
<path style="fill:#000000; fill-opacity:1.0000; 
stroke:#000000; stroke-width:0.0000; stroke-opacity:1; 
stroke-linecap:round; stroke-linejoin:round;fill-rule:evenodd;"
d="M 143.7100,98.5500
143.7290,98.4543
143.7832,98.3732
143.8643,98.3190
143.9600,98.3000
144.6600,98.3000
144.7557,98.3190
144.8368,98.3732
144.8910,98.4543
144.9100,98.5500
144.9100,99.4500
144.8910,99.5457
144.8368,99.6268
144.7557,99.6810
144.6600,99.7000
143.9600,99.7000
143.8643,99.6810
143.7832,99.6268
143.7290,99.5457
143.7100,99.4500
Z" /> 
</g>
<g >
</g>
<g >
</g>
<g >
</g>
<g style="fill:#000000; fill-opacity:1.0000; 
stroke:#000000; stroke-width:0.0000; stroke-opacity:1; 
stroke-linecap:round; stroke-linejoin:round;">
<path style="fill:#000000; fill-opacity:1.0000; 
stroke:#000000; stroke-width:0.0000; stroke-opacity:1; 
stroke-linecap:round; stroke-linejoin:round;fill-rule:evenodd;"
d="M 132.9100,107.3500
132.8910,107.4457
132.8368,107.5268
132.7557,107.5810
132.6600,107.6000
131.9600,107.6000
131.8643,107.5810
131.7832,107.5268
131.7290,107.4457
131.7100,107.3500
131.7100,106.4500
131.7290,106.3543
131.7832,106.2732
131.8643,106.2190
131.9600,106.2000
132.6600,106.2000
132.7557,106.2190
132.8368,106.2732
132.8910,106.3543
132.9100,106.4500
Z" /> 
<path style="fill:#000000; fill-opacity:1.0000; 
stroke:#000000; stroke-width:0.0000; stroke-opacity:1; 
stroke-linecap:round; stroke-linejoin:round;fill-rule:evenodd;"
d="M 130.9100,107.3500
130.8910,107.4457
130.8368,107.5268
130.7557,107.5810
130.6600,107.6000
129.9600,107.6000
129.8643,107.5810
129.7832,107.5268
129.7290,107.4457
129.7100,107.3500
129.7100,106.4500
129.7290,106.3543
129.7832,106.2732
129.8643,106.2190
129.9600,106.2000
130.6600,106.2000
130.7557,106.2190
130.8368,106.2732
130.8910,106.3543
130.9100,106.4500
Z" /> 
</g>
<g >
</g>
<g >
</g>
<g style="fill:#000000; fill-opacity:1.0000; 
stroke:#000000; stroke-width:0.0000; stroke-opacity:1; 
stroke-linecap:round; stroke-linejoin:round;">
<path style="fill:#000000; fill-opacity:1.0000; 
stroke:#000000; stroke-width:0.0000; stroke-opacity:1; 
stroke-linecap:round; stroke-linejoin:round;fill-rule:evenodd;"
d="M 138.2600,99.4000
138.3557,99.4190
138.4368,99.4732
138.4910,99.5543
138.5100,99.6500
138.5100,100.3500
138.4910,100.4457
138.4368,100.5268
138.3557,100.5810
138.2600,100.6000
137.3600,100.6000
137.2643,100.5810
137.1832,100.5268
137.1290,100.4457
137.1100,100.3500
137.1100,99.6500
137.1290,99.5543
137.1832,99.4732
137.2643,99.4190
137.3600,99.4000
Z" /> 
<path style="fill:#000000; fill-opacity:1.0000; 
stroke:#000000; stroke-width:0.0000; stroke-opacity:1; 
stroke-linecap:round; stroke-linejoin:round;fill-rule:evenodd;"
d="M 138.2600,101.4000
138.3557,101.4190
138.4368,101.4732
138.4910,101.5543
138.5100,101.6500
138.5100,102.3500
138.4910,102.4457
138.4368,102.5268
138.3557,102.5810
138.2600,102.6000
137.3600,102.6000
137.2643,102.5810
137.1832,102.5268
137.1290,102.4457
137.1100,102.3500
137.1100,101.6500
137.1290,101.5543
137.1832,101.4732
137.2643,101.4190
137.3600,101.4000
Z" /> 
</g>
<g >
</g>
<g style="fill:#000000; fill-opacity:1.0000; 
stroke:#000000; stroke-width:0.0000; stroke-opacity:1; 
stroke-linecap:round; stroke-linejoin:round;">
<path style="fill:#000000; fill-opacity:1.0000; 
stroke:#000000; stroke-width:0.0000; stroke-opacity:1; 
stroke-linecap:round; stroke-linejoin:round;fill-rule:evenodd;"
d="M 134.9850,96.8250
135.0040,96.7293
135.0582,96.6482
135.1393,96.5940
135.2350,96.5750
135.9100,96.5750
136.0057,96.5940
136.0868,96.6482
136.1410,96.7293
136.1600,96.8250
136.1600,97.7750
136.1410,97.8707
136.0868,97.9518
136.0057,98.0060
135.9100,98.0250
135.2350,98.0250
135.1393,98.0060
135.0582,97.9518
135.0040,97.8707
134.9850,97.7750
Z" /> 
<path style="fill:#000000; fill-opacity:1.0000; 
stroke:#000000; stroke-width:0.0000; stroke-opacity:1; 
stroke-linecap:round; stroke-linejoin:round;fill-rule:evenodd;"
d="M 137.0600,96.8250
137.0790,96.7293
137.1332,96.6482
137.2143,96.5940
137.3100,96.5750
137.9850,96.5750
138.0807,96.5940
138.1618,96.6482
138.2160,96.7293
138.2350,96.8250
138.2350,97.7750
138.2160,97.8707
138.1618,97.9518
138.0807,98.0060
137.9850,98.0250
137.3100,98.0250
137.2143,98.0060
137.1332,97.9518
137.0790,97.8707
137.0600,97.7750
Z" /> 
</g>
<g >
</g>
<g style="fill:#000000; fill-opacity:1.0000; 
stroke:#000000; stroke-width:0.0000; stroke-opacity:1; 
stroke-linecap:round; stroke-linejoin:round;">
<path style="fill:#000000; fill-opacity:1.0000; 
stroke:#000000; stroke-width:0.0000; stroke-opacity:1; 
stroke-linecap:round; stroke-linejoin:round;fill-rule:evenodd;"
d="M 133.6100,106.4500
133.6290,106.3543
133.6832,106.2732
133.7643,106.2190
133.8600,106.2000
134.5600,106.2000
134.6557,106.2190
134.7368,106.2732
134.7910,106.3543
134.8100,106.4500
134.8100,107.3500
134.7910,107.4457
134.7368,107.5268
134.6557,107.5810
134.5600,107.6000
133.8600,107.6000
133.7643,107.5810
133.6832,107.5268
133.6290,107.4457
133.6100,107.3500
Z" /> 
<path style="fill:#000000; fill-opacity:1.0000; 
stroke:#000000; stroke-width:0.0000; stroke-opacity:1; 
stroke-linecap:round; stroke-linejoin:round;fill-rule:evenodd;"
d="M 135.6100,106.4500
135.6290,106.3543
135.6832,106.2732
135.7643,106.2190
135.8600,106.2000
136.5600,106.2000
136.6557,106.2190
136.7368,106.2732
136.7910,106.3543
136.8100,106.4500
136.8100,107.3500
136.7910,107.4457
136.7368,107.5268
136.6557,107.5810
136.5600,107.6000
135.8600,107.6000
135.7643,107.5810
135.6832,107.5268
135.6290,107.4457
135.6100,107.3500
Z" /> 
</g>
<g >
</g>
<g style="fill:#000000; fill-opacity:1.0000; 
stroke:#000000; stroke-width:0.0000; stroke-opacity:1; 
stroke-linecap:round; stroke-linejoin:round;">
<path style="fill:#000000; fill-opacity:1.0000; 
stroke:#000000; stroke-width:0.0000; stroke-opacity:1; 
stroke-linecap:round; stroke-linejoin:round;fill-rule:evenodd;"
d="M 145.8650,90.4500
145.9224,90.4614
145.9711,90.4939
146.0036,90.5426
146.0150,90.6000
146.0150,92.0500
146.0036,92.1074
145.9711,92.1561
145.9224,92.1886
145.8650,92.2000
145.5650,92.2000
145.5076,92.1886
145.4589,92.1561
145.4264,92.1074
145.4150,92.0500
145.4150,90.6000
145.4264,90.5426
145.4589,90.4939
145.5076,90.4614
145.5650,90.4500
Z" /> 
<path style="fill:#000000; fill-opacity:1.0000; 
stroke:#000000; stroke-width:0.0000; stroke-opacity:1; 
stroke-linecap:round; stroke-linejoin:round;fill-rule:evenodd;"
d="M 144.5950,90.4500
144.6524,90.4614
144.7011,90.4939
144.7336,90.5426
144.7450,90.6000
144.7450,92.0500
144.7336,92.1074
144.7011,92.1561
144.6524,92.1886
144.5950,92.2000
144.2950,92.2000
144.2376,92.1886
144.1889,92.1561
144.1564,92.1074
144.1450,92.0500
144.1450,90.6000
144.1564,90.5426
144.1889,90.4939
144.2376,90.4614
144.2950,90.4500
Z" /> 
<path style="fill:#000000; fill-opacity:1.0000; 
stroke:#000000; stroke-width:0.0000; stroke-opacity:1; 
stroke-linecap:round; stroke-linejoin:round;fill-rule:evenodd;"
d="M 143.3250,90.4500
143.3824,90.4614
143.4311,90.4939
143.4636,90.5426
143.4750,90.6000
143.4750,92.0500
143.4636,92.1074
143.4311,92.1561
143.3824,92.1886
143.3250,92.2000
143.0250,92.2000
142.9676,92.1886
142.9189,92.1561
142.8864,92.1074
142.8750,92.0500
142.8750,90.6000
142.8864,90.5426
142.9189,90.4939
142.9676,90.4614
143.0250,90.4500
Z" /> 
<path style="fill:#000000; fill-opacity:1.0000; 
stroke:#000000; stroke-width:0.0000; stroke-opacity:1; 
stroke-linecap:round; stroke-linejoin:round;fill-rule:evenodd;"
d="M 142.0550,90.4500
142.1124,90.4614
142.1611,90.4939
142.1936,90.5426
142.2050,90.6000
142.2050,92.0500
142.1936,92.1074
142.1611,92.1561
142.1124,92.1886
142.0550,92.2000
141.7550,92.2000
141.6976,92.1886
141.6489,92.1561
141.6164,92.1074
141.6050,92.0500
141.6050,90.6000
141.6164,90.5426
141.6489,90.4939
141.6976,90.4614
141.7550,90.4500
Z" /> 
<path style="fill:#000000; fill-opacity:1.0000; 
stroke:#000000; stroke-width:0.0000; stroke-opacity:1; 
stroke-linecap:round; stroke-linejoin:round;fill-rule:evenodd;"
d="M 142.0550,95.6000
142.1124,95.6114
142.1611,95.6439
142.1936,95.6926
142.2050,95.7500
142.2050,97.2000
142.1936,97.2574
142.1611,97.3061
142.1124,97.3386
142.0550,97.3500
141.7550,97.3500
141.6976,97.3386
141.6489,97.3061
141.6164,97.2574
141.6050,97.2000
141.6050,95.7500
141.6164,95.6926
141.6489,95.6439
141.6976,95.6114
141.7550,95.6000
Z" /> 
<path style="fill:#000000; fill-opacity:1.0000; 
stroke:#000000; stroke-width:0.0000; stroke-opacity:1; 
stroke-linecap:round; stroke-linejoin:round;fill-rule:evenodd;"
d="M 143.3250,95.6000
143.3824,95.6114
143.4311,95.6439
143.4636,95.6926
143.4750,95.7500
143.4750,97.2000
143.4636,97.2574
143.4311,97.3061
143.3824,97.3386
143.3250,97.3500
143.0250,97.3500
142.9676,97.3386
142.9189,97.3061
142.8864,97.2574
142.8750,97.2000
142.8750,95.7500
142.8864,95.6926
142.9189,95.6439
142.9676,95.6114
143.0250,95.6000
Z" /> 
<path style="fill:#000000; fill-opacity:1.0000; 
stroke:#000000; stroke-width:0.0000; stroke-opacity:1; 
stroke-linecap:round; stroke-linejoin:round;fill-rule:evenodd;"
d="M 144.5950,95.6000
144.6524,95.6114
144.7011,95.6439
144.7336,95.6926
144.7450,95.7500
144.7450,97.2000
144.7336,97.2574
144.7011,97.3061
144.6524,97.3386
144.5950,97.3500
144.2950,97.3500
144.2376,97.3386
144.1889,97.3061
144.1564,97.2574
144.1450,97.2000
144.1450,95.7500
144.1564,95.6926
144.1889,95.6439
144.2376,95.6114
144.2950,95.6000
Z" /> 
<path style="fill:#000000; fill-opacity:1.0000; 
stroke:#000000; stroke-width:0.0000; stroke-opacity:1; 
stroke-linecap:round; stroke-linejoin:round;fill-rule:evenodd;"
d="M 145.8650,95.6000
145.9224,95.6114
145.9711,95.6439
146.0036,95.6926
146.0150,95.7500
146.0150,97.2000
146.0036,97.2574
145.9711,97.3061
145.9224,97.3386
145.8650,97.3500
145.5650,97.3500
145.5076,97.3386
145.4589,97.3061
145.4264,97.2574
145.4150,97.2000
145.4150,95.7500
145.4264,95.6926
145.4589,95.6439
145.5076,95.6114
145.5650,95.6000
Z" /> 
</g>
<g >
</g>
<g style="fill:#000000; fill-opacity:1.0000; 
stroke:#000000; stroke-width:0.0000; stroke-opacity:1; 
stroke-linecap:round; stroke-linejoin:round;">
<path style="fill:#000000; fill-opacity:1.0000; 
stroke:#000000; stroke-width:0.0000; stroke-opacity:1; 
stroke-linecap:round; stroke-linejoin:round;fill-rule:evenodd;"
d="M 123.4600,103.9000
123.5557,103.9190
123.6368,103.9732
123.6910,104.0543
123.7100,104.1500
123.7100,104.8500
123.6910,104.9457
123.6368,105.0268
123.5557,105.0810
123.4600,105.1000
122.5600,105.1000
122.4643,105.0810
122.3832,105.0268
122.3290,104.9457
122.3100,104.8500
122.3100,104.1500
122.3290,104.0543
122.3832,103.9732
122.4643,103.9190
122.5600,103.9000
Z" /> 
<path style="fill:#000000; fill-opacity:1.0000; 
stroke:#000000; stroke-width:0.0000; stroke-opacity:1; 
stroke-linecap:round; stroke-linejoin:round;fill-rule:evenodd;"
d="M 123.4600,105.9000
123.5557,105.9190
123.6368,105.9732
123.6910,106.0543
123.7100,106.1500
123.7100,106.8500
123.6910,106.9457
123.6368,107.0268
123.5557,107.0810
123.4600,107.1000
122.5600,107.1000
122.4643,107.0810
122.3832,107.0268
122.3290,106.9457
122.3100,106.8500
122.3100,106.1500
122.3290,106.0543
122.3832,105.9732
122.4643,105.9190
122.5600,105.9000
Z" /> 
</g>
<g >
</g>
<g style="fill:#000000; fill-opacity:1.0000; 
stroke:#000000; stroke-width:0.0000; stroke-opacity:1; 
stroke-linecap:round; stroke-linejoin:round;">
<path style="fill:#000000; fill-opacity:1.0000; 
stroke:#000000; stroke-width:0.0000; stroke-opacity:1; 
stroke-linecap:round; stroke-linejoin:round;fill-rule:evenodd;"
d="M 143.9600,88.5000
143.9790,88.4043
144.0332,88.3232
144.1143,88.2690
144.2100,88.2500
144.8100,88.2500
144.9057,88.2690
144.9868,88.3232
145.0410,88.4043
145.0600,88.5000
145.0600,89.1000
145.0410,89.1957
144.9868,89.2768
144.9057,89.3310
144.8100,89.3500
144.2100,89.3500
144.1143,89.3310
144.0332,89.2768
143.9790,89.1957
143.9600,89.1000
Z" /> 
<path style="fill:#000000; fill-opacity:1.0000; 
stroke:#000000; stroke-width:0.0000; stroke-opacity:1; 
stroke-linecap:round; stroke-linejoin:round;fill-rule:evenodd;"
d="M 146.7600,88.5000
146.7790,88.4043
146.8332,88.3232
146.9143,88.2690
147.0100,88.2500
147.6100,88.2500
147.7057,88.2690
147.7868,88.3232
147.8410,88.4043
147.8600,88.5000
147.8600,89.1000
147.8410,89.1957
147.7868,89.2768
147.7057,89.3310
147.6100,89.3500
147.0100,89.3500
146.9143,89.3310
146.8332,89.2768
146.7790,89.1957
146.7600,89.1000
Z" /> 
</g>
<g >
</g>
<g style="fill:#000000; fill-opacity:1.0000; 
stroke:#000000; stroke-width:0.0000; stroke-opacity:1; 
stroke-linecap:round; stroke-linejoin:round;">
<path style="fill:#000000; fill-opacity:1.0000; 
stroke:#000000; stroke-width:0.0000; stroke-opacity:1; 
stroke-linecap:round; stroke-linejoin:round;fill-rule:evenodd;"
d="M 156.1350,100.3750
156.1160,100.4707
156.0618,100.5518
155.9807,100.6060
155.8850,100.6250
155.2100,100.6250
155.1143,100.6060
155.0332,100.5518
154.9790,100.4707
154.9600,100.3750
154.9600,99.4250
154.9790,99.3293
155.0332,99.2482
155.1143,99.1940
155.2100,99.1750
155.8850,99.1750
155.9807,99.1940
156.0618,99.2482
156.1160,99.3293
156.1350,99.4250
Z" /> 
<path style="fill:#000000; fill-opacity:1.0000; 
stroke:#000000; stroke-width:0.0000; stroke-opacity:1; 
stroke-linecap:round; stroke-linejoin:round;fill-rule:evenodd;"
d="M 154.0600,100.3750
154.0410,100.4707
153.9868,100.5518
153.9057,100.6060
153.8100,100.6250
153.1350,100.6250
153.0393,100.6060
152.9582,100.5518
152.9040,100.4707
152.8850,100.3750
152.8850,99.4250
152.9040,99.3293
152.9582,99.2482
153.0393,99.1940
153.1350,99.1750
153.8100,99.1750
153.9057,99.1940
153.9868,99.2482
154.0410,99.3293
154.0600,99.4250
Z" /> 
</g>
<g >
</g>
<g style="fill:#000000; fill-opacity:1.0000; 
stroke:#000000; stroke-width:0.0000; stroke-opacity:1; 
stroke-linecap:round; stroke-linejoin:round;">
<path style="fill:#000000; fill-opacity:1.0000; 
stroke:#000000; stroke-width:0.0000; stroke-opacity:1; 
stroke-linecap:round; stroke-linejoin:round;fill-rule:evenodd;"
d="M 147.8600,86.7000
147.8410,86.7957
147.7868,86.8768
147.7057,86.9310
147.6100,86.9500
147.0100,86.9500
146.9143,86.9310
146.8332,86.8768
146.7790,86.7957
146.7600,86.7000
146.7600,86.1000
146.7790,86.0043
146.8332,85.9232
146.9143,85.8690
147.0100,85.8500
147.6100,85.8500
147.7057,85.8690
147.7868,85.9232
147.8410,86.0043
147.8600,86.1000
Z" /> 
<path style="fill:#000000; fill-opacity:1.0000; 
stroke:#000000; stroke-width:0.0000; stroke-opacity:1; 
stroke-linecap:round; stroke-linejoin:round;fill-rule:evenodd;"
d="M 145.0600,86.7000
145.0410,86.7957
144.9868,86.8768
144.9057,86.9310
144.8100,86.9500
144.2100,86.9500
144.1143,86.9310
144.0332,86.8768
143.9790,86.7957
143.9600,86.7000
143.9600,86.1000
143.9790,86.0043
144.0332,85.9232
144.1143,85.8690
144.2100,85.8500
144.8100,85.8500
144.9057,85.8690
144.9868,85.9232
145.0410,86.0043
145.0600,86.1000
Z" /> 
</g>
<g >
</g>
<g >
</g>
<g style="fill:#000000; fill-opacity:1.0000; 
stroke:#000000; stroke-width:0.0000; stroke-opacity:1; 
stroke-linecap:round; stroke-linejoin:round;">
<path style="fill:#000000; fill-opacity:1.0000; 
stroke:#000000; stroke-width:0.0000; stroke-opacity:1; 
stroke-linecap:round; stroke-linejoin:round;fill-rule:evenodd;"
d="M 156.9350,87.9750
156.9160,88.0707
156.8618,88.1518
156.7807,88.2060
156.6850,88.2250
156.0100,88.2250
155.9143,88.2060
155.8332,88.1518
155.7790,88.0707
155.7600,87.9750
155.7600,87.0250
155.7790,86.9293
155.8332,86.8482
155.9143,86.7940
156.0100,86.7750
156.6850,86.7750
156.7807,86.7940
156.8618,86.8482
156.9160,86.9293
156.9350,87.0250
Z" /> 
<path style="fill:#000000; fill-opacity:1.0000; 
stroke:#000000; stroke-width:0.0000; stroke-opacity:1; 
stroke-linecap:round; stroke-linejoin:round;fill-rule:evenodd;"
d="M 154.8600,87.9750
154.8410,88.0707
154.7868,88.1518
154.7057,88.2060
154.6100,88.2250
153.9350,88.2250
153.8393,88.2060
153.7582,88.1518
153.7040,88.0707
153.6850,87.9750
153.6850,87.0250
153.7040,86.9293
153.7582,86.8482
153.8393,86.7940
153.9350,86.7750
154.6100,86.7750
154.7057,86.7940
154.7868,86.8482
154.8410,86.9293
154.8600,87.0250
Z" /> 
</g>
<g >
</g>
<g style="fill:#000000; fill-opacity:1.0000; 
stroke:#000000; stroke-width:0.0000; stroke-opacity:1; 
stroke-linecap:round; stroke-linejoin:round;">
<path style="fill:#000000; fill-opacity:1.0000; 
stroke:#000000; stroke-width:0.0000; stroke-opacity:1; 
stroke-linecap:round; stroke-linejoin:round;fill-rule:evenodd;"
d="M 158.2100,102.3500
158.1910,102.4457
158.1368,102.5268
158.0557,102.5810
157.9600,102.6000
157.2600,102.6000
157.1643,102.5810
157.0832,102.5268
157.0290,102.4457
157.0100,102.3500
157.0100,101.4500
157.0290,101.3543
157.0832,101.2732
157.1643,101.2190
157.2600,101.2000
157.9600,101.2000
158.0557,101.2190
158.1368,101.2732
158.1910,101.3543
158.2100,101.4500
Z" /> 
<path style="fill:#000000; fill-opacity:1.0000; 
stroke:#000000; stroke-width:0.0000; stroke-opacity:1; 
stroke-linecap:round; stroke-linejoin:round;fill-rule:evenodd;"
d="M 156.2100,102.3500
156.1910,102.4457
156.1368,102.5268
156.0557,102.5810
155.9600,102.6000
155.2600,102.6000
155.1643,102.5810
155.0832,102.5268
155.0290,102.4457
155.0100,102.3500
155.0100,101.4500
155.0290,101.3543
155.0832,101.2732
155.1643,101.2190
155.2600,101.2000
155.9600,101.2000
156.0557,101.2190
156.1368,101.2732
156.1910,101.3543
156.2100,101.4500
Z" /> 
</g>
<g >
</g>
<g style="fill:#000000; fill-opacity:1.0000; 
stroke:#000000; stroke-width:0.0000; stroke-opacity:1; 
stroke-linecap:round; stroke-linejoin:round;">
<path style="fill:#000000; fill-opacity:1.0000; 
stroke:#000000; stroke-width:0.0000; stroke-opacity:1; 
stroke-linecap:round; stroke-linejoin:round;fill-rule:evenodd;"
d="M 148.8850,102.3250
148.9040,102.2293
148.9582,102.1482
149.0393,102.0940
149.1350,102.0750
149.8100,102.0750
149.9057,102.0940
149.9868,102.1482
150.0410,102.2293
150.0600,102.3250
150.0600,103.2750
150.0410,103.3707
149.9868,103.4518
149.9057,103.5060
149.8100,103.5250
149.1350,103.5250
149.0393,103.5060
148.9582,103.4518
148.9040,103.3707
148.8850,103.2750
Z" /> 
<path style="fill:#000000; fill-opacity:1.0000; 
stroke:#000000; stroke-width:0.0000; stroke-opacity:1; 
stroke-linecap:round; stroke-linejoin:round;fill-rule:evenodd;"
d="M 150.9600,102.3250
150.9790,102.2293
151.0332,102.1482
151.1143,102.0940
151.2100,102.0750
151.8850,102.0750
151.9807,102.0940
152.0618,102.1482
152.1160,102.2293
152.1350,102.3250
152.1350,103.2750
152.1160,103.3707
152.0618,103.4518
151.9807,103.5060
151.8850,103.5250
151.2100,103.5250
151.1143,103.5060
151.0332,103.4518
150.9790,103.3707
150.9600,103.2750
Z" /> 
</g>
<g >
</g>
<g style="fill:#000000; fill-opacity:1.0000; 
stroke:#000000; stroke-width:0.0000; stroke-opacity:1; 
stroke-linecap:round; stroke-linejoin:round;">
<path style="fill:#000000; fill-opacity:1.0000; 
stroke:#000000; stroke-width:0.0000; stroke-opacity:1; 
stroke-linecap:round; stroke-linejoin:round;fill-rule:evenodd;"
d="M 139.0600,92.8000
139.1557,92.8190
139.2368,92.8732
139.2910,92.9543
139.3100,93.0500
139.3100,93.7500
139.2910,93.8457
139.2368,93.9268
139.1557,93.9810
139.0600,94.0000
138.1600,94.0000
138.0643,93.9810
137.9832,93.9268
137.9290,93.8457
137.9100,93.7500
137.9100,93.0500
137.9290,92.9543
137.9832,92.8732
138.0643,92.8190
138.1600,92.8000
Z" /> 
<path style="fill:#000000; fill-opacity:1.0000; 
stroke:#000000; stroke-width:0.0000; stroke-opacity:1; 
stroke-linecap:round; stroke-linejoin:round;fill-rule:evenodd;"
d="M 139.0600,94.8000
139.1557,94.8190
139.2368,94.8732
139.2910,94.9543
139.3100,95.0500
139.3100,95.7500
139.2910,95.8457
139.2368,95.9268
139.1557,95.9810
139.0600,96.0000
138.1600,96.0000
138.0643,95.9810
137.9832,95.9268
137.9290,95.8457
137.9100,95.7500
137.9100,95.0500
137.9290,94.9543
137.9832,94.8732
138.0643,94.8190
138.1600,94.8000
Z" /> 
</g>
<g >
</g>
<g >
</g>
<g style="fill:#000000; fill-opacity:1.0000; 
stroke:#000000; stroke-width:0.0000; stroke-opacity:1; 
stroke-linecap:round; stroke-linejoin:round;">
<path style="fill:#000000; fill-opacity:1.0000; 
stroke:#000000; stroke-width:0.0000; stroke-opacity:1; 
stroke-linecap:round; stroke-linejoin:round;fill-rule:evenodd;"
d="M 132.7100,65.0500
132.7290,64.9543
132.7832,64.8732
132.8643,64.8190
132.9600,64.8000
133.6600,64.8000
133.7557,64.8190
133.8368,64.8732
133.8910,64.9543
133.9100,65.0500
133.9100,65.9500
133.8910,66.0457
133.8368,66.1268
133.7557,66.1810
133.6600,66.2000
132.9600,66.2000
132.8643,66.1810
132.7832,66.1268
132.7290,66.0457
132.7100,65.9500
Z" /> 
<path style="fill:#000000; fill-opacity:1.0000; 
stroke:#000000; stroke-width:0.0000; stroke-opacity:1; 
stroke-linecap:round; stroke-linejoin:round;fill-rule:evenodd;"
d="M 134.7100,65.0500
134.7290,64.9543
134.7832,64.8732
134.8643,64.8190
134.9600,64.8000
135.6600,64.8000
135.7557,64.8190
135.8368,64.8732
135.8910,64.9543
135.9100,65.0500
135.9100,65.9500
135.8910,66.0457
135.8368,66.1268
135.7557,66.1810
135.6600,66.2000
134.9600,66.2000
134.8643,66.1810
134.7832,66.1268
134.7290,66.0457
134.7100,65.9500
Z" /> 
</g>
<g >
</g>
<g style="fill:#000000; fill-opacity:1.0000; 
stroke:#000000; stroke-width:0.0000; stroke-opacity:1; 
stroke-linecap:round; stroke-linejoin:round;">
<path style="fill:#000000; fill-opacity:1.0000; 
stroke:#000000; stroke-width:0.0000; stroke-opacity:1; 
stroke-linecap:round; stroke-linejoin:round;fill-rule:evenodd;"
d="M 160.2350,98.0750
160.2160,98.1707
160.1618,98.2518
160.0807,98.3060
159.9850,98.3250
159.3100,98.3250
159.2143,98.3060
159.1332,98.2518
159.0790,98.1707
159.0600,98.0750
159.0600,97.1250
159.0790,97.0293
159.1332,96.9482
159.2143,96.8940
159.3100,96.8750
159.9850,96.8750
160.0807,96.8940
160.1618,96.9482
160.2160,97.0293
160.2350,97.1250
Z" /> 
<path style="fill:#000000; fill-opacity:1.0000; 
stroke:#000000; stroke-width:0.0000; stroke-opacity:1; 
stroke-linecap:round; stroke-linejoin:round;fill-rule:evenodd;"
d="M 158.1600,98.0750
158.1410,98.1707
158.0868,98.2518
158.0057,98.3060
157.9100,98.3250
157.2350,98.3250
157.1393,98.3060
157.0582,98.2518
157.0040,98.1707
156.9850,98.0750
156.9850,97.1250
157.0040,97.0293
157.0582,96.9482
157.1393,96.8940
157.2350,96.8750
157.9100,96.8750
158.0057,96.8940
158.0868,96.9482
158.1410,97.0293
158.1600,97.1250
Z" /> 
</g>
<g >
</g>
<g style="fill:#000000; fill-opacity:1.0000; 
stroke:#000000; stroke-width:0.0000; stroke-opacity:1; 
stroke-linecap:round; stroke-linejoin:round;">
<path style="fill:#000000; fill-opacity:1.0000; 
stroke:#000000; stroke-width:0.0000; stroke-opacity:1; 
stroke-linecap:round; stroke-linejoin:round;fill-rule:evenodd;"
d="M 151.1600,107.4000
151.0643,107.3810
150.9832,107.3268
150.9290,107.2457
150.9100,107.1500
150.9100,106.4500
150.9290,106.3543
150.9832,106.2732
151.0643,106.2190
151.1600,106.2000
152.0600,106.2000
152.1557,106.2190
152.2368,106.2732
152.2910,106.3543
152.3100,106.4500
152.3100,107.1500
152.2910,107.2457
152.2368,107.3268
152.1557,107.3810
152.0600,107.4000
Z" /> 
<path style="fill:#000000; fill-opacity:1.0000; 
stroke:#000000; stroke-width:0.0000; stroke-opacity:1; 
stroke-linecap:round; stroke-linejoin:round;fill-rule:evenodd;"
d="M 151.1600,105.4000
151.0643,105.3810
150.9832,105.3268
150.9290,105.2457
150.9100,105.1500
150.9100,104.4500
150.9290,104.3543
150.9832,104.2732
151.0643,104.2190
151.1600,104.2000
152.0600,104.2000
152.1557,104.2190
152.2368,104.2732
152.2910,104.3543
152.3100,104.4500
152.3100,105.1500
152.2910,105.2457
152.2368,105.3268
152.1557,105.3810
152.0600,105.4000
Z" /> 
</g>
<g >
</g>
<g style="fill:#000000; fill-opacity:1.0000; 
stroke:#000000; stroke-width:0.0000; stroke-opacity:1; 
stroke-linecap:round; stroke-linejoin:round;">
<path style="fill:#000000; fill-opacity:1.0000; 
stroke:#000000; stroke-width:0.0000; stroke-opacity:1; 
stroke-linecap:round; stroke-linejoin:round;fill-rule:evenodd;"
d="M 135.9350,68.1750
135.9160,68.2707
135.8618,68.3518
135.7807,68.4060
135.6850,68.4250
135.0100,68.4250
134.9143,68.4060
134.8332,68.3518
134.7790,68.2707
134.7600,68.1750
134.7600,67.2250
134.7790,67.1293
134.8332,67.0482
134.9143,66.9940
135.0100,66.9750
135.6850,66.9750
135.7807,66.9940
135.8618,67.0482
135.9160,67.1293
135.9350,67.2250
Z" /> 
<path style="fill:#000000; fill-opacity:1.0000; 
stroke:#000000; stroke-width:0.0000; stroke-opacity:1; 
stroke-linecap:round; stroke-linejoin:round;fill-rule:evenodd;"
d="M 133.8600,68.1750
133.8410,68.2707
133.7868,68.3518
133.7057,68.4060
133.6100,68.4250
132.9350,68.4250
132.8393,68.4060
132.7582,68.3518
132.7040,68.2707
132.6850,68.1750
132.6850,67.2250
132.7040,67.1293
132.7582,67.0482
132.8393,66.9940
132.9350,66.9750
133.6100,66.9750
133.7057,66.9940
133.7868,67.0482
133.8410,67.1293
133.8600,67.2250
Z" /> 
</g>
<g >
</g>
<g style="fill:#000000; fill-opacity:1.0000; 
stroke:#000000; stroke-width:0.0000; stroke-opacity:1; 
stroke-linecap:round; stroke-linejoin:round;">
<path style="fill:#000000; fill-opacity:1.0000; 
stroke:#000000; stroke-width:0.0000; stroke-opacity:1; 
stroke-linecap:round; stroke-linejoin:round;fill-rule:evenodd;"
d="M 152.1100,101.1500
152.0910,101.2457
152.0368,101.3268
151.9557,101.3810
151.8600,101.4000
151.1600,101.4000
151.0643,101.3810
150.9832,101.3268
150.9290,101.2457
150.9100,101.1500
150.9100,100.2500
150.9290,100.1543
150.9832,100.0732
151.0643,100.0190
151.1600,100.0000
151.8600,100.0000
151.9557,100.0190
152.0368,100.0732
152.0910,100.1543
152.1100,100.2500
Z" /> 
<path style="fill:#000000; fill-opacity:1.0000; 
stroke:#000000; stroke-width:0.0000; stroke-opacity:1; 
stroke-linecap:round; stroke-linejoin:round;fill-rule:evenodd;"
d="M 150.1100,101.1500
150.0910,101.2457
150.0368,101.3268
149.9557,101.3810
149.8600,101.4000
149.1600,101.4000
149.0643,101.3810
148.9832,101.3268
148.9290,101.2457
148.9100,101.1500
148.9100,100.2500
148.9290,100.1543
148.9832,100.0732
149.0643,100.0190
149.1600,100.0000
149.8600,100.0000
149.9557,100.0190
150.0368,100.0732
150.0910,100.1543
150.1100,100.2500
Z" /> 
</g>
<g >
</g>
<g >
</g>
<g style="fill:#000000; fill-opacity:1.0000; 
stroke:#000000; stroke-width:0.0000; stroke-opacity:1; 
stroke-linecap:round; stroke-linejoin:round;">
<path style="fill:#000000; fill-opacity:1.0000; 
stroke:#000000; stroke-width:0.0000; stroke-opacity:1; 
stroke-linecap:round; stroke-linejoin:round;fill-rule:evenodd;"
d="M 150.9100,108.2500
150.9290,108.1543
150.9832,108.0732
151.0643,108.0190
151.1600,108.0000
151.8600,108.0000
151.9557,108.0190
152.0368,108.0732
152.0910,108.1543
152.1100,108.2500
152.1100,109.1500
152.0910,109.2457
152.0368,109.3268
151.9557,109.3810
151.8600,109.4000
151.1600,109.4000
151.0643,109.3810
150.9832,109.3268
150.9290,109.2457
150.9100,109.1500
Z" /> 
<path style="fill:#000000; fill-opacity:1.0000; 
stroke:#000000; stroke-width:0.0000; stroke-opacity:1; 
stroke-linecap:round; stroke-linejoin:round;fill-rule:evenodd;"
d="M 152.9100,108.2500
152.9290,108.1543
152.9832,108.0732
153.0643,108.0190
153.1600,108.0000
153.8600,108.0000
153.9557,108.0190
154.0368,108.0732
154.0910,108.1543
154.1100,108.2500
154.1100,109.1500
154.0910,109.2457
154.0368,109.3268
153.9557,109.3810
153.8600,109.4000
153.1600,109.4000
153.0643,109.3810
152.9832,109.3268
152.9290,109.2457
152.9100,109.1500
Z" /> 
</g>
<g >
</g>
<g style="fill:#000000; fill-opacity:1.0000; 
stroke:#000000; stroke-width:0.0000; stroke-opacity:1; 
stroke-linecap:round; stroke-linejoin:round;">
<path style="fill:#000000; fill-opacity:1.0000; 
stroke:#000000; stroke-width:0.0000; stroke-opacity:1; 
stroke-linecap:round; stroke-linejoin:round;fill-rule:evenodd;"
d="M 118.5100,104.0500
118.5290,103.9543
118.5832,103.8732
118.6643,103.8190
118.7600,103.8000
119.4600,103.8000
119.5557,103.8190
119.6368,103.8732
119.6910,103.9543
119.7100,104.0500
119.7100,104.9500
119.6910,105.0457
119.6368,105.1268
119.5557,105.1810
119.4600,105.2000
118.7600,105.2000
118.6643,105.1810
118.5832,105.1268
118.5290,105.0457
118.5100,104.9500
Z" /> 
<path style="fill:#000000; fill-opacity:1.0000; 
stroke:#000000; stroke-width:0.0000; stroke-opacity:1; 
stroke-linecap:round; stroke-linejoin:round;fill-rule:evenodd;"
d="M 120.5100,104.0500
120.5290,103.9543
120.5832,103.8732
120.6643,103.8190
120.7600,103.8000
121.4600,103.8000
121.5557,103.8190
121.6368,103.8732
121.6910,103.9543
121.7100,104.0500
121.7100,104.9500
121.6910,105.0457
121.6368,105.1268
121.5557,105.1810
121.4600,105.2000
120.7600,105.2000
120.6643,105.1810
120.5832,105.1268
120.5290,105.0457
120.5100,104.9500
Z" /> 
</g>
<g >
</g>
<g >
</g>
<g style="fill:#000000; fill-opacity:1.0000; 
stroke:#000000; stroke-width:0.0000; stroke-opacity:1; 
stroke-linecap:round; stroke-linejoin:round;">
<path style="fill:#000000; fill-opacity:1.0000; 
stroke:#000000; stroke-width:0.0000; stroke-opacity:1; 
stroke-linecap:round; stroke-linejoin:round;fill-rule:evenodd;"
d="M 129.7100,102.3500
129.7290,102.2543
129.7832,102.1732
129.8643,102.1190
129.9600,102.1000
130.6600,102.1000
130.7557,102.1190
130.8368,102.1732
130.8910,102.2543
130.9100,102.3500
130.9100,103.2500
130.8910,103.3457
130.8368,103.4268
130.7557,103.4810
130.6600,103.5000
129.9600,103.5000
129.8643,103.4810
129.7832,103.4268
129.7290,103.3457
129.7100,103.2500
Z" /> 
<path style="fill:#000000; fill-opacity:1.0000; 
stroke:#000000; stroke-width:0.0000; stroke-opacity:1; 
stroke-linecap:round; stroke-linejoin:round;fill-rule:evenodd;"
d="M 131.7100,102.3500
131.7290,102.2543
131.7832,102.1732
131.8643,102.1190
131.9600,102.1000
132.6600,102.1000
132.7557,102.1190
132.8368,102.1732
132.8910,102.2543
132.9100,102.3500
132.9100,103.2500
132.8910,103.3457
132.8368,103.4268
132.7557,103.4810
132.6600,103.5000
131.9600,103.5000
131.8643,103.4810
131.7832,103.4268
131.7290,103.3457
131.7100,103.2500
Z" /> 
</g>
<g >
</g>
<g style="fill:#000000; fill-opacity:1.0000; 
stroke:#000000; stroke-width:0.0000; stroke-opacity:1; 
stroke-linecap:round; stroke-linejoin:round;">
<path style="fill:#000000; fill-opacity:1.0000; 
stroke:#000000; stroke-width:0.0000; stroke-opacity:1; 
stroke-linecap:round; stroke-linejoin:round;fill-rule:evenodd;"
d="M 132.3350,98.9250
132.2393,98.9060
132.1582,98.8518
132.1040,98.7707
132.0850,98.6750
132.0850,98.0000
132.1040,97.9043
132.1582,97.8232
132.2393,97.7690
132.3350,97.7500
133.2850,97.7500
133.3807,97.7690
133.4618,97.8232
133.5160,97.9043
133.5350,98.0000
133.5350,98.6750
133.5160,98.7707
133.4618,98.8518
133.3807,98.9060
133.2850,98.9250
Z" /> 
<path style="fill:#000000; fill-opacity:1.0000; 
stroke:#000000; stroke-width:0.0000; stroke-opacity:1; 
stroke-linecap:round; stroke-linejoin:round;fill-rule:evenodd;"
d="M 132.3350,96.8500
132.2393,96.8310
132.1582,96.7768
132.1040,96.6957
132.0850,96.6000
132.0850,95.9250
132.1040,95.8293
132.1582,95.7482
132.2393,95.6940
132.3350,95.6750
133.2850,95.6750
133.3807,95.6940
133.4618,95.7482
133.5160,95.8293
133.5350,95.9250
133.5350,96.6000
133.5160,96.6957
133.4618,96.7768
133.3807,96.8310
133.2850,96.8500
Z" /> 
</g>
<g >
</g>
<g style="fill:#000000; fill-opacity:1.0000; 
stroke:#000000; stroke-width:0.0000; stroke-opacity:1; 
stroke-linecap:round; stroke-linejoin:round;">
<path style="fill:#000000; fill-opacity:1.0000; 
stroke:#000000; stroke-width:0.0000; stroke-opacity:1; 
stroke-linecap:round; stroke-linejoin:round;fill-rule:evenodd;"
d="M 132.9350,101.2750
132.9160,101.3707
132.8618,101.4518
132.7807,101.5060
132.6850,101.5250
132.0100,101.5250
131.9143,101.5060
131.8332,101.4518
131.7790,101.3707
131.7600,101.2750
131.7600,100.3250
131.7790,100.2293
131.8332,100.1482
131.9143,100.0940
132.0100,100.0750
132.6850,100.0750
132.7807,100.0940
132.8618,100.1482
132.9160,100.2293
132.9350,100.3250
Z" /> 
<path style="fill:#000000; fill-opacity:1.0000; 
stroke:#000000; stroke-width:0.0000; stroke-opacity:1; 
stroke-linecap:round; stroke-linejoin:round;fill-rule:evenodd;"
d="M 130.8600,101.2750
130.8410,101.3707
130.7868,101.4518
130.7057,101.5060
130.6100,101.5250
129.9350,101.5250
129.8393,101.5060
129.7582,101.4518
129.7040,101.3707
129.6850,101.2750
129.6850,100.3250
129.7040,100.2293
129.7582,100.1482
129.8393,100.0940
129.9350,100.0750
130.6100,100.0750
130.7057,100.0940
130.7868,100.1482
130.8410,100.2293
130.8600,100.3250
Z" /> 
</g>
<g >
</g>
<g style="fill:#000000; fill-opacity:1.0000; 
stroke:#000000; stroke-width:0.0000; stroke-opacity:1; 
stroke-linecap:round; stroke-linejoin:round;">
<path style="fill:#000000; fill-opacity:1.0000; 
stroke:#000000; stroke-width:0.0000; stroke-opacity:1; 
stroke-linecap:round; stroke-linejoin:round;fill-rule:evenodd;"
d="M 157.6225,87.0250
157.6415,86.9293
157.6957,86.8482
157.7768,86.7940
157.8725,86.7750
158.5475,86.7750
158.6432,86.7940
158.7243,86.8482
158.7785,86.9293
158.7975,87.0250
158.7975,87.9750
158.7785,88.0707
158.7243,88.1518
158.6432,88.2060
158.5475,88.2250
157.8725,88.2250
157.7768,88.2060
157.6957,88.1518
157.6415,88.0707
157.6225,87.9750
Z" /> 
<path style="fill:#000000; fill-opacity:1.0000; 
stroke:#000000; stroke-width:0.0000; stroke-opacity:1; 
stroke-linecap:round; stroke-linejoin:round;fill-rule:evenodd;"
d="M 159.6975,87.0250
159.7165,86.9293
159.7707,86.8482
159.8518,86.7940
159.9475,86.7750
160.6225,86.7750
160.7182,86.7940
160.7993,86.8482
160.8535,86.9293
160.8725,87.0250
160.8725,87.9750
160.8535,88.0707
160.7993,88.1518
160.7182,88.2060
160.6225,88.2250
159.9475,88.2250
159.8518,88.2060
159.7707,88.1518
159.7165,88.0707
159.6975,87.9750
Z" /> 
</g>
<g >
</g>
<g style="fill:#000000; fill-opacity:1.0000; 
stroke:#000000; stroke-width:0.0000; stroke-opacity:1; 
stroke-linecap:round; stroke-linejoin:round;">
<path style="fill:#000000; fill-opacity:1.0000; 
stroke:#000000; stroke-width:0.0000; stroke-opacity:1; 
stroke-linecap:round; stroke-linejoin:round;fill-rule:evenodd;"
d="M 129.7100,104.3500
129.7290,104.2543
129.7832,104.1732
129.8643,104.1190
129.9600,104.1000
130.6600,104.1000
130.7557,104.1190
130.8368,104.1732
130.8910,104.2543
130.9100,104.3500
130.9100,105.2500
130.8910,105.3457
130.8368,105.4268
130.7557,105.4810
130.6600,105.5000
129.9600,105.5000
129.8643,105.4810
129.7832,105.4268
129.7290,105.3457
129.7100,105.2500
Z" /> 
<path style="fill:#000000; fill-opacity:1.0000; 
stroke:#000000; stroke-width:0.0000; stroke-opacity:1; 
stroke-linecap:round; stroke-linejoin:round;fill-rule:evenodd;"
d="M 131.7100,104.3500
131.7290,104.2543
131.7832,104.1732
131.8643,104.1190
131.9600,104.1000
132.6600,104.1000
132.7557,104.1190
132.8368,104.1732
132.8910,104.2543
132.9100,104.3500
132.9100,105.2500
132.8910,105.3457
132.8368,105.4268
132.7557,105.4810
132.6600,105.5000
131.9600,105.5000
131.8643,105.4810
131.7832,105.4268
131.7290,105.3457
131.7100,105.2500
Z" /> 
</g>
<g >
</g>
<g >
</g>
<g style="fill:#000000; fill-opacity:1.0000; 
stroke:#000000; stroke-width:0.0000; stroke-opacity:1; 
stroke-linecap:round; stroke-linejoin:round;">
<path style="fill:#000000; fill-opacity:1.0000; 
stroke:#000000; stroke-width:0.0000; stroke-opacity:1; 
stroke-linecap:round; stroke-linejoin:round;fill-rule:evenodd;"
d="M 161.8100,92.0750
161.7526,92.0636
161.7039,92.0311
161.6714,91.9824
161.6600,91.9250
161.6600,90.7500
161.6714,90.6926
161.7039,90.6439
161.7526,90.6114
161.8100,90.6000
162.1100,90.6000
162.1674,90.6114
162.2161,90.6439
162.2486,90.6926
162.2600,90.7500
162.2600,91.9250
162.2486,91.9824
162.2161,92.0311
162.1674,92.0636
162.1100,92.0750
Z" /> 
<path style="fill:#000000; fill-opacity:1.0000; 
stroke:#000000; stroke-width:0.0000; stroke-opacity:1; 
stroke-linecap:round; stroke-linejoin:round;fill-rule:evenodd;"
d="M 163.7100,92.0750
163.6526,92.0636
163.6039,92.0311
163.5714,91.9824
163.5600,91.9250
163.5600,90.7500
163.5714,90.6926
163.6039,90.6439
163.6526,90.6114
163.7100,90.6000
164.0100,90.6000
164.0674,90.6114
164.1161,90.6439
164.1486,90.6926
164.1600,90.7500
164.1600,91.9250
164.1486,91.9824
164.1161,92.0311
164.0674,92.0636
164.0100,92.0750
Z" /> 
<path style="fill:#000000; fill-opacity:1.0000; 
stroke:#000000; stroke-width:0.0000; stroke-opacity:1; 
stroke-linecap:round; stroke-linejoin:round;fill-rule:evenodd;"
d="M 162.7600,90.2000
162.7026,90.1886
162.6539,90.1561
162.6214,90.1074
162.6100,90.0500
162.6100,88.8750
162.6214,88.8176
162.6539,88.7689
162.7026,88.7364
162.7600,88.7250
163.0600,88.7250
163.1174,88.7364
163.1661,88.7689
163.1986,88.8176
163.2100,88.8750
163.2100,90.0500
163.1986,90.1074
163.1661,90.1561
163.1174,90.1886
163.0600,90.2000
Z" /> 
</g>
<g >
</g>
<g style="fill:#000000; fill-opacity:1.0000; 
stroke:#000000; stroke-width:0.0000; stroke-opacity:1; 
stroke-linecap:round; stroke-linejoin:round;">
<path style="fill:#000000; fill-opacity:1.0000; 
stroke:#000000; stroke-width:0.0000; stroke-opacity:1; 
stroke-linecap:round; stroke-linejoin:round;fill-rule:evenodd;"
d="M 152.0600,86.1000
151.9643,86.0810
151.8832,86.0268
151.8290,85.9457
151.8100,85.8500
151.8100,85.1500
151.8290,85.0543
151.8832,84.9732
151.9643,84.9190
152.0600,84.9000
152.9600,84.9000
153.0557,84.9190
153.1368,84.9732
153.1910,85.0543
153.2100,85.1500
153.2100,85.8500
153.1910,85.9457
153.1368,86.0268
153.0557,86.0810
152.9600,86.1000
Z" /> 
<path style="fill:#000000; fill-opacity:1.0000; 
stroke:#000000; stroke-width:0.0000; stroke-opacity:1; 
stroke-linecap:round; stroke-linejoin:round;fill-rule:evenodd;"
d="M 152.0600,84.1000
151.9643,84.0810
151.8832,84.0268
151.8290,83.9457
151.8100,83.8500
151.8100,83.1500
151.8290,83.0543
151.8832,82.9732
151.9643,82.9190
152.0600,82.9000
152.9600,82.9000
153.0557,82.9190
153.1368,82.9732
153.1910,83.0543
153.2100,83.1500
153.2100,83.8500
153.1910,83.9457
153.1368,84.0268
153.0557,84.0810
152.9600,84.1000
Z" /> 
</g>
<g >
</g>
<g >
</g>
<g style="fill:#000000; fill-opacity:1.0000; 
stroke:#000000; stroke-width:0.0000; stroke-opacity:1; 
stroke-linecap:round; stroke-linejoin:round;">
<path style="fill:#000000; fill-opacity:1.0000; 
stroke:#000000; stroke-width:0.0000; stroke-opacity:1; 
stroke-linecap:round; stroke-linejoin:round;fill-rule:evenodd;"
d="M 150.9600,85.6000
151.0557,85.6190
151.1368,85.6732
151.1910,85.7543
151.2100,85.8500
151.2100,86.5500
151.1910,86.6457
151.1368,86.7268
151.0557,86.7810
150.9600,86.8000
150.0600,86.8000
149.9643,86.7810
149.8832,86.7268
149.8290,86.6457
149.8100,86.5500
149.8100,85.8500
149.8290,85.7543
149.8832,85.6732
149.9643,85.6190
150.0600,85.6000
Z" /> 
<path style="fill:#000000; fill-opacity:1.0000; 
stroke:#000000; stroke-width:0.0000; stroke-opacity:1; 
stroke-linecap:round; stroke-linejoin:round;fill-rule:evenodd;"
d="M 150.9600,87.6000
151.0557,87.6190
151.1368,87.6732
151.1910,87.7543
151.2100,87.8500
151.2100,88.5500
151.1910,88.6457
151.1368,88.7268
151.0557,88.7810
150.9600,88.8000
150.0600,88.8000
149.9643,88.7810
149.8832,88.7268
149.8290,88.6457
149.8100,88.5500
149.8100,87.8500
149.8290,87.7543
149.8832,87.6732
149.9643,87.6190
150.0600,87.6000
Z" /> 
</g>
<g >
</g>
<g style="fill:#000000; fill-opacity:1.0000; 
stroke:#000000; stroke-width:0.0000; stroke-opacity:1; 
stroke-linecap:round; stroke-linejoin:round;">
<path style="fill:#000000; fill-opacity:1.0000; 
stroke:#000000; stroke-width:0.0000; stroke-opacity:1; 
stroke-linecap:round; stroke-linejoin:round;fill-rule:evenodd;"
d="M 158.3350,93.4250
158.2393,93.4060
158.1582,93.3518
158.1040,93.2707
158.0850,93.1750
158.0850,92.5000
158.1040,92.4043
158.1582,92.3232
158.2393,92.2690
158.3350,92.2500
159.2850,92.2500
159.3807,92.2690
159.4618,92.3232
159.5160,92.4043
159.5350,92.5000
159.5350,93.1750
159.5160,93.2707
159.4618,93.3518
159.3807,93.4060
159.2850,93.4250
Z" /> 
<path style="fill:#000000; fill-opacity:1.0000; 
stroke:#000000; stroke-width:0.0000; stroke-opacity:1; 
stroke-linecap:round; stroke-linejoin:round;fill-rule:evenodd;"
d="M 158.3350,91.3500
158.2393,91.3310
158.1582,91.2768
158.1040,91.1957
158.0850,91.1000
158.0850,90.4250
158.1040,90.3293
158.1582,90.2482
158.2393,90.1940
158.3350,90.1750
159.2850,90.1750
159.3807,90.1940
159.4618,90.2482
159.5160,90.3293
159.5350,90.4250
159.5350,91.1000
159.5160,91.1957
159.4618,91.2768
159.3807,91.3310
159.2850,91.3500
Z" /> 
</g>
<g >
</g>
<g style="fill:#000000; fill-opacity:1.0000; 
stroke:#000000; stroke-width:0.0000; stroke-opacity:1; 
stroke-linecap:round; stroke-linejoin:round;">
<path style="fill:#000000; fill-opacity:1.0000; 
stroke:#000000; stroke-width:0.0000; stroke-opacity:1; 
stroke-linecap:round; stroke-linejoin:round;fill-rule:evenodd;"
d="M 133.5850,104.3250
133.6040,104.2293
133.6582,104.1482
133.7393,104.0940
133.8350,104.0750
134.5100,104.0750
134.6057,104.0940
134.6868,104.1482
134.7410,104.2293
134.7600,104.3250
134.7600,105.2750
134.7410,105.3707
134.6868,105.4518
134.6057,105.5060
134.5100,105.5250
133.8350,105.5250
133.7393,105.5060
133.6582,105.4518
133.6040,105.3707
133.5850,105.2750
Z" /> 
<path style="fill:#000000; fill-opacity:1.0000; 
stroke:#000000; stroke-width:0.0000; stroke-opacity:1; 
stroke-linecap:round; stroke-linejoin:round;fill-rule:evenodd;"
d="M 135.6600,104.3250
135.6790,104.2293
135.7332,104.1482
135.8143,104.0940
135.9100,104.0750
136.5850,104.0750
136.6807,104.0940
136.7618,104.1482
136.8160,104.2293
136.8350,104.3250
136.8350,105.2750
136.8160,105.3707
136.7618,105.4518
136.6807,105.5060
136.5850,105.5250
135.9100,105.5250
135.8143,105.5060
135.7332,105.4518
135.6790,105.3707
135.6600,105.2750
Z" /> 
</g>
<g >
</g>
<g style="fill:#000000; fill-opacity:1.0000; 
stroke:#000000; stroke-width:0.0000; stroke-opacity:1; 
stroke-linecap:round; stroke-linejoin:round;">
<path style="fill:#000000; fill-opacity:1.0000; 
stroke:#000000; stroke-width:0.0000; stroke-opacity:1; 
stroke-linecap:round; stroke-linejoin:round;fill-rule:evenodd;"
d="M 163.9600,92.6625
164.0174,92.6739
164.0661,92.7064
164.0986,92.7551
164.1100,92.8125
164.1100,93.9875
164.0986,94.0449
164.0661,94.0936
164.0174,94.1261
163.9600,94.1375
163.6600,94.1375
163.6026,94.1261
163.5539,94.0936
163.5214,94.0449
163.5100,93.9875
163.5100,92.8125
163.5214,92.7551
163.5539,92.7064
163.6026,92.6739
163.6600,92.6625
Z" /> 
<path style="fill:#000000; fill-opacity:1.0000; 
stroke:#000000; stroke-width:0.0000; stroke-opacity:1; 
stroke-linecap:round; stroke-linejoin:round;fill-rule:evenodd;"
d="M 162.0600,92.6625
162.1174,92.6739
162.1661,92.7064
162.1986,92.7551
162.2100,92.8125
162.2100,93.9875
162.1986,94.0449
162.1661,94.0936
162.1174,94.1261
162.0600,94.1375
161.7600,94.1375
161.7026,94.1261
161.6539,94.0936
161.6214,94.0449
161.6100,93.9875
161.6100,92.8125
161.6214,92.7551
161.6539,92.7064
161.7026,92.6739
161.7600,92.6625
Z" /> 
<path style="fill:#000000; fill-opacity:1.0000; 
stroke:#000000; stroke-width:0.0000; stroke-opacity:1; 
stroke-linecap:round; stroke-linejoin:round;fill-rule:evenodd;"
d="M 163.0100,94.5375
163.0674,94.5489
163.1161,94.5814
163.1486,94.6301
163.1600,94.6875
163.1600,95.8625
163.1486,95.9199
163.1161,95.9686
163.0674,96.0011
163.0100,96.0125
162.7100,96.0125
162.6526,96.0011
162.6039,95.9686
162.5714,95.9199
162.5600,95.8625
162.5600,94.6875
162.5714,94.6301
162.6039,94.5814
162.6526,94.5489
162.7100,94.5375
Z" /> 
</g>
<g >
</g>
<g style="fill:#000000; fill-opacity:1.0000; 
stroke:#000000; stroke-width:0.0000; stroke-opacity:1; 
stroke-linecap:round; stroke-linejoin:round;">
<path style="fill:#000000; fill-opacity:1.0000; 
stroke:#000000; stroke-width:0.0000; stroke-opacity:1; 
stroke-linecap:round; stroke-linejoin:round;fill-rule:evenodd;"
d="M 132.3600,95.1000
132.2643,95.0810
132.1832,95.0268
132.1290,94.9457
132.1100,94.8500
132.1100,94.1500
132.1290,94.0543
132.1832,93.9732
132.2643,93.9190
132.3600,93.9000
133.2600,93.9000
133.3557,93.9190
133.4368,93.9732
133.4910,94.0543
133.5100,94.1500
133.5100,94.8500
133.4910,94.9457
133.4368,95.0268
133.3557,95.0810
133.2600,95.1000
Z" /> 
<path style="fill:#000000; fill-opacity:1.0000; 
stroke:#000000; stroke-width:0.0000; stroke-opacity:1; 
stroke-linecap:round; stroke-linejoin:round;fill-rule:evenodd;"
d="M 132.3600,93.1000
132.2643,93.0810
132.1832,93.0268
132.1290,92.9457
132.1100,92.8500
132.1100,92.1500
132.1290,92.0543
132.1832,91.9732
132.2643,91.9190
132.3600,91.9000
133.2600,91.9000
133.3557,91.9190
133.4368,91.9732
133.4910,92.0543
133.5100,92.1500
133.5100,92.8500
133.4910,92.9457
133.4368,93.0268
133.3557,93.0810
133.2600,93.1000
Z" /> 
</g>
<g >
</g>
<g style="fill:#000000; fill-opacity:1.0000; 
stroke:#000000; stroke-width:0.0000; stroke-opacity:1; 
stroke-linecap:round; stroke-linejoin:round;">
<path style="fill:#000000; fill-opacity:1.0000; 
stroke:#000000; stroke-width:0.0000; stroke-opacity:1; 
stroke-linecap:round; stroke-linejoin:round;fill-rule:evenodd;"
d="M 160.6600,95.6000
160.6410,95.6957
160.5868,95.7768
160.5057,95.8310
160.4100,95.8500
159.8100,95.8500
159.7143,95.8310
159.6332,95.7768
159.5790,95.6957
159.5600,95.6000
159.5600,95.0000
159.5790,94.9043
159.6332,94.8232
159.7143,94.7690
159.8100,94.7500
160.4100,94.7500
160.5057,94.7690
160.5868,94.8232
160.6410,94.9043
160.6600,95.0000
Z" /> 
<path style="fill:#000000; fill-opacity:1.0000; 
stroke:#000000; stroke-width:0.0000; stroke-opacity:1; 
stroke-linecap:round; stroke-linejoin:round;fill-rule:evenodd;"
d="M 157.8600,95.6000
157.8410,95.6957
157.7868,95.7768
157.7057,95.8310
157.6100,95.8500
157.0100,95.8500
156.9143,95.8310
156.8332,95.7768
156.7790,95.6957
156.7600,95.6000
156.7600,95.0000
156.7790,94.9043
156.8332,94.8232
156.9143,94.7690
157.0100,94.7500
157.6100,94.7500
157.7057,94.7690
157.7868,94.8232
157.8410,94.9043
157.8600,95.0000
Z" /> 
</g>
<g >
</g>
<g style="fill:#000000; fill-opacity:1.0000; 
stroke:#000000; stroke-width:0.0000; stroke-opacity:1; 
stroke-linecap:round; stroke-linejoin:round;">
<path style="fill:#000000; fill-opacity:1.0000; 
stroke:#000000; stroke-width:0.0000; stroke-opacity:1; 
stroke-linecap:round; stroke-linejoin:round;fill-rule:evenodd;"
d="M 118.5100,106.0500
118.5290,105.9543
118.5832,105.8732
118.6643,105.8190
118.7600,105.8000
119.4600,105.8000
119.5557,105.8190
119.6368,105.8732
119.6910,105.9543
119.7100,106.0500
119.7100,106.9500
119.6910,107.0457
119.6368,107.1268
119.5557,107.1810
119.4600,107.2000
118.7600,107.2000
118.6643,107.1810
118.5832,107.1268
118.5290,107.0457
118.5100,106.9500
Z" /> 
<path style="fill:#000000; fill-opacity:1.0000; 
stroke:#000000; stroke-width:0.0000; stroke-opacity:1; 
stroke-linecap:round; stroke-linejoin:round;fill-rule:evenodd;"
d="M 120.5100,106.0500
120.5290,105.9543
120.5832,105.8732
120.6643,105.8190
120.7600,105.8000
121.4600,105.8000
121.5557,105.8190
121.6368,105.8732
121.6910,105.9543
121.7100,106.0500
121.7100,106.9500
121.6910,107.0457
121.6368,107.1268
121.5557,107.1810
121.4600,107.2000
120.7600,107.2000
120.6643,107.1810
120.5832,107.1268
120.5290,107.0457
120.5100,106.9500
Z" /> 
</g>
<g >
</g>
<g style="fill:#000000; fill-opacity:1.0000; 
stroke:#000000; stroke-width:0.0000; stroke-opacity:1; 
stroke-linecap:round; stroke-linejoin:round;">
<path style="fill:#000000; fill-opacity:1.0000; 
stroke:#000000; stroke-width:0.0000; stroke-opacity:1; 
stroke-linecap:round; stroke-linejoin:round;fill-rule:evenodd;"
d="M 149.1600,107.4000
149.0643,107.3810
148.9832,107.3268
148.9290,107.2457
148.9100,107.1500
148.9100,106.4500
148.9290,106.3543
148.9832,106.2732
149.0643,106.2190
149.1600,106.2000
150.0600,106.2000
150.1557,106.2190
150.2368,106.2732
150.2910,106.3543
150.3100,106.4500
150.3100,107.1500
150.2910,107.2457
150.2368,107.3268
150.1557,107.3810
150.0600,107.4000
Z" /> 
<path style="fill:#000000; fill-opacity:1.0000; 
stroke:#000000; stroke-width:0.0000; stroke-opacity:1; 
stroke-linecap:round; stroke-linejoin:round;fill-rule:evenodd;"
d="M 149.1600,105.4000
149.0643,105.3810
148.9832,105.3268
148.9290,105.2457
148.9100,105.1500
148.9100,104.4500
148.9290,104.3543
148.9832,104.2732
149.0643,104.2190
149.1600,104.2000
150.0600,104.2000
150.1557,104.2190
150.2368,104.2732
150.2910,104.3543
150.3100,104.4500
150.3100,105.1500
150.2910,105.2457
150.2368,105.3268
150.1557,105.3810
150.0600,105.4000
Z" /> 
</g>
<g >
</g>
<g >
</g>
<g >
</g>
<g >
</g>
<g >
</g>
<g >
</g>
<g >
</g>
<g >
</g>
</g> 
</svg>
