<?xml version='1.0' encoding='ASCII' standalone='yes'?>
<svg xmlns="http://www.w3.org/2000/svg" version="1.1" width="297.0022mm" height="210.0072mm" viewBox="0.0000 0.0000 297.0022 210.0072">
            <title>Picture generated by PcbDraw </title>
            <desc>Picture generated by PcbDraw</desc>
        <defs><clipPath id="cut-off"><path d="M141.6700 109.4900 L141.6700 107.7600 M 148.5 107.75 L 150.5 109.75 L 169.0 109.75 L 170.5 108.25 L 170.5 85.0 L 170.5 57.0 L 165.5 52.0 L 148.75 52.0 L 148.75 62.5 L 136.75 62.5 L 136.75 52.0 L 120.0 52.0 L 115.0 57.0 L 115.0 108.25 L 116.5 109.75 L 135.35 109.75 L 137.35 107.75 L 140.6 107.75 L 140.6 109.5 L 137.7 109.5 L 135.95 111.25 L 117.0 111.25 L 116.5 111.25 L 115.0 112.75 L 115.0 121.0 L 115.0 134.5 L 127.0 146.5 L 128.0 147.5 L 128.5 147.5 L 132.5 147.5 L 133.5 148.5 L 133.5 151.0 L 134.5 152.0 L 158.0 152.0 L 169.0 141.0 L 169.0 133.5 L 170.5 132.0 L 170.5 112.75 L 169.0 111.25 L 164.75 111.25 L 149.75 111.25 L 148.0 109.5 L 145.4 109.5 L 145.4 107.75 L 148.5 107.75  M 144.29 107.76 L 144.29 109.49 L 141.67 109.49 L 141.67 107.76 L 144.29 107.76 " style="fill-rule: evenodd;"/></clipPath><mask id="pads-mask-silkscreen"><rect x="74.966786" y="32.7425" width="101.693214" height="122.179959" fill="white"/><g style="fill:#000000; fill-opacity:0.0;  stroke:#000000; stroke-width:0.0000; stroke-opacity:1;  stroke-linecap:round; stroke-linejoin:round;">
<g style="fill:#000000; fill-opacity:1.0000;  stroke:#000000; stroke-width:0.0000; stroke-opacity:1;  stroke-linecap:round; stroke-linejoin:round;">
<path style="fill:#000000; fill-opacity:1.0000;  stroke:#000000; stroke-width:0.0000; stroke-opacity:1;  stroke-linecap:round; stroke-linejoin:round;fill-rule:evenodd;" d="M 150.0500,138.5750 150.0348,138.6515 149.9914,138.7164 149.9265,138.7598 149.8500,138.7750 147.2500,138.7750 147.1735,138.7598 147.1086,138.7164 147.0652,138.6515 147.0500,138.5750 147.0500,137.0750 147.0652,136.9985 147.1086,136.9336 147.1735,136.8902 147.2500,136.8750 149.8500,136.8750 149.9265,136.8902 149.9914,136.9336 150.0348,136.9985 150.0500,137.0750 Z"/> 
</g>
<g style="fill:#000000; fill-opacity:0.0;  stroke:#000000; stroke-width:1.9000; stroke-opacity:1;  stroke-linecap:round; stroke-linejoin:round;">
<path d="M143.8000 137.8250 L142.7000 137.8250 "/>
<path d="M138.5000 137.8250 L137.4000 137.8250 "/>
<path d="M149.1000 142.5250 L148.0000 142.5250 "/>
<path d="M143.8000 142.5500 L142.7000 142.5500 "/>
<path d="M138.5000 142.5250 L137.4000 142.5250 "/>
<path d="M149.1000 147.2250 L148.0000 147.2250 "/>
<path d="M143.8000 147.2250 L142.7000 147.2250 "/>
<path d="M138.5000 147.2250 L137.4000 147.2250 "/>
</g>
<g style="fill:#000000; fill-opacity:1.0000;  stroke:#000000; stroke-width:0.0000; stroke-opacity:1;  stroke-linecap:round; stroke-linejoin:round;">
<circle cx="128.6600" cy="130.7300" r="1.7000"/> 
</g>
<g style="fill:#000000; fill-opacity:1.0000;  stroke:#000000; stroke-width:0.0000; stroke-opacity:1;  stroke-linecap:round; stroke-linejoin:round;">
<circle cx="128.6600" cy="114.5000" r="1.7000"/> 
</g>
<g style="fill:#000000; fill-opacity:1.0000;  stroke:#000000; stroke-width:0.0000; stroke-opacity:1;  stroke-linecap:round; stroke-linejoin:round;">
<circle cx="122.3100" cy="130.7300" r="1.7000"/> 
</g>
<g style="fill:#000000; fill-opacity:1.0000;  stroke:#000000; stroke-width:0.0000; stroke-opacity:1;  stroke-linecap:round; stroke-linejoin:round;">
<circle cx="122.3100" cy="114.5000" r="1.7000"/> 
</g>
<g style="fill:#000000; fill-opacity:1.0000;  stroke:#000000; stroke-width:0.0000; stroke-opacity:1;  stroke-linecap:round; stroke-linejoin:round;">
<circle cx="135.0100" cy="130.7300" r="1.7000"/> 
</g>
<g style="fill:#000000; fill-opacity:1.0000;  stroke:#000000; stroke-width:0.0000; stroke-opacity:1;  stroke-linecap:round; stroke-linejoin:round;">
<circle cx="135.0100" cy="114.5000" r="1.7000"/> 
</g>
<g style="fill:#000000; fill-opacity:1.0000;  stroke:#000000; stroke-width:0.0000; stroke-opacity:1;  stroke-linecap:round; stroke-linejoin:round;">
<path style="fill:#000000; fill-opacity:1.0000;  stroke:#000000; stroke-width:0.0000; stroke-opacity:1;  stroke-linecap:round; stroke-linejoin:round;fill-rule:evenodd;" d="M 133.4600,54.1500 133.4752,54.0735 133.5186,54.0086 133.5835,53.9652 133.6600,53.9500 135.3600,53.9500 135.4365,53.9652 135.5014,54.0086 135.5448,54.0735 135.5600,54.1500 135.5600,55.8500 135.5448,55.9265 135.5014,55.9914 135.4365,56.0348 135.3600,56.0500 133.6600,56.0500 133.5835,56.0348 133.5186,55.9914 133.4752,55.9265 133.4600,55.8500 Z"/> 
<circle cx="134.5100" cy="57.5400" r="1.0500"/> 
</g>
<g style="fill:#000000; fill-opacity:1.0000;  stroke:#000000; stroke-width:0.0000; stroke-opacity:1;  stroke-linecap:round; stroke-linejoin:round;">
<path style="fill:#000000; fill-opacity:1.0000;  stroke:#000000; stroke-width:0.0000; stroke-opacity:1;  stroke-linecap:round; stroke-linejoin:round;fill-rule:evenodd;" d="M 147.5500,110.3000 147.6265,110.3152 147.6914,110.3586 147.7348,110.4235 147.7500,110.5000 147.7500,112.2000 147.7348,112.2765 147.6914,112.3414 147.6265,112.3848 147.5500,112.4000 145.8500,112.4000 145.7735,112.3848 145.7086,112.3414 145.6652,112.2765 145.6500,112.2000 145.6500,110.5000 145.6652,110.4235 145.7086,110.3586 145.7735,110.3152 145.8500,110.3000 Z"/> 
<circle cx="144.1600" cy="111.3500" r="1.0500"/> 
<circle cx="141.6200" cy="111.3500" r="1.0500"/> 
<circle cx="139.0800" cy="111.3500" r="1.0500"/> 
</g>
<g style="fill:#000000; fill-opacity:1.0000;  stroke:#000000; stroke-width:0.0000; stroke-opacity:1;  stroke-linecap:round; stroke-linejoin:round;">
<path style="fill:#000000; fill-opacity:1.0000;  stroke:#000000; stroke-width:0.0000; stroke-opacity:1;  stroke-linecap:round; stroke-linejoin:round;fill-rule:evenodd;" d="M 147.5500,104.7500 147.6265,104.7652 147.6914,104.8086 147.7348,104.8735 147.7500,104.9500 147.7500,106.6500 147.7348,106.7265 147.6914,106.7914 147.6265,106.8348 147.5500,106.8500 145.8500,106.8500 145.7735,106.8348 145.7086,106.7914 145.6652,106.7265 145.6500,106.6500 145.6500,104.9500 145.6652,104.8735 145.7086,104.8086 145.7735,104.7652 145.8500,104.7500 Z"/> 
<circle cx="144.1600" cy="105.8000" r="1.0500"/> 
<circle cx="141.6200" cy="105.8000" r="1.0500"/> 
<circle cx="139.0800" cy="105.8000" r="1.0500"/> 
</g>
<g style="fill:#000000; fill-opacity:1.0000;  stroke:#000000; stroke-width:0.0000; stroke-opacity:1;  stroke-linecap:round; stroke-linejoin:round;">
<path style="fill:#000000; fill-opacity:1.0000;  stroke:#000000; stroke-width:0.0000; stroke-opacity:1;  stroke-linecap:round; stroke-linejoin:round;fill-rule:evenodd;" d="M 162.8000,139.2000 162.8765,139.2152 162.9414,139.2586 162.9848,139.3235 163.0000,139.4000 163.0000,141.0000 162.9848,141.0765 162.9414,141.1414 162.8765,141.1848 162.8000,141.2000 161.2000,141.2000 161.1235,141.1848 161.0586,141.1414 161.0152,141.0765 161.0000,141.0000 161.0000,139.4000 161.0152,139.3235 161.0586,139.2586 161.1235,139.2152 161.2000,139.2000 Z"/> 
<circle cx="162.0000" cy="142.7000" r="1.0000"/> 
</g>
<g style="fill:#000000; fill-opacity:1.0000;  stroke:#000000; stroke-width:0.0000; stroke-opacity:1;  stroke-linecap:round; stroke-linejoin:round;">
<path style="fill:#000000; fill-opacity:1.0000;  stroke:#000000; stroke-width:0.0000; stroke-opacity:1;  stroke-linecap:round; stroke-linejoin:round;fill-rule:evenodd;" d="M 123.7000,138.4900 123.6848,138.5665 123.6414,138.6314 123.5765,138.6748 123.5000,138.6900 121.5000,138.6900 121.4235,138.6748 121.3586,138.6314 121.3152,138.5665 121.3000,138.4900 121.3000,136.5900 121.3152,136.5135 121.3586,136.4486 121.4235,136.4052 121.5000,136.3900 123.5000,136.3900 123.5765,136.4052 123.6414,136.4486 123.6848,136.5135 123.7000,136.5900 Z"/> 
<circle cx="122.5000" cy="135.0000" r="1.1500"/> 
</g>
<g style="fill:#000000; fill-opacity:1.0000;  stroke:#000000; stroke-width:0.0000; stroke-opacity:1;  stroke-linecap:round; stroke-linejoin:round;">
<circle cx="155.5000" cy="135.0000" r="1.1995"/> 
</g>
<g style="fill:#000000; fill-opacity:1.0000;  stroke:#000000; stroke-width:0.0000; stroke-opacity:1;  stroke-linecap:round; stroke-linejoin:round;">
<circle cx="155.5000" cy="142.6200" r="1.1995"/> 
</g>
<g style="fill:#000000; fill-opacity:1.0000;  stroke:#000000; stroke-width:0.0000; stroke-opacity:1;  stroke-linecap:round; stroke-linejoin:round;">
<circle cx="127.7600" cy="142.6000" r="1.1995"/> 
</g>
<g style="fill:#000000; fill-opacity:1.0000;  stroke:#000000; stroke-width:0.0000; stroke-opacity:1;  stroke-linecap:round; stroke-linejoin:round;">
<circle cx="127.7600" cy="134.9800" r="1.1995"/> 
</g>
<g style="fill:#000000; fill-opacity:1.0000;  stroke:#000000; stroke-width:0.0000; stroke-opacity:1;  stroke-linecap:round; stroke-linejoin:round;">
<circle cx="131.0100" cy="135.0000" r="1.1995"/> 
</g>
<g style="fill:#000000; fill-opacity:1.0000;  stroke:#000000; stroke-width:0.0000; stroke-opacity:1;  stroke-linecap:round; stroke-linejoin:round;">
<circle cx="131.0100" cy="142.6200" r="1.1995"/> 
</g>
<g style="fill:#000000; fill-opacity:1.0000;  stroke:#000000; stroke-width:0.0000; stroke-opacity:1;  stroke-linecap:round; stroke-linejoin:round;">
<path style="fill:#000000; fill-opacity:1.0000;  stroke:#000000; stroke-width:0.0000; stroke-opacity:1;  stroke-linecap:round; stroke-linejoin:round;fill-rule:evenodd;" d="M 160.2000,134.3500 160.2152,134.2735 160.2586,134.2086 160.3235,134.1652 160.4000,134.1500 161.7000,134.1500 161.7765,134.1652 161.8414,134.2086 161.8848,134.2735 161.9000,134.3500 161.9000,135.6500 161.8848,135.7265 161.8414,135.7914 161.7765,135.8348 161.7000,135.8500 160.4000,135.8500 160.3235,135.8348 160.2586,135.7914 160.2152,135.7265 160.2000,135.6500 Z"/> 
<circle cx="166.0500" cy="135.0000" r="0.8500"/> 
</g>
<g style="fill:#000000; fill-opacity:1.0000;  stroke:#000000; stroke-width:0.0000; stroke-opacity:1;  stroke-linecap:round; stroke-linejoin:round;">
<path style="fill:#000000; fill-opacity:1.0000;  stroke:#000000; stroke-width:0.0000; stroke-opacity:1;  stroke-linecap:round; stroke-linejoin:round;fill-rule:evenodd;" d="M 144.9900,115.7600 145.0665,115.7752 145.1314,115.8186 145.1748,115.8835 145.1900,115.9600 145.1900,117.6600 145.1748,117.7365 145.1314,117.8014 145.0665,117.8448 144.9900,117.8600 143.2900,117.8600 143.2135,117.8448 143.1486,117.8014 143.1052,117.7365 143.0900,117.6600 143.0900,115.9600 143.1052,115.8835 143.1486,115.8186 143.2135,115.7752 143.2900,115.7600 Z"/> 
<circle cx="141.6000" cy="116.8100" r="1.0500"/> 
</g>
<g style="fill:#000000; fill-opacity:1.0000;  stroke:#000000; stroke-width:0.0000; stroke-opacity:1;  stroke-linecap:round; stroke-linejoin:round;">
<circle cx="156.9250" cy="114.5000" r="1.7000"/> 
</g>
<g style="fill:#000000; fill-opacity:1.0000;  stroke:#000000; stroke-width:0.0000; stroke-opacity:1;  stroke-linecap:round; stroke-linejoin:round;">
<circle cx="156.9250" cy="130.7300" r="1.7000"/> 
</g>
<g style="fill:#000000; fill-opacity:1.0000;  stroke:#000000; stroke-width:0.0000; stroke-opacity:1;  stroke-linecap:round; stroke-linejoin:round;">
<circle cx="163.2750" cy="114.5000" r="1.7000"/> 
</g>
<g style="fill:#000000; fill-opacity:1.0000;  stroke:#000000; stroke-width:0.0000; stroke-opacity:1;  stroke-linecap:round; stroke-linejoin:round;">
<circle cx="163.2750" cy="130.7300" r="1.7000"/> 
</g>
<g style="fill:#000000; fill-opacity:1.0000;  stroke:#000000; stroke-width:0.0000; stroke-opacity:1;  stroke-linecap:round; stroke-linejoin:round;">
<circle cx="150.5750" cy="114.5000" r="1.7000"/> 
</g>
<g style="fill:#000000; fill-opacity:1.0000;  stroke:#000000; stroke-width:0.0000; stroke-opacity:1;  stroke-linecap:round; stroke-linejoin:round;">
<circle cx="150.5750" cy="130.7300" r="1.7000"/> 
</g>
<g style="fill:#000000; fill-opacity:1.0000;  stroke:#000000; stroke-width:0.0000; stroke-opacity:1;  stroke-linecap:round; stroke-linejoin:round;">
<path style="fill:#000000; fill-opacity:1.0000;  stroke:#000000; stroke-width:0.0000; stroke-opacity:1;  stroke-linecap:round; stroke-linejoin:round;fill-rule:evenodd;" d="M 141.5100,98.5500 141.5178,98.4663 141.5621,98.3397 141.6418,98.2318 141.7497,98.1521 141.8763,98.1078 141.9600,98.1000 142.6600,98.1000 142.7437,98.1078 142.8703,98.1521 142.9782,98.2318 143.0579,98.3397 143.1022,98.4663 143.1100,98.5500 143.1100,99.4500 143.1022,99.5337 143.0579,99.6603 142.9782,99.7682 142.8703,99.8479 142.7437,99.8922 142.6600,99.9000 141.9600,99.9000 141.8763,99.8922 141.7497,99.8479 141.6418,99.7682 141.5621,99.6603 141.5178,99.5337 141.5100,99.4500 Z"/> 
<path style="fill:#000000; fill-opacity:1.0000;  stroke:#000000; stroke-width:0.0000; stroke-opacity:1;  stroke-linecap:round; stroke-linejoin:round;fill-rule:evenodd;" d="M 143.5100,98.5500 143.5178,98.4663 143.5621,98.3397 143.6418,98.2318 143.7497,98.1521 143.8763,98.1078 143.9600,98.1000 144.6600,98.1000 144.7437,98.1078 144.8703,98.1521 144.9782,98.2318 145.0579,98.3397 145.1022,98.4663 145.1100,98.5500 145.1100,99.4500 145.1022,99.5337 145.0579,99.6603 144.9782,99.7682 144.8703,99.8479 144.7437,99.8922 144.6600,99.9000 143.9600,99.9000 143.8763,99.8922 143.7497,99.8479 143.6418,99.7682 143.5621,99.6603 143.5178,99.5337 143.5100,99.4500 Z"/> 
</g>
<g style="fill:#000000; fill-opacity:0.0;  stroke:#000000; stroke-width:3.6000; stroke-opacity:1;  stroke-linecap:round; stroke-linejoin:round;">
<path d="M141.8100 82.4000 L143.6100 82.4000 "/>
<path d="M141.8100 77.9500 L143.6100 77.9500 "/>
<path d="M141.8100 73.5000 L143.6100 73.5000 "/>
</g>
<g style="fill:#000000; fill-opacity:1.0000;  stroke:#000000; stroke-width:0.0000; stroke-opacity:1;  stroke-linecap:round; stroke-linejoin:round;">
<path style="fill:#000000; fill-opacity:1.0000;  stroke:#000000; stroke-width:0.0000; stroke-opacity:1;  stroke-linecap:round; stroke-linejoin:round;fill-rule:evenodd;" d="M 149.6100,94.0750 149.5335,94.0598 149.4686,94.0164 149.4252,93.9515 149.4100,93.8750 149.4100,92.0750 149.4252,91.9985 149.4686,91.9336 149.5335,91.8902 149.6100,91.8750 151.4100,91.8750 151.4865,91.8902 151.5514,91.9336 151.5948,91.9985 151.6100,92.0750 151.6100,93.8750 151.5948,93.9515 151.5514,94.0164 151.4865,94.0598 151.4100,94.0750 Z"/> 
<circle cx="150.5100" cy="90.4350" r="1.1000"/> 
</g>
<g style="fill:#000000; fill-opacity:1.0000;  stroke:#000000; stroke-width:0.0000; stroke-opacity:1;  stroke-linecap:round; stroke-linejoin:round;">
<path style="fill:#000000; fill-opacity:1.0000;  stroke:#000000; stroke-width:0.0000; stroke-opacity:1;  stroke-linecap:round; stroke-linejoin:round;fill-rule:evenodd;" d="M 133.1100,107.3500 133.1022,107.4337 133.0579,107.5603 132.9782,107.6682 132.8703,107.7479 132.7437,107.7922 132.6600,107.8000 131.9600,107.8000 131.8763,107.7922 131.7497,107.7479 131.6418,107.6682 131.5621,107.5603 131.5178,107.4337 131.5100,107.3500 131.5100,106.4500 131.5178,106.3663 131.5621,106.2397 131.6418,106.1318 131.7497,106.0521 131.8763,106.0078 131.9600,106.0000 132.6600,106.0000 132.7437,106.0078 132.8703,106.0521 132.9782,106.1318 133.0579,106.2397 133.1022,106.3663 133.1100,106.4500 Z"/> 
<path style="fill:#000000; fill-opacity:1.0000;  stroke:#000000; stroke-width:0.0000; stroke-opacity:1;  stroke-linecap:round; stroke-linejoin:round;fill-rule:evenodd;" d="M 131.1100,107.3500 131.1022,107.4337 131.0579,107.5603 130.9782,107.6682 130.8703,107.7479 130.7437,107.7922 130.6600,107.8000 129.9600,107.8000 129.8763,107.7922 129.7497,107.7479 129.6418,107.6682 129.5621,107.5603 129.5178,107.4337 129.5100,107.3500 129.5100,106.4500 129.5178,106.3663 129.5621,106.2397 129.6418,106.1318 129.7497,106.0521 129.8763,106.0078 129.9600,106.0000 130.6600,106.0000 130.7437,106.0078 130.8703,106.0521 130.9782,106.1318 131.0579,106.2397 131.1022,106.3663 131.1100,106.4500 Z"/> 
</g>
<g style="fill:#000000; fill-opacity:1.0000;  stroke:#000000; stroke-width:0.0000; stroke-opacity:1;  stroke-linecap:round; stroke-linejoin:round;">
<path style="fill:#000000; fill-opacity:1.0000;  stroke:#000000; stroke-width:0.0000; stroke-opacity:1;  stroke-linecap:round; stroke-linejoin:round;fill-rule:evenodd;" d="M 156.0100,89.3250 156.0865,89.3402 156.1514,89.3836 156.1948,89.4485 156.2100,89.5250 156.2100,91.3250 156.1948,91.4015 156.1514,91.4664 156.0865,91.5098 156.0100,91.5250 154.2100,91.5250 154.1335,91.5098 154.0686,91.4664 154.0252,91.4015 154.0100,91.3250 154.0100,89.5250 154.0252,89.4485 154.0686,89.3836 154.1335,89.3402 154.2100,89.3250 Z"/> 
<circle cx="155.1100" cy="92.9650" r="1.1000"/> 
</g>
<g style="fill:#000000; fill-opacity:1.0000;  stroke:#000000; stroke-width:0.0000; stroke-opacity:1;  stroke-linecap:round; stroke-linejoin:round;">
<path style="fill:#000000; fill-opacity:1.0000;  stroke:#000000; stroke-width:0.0000; stroke-opacity:1;  stroke-linecap:round; stroke-linejoin:round;fill-rule:evenodd;" d="M 138.2600,99.2000 138.3437,99.2078 138.4703,99.2521 138.5782,99.3318 138.6579,99.4397 138.7022,99.5663 138.7100,99.6500 138.7100,100.3500 138.7022,100.4337 138.6579,100.5603 138.5782,100.6682 138.4703,100.7479 138.3437,100.7922 138.2600,100.8000 137.3600,100.8000 137.2763,100.7922 137.1497,100.7479 137.0418,100.6682 136.9621,100.5603 136.9178,100.4337 136.9100,100.3500 136.9100,99.6500 136.9178,99.5663 136.9621,99.4397 137.0418,99.3318 137.1497,99.2521 137.2763,99.2078 137.3600,99.2000 Z"/> 
<path style="fill:#000000; fill-opacity:1.0000;  stroke:#000000; stroke-width:0.0000; stroke-opacity:1;  stroke-linecap:round; stroke-linejoin:round;fill-rule:evenodd;" d="M 138.2600,101.2000 138.3437,101.2078 138.4703,101.2521 138.5782,101.3318 138.6579,101.4397 138.7022,101.5663 138.7100,101.6500 138.7100,102.3500 138.7022,102.4337 138.6579,102.5603 138.5782,102.6682 138.4703,102.7479 138.3437,102.7922 138.2600,102.8000 137.3600,102.8000 137.2763,102.7922 137.1497,102.7479 137.0418,102.6682 136.9621,102.5603 136.9178,102.4337 136.9100,102.3500 136.9100,101.6500 136.9178,101.5663 136.9621,101.4397 137.0418,101.3318 137.1497,101.2521 137.2763,101.2078 137.3600,101.2000 Z"/> 
</g>
<g style="fill:#000000; fill-opacity:1.0000;  stroke:#000000; stroke-width:0.0000; stroke-opacity:1;  stroke-linecap:round; stroke-linejoin:round;">
<path style="fill:#000000; fill-opacity:1.0000;  stroke:#000000; stroke-width:0.0000; stroke-opacity:1;  stroke-linecap:round; stroke-linejoin:round;fill-rule:evenodd;" d="M 134.7850,96.8250 134.7928,96.7413 134.8371,96.6147 134.9168,96.5068 135.0247,96.4271 135.1513,96.3828 135.2350,96.3750 135.9100,96.3750 135.9937,96.3828 136.1203,96.4271 136.2282,96.5068 136.3079,96.6147 136.3522,96.7413 136.3600,96.8250 136.3600,97.7750 136.3522,97.8587 136.3079,97.9853 136.2282,98.0932 136.1203,98.1729 135.9937,98.2172 135.9100,98.2250 135.2350,98.2250 135.1513,98.2172 135.0247,98.1729 134.9168,98.0932 134.8371,97.9853 134.7928,97.8587 134.7850,97.7750 Z"/> 
<path style="fill:#000000; fill-opacity:1.0000;  stroke:#000000; stroke-width:0.0000; stroke-opacity:1;  stroke-linecap:round; stroke-linejoin:round;fill-rule:evenodd;" d="M 136.8600,96.8250 136.8678,96.7413 136.9121,96.6147 136.9918,96.5068 137.0997,96.4271 137.2263,96.3828 137.3100,96.3750 137.9850,96.3750 138.0687,96.3828 138.1953,96.4271 138.3032,96.5068 138.3829,96.6147 138.4272,96.7413 138.4350,96.8250 138.4350,97.7750 138.4272,97.8587 138.3829,97.9853 138.3032,98.0932 138.1953,98.1729 138.0687,98.2172 137.9850,98.2250 137.3100,98.2250 137.2263,98.2172 137.0997,98.1729 136.9918,98.0932 136.9121,97.9853 136.8678,97.8587 136.8600,97.7750 Z"/> 
</g>
<g style="fill:#000000; fill-opacity:1.0000;  stroke:#000000; stroke-width:0.0000; stroke-opacity:1;  stroke-linecap:round; stroke-linejoin:round;">
<path style="fill:#000000; fill-opacity:1.0000;  stroke:#000000; stroke-width:0.0000; stroke-opacity:1;  stroke-linecap:round; stroke-linejoin:round;fill-rule:evenodd;" d="M 133.4100,106.4500 133.4178,106.3663 133.4621,106.2397 133.5418,106.1318 133.6497,106.0521 133.7763,106.0078 133.8600,106.0000 134.5600,106.0000 134.6437,106.0078 134.7703,106.0521 134.8782,106.1318 134.9579,106.2397 135.0022,106.3663 135.0100,106.4500 135.0100,107.3500 135.0022,107.4337 134.9579,107.5603 134.8782,107.6682 134.7703,107.7479 134.6437,107.7922 134.5600,107.8000 133.8600,107.8000 133.7763,107.7922 133.6497,107.7479 133.5418,107.6682 133.4621,107.5603 133.4178,107.4337 133.4100,107.3500 Z"/> 
<path style="fill:#000000; fill-opacity:1.0000;  stroke:#000000; stroke-width:0.0000; stroke-opacity:1;  stroke-linecap:round; stroke-linejoin:round;fill-rule:evenodd;" d="M 135.4100,106.4500 135.4178,106.3663 135.4621,106.2397 135.5418,106.1318 135.6497,106.0521 135.7763,106.0078 135.8600,106.0000 136.5600,106.0000 136.6437,106.0078 136.7703,106.0521 136.8782,106.1318 136.9579,106.2397 137.0022,106.3663 137.0100,106.4500 137.0100,107.3500 137.0022,107.4337 136.9579,107.5603 136.8782,107.6682 136.7703,107.7479 136.6437,107.7922 136.5600,107.8000 135.8600,107.8000 135.7763,107.7922 135.6497,107.7479 135.5418,107.6682 135.4621,107.5603 135.4178,107.4337 135.4100,107.3500 Z"/> 
</g>
<g style="fill:#000000; fill-opacity:1.0000;  stroke:#000000; stroke-width:0.0000; stroke-opacity:1;  stroke-linecap:round; stroke-linejoin:round;">
<path style="fill:#000000; fill-opacity:1.0000;  stroke:#000000; stroke-width:0.0000; stroke-opacity:1;  stroke-linecap:round; stroke-linejoin:round;fill-rule:evenodd;" d="M 145.8650,90.2500 145.9556,90.2619 146.0658,90.3133 146.1517,90.3992 146.2031,90.5094 146.2150,90.6000 146.2150,92.0500 146.2031,92.1406 146.1517,92.2508 146.0658,92.3367 145.9556,92.3881 145.8650,92.4000 145.5650,92.4000 145.4744,92.3881 145.3642,92.3367 145.2783,92.2508 145.2269,92.1406 145.2150,92.0500 145.2150,90.6000 145.2269,90.5094 145.2783,90.3992 145.3642,90.3133 145.4744,90.2619 145.5650,90.2500 Z"/> 
<path style="fill:#000000; fill-opacity:1.0000;  stroke:#000000; stroke-width:0.0000; stroke-opacity:1;  stroke-linecap:round; stroke-linejoin:round;fill-rule:evenodd;" d="M 144.5950,90.2500 144.6856,90.2619 144.7958,90.3133 144.8817,90.3992 144.9331,90.5094 144.9450,90.6000 144.9450,92.0500 144.9331,92.1406 144.8817,92.2508 144.7958,92.3367 144.6856,92.3881 144.5950,92.4000 144.2950,92.4000 144.2044,92.3881 144.0942,92.3367 144.0083,92.2508 143.9569,92.1406 143.9450,92.0500 143.9450,90.6000 143.9569,90.5094 144.0083,90.3992 144.0942,90.3133 144.2044,90.2619 144.2950,90.2500 Z"/> 
<path style="fill:#000000; fill-opacity:1.0000;  stroke:#000000; stroke-width:0.0000; stroke-opacity:1;  stroke-linecap:round; stroke-linejoin:round;fill-rule:evenodd;" d="M 143.3250,90.2500 143.4156,90.2619 143.5258,90.3133 143.6117,90.3992 143.6631,90.5094 143.6750,90.6000 143.6750,92.0500 143.6631,92.1406 143.6117,92.2508 143.5258,92.3367 143.4156,92.3881 143.3250,92.4000 143.0250,92.4000 142.9344,92.3881 142.8242,92.3367 142.7383,92.2508 142.6869,92.1406 142.6750,92.0500 142.6750,90.6000 142.6869,90.5094 142.7383,90.3992 142.8242,90.3133 142.9344,90.2619 143.0250,90.2500 Z"/> 
<path style="fill:#000000; fill-opacity:1.0000;  stroke:#000000; stroke-width:0.0000; stroke-opacity:1;  stroke-linecap:round; stroke-linejoin:round;fill-rule:evenodd;" d="M 142.0550,90.2500 142.1456,90.2619 142.2558,90.3133 142.3417,90.3992 142.3931,90.5094 142.4050,90.6000 142.4050,92.0500 142.3931,92.1406 142.3417,92.2508 142.2558,92.3367 142.1456,92.3881 142.0550,92.4000 141.7550,92.4000 141.6644,92.3881 141.5542,92.3367 141.4683,92.2508 141.4169,92.1406 141.4050,92.0500 141.4050,90.6000 141.4169,90.5094 141.4683,90.3992 141.5542,90.3133 141.6644,90.2619 141.7550,90.2500 Z"/> 
<path style="fill:#000000; fill-opacity:1.0000;  stroke:#000000; stroke-width:0.0000; stroke-opacity:1;  stroke-linecap:round; stroke-linejoin:round;fill-rule:evenodd;" d="M 142.0550,95.4000 142.1456,95.4119 142.2558,95.4633 142.3417,95.5492 142.3931,95.6594 142.4050,95.7500 142.4050,97.2000 142.3931,97.2906 142.3417,97.4008 142.2558,97.4867 142.1456,97.5381 142.0550,97.5500 141.7550,97.5500 141.6644,97.5381 141.5542,97.4867 141.4683,97.4008 141.4169,97.2906 141.4050,97.2000 141.4050,95.7500 141.4169,95.6594 141.4683,95.5492 141.5542,95.4633 141.6644,95.4119 141.7550,95.4000 Z"/> 
<path style="fill:#000000; fill-opacity:1.0000;  stroke:#000000; stroke-width:0.0000; stroke-opacity:1;  stroke-linecap:round; stroke-linejoin:round;fill-rule:evenodd;" d="M 143.3250,95.4000 143.4156,95.4119 143.5258,95.4633 143.6117,95.5492 143.6631,95.6594 143.6750,95.7500 143.6750,97.2000 143.6631,97.2906 143.6117,97.4008 143.5258,97.4867 143.4156,97.5381 143.3250,97.5500 143.0250,97.5500 142.9344,97.5381 142.8242,97.4867 142.7383,97.4008 142.6869,97.2906 142.6750,97.2000 142.6750,95.7500 142.6869,95.6594 142.7383,95.5492 142.8242,95.4633 142.9344,95.4119 143.0250,95.4000 Z"/> 
<path style="fill:#000000; fill-opacity:1.0000;  stroke:#000000; stroke-width:0.0000; stroke-opacity:1;  stroke-linecap:round; stroke-linejoin:round;fill-rule:evenodd;" d="M 144.5950,95.4000 144.6856,95.4119 144.7958,95.4633 144.8817,95.5492 144.9331,95.6594 144.9450,95.7500 144.9450,97.2000 144.9331,97.2906 144.8817,97.4008 144.7958,97.4867 144.6856,97.5381 144.5950,97.5500 144.2950,97.5500 144.2044,97.5381 144.0942,97.4867 144.0083,97.4008 143.9569,97.2906 143.9450,97.2000 143.9450,95.7500 143.9569,95.6594 144.0083,95.5492 144.0942,95.4633 144.2044,95.4119 144.2950,95.4000 Z"/> 
<path style="fill:#000000; fill-opacity:1.0000;  stroke:#000000; stroke-width:0.0000; stroke-opacity:1;  stroke-linecap:round; stroke-linejoin:round;fill-rule:evenodd;" d="M 145.8650,95.4000 145.9556,95.4119 146.0658,95.4633 146.1517,95.5492 146.2031,95.6594 146.2150,95.7500 146.2150,97.2000 146.2031,97.2906 146.1517,97.4008 146.0658,97.4867 145.9556,97.5381 145.8650,97.5500 145.5650,97.5500 145.4744,97.5381 145.3642,97.4867 145.2783,97.4008 145.2269,97.2906 145.2150,97.2000 145.2150,95.7500 145.2269,95.6594 145.2783,95.5492 145.3642,95.4633 145.4744,95.4119 145.5650,95.4000 Z"/> 
</g>
<g style="fill:#000000; fill-opacity:1.0000;  stroke:#000000; stroke-width:0.0000; stroke-opacity:1;  stroke-linecap:round; stroke-linejoin:round;">
<path style="fill:#000000; fill-opacity:1.0000;  stroke:#000000; stroke-width:0.0000; stroke-opacity:1;  stroke-linecap:round; stroke-linejoin:round;fill-rule:evenodd;" d="M 123.4600,103.7000 123.5437,103.7078 123.6703,103.7521 123.7782,103.8318 123.8579,103.9397 123.9022,104.0663 123.9100,104.1500 123.9100,104.8500 123.9022,104.9337 123.8579,105.0603 123.7782,105.1682 123.6703,105.2479 123.5437,105.2922 123.4600,105.3000 122.5600,105.3000 122.4763,105.2922 122.3497,105.2479 122.2418,105.1682 122.1621,105.0603 122.1178,104.9337 122.1100,104.8500 122.1100,104.1500 122.1178,104.0663 122.1621,103.9397 122.2418,103.8318 122.3497,103.7521 122.4763,103.7078 122.5600,103.7000 Z"/> 
<path style="fill:#000000; fill-opacity:1.0000;  stroke:#000000; stroke-width:0.0000; stroke-opacity:1;  stroke-linecap:round; stroke-linejoin:round;fill-rule:evenodd;" d="M 123.4600,105.7000 123.5437,105.7078 123.6703,105.7521 123.7782,105.8318 123.8579,105.9397 123.9022,106.0663 123.9100,106.1500 123.9100,106.8500 123.9022,106.9337 123.8579,107.0603 123.7782,107.1682 123.6703,107.2479 123.5437,107.2922 123.4600,107.3000 122.5600,107.3000 122.4763,107.2922 122.3497,107.2479 122.2418,107.1682 122.1621,107.0603 122.1178,106.9337 122.1100,106.8500 122.1100,106.1500 122.1178,106.0663 122.1621,105.9397 122.2418,105.8318 122.3497,105.7521 122.4763,105.7078 122.5600,105.7000 Z"/> 
</g>
<g style="fill:#000000; fill-opacity:1.0000;  stroke:#000000; stroke-width:0.0000; stroke-opacity:1;  stroke-linecap:round; stroke-linejoin:round;">
<path style="fill:#000000; fill-opacity:1.0000;  stroke:#000000; stroke-width:0.0000; stroke-opacity:1;  stroke-linecap:round; stroke-linejoin:round;fill-rule:evenodd;" d="M 143.7600,88.5000 143.7678,88.4163 143.8121,88.2897 143.8918,88.1818 143.9997,88.1021 144.1263,88.0578 144.2100,88.0500 144.8100,88.0500 144.8937,88.0578 145.0203,88.1021 145.1282,88.1818 145.2079,88.2897 145.2522,88.4163 145.2600,88.5000 145.2600,89.1000 145.2522,89.1837 145.2079,89.3103 145.1282,89.4182 145.0203,89.4979 144.8937,89.5422 144.8100,89.5500 144.2100,89.5500 144.1263,89.5422 143.9997,89.4979 143.8918,89.4182 143.8121,89.3103 143.7678,89.1837 143.7600,89.1000 Z"/> 
<path style="fill:#000000; fill-opacity:1.0000;  stroke:#000000; stroke-width:0.0000; stroke-opacity:1;  stroke-linecap:round; stroke-linejoin:round;fill-rule:evenodd;" d="M 146.5600,88.5000 146.5678,88.4163 146.6121,88.2897 146.6918,88.1818 146.7997,88.1021 146.9263,88.0578 147.0100,88.0500 147.6100,88.0500 147.6937,88.0578 147.8203,88.1021 147.9282,88.1818 148.0079,88.2897 148.0522,88.4163 148.0600,88.5000 148.0600,89.1000 148.0522,89.1837 148.0079,89.3103 147.9282,89.4182 147.8203,89.4979 147.6937,89.5422 147.6100,89.5500 147.0100,89.5500 146.9263,89.5422 146.7997,89.4979 146.6918,89.4182 146.6121,89.3103 146.5678,89.1837 146.5600,89.1000 Z"/> 
</g>
<g style="fill:#000000; fill-opacity:1.0000;  stroke:#000000; stroke-width:0.0000; stroke-opacity:1;  stroke-linecap:round; stroke-linejoin:round;">
<path style="fill:#000000; fill-opacity:1.0000;  stroke:#000000; stroke-width:0.0000; stroke-opacity:1;  stroke-linecap:round; stroke-linejoin:round;fill-rule:evenodd;" d="M 156.3350,100.3750 156.3272,100.4587 156.2829,100.5853 156.2032,100.6932 156.0953,100.7729 155.9687,100.8172 155.8850,100.8250 155.2100,100.8250 155.1263,100.8172 154.9997,100.7729 154.8918,100.6932 154.8121,100.5853 154.7678,100.4587 154.7600,100.3750 154.7600,99.4250 154.7678,99.3413 154.8121,99.2147 154.8918,99.1068 154.9997,99.0271 155.1263,98.9828 155.2100,98.9750 155.8850,98.9750 155.9687,98.9828 156.0953,99.0271 156.2032,99.1068 156.2829,99.2147 156.3272,99.3413 156.3350,99.4250 Z"/> 
<path style="fill:#000000; fill-opacity:1.0000;  stroke:#000000; stroke-width:0.0000; stroke-opacity:1;  stroke-linecap:round; stroke-linejoin:round;fill-rule:evenodd;" d="M 154.2600,100.3750 154.2522,100.4587 154.2079,100.5853 154.1282,100.6932 154.0203,100.7729 153.8937,100.8172 153.8100,100.8250 153.1350,100.8250 153.0513,100.8172 152.9247,100.7729 152.8168,100.6932 152.7371,100.5853 152.6928,100.4587 152.6850,100.3750 152.6850,99.4250 152.6928,99.3413 152.7371,99.2147 152.8168,99.1068 152.9247,99.0271 153.0513,98.9828 153.1350,98.9750 153.8100,98.9750 153.8937,98.9828 154.0203,99.0271 154.1282,99.1068 154.2079,99.2147 154.2522,99.3413 154.2600,99.4250 Z"/> 
</g>
<g style="fill:#000000; fill-opacity:1.0000;  stroke:#000000; stroke-width:0.0000; stroke-opacity:1;  stroke-linecap:round; stroke-linejoin:round;">
<path style="fill:#000000; fill-opacity:1.0000;  stroke:#000000; stroke-width:0.0000; stroke-opacity:1;  stroke-linecap:round; stroke-linejoin:round;fill-rule:evenodd;" d="M 148.0600,86.7000 148.0522,86.7837 148.0079,86.9103 147.9282,87.0182 147.8203,87.0979 147.6937,87.1422 147.6100,87.1500 147.0100,87.1500 146.9263,87.1422 146.7997,87.0979 146.6918,87.0182 146.6121,86.9103 146.5678,86.7837 146.5600,86.7000 146.5600,86.1000 146.5678,86.0163 146.6121,85.8897 146.6918,85.7818 146.7997,85.7021 146.9263,85.6578 147.0100,85.6500 147.6100,85.6500 147.6937,85.6578 147.8203,85.7021 147.9282,85.7818 148.0079,85.8897 148.0522,86.0163 148.0600,86.1000 Z"/> 
<path style="fill:#000000; fill-opacity:1.0000;  stroke:#000000; stroke-width:0.0000; stroke-opacity:1;  stroke-linecap:round; stroke-linejoin:round;fill-rule:evenodd;" d="M 145.2600,86.7000 145.2522,86.7837 145.2079,86.9103 145.1282,87.0182 145.0203,87.0979 144.8937,87.1422 144.8100,87.1500 144.2100,87.1500 144.1263,87.1422 143.9997,87.0979 143.8918,87.0182 143.8121,86.9103 143.7678,86.7837 143.7600,86.7000 143.7600,86.1000 143.7678,86.0163 143.8121,85.8897 143.8918,85.7818 143.9997,85.7021 144.1263,85.6578 144.2100,85.6500 144.8100,85.6500 144.8937,85.6578 145.0203,85.7021 145.1282,85.7818 145.2079,85.8897 145.2522,86.0163 145.2600,86.1000 Z"/> 
</g>
<g style="fill:#000000; fill-opacity:1.0000;  stroke:#000000; stroke-width:0.0000; stroke-opacity:1;  stroke-linecap:round; stroke-linejoin:round;">
<path style="fill:#000000; fill-opacity:1.0000;  stroke:#000000; stroke-width:0.0000; stroke-opacity:1;  stroke-linecap:round; stroke-linejoin:round;fill-rule:evenodd;" d="M 126.5100,94.5527 126.4335,94.5374 126.3686,94.4941 126.3252,94.4292 126.3100,94.3527 126.3100,92.7527 126.3252,92.6761 126.3686,92.6112 126.4335,92.5679 126.5100,92.5527 128.1100,92.5527 128.1865,92.5679 128.2514,92.6112 128.2948,92.6761 128.3100,92.7527 128.3100,94.3527 128.2948,94.4292 128.2514,94.4941 128.1865,94.5374 128.1100,94.5527 Z"/> 
<circle cx="127.3100" cy="91.0527" r="1.0000"/> 
</g>
<g style="fill:#000000; fill-opacity:1.0000;  stroke:#000000; stroke-width:0.0000; stroke-opacity:1;  stroke-linecap:round; stroke-linejoin:round;">
<path style="fill:#000000; fill-opacity:1.0000;  stroke:#000000; stroke-width:0.0000; stroke-opacity:1;  stroke-linecap:round; stroke-linejoin:round;fill-rule:evenodd;" d="M 157.1350,87.9750 157.1272,88.0587 157.0829,88.1853 157.0032,88.2932 156.8953,88.3729 156.7687,88.4172 156.6850,88.4250 156.0100,88.4250 155.9263,88.4172 155.7997,88.3729 155.6918,88.2932 155.6121,88.1853 155.5678,88.0587 155.5600,87.9750 155.5600,87.0250 155.5678,86.9413 155.6121,86.8147 155.6918,86.7068 155.7997,86.6271 155.9263,86.5828 156.0100,86.5750 156.6850,86.5750 156.7687,86.5828 156.8953,86.6271 157.0032,86.7068 157.0829,86.8147 157.1272,86.9413 157.1350,87.0250 Z"/> 
<path style="fill:#000000; fill-opacity:1.0000;  stroke:#000000; stroke-width:0.0000; stroke-opacity:1;  stroke-linecap:round; stroke-linejoin:round;fill-rule:evenodd;" d="M 155.0600,87.9750 155.0522,88.0587 155.0079,88.1853 154.9282,88.2932 154.8203,88.3729 154.6937,88.4172 154.6100,88.4250 153.9350,88.4250 153.8513,88.4172 153.7247,88.3729 153.6168,88.2932 153.5371,88.1853 153.4928,88.0587 153.4850,87.9750 153.4850,87.0250 153.4928,86.9413 153.5371,86.8147 153.6168,86.7068 153.7247,86.6271 153.8513,86.5828 153.9350,86.5750 154.6100,86.5750 154.6937,86.5828 154.8203,86.6271 154.9282,86.7068 155.0079,86.8147 155.0522,86.9413 155.0600,87.0250 Z"/> 
</g>
<g style="fill:#000000; fill-opacity:1.0000;  stroke:#000000; stroke-width:0.0000; stroke-opacity:1;  stroke-linecap:round; stroke-linejoin:round;">
<path style="fill:#000000; fill-opacity:1.0000;  stroke:#000000; stroke-width:0.0000; stroke-opacity:1;  stroke-linecap:round; stroke-linejoin:round;fill-rule:evenodd;" d="M 158.4100,102.3500 158.4022,102.4337 158.3579,102.5603 158.2782,102.6682 158.1703,102.7479 158.0437,102.7922 157.9600,102.8000 157.2600,102.8000 157.1763,102.7922 157.0497,102.7479 156.9418,102.6682 156.8621,102.5603 156.8178,102.4337 156.8100,102.3500 156.8100,101.4500 156.8178,101.3663 156.8621,101.2397 156.9418,101.1318 157.0497,101.0521 157.1763,101.0078 157.2600,101.0000 157.9600,101.0000 158.0437,101.0078 158.1703,101.0521 158.2782,101.1318 158.3579,101.2397 158.4022,101.3663 158.4100,101.4500 Z"/> 
<path style="fill:#000000; fill-opacity:1.0000;  stroke:#000000; stroke-width:0.0000; stroke-opacity:1;  stroke-linecap:round; stroke-linejoin:round;fill-rule:evenodd;" d="M 156.4100,102.3500 156.4022,102.4337 156.3579,102.5603 156.2782,102.6682 156.1703,102.7479 156.0437,102.7922 155.9600,102.8000 155.2600,102.8000 155.1763,102.7922 155.0497,102.7479 154.9418,102.6682 154.8621,102.5603 154.8178,102.4337 154.8100,102.3500 154.8100,101.4500 154.8178,101.3663 154.8621,101.2397 154.9418,101.1318 155.0497,101.0521 155.1763,101.0078 155.2600,101.0000 155.9600,101.0000 156.0437,101.0078 156.1703,101.0521 156.2782,101.1318 156.3579,101.2397 156.4022,101.3663 156.4100,101.4500 Z"/> 
</g>
<g style="fill:#000000; fill-opacity:1.0000;  stroke:#000000; stroke-width:0.0000; stroke-opacity:1;  stroke-linecap:round; stroke-linejoin:round;">
<path style="fill:#000000; fill-opacity:1.0000;  stroke:#000000; stroke-width:0.0000; stroke-opacity:1;  stroke-linecap:round; stroke-linejoin:round;fill-rule:evenodd;" d="M 148.6850,102.3250 148.6928,102.2413 148.7371,102.1147 148.8168,102.0068 148.9247,101.9271 149.0513,101.8828 149.1350,101.8750 149.8100,101.8750 149.8937,101.8828 150.0203,101.9271 150.1282,102.0068 150.2079,102.1147 150.2522,102.2413 150.2600,102.3250 150.2600,103.2750 150.2522,103.3587 150.2079,103.4853 150.1282,103.5932 150.0203,103.6729 149.8937,103.7172 149.8100,103.7250 149.1350,103.7250 149.0513,103.7172 148.9247,103.6729 148.8168,103.5932 148.7371,103.4853 148.6928,103.3587 148.6850,103.2750 Z"/> 
<path style="fill:#000000; fill-opacity:1.0000;  stroke:#000000; stroke-width:0.0000; stroke-opacity:1;  stroke-linecap:round; stroke-linejoin:round;fill-rule:evenodd;" d="M 150.7600,102.3250 150.7678,102.2413 150.8121,102.1147 150.8918,102.0068 150.9997,101.9271 151.1263,101.8828 151.2100,101.8750 151.8850,101.8750 151.9687,101.8828 152.0953,101.9271 152.2032,102.0068 152.2829,102.1147 152.3272,102.2413 152.3350,102.3250 152.3350,103.2750 152.3272,103.3587 152.2829,103.4853 152.2032,103.5932 152.0953,103.6729 151.9687,103.7172 151.8850,103.7250 151.2100,103.7250 151.1263,103.7172 150.9997,103.6729 150.8918,103.5932 150.8121,103.4853 150.7678,103.3587 150.7600,103.2750 Z"/> 
</g>
<g style="fill:#000000; fill-opacity:1.0000;  stroke:#000000; stroke-width:0.0000; stroke-opacity:1;  stroke-linecap:round; stroke-linejoin:round;">
<path style="fill:#000000; fill-opacity:1.0000;  stroke:#000000; stroke-width:0.0000; stroke-opacity:1;  stroke-linecap:round; stroke-linejoin:round;fill-rule:evenodd;" d="M 139.0600,92.6000 139.1437,92.6078 139.2703,92.6521 139.3782,92.7318 139.4579,92.8397 139.5022,92.9663 139.5100,93.0500 139.5100,93.7500 139.5022,93.8337 139.4579,93.9603 139.3782,94.0682 139.2703,94.1479 139.1437,94.1922 139.0600,94.2000 138.1600,94.2000 138.0763,94.1922 137.9497,94.1479 137.8418,94.0682 137.7621,93.9603 137.7178,93.8337 137.7100,93.7500 137.7100,93.0500 137.7178,92.9663 137.7621,92.8397 137.8418,92.7318 137.9497,92.6521 138.0763,92.6078 138.1600,92.6000 Z"/> 
<path style="fill:#000000; fill-opacity:1.0000;  stroke:#000000; stroke-width:0.0000; stroke-opacity:1;  stroke-linecap:round; stroke-linejoin:round;fill-rule:evenodd;" d="M 139.0600,94.6000 139.1437,94.6078 139.2703,94.6521 139.3782,94.7318 139.4579,94.8397 139.5022,94.9663 139.5100,95.0500 139.5100,95.7500 139.5022,95.8337 139.4579,95.9603 139.3782,96.0682 139.2703,96.1479 139.1437,96.1922 139.0600,96.2000 138.1600,96.2000 138.0763,96.1922 137.9497,96.1479 137.8418,96.0682 137.7621,95.9603 137.7178,95.8337 137.7100,95.7500 137.7100,95.0500 137.7178,94.9663 137.7621,94.8397 137.8418,94.7318 137.9497,94.6521 138.0763,94.6078 138.1600,94.6000 Z"/> 
</g>
<g style="fill:#000000; fill-opacity:1.0000;  stroke:#000000; stroke-width:0.0000; stroke-opacity:1;  stroke-linecap:round; stroke-linejoin:round;">
<path style="fill:#000000; fill-opacity:1.0000;  stroke:#000000; stroke-width:0.0000; stroke-opacity:1;  stroke-linecap:round; stroke-linejoin:round;fill-rule:evenodd;" d="M 132.5100,65.0500 132.5178,64.9663 132.5621,64.8397 132.6418,64.7318 132.7497,64.6521 132.8763,64.6078 132.9600,64.6000 133.6600,64.6000 133.7437,64.6078 133.8703,64.6521 133.9782,64.7318 134.0579,64.8397 134.1022,64.9663 134.1100,65.0500 134.1100,65.9500 134.1022,66.0337 134.0579,66.1603 133.9782,66.2682 133.8703,66.3479 133.7437,66.3922 133.6600,66.4000 132.9600,66.4000 132.8763,66.3922 132.7497,66.3479 132.6418,66.2682 132.5621,66.1603 132.5178,66.0337 132.5100,65.9500 Z"/> 
<path style="fill:#000000; fill-opacity:1.0000;  stroke:#000000; stroke-width:0.0000; stroke-opacity:1;  stroke-linecap:round; stroke-linejoin:round;fill-rule:evenodd;" d="M 134.5100,65.0500 134.5178,64.9663 134.5621,64.8397 134.6418,64.7318 134.7497,64.6521 134.8763,64.6078 134.9600,64.6000 135.6600,64.6000 135.7437,64.6078 135.8703,64.6521 135.9782,64.7318 136.0579,64.8397 136.1022,64.9663 136.1100,65.0500 136.1100,65.9500 136.1022,66.0337 136.0579,66.1603 135.9782,66.2682 135.8703,66.3479 135.7437,66.3922 135.6600,66.4000 134.9600,66.4000 134.8763,66.3922 134.7497,66.3479 134.6418,66.2682 134.5621,66.1603 134.5178,66.0337 134.5100,65.9500 Z"/> 
</g>
<g style="fill:#000000; fill-opacity:1.0000;  stroke:#000000; stroke-width:0.0000; stroke-opacity:1;  stroke-linecap:round; stroke-linejoin:round;">
<path style="fill:#000000; fill-opacity:1.0000;  stroke:#000000; stroke-width:0.0000; stroke-opacity:1;  stroke-linecap:round; stroke-linejoin:round;fill-rule:evenodd;" d="M 160.4350,98.0750 160.4272,98.1587 160.3829,98.2853 160.3032,98.3932 160.1953,98.4729 160.0687,98.5172 159.9850,98.5250 159.3100,98.5250 159.2263,98.5172 159.0997,98.4729 158.9918,98.3932 158.9121,98.2853 158.8678,98.1587 158.8600,98.0750 158.8600,97.1250 158.8678,97.0413 158.9121,96.9147 158.9918,96.8068 159.0997,96.7271 159.2263,96.6828 159.3100,96.6750 159.9850,96.6750 160.0687,96.6828 160.1953,96.7271 160.3032,96.8068 160.3829,96.9147 160.4272,97.0413 160.4350,97.1250 Z"/> 
<path style="fill:#000000; fill-opacity:1.0000;  stroke:#000000; stroke-width:0.0000; stroke-opacity:1;  stroke-linecap:round; stroke-linejoin:round;fill-rule:evenodd;" d="M 158.3600,98.0750 158.3522,98.1587 158.3079,98.2853 158.2282,98.3932 158.1203,98.4729 157.9937,98.5172 157.9100,98.5250 157.2350,98.5250 157.1513,98.5172 157.0247,98.4729 156.9168,98.3932 156.8371,98.2853 156.7928,98.1587 156.7850,98.0750 156.7850,97.1250 156.7928,97.0413 156.8371,96.9147 156.9168,96.8068 157.0247,96.7271 157.1513,96.6828 157.2350,96.6750 157.9100,96.6750 157.9937,96.6828 158.1203,96.7271 158.2282,96.8068 158.3079,96.9147 158.3522,97.0413 158.3600,97.1250 Z"/> 
</g>
<g style="fill:#000000; fill-opacity:1.0000;  stroke:#000000; stroke-width:0.0000; stroke-opacity:1;  stroke-linecap:round; stroke-linejoin:round;">
<path style="fill:#000000; fill-opacity:1.0000;  stroke:#000000; stroke-width:0.0000; stroke-opacity:1;  stroke-linecap:round; stroke-linejoin:round;fill-rule:evenodd;" d="M 151.1600,107.6000 151.0763,107.5922 150.9497,107.5479 150.8418,107.4682 150.7621,107.3603 150.7178,107.2337 150.7100,107.1500 150.7100,106.4500 150.7178,106.3663 150.7621,106.2397 150.8418,106.1318 150.9497,106.0521 151.0763,106.0078 151.1600,106.0000 152.0600,106.0000 152.1437,106.0078 152.2703,106.0521 152.3782,106.1318 152.4579,106.2397 152.5022,106.3663 152.5100,106.4500 152.5100,107.1500 152.5022,107.2337 152.4579,107.3603 152.3782,107.4682 152.2703,107.5479 152.1437,107.5922 152.0600,107.6000 Z"/> 
<path style="fill:#000000; fill-opacity:1.0000;  stroke:#000000; stroke-width:0.0000; stroke-opacity:1;  stroke-linecap:round; stroke-linejoin:round;fill-rule:evenodd;" d="M 151.1600,105.6000 151.0763,105.5922 150.9497,105.5479 150.8418,105.4682 150.7621,105.3603 150.7178,105.2337 150.7100,105.1500 150.7100,104.4500 150.7178,104.3663 150.7621,104.2397 150.8418,104.1318 150.9497,104.0521 151.0763,104.0078 151.1600,104.0000 152.0600,104.0000 152.1437,104.0078 152.2703,104.0521 152.3782,104.1318 152.4579,104.2397 152.5022,104.3663 152.5100,104.4500 152.5100,105.1500 152.5022,105.2337 152.4579,105.3603 152.3782,105.4682 152.2703,105.5479 152.1437,105.5922 152.0600,105.6000 Z"/> 
</g>
<g style="fill:#000000; fill-opacity:1.0000;  stroke:#000000; stroke-width:0.0000; stroke-opacity:1;  stroke-linecap:round; stroke-linejoin:round;">
<path style="fill:#000000; fill-opacity:1.0000;  stroke:#000000; stroke-width:0.0000; stroke-opacity:1;  stroke-linecap:round; stroke-linejoin:round;fill-rule:evenodd;" d="M 136.1350,68.1750 136.1272,68.2587 136.0829,68.3853 136.0032,68.4932 135.8953,68.5729 135.7687,68.6172 135.6850,68.6250 135.0100,68.6250 134.9263,68.6172 134.7997,68.5729 134.6918,68.4932 134.6121,68.3853 134.5678,68.2587 134.5600,68.1750 134.5600,67.2250 134.5678,67.1413 134.6121,67.0147 134.6918,66.9068 134.7997,66.8271 134.9263,66.7828 135.0100,66.7750 135.6850,66.7750 135.7687,66.7828 135.8953,66.8271 136.0032,66.9068 136.0829,67.0147 136.1272,67.1413 136.1350,67.2250 Z"/> 
<path style="fill:#000000; fill-opacity:1.0000;  stroke:#000000; stroke-width:0.0000; stroke-opacity:1;  stroke-linecap:round; stroke-linejoin:round;fill-rule:evenodd;" d="M 134.0600,68.1750 134.0522,68.2587 134.0079,68.3853 133.9282,68.4932 133.8203,68.5729 133.6937,68.6172 133.6100,68.6250 132.9350,68.6250 132.8513,68.6172 132.7247,68.5729 132.6168,68.4932 132.5371,68.3853 132.4928,68.2587 132.4850,68.1750 132.4850,67.2250 132.4928,67.1413 132.5371,67.0147 132.6168,66.9068 132.7247,66.8271 132.8513,66.7828 132.9350,66.7750 133.6100,66.7750 133.6937,66.7828 133.8203,66.8271 133.9282,66.9068 134.0079,67.0147 134.0522,67.1413 134.0600,67.2250 Z"/> 
</g>
<g style="fill:#000000; fill-opacity:1.0000;  stroke:#000000; stroke-width:0.0000; stroke-opacity:1;  stroke-linecap:round; stroke-linejoin:round;">
<path style="fill:#000000; fill-opacity:1.0000;  stroke:#000000; stroke-width:0.0000; stroke-opacity:1;  stroke-linecap:round; stroke-linejoin:round;fill-rule:evenodd;" d="M 152.3100,101.1500 152.3022,101.2337 152.2579,101.3603 152.1782,101.4682 152.0703,101.5479 151.9437,101.5922 151.8600,101.6000 151.1600,101.6000 151.0763,101.5922 150.9497,101.5479 150.8418,101.4682 150.7621,101.3603 150.7178,101.2337 150.7100,101.1500 150.7100,100.2500 150.7178,100.1663 150.7621,100.0397 150.8418,99.9318 150.9497,99.8521 151.0763,99.8078 151.1600,99.8000 151.8600,99.8000 151.9437,99.8078 152.0703,99.8521 152.1782,99.9318 152.2579,100.0397 152.3022,100.1663 152.3100,100.2500 Z"/> 
<path style="fill:#000000; fill-opacity:1.0000;  stroke:#000000; stroke-width:0.0000; stroke-opacity:1;  stroke-linecap:round; stroke-linejoin:round;fill-rule:evenodd;" d="M 150.3100,101.1500 150.3022,101.2337 150.2579,101.3603 150.1782,101.4682 150.0703,101.5479 149.9437,101.5922 149.8600,101.6000 149.1600,101.6000 149.0763,101.5922 148.9497,101.5479 148.8418,101.4682 148.7621,101.3603 148.7178,101.2337 148.7100,101.1500 148.7100,100.2500 148.7178,100.1663 148.7621,100.0397 148.8418,99.9318 148.9497,99.8521 149.0763,99.8078 149.1600,99.8000 149.8600,99.8000 149.9437,99.8078 150.0703,99.8521 150.1782,99.9318 150.2579,100.0397 150.3022,100.1663 150.3100,100.2500 Z"/> 
</g>
<g style="fill:#000000; fill-opacity:1.0000;  stroke:#000000; stroke-width:0.0000; stroke-opacity:1;  stroke-linecap:round; stroke-linejoin:round;">
<path style="fill:#000000; fill-opacity:1.0000;  stroke:#000000; stroke-width:0.0000; stroke-opacity:1;  stroke-linecap:round; stroke-linejoin:round;fill-rule:evenodd;" d="M 157.5100,105.5500 157.4948,105.6265 157.4514,105.6914 157.3865,105.7348 157.3100,105.7500 156.2100,105.7500 156.1335,105.7348 156.0686,105.6914 156.0252,105.6265 156.0100,105.5500 156.0100,103.7500 156.0252,103.6735 156.0686,103.6086 156.1335,103.5652 156.2100,103.5500 157.3100,103.5500 157.3865,103.5652 157.4514,103.6086 157.4948,103.6735 157.5100,103.7500 Z"/> 
<path style="fill:#000000; fill-opacity:1.0000;  stroke:#000000; stroke-width:0.0000; stroke-opacity:1;  stroke-linecap:round; stroke-linejoin:round;fill-rule:evenodd;" d="M 156.2400,107.3450 156.2317,107.4333 156.1850,107.5670 156.1009,107.6809 155.9870,107.7650 155.8533,107.8117 155.7650,107.8200 155.2150,107.8200 155.1267,107.8117 154.9930,107.7650 154.8791,107.6809 154.7950,107.5670 154.7483,107.4333 154.7400,107.3450 154.7400,106.0950 154.7483,106.0067 154.7950,105.8730 154.8791,105.7591 154.9930,105.6750 155.1267,105.6283 155.2150,105.6200 155.7650,105.6200 155.8533,105.6283 155.9870,105.6750 156.1009,105.7591 156.1850,105.8730 156.2317,106.0067 156.2400,106.0950 Z"/> 
<path style="fill:#000000; fill-opacity:1.0000;  stroke:#000000; stroke-width:0.0000; stroke-opacity:1;  stroke-linecap:round; stroke-linejoin:round;fill-rule:evenodd;" d="M 154.9700,105.2750 154.9617,105.3633 154.9150,105.4970 154.8309,105.6109 154.7170,105.6950 154.5833,105.7417 154.4950,105.7500 153.9450,105.7500 153.8567,105.7417 153.7230,105.6950 153.6091,105.6109 153.5250,105.4970 153.4783,105.3633 153.4700,105.2750 153.4700,104.0250 153.4783,103.9367 153.5250,103.8030 153.6091,103.6891 153.7230,103.6050 153.8567,103.5583 153.9450,103.5500 154.4950,103.5500 154.5833,103.5583 154.7170,103.6050 154.8309,103.6891 154.9150,103.8030 154.9617,103.9367 154.9700,104.0250 Z"/> 
</g>
<g style="fill:#000000; fill-opacity:1.0000;  stroke:#000000; stroke-width:0.0000; stroke-opacity:1;  stroke-linecap:round; stroke-linejoin:round;">
<path style="fill:#000000; fill-opacity:1.0000;  stroke:#000000; stroke-width:0.0000; stroke-opacity:1;  stroke-linecap:round; stroke-linejoin:round;fill-rule:evenodd;" d="M 150.7100,108.2500 150.7178,108.1663 150.7621,108.0397 150.8418,107.9318 150.9497,107.8521 151.0763,107.8078 151.1600,107.8000 151.8600,107.8000 151.9437,107.8078 152.0703,107.8521 152.1782,107.9318 152.2579,108.0397 152.3022,108.1663 152.3100,108.2500 152.3100,109.1500 152.3022,109.2337 152.2579,109.3603 152.1782,109.4682 152.0703,109.5479 151.9437,109.5922 151.8600,109.6000 151.1600,109.6000 151.0763,109.5922 150.9497,109.5479 150.8418,109.4682 150.7621,109.3603 150.7178,109.2337 150.7100,109.1500 Z"/> 
<path style="fill:#000000; fill-opacity:1.0000;  stroke:#000000; stroke-width:0.0000; stroke-opacity:1;  stroke-linecap:round; stroke-linejoin:round;fill-rule:evenodd;" d="M 152.7100,108.2500 152.7178,108.1663 152.7621,108.0397 152.8418,107.9318 152.9497,107.8521 153.0763,107.8078 153.1600,107.8000 153.8600,107.8000 153.9437,107.8078 154.0703,107.8521 154.1782,107.9318 154.2579,108.0397 154.3022,108.1663 154.3100,108.2500 154.3100,109.1500 154.3022,109.2337 154.2579,109.3603 154.1782,109.4682 154.0703,109.5479 153.9437,109.5922 153.8600,109.6000 153.1600,109.6000 153.0763,109.5922 152.9497,109.5479 152.8418,109.4682 152.7621,109.3603 152.7178,109.2337 152.7100,109.1500 Z"/> 
</g>
<g style="fill:#000000; fill-opacity:1.0000;  stroke:#000000; stroke-width:0.0000; stroke-opacity:1;  stroke-linecap:round; stroke-linejoin:round;">
<path style="fill:#000000; fill-opacity:1.0000;  stroke:#000000; stroke-width:0.0000; stroke-opacity:1;  stroke-linecap:round; stroke-linejoin:round;fill-rule:evenodd;" d="M 118.3100,104.0500 118.3178,103.9663 118.3621,103.8397 118.4418,103.7318 118.5497,103.6521 118.6763,103.6078 118.7600,103.6000 119.4600,103.6000 119.5437,103.6078 119.6703,103.6521 119.7782,103.7318 119.8579,103.8397 119.9022,103.9663 119.9100,104.0500 119.9100,104.9500 119.9022,105.0337 119.8579,105.1603 119.7782,105.2682 119.6703,105.3479 119.5437,105.3922 119.4600,105.4000 118.7600,105.4000 118.6763,105.3922 118.5497,105.3479 118.4418,105.2682 118.3621,105.1603 118.3178,105.0337 118.3100,104.9500 Z"/> 
<path style="fill:#000000; fill-opacity:1.0000;  stroke:#000000; stroke-width:0.0000; stroke-opacity:1;  stroke-linecap:round; stroke-linejoin:round;fill-rule:evenodd;" d="M 120.3100,104.0500 120.3178,103.9663 120.3621,103.8397 120.4418,103.7318 120.5497,103.6521 120.6763,103.6078 120.7600,103.6000 121.4600,103.6000 121.5437,103.6078 121.6703,103.6521 121.7782,103.7318 121.8579,103.8397 121.9022,103.9663 121.9100,104.0500 121.9100,104.9500 121.9022,105.0337 121.8579,105.1603 121.7782,105.2682 121.6703,105.3479 121.5437,105.3922 121.4600,105.4000 120.7600,105.4000 120.6763,105.3922 120.5497,105.3479 120.4418,105.2682 120.3621,105.1603 120.3178,105.0337 120.3100,104.9500 Z"/> 
</g>
<g style="fill:#000000; fill-opacity:1.0000;  stroke:#000000; stroke-width:0.0000; stroke-opacity:1;  stroke-linecap:round; stroke-linejoin:round;">
<path style="fill:#000000; fill-opacity:1.0000;  stroke:#000000; stroke-width:0.0000; stroke-opacity:1;  stroke-linecap:round; stroke-linejoin:round;fill-rule:evenodd;" d="M 161.9100,107.4000 161.8335,107.3848 161.7686,107.3414 161.7252,107.2765 161.7100,107.2000 161.7100,105.6000 161.7252,105.5235 161.7686,105.4586 161.8335,105.4152 161.9100,105.4000 163.5100,105.4000 163.5865,105.4152 163.6514,105.4586 163.6948,105.5235 163.7100,105.6000 163.7100,107.2000 163.6948,107.2765 163.6514,107.3414 163.5865,107.3848 163.5100,107.4000 Z"/> 
<circle cx="162.7100" cy="103.9000" r="1.0000"/> 
</g>
<g style="fill:#000000; fill-opacity:1.0000;  stroke:#000000; stroke-width:0.0000; stroke-opacity:1;  stroke-linecap:round; stroke-linejoin:round;">
<path style="fill:#000000; fill-opacity:1.0000;  stroke:#000000; stroke-width:0.0000; stroke-opacity:1;  stroke-linecap:round; stroke-linejoin:round;fill-rule:evenodd;" d="M 129.5100,102.3500 129.5178,102.2663 129.5621,102.1397 129.6418,102.0318 129.7497,101.9521 129.8763,101.9078 129.9600,101.9000 130.6600,101.9000 130.7437,101.9078 130.8703,101.9521 130.9782,102.0318 131.0579,102.1397 131.1022,102.2663 131.1100,102.3500 131.1100,103.2500 131.1022,103.3337 131.0579,103.4603 130.9782,103.5682 130.8703,103.6479 130.7437,103.6922 130.6600,103.7000 129.9600,103.7000 129.8763,103.6922 129.7497,103.6479 129.6418,103.5682 129.5621,103.4603 129.5178,103.3337 129.5100,103.2500 Z"/> 
<path style="fill:#000000; fill-opacity:1.0000;  stroke:#000000; stroke-width:0.0000; stroke-opacity:1;  stroke-linecap:round; stroke-linejoin:round;fill-rule:evenodd;" d="M 131.5100,102.3500 131.5178,102.2663 131.5621,102.1397 131.6418,102.0318 131.7497,101.9521 131.8763,101.9078 131.9600,101.9000 132.6600,101.9000 132.7437,101.9078 132.8703,101.9521 132.9782,102.0318 133.0579,102.1397 133.1022,102.2663 133.1100,102.3500 133.1100,103.2500 133.1022,103.3337 133.0579,103.4603 132.9782,103.5682 132.8703,103.6479 132.7437,103.6922 132.6600,103.7000 131.9600,103.7000 131.8763,103.6922 131.7497,103.6479 131.6418,103.5682 131.5621,103.4603 131.5178,103.3337 131.5100,103.2500 Z"/> 
</g>
<g style="fill:#000000; fill-opacity:1.0000;  stroke:#000000; stroke-width:0.0000; stroke-opacity:1;  stroke-linecap:round; stroke-linejoin:round;">
<path style="fill:#000000; fill-opacity:1.0000;  stroke:#000000; stroke-width:0.0000; stroke-opacity:1;  stroke-linecap:round; stroke-linejoin:round;fill-rule:evenodd;" d="M 132.3350,99.1250 132.2513,99.1172 132.1247,99.0729 132.0168,98.9932 131.9371,98.8853 131.8928,98.7587 131.8850,98.6750 131.8850,98.0000 131.8928,97.9163 131.9371,97.7897 132.0168,97.6818 132.1247,97.6021 132.2513,97.5578 132.3350,97.5500 133.2850,97.5500 133.3687,97.5578 133.4953,97.6021 133.6032,97.6818 133.6829,97.7897 133.7272,97.9163 133.7350,98.0000 133.7350,98.6750 133.7272,98.7587 133.6829,98.8853 133.6032,98.9932 133.4953,99.0729 133.3687,99.1172 133.2850,99.1250 Z"/> 
<path style="fill:#000000; fill-opacity:1.0000;  stroke:#000000; stroke-width:0.0000; stroke-opacity:1;  stroke-linecap:round; stroke-linejoin:round;fill-rule:evenodd;" d="M 132.3350,97.0500 132.2513,97.0422 132.1247,96.9979 132.0168,96.9182 131.9371,96.8103 131.8928,96.6837 131.8850,96.6000 131.8850,95.9250 131.8928,95.8413 131.9371,95.7147 132.0168,95.6068 132.1247,95.5271 132.2513,95.4828 132.3350,95.4750 133.2850,95.4750 133.3687,95.4828 133.4953,95.5271 133.6032,95.6068 133.6829,95.7147 133.7272,95.8413 133.7350,95.9250 133.7350,96.6000 133.7272,96.6837 133.6829,96.8103 133.6032,96.9182 133.4953,96.9979 133.3687,97.0422 133.2850,97.0500 Z"/> 
</g>
<g style="fill:#000000; fill-opacity:1.0000;  stroke:#000000; stroke-width:0.0000; stroke-opacity:1;  stroke-linecap:round; stroke-linejoin:round;">
<path style="fill:#000000; fill-opacity:1.0000;  stroke:#000000; stroke-width:0.0000; stroke-opacity:1;  stroke-linecap:round; stroke-linejoin:round;fill-rule:evenodd;" d="M 133.1350,101.2750 133.1272,101.3587 133.0829,101.4853 133.0032,101.5932 132.8953,101.6729 132.7687,101.7172 132.6850,101.7250 132.0100,101.7250 131.9263,101.7172 131.7997,101.6729 131.6918,101.5932 131.6121,101.4853 131.5678,101.3587 131.5600,101.2750 131.5600,100.3250 131.5678,100.2413 131.6121,100.1147 131.6918,100.0068 131.7997,99.9271 131.9263,99.8828 132.0100,99.8750 132.6850,99.8750 132.7687,99.8828 132.8953,99.9271 133.0032,100.0068 133.0829,100.1147 133.1272,100.2413 133.1350,100.3250 Z"/> 
<path style="fill:#000000; fill-opacity:1.0000;  stroke:#000000; stroke-width:0.0000; stroke-opacity:1;  stroke-linecap:round; stroke-linejoin:round;fill-rule:evenodd;" d="M 131.0600,101.2750 131.0522,101.3587 131.0079,101.4853 130.9282,101.5932 130.8203,101.6729 130.6937,101.7172 130.6100,101.7250 129.9350,101.7250 129.8513,101.7172 129.7247,101.6729 129.6168,101.5932 129.5371,101.4853 129.4928,101.3587 129.4850,101.2750 129.4850,100.3250 129.4928,100.2413 129.5371,100.1147 129.6168,100.0068 129.7247,99.9271 129.8513,99.8828 129.9350,99.8750 130.6100,99.8750 130.6937,99.8828 130.8203,99.9271 130.9282,100.0068 131.0079,100.1147 131.0522,100.2413 131.0600,100.3250 Z"/> 
</g>
<g style="fill:#000000; fill-opacity:1.0000;  stroke:#000000; stroke-width:0.0000; stroke-opacity:1;  stroke-linecap:round; stroke-linejoin:round;">
<path style="fill:#000000; fill-opacity:1.0000;  stroke:#000000; stroke-width:0.0000; stroke-opacity:1;  stroke-linecap:round; stroke-linejoin:round;fill-rule:evenodd;" d="M 157.4225,87.0250 157.4303,86.9413 157.4746,86.8147 157.5543,86.7068 157.6622,86.6271 157.7888,86.5828 157.8725,86.5750 158.5475,86.5750 158.6312,86.5828 158.7578,86.6271 158.8657,86.7068 158.9454,86.8147 158.9897,86.9413 158.9975,87.0250 158.9975,87.9750 158.9897,88.0587 158.9454,88.1853 158.8657,88.2932 158.7578,88.3729 158.6312,88.4172 158.5475,88.4250 157.8725,88.4250 157.7888,88.4172 157.6622,88.3729 157.5543,88.2932 157.4746,88.1853 157.4303,88.0587 157.4225,87.9750 Z"/> 
<path style="fill:#000000; fill-opacity:1.0000;  stroke:#000000; stroke-width:0.0000; stroke-opacity:1;  stroke-linecap:round; stroke-linejoin:round;fill-rule:evenodd;" d="M 159.4975,87.0250 159.5053,86.9413 159.5496,86.8147 159.6293,86.7068 159.7372,86.6271 159.8638,86.5828 159.9475,86.5750 160.6225,86.5750 160.7062,86.5828 160.8328,86.6271 160.9407,86.7068 161.0204,86.8147 161.0647,86.9413 161.0725,87.0250 161.0725,87.9750 161.0647,88.0587 161.0204,88.1853 160.9407,88.2932 160.8328,88.3729 160.7062,88.4172 160.6225,88.4250 159.9475,88.4250 159.8638,88.4172 159.7372,88.3729 159.6293,88.2932 159.5496,88.1853 159.5053,88.0587 159.4975,87.9750 Z"/> 
</g>
<g style="fill:#000000; fill-opacity:1.0000;  stroke:#000000; stroke-width:0.0000; stroke-opacity:1;  stroke-linecap:round; stroke-linejoin:round;">
<path style="fill:#000000; fill-opacity:1.0000;  stroke:#000000; stroke-width:0.0000; stroke-opacity:1;  stroke-linecap:round; stroke-linejoin:round;fill-rule:evenodd;" d="M 129.5100,104.3500 129.5178,104.2663 129.5621,104.1397 129.6418,104.0318 129.7497,103.9521 129.8763,103.9078 129.9600,103.9000 130.6600,103.9000 130.7437,103.9078 130.8703,103.9521 130.9782,104.0318 131.0579,104.1397 131.1022,104.2663 131.1100,104.3500 131.1100,105.2500 131.1022,105.3337 131.0579,105.4603 130.9782,105.5682 130.8703,105.6479 130.7437,105.6922 130.6600,105.7000 129.9600,105.7000 129.8763,105.6922 129.7497,105.6479 129.6418,105.5682 129.5621,105.4603 129.5178,105.3337 129.5100,105.2500 Z"/> 
<path style="fill:#000000; fill-opacity:1.0000;  stroke:#000000; stroke-width:0.0000; stroke-opacity:1;  stroke-linecap:round; stroke-linejoin:round;fill-rule:evenodd;" d="M 131.5100,104.3500 131.5178,104.2663 131.5621,104.1397 131.6418,104.0318 131.7497,103.9521 131.8763,103.9078 131.9600,103.9000 132.6600,103.9000 132.7437,103.9078 132.8703,103.9521 132.9782,104.0318 133.0579,104.1397 133.1022,104.2663 133.1100,104.3500 133.1100,105.2500 133.1022,105.3337 133.0579,105.4603 132.9782,105.5682 132.8703,105.6479 132.7437,105.6922 132.6600,105.7000 131.9600,105.7000 131.8763,105.6922 131.7497,105.6479 131.6418,105.5682 131.5621,105.4603 131.5178,105.3337 131.5100,105.2500 Z"/> 
</g>
<g style="fill:#000000; fill-opacity:1.0000;  stroke:#000000; stroke-width:0.0000; stroke-opacity:1;  stroke-linecap:round; stroke-linejoin:round;">
<path style="fill:#000000; fill-opacity:1.0000;  stroke:#000000; stroke-width:0.0000; stroke-opacity:1;  stroke-linecap:round; stroke-linejoin:round;fill-rule:evenodd;" d="M 126.7800,105.3200 126.7035,105.3048 126.6386,105.2614 126.5952,105.1965 126.5800,105.1200 126.5800,104.0200 126.5952,103.9435 126.6386,103.8786 126.7035,103.8352 126.7800,103.8200 128.5800,103.8200 128.6565,103.8352 128.7214,103.8786 128.7648,103.9435 128.7800,104.0200 128.7800,105.1200 128.7648,105.1965 128.7214,105.2614 128.6565,105.3048 128.5800,105.3200 Z"/> 
<path style="fill:#000000; fill-opacity:1.0000;  stroke:#000000; stroke-width:0.0000; stroke-opacity:1;  stroke-linecap:round; stroke-linejoin:round;fill-rule:evenodd;" d="M 124.9850,104.0500 124.8967,104.0417 124.7630,103.9950 124.6491,103.9109 124.5650,103.7970 124.5183,103.6633 124.5100,103.5750 124.5100,103.0250 124.5183,102.9367 124.5650,102.8030 124.6491,102.6891 124.7630,102.6050 124.8967,102.5583 124.9850,102.5500 126.2350,102.5500 126.3233,102.5583 126.4570,102.6050 126.5709,102.6891 126.6550,102.8030 126.7017,102.9367 126.7100,103.0250 126.7100,103.5750 126.7017,103.6633 126.6550,103.7970 126.5709,103.9109 126.4570,103.9950 126.3233,104.0417 126.2350,104.0500 Z"/> 
<path style="fill:#000000; fill-opacity:1.0000;  stroke:#000000; stroke-width:0.0000; stroke-opacity:1;  stroke-linecap:round; stroke-linejoin:round;fill-rule:evenodd;" d="M 127.0550,102.7800 126.9667,102.7717 126.8330,102.7250 126.7191,102.6409 126.6350,102.5270 126.5883,102.3933 126.5800,102.3050 126.5800,101.7550 126.5883,101.6667 126.6350,101.5330 126.7191,101.4191 126.8330,101.3350 126.9667,101.2883 127.0550,101.2800 128.3050,101.2800 128.3933,101.2883 128.5270,101.3350 128.6409,101.4191 128.7250,101.5330 128.7717,101.6667 128.7800,101.7550 128.7800,102.3050 128.7717,102.3933 128.7250,102.5270 128.6409,102.6409 128.5270,102.7250 128.3933,102.7717 128.3050,102.7800 Z"/> 
</g>
<g style="fill:#000000; fill-opacity:1.0000;  stroke:#000000; stroke-width:0.0000; stroke-opacity:1;  stroke-linecap:round; stroke-linejoin:round;">
<path style="fill:#000000; fill-opacity:1.0000;  stroke:#000000; stroke-width:0.0000; stroke-opacity:1;  stroke-linecap:round; stroke-linejoin:round;fill-rule:evenodd;" d="M 161.8100,92.2750 161.7194,92.2631 161.6092,92.2117 161.5233,92.1258 161.4719,92.0156 161.4600,91.9250 161.4600,90.7500 161.4719,90.6594 161.5233,90.5492 161.6092,90.4633 161.7194,90.4119 161.8100,90.4000 162.1100,90.4000 162.2006,90.4119 162.3108,90.4633 162.3967,90.5492 162.4481,90.6594 162.4600,90.7500 162.4600,91.9250 162.4481,92.0156 162.3967,92.1258 162.3108,92.2117 162.2006,92.2631 162.1100,92.2750 Z"/> 
<path style="fill:#000000; fill-opacity:1.0000;  stroke:#000000; stroke-width:0.0000; stroke-opacity:1;  stroke-linecap:round; stroke-linejoin:round;fill-rule:evenodd;" d="M 163.7100,92.2750 163.6194,92.2631 163.5092,92.2117 163.4233,92.1258 163.3719,92.0156 163.3600,91.9250 163.3600,90.7500 163.3719,90.6594 163.4233,90.5492 163.5092,90.4633 163.6194,90.4119 163.7100,90.4000 164.0100,90.4000 164.1006,90.4119 164.2108,90.4633 164.2967,90.5492 164.3481,90.6594 164.3600,90.7500 164.3600,91.9250 164.3481,92.0156 164.2967,92.1258 164.2108,92.2117 164.1006,92.2631 164.0100,92.2750 Z"/> 
<path style="fill:#000000; fill-opacity:1.0000;  stroke:#000000; stroke-width:0.0000; stroke-opacity:1;  stroke-linecap:round; stroke-linejoin:round;fill-rule:evenodd;" d="M 162.7600,90.4000 162.6694,90.3881 162.5592,90.3367 162.4733,90.2508 162.4219,90.1406 162.4100,90.0500 162.4100,88.8750 162.4219,88.7844 162.4733,88.6742 162.5592,88.5883 162.6694,88.5369 162.7600,88.5250 163.0600,88.5250 163.1506,88.5369 163.2608,88.5883 163.3467,88.6742 163.3981,88.7844 163.4100,88.8750 163.4100,90.0500 163.3981,90.1406 163.3467,90.2508 163.2608,90.3367 163.1506,90.3881 163.0600,90.4000 Z"/> 
</g>
<g style="fill:#000000; fill-opacity:1.0000;  stroke:#000000; stroke-width:0.0000; stroke-opacity:1;  stroke-linecap:round; stroke-linejoin:round;">
<path style="fill:#000000; fill-opacity:1.0000;  stroke:#000000; stroke-width:0.0000; stroke-opacity:1;  stroke-linecap:round; stroke-linejoin:round;fill-rule:evenodd;" d="M 152.0600,86.3000 151.9763,86.2922 151.8497,86.2479 151.7418,86.1682 151.6621,86.0603 151.6178,85.9337 151.6100,85.8500 151.6100,85.1500 151.6178,85.0663 151.6621,84.9397 151.7418,84.8318 151.8497,84.7521 151.9763,84.7078 152.0600,84.7000 152.9600,84.7000 153.0437,84.7078 153.1703,84.7521 153.2782,84.8318 153.3579,84.9397 153.4022,85.0663 153.4100,85.1500 153.4100,85.8500 153.4022,85.9337 153.3579,86.0603 153.2782,86.1682 153.1703,86.2479 153.0437,86.2922 152.9600,86.3000 Z"/> 
<path style="fill:#000000; fill-opacity:1.0000;  stroke:#000000; stroke-width:0.0000; stroke-opacity:1;  stroke-linecap:round; stroke-linejoin:round;fill-rule:evenodd;" d="M 152.0600,84.3000 151.9763,84.2922 151.8497,84.2479 151.7418,84.1682 151.6621,84.0603 151.6178,83.9337 151.6100,83.8500 151.6100,83.1500 151.6178,83.0663 151.6621,82.9397 151.7418,82.8318 151.8497,82.7521 151.9763,82.7078 152.0600,82.7000 152.9600,82.7000 153.0437,82.7078 153.1703,82.7521 153.2782,82.8318 153.3579,82.9397 153.4022,83.0663 153.4100,83.1500 153.4100,83.8500 153.4022,83.9337 153.3579,84.0603 153.2782,84.1682 153.1703,84.2479 153.0437,84.2922 152.9600,84.3000 Z"/> 
</g>
<g style="fill:#000000; fill-opacity:1.0000;  stroke:#000000; stroke-width:0.0000; stroke-opacity:1;  stroke-linecap:round; stroke-linejoin:round;">
<path style="fill:#000000; fill-opacity:1.0000;  stroke:#000000; stroke-width:0.0000; stroke-opacity:1;  stroke-linecap:round; stroke-linejoin:round;fill-rule:evenodd;" d="M 150.9600,85.4000 151.0437,85.4078 151.1703,85.4521 151.2782,85.5318 151.3579,85.6397 151.4022,85.7663 151.4100,85.8500 151.4100,86.5500 151.4022,86.6337 151.3579,86.7603 151.2782,86.8682 151.1703,86.9479 151.0437,86.9922 150.9600,87.0000 150.0600,87.0000 149.9763,86.9922 149.8497,86.9479 149.7418,86.8682 149.6621,86.7603 149.6178,86.6337 149.6100,86.5500 149.6100,85.8500 149.6178,85.7663 149.6621,85.6397 149.7418,85.5318 149.8497,85.4521 149.9763,85.4078 150.0600,85.4000 Z"/> 
<path style="fill:#000000; fill-opacity:1.0000;  stroke:#000000; stroke-width:0.0000; stroke-opacity:1;  stroke-linecap:round; stroke-linejoin:round;fill-rule:evenodd;" d="M 150.9600,87.4000 151.0437,87.4078 151.1703,87.4521 151.2782,87.5318 151.3579,87.6397 151.4022,87.7663 151.4100,87.8500 151.4100,88.5500 151.4022,88.6337 151.3579,88.7603 151.2782,88.8682 151.1703,88.9479 151.0437,88.9922 150.9600,89.0000 150.0600,89.0000 149.9763,88.9922 149.8497,88.9479 149.7418,88.8682 149.6621,88.7603 149.6178,88.6337 149.6100,88.5500 149.6100,87.8500 149.6178,87.7663 149.6621,87.6397 149.7418,87.5318 149.8497,87.4521 149.9763,87.4078 150.0600,87.4000 Z"/> 
</g>
<g style="fill:#000000; fill-opacity:1.0000;  stroke:#000000; stroke-width:0.0000; stroke-opacity:1;  stroke-linecap:round; stroke-linejoin:round;">
<path style="fill:#000000; fill-opacity:1.0000;  stroke:#000000; stroke-width:0.0000; stroke-opacity:1;  stroke-linecap:round; stroke-linejoin:round;fill-rule:evenodd;" d="M 158.3350,93.6250 158.2513,93.6172 158.1247,93.5729 158.0168,93.4932 157.9371,93.3853 157.8928,93.2587 157.8850,93.1750 157.8850,92.5000 157.8928,92.4163 157.9371,92.2897 158.0168,92.1818 158.1247,92.1021 158.2513,92.0578 158.3350,92.0500 159.2850,92.0500 159.3687,92.0578 159.4953,92.1021 159.6032,92.1818 159.6829,92.2897 159.7272,92.4163 159.7350,92.5000 159.7350,93.1750 159.7272,93.2587 159.6829,93.3853 159.6032,93.4932 159.4953,93.5729 159.3687,93.6172 159.2850,93.6250 Z"/> 
<path style="fill:#000000; fill-opacity:1.0000;  stroke:#000000; stroke-width:0.0000; stroke-opacity:1;  stroke-linecap:round; stroke-linejoin:round;fill-rule:evenodd;" d="M 158.3350,91.5500 158.2513,91.5422 158.1247,91.4979 158.0168,91.4182 157.9371,91.3103 157.8928,91.1837 157.8850,91.1000 157.8850,90.4250 157.8928,90.3413 157.9371,90.2147 158.0168,90.1068 158.1247,90.0271 158.2513,89.9828 158.3350,89.9750 159.2850,89.9750 159.3687,89.9828 159.4953,90.0271 159.6032,90.1068 159.6829,90.2147 159.7272,90.3413 159.7350,90.4250 159.7350,91.1000 159.7272,91.1837 159.6829,91.3103 159.6032,91.4182 159.4953,91.4979 159.3687,91.5422 159.2850,91.5500 Z"/> 
</g>
<g style="fill:#000000; fill-opacity:1.0000;  stroke:#000000; stroke-width:0.0000; stroke-opacity:1;  stroke-linecap:round; stroke-linejoin:round;">
<path style="fill:#000000; fill-opacity:1.0000;  stroke:#000000; stroke-width:0.0000; stroke-opacity:1;  stroke-linecap:round; stroke-linejoin:round;fill-rule:evenodd;" d="M 133.3850,104.3250 133.3928,104.2413 133.4371,104.1147 133.5168,104.0068 133.6247,103.9271 133.7513,103.8828 133.8350,103.8750 134.5100,103.8750 134.5937,103.8828 134.7203,103.9271 134.8282,104.0068 134.9079,104.1147 134.9522,104.2413 134.9600,104.3250 134.9600,105.2750 134.9522,105.3587 134.9079,105.4853 134.8282,105.5932 134.7203,105.6729 134.5937,105.7172 134.5100,105.7250 133.8350,105.7250 133.7513,105.7172 133.6247,105.6729 133.5168,105.5932 133.4371,105.4853 133.3928,105.3587 133.3850,105.2750 Z"/> 
<path style="fill:#000000; fill-opacity:1.0000;  stroke:#000000; stroke-width:0.0000; stroke-opacity:1;  stroke-linecap:round; stroke-linejoin:round;fill-rule:evenodd;" d="M 135.4600,104.3250 135.4678,104.2413 135.5121,104.1147 135.5918,104.0068 135.6997,103.9271 135.8263,103.8828 135.9100,103.8750 136.5850,103.8750 136.6687,103.8828 136.7953,103.9271 136.9032,104.0068 136.9829,104.1147 137.0272,104.2413 137.0350,104.3250 137.0350,105.2750 137.0272,105.3587 136.9829,105.4853 136.9032,105.5932 136.7953,105.6729 136.6687,105.7172 136.5850,105.7250 135.9100,105.7250 135.8263,105.7172 135.6997,105.6729 135.5918,105.5932 135.5121,105.4853 135.4678,105.3587 135.4600,105.2750 Z"/> 
</g>
<g style="fill:#000000; fill-opacity:1.0000;  stroke:#000000; stroke-width:0.0000; stroke-opacity:1;  stroke-linecap:round; stroke-linejoin:round;">
<path style="fill:#000000; fill-opacity:1.0000;  stroke:#000000; stroke-width:0.0000; stroke-opacity:1;  stroke-linecap:round; stroke-linejoin:round;fill-rule:evenodd;" d="M 163.9600,92.4625 164.0506,92.4744 164.1608,92.5258 164.2467,92.6117 164.2981,92.7219 164.3100,92.8125 164.3100,93.9875 164.2981,94.0781 164.2467,94.1883 164.1608,94.2742 164.0506,94.3256 163.9600,94.3375 163.6600,94.3375 163.5694,94.3256 163.4592,94.2742 163.3733,94.1883 163.3219,94.0781 163.3100,93.9875 163.3100,92.8125 163.3219,92.7219 163.3733,92.6117 163.4592,92.5258 163.5694,92.4744 163.6600,92.4625 Z"/> 
<path style="fill:#000000; fill-opacity:1.0000;  stroke:#000000; stroke-width:0.0000; stroke-opacity:1;  stroke-linecap:round; stroke-linejoin:round;fill-rule:evenodd;" d="M 162.0600,92.4625 162.1506,92.4744 162.2608,92.5258 162.3467,92.6117 162.3981,92.7219 162.4100,92.8125 162.4100,93.9875 162.3981,94.0781 162.3467,94.1883 162.2608,94.2742 162.1506,94.3256 162.0600,94.3375 161.7600,94.3375 161.6694,94.3256 161.5592,94.2742 161.4733,94.1883 161.4219,94.0781 161.4100,93.9875 161.4100,92.8125 161.4219,92.7219 161.4733,92.6117 161.5592,92.5258 161.6694,92.4744 161.7600,92.4625 Z"/> 
<path style="fill:#000000; fill-opacity:1.0000;  stroke:#000000; stroke-width:0.0000; stroke-opacity:1;  stroke-linecap:round; stroke-linejoin:round;fill-rule:evenodd;" d="M 163.0100,94.3375 163.1006,94.3494 163.2108,94.4008 163.2967,94.4867 163.3481,94.5969 163.3600,94.6875 163.3600,95.8625 163.3481,95.9531 163.2967,96.0633 163.2108,96.1492 163.1006,96.2006 163.0100,96.2125 162.7100,96.2125 162.6194,96.2006 162.5092,96.1492 162.4233,96.0633 162.3719,95.9531 162.3600,95.8625 162.3600,94.6875 162.3719,94.5969 162.4233,94.4867 162.5092,94.4008 162.6194,94.3494 162.7100,94.3375 Z"/> 
</g>
<g style="fill:#000000; fill-opacity:1.0000;  stroke:#000000; stroke-width:0.0000; stroke-opacity:1;  stroke-linecap:round; stroke-linejoin:round;">
<path style="fill:#000000; fill-opacity:1.0000;  stroke:#000000; stroke-width:0.0000; stroke-opacity:1;  stroke-linecap:round; stroke-linejoin:round;fill-rule:evenodd;" d="M 132.3600,95.3000 132.2763,95.2922 132.1497,95.2479 132.0418,95.1682 131.9621,95.0603 131.9178,94.9337 131.9100,94.8500 131.9100,94.1500 131.9178,94.0663 131.9621,93.9397 132.0418,93.8318 132.1497,93.7521 132.2763,93.7078 132.3600,93.7000 133.2600,93.7000 133.3437,93.7078 133.4703,93.7521 133.5782,93.8318 133.6579,93.9397 133.7022,94.0663 133.7100,94.1500 133.7100,94.8500 133.7022,94.9337 133.6579,95.0603 133.5782,95.1682 133.4703,95.2479 133.3437,95.2922 133.2600,95.3000 Z"/> 
<path style="fill:#000000; fill-opacity:1.0000;  stroke:#000000; stroke-width:0.0000; stroke-opacity:1;  stroke-linecap:round; stroke-linejoin:round;fill-rule:evenodd;" d="M 132.3600,93.3000 132.2763,93.2922 132.1497,93.2479 132.0418,93.1682 131.9621,93.0603 131.9178,92.9337 131.9100,92.8500 131.9100,92.1500 131.9178,92.0663 131.9621,91.9397 132.0418,91.8318 132.1497,91.7521 132.2763,91.7078 132.3600,91.7000 133.2600,91.7000 133.3437,91.7078 133.4703,91.7521 133.5782,91.8318 133.6579,91.9397 133.7022,92.0663 133.7100,92.1500 133.7100,92.8500 133.7022,92.9337 133.6579,93.0603 133.5782,93.1682 133.4703,93.2479 133.3437,93.2922 133.2600,93.3000 Z"/> 
</g>
<g style="fill:#000000; fill-opacity:1.0000;  stroke:#000000; stroke-width:0.0000; stroke-opacity:1;  stroke-linecap:round; stroke-linejoin:round;">
<path style="fill:#000000; fill-opacity:1.0000;  stroke:#000000; stroke-width:0.0000; stroke-opacity:1;  stroke-linecap:round; stroke-linejoin:round;fill-rule:evenodd;" d="M 160.8600,95.6000 160.8522,95.6837 160.8079,95.8103 160.7282,95.9182 160.6203,95.9979 160.4937,96.0422 160.4100,96.0500 159.8100,96.0500 159.7263,96.0422 159.5997,95.9979 159.4918,95.9182 159.4121,95.8103 159.3678,95.6837 159.3600,95.6000 159.3600,95.0000 159.3678,94.9163 159.4121,94.7897 159.4918,94.6818 159.5997,94.6021 159.7263,94.5578 159.8100,94.5500 160.4100,94.5500 160.4937,94.5578 160.6203,94.6021 160.7282,94.6818 160.8079,94.7897 160.8522,94.9163 160.8600,95.0000 Z"/> 
<path style="fill:#000000; fill-opacity:1.0000;  stroke:#000000; stroke-width:0.0000; stroke-opacity:1;  stroke-linecap:round; stroke-linejoin:round;fill-rule:evenodd;" d="M 158.0600,95.6000 158.0522,95.6837 158.0079,95.8103 157.9282,95.9182 157.8203,95.9979 157.6937,96.0422 157.6100,96.0500 157.0100,96.0500 156.9263,96.0422 156.7997,95.9979 156.6918,95.9182 156.6121,95.8103 156.5678,95.6837 156.5600,95.6000 156.5600,95.0000 156.5678,94.9163 156.6121,94.7897 156.6918,94.6818 156.7997,94.6021 156.9263,94.5578 157.0100,94.5500 157.6100,94.5500 157.6937,94.5578 157.8203,94.6021 157.9282,94.6818 158.0079,94.7897 158.0522,94.9163 158.0600,95.0000 Z"/> 
</g>
<g style="fill:#000000; fill-opacity:1.0000;  stroke:#000000; stroke-width:0.0000; stroke-opacity:1;  stroke-linecap:round; stroke-linejoin:round;">
<path style="fill:#000000; fill-opacity:1.0000;  stroke:#000000; stroke-width:0.0000; stroke-opacity:1;  stroke-linecap:round; stroke-linejoin:round;fill-rule:evenodd;" d="M 118.3100,106.0500 118.3178,105.9663 118.3621,105.8397 118.4418,105.7318 118.5497,105.6521 118.6763,105.6078 118.7600,105.6000 119.4600,105.6000 119.5437,105.6078 119.6703,105.6521 119.7782,105.7318 119.8579,105.8397 119.9022,105.9663 119.9100,106.0500 119.9100,106.9500 119.9022,107.0337 119.8579,107.1603 119.7782,107.2682 119.6703,107.3479 119.5437,107.3922 119.4600,107.4000 118.7600,107.4000 118.6763,107.3922 118.5497,107.3479 118.4418,107.2682 118.3621,107.1603 118.3178,107.0337 118.3100,106.9500 Z"/> 
<path style="fill:#000000; fill-opacity:1.0000;  stroke:#000000; stroke-width:0.0000; stroke-opacity:1;  stroke-linecap:round; stroke-linejoin:round;fill-rule:evenodd;" d="M 120.3100,106.0500 120.3178,105.9663 120.3621,105.8397 120.4418,105.7318 120.5497,105.6521 120.6763,105.6078 120.7600,105.6000 121.4600,105.6000 121.5437,105.6078 121.6703,105.6521 121.7782,105.7318 121.8579,105.8397 121.9022,105.9663 121.9100,106.0500 121.9100,106.9500 121.9022,107.0337 121.8579,107.1603 121.7782,107.2682 121.6703,107.3479 121.5437,107.3922 121.4600,107.4000 120.7600,107.4000 120.6763,107.3922 120.5497,107.3479 120.4418,107.2682 120.3621,107.1603 120.3178,107.0337 120.3100,106.9500 Z"/> 
</g>
<g style="fill:#000000; fill-opacity:1.0000;  stroke:#000000; stroke-width:0.0000; stroke-opacity:1;  stroke-linecap:round; stroke-linejoin:round;">
<path style="fill:#000000; fill-opacity:1.0000;  stroke:#000000; stroke-width:0.0000; stroke-opacity:1;  stroke-linecap:round; stroke-linejoin:round;fill-rule:evenodd;" d="M 149.1600,107.6000 149.0763,107.5922 148.9497,107.5479 148.8418,107.4682 148.7621,107.3603 148.7178,107.2337 148.7100,107.1500 148.7100,106.4500 148.7178,106.3663 148.7621,106.2397 148.8418,106.1318 148.9497,106.0521 149.0763,106.0078 149.1600,106.0000 150.0600,106.0000 150.1437,106.0078 150.2703,106.0521 150.3782,106.1318 150.4579,106.2397 150.5022,106.3663 150.5100,106.4500 150.5100,107.1500 150.5022,107.2337 150.4579,107.3603 150.3782,107.4682 150.2703,107.5479 150.1437,107.5922 150.0600,107.6000 Z"/> 
<path style="fill:#000000; fill-opacity:1.0000;  stroke:#000000; stroke-width:0.0000; stroke-opacity:1;  stroke-linecap:round; stroke-linejoin:round;fill-rule:evenodd;" d="M 149.1600,105.6000 149.0763,105.5922 148.9497,105.5479 148.8418,105.4682 148.7621,105.3603 148.7178,105.2337 148.7100,105.1500 148.7100,104.4500 148.7178,104.3663 148.7621,104.2397 148.8418,104.1318 148.9497,104.0521 149.0763,104.0078 149.1600,104.0000 150.0600,104.0000 150.1437,104.0078 150.2703,104.0521 150.3782,104.1318 150.4579,104.2397 150.5022,104.3663 150.5100,104.4500 150.5100,105.1500 150.5022,105.2337 150.4579,105.3603 150.3782,105.4682 150.2703,105.5479 150.1437,105.5922 150.0600,105.6000 Z"/> 
</g>
<g style="fill:#000000; fill-opacity:1.0000;  stroke:#000000; stroke-width:0.0000; stroke-opacity:1;  stroke-linecap:round; stroke-linejoin:round;">
<path style="fill:#000000; fill-opacity:1.0000;  stroke:#000000; stroke-width:0.0000; stroke-opacity:1;  stroke-linecap:round; stroke-linejoin:round;fill-rule:evenodd;" d="M 119.6100,102.7800 119.5335,102.7648 119.4686,102.7214 119.4252,102.6565 119.4100,102.5800 119.4100,100.3800 119.4252,100.3035 119.4686,100.2386 119.5335,100.1952 119.6100,100.1800 121.8100,100.1800 121.8865,100.1952 121.9514,100.2386 121.9948,100.3035 122.0100,100.3800 122.0100,102.5800 121.9948,102.6565 121.9514,102.7214 121.8865,102.7648 121.8100,102.7800 Z"/> 
<circle cx="120.7100" cy="91.3200" r="1.3000"/> 
</g>
<g style="fill:#000000; fill-opacity:1.0000;  stroke:#000000; stroke-width:0.0000; stroke-opacity:1;  stroke-linecap:round; stroke-linejoin:round;">
<circle cx="155.5100" cy="79.1542" r="0.9620"/> 
</g>
<g style="fill:#000000; fill-opacity:1.0000;  stroke:#000000; stroke-width:0.0000; stroke-opacity:1;  stroke-linecap:round; stroke-linejoin:round;">
<circle cx="160.5100" cy="79.1542" r="0.9620"/> 
</g>
<g style="fill:#000000; fill-opacity:1.0000;  stroke:#000000; stroke-width:0.0000; stroke-opacity:1;  stroke-linecap:round; stroke-linejoin:round;">
<circle cx="165.5100" cy="79.1542" r="0.9620"/> 
</g>
<g style="fill:#000000; fill-opacity:1.0000;  stroke:#000000; stroke-width:0.0000; stroke-opacity:1;  stroke-linecap:round; stroke-linejoin:round;">
<circle cx="130.0100" cy="76.4458" r="0.9620"/> 
</g>
<g style="fill:#000000; fill-opacity:1.0000;  stroke:#000000; stroke-width:0.0000; stroke-opacity:1;  stroke-linecap:round; stroke-linejoin:round;">
<circle cx="125.0100" cy="76.4458" r="0.9620"/> 
</g>
<g style="fill:#000000; fill-opacity:1.0000;  stroke:#000000; stroke-width:0.0000; stroke-opacity:1;  stroke-linecap:round; stroke-linejoin:round;">
<circle cx="120.0100" cy="76.4458" r="0.9620"/> 
</g>
<g style="fill:#000000; fill-opacity:1.0000;  stroke:#000000; stroke-width:0.0000; stroke-opacity:1;  stroke-linecap:round; stroke-linejoin:round;">
<circle cx="165.5100" cy="76.5500" r="0.9620"/> 
</g>
<g style="fill:#000000; fill-opacity:1.0000;  stroke:#000000; stroke-width:0.0000; stroke-opacity:1;  stroke-linecap:round; stroke-linejoin:round;">
<circle cx="160.5100" cy="76.5500" r="0.9620"/> 
</g>
<g style="fill:#000000; fill-opacity:1.0000;  stroke:#000000; stroke-width:0.0000; stroke-opacity:1;  stroke-linecap:round; stroke-linejoin:round;">
<circle cx="155.5100" cy="76.5500" r="0.9620"/> 
</g>
<g style="fill:#000000; fill-opacity:1.0000;  stroke:#000000; stroke-width:0.0000; stroke-opacity:1;  stroke-linecap:round; stroke-linejoin:round;">
<circle cx="120.0100" cy="79.4042" r="0.9620"/> 
</g>
<g style="fill:#000000; fill-opacity:1.0000;  stroke:#000000; stroke-width:0.0000; stroke-opacity:1;  stroke-linecap:round; stroke-linejoin:round;">
<circle cx="125.0100" cy="79.4042" r="0.9620"/> 
</g>
<g style="fill:#000000; fill-opacity:1.0000;  stroke:#000000; stroke-width:0.0000; stroke-opacity:1;  stroke-linecap:round; stroke-linejoin:round;">
<circle cx="130.0100" cy="79.4042" r="0.9620"/> 
</g>
</g> 
</mask></defs><g transform="" id="boardContainer"><g id="substrate" clip-path="url(#cut-off)" mask="url(#pads-mask-silkscreen)"><g id="substrate-board" style="fill:#143324; fill-opacity:0.25098039215686274; stroke:#143324; stroke-width:0;"><path d="M141.6700 109.4900 L141.6700 107.7600 M 148.5 107.75 L 150.5 109.75 L 169.0 109.75 L 170.5 108.25 L 170.5 85.0 L 170.5 57.0 L 165.5 52.0 L 148.75 52.0 L 148.75 62.5 L 136.75 62.5 L 136.75 52.0 L 120.0 52.0 L 115.0 57.0 L 115.0 108.25 L 116.5 109.75 L 135.35 109.75 L 137.35 107.75 L 140.6 107.75 L 140.6 109.5 L 137.7 109.5 L 135.95 111.25 L 117.0 111.25 L 116.5 111.25 L 115.0 112.75 L 115.0 121.0 L 115.0 134.5 L 127.0 146.5 L 128.0 147.5 L 128.5 147.5 L 132.5 147.5 L 133.5 148.5 L 133.5 151.0 L 134.5 152.0 L 158.0 152.0 L 169.0 141.0 L 169.0 133.5 L 170.5 132.0 L 170.5 112.75 L 169.0 111.25 L 164.75 111.25 L 149.75 111.25 L 148.0 109.5 L 145.4 109.5 L 145.4 107.75 L 148.5 107.75  M 144.29 107.76 L 144.29 109.49 L 141.67 109.49 L 141.67 107.76 L 144.29 107.76 " style="fill-rule: evenodd;"/><g style="fill-opacity: 0.0;stroke-width: 0.1500;stroke-opacity: 1;stroke-linecap: round;stroke-linejoin: round">
<path d="M145.4000 107.7500 L148.5000 107.7500 "/>
<path d="M137.7000 109.5000 L140.6000 109.5000 "/>
<path d="M128.0000 147.5000 L127.0000 146.5000 "/>
<path d="M115.0000 134.5000 L115.0000 121.0000 "/>
<path d="M135.3500 109.7500 L116.5000 109.7500 "/>
<path d="M145.4000 109.5000 L148.0000 109.5000 "/>
<path d="M148.7500 62.5000 L148.7500 52.0000 "/>
<path d="M127.0000 146.5000 L115.0000 134.5000 "/>
<path d="M115.0000 57.0000 L115.0000 108.2500 "/>
<path d="M169.0000 141.0000 L158.0000 152.0000 "/>
<path d="M133.5000 151.0000 L133.5000 148.5000 "/>
<path d="M149.7500 111.2500 L164.7500 111.2500 "/>
<path d="M148.5000 107.7500 L150.5000 109.7500 "/>
<path d="M165.5000 52.0000 L170.5000 57.0000 "/>
<path d="M169.0000 109.7500 L170.5000 108.2500 "/>
<path d="M169.0000 133.5000 L170.5000 132.0000 "/>
<path d="M116.5000 109.7500 L115.0000 108.2500 "/>
<path d="M140.6000 107.7500 L140.6000 109.5000 "/>
<path d="M137.3500 107.7500 L135.3500 109.7500 "/>
<path d="M115.0000 57.0000 L120.0000 52.0000 "/>
<path d="M170.5000 85.0000 L170.5000 57.0000 "/>
<path d="M136.7500 62.5000 L148.7500 62.5000 "/>
<path d="M136.7500 52.0000 L120.0000 52.0000 "/>
<path d="M170.5000 112.7500 L169.0000 111.2500 "/>
<path d="M135.9500 111.2500 L117.0000 111.2500 "/>
<path d="M134.5000 152.0000 L158.0000 152.0000 "/>
</g>
<g style="fill-opacity: 1.0000;stroke-width: 0.0000;stroke-opacity: 1;stroke-linecap: round;stroke-linejoin: round">
<circle cx="116.5000" cy="109.7500" r="0.0750"/> 
</g>
<g style="fill-opacity: 0.0;stroke-width: 0.1500;stroke-opacity: 1;stroke-linecap: round;stroke-linejoin: round">
<path d="M137.7000 109.5000 L135.9500 111.2500 "/>
<path d="M169.0000 133.5000 L169.0000 141.0000 "/>
<path d="M170.5000 108.2500 L170.5000 85.0000 "/>
<path d="M136.7500 52.0000 L136.7500 62.5000 "/>
<path d="M134.5000 152.0000 L133.5000 151.0000 "/>
<path d="M133.5000 148.5000 L132.5000 147.5000 "/>
<path style="fill-opacity: 0.0;stroke-width: 0.1500;stroke-opacity: 1;stroke-linecap: round;stroke-linejoin: round" d="M 141.6700,107.7600 144.2900,107.7600 144.2900,109.4900 141.6700,109.4900 Z"/> 
<path d="M115.0000 112.7500 L115.0000 121.0000 "/>
<path d="M148.7500 52.0000 L165.5000 52.0000 "/>
<path d="M132.5000 147.5000 L128.5000 147.5000 "/>
<path d="M145.4000 107.7500 L145.4000 109.5000 "/>
<path d="M169.0000 111.2500 L164.7500 111.2500 "/>
<path d="M116.5000 111.2500 L115.0000 112.7500 "/>
<path d="M148.0000 109.5000 L149.7500 111.2500 "/>
<path d="M170.5000 132.0000 L170.5000 112.7500 "/>
<path d="M128.5000 147.5000 L128.0000 147.5000 "/>
<path d="M137.3500 107.7500 L140.6000 107.7500 "/>
<path d="M150.5000 109.7500 L169.0000 109.7500 "/>
<path d="M117.0000 111.2500 L116.5000 111.2500 "/>
</g> 
</g></g></g></svg>
